<?xml version="1.0" encoding="utf-8"?>
<!-- Generator: Adobe Illustrator 25.2.1, SVG Export Plug-In . SVG Version: 6.00 Build 0)  -->
<svg version="1.1" id="Layer_1" xmlns="http://www.w3.org/2000/svg" xmlns:xlink="http://www.w3.org/1999/xlink" x="0px" y="0px"
	 viewBox="0 0 512 512" style="enable-background:new 0 0 512 512;" xml:space="preserve">
<style type="text/css">
	.st0{fill:#FFAFC3;}
	.st1{fill:#FFA5B9;}
	.st2{fill:#FF9BAF;}
	.st3{fill:#FF91A5;}
	.st4{fill:#FF879B;}
	.st5{fill:#FF7D91;}
	.st6{fill:#FF7387;}
	.st7{fill:#FF6478;}
	.st8{fill:#FF5064;}
	.st9{fill:#D24150;}
</style>
<g>
	<path class="st0" d="M454.2,247.5l-47.5,134.7c-1.4,3.9,0.2,8.2,3.7,10.3c4.1,2.5,8.7,4.5,11.8,4.5c14.8,0,29.2-17,43.2-33.5
		c10.4-12.2,22.1-26.1,31.6-29.9c2.6-1,7-3.9,7.8-11.8c1.5-14.7-16.5-56.3-39.4-77.4C461.8,241.2,455.8,242.9,454.2,247.5z"/>
	<g>
		<path class="st1" d="M115.6,328.3l-7.9-13.1c-15.4-25.7-44.6-39.6-74.3-35.4l-8.2,1.2c-2.7,0.4-5.1,2-6.5,4.5
			c-11,19.9-6.1,37.3-1.8,52.7c3.3,11.6,6.1,21.7,2.2,31.9c-1,2.6-0.7,5.5,0.8,7.8c3,4.8,42.3,33,83.5,36.9c0.3,0,0.6,0,0.8,0
			c2.8,0,5.4-1.3,7.1-3.5C129.6,387,131.3,354.4,115.6,328.3z"/>
		<path class="st1" d="M211.1,28.9c-26.6-21.6-72.7-19-78.2-17.1c-2.9,1-5.1,3.4-5.8,6.4c-2,8.3-8.1,17.7-14.1,26.8
			c-10.1,15.4-20.5,31.4-16.6,48.7c0.9,4,4.5,6.9,8.6,6.9c0.1,0,0.3,0,0.4,0l22-1c38-1.7,71.7-25.2,86.4-60.3l0,0
			C215.3,35.5,214.2,31.3,211.1,28.9z"/>
		<path class="st1" d="M496.7,194.8c-14.1-57.8-79-81.1-81.8-82c-4.6-1.6-9.6,0.8-11.2,5.4c-0.7,2-17,49.4-7.8,95.4
			c9.1,45.5,41.2,89.8,42.5,91.7c1.7,2.3,4.4,3.6,7.1,3.6c0.6,0,1.2-0.1,1.8-0.2c3.4-0.7,6.1-3.3,6.8-6.7
			c2.3-10.1,16.8-42.7,27.4-66.5C497.7,199.1,497.7,198.8,496.7,194.8z"/>
	</g>
	<g>
		<path class="st2" d="M139.7,82.7c-1.6-2.1-4-3.4-6.6-3.6C95.3,77,29,139.3,21.6,146.4c-1,1-1.8,2.2-2.2,3.5
			c-1.1,3.3-27.1,80.6,0.4,132.6c10.9,20.7,28.6,34.5,52.6,41.1c0.8,0.2,1.6,0.3,2.3,0.3c1.5,0,3.1-0.4,4.4-1.2
			c2.1-1.2,3.5-3.2,4.1-5.5l58-227.2C141.8,87.5,141.3,84.8,139.7,82.7z"/>
		<path class="st2" d="M373.4,64.6c-40.2-23.2-55.7-57.8-55.9-58.2c-1.2-2.7-3.7-4.7-6.6-5.2c-0.9-0.2-89-14.2-118.5,54.4
			c-1.7,4-0.3,8.7,3.5,11L406.7,197c1.4,0.9,3,1.3,4.6,1.3c0.9,0,1.8-0.1,2.7-0.4c2.5-0.8,4.5-2.6,5.5-5
			C432.8,161.3,432,98.5,373.4,64.6z"/>
		<path class="st2" d="M399.7,397.2c-0.3-4.5-3.8-8-8.3-8.3l-277.8-16.9c-3.6-0.2-7,1.8-8.5,5.1c-4.9,10.4-7.5,27.8-0.2,45.6
			c9.3,22.7,31.8,40.8,67,53.7c17.9,6.6,30.5,12.9,41.7,18.4c13.9,6.9,25.8,12.8,41.5,15.9c4.4,0.9,8.9,1.3,13.4,1.3
			c21.4,0,44-9.4,64.9-27.3c4.1-3.5,10.1-7,16.4-10.7C372,461,402.4,443.3,399.7,397.2z"/>
	</g>
	<path class="st3" d="M442.7,268c-4.6-14-9.4-28.4-11.2-42.7c-3.2-24.9-13-43.6-29.1-55.5c-24.5-18.1-54.5-13.1-55.8-12.9
		c-2.9,0.5-5.3,2.4-6.5,5.1L222.6,424.8c-1.5,3.4-0.7,7.5,2,10.1c14.9,14,35.8,23.9,57.4,23.9c15.7,0,31.7-5.2,46.2-17.9
		c17.5-15.4,34.6-23.4,51.1-31.2c27.6-13,53.7-25.3,70.7-68C459.3,318.3,451.2,293.8,442.7,268z"/>
	<path class="st4" d="M351.5,123.5c-8.8-17.7-17.7-26.5-50.6-37c-19-6.1-41.5-9.5-64.4-23c-43.4-25.5-77.9-8.1-94.7,4.6
		c-28.5,21.5-46.1,60.1-39.3,86c1,3.8,4.4,6.5,8.3,6.6l228.7,7c0.1,0,0.2,0,0.3,0c1.6,0,3.2-0.4,4.6-1.3
		C353,161.2,361.5,143.6,351.5,123.5z"/>
	<path class="st5" d="M259.2,400.5l-94.6-256.3c-0.6-1.7-1.7-3.1-3.2-4.2c-13.2-9.3-32.5-7.6-52.8,4.7C72,166.9,35.1,210,42.5,264.8
		c3.4,25.3,14.8,38.5,25.9,51.2c7.3,8.4,18.7,25.1,24.7,38.2c22.1,48.1,59,80.8,96.1,85.3c3,0.4,5.9,0.5,8.9,0.5
		c22.7,0,43.6-10.8,59.7-31C259.7,406.6,260.2,403.4,259.2,400.5z"/>
	<path class="st6" d="M347.7,157.3c-18.9-17.9-39.4-24-57.6-17.2c-1.2,0.4-2.2,1.1-3.1,2l-144.9,144c-0.7,0.7-1.2,1.4-1.6,2.2
		c-7.4,14.5-5.8,39.2,3.9,61.7c7.2,16.7,25.4,46.6,65.7,58.3c9.6,2.8,19.6,4.1,29.7,4.1c60.4,0,125.8-47,145.7-110.3
		C402.6,247.5,378.8,186.8,347.7,157.3z"/>
	<path class="st7" d="M256.1,121.9c-35.9-13.7-77.3-6.3-105.6,18.7c-19.6,17.4-48.6,57.4-47.8,96.6c0.4,19.5,8.5,36.3,23.5,48.5
		c18.7,15.3,37.5,20.2,53.9,20.2c21.9,0,39.5-8.7,47.2-13.2c0.9-0.4,1.8-1,2.5-1.8l82.6-84.4c1.9-1.9,2.8-4.6,2.5-7.2
		C310.5,162.7,289.1,134.5,256.1,121.9z"/>
	<path class="st8" d="M313,194.9c-16.4-20.9-40.8-34.2-66.8-36.5c-21-1.9-40.9,4-54.4,16.1c-24.5,21.9-33.5,48.8-24.6,73.8
		c4.5,12.8,13.6,23.8,24.4,30.7l0,0c-14.6,2-22.9,17.9-16,30.9c9.8,18.4,25.9,34.7,46.4,38.5c5.1,1,10.1,1.4,15.2,1.4
		c26.5,0,59.4-8,79-32.1C339.2,289.5,352.9,245.6,313,194.9z"/>
	<path class="st9" d="M267.6,261.8c-5.2-0.4-18,11.5-32.7-4c-7.6-8-9-20.6-4.1-30.5c1.2-2.4,2.6-4.5,4.2-6.3c3.2-3.5,0.6-9-4.1-8.5
		c-12.5,1.4-24.3,8.4-31.2,20.9c-8,14.2-6.5,32.5,3.8,45.1c17,21,47.7,20.2,63.8,0.4c1.7-2.1,3.1-4.2,4.2-6.5
		C273.5,268.4,273.9,262.3,267.6,261.8z"/>
</g>
</svg>
