<svg id="lebanon" enable-background="new 0 0 300 300" height="512" viewBox="0 0 300 300" width="512" xmlns="http://www.w3.org/2000/svg"><circle cx="150" cy="130" fill="#edebdc" r="90"/><path d="m132 72h64v200h-64z" fill="#ffec95"/><path d="m196 276h-64c-2.211 0-4-1.791-4-4v-200c0-2.209 1.789-4 4-4h64c2.211 0 4 1.791 4 4v200c0 2.209-1.789 4-4 4zm-60-8h56v-192h-56z" fill="#4c241d"/><path d="m211.855 238.597 16.145 12.186v21.217h-16.145z" fill="#ffec95"/><path d="m228 276h-16.145c-2.211 0-4-1.791-4-4v-33.402c0-1.518.859-2.904 2.215-3.58 1.359-.678 2.984-.527 4.195.387l16.145 12.186c1 .756 1.59 1.939 1.59 3.193v21.216c0 2.209-1.789 4-4 4zm-12.145-8h8.145v-15.225l-8.145-6.146z" fill="#4c241d"/><path d="m116 238.597-16.145 12.186v21.217h16.145z" fill="#ffec95"/><path d="m116 276h-16.145c-2.211 0-4-1.791-4-4v-21.217c0-1.254.59-2.438 1.59-3.193l16.145-12.186c1.211-.914 2.832-1.064 4.195-.387 1.355.676 2.215 2.062 2.215 3.58v33.403c0 2.209-1.789 4-4 4zm-12.145-8h8.145v-21.371l-8.145 6.146z" fill="#4c241d"/><path d="m148 248c-2.211 0-4-1.791-4-4v-120c0-2.209 1.789-4 4-4s4 1.791 4 4v120c0 2.209-1.789 4-4 4z" fill="#4c241d"/><path d="m164 248c-2.211 0-4-1.791-4-4v-120c0-2.209 1.789-4 4-4s4 1.791 4 4v120c0 2.209-1.789 4-4 4z" fill="#4c241d"/><path d="m180 248c-2.211 0-4-1.791-4-4v-120c0-2.209 1.789-4 4-4s4 1.791 4 4v120c0 2.209-1.789 4-4 4z" fill="#4c241d"/><path d="m196 260h-64c-2.211 0-4-1.791-4-4s1.789-4 4-4h64c2.211 0 4 1.791 4 4s-1.789 4-4 4z" fill="#4c241d"/><path d="m196 116h-64c-2.211 0-4-1.791-4-4s1.789-4 4-4h64c2.211 0 4 1.791 4 4s-1.789 4-4 4z" fill="#4c241d"/><path d="m128 40h72v32h-72z" fill="#ffce56"/><g fill="#4c241d"><path d="m200 76h-72c-2.211 0-4-1.791-4-4v-32c0-2.209 1.789-4 4-4h72c2.211 0 4 1.791 4 4v32c0 2.209-1.789 4-4 4zm-68-8h64v-24h-64z"/><path d="m200 56h-68c-2.211 0-4-1.791-4-4s1.789-4 4-4h68c2.211 0 4 1.791 4 4s-1.789 4-4 4z"/><path d="m148 76c-2.211 0-4-1.791-4-4v-20c0-2.209 1.789-4 4-4s4 1.791 4 4v20c0 2.209-1.789 4-4 4z"/><path d="m164 76c-2.211 0-4-1.791-4-4v-20c0-2.209 1.789-4 4-4s4 1.791 4 4v20c0 2.209-1.789 4-4 4z"/><path d="m180 76c-2.211 0-4-1.791-4-4v-16c0-2.209 1.789-4 4-4s4 1.791 4 4v16c0 2.209-1.789 4-4 4z"/><path d="m200 48c-2.211 0-4-1.791-4-4v-16c0-2.209 1.789-4 4-4s4 1.791 4 4v16c0 2.209-1.789 4-4 4z"/><path d="m128 42.145c-2.211 0-4-1.791-4-4v-10.145c0-2.209 1.789-4 4-4s4 1.791 4 4v10.145c0 2.209-1.789 4-4 4z"/></g><path d="m212 272h-16v-200c0-4.418 3.582-8 8-8 4.418 0 8 3.582 8 8z" fill="#ffce56"/><path d="m212 276h-16c-2.211 0-4-1.791-4-4v-200c0-6.617 5.383-12 12-12s12 5.383 12 12v200c0 2.209-1.789 4-4 4zm-12-8h8v-196c0-2.205-1.793-4-4-4s-4 1.795-4 4z" fill="#4c241d"/><path d="m132 272h-16v-200c0-4.418 3.582-8 8-8 4.418 0 8 3.582 8 8z" fill="#ffce56"/><path d="m132 276h-16c-2.211 0-4-1.791-4-4v-200c0-6.617 5.383-12 12-12s12 5.383 12 12v200c0 2.209-1.789 4-4 4zm-12-8h8v-196c0-2.205-1.793-4-4-4s-4 1.795-4 4z" fill="#4c241d"/><circle cx="164" cy="92" fill="#e7d1c4" r="8.905"/><path d="m164 104.904c-7.117 0-12.906-5.789-12.906-12.904s5.789-12.904 12.906-12.904 12.906 5.789 12.906 12.904-5.789 12.904-12.906 12.904zm0-17.808c-2.707 0-4.906 2.199-4.906 4.904s2.199 4.904 4.906 4.904 4.906-2.199 4.906-4.904-2.199-4.904-4.906-4.904z" fill="#4c241d"/><path d="m212 236h-16c-2.211 0-4-1.791-4-4s1.789-4 4-4h16c2.211 0 4 1.791 4 4s-1.789 4-4 4z" fill="#4c241d"/><path d="m212 252h-16c-2.211 0-4-1.791-4-4s1.789-4 4-4h16c2.211 0 4 1.791 4 4s-1.789 4-4 4z" fill="#4c241d"/><path d="m132 236h-16c-2.211 0-4-1.791-4-4s1.789-4 4-4h16c2.211 0 4 1.791 4 4s-1.789 4-4 4z" fill="#4c241d"/><path d="m132 252h-16c-2.211 0-4-1.791-4-4s1.789-4 4-4h16c2.211 0 4 1.791 4 4s-1.789 4-4 4z" fill="#4c241d"/></svg>