<svg id="Capa_1" enable-background="new 0 0 512 512" height="512" viewBox="0 0 512 512" width="512" xmlns="http://www.w3.org/2000/svg"><g><g fill="#655e67"><path d="m106.49 75.675c-4.267 0-7.726-3.459-7.726-7.726v-25.736c0-4.267 3.459-7.726 7.726-7.726s7.726 3.459 7.726 7.726v25.735c0 4.267-3.459 7.727-7.726 7.727z"/><path d="m344.357 251.914c-2.67 0-5.267-1.386-6.698-3.865-2.134-3.696-.868-8.421 2.828-10.554l40.666-23.478c3.695-2.134 8.421-.868 10.554 2.828 2.134 3.696.868 8.421-2.828 10.554l-40.666 23.478c-1.217.703-2.546 1.037-3.856 1.037z"/><path d="m147.782 379.083c-27.031 0-49.022-21.991-49.022-49.022v-100.473c0-4.267 3.459-7.726 7.726-7.726s7.726 3.459 7.726 7.726v100.473c0 18.51 15.059 33.569 33.569 33.569s33.569-15.059 33.569-33.569v-76.226c0-22.525 18.325-40.851 40.851-40.851h12.678c7.928 0 15.747 2.095 22.613 6.058l31.968 18.452c3.696 2.133 4.963 6.858 2.829 10.554-2.134 3.697-6.86 4.961-10.554 2.829l-31.968-18.452c-4.521-2.609-9.669-3.988-14.889-3.988h-12.678c-14.005 0-25.398 11.394-25.398 25.398v76.226c.002 27.031-21.989 49.022-49.02 49.022z"/></g><path d="m349.383 240.872c0-8.711-3.24-16.661-8.578-22.72-3.979-4.516-5.995-10.433-5.995-16.452v-30.584h-39.67v30.59c0 6.153-2.24 12.08-6.254 16.743-5.429 6.307-8.612 14.601-8.298 23.646.381 10.983 6.059 20.781 14.552 26.832v30.64h39.67v-30.584c8.814-6.229 14.573-16.496 14.573-28.111z" fill="#717ed4"/><path d="m295.14 171.117h39.67v25.159h-39.67z" fill="#5766cc"/><path d="m344.653 357.813v-27.11h-59.357v27.11c0 15.718-10.637 29.433-25.862 33.34-22.877 5.87-53.581 15.82-59.876 28.115-6.27 12.245 4.526 42.003 14.532 64.532 7.621 17.158 24.64 28.201 43.414 28.201h114.939c18.774 0 35.793-11.043 43.414-28.201 10.007-22.529 20.802-52.287 14.532-64.532-6.295-12.294-36.998-22.245-59.876-28.115-15.223-3.907-25.86-17.622-25.86-33.34z" fill="#f0c99d"/><path d="m430.391 419.267c-6.295-12.294-36.998-22.244-59.876-28.115-15.225-3.907-25.862-17.622-25.862-33.34v-27.11h-31.971v35.351c0 15.718 10.162 29.433 24.707 33.34 21.856 5.87 51.189 15.82 57.203 28.115 5.99 12.245-4.324 33.761-13.884 56.29-7.28 17.159-23.538 28.202-41.475 28.202h33.211c18.774 0 35.793-11.043 43.414-28.201 10.007-22.529 20.803-52.287 14.533-64.532z" fill="#e9a761"/><path d="m314.975 424.202c-4.267 0-7.726-3.459-7.726-7.726v-85.772c0-4.267 3.459-7.726 7.726-7.726s7.726 3.459 7.726 7.726v85.772c0 4.266-3.459 7.726-7.726 7.726z" fill="#f0e9e6"/><path d="m199.559 419.267c-6.27 12.245 4.526 42.003 14.532 64.532 7.621 17.158 24.64 28.201 43.414 28.201h114.939c18.774 0 35.793-11.043 43.414-28.201 10.007-22.529 20.802-52.287 14.532-64.532-2.431-4.748-8.51-9.144-16.365-13.093h-198.1c-7.855 3.949-13.935 8.345-16.366 13.093z" fill="#717ed4"/><path d="m432.175 431.281c.633-11.007-1.877-16.926-18.15-25.107h-54.519c16.029 5.654 30.984 12.948 35.087 21.335 5.99 12.245-4.324 33.761-13.884 56.29-7.281 17.158-23.539 28.201-41.476 28.201h33.211c2.933 0 5.824-.27 8.643-.79 10.312-1.904 20.121-7.273 27.413-15.766 10.231-11.917 22.734-48.968 23.661-63.952.005-.07.01-.141.014-.211z" fill="#5766cc"/><path d="m87.464 78.346v140.839c0 5.742 4.655 10.398 10.398 10.398h17.256c5.742 0 10.398-4.655 10.398-10.398v-140.839c0-5.742-4.655-10.398-10.398-10.398h-17.256c-5.743 0-10.398 4.655-10.398 10.398z" fill="#77d1b3"/><path d="m295.14 80.71h39.67v45.792h-39.67z" fill="#655e67"/><path d="m295.14 80.71h39.67v20.419h-39.67z" fill="#544f56"/><path d="m263.731 307.134v23.729c0 4.178 3.387 7.566 7.566 7.566h87.357c4.178 0 7.566-3.387 7.566-7.566v-23.729c0-4.178-3.387-7.566-7.566-7.566h-87.357c-4.179 0-7.566 3.388-7.566 7.566z" fill="#655e67"/><path d="m240.087 134.712c0-4.534 3.675-8.209 8.209-8.209h133.358c4.534 0 8.209 3.675 8.209 8.209 0 20.106-16.299 36.405-36.405 36.405h-76.966c-20.106 0-36.405-16.3-36.405-36.405z" fill="#77d1b3"/><path d="m381.654 126.502h-25.18c4.534 0 8.209 3.675 8.209 8.209 0 20.106-16.299 36.405-36.405 36.405h25.18c20.106 0 36.405-16.299 36.405-36.405 0-4.533-3.675-8.209-8.209-8.209z" fill="#67b59f"/><path d="m362.566 0h-95.182c-2.101 0-3.799 1.776-3.643 3.871 1.176 15.768 9.476 29.544 21.684 38.146v35.05c0 2.012 1.631 3.643 3.643 3.643h51.814c2.012 0 3.643-1.631 3.643-3.643v-35.05c12.208-8.602 20.508-22.379 21.684-38.146.156-2.095-1.542-3.871-3.643-3.871z" fill="#717ed4"/><path d="m362.566 0h-29.376c2.101 0 3.799 1.776 3.643 3.871-1.176 15.768-9.476 29.544-21.684 38.146v35.05c0 2.012-1.631 3.643-3.643 3.643h29.376c2.012 0 3.643-1.631 3.643-3.643v-35.05c12.208-8.602 20.508-22.379 21.684-38.146.156-2.095-1.542-3.871-3.643-3.871z" fill="#5766cc"/><path d="m125.516 200.885h-38.052c-4.267 0-7.726-3.459-7.726-7.726s3.459-7.726 7.726-7.726h38.051c4.267 0 7.726 3.459 7.726 7.726s-3.458 7.726-7.725 7.726z" fill="#67b59f"/><path d="m125.516 162.769h-38.052c-4.267 0-7.726-3.459-7.726-7.726s3.459-7.726 7.726-7.726h38.051c4.267 0 7.726 3.459 7.726 7.726s-3.458 7.726-7.725 7.726z" fill="#67b59f"/></g></svg>