<?xml version="1.0" encoding="utf-8"?>
<!-- Generator: Adobe Illustrator 25.2.1, SVG Export Plug-In . SVG Version: 6.00 Build 0)  -->
<svg version="1.1" id="Layer_1" xmlns="http://www.w3.org/2000/svg" xmlns:xlink="http://www.w3.org/1999/xlink" x="0px" y="0px"
	 viewBox="0 0 512 512" style="enable-background:new 0 0 512 512;" xml:space="preserve">
<style type="text/css">
	.st0{fill:#CAEDFF;}
	.st1{opacity:0.61;fill:#FFA5B9;enable-background:new    ;}
	.st2{fill:#76C2E0;}
	.st3{fill:#FF7387;}
	.st4{fill:#FF5064;}
	.st5{fill:#FFAFC3;}
	.st6{fill:#FFA5B9;}
	.st7{fill:#FF9BAF;}
	.st8{fill:#FF91A5;}
	.st9{fill:#FF879B;}
	.st10{fill:#FF7D91;}
	.st11{fill:#FF6478;}
	.st12{fill:#D24150;}
	.st13{opacity:0.48;fill:#D24150;enable-background:new    ;}
</style>
<g id="XMLID_2145_">
	<g id="XMLID_1811_">
		<g id="XMLID_1276_">
			<g id="XMLID_924_">
				<path id="XMLID_1780_" class="st0" d="M431.2-14.1c4.8,0,8.6,4.1,8.2,8.9L435,51.9l-13.7,174.9l-20.6,263.5
					c-0.3,4.3-3.9,7.6-8.2,7.6H130.1c-4.3,0-7.9-3.3-8.2-7.6L90.3,85.4L83.2-5.3c-0.4-4.8,3.4-8.9,8.2-8.9L431.2-14.1L431.2-14.1z"
					/>
				<path id="XMLID_1_" class="st1" d="M431.6-14.1c4.8,0,8.6,4.1,8.2,8.9l-4.5,57.1l-13.7,174.9L401,490.3
					c-0.3,4.3-3.9,7.6-8.2,7.6H130.5c-4.3,0-7.9-3.3-8.2-7.6L90.7,85.5L83.6-5.2c-0.4-4.8,3.4-8.9,8.2-8.9H431.6z"/>
				<path id="XMLID_1827_" class="st2" d="M431.2-14.1c4.8,0,8.6,4.1,8.2,8.9L435,51.9l-13.7,174.9l-20.6,263.5
					c-0.3,4.3-3.9,7.6-8.2,7.6h-11.4l21.2-271.1L416,51.9l5.2-66L431.2-14.1L431.2-14.1z"/>
				<path id="XMLID_1783_" class="st3" d="M389.6,90.3c5.4-1.3,10.6,3,10.2,8.6l-5.7,76.7l-6.7,89.8l-14.1,188.7
					c-0.3,4.3-3.9,7.6-8.2,7.6h-207c-4.3,0-7.9-3.3-8.2-7.6l-24.8-331.6c-0.3-3.8,2.1-7.4,5.8-8.5c27.4-8.3,69.5-15.6,108.3,0.3
					c49,20,90.6-7.5,141.8-21.8C383.8,91.8,386.7,91,389.6,90.3z"/>
				<path id="XMLID_1226_" class="st4" d="M389.6,90.3c5.5-1.3,10.6,3,10.2,8.6l-5.7,76.7l-6.7,89.8l-14.1,188.7
					c-0.3,4.3-3.9,7.6-8.2,7.6h-9.9l14.7-196.3l6.7-89.8l6.2-83.5C385,91.5,387.3,90.9,389.6,90.3z"/>
			</g>
			<path id="XMLID_1087_" class="st0" d="M353.2,161.2c-4.3,0-7.7-3.5-7.7-7.7v-1.8c0-4.3,3.5-7.7,7.7-7.7s7.7,3.5,7.7,7.7v1.8
				C361,157.7,357.5,161.2,353.2,161.2z"/>
			<path id="XMLID_1089_" class="st0" d="M317.5,194.8c-4.3,0-7.7-3.5-7.7-7.7v-1.8c0-4.3,3.5-7.7,7.7-7.7s7.7,3.5,7.7,7.7v1.8
				C325.2,191.4,321.7,194.8,317.5,194.8z"/>
			<path id="XMLID_1092_" class="st0" d="M353.2,277.7c-4.3,0-7.7-3.5-7.7-7.7v-1.8c0-4.3,3.5-7.7,7.7-7.7s7.7,3.5,7.7,7.7v1.8
				C361,274.2,357.5,277.7,353.2,277.7z"/>
			<path id="XMLID_1093_" class="st0" d="M221.5,248.2c-4.3,0-7.7-3.5-7.7-7.7v-1.8c0-4.3,3.5-7.7,7.7-7.7s7.7,3.5,7.7,7.7v1.8
				C229.3,244.8,225.8,248.2,221.5,248.2z"/>
			<path id="XMLID_1088_" class="st0" d="M175.7,181.4c-4.3,0-7.7-3.5-7.7-7.7v-1.8c0-4.3,3.5-7.7,7.7-7.7s7.7,3.5,7.7,7.7v1.8
				C183.5,177.9,180,181.4,175.7,181.4z"/>
			<path id="XMLID_1235_" class="st0" d="M235.1,160.3c-4.3,0-7.7-3.5-7.7-7.7v-1.8c0-4.3,3.5-7.7,7.7-7.7s7.7,3.5,7.7,7.7v1.8
				C242.8,156.8,239.3,160.3,235.1,160.3z"/>
		</g>
	</g>
	<g id="XMLID_1970_">
		<path id="XMLID_1967_" class="st0" d="M285.8,456.1h-48.5c-4.6,0-8.2-3.7-8.2-8.2v-48.5c0-4.6,3.7-8.2,8.2-8.2h48.5
			c4.6,0,8.2,3.7,8.2,8.2v48.5C294,452.4,290.3,456.1,285.8,456.1z"/>
	</g>
	<g id="XMLID_1976_">
		<path id="XMLID_1993_" class="st0" d="M319.8,372.8L274,357c-4.3-1.5-6.6-6.2-5.1-10.5l15.8-45.8c1.5-4.3,6.2-6.6,10.5-5.1
			l45.8,15.8c4.3,1.5,6.6,6.2,5.1,10.5l-15.8,45.8C328.8,372,324.1,374.3,319.8,372.8z"/>
	</g>
</g>
<g>
	<path class="st5" d="M158,467.3l-11.9,33.6c-0.3,1,0,2,0.9,2.6c1,0.6,2.2,1.1,2.9,1.1c3.7,0,7.3-4.2,10.8-8.3
		c2.6-3.1,5.5-6.5,7.9-7.5c0.6-0.3,1.8-1,2-2.9c0.4-3.7-4.1-14-9.8-19.3C159.8,465.7,158.4,466.1,158,467.3z"/>
	<g>
		<path class="st6" d="M73.5,487.4l-2-3.3c-3.9-6.4-11.1-9.9-18.5-8.8l-2,0.3c-0.7,0.1-1.3,0.5-1.6,1.1c-2.7,5-1.5,9.3-0.5,13.1
			c0.8,2.9,1.5,5.4,0.6,8c-0.2,0.6-0.2,1.4,0.2,2c0.7,1.2,10.6,8.2,20.8,9.2c0.1,0,0.1,0,0.2,0c0.7,0,1.3-0.3,1.8-0.9
			C77,502.1,77.4,493.9,73.5,487.4z"/>
		<path class="st6" d="M97.3,412.7c-6.6-5.4-18.1-4.7-19.5-4.3c-0.7,0.2-1.3,0.9-1.5,1.6c-0.5,2.1-2,4.4-3.5,6.7
			c-2.5,3.8-5.1,7.8-4.1,12.1c0.2,1,1.1,1.7,2.1,1.7h0.1l5.5-0.2c9.5-0.4,17.9-6.3,21.5-15l0,0C98.4,414.4,98.1,413.3,97.3,412.7z"
			/>
		<path class="st6" d="M168.6,454.1c-3.5-14.4-19.7-20.2-20.4-20.5c-1.1-0.4-2.4,0.2-2.8,1.4c-0.2,0.5-4.2,12.3-1.9,23.8
			c2.3,11.4,10.3,22.4,10.6,22.9c0.4,0.6,1.1,0.9,1.8,0.9c0.1,0,0.3,0,0.4,0c0.8-0.2,1.5-0.8,1.7-1.7c0.6-2.5,4.2-10.6,6.8-16.6
			C168.8,455.2,168.8,455.1,168.6,454.1z"/>
	</g>
	<g>
		<path class="st7" d="M79.5,426.2c-0.4-0.5-1-0.9-1.7-0.9c-9.4-0.5-26,15-27.8,16.8c-0.3,0.2-0.4,0.5-0.6,0.9
			c-0.3,0.8-6.8,20.1,0.1,33.1c2.7,5.2,7.1,8.6,13.1,10.3c0.2,0.1,0.4,0.1,0.6,0.1c0.4,0,0.8-0.1,1.1-0.3c0.5-0.3,0.9-0.8,1-1.4
			l14.5-56.7C80,427.4,79.9,426.7,79.5,426.2z"/>
		<path class="st7" d="M137.8,421.7c-10-5.8-13.9-14.4-13.9-14.5c-0.3-0.7-0.9-1.2-1.7-1.3c-0.2,0-22.2-3.5-29.6,13.6
			c-0.4,1-0.1,2.2,0.9,2.7l52.6,32.5c0.4,0.2,0.8,0.3,1.2,0.3c0.2,0,0.5,0,0.7-0.1c0.6-0.2,1.1-0.7,1.4-1.2
			C152.6,445.8,152.4,430.1,137.8,421.7z"/>
		<path class="st7" d="M144.4,504.6c-0.1-1.1-1-2-2.1-2.1L73,498.3c-0.9,0-1.7,0.4-2.1,1.3c-1.2,2.6-1.9,6.9-0.1,11.4
			c2.3,5.7,7.9,10.2,16.7,13.4c4.5,1.6,7.6,3.2,10.4,4.6c3.5,1.7,6.4,3.2,10.4,4c1.1,0.2,2.2,0.3,3.3,0.3c5.3,0,11-2.3,16.2-6.8
			c1-0.9,2.5-1.7,4.1-2.7C137.4,520.5,145,516.1,144.4,504.6z"/>
	</g>
	<path class="st8" d="M155.1,472.4c-1.1-3.5-2.3-7.1-2.8-10.7c-0.8-6.2-3.2-10.9-7.3-13.8c-6.1-4.5-13.6-3.3-13.9-3.2
		c-0.7,0.1-1.3,0.6-1.6,1.3l-29.3,65.5c-0.4,0.9-0.2,1.9,0.5,2.5c3.7,3.5,8.9,6,14.3,6c3.9,0,7.9-1.3,11.5-4.5
		c4.4-3.8,8.6-5.8,12.7-7.8c6.9-3.2,13.4-6.3,17.6-17C159.2,484.9,157.2,478.8,155.1,472.4z"/>
	<path class="st9" d="M132.3,436.3c-2.2-4.4-4.4-6.6-12.6-9.2c-4.7-1.5-10.3-2.4-16.1-5.7c-10.8-6.4-19.4-2-23.6,1.1
		c-7.1,5.4-11.5,15-9.8,21.5c0.2,0.9,1.1,1.6,2.1,1.6l57,1.7c0,0,0,0,0.1,0c0.4,0,0.8-0.1,1.1-0.3
		C132.7,445.7,134.8,441.3,132.3,436.3z"/>
	<path class="st10" d="M109.3,505.4l-23.6-63.9c-0.2-0.4-0.4-0.8-0.8-1c-3.3-2.3-8.1-1.9-13.2,1.2c-9.1,5.5-18.3,16.3-16.5,29.9
		c0.9,6.3,3.7,9.6,6.4,12.8c1.8,2.1,4.7,6.3,6.2,9.5c5.5,12,14.7,20.1,24,21.3c0.7,0.1,1.5,0.1,2.2,0.1c5.7,0,10.9-2.7,14.9-7.7
		C109.4,506.9,109.6,506.1,109.3,505.4z"/>
	<path class="st3" d="M131.4,444.8c-4.7-4.5-9.8-6-14.4-4.3c-0.3,0.1-0.6,0.3-0.8,0.5l-36.1,35.9c-0.2,0.2-0.3,0.4-0.4,0.6
		c-1.8,3.6-1.5,9.8,1,15.4c1.8,4.2,6.3,11.6,16.4,14.5c2.4,0.7,4.9,1,7.4,1c15.1,0,31.4-11.7,36.3-27.5
		C145.1,467.3,139.2,452.1,131.4,444.8z"/>
	<path class="st11" d="M108.5,435.9c-8.9-3.4-19.3-1.6-26.3,4.7c-4.9,4.3-12.1,14.3-11.9,24.1c0.1,4.9,2.1,9.1,5.9,12.1
		c4.7,3.8,9.4,5,13.4,5c5.5,0,9.9-2.2,11.8-3.3c0.2-0.1,0.4-0.3,0.6-0.5l20.6-21c0.5-0.5,0.7-1.1,0.6-1.8
		C122.1,446.1,116.8,439.1,108.5,435.9z"/>
	<path class="st4" d="M122.7,454.1c-4.1-5.2-10.2-8.5-16.7-9.1c-5.2-0.5-10.2,1-13.6,4c-6.1,5.5-8.3,12.2-6.1,18.4
		c1.1,3.2,3.4,5.9,6.1,7.7l0,0c-3.6,0.5-5.7,4.5-4,7.7c2.4,4.6,6.5,8.6,11.6,9.6c1.3,0.2,2.5,0.4,3.8,0.4c6.6,0,14.8-2,19.7-8
		C129.3,477.7,132.7,466.8,122.7,454.1z"/>
	<path class="st12" d="M111.4,470.8c-1.3-0.1-4.5,2.9-8.2-1c-1.9-2-2.2-5.1-1-7.6c0.3-0.6,0.6-1.1,1.1-1.6c0.8-0.9,0.2-2.2-1-2.1
		c-3.1,0.3-6.1,2.1-7.8,5.2c-2,3.5-1.6,8.1,0.9,11.3c4.2,5.2,11.9,5,15.9,0.1c0.4-0.5,0.8-1.1,1.1-1.6
		C112.9,472.5,113,470.9,111.4,470.8z"/>
</g>
<path id="XMLID_2_" class="st13" d="M431.6-16.3c4.8,0,8.6,4.1,8.2,8.9l-4.5,57.1l-13.7,174.9L401,488.1c-0.3,4.3-3.9,7.6-8.2,7.6
	h-11.4l21.2-271.1l13.7-174.9l5.2-66L431.6-16.3L431.6-16.3z"/>
</svg>
