<svg xmlns="http://www.w3.org/2000/svg" viewBox="0 0 441.97 503.04"><defs><style>.cls-1{opacity:0.9;}.cls-2{fill:#e19362;}.cls-3{fill:#ece4d0;}.cls-4{fill:#76160e;}.cls-5{fill:#d6c399;}</style></defs><g id="Layer_2" data-name="Layer 2"><g id="Layer_6" data-name="Layer 6"><g class="cls-1"><path class="cls-2" d="M242.68,42.42a21.78,21.78,0,0,1-2.81-2.86,19.09,19.09,0,0,1-4-9.88A21.08,21.08,0,0,1,239.82,15c3.42-4.66,9.13-7.78,15.07-8.88a30.76,30.76,0,0,1,17.36,2,23.6,23.6,0,0,1,6.84,4.44,56.51,56.51,0,0,1,4.72,5.33c2.69,3.4,5.07,6.07,7.21,7.43a14.84,14.84,0,0,0,3.52,1.79l-1-.26a14.21,14.21,0,0,1-2.76-1.11,31,31,0,0,1-8-6.92,53.76,53.76,0,0,0-4.89-4.9,26.13,26.13,0,0,0-6.44-3.78,28.67,28.67,0,0,0-16.06-1.5c-5.45.9-10.62,3.62-13.77,7.73a20.14,20.14,0,0,0-4.26,13.24,19.58,19.58,0,0,0,3,9.69A16.79,16.79,0,0,0,242,41.62Z"/><path class="cls-2" d="M251.78,46.1A13,13,0,0,1,247.05,36a13.94,13.94,0,0,1,4.83-10.46,20.31,20.31,0,0,1,12.59-4.6,24,24,0,0,1,13.1,3.29,62.7,62.7,0,0,1,9.3,7.33,54.2,54.2,0,0,0,6.46,5.09,16.58,16.58,0,0,1,2,1.36,4.73,4.73,0,0,1,.67.65l-1,.81a9.06,9.06,0,0,0-2.34-1.81,52.57,52.57,0,0,1-6.51-5.31,61.83,61.83,0,0,0-9-7.37,23.17,23.17,0,0,0-12.64-3.41,19.82,19.82,0,0,0-12.35,4.27A13.63,13.63,0,0,0,247.25,36a13,13,0,0,0,2.41,7.78A12.77,12.77,0,0,0,251.78,46.1Z"/><path class="cls-3" d="M313,383.61c.38-2.68-15.7-7.66-15.7-7.66s-22.2,2.68-44.79,3.83-62-4.6-62-4.6c16.47,3.83,16.08,11.49,12.64,13s-31-1.91-31-1.91,3.06,1.53,14.16,3.82,36,5,75.81,4.6S312.61,386.29,313,383.61Z"/><path class="cls-4" d="M263.57,108.49h0Z"/><path class="cls-5" d="M413.77,289.84a33.41,33.41,0,0,1-6.75-.47c-.52,9-1,18.09-2.16,27.16-.45,3.58-1.45,7.45-2.25,11.73S400.24,337,399,341.89c-.85,2.37-1.72,4.83-2.62,7.35a76.18,76.18,0,0,1-3,7.7l-3.51,8-4.25,8.11a191,191,0,0,1-23,33.08,178.43,178.43,0,0,1-33.86,29.71,111.66,111.66,0,0,1-9.94,6.18c-1.73,1-3.29,2-5.17,2.94l-5.63,2.73a140.39,140.39,0,0,1-22.76,8.95,174.1,174.1,0,0,1-39.27,7,166.83,166.83,0,0,0,33.37-8.32,135.48,135.48,0,0,0,21.83-10.07l5.37-3c1.8-1,3.27-2.14,4.92-3.19,2.8-1.89,5.61-3.68,8.28-5.78,1.36-12.26,2.5-23.63,2.5-23.63s-10-6.89-49-7.27c-6.18-.07-12.15-.16-17.83-.29q4.14-.09,8.24-.25c5.89-.23,11.68-.66,17.28-1.14a248,248,0,0,0,30.39-4.43,113.71,113.71,0,0,0,11.87-3.2,49,49,0,0,0,8.73-3.72A15.49,15.49,0,0,0,335,387c.06.39.11.79.15,1.19.1,1.11.15,2.24.17,3.38v1.21l0,.44c0,.58-.06,1.18-.13,1.73-.26,2.19-.59,4.51-.92,6.82l-1.06,6.92-2.48,15.46q1.77-1.57,3.5-3.19,1-5.88,2.07-11.77l1.13-6.95c.34-2.32.69-4.63,1-7.09.08-.61.09-1.17.15-1.76l0-.44v-1.42c0-1.2-.07-2.41-.17-3.63a20.2,20.2,0,0,0-1.87-7.35,14,14,0,0,0-3.74-4.64l-.7-.54c-.36-.26-.57-.37-.87-.56a35.47,35.47,0,0,0-6.72-3,118.78,118.78,0,0,0-12.25-3.45c.05-.35.09-.7.13-1.06a18.37,18.37,0,0,0,.07-2.69,11,11,0,0,0-.19-1.46,8.75,8.75,0,0,0-.26-.85l-.12-.28-.11-.24-.07-.13a22,22,0,0,0-1.26-2.29,19.21,19.21,0,0,0-3.52-4,38.18,38.18,0,0,0-4.07-3.05,19.14,19.14,0,0,0-2.27-1.32c-.77-.41-1.57-.73-2.36-1.06a47.5,47.5,0,0,0-4.84-1.52c-1.62-.42-3.26-.75-4.9-1-1.31-.22-2.6-.4-3.92-.54l-.09-5.44a8.14,8.14,0,0,0,1.66-1.78,13.58,13.58,0,0,0,1.39-2.53,18.63,18.63,0,0,0,.9-2.67,23.36,23.36,0,0,0,.54-2.72c.15-.91.19-1.83.28-2.74s.05-1.82,0-2.73-.06-1.84-.13-2.73l-.26-2.67c-.24-1.82-.53-3.58-.92-5.35a48.88,48.88,0,0,0-1.5-5.19,33.92,33.92,0,0,0-5.05-9.46,36.25,36.25,0,0,1,4.4,9.67,46.14,46.14,0,0,1,1.21,5.17c.3,1.74.5,3.52.63,5.25l.12,2.67c0,.89,0,1.76,0,2.63s-.11,1.75-.16,2.62-.19,1.73-.37,2.58a21.28,21.28,0,0,1-.59,2.51c-.06.2-.13.4-.2.59l-2.65.17c-2.33.15-5.66.35-9.65.55s-8.63.37-13.6.5l-7.68.13c-2.16,0-4.36,0-6.55,0,3-.17,6-.5,8.77-.63,5.11-.24,10.52-.28,15.52-1.5,9.67-2.35,12.28-4.44,12.28-11.49,0-5.92-2.11-11.74-4.07-17.25a4.81,4.81,0,0,0,1.43-1.41,7.15,7.15,0,0,0,1-2.48,8.77,8.77,0,0,0,.17-1.68v-.41l4.47-1.88,3.63-1.52c1.13-.48,2.51-.81,3.38-1.72.44-.48,4.36-6.54,4.32-6.56l3-1.89a9.28,9.28,0,0,0,2.62-1.83c.92-1.2.21-2.45-.31-3.67-.67-1.44-1.32-2.58-1.76-3.39s-.72-1.26-.72-1.26l.69,1.28a22,22,0,0,1,1.45,3.5,3.84,3.84,0,0,1,.21,2.43,25,25,0,0,1-4.23-6.12,50.62,50.62,0,0,1-2.78-5.34,6.44,6.44,0,0,1-.38-1.27c-.05-.18,0-.32,0-.32s.11,0,.16,0a7.87,7.87,0,0,1,1.85,1.56,20.85,20.85,0,0,1,2.31,3l.76,1.22-.72-1.25c-.48-.78-1.15-1.91-2.07-3.22a8.15,8.15,0,0,0-1.77-2,.93.93,0,0,0-1.11,0,1.15,1.15,0,0,0-.31.83l-3.37,1.6a.88.88,0,0,0-.16,0,1.69,1.69,0,0,0-.71.39l-1.06.5-.13,0-7.73,1.25h-.05l-.07,0-5,2.49L272,277.92a9.84,9.84,0,0,1-1.39.74c-.84.24-1.36-.26-2.15-.56a9.54,9.54,0,0,0-2.29-.6,5.32,5.32,0,0,0-2.47.29,16,16,0,0,1-2.83-6.27,42.78,42.78,0,0,1-1-6.86,61.37,61.37,0,0,1-.09-6.91c.15-2.2,1.38-4.19,2.71-6,2.74-3.65,6.05-7,8.63-11a31.36,31.36,0,0,0,3.32-6.38,16.63,16.63,0,0,0,.61-7.31c-.68-4.9-3.1-9.24-5.79-13.1-1.32-1.94-2.92-3.79-4.08-5.59a26.24,26.24,0,0,1-2.79-6,33,33,0,0,1-1.41-6.54c-.14-1.11-.21-2.23-.26-3.33a18.14,18.14,0,0,1,.14-3.26,20.25,20.25,0,0,1,2-6.19,29.5,29.5,0,0,1,3.14-5.06l31.75-.41a1.54,1.54,0,0,0,1-.38l3.23-2.75a14.68,14.68,0,0,0,3.17.08,17,17,0,0,0,3.82-.7,19.08,19.08,0,0,0,3.57-1.45,20.69,20.69,0,0,0,3.21-2.07,18.85,18.85,0,0,0,1.48-1.25,15,15,0,0,0,1.33-1.29l.61-.64.35-.38.29-.35,1.17-1.4a63.54,63.54,0,0,0,4.19-5.93c1.29-2,2.47-4.13,3.61-6.2a67.3,67.3,0,0,1,3.54-5.93,10.63,10.63,0,0,1,2.09-2.24,18.93,18.93,0,0,1,2.79-1.74,28,28,0,0,1,3.07-1.35,26.93,26.93,0,0,1,3.22-1,1.48,1.48,0,0,0-.36-2.93c-9.62.18-19.24.3-28.85.55l-28.86.73L271,139.3l-8.47.26-2.64-9.39,0,0a7.33,7.33,0,0,0,1.38-.89,2.52,2.52,0,0,0,.67-1c0-.26.07-.41.07-.41s0,.15-.09.41a2.42,2.42,0,0,1-.7.92,7,7,0,0,1-1,.63c1.28-1.39,6-7,5-12.07a23.92,23.92,0,0,0-2.36-7.05c.25-.1.5-.19.72-.29a3.42,3.42,0,0,0,1.34-1,1.26,1.26,0,0,0,.17-.33,21.41,21.41,0,0,1,2.12,4.61,13.47,13.47,0,0,1,.69,5.52,11.55,11.55,0,0,1-.61,2.73,15.63,15.63,0,0,1-1.13,2.59,13.75,13.75,0,0,1-1.6,2.33,10.29,10.29,0,0,1-2.07,1.89l-.1.07,0,.1,1.78,9.71-1.45-9.67a12.59,12.59,0,0,0,3.87-4.18,17.42,17.42,0,0,0,1.26-2.65,12.88,12.88,0,0,0,.73-2.84,14.62,14.62,0,0,0-.53-5.85,22.3,22.3,0,0,0-2.21-5.15l2.07-5.88c.17-.53.39-1,.58-1.42s.5-.9.77-1.33a22.6,22.6,0,0,1,1.92-2.46,40.31,40.31,0,0,1,4.61-4.34,60.34,60.34,0,0,1,5.08-3.7A11.3,11.3,0,0,0,283.35,88a15.65,15.65,0,0,0,2.26-1.69,19.41,19.41,0,0,0,1.91-2,18.9,18.9,0,0,0,1.57-2.32,19.19,19.19,0,0,0,1.23-2.49,22.11,22.11,0,0,0,.94-2.63c.31-.92.42-1.73.65-2.6s.28-1.84.42-2.76.14-1.84.12-2.76a25.38,25.38,0,0,0-.14-2.76c-.07-.92-.22-1.83-.38-2.74s-.39-1.8-.62-2.68a34.8,34.8,0,0,0-1.91-5.17c-1-2.22-1.77-4.32-4.37-4.72-2.07-.33-4.18.09-6.26.11L251,51l-31.39.33-14.94.15h.7a30.83,30.83,0,0,0-4.89,9.33c-.26.85-.53,1.7-.72,2.57a25.82,25.82,0,0,0-.46,2.63,26.45,26.45,0,0,0-.22,2.67c-.05.89,0,1.79,0,2.68s.17,1.77.32,2.69.28,1.72.56,2.6a20.57,20.57,0,0,0,.83,2.59A22.1,22.1,0,0,0,202,81.73,20,20,0,0,0,203.5,84a16.15,16.15,0,0,0,1.83,2,14.41,14.41,0,0,0,2.18,1.71A11,11,0,0,0,209.89,89a59.18,59.18,0,0,1,5,3.84,45,45,0,0,1,4.54,4.4,22.14,22.14,0,0,1,1.89,2.47c.27.44.51.88.75,1.33s.4.88.56,1.41l2,5.82a21.32,21.32,0,0,0-1.21,2.32,18.21,18.21,0,0,0-1,2.79,14.69,14.69,0,0,0-.54,5.94,12.28,12.28,0,0,0,.3,1.49c.14.51.28.92.45,1.4a17,17,0,0,0,1.28,2.69,14.64,14.64,0,0,0,1.76,2.38,12.47,12.47,0,0,0,1.38,1.24l0,.07a3,3,0,0,0,.65,1c-.41,3-.84,6.05-1.21,9.08.61-2.86,1.17-5.74,1.73-8.61a8.18,8.18,0,0,0,1.53.87,16.55,16.55,0,0,0,2.35.79c.46.12.94.23,1.44.34q-.45,2.67-.92,5.34c-.11.63-.21,1.26-.32,1.88s-.09,1.26-.74,1.39a16.24,16.24,0,0,1-2.52.12l-38.21-1.19-5-.14c-1-1.28-2.09-2.63-3.27-4.09A423.72,423.72,0,0,0,146.19,95.8c-8-7.7-17.06-15.73-27-23.77-5-4-10.16-8-15.6-12-2.7-2-5.45-3.92-8.22-5.92-1.47-1-3-1.93-4.49-2.9a42.23,42.23,0,0,0-4.66-2.71,90.42,90.42,0,0,0-10-4.63,79.28,79.28,0,0,0-10.83-3.11,57.52,57.52,0,0,0-23.32-.22A47,47,0,0,0,20.35,51.44L16,55.89c-1.37,1.54-2.49,3.26-3.73,4.9a39.4,39.4,0,0,0-3.25,5.38L7.54,69c-.51.94-.75,1.74-1.13,2.61a75.67,75.67,0,0,0-4.58,47c3.46,15.62,11.2,29.33,19.89,41A215,215,0,0,0,50,190.07c9.7,8.8,19.34,16.42,28.31,23.23,3,2.24,5.82,4.37,8.61,6.42,1.07-7.08,5-13.62,11.75-17Q94.42,200,90,197c-9-6.14-18.57-13-28.09-20.76a198.44,198.44,0,0,1-27.38-26.65c-8.33-10-15.5-21.58-19-34.32a62.44,62.44,0,0,1,2-39.41c.32-.83.59-1.83.95-2.53l1.05-2.1A28.53,28.53,0,0,1,21.79,67c.93-1.33,1.74-2.79,2.76-4.05l3.19-3.65a36.63,36.63,0,0,1,16.59-9.37,48.31,48.31,0,0,1,19.55-.75,70.47,70.47,0,0,1,9.71,2.26,82.93,82.93,0,0,1,9.21,3.74,37.1,37.1,0,0,1,4.39,2.26c1.42.82,2.88,1.6,4.25,2.45,2.85,1.84,5.75,3.63,8.47,5.46,5.48,3.64,10.84,7.32,15.92,11,10.19,7.43,19.51,14.92,27.85,22.14A420.92,420.92,0,0,1,181.77,136l3,3.4-33.7-.89-6.57-.18,6.42,1.51a28.74,28.74,0,0,1,6.45,2.38,21.19,21.19,0,0,1,2.92,1.8,12.09,12.09,0,0,1,2.26,2.42c1.32,1.87,2.44,4,3.6,6s2.32,4.14,3.6,6.16a67.27,67.27,0,0,0,4.14,5.85c.75.89,1.55,1.88,2.38,2.7a14.16,14.16,0,0,0,1.3,1.26,17.55,17.55,0,0,0,1.42,1.19,20.76,20.76,0,0,0,3.08,2A19.14,19.14,0,0,0,185.5,173a17.21,17.21,0,0,0,3.64.69,14.55,14.55,0,0,0,3.35-.11l3.5,3,.22.19h.29l32.09.49a30.34,30.34,0,0,1,3.61,5.87,20.23,20.23,0,0,1,1.93,6.88,34,34,0,0,1-.43,7.24,32.39,32.39,0,0,1-1.95,7,25.43,25.43,0,0,1-3.61,6.27,70.34,70.34,0,0,0-4.38,6.1,31.39,31.39,0,0,0-3.31,6.82,18.31,18.31,0,0,0-.95,7.57,17.89,17.89,0,0,0,2.46,7.18,50.6,50.6,0,0,0,4.21,6.25c1.52,2,3.15,3.86,4.67,5.8s3,4,3.55,6.31a15.44,15.44,0,0,1,.24,3.63c0,1.24,0,2.48,0,3.71a38.54,38.54,0,0,1-.88,7.35,14.32,14.32,0,0,1-3.25,6.55,25.23,25.23,0,0,1-5,4.76,3.47,3.47,0,0,0-.87-.76,3.38,3.38,0,0,0-2.33-.46,5.24,5.24,0,0,0-1.66.52l-.28.15a2.58,2.58,0,0,0-.7-.38,3.22,3.22,0,0,1,.44.53l-.39.26-32.21-28.55-1.64-5.74.08,5.43c-2,.59-4.84,3.87-7,6.71l-1.44-5.92c.44-.54.87-1.06,1.3-1.54.7-.76,1.36-1.5,2-2.11a21.81,21.81,0,0,1,1.86-1.59,7.3,7.3,0,0,1,1.6-.91,2.51,2.51,0,0,1,1.16-.17l.45.1-.38-.27a2.53,2.53,0,0,0-1.33-.3A6.28,6.28,0,0,0,182,248a12.63,12.63,0,0,0-2.41,1.21c-.24.14-.49.31-.73.47,0,0-10.78-8.25-10.85-8.28a41.93,41.93,0,0,0-8.93-2,5.52,5.52,0,0,1-3.82-1.68,24.74,24.74,0,0,1-2.74-3.51,23.54,23.54,0,0,0-6.69-6.35,37.78,37.78,0,0,0-8.35-3.9c-2.93-1-6-1.37-8.55-2.7a9.6,9.6,0,0,1-3.28-2.67c-.91-1.15-1.91-2.38-2.94-3.5a36.86,36.86,0,0,0-15.21-10.29l.14.07a4.15,4.15,0,0,0-2.69-.44,7.92,7.92,0,0,0-2.36.8,14.18,14.18,0,0,0-2,1.26c-.62.48-1.22,1-1.79,1.51a30.38,30.38,0,0,0-3.1,3.42c-.46.61-.92,1.22-1.35,1.87s-.82,1.25-1.24,1.92a34,34,0,0,0-3.61,8.45,21.6,21.6,0,0,0-.47,2.29,15.39,15.39,0,0,0-.15,2.37,8.15,8.15,0,0,0,.43,2.45A4.16,4.16,0,0,0,91,232.9l.63.39a37.14,37.14,0,0,0,15.62,7.85c1.48.37,3,.66,4.5.91a9.71,9.71,0,0,1,3.89,1.6,20,20,0,0,1,3.27,2.93c1,1.08,2.07,2.25,3.19,3.29a37.22,37.22,0,0,0,7.42,5.47,27.49,27.49,0,0,0,4.24,1.85,19.22,19.22,0,0,0,4.53,1,24.8,24.8,0,0,1,4.4.73,6.46,6.46,0,0,1,1.89.95,5.57,5.57,0,0,1,.76.69c.23.32.43.58.64.91a42.08,42.08,0,0,0,6.08,6.94l11.83,5.28c0,.39,0,.77,0,1.13a6.32,6.32,0,0,0,.37,2.1A2.61,2.61,0,0,0,165,278l.39.25-.25-.37a2.45,2.45,0,0,1-.27-1.15,6.9,6.9,0,0,1,.24-1.82c0-.16.11-.34.16-.51l5.45-.91a9.45,9.45,0,0,0-1,3.74l-4.33,1,5.21.37L213,294.91l-.21,0a3.17,3.17,0,0,1-.8-.12,2.58,2.58,0,0,0,.73.44,2.77,2.77,0,0,0,.94.17l-.71,1.44c0-.09-.09-.18-.12-.26a7,7,0,0,1-.36-1.39l0,.38a6,6,0,0,0,.07,1.1c0,.2.1.43.17.68l-.07.14.19.14c0,.06.06.12.08.18-.17-.19-.27-.32-.27-.32s-1.83,3.92-6.27,13.58-1.57,23-1.57,23L218,335.27l-2.25-.11c-4-.22-7.31-.44-9.64-.6l-2.58-.18c-.14-.42-.26-.84-.37-1.27a23.78,23.78,0,0,1-.53-2.82,25.62,25.62,0,0,1-.27-2.9c-.09-1,0-1.94-.06-2.91s.07-2,.11-3,.14-1.94.27-2.91a32.24,32.24,0,0,1,1.27-5.73,39.62,39.62,0,0,1,2.19-5.48c1.74-3.55,3.84-6.95,5.83-10.4-2.21,3.31-4.56,6.54-6.48,10.07a41.2,41.2,0,0,0-2.52,5.48,34.7,34.7,0,0,0-1.61,5.85c-.19,1-.33,2-.44,3s-.22,2-.26,3-.11,2-.05,3.06a28.53,28.53,0,0,0,.17,3.06,24.44,24.44,0,0,0,.47,3.05,20.35,20.35,0,0,0,.87,3,14.64,14.64,0,0,0,1.46,2.87,9.8,9.8,0,0,0,1,1.31,8.15,8.15,0,0,0,.8.75l-.07,5.17c-3.88.51-9,1.33-15.24,2.69A200.64,200.64,0,0,0,163.81,357c-9.91,3.72-21,8.6-31.7,16.37a67.83,67.83,0,0,0-14.86,14.37,44,44,0,0,0-5.52,9.61,36.72,36.72,0,0,0-2.89,11.16c-.86,8.15,2.5,16.51,7.93,22.7s12.23,11.14,19.46,15.24c14.54,8.16,30.75,13.7,47.37,18.26,8.34,2.23,16.73,4.26,25.47,5.7a193.32,193.32,0,0,0,26.43,2.52q6.38.17,12.77-.1c-2.86.33-5.72.62-8.59.81,19.59.51,51.57-1,55-1.21q-3,.48-6.11.9c-4.34.58-8.94,1-13.7,1.48s-9.69.73-14.71.91S250,476,245,476s-10.2-.09-15.22-.33-9.94-.57-14.7-1-9.35-.95-13.68-1.57-8.43-1.3-12.18-2.05S182,469.49,179,468.71l-4.18-1.21-3.51-1.17-.36-.14-1.9-.48,2.15.92,3.48,1.3,4.15,1.37,1.85.53c-.56,2.48-3.05,12.37-7.49,14.17-11.08-5.21-12.54-8.58-12.21-11.95a18.94,18.94,0,0,1,1.32-5.23c1-.67,2-1.29,3-1.86l.33-.18c-.68-.19-1.37-.37-2-.57a35.19,35.19,0,0,0-4.89,3.8,18,18,0,0,0-2.46,2.76,9.3,9.3,0,0,0-.95,1.62,6.39,6.39,0,0,0-.57,1.83,10,10,0,0,0,.11,3.7,11.81,11.81,0,0,0,.82,2.41s0,0,0,.07a10.83,10.83,0,0,0,3.33,4.83c3.82,3.47,10.5,6.71,18.79,9.3a174.32,174.32,0,0,0,29,6.1c5.38.69,10.95,1.3,16.63,1.67s11.45.63,17.25.72,11.56,0,17.23-.24,11.27-.63,16.67-1.13,10.6-1.17,15.5-2,9.52-1.73,13.74-2.7,8.06-2.1,11.39-3.27l2.41-.84,2.22-.88c1.43-.53,2.7-1.13,3.84-1.67a29.58,29.58,0,0,0,3-1.56,17.71,17.71,0,0,0,2.12-1.29l1.19-.82a9.17,9.17,0,0,1-1.14.92,12.94,12.94,0,0,0,4.95-5.48,16.38,16.38,0,0,0,1.29-3.55,12,12,0,0,0,.29-1.89,10.48,10.48,0,0,0,0-1.94,8,8,0,0,0-.46-1.91,10.29,10.29,0,0,0-.93-1.73,18.23,18.23,0,0,0-2.49-2.9,36.64,36.64,0,0,0-5.5-4.27c.93-4.61,1.82-9.22,2.72-13.84a75.12,75.12,0,0,0,6.59-4,190.94,190.94,0,0,0,37.37-30.73,205.09,205.09,0,0,0,26-34.87c1.67-2.94,3.3-5.83,4.89-8.64q2.1-4.38,4.09-8.56A85.08,85.08,0,0,0,411.2,355q1.6-4.1,3.12-7.94c1.6-5.28,3.37-10.15,4.5-14.8,2.9-11.95,5.83-23.75,7.57-35.71.44-3,.68-6,.83-8.92-.64.21-1.25.48-1.9.66ZM273.23,89.68s12.41-5,10.94-18.92c-1.18-11-3.09-16.64-3.83-18.49l3.9,0-.24.18a26.7,26.7,0,0,1,2.57,4.21,31.24,31.24,0,0,1,1.89,4.65c.24.8.48,1.6.65,2.42s.34,1.64.43,2.47.15,1.66.21,2.49,0,1.66,0,2.5-.17,1.7-.29,2.45-.3,1.78-.55,2.53a19.37,19.37,0,0,1-.75,2.35,18.37,18.37,0,0,1-1,2.26,18,18,0,0,1-1.32,2.09,15.81,15.81,0,0,1-1.61,1.85,12.62,12.62,0,0,1-1.91,1.52,9.09,9.09,0,0,1-2.07,1.07l-.2.06-.08.06c-.45.31-.88.65-1.32,1l-.25-.06v0l0,0h0a.32.32,0,0,1-.1.07,7.28,7.28,0,0,1-1.82.68c-.92.25-2.08.48-3.43.7ZM265,98.25a23.71,23.71,0,0,1,5.66-6.62c1.82-.19,3.43-.41,4.78-.66l-.65.54a41.85,41.85,0,0,0-4.65,4.67,23.72,23.72,0,0,0-2,2.69c-.29.49-.55,1-.8,1.5s-.46,1.08-.6,1.59c-.81,2.87-1.28,6-4.42,7.31A27.75,27.75,0,0,1,265,98.25Zm23.11,251.64c1.57.31,3.13.68,4.67,1.11a29.32,29.32,0,0,1,8.54,3.72,35.17,35.17,0,0,1,3.73,2.89,15.79,15.79,0,0,1,2.93,3.39,20.13,20.13,0,0,1,1.07,2l.07.14h0v0l.11.29c.07.18.05.21.09.32a7.38,7.38,0,0,1,.1,1,18.4,18.4,0,0,1-.46,4.45l-.33,1.54.29.07-1.65.25c-2.89.44-6.78.93-11.38,1.43,1.36-2.2,4.85-9-.87-13.44-5.93-4.61-18.09-8.37-21.36-9.33,2.66-.4,4.89-.84,6.55-1.16l2.06-.44V349l1.09.12C284.88,349.31,286.49,349.58,288.06,349.89Zm-9.37-13.43c2.05-.38,3.84-.75,5.22-1.06,1.06-.24,1.89-.44,2.49-.59a13.91,13.91,0,0,1-.62,1.55,12.66,12.66,0,0,1-1.26,2.11A6.13,6.13,0,0,1,283,340l-.59.32v1.06l-2.22.27c-1.13.14-2.54.29-4.15.44A48.75,48.75,0,0,1,278.69,336.46Zm-2.88,6.27c1.7-.29,3.19-.58,4.37-.81.9-.18,1.63-.34,2.16-.46l-.1,6.5V348l-2.11.25c-1.84.24-4.41.48-7.43.75l-1.06-5.61C274,343.26,275.54,343,275.81,342.73ZM281,301.11a6.72,6.72,0,0,1-1.17,2.19,4.51,4.51,0,0,1-2.63,1.55,6.25,6.25,0,0,1-3.57-.45,14.21,14.21,0,0,1-3.6-2.23,13.68,13.68,0,0,0,2.22,1.35c4.44,2.09,5.75.52,6.53-1,.43-.86-.33-1.72-1.09-2.32,1.22.23,2.66-.58,3.77-1A11.65,11.65,0,0,1,281,301.11Zm14.92-14.49c-.11.48-.83,1.18-1.11,1.62l-1.32,2.09c-.57.89-1.14,1.78-1.7,2.67l-.12.07a4.09,4.09,0,0,1-1-.61c-.14-.11-.28-.25-.42-.38l3.73-7c.34.28,1.84,1,1.93,1.44A.14.14,0,0,1,295.87,286.62Zm4-5a9.42,9.42,0,0,0,.69.72c.22.21.44.4.68.59l-4.55,2.91a5,5,0,0,1-.62-.46,11.06,11.06,0,0,1-1.12-1.07Zm-5.63-11.39v.06a7.25,7.25,0,0,0,.23,1.57,17.51,17.51,0,0,0,.88,2.65l-4.83,2.1a9.87,9.87,0,0,1-.49-2.74C290.13,271.71,292.63,271.06,294.21,270.21ZM291,293.52l-12.85,5.89a4.4,4.4,0,0,1-1.42-.31,8.27,8.27,0,0,0-.95-.69l13.82-5.65A6.32,6.32,0,0,0,291,293.52ZM281.2,274.3c2.31-.5,4.72-1.18,7.06-1.54.2,0,.41-.06.61-.09-.53.07,0,3.91.12,4.27,0,.09.06.18.08.27l-4.44,7.18a1.4,1.4,0,0,0-.1-.16c-.41-.72-.75-1.38-1.1-2.09s-.67-1.39-1-2.07a21.23,21.23,0,0,1-1.26-3.79,6,6,0,0,1-.12-1.53A1.56,1.56,0,0,1,281.2,274.3Zm-.73.38a5.39,5.39,0,0,0-.21,1.7,15,15,0,0,0,.85,4.21,22.79,22.79,0,0,0,.87,2.23c.34.73.72,1.52,1.11,2.21.17.3.35.6.53.9-1.58,1.95-8.37,9.73-14.17,6-.06-.13-.13-.25-.19-.37a20.78,20.78,0,0,1-1.77-5,9.94,9.94,0,0,1,0-4.44Zm-14.29,3.44a8.33,8.33,0,0,1,2.48.41h0l-.19.06a2.59,2.59,0,0,0-.75.43,3.15,3.15,0,0,0-.73.69,4.78,4.78,0,0,0-.9,2c-.62,3.09.57,6.91,2.43,10.2a23.08,23.08,0,0,0,3.56,4.77c1,1.9,1.57,3.57.37,3.68-2.56.23-6.35-2.84-7.15-3.52-.4-.61-.78-1.23-1.13-1.87a24.14,24.14,0,0,1-1.94-4.33,21.11,21.11,0,0,1-1-4.44,12.15,12.15,0,0,1,.21-4.16,5.32,5.32,0,0,1,1.86-3A4.78,4.78,0,0,1,266.18,278.12Zm-5.89-96.4a23.29,23.29,0,0,0-2.19,7.07,21.13,21.13,0,0,0-.13,3.69c.06,1.23.14,2.44.31,3.63a35.72,35.72,0,0,0,1.68,7,28.46,28.46,0,0,0,3.22,6.52c1.41,2.08,2.93,3.71,4.26,5.59,2.68,3.66,5,7.68,5.7,12a14.63,14.63,0,0,1-.39,6.48,30.17,30.17,0,0,1-3,6,65.12,65.12,0,0,1-4,5.64c-1.4,1.84-2.89,3.64-4.22,5.6a13.09,13.09,0,0,0-2.66,6.65,63,63,0,0,0,.35,7,39.29,39.29,0,0,0,1.29,6.89,16.1,16.1,0,0,0,3.17,6.18,4.28,4.28,0,0,0-1,.49,5.65,5.65,0,0,0-1.76,1.87.88.88,0,0,0,0-.42,25.14,25.14,0,0,1-3.39-6.26c-1.83-4.44-2.87-18.33-2.87-18.33s13.21-13.91,12.52-25.73c-.37-6.23-4-10.91-6.81-16.2-3.11-5.87-5.8-12.78-5.17-19.51A34.15,34.15,0,0,1,256.79,183a45.69,45.69,0,0,1,2.16-4.84c.64-1.37.86-1.56,2.44-1.59.24,0,1.9.15,2-.05A32.71,32.71,0,0,0,260.29,181.72Zm36.86-7.38-31.87.65h-.06a1.37,1.37,0,0,0-1,.52c-.24.3-.46.61-.69.91l-30.07-.69-2.2-2.47,66,1ZM202.47,79.46c-.11-.24-.23-.47-.32-.72a22.69,22.69,0,0,1-.86-2.39c-.28-.78-.42-1.69-.63-2.53s-.27-1.69-.4-2.53-.13-1.71-.12-2.57,0-1.73.13-2.59a32,32,0,0,1,.9-5.11,33.45,33.45,0,0,1,1.74-4.92,31.5,31.5,0,0,1,2.5-4.6l48.68.5c1.44,3,3.45,7.62,3.92,10.53.87,5.4,2.38,12.17-.44,17.15a8.61,8.61,0,0,1-4.62,4,14.69,14.69,0,0,1-2,.44c-9.9,1.67-19.58,1.26-29.57,1C216.07,85,207.07,84,202.47,79.46Zm21.64,22.46c-.15-.5-.41-1.06-.62-1.59s-.53-1-.82-1.5a23.08,23.08,0,0,0-2-2.69,39.33,39.33,0,0,0-4.71-4.6c-.5-.41-1-.79-1.51-1.18,4.61,1.79,9.68,1.94,14.56,2,4.14.06,8.23.16,12.31.1l3.59.07c2.8,0,5.6,0,8.33,0-.47,1.38-2,3.72-2.31,4.63a15.8,15.8,0,0,0-1.06,6.72c.59,4.43-4.14,5.61-9.46,5.91s-13.3-1.78-15.08-4.73l-.46-.77Zm4.52,8.45a12.07,12.07,0,0,1-2-.69,4.59,4.59,0,0,1-.51-.3C226.51,109.52,227.27,109.93,228.63,110.37Zm-1.22,16a18,18,0,0,1-4-5.08c-.07-.26-.15-.53-.21-.76a10.24,10.24,0,0,1-.21-1.35,13.4,13.4,0,0,1,.69-5.42,23,23,0,0,1,1-2.6c.25-.55.54-1.09.84-1.62,0,0,.06,0,.08,0s.15-.18.31-.15a3.62,3.62,0,0,0,.63.41,17.63,17.63,0,0,0,4.4,1.38,80.8,80.8,0,0,0,13.94,1.35c2.44,0,4.87,0,7.16-.1.74,1.23,4.3,7.6,1.64,11.6-3,4.43-8.87,5.32-14.19,5.32S231,129.29,227.41,126.33Zm-30.59,48.78L194,172.69l10.63.17,1,2.41Zm-20-30.56c3.07,14.76,13.2,25.16,15.51,27.37a12.82,12.82,0,0,1-3.05.13,15.7,15.7,0,0,1-3.31-.62,16.34,16.34,0,0,1-3.13-1.28,20.18,20.18,0,0,1-2.87-1.83c-.47-.33-.87-.72-1.3-1.08a12.68,12.68,0,0,1-1.24-1.2c-.86-.84-1.54-1.7-2.31-2.6a64,64,0,0,1-4.07-5.7c-1.26-2-2.43-4-3.58-6.06a67.19,67.19,0,0,0-3.72-6.13,12.79,12.79,0,0,0-2.58-2.72,21.62,21.62,0,0,0-3.11-1.91c-.77-.39-1.55-.73-2.35-1l35.14.5,37.52.36-.58,0c9.62.13,19.24.15,28.86.2l14.44.05,14.43,0,28.86-.08c6.87,0,13.74-.1,20.61-.18a20.34,20.34,0,0,0-2.33,1.48,13.93,13.93,0,0,0-2.76,2.88,70.2,70.2,0,0,0-3.78,6.21c-1.15,2.06-2.31,4.08-3.56,6a66.34,66.34,0,0,1-4,5.61l-1.12,1.31-.27.32-.26.27-.62.64-.61.64-.61.53a13.87,13.87,0,0,1-1.23,1,18.51,18.51,0,0,1-2.75,1.75,15.41,15.41,0,0,1-3,1.24,14.55,14.55,0,0,1-3.13.6c-3,.21-6-.26-8.95-.24-3.25,0-6.49.21-9.74.26a59.62,59.62,0,0,0,17.12-4.43C315.9,161.24,318,145.25,318,145.25Zm43.92,137.58a5.3,5.3,0,0,1,1.58-.21,2.91,2.91,0,0,1,1.76.64c1.08.84,1.41,2.63,1.18,4.45a13.63,13.63,0,0,1-.67,2.79,15.53,15.53,0,0,1-1.24,2.74c-.18.32-.37.64-.57.95-1.24.66-3.19,1.49-3.51.36-.21-.71-.32-1.11-.39-1.34s.17-.16.24-.25a18.61,18.61,0,0,0,1.08-1.56A16.36,16.36,0,0,0,221,289a9.54,9.54,0,0,0,.51-1.74,7.43,7.43,0,0,0,0-3.25,3.67,3.67,0,0,0-.95-1.85Zm-.56.18a3.1,3.1,0,0,1,.28.75l-.68-.6Zm-36.6-23.42c1.35-1,3-2.25,3.93-2.9l32.15,26.43-.27.21.33-.15.75.61a4.26,4.26,0,0,1,.11,1.06,9.53,9.53,0,0,1-.49,2.76,15.41,15.41,0,0,1-.58,1.5c-.16.37-.37.75-.58,1.14l-38-25.87S181.65,260.32,183.56,258.89Zm-19.67,14.73L158.44,271l5.47,2.41A1.94,1.94,0,0,1,163.89,273.62Zm5.8-14.41c-.67,1-1.36,2.11-2,3.24s-1.14,2.24-1.64,3.34c-.33.74-.61,1.47-.87,2.2A17.07,17.07,0,0,1,152,261.52c-5.26-6.94.48-17,.48-17s-6.7,8.14-13.89,8.62-17.24-8.62-19.15-12.45,4.55-15.09,4.07-14.37a72.25,72.25,0,0,1-9.58,9.34c-3.35,2.39-6.23,0-11-1.92s-8.62-6.7-8.38-10.53c.23-3.62,9.19-15.75,10.2-17.11a3.79,3.79,0,0,1,.53-.14,2.64,2.64,0,0,1,1.67.23l.08,0,.06,0a35.39,35.39,0,0,1,14.65,9.8c1,1.11,1.94,2.23,2.92,3.44a11.18,11.18,0,0,0,3.74,3c2.9,1.42,6,1.71,8.79,2.63a36.44,36.44,0,0,1,8.16,3.64,22.53,22.53,0,0,1,6.52,6,24.34,24.34,0,0,0,2.91,3.59,6.24,6.24,0,0,0,4.34,1.79,42.19,42.19,0,0,1,8.81,1.69l11,7.86a29.35,29.35,0,0,0-4.39,3.7c-.83.87-1.68,1.78-2.48,2.76S170.45,258.12,169.69,259.21Zm1.13,18.63Zm42.27,17.07-41.7-17.72c-.08-.45.27-1.75,1.21-3.8L215,294.12c-.11.07-.21.16-.32.22A4,4,0,0,1,213.09,294.91Zm-2.29,31.34c-1.56-6-.26-9.41,1.57-16.46,1-4,3.89-7.79,6.19-10.36a9.67,9.67,0,0,0,2-1.17,15.4,15.4,0,0,0,4.21-4.93,16.7,16.7,0,0,0,1.31-3,13,13,0,0,0,.6-3.17,7.89,7.89,0,0,0-.36-3.07,4.55,4.55,0,0,0-.85-1.52,25.28,25.28,0,0,0,5.09-4.66A14.41,14.41,0,0,0,234,271.3a37.83,37.83,0,0,0,1.06-7.4c.08-1.25.11-2.49.14-3.74a16.68,16.68,0,0,0-.17-3.78c-.55-2.55-2.09-4.65-3.55-6.66s-3.11-3.88-4.59-5.86a48,48,0,0,1-4-6.16,16.78,16.78,0,0,1-2.26-6.81,17.17,17.17,0,0,1,1-7.09,30.31,30.31,0,0,1,3.27-6.51,70.88,70.88,0,0,1,4.38-5.94,26.13,26.13,0,0,0,3.84-6.58,33.83,33.83,0,0,0,2.06-7.31,35,35,0,0,0,.48-7.6,21.74,21.74,0,0,0-2-7.4,31.63,31.63,0,0,0-3-5.21,8.09,8.09,0,0,0,2.24-.05,4.3,4.3,0,0,1,3.47,1.56,11.37,11.37,0,0,1,1.92,3.15c2.68,6,2.83,12.67,1.34,19.1-1.8,7.79-7.4,12.64-11.23,19.35-2.79,4.87-3.48,13.91.69,20.17s7.65,12.52,12.52,13.92c4.55,1.3,12.13.77,13.11.7-4.56.28-9.63,1.39-14.28,1.3a20.91,20.91,0,0,1-2.65-.2c.22,9.9-.19,20.1-8.71,26.87a2.26,2.26,0,0,1,3.13,1,5.43,5.43,0,0,1,.23,3.63c-.8,4-3.65,7.33-5.3,11a44.58,44.58,0,0,0-3.64,14.72,26,26,0,0,0,1.27,11.64,17.35,17.35,0,0,0,10.29,9.89,20.35,20.35,0,0,0,4.74,1h-2.61l-7.67-.18c-1.87-.05-3.66-.12-5.41-.19C220.76,334.46,212.08,331.13,210.8,326.25Zm-5.39,11.95a12.11,12.11,0,0,1-1.33-2.4c-.16-.39-.3-.78-.44-1.18l2.4.59c2.29.53,5.57,1.23,9.54,1.84s8.64,1.21,13.65,1.59c2.51.18,5.1.37,7.74.45,1.62.06,3.26.1,4.91.13,2.64.59,4.67,1.43.66,2.27-7.27,1.53-19.91,1.15-19.91,1.15l1.52.13c-2-.13-3.88-.27-5.62-.44-3.6-.35-6.6-.64-8.7-.92l-2.08-.27v-.91l-.63-.33a4.7,4.7,0,0,1-.86-.7A7.53,7.53,0,0,1,205.41,338.2Zm2.41,8.18-.07-5.1,2,.45c2.07.41,5,1,8.64,1.52s7.8,1,12.33,1.33l.49,0a37,37,0,0,1,9.77,2.62c3.61,1.55-1.79,2.4-5.71,2.79-1.51,0-3-.1-4.46-.18-4.51-.24-8.72-.47-12.31-.82s-6.6-.64-8.7-.92l-2-.26,0-1.27c3.82-.56,5.88-.76,5.88-.76S211.64,345.94,207.82,346.38Zm-1.11,2.81,1.14-.14V348l1.94.43c2.07.41,5,1,8.64,1.52,1.67.23,3.48.47,5.38.69,6.68,1.81,23.64,6.71,26.4,10.39,3.45,4.59,0,10.72-9.57,11.87-7.5.9-21.35,1.09-27,1.13l-4.69-.29c-3.64-.26-7.07-.55-10.24-.87-6.33-.65-11.61-1.3-15.28-1.89l-2-.32-.29-1.4a19.43,19.43,0,0,1-.45-4.45,5.75,5.75,0,0,1,.11-1,2.44,2.44,0,0,1,.08-.32l.11-.29v0h0l.07-.14a19.93,19.93,0,0,1,1.07-2,15.51,15.51,0,0,1,2.93-3.38,33.31,33.31,0,0,1,3.73-2.9,29.47,29.47,0,0,1,8.53-3.69c1.53-.43,3.1-.8,4.67-1.11S205.16,349.37,206.71,349.19ZM138.94,441.5c-7-3.66-13.49-8.05-18.49-13.49s-8-12.3-7.49-19.1a33,33,0,0,1,2.29-10.14,40.23,40.23,0,0,1,4.81-9,64.83,64.83,0,0,1,13.73-14.15c10.13-7.86,20.93-13.06,30.62-17.06a197.91,197.91,0,0,1,25.9-8.42c1.11-.28,2.18-.54,3.22-.78-1,.33-1.92.69-2.86,1.11,2.72-.59,5.06-1,7-1.36,3.93-.68,6-.91,6-.91s-2.11.3-6,1.1c-2.34.49-5.35,1.17-8.91,2.11-.55.3-1.1.6-1.63.95a38.3,38.3,0,0,0-4.07,3.06,19.06,19.06,0,0,0-3.53,4,21.92,21.92,0,0,0-1.26,2.28l-.07.14-.11.24-.12.28a8.2,8.2,0,0,0-.26.86,11,11,0,0,0-.19,1.46,17.06,17.06,0,0,0,.08,2.69c0,.36.08.71.13,1.05a121.17,121.17,0,0,0-12.24,3.45,36.11,36.11,0,0,0-6.72,3c-.29.2-.51.31-.87.57l-.7.53a13.68,13.68,0,0,0-1.48,1.38,13.23,13.23,0,0,0-2.25,3.27,20.41,20.41,0,0,0-1.87,7.35c-.1,1.22-.15,2.43-.16,3.63V393l0,.44c.05.59.06,1.15.15,1.76.28,2.46.63,4.77,1,7.09l1.14,6.95q2.37,13.86,5,27.65c.88,4.69,1.82,9.38,2.75,14.07A158.7,158.7,0,0,1,138.94,441.5Zm64.17-41.43s-26.42,1.53-28,5c-1.26,2.83,2.67,37.8,6,51.58-5.92-1.49-11.77-3.14-17.48-5l-2.47-15.22-4.45-27.71-1-6.92c-.33-2.31-.67-4.63-.92-6.82-.07-.55-.09-1.15-.13-1.73l0-.44v-1.21c0-1.14.07-2.27.17-3.38.08-.87.22-1.73.38-2.57a12.57,12.57,0,0,0,4.35,3.7,48.3,48.3,0,0,0,8.73,3.72,109,109,0,0,0,11.87,3.2,235.64,235.64,0,0,0,25.53,4ZM228,398.63c-5.85-.22-11.61-.45-17.17-.85-11.12-.75-21.47-1.89-30.25-3.38s-16-3.31-20.67-5.62a12.61,12.61,0,0,1-4.59-3.4,13.69,13.69,0,0,1,1.13-3.34,10,10,0,0,1,1.73-2.48,11.55,11.55,0,0,1,1.07-1l.7-.53c.11-.09.41-.26.6-.39a33.64,33.64,0,0,1,6.07-2.72,121,121,0,0,1,13.31-3.75l1.34-.3c.64.14,1.35.29,2.15.44,3.65.72,8.89,1.69,15.22,2.49s13.76,1.58,21.73,2.06,16.49.73,25,.78,17-.29,25-.74,15.39-1.23,21.73-2,11.58-1.75,15.23-2.45c.8-.15,1.51-.3,2.15-.44l.7.16a123.21,123.21,0,0,1,13.31,3.75,33.29,33.29,0,0,1,6.07,2.73c.19.12.49.3.6.38l.7.54a11.46,11.46,0,0,1,1.07,1,10.44,10.44,0,0,1,1.72,2.49,15.34,15.34,0,0,1,1.37,4.55,17.13,17.13,0,0,1-3.43,2.19c-4.64,2.31-11.9,4.1-20.67,5.62s-19.13,2.63-30.25,3.39c-5.56.39-11.32.63-17.17.84s-11.8.29-17.75.28S233.82,398.83,228,398.63Zm26.45,96c-26.12.54-45.4-.63-60-3.64a9,9,0,0,1-3.32-7.48c.38-5.75,5.14-8.39,8.22-9.52l1.87.31c4.34.72,9,1.32,13.72,1.81s9.73.86,14.77,1.09,10.17.39,15.27.44h1c13.39.56,29.58,1.51,30.69,2.84C278.53,482.77,291.55,493.87,254.41,494.63Zm65.13-3.51-2.24.72-2.44.67c-2.12.6-4.45,1.13-6.93,1.66,7.13-1.88,12.81-3.61,15.4-4.41C322.19,490.2,320.94,490.7,319.54,491.12Zm11.1-22a17.73,17.73,0,0,1,2.47,2.59,9.59,9.59,0,0,1,.91,1.49,7.06,7.06,0,0,1,.48,1.67,10.82,10.82,0,0,1-.08,3.54,15.3,15.3,0,0,1-1.07,3.47,14,14,0,0,1-3.07,4.57l-1.55.88a20,20,0,0,1-2.22,1.1l-1.37.62c1.29-1.18,6.47-6.34,5.46-12.38-1.15-6.89-12.63-9.19-12.63-9.19a129.29,129.29,0,0,1-26.46,6.63c3.32-.56,6.48-1.16,9.42-1.8,3.76-.79,7.17-1.7,10.17-2.56l4.17-1.32,3.49-1.24c2.09-.83,3.71-1.5,4.78-2l.74-.35.39.21A35.71,35.71,0,0,1,330.64,469.09Zm-6.38-5-.09.59.06,0-.72.29c-1.09.5-2.76,1.06-4.85,1.82L315.13,468l-4.2,1.16c-2.14.52-4.49,1.07-7,1.6,5.27-1.53,11.11-4.34,12.12-9.4.25-1.23.53-3,.84-5.13l1.58-.71c1.89-.82,3.83-2,5.73-3l2.14-1.15Z"/><path class="cls-3" d="M428,267.87c-.37-1.08-.81-2.16-1.24-3.18a7.18,7.18,0,0,1-.58-3.07,14.58,14.58,0,0,1,.51-3.22c.26-1.07.57-2.2.76-3.31a28,28,0,0,0,.42-6.84,19.5,19.5,0,0,0-.56-3.39,14.51,14.51,0,0,0-1.21-3.22,18.29,18.29,0,0,1-1.32-3,4.59,4.59,0,0,1-.17-1.56,3.68,3.68,0,0,1,.13-.75c.1-.28.18-.5.3-.77a30.73,30.73,0,0,0,1.88-6.59l-1.49-9.5a8.08,8.08,0,0,0,.72-.44,4.52,4.52,0,0,0,1.16-1.08,1.87,1.87,0,0,0,.39-.93c0-.23,0-.35,0-.35l-.12.31a2,2,0,0,1-.61.63,5.33,5.33,0,0,1-1.24.58l-.38.11-2.76-3a7,7,0,0,0,2.73-.89l2.38,2.29-1.86-3.39L422.2,196l-3-15.56a.64.64,0,0,0,0-.19c-.18-.86-.16-.61.44-1.24a2.56,2.56,0,0,0,.83-1.81,2.74,2.74,0,0,0-1-2,8.5,8.5,0,0,0-6.32-1.73,12.53,12.53,0,0,0-2.41.41,9.65,9.65,0,0,0-2.22.9,6.23,6.23,0,0,0-2.54,2.52,2.87,2.87,0,0,0,.69,2.59,4.06,4.06,0,0,0,1,.82,1,1,0,0,0,.2.11c0,.05,0,.07,0,.12l-1.12,10.86-3.17,20.87-2.92,3.33,3.35-2.24c1.17,1,4.37,1.46,7,1.67l-3.11,3.29c-.51-.06-1-.12-1.49-.2-.75-.12-1.48-.24-2.12-.4a14.81,14.81,0,0,1-1.74-.51,4.92,4.92,0,0,1-1.22-.64,1.81,1.81,0,0,1-.57-.65l-.12-.32s0,.12,0,.34a1.85,1.85,0,0,0,.34,1,4.87,4.87,0,0,0,1.11,1.12,9.18,9.18,0,0,0,1.73,1,6.21,6.21,0,0,0,.59.26s-.79,10.06-.79,10.11a31.71,31.71,0,0,0,2.37,6.37,4.09,4.09,0,0,1,.5,3.05,17.39,17.39,0,0,1-1.09,3.13,17.41,17.41,0,0,0-1.25,6.73,28.13,28.13,0,0,0,.93,6.78c.56,2.23,1.57,4.3,1.77,6.42a7.23,7.23,0,0,1-.34,3.12c-.35,1-.71,2.15-1,3.25a27.35,27.35,0,0,0-.27,13.63l0-.12a3.17,3.17,0,0,0,.81,1.86,5.79,5.79,0,0,0,1.45,1.14,11.58,11.58,0,0,0,1.6.75c.55.19,1.1.37,1.66.51a24.53,24.53,0,0,0,3.38.55c.57,0,1.14.08,1.71.09s1.12,0,1.7,0a24.86,24.86,0,0,0,6.72-1.15c.55-.18,1.09-.4,1.62-.63a11.22,11.22,0,0,0,1.54-.87,5.93,5.93,0,0,0,1.36-1.25,3.14,3.14,0,0,0,.66-1.92v-.54A27.57,27.57,0,0,0,428,267.87Zm-2.6-48.42.55,4.47-.71-4.39Zm-6.5-39.15c0,.27.1.57.16.91l-.2-1Zm-1.07-.87a2.94,2.94,0,0,1,1,.77l5.78,33.14a7.22,7.22,0,0,1-2.85.78l-4.18-34.79Zm-10,1.16a3.7,3.7,0,0,1-.77-.9,2.19,2.19,0,0,1-.32-1.35,3.68,3.68,0,0,1,2.31-2.53,9.74,9.74,0,0,1,2-.71,11.21,11.21,0,0,1,2.21-.33c.27,0,.54,0,.82,0,.91.51,2.21,1.39,1.64,2l-.68.78a2.34,2.34,0,0,0-.26,0,9.2,9.2,0,0,0-1.4,0,9.73,9.73,0,0,0-1.37.18,7.7,7.7,0,0,0-1.29.38,5.64,5.64,0,0,0-2,1.3,2.72,2.72,0,0,0-.76,1.34Zm.5,32.54c-1.18-.43-2.62-1-3.39-1.28L407.74,187l.78-5.85.12.05-.11-.08.12-.91a3.7,3.7,0,0,1,.46-.37,6.81,6.81,0,0,1,1.92-.81,10.52,10.52,0,0,1,1.17-.24,6.94,6.94,0,0,1,.94-.1l-.8,34.11A7,7,0,0,1,408.29,213.13ZM422,283.06c-2.34,1.31-13.52.62-14.77.54a2.73,2.73,0,0,1-.31-.27,2,2,0,0,1-.53-1.13v-.12a26.23,26.23,0,0,1,.19-13.08c.28-1.09.61-2.11,1-3.21a8.28,8.28,0,0,0,.36-3.54c-.28-2.39-1.35-4.43-1.9-6.55a26.55,26.55,0,0,1-1-6.55,17,17,0,0,1,1.09-6.47,18,18,0,0,0,1.07-3.26,4.62,4.62,0,0,0-.64-3.43,31.37,31.37,0,0,1-2.5-6.18l.46-10a21,21,0,0,0,4.08,1.25c.88.17,1.79.33,2.72.43s1.87.15,2.86.19,1.86,0,2.82-.07,1.86-.19,2.74-.32c.6-.09,1.17-.22,1.73-.35a12.67,12.67,0,0,1,1.3,10.86c-2.2,6.09-10.79,6.56-10.79,6.56s7.78.9,11,5.18,1.58,14.23,0,17-11.24,3.25-10.6,3.26a53.78,53.78,0,0,1,9.69,2.2c2.84,1.13,2.51,3.88,3.25,7.64S424.47,281.66,422,283.06Z"/><path class="cls-2" d="M413.2,164.87s-.06-.21-.15-.63a8.32,8.32,0,0,1-.25-1.9,15,15,0,0,1,1.95-6.93,54.77,54.77,0,0,1,6.47-9.23c2.77-3.36,6.1-7,9.53-11.08s7.13-8.67,9.21-14.35a18.25,18.25,0,0,0,1-4.42,5.33,5.33,0,0,0-1-4.12,7.75,7.75,0,0,0-3.94-2.14c-1.52-.38-3.2-.64-4.83-.88-6.55-.94-13.51-1-20.53-2.18a35.53,35.53,0,0,1-10.33-3.24,21.37,21.37,0,0,1-8.2-7.36,22.37,22.37,0,0,1-3.27-10.65,32,32,0,0,1,1.33-10.86c2.09-7,6.27-12.92,10.4-18.22S409,46.56,412.26,41.52s5.7-10.18,6.55-15.17a24,24,0,0,0,.22-7.13l-.12-.9-.18-.75a9.76,9.76,0,0,0-.42-1.51,18,18,0,0,0-1.17-2.84,18.6,18.6,0,0,0-3.21-4.53,15.8,15.8,0,0,0-3.61-2.91A12.29,12.29,0,0,0,404.37,4a17.48,17.48,0,0,0-2.18.09L401.63.13l.75,0a11.36,11.36,0,0,1,2.18,0,16.07,16.07,0,0,1,7.72,2.5,19.36,19.36,0,0,1,4.36,3.62,22.51,22.51,0,0,1,3.71,5.45A21.73,21.73,0,0,1,421.68,15a14.07,14.07,0,0,1,.49,1.89l.2,1,.1.9a27.19,27.19,0,0,1-.38,8.16C421,32.54,418.3,38,414.78,43.21s-7.95,10-12.13,15.16-8.23,10.72-10.27,17.21A29.87,29.87,0,0,0,391,85.65a20.26,20.26,0,0,0,2.75,9.65,19.44,19.44,0,0,0,7.4,6.89,34.1,34.1,0,0,0,9.78,3.24c6.82,1.29,13.77,1.45,20.45,2.53a47.45,47.45,0,0,1,4.94,1,8.79,8.79,0,0,1,4.45,2.56,6.35,6.35,0,0,1,1.17,4.91,19,19,0,0,1-1.09,4.64,34.16,34.16,0,0,1-4.37,7.89c-1.69,2.37-3.48,4.53-5.23,6.55-3.52,4.06-6.9,7.61-9.72,10.92a53.82,53.82,0,0,0-6.6,9.07,15,15,0,0,0-2.06,6.85,8.47,8.47,0,0,0,.22,1.89C413.15,164.66,413.2,164.87,413.2,164.87Z"/><path class="cls-2" d="M393.7,98.33,392.13,98c-1-.19-2.53-.47-4.42-.92A36,36,0,0,1,381,94.88a18.45,18.45,0,0,1-7.19-5.61,12.79,12.79,0,0,1-2.66-10.42c.91-4,4.06-7.11,7.37-9.63a87.12,87.12,0,0,1,10.85-7c3.86-2.16,8-3.88,12-5.71s7.8-4,10.63-7,4.66-6.92,4.41-10.63a9.74,9.74,0,0,0-.16-1.32A9.57,9.57,0,0,0,416,36a11.63,11.63,0,0,0-1.1-2.43,21.31,21.31,0,0,0-3.42-4.27c-2.62-2.58-5.51-4.75-8-7.12a19.77,19.77,0,0,1-1.8-1.88,24.21,24.21,0,0,1-1.55-2.07,24.19,24.19,0,0,1-2.12-4.18A15.16,15.16,0,0,1,397,6.23a9.16,9.16,0,0,1,2.58-5,8.31,8.31,0,0,1,1.15-.95l.42-.31,2.07,3.37-.24.18a4.26,4.26,0,0,0-.69.53A5.21,5.21,0,0,0,400.73,7a11.57,11.57,0,0,0,.59,5.92A20.53,20.53,0,0,0,403,16.42c.39.58.78,1.18,1.2,1.7a17.52,17.52,0,0,0,1.53,1.7c2.28,2.28,5.12,4.53,7.88,7.4a24.24,24.24,0,0,1,3.75,5,14.48,14.48,0,0,1,1.3,3.13A12.37,12.37,0,0,1,419,36.9a12.57,12.57,0,0,1,.17,1.77c.15,4.71-2.22,9.11-5.41,12.37s-7.44,5.46-11.52,7.23S394,61.58,390.17,63.6a84.26,84.26,0,0,0-10.86,6.63c-3.31,2.37-6.3,5.24-7.23,8.84a12,12,0,0,0,2.27,9.83,17.89,17.89,0,0,0,6.85,5.65,35,35,0,0,0,6.55,2.4c1.88.5,3.37.82,4.39,1Z"/></g></g></g></svg>