<svg xmlns="http://www.w3.org/2000/svg" viewBox="0 0 106.83 314.56"><defs><style>.cls-1{fill:#c4ac82;}</style></defs><g id="Layer_2" data-name="Layer 2"><g id="OBJECTS"><path class="cls-1" d="M39.28,140.86c.51.08,1,.18,1.52.25A4,4,0,0,1,44.08,144l-.43,1.35c-.43.83-1.3.8-1.58,1.47,1.31,1.78,2.58,3.56,2.71,5.83-.35.64-.66,1.27-1.05,1.84a3.52,3.52,0,0,1-.91.85c-.57.4-1.17.74-1.79,1.13a6.85,6.85,0,0,0,.94,1.23,5.48,5.48,0,0,1,1.42,2.52,8.72,8.72,0,0,1,.54,3.43,32.54,32.54,0,0,1-.78,6.52A42.42,42.42,0,0,1,41.46,176a14.69,14.69,0,0,1-2.81,4.94l.88.67c.09.73.12,1.2.21,1.65a2,2,0,0,1-.69,2c-.69.63-1.43,1.21-2.24,1.89-.07.39-.17.89-.27,1.42l-1.16,1.6c0,.2,0,.32.08.38a7.84,7.84,0,0,1,1.73,3.16,2.76,2.76,0,0,0,.7,1.15,16.33,16.33,0,0,1,.25,6.28,6,6,0,0,1-.84,2.51,10.56,10.56,0,0,1-2.49,3c-.23.16-.43.36-.65.54A3.44,3.44,0,0,0,33,210.58c.58.37,1.24.2,1.82.42a.8.8,0,0,1,.22.12c2.08,1.85,2.06,1.86,2.74,4.53.35,1.35.69,2.7,1,4a13.42,13.42,0,0,1,.12,6.11,18.19,18.19,0,0,1-1.3,3.69,5.73,5.73,0,0,1-1.07,2.1c-.37.36-.7.75-1.06,1.12-.09.1-.26.16-.31.27a5.55,5.55,0,0,1-1.61,1.85c-.2.64.22,1.28-.19,1.83a11.05,11.05,0,0,1-1.32,3.51,6.3,6.3,0,0,1-3.57,3.14,9.15,9.15,0,0,1-5.41.34,3.54,3.54,0,0,0-.24.74,14.47,14.47,0,0,0-.08,4,.88.88,0,0,1,0,.28l-.42,3.74c0,.23,0,.46,0,.69s0,.74-.08,1.11a3.49,3.49,0,0,0-.12.54,37.26,37.26,0,0,1-.29,4.72,68.76,68.76,0,0,0-.5,8c.08,3.76-.5,7.46-.66,11.19a4.6,4.6,0,0,0-.05,1,5.58,5.58,0,0,1-.19,3,1.16,1.16,0,0,0,0,.42c0,.6.09,1.2.14,1.88a32.65,32.65,0,0,1,4.88,7.72,16.2,16.2,0,0,1,1.57,5.5,15.9,15.9,0,0,1,.07,2.93,11.25,11.25,0,0,0,0,2.09,11.32,11.32,0,0,1-.61,4.93,11.13,11.13,0,0,1-.87,1.89,1.86,1.86,0,0,1-.74.61,9.24,9.24,0,0,1-1,.47,25,25,0,0,0-3.16.14,12.49,12.49,0,0,1-3.06-.09c-.68,0-1.37-.1-2.07-.13a19.42,19.42,0,0,1-4.4-.71c-1.17-.32-2.27-.84-3.47-1.08a2.36,2.36,0,0,1-1.95-1.63.38.38,0,0,0-.06-.13c-1.36-1.71-.87-3.59-.55-5.49s1-3.6,1.43-5.41a4,4,0,0,1,1.2-2.47,14.82,14.82,0,0,1,2.41-5.32c.76-1.06,1.49-2.14,2.24-3.21a2.31,2.31,0,0,0,.46-1.31,45.32,45.32,0,0,0,.31-5.59.71.71,0,0,1,0-.14c.65-2,.12-4,.36-6,.08-.65.19-1.29.28-1.94a.88.88,0,0,0,.06-.27,36.45,36.45,0,0,1,.12-4.05,8.73,8.73,0,0,0,0-2.5c0-.16.08-.36.13-.54a5.53,5.53,0,0,0,.17-2.49,4.58,4.58,0,0,1,0-1c.06-.87.16-1.75.22-2.62s.07-1.5.14-2.24a3.08,3.08,0,0,0,0-1.78.65.65,0,0,1,0-.41,31.38,31.38,0,0,0,.51-4.73,5.43,5.43,0,0,0-.06-1,1.81,1.81,0,0,1,0-.69,4.51,4.51,0,0,0,.2-2.33c0-.16.07-.36.12-.54.27-1,.27-1-.19-2.19a2.75,2.75,0,0,0-1.61-.13,4.26,4.26,0,0,1-1.38,0,8,8,0,0,0-1.95,0,7.11,7.11,0,0,1-3.45-.36,20.74,20.74,0,0,1-4.51-2.21A5.35,5.35,0,0,1,0,234.75a4,4,0,0,1,2.23-2.29c1.46-.62,2.94-1.16,4.44-1.64a4.32,4.32,0,0,0,.47-.26c-.36-.15-.63-.27-.91-.36-1-.33-2.08-.58-3.06-1a4.25,4.25,0,0,1-2.24-1.8A2.08,2.08,0,0,1,1,225.16a6.19,6.19,0,0,0,.72-1A30.22,30.22,0,0,1,3,220.44a13.12,13.12,0,0,1,1-4.05,3.54,3.54,0,0,1,1.4-2,6.46,6.46,0,0,0,.8-.77l2-.38c-.23-.44-.67-.47-1-.67a6.53,6.53,0,0,0-1-.51c-.52-.21-1.07-.36-1.59-.56-1.22-.48-1.39-.81-1.19-2.15,0-.14.07-.27.11-.44A5.19,5.19,0,0,1,3,205.29a5.08,5.08,0,0,0,0-.68,10.46,10.46,0,0,1,0-1.12c.08-.92.26-1.83.25-2.77a10.71,10.71,0,0,1,.48-2.17,5.13,5.13,0,0,0,.11-1,9,9,0,0,1,.36-2.46c.23-.71.31-1.46.49-2.18a6.41,6.41,0,0,1,.45-1.17c.2-.41.45-.8.73-1.31a3.13,3.13,0,0,0-.69-.2c-.51,0-1,0-1.54-.06-.93,0-1.37-.59-1.12-1.47a2.72,2.72,0,0,1,1-1.35c1-.81,1.93-1.64,2.89-2.46l.79-.73a.77.77,0,0,0-.81-.51,5.69,5.69,0,0,1-2.5-.85,1.41,1.41,0,0,1-.74-1.78,1.58,1.58,0,0,1,.41-.71,3.05,3.05,0,0,1,1-.77c1.14-.47,1.44-1.51,1.81-2.5.18-.48.24-1,.4-1.48a12.44,12.44,0,0,0,.64-4.92,24.2,24.2,0,0,0-1-5.73,29.45,29.45,0,0,1-.76-3.85,4.14,4.14,0,0,1,.22-1.5c.16-.72.38-1.43.56-2.11a2.8,2.8,0,0,0-.29-.4,6.09,6.09,0,0,1-1.91-3.64,10.75,10.75,0,0,1-.49-2.91,6.07,6.07,0,0,1,2.22-1c0-.38-.2-.33-.35-.38a12,12,0,0,1-1.47-.46,2.83,2.83,0,0,1-1.8-3.13,2.74,2.74,0,0,1,.54-1.11,4.39,4.39,0,0,1,2.43-1.57c.51-.09,1-.27,1.49-.41l.08.06-.08-.06a4.53,4.53,0,0,1,.4-2.29c.13-.22.07-.55.13-.83.09-.5.2-1,.31-1.5a3.14,3.14,0,0,0,.13-.68c-.07-1.64.39-3.23.4-4.86a3.79,3.79,0,0,1,2.23-3.59l1.9.06c.31-.36.09-.59-.11-.75-.51-.4-1.05-.78-1.59-1.15a26.35,26.35,0,0,0-2.21-1.46,16,16,0,0,1-3-2.5,13.76,13.76,0,0,1-1-1.16A3.69,3.69,0,0,1,3.7,119a28.6,28.6,0,0,1,.38-2.91c.1-.64.24-1.27.35-1.91.07-.42.09-.84.18-1.25a15.44,15.44,0,0,1,.53-1.88c.11-.27.42-.45.65-.69a30.08,30.08,0,0,0,5.31,1.32s.07-.05.11-.08c-.39-.31-.39-.31-1.23-.49a4.32,4.32,0,0,1-1.41-2c-.13-.35-.33-.67-.46-1a6.27,6.27,0,0,1-.67-2.83,4.33,4.33,0,0,0-.2-1.37,4.1,4.1,0,0,1,.17-2.61A4.68,4.68,0,0,0,7.67,100c.13-1.28.37-2.56.61-3.83a3.14,3.14,0,0,1,.45-.87c.46-.76.91-1.52,1.38-2.26a2.78,2.78,0,0,1,.54-.64,18.81,18.81,0,0,1,3.56-2.71,3.37,3.37,0,0,0,.45-.32l.31-.07a.29.29,0,0,0-.22,0s-.06.06-.09.09a4.63,4.63,0,0,0-1,0,8.62,8.62,0,0,1-2.09.09,10.57,10.57,0,0,0-1.25.12,1.71,1.71,0,0,1-2-1.55,3.72,3.72,0,0,1,.07-2.33c.11-1.36.3-2.71.29-4.06a10,10,0,0,1,.54-4.3,1.23,1.23,0,0,0-.91-.88,1.64,1.64,0,0,1-1-1.39,12.11,12.11,0,0,1,.12-4.33,2.08,2.08,0,0,1,1.89-1.79c1.62-.23,3.23-.52,4.84-.8.36-.06.72-.15,1.16-.24.09-.23.19-.48.31-.73a1.21,1.21,0,0,1,1-.69c1.77-.16,3.49-.59,5.24-.85a18.32,18.32,0,0,0,5.34-1.35,10.12,10.12,0,0,0,.34-3.42c0-.93,0-1.85,0-2.77,0-1.9.14-3.81.24-5.71a7.85,7.85,0,0,1,.16-1,1.79,1.79,0,0,0,.11-.54,12.48,12.48,0,0,1,.22-3.17c.21-1.71.27-3.44.5-5.15.16-1.2.5-2.36.75-3.55a8.23,8.23,0,0,0,.15-1.11c.11-1.21.19-2.42.3-3.63a25.64,25.64,0,0,1,.42-2.9,15.86,15.86,0,0,0,.47-3.16,1.47,1.47,0,0,1,1.12-1.34,1.66,1.66,0,0,1,1.51,1.56,14.24,14.24,0,0,1,.16,1.95,17.14,17.14,0,0,0-.07,4,11.3,11.3,0,0,0-.18,2.9,13.65,13.65,0,0,0,.13,3.88,21.34,21.34,0,0,1,.23,3.2,21.34,21.34,0,0,0,.22,3.48A8.79,8.79,0,0,1,34,49.07a57.52,57.52,0,0,1-.36,7.54,8.94,8.94,0,0,1-.19,2.63,1,1,0,0,0,0,.56,6.38,6.38,0,0,1,0,2.09c0,.27,0,.55,0,.81.18.09.3.21.42.21,1.06,0,2.13-.14,3.2-.12,2.23.05,4.48,0,6.56.84A1.23,1.23,0,0,1,43.81,65l-2.92,2.53c.06.29.35.24.55.23a13.25,13.25,0,0,1,4.49,1,5.38,5.38,0,0,1,3.69,3.72,4.91,4.91,0,0,1-.6,4.26,13.85,13.85,0,0,1-4.3,4.12,1.48,1.48,0,0,0-.27.29c0,.11,0,.23.07.28,1.38,1.22,1.42,2.76,1.06,4.38a4.64,4.64,0,0,1-1.23,2.32c-.33.33-.64.68-.89.94a18.29,18.29,0,0,1-1.77.67,16.58,16.58,0,0,1-2.19.42,6.19,6.19,0,0,0-1.89.48A4.46,4.46,0,0,0,39,92.13a6.27,6.27,0,0,1,1.55,1.4c.58.67,1.18,1.33,1.79,2A8.64,8.64,0,0,1,44,98.85a11.42,11.42,0,0,1,.29,1.22c0,1,0,1.65,0,2.34a9.57,9.57,0,0,1-.65,3.27c-.37.95-.86,1.84-1.35,2.86.26.57.89.91,1.47,1.45a43.55,43.55,0,0,1,1.42,4.56,45.7,45.7,0,0,1,.58,5.82,11.13,11.13,0,0,0,.16,2.09,3.66,3.66,0,0,1-.36,2.44c-.18.38-.35.76-.51,1.15a4.82,4.82,0,0,1-1.21,2,3.49,3.49,0,0,0-.49.88l.94,1.77a23.79,23.79,0,0,1-2.5,5.86,3.32,3.32,0,0,0-.3.63,4,4,0,0,1-1.1,1.59,3.17,3.17,0,0,0-1.09,2.06l-.09,0,0,0ZM13,92.85l.3-.26,1.21-1a1.43,1.43,0,0,0,1.19-.75l.58-.23a1.06,1.06,0,0,0,1.16-.47l.59-.24a2.51,2.51,0,0,0,1.78-.36,2.4,2.4,0,0,0-1.78.36l-.59.24a1.05,1.05,0,0,0-1.16.47l-.58.23a1.45,1.45,0,0,0-1.19.75,1.23,1.23,0,0,0-1.21,1l-.3.26-.3.26c-.18,0-.46,0-.39.42l.39-.42Zm-.1,18.86,0,.09,0-.09.06-.08ZM11.74,94.16l-.33.54c-.11.18-.21.36-.32.53l-.06.09.06-.08.32-.54.33-.54.06-.08Zm26.94,1.3-.26-.3a2.2,2.2,0,0,0-1.59-1.25,5.47,5.47,0,0,0-2.42-2.14c-.63.14-1.17.29-1.72.38s-1.2.15-1.8.19l-3.76.22a.89.89,0,0,1-.28,0l-2.66-.59-1.64-1.35a31.06,31.06,0,0,0-4.69,1.07,9.62,9.62,0,0,0-5,3.61A33,33,0,0,0,11,98.07,10.06,10.06,0,0,0,9.62,104a5,5,0,0,0,.5,2.56,5.37,5.37,0,0,0,.4-.94,17.3,17.3,0,0,1,2-5.07,12.38,12.38,0,0,1,2.32-3c.63-.58,1.4-.91,2.06-1.43a9.52,9.52,0,0,1,3.54-1.59,6.61,6.61,0,0,0,.79-.25,8,8,0,0,1,3.36-.86,4.9,4.9,0,0,0,.82-.15L27.31,93a25.31,25.31,0,0,1,6.15,0,6.44,6.44,0,0,1,1.89.45,14,14,0,0,0,1.48.4,3,3,0,0,0,1.59,1.25l.26.3.51.61c.21.41.46.81.63,1.24a18.8,18.8,0,0,1,1.11,4.61,1.46,1.46,0,0,1,0,.69,1.79,1.79,0,0,0,.08,1.23,4.47,4.47,0,0,1,.08.82l-1.2-.14-.46-.43a15.36,15.36,0,0,0-2.77-2.32c-.56-.32-1.13-.62-1.72-.89-1.55-.69-3.22-.48-4.81-.84a47.34,47.34,0,0,0-5.56.45,46.19,46.19,0,0,0-4.91,1.61,1.27,1.27,0,0,0-.48.27c-.77.68-1.54,1.36-2.29,2.06a18.75,18.75,0,0,0-2.43,3.42,3.18,3.18,0,0,0-.67,1.68c.78-.55,1.57-.71,2.07-1.39.12-.17.38-.24.57-.36s.65-.35,1-.54.63-.4,1-.56a11,11,0,0,1,3.34-1.4,6.73,6.73,0,0,1,2.59-1,8.26,8.26,0,0,1,1.65-.29c1-.13,2,0,2.93-.12a17.31,17.31,0,0,1,5,0,18,18,0,0,1,3.53.8,13.84,13.84,0,0,0,2.57.66.86.86,0,0,0,1.14-.74c.06-.06.16-.13.18-.2a12.53,12.53,0,0,0,.42-3.82A8.29,8.29,0,0,0,40,96.58a3,3,0,0,0-.79-.52A.57.57,0,0,0,38.68,95.46ZM13,219.89l.47.29.07-.17-.54-.12c-.28-.37-.71-.31-1.09-.37-.28-.38-.71-.31-1.1-.37a3.84,3.84,0,0,0-1.64-.72,2.47,2.47,0,0,1-1.84-1.32,2.35,2.35,0,0,1,1-1.24c.8.2,1.61.38,2.42.6,1,.29,2,.61,3.09.89.29.08.63.22.88-.13,0-.09,0-.21-.08-.26a5.88,5.88,0,0,0-2.13-1c-.58-.17-1.17-.3-1.74-.51a4.75,4.75,0,0,0-3.59,0c-1.06,1.07-1.16,2.42-1.41,3.68a18.79,18.79,0,0,1-2.1,6.62,2.08,2.08,0,0,0-.11.61c.88.26,1.73.47,2.56.76a36.93,36.93,0,0,1,5,1.67c.7.37,1.49.56,2.18,1,1.54.86,3,1.79,4.56,2.68.4.24.81.46,1.23.68a4.05,4.05,0,0,0,2.59.42c1.8-.31,3.63-.16,5.43-.36a3.62,3.62,0,0,0,.59-.21c-.94-.78-1.71-1.51-1.33-2.71a.81.81,0,0,1,1.18.27c.52.88,1.45,1.47,1.74,2.5,0,.11.2.18.29.26a1.27,1.27,0,0,0,1-.3.92.92,0,0,0-.13-.28c-.85-.87-1.72-1.71-2.54-2.6a10.49,10.49,0,0,1-1.08-1.47.88.88,0,0,1,.2-1.14c.27-.22.65-.18,1,.19.68.76,1.32,1.57,2,2.33a5.74,5.74,0,0,1,1.24,2,3.43,3.43,0,0,0,.26.5,1.15,1.15,0,0,0,.9-.86c-.23-.29-.46-.58-.7-.86-1-1.14-1.93-2.29-2.91-3.42a2.23,2.23,0,0,1-.65-1.36.65.65,0,0,1,.54-.77,3.47,3.47,0,0,1,.9.54,27.54,27.54,0,0,1,1.86,2.44c.59.88,1.08,1.82,1.65,2.78a3.76,3.76,0,0,0,1.49-1.34c.5-1.08,1.36-2,1.3-3.34,0-.22.17-.43.24-.66a2.09,2.09,0,0,0,.18-.67,18,18,0,0,0-.17-3.2c-.24-1-.44-2.1-.6-3.16a16.64,16.64,0,0,0-1.49-4.84c-.55-.25-.94-.83-1.62-1a1.83,1.83,0,0,0-.78,1.33,8.3,8.3,0,0,1,2.73,3.48c-.27.28-.51.29-.69.1a7.35,7.35,0,0,1-.56-.78,9.37,9.37,0,0,0-1.94-2.19,17.17,17.17,0,0,1-1.68,1.56,15.88,15.88,0,0,1-1.85,1,4.94,4.94,0,0,0-1.49.18,3.1,3.1,0,0,1-1.91.22,26.19,26.19,0,0,0-5.31-.07,10.46,10.46,0,0,1-3.06-.12c-.08,0-.19.1-.33.18,1,.74,2.45.48,3.2,1.69-.69-.2-1.35.12-2-.13a17.66,17.66,0,0,0-2.16-.59,5,5,0,0,0-.87,0c1.48.54,2.86,1.22,4.27,1.83.27.12.63.23.6.66s-.45.3-.73.22l-1.08-.3-1-.29c1.07,1,2.7,1,3.62,2.18a1,1,0,0,1-1.11.18c-1.25-.34-2.48-.74-3.71-1.18a15.83,15.83,0,0,0-4.45-1.13h0c-.31-.46-.84-.56-1.29-.78a13.1,13.1,0,0,1-1.24-.63.6.6,0,0,1-.21-.91,3,3,0,0,1,.74,0c.9.22,1.79.47,2.69.7.28.38.71.31,1.1.37C12.17,219.89,12.59,219.83,13,219.89ZM8.13,238.37l.08.06-.08-.06c.06-.79.11-1.58.18-2.37a5.18,5.18,0,0,1,1.13-3,4.2,4.2,0,0,0,.49-.68c.05-.09,0-.25,0-.47a6.92,6.92,0,0,0-2.85,3.77,2.94,2.94,0,0,0,0,2.51ZM40,128.52a2.22,2.22,0,0,0,1-.93,7.27,7.27,0,0,1,.74-1,7.91,7.91,0,0,0,1.59-3.07,3,3,0,0,0,.12-1.22c-.15-1.48-.31-3-.33-4.44a16.64,16.64,0,0,0-1.27-5.52l-.25-.3a4.12,4.12,0,0,0-.39-.88c-.46-.59-1-1.13-1.43-1.67-.24-.07-.41-.14-.59-.18a15.33,15.33,0,0,0-2.71-.67c-1.22-.09-2.46.08-3.7.06a2.89,2.89,0,0,0-.71.23,10.2,10.2,0,0,0,.21,1.12,26.67,26.67,0,0,1,1.47,7.54,17.72,17.72,0,0,1-.08,3.34c-.2,1.15-.34,2.3-.61,3.44a16.7,16.7,0,0,1-1.7,4.71,4.26,4.26,0,0,1-1.65,1.69l-1.33-.25a3.55,3.55,0,0,1,.19-1.58,28.81,28.81,0,0,0,1.19-6.31,62.42,62.42,0,0,0,.3-6.71c-.08-1.34-.08-2.7-.24-4a6.64,6.64,0,0,1,0-1.26c0-.28.19-.53.72-.42a14.37,14.37,0,0,1,.81,3.42c.06.64.07,1.3.11,2a21.92,21.92,0,0,1,0,4c-.18,1.43-.25,2.87-.57,4.3-.27,1.22-.5,2.46-.88,3.66-.22.7-.43,1.4-.68,2.22a1.94,1.94,0,0,0,1.07-1.18A16.35,16.35,0,0,0,32,122.29a13,13,0,0,1,.11-1.4,24.33,24.33,0,0,0-.07-4.75c-.08-1.26-.4-2.48-.53-3.73a17,17,0,0,0-.62-3.35c-1.55.44-3.19.25-4.53,1.1.29,1,.58,1.87.81,2.77a28,28,0,0,1,.75,7.35,34.12,34.12,0,0,1-1.29,8.57c-.08.29-.19.64-.67.62a2.83,2.83,0,0,1,.05-1.63,18.5,18.5,0,0,0,.6-3.57c0-1.27.14-2.52.17-3.78a5.89,5.89,0,0,0,0-.84c-.26-1.89-.13-3.81-.58-5.69-.28-1.2-.39-2.44-.59-3.73a4.62,4.62,0,0,0-1.56.74c.21,1,.46,2,.59,2.93s0,1.82.17,2.74a25.67,25.67,0,0,1,.29,2.78,24,24,0,0,1,0,3.6c0,.87-.35,1.73-.43,2.6a13.66,13.66,0,0,1-.92,3.22c-.07.22-.28.39-.58.09.28-1,.17-2.17.55-3.26a6.23,6.23,0,0,0,.12-1.94c0-.56,0-1.12,0-1.67,0-1.31.06-2.62-.08-3.91-.22-2.1-.18-4.19-.25-6.28a4.17,4.17,0,0,0-.12-.6l-.94.47a10.36,10.36,0,0,1-1.5.73c-.93.29-1.89.49-2.83.74-.58.16-1.15.4-1.74.52-1.08.22-2.21.21-3.28.52a.39.39,0,0,1-.28,0,3.16,3.16,0,0,0-1.64-.13,3.06,3.06,0,0,1-.7-.13c-.19-.34-.37-.66-.58-1-1.08,0-2.07-.91-3.21-.36a5.87,5.87,0,0,0-.17,3.61,19.46,19.46,0,0,0,2.66.4,43.87,43.87,0,0,0,6.27-.36c.88-.09,1.77-.1,2.65-.19s1.93-.25,2.84-.37c.06-.13.1-.17.1-.21,0-.32-.1-.64-.14-1s0-.47.42-.54a2.71,2.71,0,0,1,.47.58,13.82,13.82,0,0,1,1,6,10,10,0,0,1-.5,3.6.93.93,0,0,0-.06.41,12,12,0,0,1-.93,3.79c-.05.15-.2.26-.33.43-.09-.18-.17-.26-.16-.33a11.7,11.7,0,0,1,.41-3.33,4,4,0,0,0,.18-1.1c.1-1.12.23-2.24.26-3.36s-.06-2.05-.14-3.07a4.13,4.13,0,0,0-.31-.94,3,3,0,0,0-.72,0,40.75,40.75,0,0,1-5.35,1,38.61,38.61,0,0,1-5.15.33,5.49,5.49,0,0,1-3.2-.83A2.8,2.8,0,0,0,6.1,117c.07.45.12.75.16,1a2.62,2.62,0,0,1,.63.06c.37.17.73.39,1.09.58,1-.1,2.06-.23,3.08-.29,1.72-.09,3.46-.06,5.16-.24a19.43,19.43,0,0,1,3.5.09,2.7,2.7,0,0,1,.65.2l0,.51a16,16,0,0,1-3.3.47c-.93.07-1.86.1-2.78.21a15.3,15.3,0,0,1-2.79.23,9.37,9.37,0,0,0-1.73.2,4.12,4.12,0,0,0,1.39.29c2,.16,3.92.31,5.87.48a7,7,0,0,1,1.36.29c.21.06.42.23.26.52a9.5,9.5,0,0,1-3.1.33,18.84,18.84,0,0,0,2.29.6,3.74,3.74,0,0,1,1.71.91c.1.08.1.3.15.47-1.24.16-3.16,0-7.26-.69a4.27,4.27,0,0,1-.8-.28c0-.39-.08-.74-.12-1.13a9.48,9.48,0,0,1-3.26-1.07l-.46-.86-1.49-.59a.89.89,0,0,0-.14,1.07A5.59,5.59,0,0,0,7,121.46c.36.37.78.66,1.17,1a11.83,11.83,0,0,0,2.77,1.87,4.62,4.62,0,0,1,.48.28,16.63,16.63,0,0,1,2.79,2.28,10.65,10.65,0,0,1,1.76,1.79,2.35,2.35,0,0,0,1.29.78,17.24,17.24,0,0,0,3.44.63,16.08,16.08,0,0,1,2.9.41,24.94,24.94,0,0,0,4.13.71c2.24.07,4.46.42,6.72.29a7.39,7.39,0,0,0,4.29-1.41,2.15,2.15,0,0,0,1-1.31ZM23,143.23a1.22,1.22,0,0,1,1.15.66,1.62,1.62,0,0,1,0,1.44l-.69.33a7.28,7.28,0,0,0,2.49.21c-.29-1.16-.19-1.6.41-1.91s1.1-.14,1.88.61l-.37,1.26a8.29,8.29,0,0,0,2.24.12,6.66,6.66,0,0,1,.33-1.13,1,1,0,0,1,1.51-.4c.68.45.82.69,1,1.74.75-.16,1.56,0,2.26-.42-.26-1-.26-1,.84-1.29.61.19.43.83.66,1.31,1.61-.58,3.43-.28,4.74-1.53-.1-.72-.09-.74-.32-.9a3.53,3.53,0,0,0-2.06-.79,1.77,1.77,0,0,1-1.42-.46c0-.05-.17,0-.26,0l-.24.66-3.89.95a1.51,1.51,0,0,1-.42.05l-4.33-.36c-1.72-.7-3.5-.35-5.26-.26-.08,0-.15.09-.23.14-.6,0-1.21-.08-1.81-.14a2.85,2.85,0,0,0-2,.55c.08.37.15.72.22,1.05l-.55,1.24a9,9,0,0,0,3.74-.45A1.69,1.69,0,0,1,23,143.23ZM8.62,204.05a11.35,11.35,0,0,0,2.2-.83c1.47-.93,3.19-.58,4.72-1.14l3.33.39c.41.05.82.16,1.23.23s.74.12,1.11.18c.59.11,1.18.26,1.78.33,1,.11,2.05.17,3.07.26a4,4,0,0,1,1.11.15,10.06,10.06,0,0,0,2.48.42c.6.06,1.2.17,1.8.26.22,0,.44,0,.73.06a1.11,1.11,0,0,0-.43-.93c-.35-.24-.71-.45-1.05-.71a11.93,11.93,0,0,0-5.47-2,43.93,43.93,0,0,0-4.88-.24h-.42c-1,.09-1.94.23-2.92.25a14.82,14.82,0,0,0-6.29,1.72A4.87,4.87,0,0,0,8.61,204l-.06.09Zm5.31-63.24,1.51-.05c1.56,0,3.09-.46,4.67-.33a1.77,1.77,0,0,0,.63-.2l1.23,0a30,30,0,0,1,5.19-3.07,18.93,18.93,0,0,0,1.72-.92,19.47,19.47,0,0,1,4.64-1.88,2.09,2.09,0,0,1,.54,0,1.35,1.35,0,0,1-.89.92l-2.86,1.42-.08,0,.08.06c-1.87,1.37-4,2.3-6,3.62,1.11.16,1.12.18,2-.3,1.18-.66,2.31-1.43,3.53-2,2-1,4.11-1.78,6.17-2.65a9.89,9.89,0,0,1,1.2-.39,2.63,2.63,0,0,1,.64,0c-.22.26-.32.42-.44.54A9.87,9.87,0,0,1,35.11,137c-1.52.82-3.14,1.45-4.59,2.4a4.64,4.64,0,0,1-1.48.77.69.69,0,0,0-.57.77c1.2.58,2.44.12,3.72.08a12,12,0,0,1,4-2.56,4.44,4.44,0,0,0,2.22-2c.39-.63,1-1.15,1.33-1.79a20.69,20.69,0,0,1,2.13-3.28.44.44,0,0,0,0-.63c-.63.19-.64.17-.9.52a6.38,6.38,0,0,1-4.36,2.26c-.91.16-1.86.09-2.78.19a3.37,3.37,0,0,1-1.38-.06,7.56,7.56,0,0,0-1.13-.21c-.32.17-.66.32-1,.5-2.72,1.54-5.35,3.23-8,4.87a4.45,4.45,0,0,0-1.57,1.35c-.26-.06-.59,0-.68-.4a1.55,1.55,0,0,1,.18-.33,31.22,31.22,0,0,1,7.3-5.13,3,3,0,0,0,1.1-.74,2,2,0,0,0-1.38-.48c-1.86-.15-3.73-.29-5.59-.46a3.15,3.15,0,0,0-1.77.3c-.71.36-1.38.78-2.1,1.1-2.39,1.09-4.58,2.52-6.87,3.77a3.82,3.82,0,0,0-.83.73s.05.22.11.41c.56-.35,1-.69,1.57-1,1.55-.86,3.09-1.75,4.68-2.53s3.07-1.36,4.62-2c.29-.12.61-.3.9.06,0,.45-.37.62-.69.79-1.39.75-2.76,1.56-4.2,2.22-2.21,1-4.25,2.34-6.34,3.56-.39.23-.81.46-.94,1a.78.78,0,0,0,1.14,0c.77-.53,1.5-1.11,2.29-1.61a46.33,46.33,0,0,1,7.57-3.91c.73-.29,1.44-.67,2.17-1,.55-.24,1.12-.47,1.69-.67.1,0,.25,0,.44.09a2.29,2.29,0,0,1-1.22,1.14c-2.28,1.19-4.56,2.37-6.83,3.58a11.18,11.18,0,0,0-3.13,2.06h0C13.75,140.92,13.84,140.87,13.93,140.81ZM38.72,102l.09,0-.08-.06a3.14,3.14,0,0,0-1.44-2,13.47,13.47,0,0,0-6.16-2.54,21.84,21.84,0,0,0-8.74.48,14.78,14.78,0,0,0-1.57.58,29.11,29.11,0,0,0-3.5,2,1.93,1.93,0,0,0-.53.46,41.14,41.14,0,0,0-3.79,5.2c-.32.57-.53,1.2-.82,1.79-.1.19-.21.43-.51.37,0-.09-.13-.18-.12-.24.22-.76.44-1.52.69-2.27a18.68,18.68,0,0,1,1.24-2.34,12.44,12.44,0,0,1,2-2.68,16.8,16.8,0,0,1,3.07-2.63,10.15,10.15,0,0,1,2.79-1.25,26.44,26.44,0,0,1,3.43-.72A11,11,0,0,1,27.7,96a2.37,2.37,0,0,0,.84,0,4.1,4.1,0,0,1,2.47.2,4.46,4.46,0,0,0,1,.15,10.7,10.7,0,0,1,3.47,1,9.52,9.52,0,0,1,3.2,2.21c.14.18.38.45.75.17-.18-.47-.38-.94-.55-1.42a5.7,5.7,0,0,0-3.32-3.39,7.21,7.21,0,0,0-2.84-.71A8.81,8.81,0,0,1,31.44,94a10.66,10.66,0,0,0-4,0c-1,.21-1.92.36-2.88.54a20.48,20.48,0,0,0-5.32,1.62,14.09,14.09,0,0,0-4.74,3.38,17.27,17.27,0,0,0-1.54,2.16c-.47.75-.86,1.55-1.31,2.36-.2.61-.41,1.28-.62,1.94a6.21,6.21,0,0,0-.26.8c-.34,1.75.14,2.31,1.94,2.28.08,0,.16-.08.25-.12.72-1.3,1.43-2.61,2.19-3.89A10.65,10.65,0,0,1,17.75,102a14.63,14.63,0,0,1,6.31-2.56A26.79,26.79,0,0,1,28.37,99a46.82,46.82,0,0,1,5,.28,3.22,3.22,0,0,1,.68.17A10.94,10.94,0,0,1,38.72,102Zm-7.8-11.61a3.17,3.17,0,0,0,.82-.09,24,24,0,0,1,3.18-1A38.32,38.32,0,0,1,39.63,88a5.85,5.85,0,0,0,2.56-.83,3.18,3.18,0,0,1-.14-2.91,2.8,2.8,0,0,0,0-1c-.61-.51-1.17-.77-1.84-.33l-1.13-.06c.24.51.44.94.65,1.41.17-.47.33-.91.48-1.35.76.15.94.75,1,1.36a12.29,12.29,0,0,1-.14,2.1,1.07,1.07,0,0,1-1,1l-.66-.56-.72.79-.7-.18a6.61,6.61,0,0,0-.09-.73,3.09,3.09,0,0,1,.27-2.43c.17-.27.08-.7.11-1.11A10.4,10.4,0,0,0,37.05,83a4.29,4.29,0,0,1-2.49-.82,13.65,13.65,0,0,0-3.77-1.81A14,14,0,0,0,25,79.17a6.14,6.14,0,0,0-.72.16,9.79,9.79,0,0,1,.38,5.18A15.9,15.9,0,0,1,24,87c-.1.33-.31.68-.75.66-.08-.11-.19-.19-.18-.26.07-.78.15-1.57.25-2.35a5.55,5.55,0,0,0,.18-1.37,10.53,10.53,0,0,1,0-2.38,4.17,4.17,0,0,0-.36-2.15,8.53,8.53,0,0,1-1.54-.33,3.56,3.56,0,0,0-2.64.15c-.06.48-.12.94-.16,1.4-.13,1.49-.24,3-.37,4.47,0,.32,0,.68-.46.76a.71.71,0,0,1-.57-.71c-.21-2.08-.5-4.17.75-6.14L13.39,78c-.6-.09-1.2-.18-1.8-.3a1,1,0,0,0-1,.4,9.45,9.45,0,0,0-.19,2.57,18.31,18.31,0,0,1,0,2c-.06,1.16-.18,2.33-.26,3.49a1.39,1.39,0,0,0,.42,1.37l2.2-.1c-.16-.91-.37-1.73-.43-2.55s0-1.75,0-2.63c-.43.89-.15,1.91-.58,2.77a.45.45,0,0,1-.6-.46,29.43,29.43,0,0,1,.38-4.87.56.56,0,0,1,.21-.35,1.12,1.12,0,0,1,.38-.15c.47.65-.09,1.4.3,2.18.2-1.14.23-2.18,1.06-3l.47.41c0,.57-.43,1-.1,1.53a3.76,3.76,0,0,1,.38-.75,1,1,0,0,1,.55-.41c.48-.09,1-.11,1.43-.15a.89.89,0,0,1,.28,1,5.44,5.44,0,0,0-.13,1.65c-.06,1.4-.21,2.8-.33,4.2a2.51,2.51,0,0,1-.22.45L15,86l-.71.15c-.22-.48-.41-.88-.67-1.42-.21,1.66-.21,1.66.06,2.45.22,0,.44,0,.67,0,.51,0,1,0,1.53-.07a10.14,10.14,0,0,1,3.72.29c.14,0,.28,0,.42,0a8.94,8.94,0,0,1,1.36.31c1,.36,1.9.76,2.84,1.15.34.62.34.62,1.17.44l-.1-.38c-.37-.1-.74.27-1.07-.06a16.26,16.26,0,0,0,.6-3.86c.08-1.26.18-2.51.3-3.77a5.76,5.76,0,0,1,.25-.92c1,0,.89.92,1.34,1.5.06-.72.1-1.26.15-1.89a2.58,2.58,0,0,1,.7,0,.62.62,0,0,1,.33.41,11.2,11.2,0,0,1,.22,2.07A14.19,14.19,0,0,1,27,87.83c-.24.55-.45,1.1-.71,1.73.48.14.92.25,1.36.4a.34.34,0,0,1,.22.54l-.77.3a4.64,4.64,0,0,0,3-.1,2.55,2.55,0,0,1-.13-.83,41.3,41.3,0,0,0,.86-5,1.52,1.52,0,0,1,.12-.4,3.93,3.93,0,0,0,.17-2.2,4,4,0,0,1,0-.88c.83,0,1.1.53,1.43,1,0,.34,0,.67.08,1a6.36,6.36,0,0,1-.21,3,15.84,15.84,0,0,1-1.53,3.88l-.06.08ZM18.11,148.47a6.88,6.88,0,0,0-1.11,0c-1.14.17-2.28.39-3.47.6l2,1.28c.59,1.73.43,2.08-1.11,2.47-.57-.34-1.25-.56-1.51-1.32l.59-1.41.06-.08-.06.08a2.55,2.55,0,0,1-1.63-.62c-.11.26-.18.42-.28.67-2,.31-4,.29-6,1.2.4,1.12.77,2.18,1.15,3.23a1.17,1.17,0,0,0,.91.82L9.12,155a15.3,15.3,0,0,1,2.68-.75c1.15-.1,2.21-.69,3.4-.52.12,0,.26-.09.39-.13a4.22,4.22,0,0,1,.69-.14,14.34,14.34,0,0,1,2.78,0c1,.17,2-.08,2.92.14a4.4,4.4,0,0,1,.82.15c2,.83,4.12.7,6.16,1.22a5,5,0,0,0,2.89-.2,7.5,7.5,0,0,1,4.95-.07A11.08,11.08,0,0,0,41.3,153l.39-1.05a10.24,10.24,0,0,0-.72-1.59c-.58-.84-1.26-1.61-1.89-2.4-.1,0-.19-.1-.28-.09-1.56.24-3.17.06-4.69.58a.83.83,0,0,1-.41.05c-1.1-.15-2.25.06-3.31-.43a2.49,2.49,0,0,0-.83-.12c-.7-.06-1.4-.13-2.1-.16-1.67,0-3.35-.08-5-.11a.93.93,0,0,0-.41,0,8.94,8.94,0,0,1-3.17.38,2.19,2.19,0,0,0-.74.33Zm.27,28.47a4.63,4.63,0,0,0,1.85,0,25.66,25.66,0,0,0,.89-6.89c0-2.28,0-4.55-.19-6.83s-1-4.53-1.3-7c.34.16.59.19.7.34A7.85,7.85,0,0,1,22,160.34a46.64,46.64,0,0,1,.56,4.86,34.32,34.32,0,0,1,.06,5.17c-.06.56-.09,1.12-.13,1.68a16.68,16.68,0,0,1-.67,4.27c-.07.22-.11.44-.18.73a15.86,15.86,0,0,0,3.18.68,10.4,10.4,0,0,1,2.2.35,6.38,6.38,0,0,0,3.19.11,8.45,8.45,0,0,1,4.95.2,6,6,0,0,0,.78.21,3,3,0,0,0,2-2.16,5.17,5.17,0,0,1,.55-1.43,5,5,0,0,0,.82-2.5,2.14,2.14,0,0,1,.27-.78,4.83,4.83,0,0,0,.62-2.68,2.32,2.32,0,0,1,.15-.81c.11-.41.25-.81.37-1.21,0-.07,0-.17-.09-.3l-1.05-.38.15-.55,1,.34a2.58,2.58,0,0,0,.3-1.69c-.07-.74-.24-1.47-.29-2.21a3.61,3.61,0,0,0-.88-2,9.84,9.84,0,0,0-1.57-1.59,3,3,0,0,0-2.85-.82,13.48,13.48,0,0,1-2.75.26,3.86,3.86,0,0,1-1.25-.15l-4.75-1.13c-.62-.14-1.25-.24-2.11-.4.94,1.8.76,3.67,1.17,5.46a2.29,2.29,0,0,0,.6,0,7.25,7.25,0,0,1,2.5-.11,80.58,80.58,0,0,1,8.77,1,3.55,3.55,0,0,1,1.67.71,1.89,1.89,0,0,1-.54.18c-.47,0-.93,0-1.4-.06l-10.07-.8a2,2,0,0,0-1.43.13,2,2,0,0,0-.1.48c0,.7.06,1.39.05,2.09s-.13,1.39-.11,2.09a13.32,13.32,0,0,1-.22,2.88c-.19.91-.3,1.83-.53,2.74,0,.12.05.26.08.45,1.55,0,3.08.06,4.61.18s3,.37,4.56.56l.74.75,1.4.3c.11.46-.14.61-.43.64-.93.08-1.86.13-2.79.19l-4.32.3a1.37,1.37,0,0,1-1.22-.55,6.25,6.25,0,0,1-.36-.53l-1.28-.18-1.26-.78c-.24.5-.43.92-.64,1.33a.42.42,0,0,1-.58.22,10,10,0,0,1,.18-3.32,10.27,10.27,0,0,0,.3-1.64c.17-2.28.35-4.55.33-6.84,0-2-.13-4-.17-6a16.58,16.58,0,0,0-.26-1.84c-.3-.06-.56-.15-.83-.18-1.26-.11-2.53-.16-3.78-.32a8.65,8.65,0,0,0-4.13.48,5.94,5.94,0,0,1-1.51.23,30.78,30.78,0,0,0-3.31.52,1.86,1.86,0,0,0-1,.64,4.34,4.34,0,0,0-.83,2.35,11.14,11.14,0,0,0,.71,4.38,14.72,14.72,0,0,1,.9,3.24,25.64,25.64,0,0,1,.19,6.13,8,8,0,0,1-.14.83c-.11.54-.2,1.1-.34,1.64s-.33,1-.5,1.58c.16.09.29.22.4.2,1.37-.18,2.8,0,4.17-.61.15-.43.33-.86.44-1.31.21-.95.35-1.92.59-2.87a20.46,20.46,0,0,0,.51-6.93,13.63,13.63,0,0,1-.15-1.67,9.21,9.21,0,0,0-.36-2.77c-.28-1.08-.62-2.15-.93-3.23a2.36,2.36,0,0,1-.17-1.55c.23.1.44.14.53.26a6,6,0,0,1,1.1,2.08c.28,1.18.76,2.32,1,3.51s.26,2.41.42,3.61a20.4,20.4,0,0,1-.45,7,26.28,26.28,0,0,1-.89,2.94c-.09.25-.16.51-.26.84A2.63,2.63,0,0,0,17,176.8c.09-.42.17-.82.26-1.23a30.18,30.18,0,0,0,.77-4.83c.05-1.58.18-3.16.14-4.75a46.34,46.34,0,0,0-.39-5,6.56,6.56,0,0,0-1.66-3.88.64.64,0,0,1,1-.27,3.75,3.75,0,0,1,1.73,2.61,23.4,23.4,0,0,1,1,6.91c0,.55.06,1.11.06,1.67a23.28,23.28,0,0,1-.56,5.26c-.29,1.23-.62,2.44-.93,3.66l-.06.08Zm-8,117.78a3,3,0,0,0-.82,2.19c0,.19-.19.4-.28.61a6.2,6.2,0,0,0-.31.77c-.31,1.22-.54,2.47-.93,3.66a10.45,10.45,0,0,0-.43,2.76,1.92,1.92,0,0,0,1.82,2.22c.5.09,1,.24,1.49.37s.88.31,1.34.39a16.3,16.3,0,0,1,2.34.37c.79.27,1.59-.19,2.34.2a46.52,46.52,0,0,1,5-.05A1.55,1.55,0,0,0,23.67,307a12.82,12.82,0,0,0,.57-2.45,22.34,22.34,0,0,0,.1-4.33,12.1,12.1,0,0,0-.8-4.38c-.55-1.22-1-2.48-1.67-3.66A18.58,18.58,0,0,0,20,289.13c-.42-.49-.6-1.18-1-1.67a14,14,0,0,0-1.61-1.41,2.62,2.62,0,0,1,0-.79,8.65,8.65,0,0,0,.14-2.09,28.23,28.23,0,0,1,.28-4.3,4,4,0,0,0-.05-.68,3.79,3.79,0,0,1,0-.83c.23-.85-.12-1.78.33-2.6.05-.1,0-.28-.05-.41a2.5,2.5,0,0,1,.11-1.38,2.46,2.46,0,0,0,.08-.82c0-.55,0-1.12,0-1.67.09-1.4.23-2.8.32-4.2a5.58,5.58,0,0,0-.06-1.53c-.15-.7.28-1.27.29-1.91a5.8,5.8,0,0,1,0-1.95c0-.08.07-.17.1-.26a5.14,5.14,0,0,0,.2-2.49,3.52,3.52,0,0,1,.14-1.93,2.86,2.86,0,0,0,.11-1.23c-.05-1,0-2,0-3.07,0-.61.18-1.2.23-1.81.06-.79,0-1.58.11-2.37.12-1.44.28-2.88.41-4.32a3.61,3.61,0,0,0-.09-.74c-.3-.13-.58-.26-.88-.37-.06,0-.16.06-.28.11a1.77,1.77,0,0,0-.07.52,4.51,4.51,0,0,1-.11,2.62c-.05.12,0,.27,0,.41,0,1-.08,2-.11,3.07,0,.88,0,1.77-.07,2.65s-.27,1.84-.35,2.77a11,11,0,0,0,.05,1.81,4.33,4.33,0,0,1-.21,1.79,6.54,6.54,0,0,0-.25,2.64,13.31,13.31,0,0,1,0,1.67c-.07.74-.31,1.47-.32,2.21,0,1.54-.1,3.07-.21,4.6-.06.88-.07,1.77-.11,2.66a8.08,8.08,0,0,1-.1,1.78,9.67,9.67,0,0,0-.29,2.78c0,.41-.09.82-.12,1.24-.05.7-.11,1.39-.13,2.09s0,1.21,0,1.81,0,1,0,1.54c0,1.35-.22,2.62-1.64,3.28a1.76,1.76,0,0,0-.63.55A11.07,11.07,0,0,0,12.3,290c-.16.52-.48,1-.68,1.51C11.24,292.43,10.9,293.39,10.41,294.72ZM22,69.9a4.4,4.4,0,0,1-.8-.07,24,24,0,0,0-5-.65,5.26,5.26,0,0,0-1.12,0c-.84.08-1.68.15-2.5.31s-1.62.4-2.43.61c-1.06.28-1.29.56-1.44,1.62a11,11,0,0,0,.19,3.08,3.19,3.19,0,0,0,.82.53,29.5,29.5,0,0,0,3.79.93,40.34,40.34,0,0,0,6.12.28,15.78,15.78,0,0,1,4.15.51,24.28,24.28,0,0,0,3,.56,15.18,15.18,0,0,1,3.41.76q2.56.91,5.06,2.05a5.6,5.6,0,0,0,3.81.42,13.27,13.27,0,0,0,2.28-.65,24.93,24.93,0,0,0,2.54-1.47,12,12,0,0,0,3.92-4.08c0-.41-.07-.79-.15-1.15a2.45,2.45,0,0,0-.38-.89,5.32,5.32,0,0,0-2.94-2c-.68-.15-1.34-.39-2-.57a23.65,23.65,0,0,0-4.59-.45,2.18,2.18,0,0,0-.81.22,6.16,6.16,0,0,1-2.76.31c-1.21-.14-2.43-.21-3.64-.3-.42,0-.84,0-1.26,0s-1.12.07-1.67,0c-1.59-.1-3.17-.24-4.76-.36a2.29,2.29,0,0,0-.39,0ZM6.94,202.1c0-.21,0-.32.06-.38.76-.94,1.49-1.92,2.32-2.8a7,7,0,0,1,2-1.57,19,19,0,0,1,9-1.66,29.21,29.21,0,0,1,5,.62,25.31,25.31,0,0,1,5.83,1.89,8,8,0,0,1,3.28,2.53,3.36,3.36,0,0,0,.54.47,1.34,1.34,0,0,0-.09-1.42,12.82,12.82,0,0,0-3.21-3.11,17.71,17.71,0,0,0-7.27-2.33,29.29,29.29,0,0,0-6.14-.25,35.77,35.77,0,0,0-4.27.66,3,3,0,0,0-.77.35,18.62,18.62,0,0,0-4.88,3.7,7.78,7.78,0,0,0-2.09,3.1,14.8,14.8,0,0,0-.51,4L6,206c0-.31.08-.61.12-.87.56-.6,1.08-1.2,1.65-1.75a13.67,13.67,0,0,1,4.74-3.17A15.52,15.52,0,0,1,15,199.5c.54-.11,1.11-.11,1.66-.18a18.5,18.5,0,0,1,4.46-.21c.37,0,.75,0,1.12,0a22.31,22.31,0,0,1,3.85.28,12.49,12.49,0,0,1,5.13,2.08A6.82,6.82,0,0,1,33,203.11c.08.14.28.21.46.34a4.71,4.71,0,0,0,.59-.42,1.34,1.34,0,0,0,.2-.4,2.21,2.21,0,0,0-.38-.56,15.24,15.24,0,0,0-3.07-2.39,22.34,22.34,0,0,0-7.14-2.33,7.89,7.89,0,0,0-2.9-.23,1.2,1.2,0,0,1-.42,0,14.63,14.63,0,0,0-5.27.34A11.85,11.85,0,0,0,9,200.56c-.52.53-1.09,1-1.65,1.5C7.26,202.1,7.14,202.08,6.94,202.1ZM30.51,208a7.38,7.38,0,0,1-.84-.57,5.44,5.44,0,0,0-2.55-1.06c-1-.23-2-.39-3-.64a22.36,22.36,0,0,0-5.41-.51s-.08,0-.19.12a40.64,40.64,0,0,1,0,4.94,31.58,31.58,0,0,1-1.18,4.86c.16.11.27.24.38.25a13.2,13.2,0,0,0,3.76.21l5.2-.81c.19-.1.59-.36,1-.55a3.63,3.63,0,0,0,1.73-1.77A9.62,9.62,0,0,0,30.51,208Zm2.57-19.94a2.3,2.3,0,0,0-.58-.26,6.24,6.24,0,0,1-1,0,32.29,32.29,0,0,1-4.88-1.68,30.21,30.21,0,0,0-7.57-2.35,2,2,0,0,0-.83,0,9.66,9.66,0,0,1-2.79,0,3.74,3.74,0,0,0-1.11,0c-.94.26-1.87.57-2.78.9a8.4,8.4,0,0,0-1.77.82,10.92,10.92,0,0,1-1.92,1.14c-.42.18-.45.28-.73.85a19.61,19.61,0,0,1,4.33-.11,2.53,2.53,0,0,0,.55,0,9,9,0,0,1,4,.32,3.1,3.1,0,0,0,.69.08,15.2,15.2,0,0,1,3.27.67,15.22,15.22,0,0,0,2.3.59,3.82,3.82,0,0,0,1.58.07,10.13,10.13,0,0,1-.6-1.18,1,1,0,0,1,.39-1.24,2.06,2.06,0,0,1,1.71-.44,1.39,1.39,0,0,1,1.07,1.81c-.05.17-.18.33-.23.5a2.57,2.57,0,0,0-.05.5c1-.18,1.9-.36,2.82-.51a3.68,3.68,0,0,1,1.92,0,3.72,3.72,0,0,0,1.25.11A.92.92,0,0,0,33.08,188.08ZM6.48,198.92c.09,0,.21,0,.25-.1a18.79,18.79,0,0,1,3-3.12c.52-.52,1.24-.84,1.8-1.32A5.65,5.65,0,0,1,14,193.16a15.43,15.43,0,0,1,5.24-.59c1.82.16,3.64.24,5.46.38a4,4,0,0,1,.81.19c1.17.32,2.32.73,3.51,1a8.08,8.08,0,0,1,3.21,1.31,6.22,6.22,0,0,1,2.5,2.38c.1.23.2.25.72.48a3.14,3.14,0,0,0-1.27-2.1,26.7,26.7,0,0,0-4.65-3.1,9.52,9.52,0,0,0-4.15-1.17c-2,0-3.86-.67-5.82-.79A2,2,0,0,1,19,191a3.68,3.68,0,0,0-2.2-.15c-.46.09-.94.06-1.4.13a12.09,12.09,0,0,0-4.9,1.52c-1,.64-1.94,1.3-2.87,2a2.22,2.22,0,0,0-1,1.78,10.55,10.55,0,0,1-.19,1.1q-.09.69-.15,1.38C6.35,198.78,6.44,198.85,6.48,198.92Zm6.26-17.85v.15a2.88,2.88,0,0,0,.91.08,9.59,9.59,0,0,1,2.93,0,13,13,0,0,0,2.23.14,6.5,6.5,0,0,1,2.61.34c1.56.45,3.1,1,4.64,1.55,1.05.37,2.08.84,3.16,1.11s2,.57,3,.84a4.18,4.18,0,0,0,4.3-.93,1.33,1.33,0,0,0-.38-2.35,4.87,4.87,0,0,0-1.76-.41,19.71,19.71,0,0,1-2.78-.31,13,13,0,0,0-2.06-.34l-2.93-.25a9.82,9.82,0,0,1-2.62-.42,2.48,2.48,0,0,0-1.24-.09,11.74,11.74,0,0,1-2.65,0,11,11,0,0,0-1.81,0C16.41,180.48,14.57,180.78,12.74,181.07ZM22.62,67.28c.33.21.5.41.69.43a17.68,17.68,0,0,0,3.07.21,20.11,20.11,0,0,1,2.8,0,4.81,4.81,0,0,0,1.25.06,12,12,0,0,1,3.22,0,4,4,0,0,0,1.78-.28,9.92,9.92,0,0,0,3.74-2.08,3.9,3.9,0,0,0,.34-.49,24.14,24.14,0,0,0-6.67-.12,46.42,46.42,0,0,0-7.27,1.49c-.71.2-1.47.27-2.2.42A4.52,4.52,0,0,0,22.62,67.28Zm9-4.19c.1-2.39.63-4.73.36-7.12a6,6,0,0,1,0-1.12,8.4,8.4,0,0,0,.05-1.12,16.11,16.11,0,0,1,0-3.33,11.92,11.92,0,0,0-.13-4,4.51,4.51,0,0,1-.06-.83c-.06-.79-.13-1.59-.2-2.38a2.44,2.44,0,0,0-.51,1.16,41.3,41.3,0,0,0-.53,5,9.57,9.57,0,0,1-.06,1.93c-.18,1.25-.18,2.51-.28,3.76-.16,2.18-.48,4.35-.54,6.53A11.11,11.11,0,0,1,29.55,63a4,4,0,0,0,0,.68A3.36,3.36,0,0,0,31.66,63.09Zm-15.1,48A19.56,19.56,0,0,0,20.83,110c1.8-.65,3.51-1.51,5.34-2.08a25.38,25.38,0,0,1,5.93-.88c1.21-.07,2.42,0,3.63,0,.19,0,.38-.16.56-.24-.09-.53-.44-.55-.76-.57-1.67-.14-3.35-.25-5-.42a16.91,16.91,0,0,0-3.76.17A17.48,17.48,0,0,0,20,108.64a26.39,26.39,0,0,1-3.09,1.9C16.84,110.58,16.8,110.75,16.56,111.11Zm-3.74,32.94c-1.11-.07-2.22-.11-3.33-.22a7.62,7.62,0,0,0-3,.37,4.16,4.16,0,0,0-2.4,1.68,1.06,1.06,0,0,0,.73,1,6,6,0,0,0,3.13.53,29.16,29.16,0,0,0,5.26-.62,1.85,1.85,0,0,1,.41-.07c1.2-.13,2.41-.24,3.61-.4a1,1,0,0,0,.87-.37,4.71,4.71,0,0,1-1.51-2.38c-.61.3-1.26,0-1.8.4,0,.47-.06.93-.13,1.39,0,.11-.15.21-.25.34l-1.09-.09A1.7,1.7,0,0,1,12.82,144.05Zm3.19,71c.21-.49.38-.77.47-1.08a11.38,11.38,0,0,0,.48-1.89c.24-1.9.37-3.81.46-5.72a2.5,2.5,0,0,0-.25-1.06c-.05-.14-.35-.17-.62-.28a38.1,38.1,0,0,0-1.36,9.5ZM14.24,214a3.2,3.2,0,0,0,0-.74,5.28,5.28,0,0,1-.06-1.94c.06-.79.14-1.58.18-2.37a7.08,7.08,0,0,1,.67-3,1.93,1.93,0,0,0,.11-.52c-.55-.26-.78-.23-.94.1s-.44.93-.61,1.41a15.82,15.82,0,0,0-1.2,4.13,5.78,5.78,0,0,0,.16,2.1Zm10.37,26.91a4.55,4.55,0,0,0,.37-2.09,3.88,3.88,0,0,1,1-2.53c.06-.05,0-.17.08-.33a8,8,0,0,0-.82-.11,1.68,1.68,0,0,0-1.82,1.2,7.75,7.75,0,0,0-.48,2.74,1.34,1.34,0,0,0,.49,1.19Zm-10.86-109a2.4,2.4,0,0,1-.23.69,1.15,1.15,0,0,1-.46.3c-.71.35-1.42.68-2.13,1a.53.53,0,0,0-.25.82c1-.54,1.9-1.09,2.85-1.55s1.93-.85,3-1.3l-.41-.49c-.4.19-.77.37-1.15.53a1.22,1.22,0,0,1-.53.07c-.1,0-.18-.17-.32-.32l.83-1c-1.46.25-2.75-.31-3.95.26-.38,1.19-.38,1.2-.11,2C11.73,132.58,12.46,131.85,13.75,131.91Zm16,104.34-2.05-.47a2.62,2.62,0,0,1-.06.63,2.21,2.21,0,0,1-.3.45,4.61,4.61,0,0,0-.54,3.76,2.69,2.69,0,0,0,2-.81A3.76,3.76,0,0,1,29.77,236.25Zm-16.08,2a3.9,3.9,0,0,1,.66-3.26,1.3,1.3,0,0,0,.33-1.19c-.21-.06-.43-.13-.64-.17s-.45-.06-.66-.09a5.56,5.56,0,0,0-1.41,3,2.1,2.1,0,0,0,.11,1.76Zm-6.07-28L9,211c.52-1.45,1-2.8,1.48-4.16,0-.06-.08-.15-.15-.28-.26.06-.53.1-.8.18a3.7,3.7,0,0,0-.48.21C8.63,208,7.53,208.8,7.62,210.26Zm2.68-73.19c1.46-.85,2.75-1.67,4.09-2.38s2.83-1.37,4.39-2.12l-.38-.45c-2.16,1-4.21,2-6.25,3a14.56,14.56,0,0,0-1.35.74A1,1,0,0,0,10.3,137.07ZM5.57,237.43c.15-.85.24-1.59.43-2.3s.51-1.47.81-2.34a4.75,4.75,0,0,0-2.73,3.53A3.26,3.26,0,0,0,5.57,237.43Zm15.27-.85a3.85,3.85,0,0,0-.52,3.31,1.91,1.91,0,0,0,1.22.44c0-.51,0-1,.05-1.52s.12-1,.14-1.51.47-.84.39-1.46Zm-10.27,1.83c0-1.09,0-2,.07-2.93s.86-1.59,1.25-2.47a1.44,1.44,0,0,0-.36,0,3.78,3.78,0,0,0-1.43,1.84,6,6,0,0,0-.74,3.35c0,.12.14.23.24.4Zm2.29-32.8a12.72,12.72,0,0,0-2.68,5.89,1.18,1.18,0,0,0,1.16.65c.05-.6.07-1.16.14-1.7a15.36,15.36,0,0,1,.28-1.65c.13-.54.34-1.06.48-1.59S12.82,206.28,12.86,205.61ZM29.4,191.13c.06.09.09.19.15.22a25.18,25.18,0,0,1,3.74,2.15c.11.09.34,0,.53,0a2.63,2.63,0,0,0-1.09-1.6A5.11,5.11,0,0,0,29.4,191.13ZM19.15,235.78c-.25,0-.44-.13-.57-.07a1.57,1.57,0,0,0-1,1.37c0,.46,0,.93,0,1.39,0,.08.09.16.17.28l.65.05A9.51,9.51,0,0,0,19.15,235.78Zm-7.69-45.57-.05-.24a1.93,1.93,0,0,0-.53,0,4.75,4.75,0,0,0-3.52,2.48c0,.08,0,.22.1.43.69-.55,1.27-1.09,1.93-1.52S10.77,190.58,11.46,190.21Zm3.84,48.11.4,0A6.6,6.6,0,0,1,16.81,235l-.74-.35A5.17,5.17,0,0,0,15,237.82C15,238,15.19,238.15,15.3,238.32ZM5.54,181.17c.22.14.37.3.53.31,1,0,2.1.05,3.15.06a.81.81,0,0,0,.25-.08,6.18,6.18,0,0,1-2.79-1.07A1.41,1.41,0,0,0,5.54,181.17ZM7,208.57a2.71,2.71,0,0,0-1.2,1c0,.06,0,.17,0,.34l.76.06A2.13,2.13,0,0,0,7,208.57ZM3.16,236.06l.3-1.86-1,.9C2.68,235.38,2.83,235.58,3.16,236.06Zm8.67-54.64c-.18-.27-.34-.28-.58,0Zm2.67,38.91-.12,0a.53.53,0,0,0,.11.15s.07,0,.11,0S14.53,220.39,14.5,220.33ZM25,189.11v.08l.31,0v-.08ZM13.67,82.42l-.06.09.09,0Z"/><path class="cls-1" d="M9.85,158.35c.23,0,.35,0,.4,0a5.69,5.69,0,0,1,1,1.1,16.71,16.71,0,0,1,2.7,8c0,.6,0,1.2.11,1.8a4.06,4.06,0,0,1-.23,1.92,4.29,4.29,0,0,0-.17,1,13.24,13.24,0,0,1-1.82,4.65c-.1.16-.23.3-.27.36-.48-.09-.52-.29-.44-.54.38-1.15.81-2.28,1.13-3.44a10.16,10.16,0,0,0,.49-3.42c-.06-.79,0-1.59,0-2.38a11,11,0,0,0-.89-4.06A29.06,29.06,0,0,0,10.36,160a7.4,7.4,0,0,1-.5-1.15A1.85,1.85,0,0,1,9.85,158.35Z"/><path class="cls-1" d="M26.11,171.73l.28-.94a1.62,1.62,0,0,1,.36-.12l3.63.17a4.1,4.1,0,0,0,.7,0c2-.32,3.9.14,5.86.24a4.39,4.39,0,0,1,1.68.56c-.08.49-.44.54-.75.57-.92.07-1.86,0-2.78.14a34.19,34.19,0,0,1-4.05,0,19.67,19.67,0,0,1-3.07,0,4.55,4.55,0,0,1-.82-.15A11.13,11.13,0,0,1,26.11,171.73Z"/><path class="cls-1" d="M39,166.57a1.88,1.88,0,0,1-1.36.06,23.2,23.2,0,0,0-2.36-.18c-2.23-.15-4.46-.36-6.7-.52a4.17,4.17,0,0,1-1.73-.5,3.67,3.67,0,0,1-.65-.58l.29-.58a2.28,2.28,0,0,1,.34-.05c.51.09,1,.21,1.51.27,1.89.2,3.78.47,5.68.53,1.45,0,2.83.41,4.26.56a1.17,1.17,0,0,1,.52.16A.53.53,0,0,1,39,166.57Z"/><path class="cls-1" d="M25.86,159.46a4.32,4.32,0,0,1,.92-.15l10.86.85a3.62,3.62,0,0,1,1.52.52c0,.32-.13.4-.33.39a3.33,3.33,0,0,1-1.1-.08,4.58,4.58,0,0,0-2.2-.11c-1.3.1-2.58-.07-3.87-.09a34,34,0,0,1-3.88-.4,6.24,6.24,0,0,1-1.33-.36C26.3,160,26.19,159.79,25.86,159.46Z"/><path class="cls-1" d="M28.8,167.41l.54.55a6.92,6.92,0,0,0,1.91.31,22.41,22.41,0,0,1,3.07.07c.6,0,1.2-.06,1.8,0,.92.05,1.84.15,2.72.23.13.51-.19.61-.44.63a23.58,23.58,0,0,1-2.36.16c-1.3,0-2.61-.1-3.9,0a12.41,12.41,0,0,1-3.17-.3,1.45,1.45,0,0,1-1.06-.59C27.93,167.55,27.93,167.55,28.8,167.41Z"/><path class="cls-1" d="M41.58,112l.26.3c-.3,1.37.25,2.66.31,4,0,.6.1,1.2.06,1.8-.07,1.3-.15,2.6-.31,3.89a12.54,12.54,0,0,1-1,4.16c-.36.74-.59,1.56-.88,2.34l-.3.26L39,128.5c.22-1.11.44-2.15.63-3.2s.35-2.1.52-3.16c-.39-.07-.44.21-.48.39a7.27,7.27,0,0,0-.18,1.24,14.07,14.07,0,0,1-2.09,6,2.25,2.25,0,0,1-.64.73,1,1,0,0,1-.78.14c-.22-.06-.36-.35-.61-.6,1.51-1.07,1.86-2.65,2.29-4.23a20.92,20.92,0,0,0,.55-4,11,11,0,0,0,0-1.4,5.84,5.84,0,0,1,0-.83,38.25,38.25,0,0,0-.28-6.42c0-.65-.12-1.3-.14-2,0-.17.11-.33.22-.61.24.16.49.23.58.39a5,5,0,0,1,.44,1.17,29.07,29.07,0,0,1,.74,6.1c0,.88.09,1.77.06,2.66,0,.11.1.22.22.47a2.21,2.21,0,0,0,.27-.54,23.73,23.73,0,0,0,.13-3.77,27.76,27.76,0,0,1,.28-4.46,4.82,4.82,0,0,1,.22-.75Z"/><path class="cls-1" d="M32.55,130.08c.57-.82,1-1.45,1.45-2.11a6,6,0,0,0,.87-2.63c.1-1,.2-2,.23-2.93a22.73,22.73,0,0,0-.08-3.2,20.87,20.87,0,0,1,0-2.37c0-1.21,0-2.42-.11-3.63,0-.88-.14-1.76-.2-2.64,0-.4,0-.52.32-1.14.29-.05.42.15.53.36a9.9,9.9,0,0,1,.85,3.37c.1.78.08,1.58.15,2.37.1,1.11,0,2.24.07,3.34a31.22,31.22,0,0,1-.16,4.74,10.51,10.51,0,0,1-1.94,5.44C34.14,129.54,33.74,129.77,32.55,130.08Z"/><path class="cls-1" d="M20.31,114.78a9.68,9.68,0,0,1-3.69.85c-1.1.14-2.21.17-3.32.24l-2.78.15a2.83,2.83,0,0,1-.41,0c-.82-.17-1.65-.31-2.46-.52-.22,0-.4-.3-.59-.46a.82.82,0,0,1,1-.55,8.41,8.41,0,0,0,1.35.3,51.47,51.47,0,0,0,6.8-.14,9.82,9.82,0,0,1,3.2-.12C19.66,114.54,19.86,114.63,20.31,114.78Z"/><path class="cls-1" d="M20.79,126.79a5.41,5.41,0,0,1-3.5-.43.66.66,0,0,1,.26-1.27,1.77,1.77,0,0,1,.69.07,14.65,14.65,0,0,1,1.78.76C20.27,126.05,20.42,126.36,20.79,126.79Z"/><path class="cls-1" d="M10.1,220.78a4.15,4.15,0,0,0,.78.56c1.77.71,3.56,1.39,5.33,2.1.51.21,1,.49,1.61.8a33.08,33.08,0,0,1,7.81-2c.64-.09,1.29-.2,1.94-.25a5.51,5.51,0,0,1,1,.1c.17.37,0,.57-.2.64-.75.25-1.51.48-2.27.67-1,.24-2,.47-3,.66s-2.18.43-3.25.72c-.58.16-1.15.36-1.87.59l-.79-.23a28.3,28.3,0,0,1-3.21-.95c-1.29-.55-2.66-.83-3.94-1.4-.76-.34-1.53-.68-2.31-1a1.81,1.81,0,0,1-1.18-1.5c.18-.46.47-.59.82-.47a2.91,2.91,0,0,1,1,.46,2.72,2.72,0,0,0,1.71.52Z"/><path class="cls-1" d="M26.4,227.37a2.5,2.5,0,0,1-1.3.65c-2.79.57-5.58,1.12-8.37,1.67a1.93,1.93,0,0,1-.38,0l-.44-.66c-1.86-.53-3.68-1.1-5.52-1.57a26.77,26.77,0,0,1-3.59-1.15,5,5,0,0,1-1-.5c-.4-.27-.43-.46-.38-1.22a1.41,1.41,0,0,1,1.34,0c.93.31,1.85.65,2.78,1,1.32.46,2.64.91,3.95,1.39,1.06.38,2.09.81,3.28,1.27a6.1,6.1,0,0,0,.93-.2,15.33,15.33,0,0,1,3.68-.69A12.85,12.85,0,0,1,24,227c.6.08,1.21.08,1.81.14A2.15,2.15,0,0,1,26.4,227.37Z"/><path class="cls-1" d="M34.51,221.89a1.83,1.83,0,0,0,.44,1c.32.52.59,1.06.86,1.59a1.22,1.22,0,0,1,0,.38.4.4,0,0,1-.63,0c-.46-.47-.9-.94-1.35-1.41l-1.06-1.1-.51-.61-.26-.3-.26-.3-.08,0,.08.06.25.3.26.3a.57.57,0,0,0,.52.6c.07.8.72,1.28,1,1.95s.74,1.4,1.08,2.11c.06.11-.06.31-.1.47-.17,0-.3,0-.35-.07a21.14,21.14,0,0,1-2.67-3.22c-.27-.43-.62-.81-.93-1.22-.44-.58-.88-1.17-1.37-1.84.07,0,0,0,0,0a64,64,0,0,1-6.57,1.28l-1.64.33a2,2,0,0,1-1.47-.13c-.09-.48.25-.61.55-.7a18.24,18.24,0,0,1,2.29-.57,9.49,9.49,0,0,1,3-.4.41.41,0,0,0,.27,0,5.89,5.89,0,0,1,3-.27.93.93,0,0,0,.41,0,1.63,1.63,0,0,1,1.75.39c.21-.63.34-1.23,1.07-1.21h0l.25.29h0l.25.3h0l.26.3h0l.25.3v0l.24.28,0,0,.24.28,0,0,.25.29h0l.26.29h0l.25.31Z"/><path class="cls-1" d="M17.43,226.77a2.36,2.36,0,0,1-1.83,0L10.15,225c-.88-.29-1.76-.59-2.63-.91a6.17,6.17,0,0,1-1.12-.56c-.49-.33-.45-.67.17-1.29,1.81.56,3.7,1.05,5.51,1.78a36.09,36.09,0,0,1,5.17,2.38C17.32,226.42,17.33,226.55,17.43,226.77Z"/><path class="cls-1" d="M17.88,226.8a1.26,1.26,0,0,1,1-.83c1.4-.34,2.79-.73,4.21-1s2.66-.38,4-.53a3.74,3.74,0,0,1,.93.14c-.16.28-.23.52-.38.63a2.07,2.07,0,0,1-.76.33c-2.41.52-4.82,1-7.24,1.51a5.32,5.32,0,0,1-1.38,0C18.16,227,18.05,226.91,17.88,226.8Z"/><path class="cls-1" d="M17.11,231.39a2,2,0,0,1-.07-.82.72.72,0,0,1,.52-.4c1.75-.24,3.47-.77,5.27-.5a9.38,9.38,0,0,0,1.39-.07,3.86,3.86,0,0,1,1,.08c.28.08.46.31.3.76a2.69,2.69,0,0,1-.68.24C22.27,230.94,19.77,231.6,17.11,231.39Z"/><path class="cls-1" d="M34,229.21c-.72.1-.95-.4-1.22-.72-1.17-1.39-2.29-2.8-3.43-4.21a1.26,1.26,0,0,1-.08-1.61,2.52,2.52,0,0,1,.73.27,9.35,9.35,0,0,1,2.5,2.95c.52.93,1,1.89,1.47,2.84A1.64,1.64,0,0,1,34,229.21Z"/><path class="cls-1" d="M20,219.23a14,14,0,0,1,5.25-1.16,4.86,4.86,0,0,1,2.85.07c.05.28-.13.37-.31.4-1.05.16-2.05.54-3.12.66s-2.1.43-3.14.63a3.53,3.53,0,0,1-1,.07A.6.6,0,0,1,20,219.23Z"/><path class="cls-1" d="M31.16,218c-.2-.31-.42-.61-.59-.94a.68.68,0,0,1,.07-.88c.1,0,.23,0,.27,0a28.93,28.93,0,0,1,4.18,5.22l-.58.54h0l-.25-.31h0l-.26-.29h0l-.25-.29,0,0-.24-.28,0,0-.24-.28v0l-.25-.3h0l-.26-.3h0l-.25-.3h0l-.25-.29h0l-1-1.2Z"/><path class="cls-1" d="M31.17,218l-.31,1.29c-.81.14-1-.44-1.36-.87l.47-.76,1.19.34Z"/><path class="cls-1" d="M16,287.5a3,3,0,0,1,2.47,2c.39.94.91,1.83,1.34,2.76a14.4,14.4,0,0,1,.58,1.41c.37,1,.7,2,1.06,3.05a12,12,0,0,1,.78,5.06c-.05.59-.2,1.18-.32,1.89a4.09,4.09,0,0,1-2,1.05A9,9,0,0,1,17,305a11.68,11.68,0,0,0-1.67,0,6.24,6.24,0,0,1-4.28-.94,2.59,2.59,0,0,1-1.22-2.35,17.88,17.88,0,0,1,1.61-6.61c.71-1.48,1.62-2.83,2.38-4.27.3-.58.62-1.16.88-1.76A3.75,3.75,0,0,1,16,287.5Zm3.63,14.88a7.64,7.64,0,0,0,.38-1.82,6.64,6.64,0,0,0-.43-2c-.52-1.6-1.08-3.18-1.66-4.76a5.2,5.2,0,0,0-.79-1.62,3.51,3.51,0,0,1-.8-1.6,2,2,0,0,0-.36-.89c-.21.5-.4.87-.54,1.27A17.5,17.5,0,0,1,14.05,294a14,14,0,0,0-.85,1.74,24.2,24.2,0,0,0-1.32,4.13c-.36,1.86.14,2.64,1.33,3,1.66,0,3.19-.05,4.73,0A2.22,2.22,0,0,0,19.61,302.38Z"/><path class="cls-1" d="M25,72.68a1.38,1.38,0,0,1-.09-1.17l.49-.33c0-.18,0-.35-.09-.6a7.19,7.19,0,0,1,2.22,0c1,.22,2,.19,3.06.33s2.2.39,3.29.63c.23,0,.41.3.77.57-1.44.36-2.67-.13-4.07,0,1.18.45,2.43.39,3.26,1.42-1,.71-2,0-3.07.3a5.21,5.21,0,0,1,2.89,1.45c-.11.11-.17.23-.23.23a8.9,8.9,0,0,1-3-.3A5.46,5.46,0,0,0,29,75a19.71,19.71,0,0,1-4.32-.87c-.19.08-.44.19-.7.28a4.5,4.5,0,0,1-2.06.3q-2.66-.24-5.31-.42c-.84,0-1.68,0-2.51-.08a21,21,0,0,1-2.48-.41c-.24-.05-.44-.29-.62-.42a.54.54,0,0,1,.57-.58,6.2,6.2,0,0,0,1.53-.15l-2.19-.28C10.49,72,9.87,71.76,9.8,71a4.52,4.52,0,0,1,2.06-.7A18.31,18.31,0,0,1,16,70c2-.32,4,.13,6,.21a3,3,0,0,1,1.81.61c0,.39-.2.53-.49.57s-.73,0-1.18.06l.36.8a3.34,3.34,0,0,1-1.82.39c-.61,0-1.22-.09-1.82-.14a8.55,8.55,0,0,0-2.37,0,4.21,4.21,0,0,1-1.12,0c-.46,0-.92,0-1.59-.07.24.22.33.35.41.35a29.48,29.48,0,0,1,3.75.31,51.11,51.11,0,0,0,5.53.62l.08.06-.08-.06c.26-.92.29-1,1.49-1l.46.29.07-.17Zm4.1.74.09.07,0-.09Z"/><path class="cls-1" d="M38.88,74.53a6.41,6.41,0,0,0-2.46-.26A1.88,1.88,0,0,1,35.37,74c-.24-.15-.36-.49-.55-.77.4-.48.86-.83.83-1.5,1-.15,2-.34,3-.42a25.83,25.83,0,0,1,3-.1,14.44,14.44,0,0,1,3,.3c0,.22,0,.38.05.64l-2.48.36a3.05,3.05,0,0,0,1.35.23c.51.06,1,.08,1.53.13s.91.12,1.37.18c-.13.7-.3.92-.84,1-1,.06-2,.07-2.93.1H42a1.48,1.48,0,0,0,1.11.38,20.75,20.75,0,0,1,2.09.12.58.58,0,0,1,.61.68,4.8,4.8,0,0,1-2.09.5,19.46,19.46,0,0,0-2.5.21c-1.85.12-3.71.21-5.57.32a1.34,1.34,0,0,1-1.33-.59.67.67,0,0,1,.45-1.07,5.25,5.25,0,0,1,.69,0Zm2.25-.08a1.94,1.94,0,0,0-1.61-.12Zm-1-1.77,0-.13-.73,0v.12Zm-3-.06-.1,0,.09,0Z"/><path class="cls-1" d="M34,78.32l-.61-.94c-.24,0-.47-.1-.7-.13a22.65,22.65,0,0,1-4-.49c-1.19.22-2.28-.43-3.45-.41a1.12,1.12,0,0,1-1.22-1c.22-.12.45-.36.66-.35a33.75,33.75,0,0,1,3.49.3c1.24.19,2.46.51,3.69.77a2.7,2.7,0,0,1,.41,0c1.4.68,2.92.48,4.39.61.37,0,.74,0,1.11,0,.56,0,1.12-.08,1.68,0,1.12.07,2.24.17,3.35.27a1.2,1.2,0,0,1,1.05.41.61.61,0,0,1-.62.72,23.67,23.67,0,0,1-4,.31c-.06,0-.14.06-.33.16l2.35.3c-.11.2-.14.37-.23.42a10.44,10.44,0,0,1-3.41.62,2.35,2.35,0,0,1-.84-.2c-.12-.38,0-.58.23-.67s.7-.23,1.24-.4C36.73,78.32,35.41,78.9,34,78.32Z"/><path class="cls-1" d="M31.8,152.21c-.33.44-.64.65-1,.62a1.6,1.6,0,0,1-.79-.21,2.38,2.38,0,0,1-.44-.66c.05-.54.42-1,.31-1.51a1.57,1.57,0,0,1,.25-.91.89.89,0,0,1,1-.57,1.13,1.13,0,0,1,.92.93,5.16,5.16,0,0,1-.09,1.1c0,.22-.12.44-.15.67A5,5,0,0,0,31.8,152.21Z"/><path class="cls-1" d="M23.24,149.86c.56-1,1-1.32,1.79-1.08a1.27,1.27,0,0,1-.19,2.44C24,151.33,23.63,151,23.24,149.86Z"/><path class="cls-1" d="M18.11,148.47c.38,0,.75.05,1.12.1a1.16,1.16,0,0,1,.92.72c0,.28-.1.63-.16,1.06l-1.3.41a1.84,1.84,0,0,1-1.2-1.4l.62-.89Z"/><path class="cls-1" d="M36.31,149.65c.94.94.95,1,.27,2.12l-.93.26a1.19,1.19,0,0,1-1-1.06A1.66,1.66,0,0,1,36.31,149.65Z"/><path class="cls-1" d="M19.27,151.75a1.28,1.28,0,0,1,1.08-.82,1.66,1.66,0,0,1,1.13.5.89.89,0,0,1,.17,1,1.19,1.19,0,0,1-1.13.69,1,1,0,0,1-1-.61C19.41,152.29,19.35,152,19.27,151.75Z"/><path class="cls-1" d="M38.09,151.19c.79-.52.79-.52,1.86-.3a1.56,1.56,0,0,1,.2,1.85,1.29,1.29,0,0,1-1.49,0A1.55,1.55,0,0,1,38.09,151.19Z"/><path class="cls-1" d="M25.43,152.74c.27-.48.55-.74.94-.73a1.32,1.32,0,0,1,.74.25.71.71,0,0,1,.13.89,1.54,1.54,0,0,1-.43.52.67.67,0,0,1-1.06-.17A4.82,4.82,0,0,1,25.43,152.74Z"/><path class="cls-1" d="M10.43,152.23l-1,.56-.88-.7c.2-.6.36-1.2,1.07-1.11S10.34,151.64,10.43,152.23Z"/><path class="cls-1" d="M38.1,153.2a5.42,5.42,0,0,1-.64.88.51.51,0,0,1-.7-.2.45.45,0,0,1,.26-.66A6.58,6.58,0,0,1,38.1,153.2Z"/><path class="cls-1" d="M28,153.53l.16.13s-.08.07-.1.06-.11-.09-.17-.13Z"/><path class="cls-1" d="M36.83,87.6c-.16,0-.21,0-.25,0s-.32-.16-.55-.29l-.64,1c-.53.13-.81-.15-.82-.56,0-1.39,0-2.78,0-4.18a1.23,1.23,0,0,1,.14-.29c.63-.45,1,.06,1.4.53l.9-.48a.67.67,0,0,1,.57.73A7.22,7.22,0,0,1,36.83,87.6Z"/><path class="cls-1" d="M28.28,89.82a8.35,8.35,0,0,1,.23-3.2,7.81,7.81,0,0,0,.13-1.35c.13-1.37.09-2.74.23-4.17.26,0,.5-.15.68-.09a.8.8,0,0,1,.45.47,5.8,5.8,0,0,1,.31,1.63,13.66,13.66,0,0,1-.74,5.07C29.23,89,29.24,89,28.28,89.82Z"/><path class="cls-1" d="M20.1,79.19a20.7,20.7,0,0,1-.64,6.75c-.14-.16-.31-.27-.35-.41a6.64,6.64,0,0,1-.3-2.34c.06-.75.16-1.49.16-2.24a3.22,3.22,0,0,1,.77-1.73S19.91,79.2,20.1,79.19Z"/><path class="cls-1" d="M28.8,210.39c-.18.09-.34.25-.5.24a32.1,32.1,0,0,1-4.6,0c-.55-.09-1.09-.21-1.64-.31s-.92-.16-1.39-.2a2.34,2.34,0,0,1-1.41-.53c-.09-.08-.11-.23-.21-.45a2.8,2.8,0,0,1,.8-.21c2.33.17,4.66.34,7,.57a6.9,6.9,0,0,1,1.73.53C28.66,210,28.7,210.21,28.8,210.39Z"/><path class="cls-1" d="M27.69,212.09a6.56,6.56,0,0,1-2.54.33c-1-.06-2-.06-3,0a5.25,5.25,0,0,1-1.89-.36,1,1,0,0,1-.49-.46c-.08-.13,0-.34,0-.48a2,2,0,0,1,1.42-.14,16.05,16.05,0,0,0,2.5,0,6.86,6.86,0,0,1,3.67.63C27.41,211.64,27.49,211.83,27.69,212.09Z"/><path class="cls-1" d="M28.44,208.06l-.09.34c-.08,0-.16.13-.24.12-1.89-.18-3.78-.34-5.67-.57a15.52,15.52,0,0,1-2.29-.54c-.15,0-.26-.23-.47-.43.22-.13.37-.29.51-.28a26.32,26.32,0,0,1,5.66.63,5.17,5.17,0,0,0,1,.14A3.27,3.27,0,0,1,28.44,208.06Z"/><path class="cls-1" d="M23.72,213.4c-2.07.5-2.07.5-2.73-.06.23-.11.44-.3.62-.27A5.07,5.07,0,0,1,23.72,213.4Z"/><path class="cls-1" d="M13.24,185.55c.18-.4.37-.8.56-1.21a3,3,0,0,1,2.13.48c.09.31.2.71.29,1a1.08,1.08,0,0,1-.86.93A1.77,1.77,0,0,1,13.24,185.55Z"/><path class="cls-1" d="M18.87,184.6c1.17,1.06,1.19,1.12.72,2.36l-1.06.32a1.31,1.31,0,0,1-1.23-1.51C17.38,184.93,18.07,184.7,18.87,184.6Z"/><path class="cls-1" d="M22.57,187.14a1.51,1.51,0,0,1-1.6.37.66.66,0,0,1-.33-1.09,10.82,10.82,0,0,1,.88-.74C22.55,186.08,22.55,186.08,22.57,187.14Z"/><path class="cls-1" d="M32.47,183.93a.86.86,0,0,1,.09-1.16c.6-.12,1.19-.21,1.76-.36,1.16-.32,1.35-.22,1.77,1.09-.19.2-.4.44-.63.65a1.27,1.27,0,0,1-1.31.18c-.3-.1-.57-.29-.87-.37A4.36,4.36,0,0,0,32.47,183.93Z"/><path class="cls-1" d="M26.7,181.36c1.18,0,1.18,0,1.5,1.1a2.29,2.29,0,0,1-.62.45,1,1,0,0,1-1.26-.28C26,182.14,26.29,181.76,26.7,181.36Z"/><path class="cls-1" d="M31.34,183c-.15.61-.44.92-1,1a1.46,1.46,0,0,1-1.08-1,1,1,0,0,1,1-.8C30.79,182.12,31.1,182.46,31.34,183Z"/><path class="cls-1" d="M23.64,181.85l.41-.68c.49.06.7.25.54.64S24.26,182.15,23.64,181.85Z"/><path class="cls-1" d="M38.65,144.69,38,144l.79-.58C39.45,144.07,39.44,144.15,38.65,144.69Z"/><path class="cls-1" d="M11.43,144.74c.12.92-.12,1.48-1.09,1.63a2.67,2.67,0,0,1-.62-.43.94.94,0,0,1-.1-1.27,1,1,0,0,1,1.36-.31A2.46,2.46,0,0,1,11.43,144.74Z"/><path class="cls-1" d="M7.32,146.64c-.21-.17-.54-.33-.67-.59a1.65,1.65,0,0,1,0-.94c.07-.41.47-.61,1-.57s.85.3.86.74a2.25,2.25,0,0,1-.12.81C8.26,146.32,8.18,146.33,7.32,146.64Z"/><path class="cls-1" d="M66.22,62c-.42-.49-.83-1-1.26-1.48s-1.15-1.22-1.74-1.82c-.25-.26-.53-.52-.8-.77a4.76,4.76,0,0,1-1.3-1.8,2.82,2.82,0,0,1,.19-2.67,6.25,6.25,0,0,1,1.24-1.82c.2-.16.26-.49.41-.72.33-.51.68-1,1-1.5.15-.23.34-.44.47-.68.54-1.08,1.23-2.07,1.83-3.11a6.48,6.48,0,0,1,.5-.67l.92-1.23.92-1.23c.25-.34.5-.67.74-1a7.27,7.27,0,0,1,2-2.09,19.71,19.71,0,0,0,2-1.54,6.75,6.75,0,0,1,2.55.3c.7.24,1.45.34,2.15.59A8.37,8.37,0,0,1,80.55,40a6.6,6.6,0,0,0,1.33.65c.19-1.1.72-2,.42-3.09a3.48,3.48,0,0,1,0-1.11q.87-11.05,1.77-22.11a20.87,20.87,0,0,1,.35-2.62,15.25,15.25,0,0,0,.32-4.31,4,4,0,0,1,.07-.69c.17-1.63.35-3.25.53-4.88A7.8,7.8,0,0,1,85.47,1a1.13,1.13,0,0,1,1.12-1,2.54,2.54,0,0,1,.76,1.84c0,.74.12,1.49.18,2.23a5.9,5.9,0,0,1,.09,1.25,22,22,0,0,0,.14,3.35c0,.42,0,.84.09,1.25a2.39,2.39,0,0,0,.18.8,4.52,4.52,0,0,1,.4,2.32,41.87,41.87,0,0,0-.23,4.33c.12,2.86-.5,5.68-.39,8.53.09,2.53-.31,5-.43,7.55,0,.6,0,1.21,0,1.81,0,.1.07.21,0,.28-.48,1.13,0,2.31-.18,3.46a2.8,2.8,0,0,0,.14,1.76.76.76,0,0,0,.28.05,23.1,23.1,0,0,0,5.3-1.71A9.85,9.85,0,0,1,97.65,38a7,7,0,0,0,1-.08c.69.46,1.39.91,2.06,1.34.26.53.49,1,.7,1.45a3.17,3.17,0,0,1,.29,2,11.83,11.83,0,0,0-.2,2.22,5,5,0,0,1-.71,2.67,15.05,15.05,0,0,0-1.23,2.52A24.69,24.69,0,0,1,98,53.71a1.25,1.25,0,0,0-.13.4,28,28,0,0,0-.67,4.56A5.58,5.58,0,0,1,96.73,61a4.11,4.11,0,0,1-2.51,2.46,3.23,3.23,0,0,0-1.11.56,6.84,6.84,0,0,1-3.52,1.62c.07.09.1.15.12.15a17.13,17.13,0,0,0,5.11-.17c.9-.26,1.83-.34,2.71-.61a4.44,4.44,0,0,1,2.23,0,9,9,0,0,1,3,1.1,4.31,4.31,0,0,1,1.68,2,9.77,9.77,0,0,1,1.12,3.3,1.23,1.23,0,0,0,.24.65,8.24,8.24,0,0,1,.89,2.49,4.8,4.8,0,0,1,0,2.23,3.15,3.15,0,0,1-1.78,2,12,12,0,0,1-2.46,1,20.51,20.51,0,0,0-4.2,1.57A7.87,7.87,0,0,0,99,83.93c.16.44.32.87.5,1.3a4.26,4.26,0,0,1-.17,3.27,2.44,2.44,0,0,1-.82,1.11,19.38,19.38,0,0,1-4,2.44c-.2.08-.47.12-.5.5a4,4,0,0,0,1.88.13,8.22,8.22,0,0,1,4.9.83c.61.32,1.35.4,1.84,1a10.52,10.52,0,0,1,.85.92c.74,1.13,1.48,2.27,2.16,3.44a8.43,8.43,0,0,1,.82,1.93,2.93,2.93,0,0,1,0,1.38c-.24,1.09-.57,2.16-.86,3.23a14.57,14.57,0,0,0-2.35,3.13c-.43.6-.78,1.25-1.3,2.1a4.32,4.32,0,0,1-1.29,2.3c-.45.54-.88,1.09-1.37,1.59-.68.7-1.38,1.39-2.12,2a3.93,3.93,0,0,1-1.13.54c-.47.19-1,.34-1.55.54.39.39.75.71,1.07,1.08s.61.83,1,1.22a3.28,3.28,0,0,1,.69,1.35,10.43,10.43,0,0,1,.37,4.44,10,10,0,0,1-.38,1.62,18.67,18.67,0,0,0-.87,3.52,17.57,17.57,0,0,1-.51,2.6,12.72,12.72,0,0,0-.28,3.58,8.9,8.9,0,0,1-.09,1.26,2.07,2.07,0,0,1-1.82,1.87,11.12,11.12,0,0,1-2.65.17c-.59-.06-1.2.05-1.81,0s-1.18-.09-1.85-.14a4.48,4.48,0,0,0,1.5,1c2.87,1.3,4,1.95,5.69,4.87a6.43,6.43,0,0,1,.94,3,4.62,4.62,0,0,0,.23,1.22,1.62,1.62,0,0,1-.13,1.48c-.32.51-.63,1-.94,1.56-.08.12-.14.28-.25.33-1,.44-1.21,1.51-1.94,2.15a1.59,1.59,0,0,0-.33.44,2.92,2.92,0,0,1-1.11,1.35c-.6,1.32-1.19,2.63-1.79,4a2.06,2.06,0,0,0,.44.37,3.92,3.92,0,0,1,2,2.2c.26.59.58,1.16.9,1.8l.41,2.39a16,16,0,0,1-4.55,7.77c.18.41.67.28.91.55a7.51,7.51,0,0,0,.72.66c.29.24.59.47.89.7a3.35,3.35,0,0,1,1,1.3c.17.39.38.75.56,1.13a5.1,5.1,0,0,1,.51,2.31c0,.46,0,.93,0,1.39a7.77,7.77,0,0,1-.08,1c0,.41-.1.81-.17,1.41a4.73,4.73,0,0,0-.91,2.55,6.18,6.18,0,0,0-1,2,7.5,7.5,0,0,1-1.26,2.16,2.23,2.23,0,0,1-1,.65c-.78.29-1.59.5-2.68.84a20.23,20.23,0,0,0,2.29.32,3.77,3.77,0,0,1,1.34.33,8.74,8.74,0,0,1,2.66,1.5,3.82,3.82,0,0,1,.87.88,7.14,7.14,0,0,1,1.3,3.49,12.24,12.24,0,0,0,.45,2.75,6.15,6.15,0,0,0,.9,1.72,6.22,6.22,0,0,1,1.07,3.13,2.57,2.57,0,0,1-.81,2.41c-.59.51-1,1.19-1.64,1.7a5.17,5.17,0,0,1-1.55.92,4.26,4.26,0,0,0-2,1.39,2.57,2.57,0,0,1-.85.72,12.46,12.46,0,0,0-2.94,2.85c0,.53.37.69.7.88A26.58,26.58,0,0,1,90,221.3c1.07.83,1.7,1.87,1.1,3.29a.72.72,0,0,0-.09.27c-.07,1.94-1.06,3.65-1.37,5.53a1.92,1.92,0,0,1-.22.51c-.24.46-.5.9-.71,1.37s-.37.95-.55,1.45c-.56.6-1.13,1.21-1.72,1.82a1.69,1.69,0,0,1-.45.33,14.38,14.38,0,0,1-3.86,1.6,37,37,0,0,0-4.87,1.25A9,9,0,0,1,76,239a11.19,11.19,0,0,0-.32,1.57c0,.5.1,1,.08,1.52s-.24,1.1.07,1.62a7.28,7.28,0,0,1-.29.83,1.75,1.75,0,0,0-.05,1.62,1.69,1.69,0,0,1,0,1.49,1.62,1.62,0,0,0-.16.68,20.68,20.68,0,0,1,0,2.08,9.87,9.87,0,0,0-.27,1.92,18.44,18.44,0,0,1-.08,3.06c-.16,2.33-.31,4.67-.56,7a22.93,22.93,0,0,0-.09,4.46,11.06,11.06,0,0,1-.08,1.4,8.18,8.18,0,0,0,0,2.37,3.23,3.23,0,0,1,0,1,10.86,10.86,0,0,0,0,2.79,4.47,4.47,0,0,1,0,1.26,16.17,16.17,0,0,0,0,2.09,11.91,11.91,0,0,1-.34,1.92c-.1.73-.12,1.48-.2,2.22a8.15,8.15,0,0,1-.24,1.09,5.22,5.22,0,0,0-.13,2.63,23.92,23.92,0,0,1,.7,3.85,2.59,2.59,0,0,0,.82,1.73c.61.57,1,1.35,1.73,1.81a17.33,17.33,0,0,1,2,3.64,31.51,31.51,0,0,1,.88,6.08c.06.74,0,1.48,0,2.22s0,1.4,0,2.1a4,4,0,0,1-.27,1.91c-.33.82-.59,1.67-.88,2.5a2.66,2.66,0,0,1-1.93,1.85,6.41,6.41,0,0,1-2.61.36,4.43,4.43,0,0,0-2.31.47,6.25,6.25,0,0,1-1.76.35,24.42,24.42,0,0,1-3.92-.05,3.78,3.78,0,0,0-1.11.12,2.87,2.87,0,0,1-1.51-.06,10.8,10.8,0,0,1-3-1.24,1.82,1.82,0,0,1-.77-.76,8.53,8.53,0,0,1-.69-2.55c-.05-1.07-.17-2.14-.24-3.2,0-.38,0-.75,0-1.13.07-1.77.38-3.52.44-5.3a12.78,12.78,0,0,0,.21-2.48,1.13,1.13,0,0,1,.23-.79,2.57,2.57,0,0,0,.49-1.57,2.89,2.89,0,0,1,.64-1.82,2,2,0,0,0,.39-.72,2.09,2.09,0,0,1,1.18-1.48.65.65,0,0,0,.22-.18,5.69,5.69,0,0,1,2.33-2,1.08,1.08,0,0,0,.58-1.19,17.59,17.59,0,0,1,0-3.77c0-1.07-.1-2.14-.14-3.21a7.12,7.12,0,0,1,0-1.53,31.09,31.09,0,0,0,.25-3.33,48.6,48.6,0,0,1,.67-5.25,16.92,16.92,0,0,0,.19-2.66,3.67,3.67,0,0,1,.23-1.36,2.15,2.15,0,0,0,.22-.94,1.63,1.63,0,0,1,.42-1.17,5.71,5.71,0,0,1,.11-3.3,1.74,1.74,0,0,0,0-1,6,6,0,0,1,.07-2.63,5.2,5.2,0,0,0,.15-1.8,2.58,2.58,0,0,1,0-.83c.14-.65,0-1.32.11-1.93a14.06,14.06,0,0,0,.08-1.94c0-.69.19-1.38.3-2.07a3.29,3.29,0,0,0,.17-1,22,22,0,0,1,0-3c0-.88.1-1.77.17-2.66.09-1.21.18-2.41.27-3.53a2,2,0,0,0-1.3-.74,8.39,8.39,0,0,1-3.4-1.57,18.62,18.62,0,0,0-2.53-1.48,1.65,1.65,0,0,0-.79-.26,7.49,7.49,0,0,1-3-.78,4.23,4.23,0,0,1-2.12-.19,15.55,15.55,0,0,0-2.2-.4,27.86,27.86,0,0,1-5.5-1.58,3.31,3.31,0,0,1-2.19-2.45c.27-.91.53-1.75.83-2.75a21.34,21.34,0,0,1,2.66-3.21,14.74,14.74,0,0,0,2.56-3.65c.5-1,1.22-1.75,1.77-2.67a2.13,2.13,0,0,1,1.45-1c1.13-.27,2.25-.61,3.37-.94a6,6,0,0,0,.79-.42c-1.32-.34-2.26-1.05-3.47-1a2.26,2.26,0,0,1-1.06-.3c-.86-.47-1.68-1-2.53-1.5a4.07,4.07,0,0,1-1.53-1.65l.47-1.8a32,32,0,0,0,4.28-6.13c.47-.85,1.11-1.6,1.65-2.42a31.94,31.94,0,0,1,2.61-3.62,17.91,17.91,0,0,0,1.32-2,2.66,2.66,0,0,0-.94-.33c-.94.09-1.68-.49-2.53-.69a17.84,17.84,0,0,1-2.5-.91c-.39-.15-.75-.38-1.14-.54a3.64,3.64,0,0,1-2-2.38,29.1,29.1,0,0,1-1.11-3.88,35.27,35.27,0,0,1-.38-3.86,3.43,3.43,0,0,1,.32-1.5,7.2,7.2,0,0,1,2.41-3,27.08,27.08,0,0,0,2.24-1.9,8.69,8.69,0,0,1,4.81-2l1.06-.19c0-.15,0-.21,0-.23-1.69-1.38-3.22-3-5.25-3.89-1.35-1.16-3.17-1.34-4.65-2.25a8.75,8.75,0,0,1-2.53-1.95,1.06,1.06,0,0,1,.07-1.62l2-2a6.87,6.87,0,0,1,2.14-1.39l.85.11.26-.87c1-.28,2-.6,3-.87a1.56,1.56,0,0,1,.83,0,8.74,8.74,0,0,1,3.18,1.41,1.57,1.57,0,0,0,1.79.45,2.3,2.3,0,0,0,.24-.23,2.52,2.52,0,0,0-.39-.33,32.42,32.42,0,0,1-5.82-4.56,35.21,35.21,0,0,0-3.27-2.4c-.19-.14-.41-.24-.59-.39a1.25,1.25,0,0,1-.45-1.38,9.5,9.5,0,0,1,.63-1.55,33.25,33.25,0,0,0,2.28-4.64,13.16,13.16,0,0,1,.87-1.91,4.43,4.43,0,0,1,2.15-2,25.65,25.65,0,0,1,5.31-1.63c-1-.68-2-1.41-3.12-2a25.88,25.88,0,0,1-2.69-2.43,2.94,2.94,0,0,1-.54-.81l-1.11-1.88a6.39,6.39,0,0,1,.75-3.85A11.75,11.75,0,0,1,58,126.91,8.46,8.46,0,0,0,59.14,125c.35-.71.74-1.41,1.11-2.11a1.18,1.18,0,0,0,.19-.37,9.42,9.42,0,0,1,1.15-2.69A4.64,4.64,0,0,1,64.51,117a4.63,4.63,0,0,0,.55-.3c-.67-.37-1.26.15-1.87-.14a16,16,0,0,0-1.75-.42,16,16,0,0,1-1.72-.78,37.92,37.92,0,0,0-3.89-4c-.55-.51-1.15-.94-1.68-1.44a6.68,6.68,0,0,1-2-2.32c-.21-.57-.39-1.15-.61-1.79.12-.58.26-1.21.4-1.88a3.49,3.49,0,0,1,2-1.4,3.31,3.31,0,0,0,2.78-2.94c0-.09.05-.18.06-.23l1-1.41a2.08,2.08,0,0,1,.27-.32c1.2-1,2.35-2.14,3.61-3.11a18.48,18.48,0,0,1,4.66-2.79,2.54,2.54,0,0,1,1.75-.14l1.5-.69a5.82,5.82,0,0,0-1.17-.35c-1.21-.13-2.3-.73-3.54-.77a7.92,7.92,0,0,1-2-.56,24.87,24.87,0,0,0-2.66-.84,8,8,0,0,1-2.94-1.57,1.78,1.78,0,0,1-.65-1.42l1-2.33c.43-1,.86-2,1.26-3s.83-2,1.15-3a42.35,42.35,0,0,0,1.67-5.77,33.45,33.45,0,0,1,.92-3.36c.25-.9.49-1.8.76-2.7.17-.58.39-1.14.58-1.72A2,2,0,0,1,66.22,62ZM80.66,167.08l-.31.26-.3.26c-.47.18-1,.33-1.41.53a5.36,5.36,0,0,1-1.78.59,7.33,7.33,0,0,1,.88-.8c.42-.27.9-.47,1.33-.74a10.54,10.54,0,0,0,3.43-2.94c.25-.38.49-.78.73-1.18l.09,0,0,0-.06.08a2.66,2.66,0,0,0-.28,0,24.37,24.37,0,0,0-4.74,1.7c-.73.4-1.51.73-2.28,1.07a2.29,2.29,0,0,1-.6.08,1.76,1.76,0,0,1,0-.58,2.12,2.12,0,0,1,1-1.16,17.62,17.62,0,0,1,3.52-1.71c.49-.15,1-.31,1.46-.48.06,0,.08-.14.12-.21a.7.7,0,0,0-.86-.28,3,3,0,0,1-1.92-.15,2.54,2.54,0,0,0-1.1-.1,30,30,0,0,1-3.91.2,3.87,3.87,0,0,0-.82.12,24.36,24.36,0,0,0-4.91,1.09,2.61,2.61,0,0,0-.27.06,1.08,1.08,0,0,0-.26.16c-.12.32-.24.66-.35,1l-1.78,1c-.54.28-1,.89-1.82.7.58-1.06,1.78-1.48,2.07-2.54l1.06-.34A5.76,5.76,0,0,0,64.17,161l-.71.41a4.37,4.37,0,0,1,.44,1l-2.67-.32c-.9-1.23-.9-1.23-3.1-1.81a6.39,6.39,0,0,0-3.24,1.19c-.12.07-.25.13-.38.19a12.82,12.82,0,0,0-3.35,2.56c2,1.39,4.22,1.91,6.23,3.13,0-.42,0-.73.08-1.08a4.36,4.36,0,0,1-.73-.57,1.8,1.8,0,0,1-.33-.76.62.62,0,0,1,.52-.79l.17.61,1.42.69c.75-.3,1.53-.63,2.31-.92a6.35,6.35,0,0,1,1.21-.32.45.45,0,0,1,.59.38,4.17,4.17,0,0,1-.66.57c-.8.48-1.63.92-2.44,1.39a3.9,3.9,0,0,0-1.47,1.1c.64.45,1.26.92,1.9,1.35s1.11,1.13,1.94,1.25a3,3,0,0,0,.32-.36,2.18,2.18,0,0,1,1.63-1.2,3.83,3.83,0,0,0,1-.45.48.48,0,0,0,.21-.67,4.17,4.17,0,0,0-.76.13,2.69,2.69,0,0,1-2.63-.42l-.55-1.12.41-.23c.48.24.92.5,1.39.7a1.69,1.69,0,0,0,.81.19c1.11-.14,2.21-.3,3.31-.5a2.53,2.53,0,0,0,1-.45c1-.75,2.23-.93,3.23-1.64A2.06,2.06,0,0,1,72,164c.75-.25,1.49-.53,2.25-.73.48-.13,1-.41,1.47-.08-.13.52-.12.54-.4.62a59.93,59.93,0,0,0-7.85,3.28,4.41,4.41,0,0,0-.68.45c-.08.56-.13.92-.19,1.38L70.5,167A9.2,9.2,0,0,1,74,166c.17,0,.37-.1.46.23a4.6,4.6,0,0,1-1.6,1.24c-.67.33-1.3.74-2,1.09-1.44.74-2.59,2-4.15,2.53a4.08,4.08,0,0,0-.81.54c-.31.2-.62.41-1,.59a.43.43,0,0,1-.62-.2c0-.49.48-1,0-1.57-.83-.34-1.11.36-1.57.8a22.21,22.21,0,0,0,3.18,2.63l2.45-1.47a2,2,0,0,1,.59-1.81,1.8,1.8,0,0,1,1.66-.81c0,.9-1,1.11-1.3,2a4.69,4.69,0,0,0,1-.48A7.28,7.28,0,0,1,72.83,170c.26-.1.54-.16.79-.27s.17-.2.25-.31l-.61-1a1.34,1.34,0,0,1,1.46-1.17,1.94,1.94,0,0,1,1,1.82l-2,1.71c.07.6.14,1.2.22,1.78a1.2,1.2,0,0,1-1.59.53c-.66-.23-1.34-.39-2.08-.59-.72.83-1.93,1-2.71,1.85.18.15.28.28.4.31a20.28,20.28,0,0,0,4.72.47,12.73,12.73,0,0,0,3.24-1.61c.85-.72,1.73-1.42,2.61-2.12a5,5,0,0,1,.83-.51A.42.42,0,0,1,80,171c.09.69-.59,1-.8,1.7,1.12-.1,2.14-.35,3.24-.55a1.77,1.77,0,0,1,.63-1.5c.78-.81,1.51-1.66,2.24-2.5a9.61,9.61,0,0,1,2.63-2c.07,0,.18,0,.36,0l.27.58a26,26,0,0,0-2.3,1.88,27.51,27.51,0,0,0-1.87,2.27,6.73,6.73,0,0,1,.09.72c0,.27-.07.53-.11.83a7.26,7.26,0,0,1-.91.42c-1.48.42-3,.8-4.44,1.21-.68.19-1.35.4-2,.64-.33.12-.7.27-.72.83a2.48,2.48,0,0,0,.57.26,6.6,6.6,0,0,0,1.4.1,2.71,2.71,0,0,1,1.48.28,1.53,1.53,0,0,0,1,.1,10.92,10.92,0,0,0,4.45-1.58,17.39,17.39,0,0,0,2.53-2.16A7.36,7.36,0,0,0,89.74,169a3.34,3.34,0,0,0,0-1.93,6.43,6.43,0,0,0-2.13-3.38,10.35,10.35,0,0,1-.9-.79c-1.53-.43-2.43.51-3.37,1.36-.24.81-1,1.21-1.47,1.84l-.3.26-.6.52ZM60,146.57a1,1,0,0,0,.35-.82c.1-.18.21-.36.32-.54a5.11,5.11,0,0,0,.52-.63,15.5,15.5,0,0,1,2.31-3.08l.48.27c-.26.54-.48,1-.72,1.54a1.37,1.37,0,0,0,1.3.06c.44-.9.84-1.72,1.25-2.54l.09,0,0,0-.06.08a3.79,3.79,0,0,0-2.31.67,1.59,1.59,0,0,0-1.26.33c-.46.88-.93,1.73-1.36,2.59a4.18,4.18,0,0,0-.21.79l-.33.54a1,1,0,0,0-.34.82ZM65.53,293.2c.39-.16.82-.27.91-.77l.06-.09-.06.08c-.38.17-.82.27-.91.78l0,.08Zm6.08-37.32a5.77,5.77,0,0,0-.4,3.12c.25-.35.41-.48.42-.62a3.62,3.62,0,0,0-.07-2.35,7.18,7.18,0,0,0,.39-1.57c0-1.56.1-3.11.19-4.67,0-.63,0-1.27,0-2-.13.19-.21.25-.22.32-.19,2.36-.39,4.72-.57,7.08A1.27,1.27,0,0,0,71.61,255.88Zm-1.12-20.11.43.29,0-.07a1.1,1.1,0,0,1-.28-.18c-.78-.68-.31-1.65-.46-2.51-.28-.35-.66-.6-.79-1.1a2.93,2.93,0,0,1,.31-2c.28-.6.58-1.17,1.35-1.27.11,0,.19-.27.27-.4-.3-.34-.91-.36-.71-1l1.22-.74a2.51,2.51,0,0,0,0-1.58,12.58,12.58,0,0,0-3.15,1.21c0,.8.78.83,1,1.25A.56.56,0,0,1,69,228a1.59,1.59,0,0,1-1-.87,4.66,4.66,0,0,0-.4-.68c-.74.43-.76.44-.62,1.1q.74,3.56,1.48,7.11c.06.31.16.61.26,1C69.38,235.71,70,235.76,70.49,235.77Zm-14.2-17.39a.93.93,0,0,0-1,.53c-.44.83-.88,1.65-1.34,2.46-.32.56-.74,1.08-1,1.67a7.79,7.79,0,0,1-1.79,2.44A14.51,14.51,0,0,0,48.68,229c.16.21.29.49.5.61a4.86,4.86,0,0,0,1.17.44,28.53,28.53,0,0,0,5.35,1,5.5,5.5,0,0,1,.69.11c1.51.25,3,.73,4.51.88a4.76,4.76,0,0,1,1.2.37c.67.28,1.34.59,2.15.95-.08-.44-.12-.75-.19-1.06-.24-1-.52-2.08-.73-3.13-.27-1.28-.53-2.56-.7-3.85s-.26-2.78-.36-4.17c-.05-.65,0-1.3-.07-2a1.72,1.72,0,0,1,.5-1.53.53.53,0,0,1,.78,0c0,.1.14.24.12.36-.19,1.73.43,3.43.25,5.16.42,3.09.84,6.19,1.25,9.28a2.62,2.62,0,0,0,2.05,2.34c-.2-1-.2-1.89-.42-2.79s-.37-1.83-.58-2.74c-.28-1.23-.34-2.49-.72-3.7a1.52,1.52,0,0,1,.64-1.84c.34-.24.7-.46,1-.66l1.63-.15a2.57,2.57,0,0,1,1.24.95,4.61,4.61,0,0,0-.59.77l0-.11a6.12,6.12,0,0,0-1,.09c-.19,0-.45.15-.24.55a7.91,7.91,0,0,0,1.2-.6,3.46,3.46,0,0,0,3-1.73l1.4.34,1.47-.55a5.9,5.9,0,0,0,1.51-.52c-.56-.18-1-.32-1.35-.44-1.43-.4-2.87-.77-4.31-1.18a8.13,8.13,0,0,1-1-.44,10.74,10.74,0,0,0-2.26-1l-.58.53c-1-.11-.59-1-1.1-1.62-.36-.2-.92-.52-1.5-.81s-1.19-.54-1.81-.81c-.72.16-1.45.35-2.18.49a3.69,3.69,0,0,0-3.1,2.74l.8.15c.5-1,1.48-1.43,2.27-2.06a.46.46,0,0,1,.75.1,14.73,14.73,0,0,0-.59,2.26c-.15,1.48-.17,3-.22,4.46q0,1,0,1.95c.11,1.44.25,2.88.36,4.31,0,.12-.11.24-.16.34a.46.46,0,0,1-.53-.39,17.66,17.66,0,0,1-.45-1.91c-.11-.68-.09-1.4-.23-2.08a12.37,12.37,0,0,1-.33-2.91c0-.19-.16-.38-.3-.71a25.61,25.61,0,0,0-.38,5.73,9.36,9.36,0,0,1-.09,1.67c0,.15-.16.28-.3.51-.17-.26-.33-.4-.35-.57a13.37,13.37,0,0,1-.44-3.73,4.57,4.57,0,0,0,0-1,8.77,8.77,0,0,1,.3-3.6,8.23,8.23,0,0,0,.21-1.24l.05-.08-.05.08a6.6,6.6,0,0,0-.89.42,1.46,1.46,0,0,0-.53.63c-.32,1.06-.59,2.14-.89,3.25l1,.64a17,17,0,0,1-.86,1.48,1.69,1.69,0,0,0-.3,1.45,7,7,0,0,1,.11,1.75,1.44,1.44,0,0,1-1.33-1.74,6.63,6.63,0,0,1,.18-1.67,5.73,5.73,0,0,0-.07-3.66l2.1-4.92.05-.08Zm12.33-27.47h0c-.13.62.26,1.07.51,1.57a2.3,2.3,0,0,1,.35,1.5c.62-.1,1.22.44,2,0a4,4,0,0,0-.08-.91c-.7-2.18-1.37-4.37-2.16-6.51A19.19,19.19,0,0,0,67.85,183a10.24,10.24,0,0,1-1.16-2.85,11.74,11.74,0,0,0-.38-1.12c-.38-.62-1-.6-1.3-1.07.39-.41.85-.14,1.23-.25s.54-.18.45-.65a14.53,14.53,0,0,1-3-1.58,1.11,1.11,0,0,0-1.32,0,3.47,3.47,0,0,1-1,.55c-1,.3-2,.53-3,.81a8,8,0,0,0-1.57.57c-.31.16-.49.6-.8.75-1.15.54-1.81,1.61-2.69,2.43a1.86,1.86,0,0,0-.52,2.06,4.45,4.45,0,0,1,.15.81c.09.64.12,1.3.26,1.93.25,1,.6,2.07.84,3.11a2.47,2.47,0,0,0,1.72,1.87c.52.18,1.07.3,1.61.46A35,35,0,0,1,62,192.18a5.26,5.26,0,0,0,.8.23c.59.13,1.18.26,1.78.37a18.05,18.05,0,0,0,3.57.63l.09.06-.08-.06a3.07,3.07,0,0,1-.38-3.08ZM91,150.45h0a6.92,6.92,0,0,0-3.38-1.89c-1.61-.45-3.28-.67-4.92-1a3.49,3.49,0,0,1-2.06-.89l.37-.53c.49.09.89.21,1.31.26a25.06,25.06,0,0,1,5.58,1.21,8.79,8.79,0,0,1,3,1.68,19.49,19.49,0,0,0,1.6,1.16,4.43,4.43,0,0,0-1.23-3.4,5.24,5.24,0,0,0-2.74-2.29,2.5,2.5,0,0,1-.75-.37,4.31,4.31,0,0,0-2.34-.83,4,4,0,0,1-2.08-.72A4.23,4.23,0,0,0,81,142a4.39,4.39,0,0,1-2.38-.61c-1.33.26-2.63-.29-3.87,0-.07.11-.12.15-.12.19a12.85,12.85,0,0,1-.37,3.85A21.88,21.88,0,0,0,74,148.5c0,.1-.1.2-.28.51a9.19,9.19,0,0,1-.09-1c0-1,0-2,.11-2.94a2.55,2.55,0,0,0-.37-1.71c.43-.66.13-1.32.13-2,0,0-.06-.07-.16-.17a1.42,1.42,0,0,0-1.18.13,4.1,4.1,0,0,0-.14.62,34.65,34.65,0,0,1-1,5.35,3.37,3.37,0,0,0,0,1.81c.24-.74.49-1.47.72-2.18.42-.2.76-.29,1.07.07.12,1.7.25,3.39.38,5.07.39-.79.19-1.66.52-2.5a.59.59,0,0,1,.37.59c0,1.07.08,2.14.11,3.17l1.15,1.56-.81.86c.23.82.11,1.65.64,2.38a11.57,11.57,0,0,0,3.17.18,6.33,6.33,0,0,1,1.94.12c1,.19,2,.51,3,.74.72.17,1.45.29,2.18.4a1.45,1.45,0,0,0,1.29-.23,7.79,7.79,0,0,1,1.35-2.62,3.35,3.35,0,0,0,.21-.36,16.23,16.23,0,0,1,2.1-3.14,3.48,3.48,0,0,1,1.19-1.16,1.1,1.1,0,0,0,.63-1A1.46,1.46,0,0,0,91,150.45ZM86,178.5v0l-.44-.55c-1,.24-2,.42-2.89.71a8.57,8.57,0,0,1-4.44,0,23.58,23.58,0,0,0-2.76-.42l-4.62-.37a9.56,9.56,0,0,1-2.75-.47c-.1,0-.25,0-.38.06-.12,1.12,0,1.56,1.08,3.43.72-.21,1.35-.82,2.16-.66a.84.84,0,0,1,0,1.08,10,10,0,0,1-.52,1,5.19,5.19,0,0,1-.81.72,25.85,25.85,0,0,1,2.09,6.86c.24,1.38.58,2.74.88,4.06a1.19,1.19,0,0,0,1.32.36c0-.59,0-1.15,0-1.7.14-2,.31-4,.47-6a7.55,7.55,0,0,1,.13-1,.52.52,0,0,1,.58-.48c.42.64.42.64.45,1a18.29,18.29,0,0,0,.18,2.22,9,9,0,0,1,0,2.79c-.06.51-.23,1-.33,1.51a3.47,3.47,0,0,0,0,1.75,6.07,6.07,0,0,0,2.88.71,2.88,2.88,0,0,0,3-1.54A1.14,1.14,0,0,1,81,192.3a6.26,6.26,0,0,1,1.63-2.25c.82-.59,1.65-1.15,2.55-1.77.34.35.6.68.91.94s.72.51,1.16.81a2.72,2.72,0,0,1-.42.57.94.94,0,0,1-.62.26,12.8,12.8,0,0,1-1.42-.35,2.82,2.82,0,0,0-1.37,1.86l-.06.09.06-.08c.54-.15,1.08-.28,1.61-.46a6.3,6.3,0,0,0,2.65-1.14,11,11,0,0,0,.56-1.15,8.15,8.15,0,0,0,.26-1.18c-.15-.58-.28-1.12-.4-1.55a1.67,1.67,0,0,1,1.62-1,5.51,5.51,0,0,0,.29-4.22A8.77,8.77,0,0,0,86,178.5ZM82.7,138c.65,0,1.3,0,2-.07a25.84,25.84,0,0,1,5.56-.19,4.19,4.19,0,0,0,2-.36c.06-.32.11-.59.15-.87a19.63,19.63,0,0,1,.63-4.7.54.54,0,0,0,0-.28,4.55,4.55,0,0,1,.15-2.07,1.79,1.79,0,0,0,0-.69,23.19,23.19,0,0,0-1-5.35c0-.08,0-.18,0-.26.58-.42.91-.44,1.13,0,.38.74.7,1.51,1.06,2.28.07-.06.22-.13.25-.24a4.43,4.43,0,0,0-.65-3.47,2.77,2.77,0,0,0-2.36-1.3,5,5,0,0,1-2.26-.66,5.41,5.41,0,0,0-3-.57,2.43,2.43,0,0,0-.76.36c.17.42.28.77.45,1.09a17.41,17.41,0,0,1,2,5.2c.19,1,.29,1.93.39,2.91,0,.16-.21.34-.35.56-.17-.17-.31-.25-.35-.37-.31-.83-.59-1.66-.9-2.49s-.52-1.5-.86-2.21a14.19,14.19,0,0,1-1.7-4.84,1.69,1.69,0,0,0-1.62,0,1.67,1.67,0,0,1-1.5.11A9.92,9.92,0,0,0,78.4,119a13.06,13.06,0,0,1-2.06-.36,5.4,5.4,0,0,0-2.72-.5l-.43.71a9.31,9.31,0,0,1-1.13-.16c-.55-.14-1.08-.3-1.61-.48-1.85-.65-3.59-.12-5.33.46a2,2,0,0,0-.56.41A5.75,5.75,0,0,0,62.87,122a9.88,9.88,0,0,1-.49,1.45c-.59,1.11-.94,2.33-1.59,3.42A15.94,15.94,0,0,1,59,129.65a1.88,1.88,0,0,0-.23,2.34,4,4,0,0,0,.36.6,16.07,16.07,0,0,0,3,3.06,1.72,1.72,0,0,0,.4.14h0a7.06,7.06,0,0,0,2.56,1.34,2.39,2.39,0,0,0,1.22.17,3.48,3.48,0,0,1,1.22.18c.68.16,1.34.38,2,.54a15.25,15.25,0,0,0,1.76.36c1.16.12,2.32.2,3.48.26.6,0,1.2-.07,1.8,0a12.36,12.36,0,0,0,4.7-.47,12.18,12.18,0,0,0,.63-1.79c.25-.79.53-1.58.83-2.36a.44.44,0,0,1,.6-.29,1.8,1.8,0,0,1,0,1.44c-.21,1-.51,1.88-.77,2.82l0,.08ZM58.48,102.5c.15-.11.36-.18.44-.33a7.33,7.33,0,0,1,1.66-1.85,25.86,25.86,0,0,1,6.06-3.67,3.26,3.26,0,0,1,2-.14c-.06.4-.43.47-.69.62-.74.4-1.54.68-2.24,1.13-1.32.86-2.59,1.8-3.87,2.72-.1.07-.12.24-.18.37l-.3.26c-.69,0-1.06.52-1.47,1A8.35,8.35,0,0,1,58.55,104c-.52-.13-.28-.78-.83-.83a6.44,6.44,0,0,1-2.6,1.78c-.35.15-.71.29-.79.8a3.76,3.76,0,0,0,1.28,1.72c1,1,2.37,1.79,3.36,2.92.08.09.25.1.32.13.82-.69,1.62-1.31,2.37-2a14.41,14.41,0,0,1,3.62-2.37c.25-.11.45-.32.69-.45,1.06-.55,2-1.36,3.28-1.27a6.86,6.86,0,0,1,1-.86,2.38,2.38,0,0,1,1-.35c.38,0,.68-.54,1.22-.16a4,4,0,0,1-.6.62c-1.18.73-2.39,1.44-3.58,2.17a21.64,21.64,0,0,1-2.12,1.35,43.66,43.66,0,0,0-5.27,3.43,1.46,1.46,0,0,0-.72,1,11.36,11.36,0,0,0,1,.95,3.74,3.74,0,0,0,1.21.65,12.76,12.76,0,0,0,4.11.65,2.59,2.59,0,0,1,.55.07l5.88,1c.1,0,.19,0,.11-.07l.43.3,0-.08a2.68,2.68,0,0,0-.3-.12c-.38-.68-1-1.27-.8-2.28a5,5,0,0,1,.72-.46c.14-.06.35.05.54.09l.36.73c.9.86,1.59,1.48,2.24,2.15a1.75,1.75,0,0,0,1.06.63c1.21.09,2.42.15,3.63.21.07,0,.15-.1.29-.2a2.75,2.75,0,0,0,0-.77,19.79,19.79,0,0,0-1.71-5.3c-.56-1.13-1.15-2.23-1.69-3.37a5.4,5.4,0,0,1-.33-1.21c0-.08,0-.18.07-.35l.67-.12A15.62,15.62,0,0,1,81.29,109a16.27,16.27,0,0,1,1.33,6.73,1.57,1.57,0,0,0,1.39.35c.43-.06.9.17,1.34-.09-.2-.6-.38-1.12-.54-1.66a6.16,6.16,0,0,1-.28-2.76c.06-.34.2-.63.67-.66a1.83,1.83,0,0,1,.92,1.43,2.2,2.2,0,0,0,.74,1.31,1.19,1.19,0,0,1,.21.4c0,.74-.77,1.19-.52,2a6.9,6.9,0,0,0,3.65-.44,21.68,21.68,0,0,0,0-2.3,15,15,0,0,0-.52-2.18c-.14-.49-.34-1-.49-1.46A2.62,2.62,0,0,1,89,108c.16,0,.29-.09.34,0,.73.53,1,1.43,1.64,2,1,.24,1,.23,1.33.85a6,6,0,0,1,.74,2.81,1.41,1.41,0,0,1-.18.52c-1.06.13-.87-.92-1.41-1.41a12.58,12.58,0,0,1-.13,1.46,13.35,13.35,0,0,1-.39,1.3,1.61,1.61,0,0,0,.5,0l3.68-1.34.43-.81a10.62,10.62,0,0,1-.57-1.51,1.45,1.45,0,0,1,.21-.77c0-.08.23-.1.37-.16.67.55.36,1.55,1,2.09a1,1,0,0,0,.85-.7,2.1,2.1,0,0,1,.32-.76,18.21,18.21,0,0,0,2-2.87c.57-.78,1-1.67,1.62-2.7a6.55,6.55,0,0,0,1.51-1.87,3.58,3.58,0,0,0,.25-3.24,11.46,11.46,0,0,0-2-3.31c-.35-.37-.68-.76-1.13-1.26a11.07,11.07,0,0,0-3.62-.92c-1.54-.11-3.08-.25-4.61-.36a6.63,6.63,0,0,1-1.92-.39,2.61,2.61,0,0,0-1.82-.24,5.59,5.59,0,0,0-3.79-.83c-.4-.23-.75-.47-1.12-.65a4.61,4.61,0,0,0-2.88-.36,2.44,2.44,0,0,1-2-.39,2,2,0,0,0-.92-.26c-.61-.08-1.22-.08-1.82-.17a3.08,3.08,0,0,0-2.44.83,3.69,3.69,0,0,0-.46.5c-.93.08-1.72.1-2.5.22a5.27,5.27,0,0,1-2.53,0l-1.11.51a11.2,11.2,0,0,0-2.81,1.82c-1.41,1.3-2.78,2.64-4.17,4l-.9,2.94-.06.08Zm4-25.19c-.1.12-.18.18-.21.26-.51,1.45-1,2.91-1.52,4.35a9.18,9.18,0,0,1-.48,1,6.15,6.15,0,0,0-.88,2.55,4.05,4.05,0,0,0,1.4.59c1.58.31,3.06,1.14,4.73,1.06a5.77,5.77,0,0,0,1.72.46,14.87,14.87,0,0,0,4,.78,9.14,9.14,0,0,0,2.89.45,13.36,13.36,0,0,1,2.07.35,9,9,0,0,0,2.08.17c.65,0,1.3,0,2,0a18.81,18.81,0,0,0,3.19.25,1.73,1.73,0,0,1,.55.07,22.36,22.36,0,0,0,4.39.73,16.94,16.94,0,0,0,4.55-.43,4.64,4.64,0,0,0,1-.46l1.52-.71a3.64,3.64,0,0,0,1.55-1.36,1.37,1.37,0,0,0,.14-1.34,18.24,18.24,0,0,0-1-2.32,5,5,0,0,1-.51-2.56,2.45,2.45,0,0,1,.46-1.44A4.57,4.57,0,0,1,99,77.94c1.06-.24,2-.77,3-1a11.74,11.74,0,0,0,1.83-.8,1.56,1.56,0,0,0,0-1.3,22.54,22.54,0,0,1-1.16-3.29,5.79,5.79,0,0,0-.52-1.3A3.51,3.51,0,0,0,98.88,68a15.44,15.44,0,0,0-1.66.12c-.51,0-1,.12-1.53.19a2.41,2.41,0,0,0-.8.2,2.57,2.57,0,0,1-1.37.18,13,13,0,0,0-1.53,0,26.15,26.15,0,0,1-4.6-.3,2.29,2.29,0,0,0-2.38.16l-1.62-.64c-1.34.22-2.56.3-3.53-.45a10.86,10.86,0,0,1-2.21-.14,15.44,15.44,0,0,0-2.34-.39A3.56,3.56,0,0,1,74,66.63a4.78,4.78,0,0,0-2.15-.53,5.15,5.15,0,0,1-1.87-.5c-1.16-.5-2.36-.88-3.55-1.29-.12,0-.27,0-.46,0a5.54,5.54,0,0,0-.32.59,2,2,0,0,0-.22.66,19.06,19.06,0,0,1-.76,3.26,6.08,6.08,0,0,0-.33,2.4l1.58.58a7.83,7.83,0,0,1,2.92,1.61c.12.13.27.27,0,.54l-1.21-.48c-1.31.26-2.76,0-4.21.25a10.24,10.24,0,0,0-.38,2l1.46.17c.65.06,1.31.1,2,.18.3,0,.53.2.39.65C65.45,77.29,63.89,77.09,62.44,77.31Zm9.21,122,1.48.12c.74.05,1.39.25,1.61,1,.6.08,1.21-.15,1.62.4.06.26.12.52.18.8.33,0,.61,0,.89,0,2.18-.11,4.34-.55,6.54-.57a1.84,1.84,0,0,0,.8-.22,5.37,5.37,0,0,1,3.54-.5,2.41,2.41,0,0,1,.5.19A3.83,3.83,0,0,1,86,202c-1,.18-1.93.27-2.9.38s-1.94.25-2.92.33c-1.39.13-2.78.27-4.18.3a10.42,10.42,0,0,1-2.35-.29,3.39,3.39,0,0,0-1.1,0,4,4,0,0,1-2.28-.28c.12-.23.16-.47.3-.58a1.61,1.61,0,0,1,1.21-.23l1.81.14c-.4-.46-1-.37-1.48-.61l.5-.59-3.58-.29a8,8,0,0,1-1.11-.15c-.35-.08-.42-.26-.41-.89A1.55,1.55,0,0,1,69,199a1.43,1.43,0,0,0,.68.07c.24,0,.44-.14.34-.46-.57-.16-1.16-.29-1.72-.48-1.06-.36-2.12-.74-3.16-1.14a2.42,2.42,0,0,0-1.51-.2c-.62.17-1.21.42-1.78.62a10.65,10.65,0,0,1-.57,1.17A42.36,42.36,0,0,0,58.52,203a36.77,36.77,0,0,1-1.88,3.29,9.47,9.47,0,0,0-1.15,1.88c-.08.24-.39.4-.59.59a1.72,1.72,0,0,0-.62,1.13,2.91,2.91,0,0,0,1.25.79c1.38.43,2.77.83,4.15,1.25s3,.91,4.54,1.41a24.53,24.53,0,0,1,5,2.58A9.79,9.79,0,0,0,72,217.09c.36.09.72.21,1.07.33a20,20,0,0,0,5.65.73l1.16-1c-.09-.39-.16-.7-.27-1.14,1.16-.28,2.33-.1,3.33-.55s2.27-.49,3.34-1a24.27,24.27,0,0,1,6.1-4.3,1.49,1.49,0,0,0,.58-2.42c-.51-.78-1-1.59-1.42-2.4a1.34,1.34,0,0,1-.16-.68c0-1-.36-1.91-.3-2.92A2.6,2.6,0,0,0,90,199.4a4.31,4.31,0,0,0-1.76-.82,18.44,18.44,0,0,0-2.14-.6,11.82,11.82,0,0,0-3.61.08,5.19,5.19,0,0,1-2.62-.2,9.24,9.24,0,0,0-2-.54,17.11,17.11,0,0,0-4.74-.18,3.39,3.39,0,0,1-.84,0,16.07,16.07,0,0,1-4.23-.81,4.17,4.17,0,0,0-2.06-.11l5.51,2.18C71.51,198.66,71.57,198.93,71.65,199.32ZM82.44,43.53l-.75-1.28c-.87-.36-1.64-.68-2.43-1a11.49,11.49,0,0,1-1.55-.58,3.18,3.18,0,0,0-1.32-.41c-.56-.06-1.11-.14-1.81-.24a5,5,0,0,0-.89.68c-.93,1-1.84,2.1-2.71,3.19-.43.55-.78,1.16-1.16,1.75-.15.23-.23.54-.44.7a4,4,0,0,0-1.17,1.71,5.93,5.93,0,0,1-.53.81,3.77,3.77,0,0,0-.46.69,11.66,11.66,0,0,1-1.76,2.85A7.54,7.54,0,0,0,64,55.09a4.43,4.43,0,0,0,.39.6c1.09,1.14,2.4,2.07,3.43,3.29a2.12,2.12,0,0,0,.35.23L70,60.49c.47.32.94.62,1.41.91.07.05.18,0,.27,0,.23-.29.47-.56.69-.83a1.37,1.37,0,0,1,1.4.38,3.58,3.58,0,0,1,.21.87,4.31,4.31,0,0,1-.23,1,2.3,2.3,0,0,0,.43.25c1,.29,2,.63,3,.83a21,21,0,0,0,2.65.25,1,1,0,0,0,.53-.14,4.09,4.09,0,0,1,2.3-.45A3.37,3.37,0,0,0,84,63.36c.52-.21,1-.37,1.59-.56a5.44,5.44,0,0,0,3.24-.09,25.53,25.53,0,0,0,4.43-2.06,1.77,1.77,0,0,0,.94-2.25A5.18,5.18,0,0,1,94.07,57a7.42,7.42,0,0,1,.6-2.42,5.86,5.86,0,0,0,.45-1.75,2.77,2.77,0,0,1,.31-1.06,11.77,11.77,0,0,0,.87-1.91,12,12,0,0,1,.93-2.18,13,13,0,0,0,1.17-3,4.7,4.7,0,0,0,.13-2.2A1.66,1.66,0,0,0,97.36,41a2,2,0,0,0-1.43.51,2.67,2.67,0,0,1-1.92.72,4.24,4.24,0,0,0-2.11.67,5.28,5.28,0,0,1-3.45.9,4.5,4.5,0,0,0-1,0A26.64,26.64,0,0,1,82.44,43.53Zm-8.8,182.61a4.11,4.11,0,0,0,.67-.16c1.84-.68,3.66-1.4,5.5-2.07,1-.35,1.94-.63,2.92-.92.11,0,.25,0,.44,0-.11.17-.16.32-.27.38a31.12,31.12,0,0,1-4.58,2.39c-1.52.59-3,1.27-4.51,1.88a2.08,2.08,0,0,0-1.17,1.12c-.57,1.17-1.2,2.31-1.91,3.65l.21.27c.72-.24,1.26-.39,1.78-.6,1.29-.53,2.57-1.09,3.86-1.63a3.89,3.89,0,0,1,.81-.22c.1,0,.22.12.42.24-.17.2-.28.44-.46.53-.94.51-1.88,1-2.85,1.45a6.81,6.81,0,0,0-1.9,1.22c0,.14,0,.2,0,.23.49,1.18.49,1.18-.47,2.09,0,0,0,.09,0,.22.93.08,1.86.16,2.78.22a4.15,4.15,0,0,0,2.91-.79,4,4,0,0,1,2.59-.94c1.57.08,2.65-1.06,4-1.39a.44.44,0,0,0,.22-.16,7.88,7.88,0,0,0,1.24-1.83,48,48,0,0,0,1.79-5.14,15.08,15.08,0,0,0,.37-2.55l-1.59-1.11a17.27,17.27,0,0,1-1.73-.38,4.93,4.93,0,0,0-2.35-.14,8.45,8.45,0,0,1-1.8.23,6.67,6.67,0,0,0-2.72.53c-1,.4-2.1.77-3.15,1.16a1.85,1.85,0,0,0-1.09.66A2.22,2.22,0,0,0,73.64,226.14Zm-7.37-71.88,2-.09c.19-.22.37-.42.55-.64a.75.75,0,0,0,.07-.23,6.83,6.83,0,0,1,1.21-6.61c.42-1.68.84-3.4,1.26-5.12,0-.18,0-.38-.21-.42-.54.15-.49,1-1.28,1,0-.45.08-.89.12-1.39-.47-.11-.87-.19-1.27-.3s-.76-.39-1.22-.14l-2.24,3.11.24.78-.55.57c.25.26.5.5.74.74a3.77,3.77,0,0,0-1.29,2.31c-.11.4-.23.81-.31,1.22-.38,1.83-1.09,3.56-1.63,5.35a.67.67,0,0,1-.81.54c-.07-.11-.16-.18-.17-.27-.09-.54,0-1.1-.55-1.52a1,1,0,0,1-.18-.78,2.41,2.41,0,0,1,1.06-1.89,2.76,2.76,0,0,0,1.31-1.89c.13-.5.3-1,.45-1.43-.42-.76-.49-1.66-1.41-2.12a22.42,22.42,0,0,0-2,4.47l-1.34,1.87-.56-.5a2.75,2.75,0,0,0-.29,2l1.17.94a7.62,7.62,0,0,1,1.19,1,12.47,12.47,0,0,0,3.22,2.43,4.92,4.92,0,0,0,.79.34,5.17,5.17,0,0,0,.44-.94,21.3,21.3,0,0,0,.59-3.15,22.28,22.28,0,0,0-.09-4.32,3,3,0,0,1,.28-1.76,7.6,7.6,0,0,0,.72-2,14.92,14.92,0,0,1,1.64-4c.07-.13.28-.18.73-.45-.32,1.87-.91,3.37-1.19,5a1.84,1.84,0,0,1,.38,1.51c-.36,1.4-.72,2.8-1,4.21A13.09,13.09,0,0,0,66.27,154.26ZM63.44,306.34c0-.66,0-1.22-.09-1.77a3.72,3.72,0,0,1,.16-1.93,3.87,3.87,0,0,0,.21-2.07,9.17,9.17,0,0,1,0-2.51c0-.46.07-.92.1-1.38l.12-1.46a2.52,2.52,0,0,0-.55.94,3.9,3.9,0,0,1-.18.8,3.85,3.85,0,0,0-.38,1.62,12.79,12.79,0,0,1-.54,3.59,2.61,2.61,0,0,0-.09.69L62,304.79a6.55,6.55,0,0,1,.1,4.17c.22.61.16,1.28.84,1.78.57,0,1.27.05,2,0a23.44,23.44,0,0,1,2.89-.09,5.33,5.33,0,0,0,3-.31,1.41,1.41,0,0,1,.55-.09c.87,0,1.7-.33,2.59-.28a5.77,5.77,0,0,0,1.16-.23c.29-1,.58-2.06.85-3l-.36-.78a1.34,1.34,0,0,1,.08-.45,5.17,5.17,0,0,0,.39-3.8c0-.18-.07-.36-.1-.55-.15-.92-.28-1.84-.46-2.75-.06-.33-.11-.72-.66-.85a11.16,11.16,0,0,0-.09,2.57,4.48,4.48,0,0,1-.07,1.09,2.8,2.8,0,0,0-.1.68,12.54,12.54,0,0,1-.13,3.62,7.45,7.45,0,0,1-.54,2A2.45,2.45,0,0,1,72.1,309a15.39,15.39,0,0,1-5.7,0,1.19,1.19,0,0,1-.4-.14l-1.7-.78C64,307.54,63.74,307,63.44,306.34Zm7.89-8.42-3-4.59a7.53,7.53,0,0,1-1.5,2.49c0,.55,0,1.06,0,1.56-.22,2.22.15,4.46-.31,6.66a2.33,2.33,0,0,0,0,.83A1.18,1.18,0,0,0,67.76,306a5.58,5.58,0,0,0,2.84-.25c.09-.24.31-.55.28-.83a2,2,0,0,1,.51-1.41A22.14,22.14,0,0,1,71.33,297.92Zm-1.68-10.2a2.36,2.36,0,0,0,.45-1.32c.06-.92.12-1.85.25-2.76.18-1.24.15-2.47.23-3.71s.06-2.32.2-3.48a23.08,23.08,0,0,0,.15-3.62c0-.69-.09-1.36-.08-2.06s0-1.39,0-2.08a3.39,3.39,0,0,1,.14-1,3.61,3.61,0,0,0,.16-1.38c0-.56,0-1.12,0-1.67.09-1.36.21-2.71.32-4.06,0-.32,0-.64,0-1.27a9.06,9.06,0,0,0-.63,3.8c0,1.64-.2,3.26-.3,4.89a2.78,2.78,0,0,1-1,2.22,10,10,0,0,1-.17,1.84,6.28,6.28,0,0,0-.12,1.93,1.44,1.44,0,0,1-.06.55,7.4,7.4,0,0,0-.38,3A13.15,13.15,0,0,0,69,280.1a21,21,0,0,1,.29,5.71A3.09,3.09,0,0,0,69.65,287.72ZM85.09,41.49a7.49,7.49,0,0,0,.21-1.28,41.12,41.12,0,0,1,.21-4.44c0-1.68.26-3.36.38-5,.16-2.28.26-4.57.46-6.84A11.93,11.93,0,0,0,86.5,21a30.85,30.85,0,0,0,.56-5.15,4,4,0,0,0-.13-1.38,10.41,10.41,0,0,1-.35-3c0-1.55-.25-3.07-.35-4.61a26.25,26.25,0,0,0-.37,4.32,39.53,39.53,0,0,1,0,5.86c-.09.84-.15,1.68-.2,2.52,0,.37,0,.75,0,1.12,0,.56.07,1.12,0,1.67-.07,1-.23,1.95-.31,2.93A11.87,11.87,0,0,0,85.33,28c.15,1-.3,1.83-.26,2.76,0,.23.06.46.08.69a3.3,3.3,0,0,1,0,.7,41.19,41.19,0,0,1-.27,4.3,1.51,1.51,0,0,0-.05.42,14.72,14.72,0,0,1-.15,4C84.71,41,84.85,41.1,85.09,41.49ZM65.92,155.55c-.18,1.08-.82,1.94-.43,3l1.79,1.24c.75-.37,1.63,0,2.3-.58l0-2.36-.89-.6c-.06-.47-.11-.88-.17-1.36Zm5.34-1.5c-.7.95-.81,1.06-.75,1.57a12.65,12.65,0,0,1-.29,2.75c0,.22,0,.44-.06.68a1.7,1.7,0,0,0,2.13-.59,9.71,9.71,0,0,1,0-3.09,8.06,8.06,0,0,0-.08-2.08,15.26,15.26,0,0,1-.31-4.16s-.09-.07-.16-.13c-.28,1.39-.56,2.74-.85,4.13ZM57,150.73c-.35-.4-.66-.71-.54-1.19a1.81,1.81,0,0,1,.76-1.13l.86-.57c.17-.44.29-.8.44-1.14s.35-.76.55-1.13.36-.65.55-1,.45-.72.65-1.09a2.17,2.17,0,0,0,.46-1,3.3,3.3,0,0,0-2.7,2.07c-.75,1.85-1.61,3.67-2.38,5.52-.39.9-.1,1.41,1,1.94C56.79,151.59,56.88,151.19,57,150.73Zm12.72.73L69,152c.06.46.08.86.59,1.07C69.62,152.56,69.65,152.18,69.71,151.46Zm2.83,90.63c.23-1.12.23-1.12-.23-1.48A1.59,1.59,0,0,0,72.54,242.09Zm-.09,2.31c-.52.36-.53.37-.32,1,0,.05.13.07.23.11ZM64,72.33v.08l.31,0,0-.08Zm.48,222,.07-.08-.1,0Z"/><path class="cls-1" d="M61.37,101.61l.3-.26c.34-.14.69-.25,1-.41l3.64-1.75a6.24,6.24,0,0,0,.84-.47c.26-.19.45-.47.72-.66a7.69,7.69,0,0,1,.91-.46c.14-.25.29-.53.43-.8l.25-.15a4,4,0,0,1,1.65-.19,20.4,20.4,0,0,1,4.11.61h0c0,.18.1.36.16.63a2.8,2.8,0,0,1-.65.16c-.65,0-1.3-.09-2-.13a3.15,3.15,0,0,0-2.52.94,10.31,10.31,0,0,1-1.58,1.06l-.36,1.05c-.5.24-.77-.27-1.19-.33a15.72,15.72,0,0,0-6.42,3.6c-.68-.59-.76-1-.34-1.45S61,101.94,61.37,101.61Z"/><path class="cls-1" d="M84.57,101.31l-.59.19c-.08,0-.18-.07-.23-.14a5.69,5.69,0,0,1-.71-.86,14.37,14.37,0,0,0-3.65-4c-.72-.59-1.5-1.1-2.24-1.66a4.94,4.94,0,0,1-.59-.65,2.18,2.18,0,0,1,.54-.3,1.71,1.71,0,0,1,1.19.33,13.73,13.73,0,0,1,4.85,4.52c.3.52.67,1,1,1.55l.47-.12c1.39.63,2.11,2,3,3.13a3.6,3.6,0,0,1,1.07,2.59,9.54,9.54,0,0,1-2.29-2.23C85.82,102.88,85.19,102.08,84.57,101.31Z"/><path class="cls-1" d="M63.48,111.52l-.74-.51a1.61,1.61,0,0,1,.19-.54,8.51,8.51,0,0,1,2.44-2.07c1.14-.62,2.29-1.24,3.48-1.77s2.42-1,3.65-1.4c.54-.19.56-.14,1.41.1-.08.16-.12.38-.23.45l-4.45,2.35c-.61.32-1.22.66-1.83,1-.16.09-.28.26-.44.32C65.73,109.93,64.77,110.86,63.48,111.52Z"/><path class="cls-1" d="M74.54,108.78c-.15.24-.18.36-.25.39l-3,1.56-.87.45-3.21,1.67c-.6.31-1,.18-1.6-.48a4.86,4.86,0,0,1,1.81-1.65,32.26,32.26,0,0,1,4.18-1.93,8.2,8.2,0,0,1,2.34-.24C74.13,108.54,74.29,108.68,74.54,108.78Z"/><path class="cls-1" d="M76.72,111.88a7.26,7.26,0,0,1-1.3-3.16,15.24,15.24,0,0,0-.42-1.61c-.22-1.09-.41-2.2-.62-3.29-.07-.37-.19-.72-.25-.95-.54-.74-1.55-.47-1.94-1.21a1,1,0,0,1,1-.77c.73.69,2,.58,2.65,1.74l-.41.73A57.73,57.73,0,0,1,76.72,111.88Z"/><path class="cls-1" d="M82.58,107.93a2.65,2.65,0,0,1-2-1.24,16.8,16.8,0,0,0-1.28-1.64c-.49-.62-1-1.25-1.46-1.91l.37-.92,1.22.72,1.23-1.41a1,1,0,0,1,.59,1.09,5.41,5.41,0,0,0,.56,2.69C82.1,106.09,82.29,106.91,82.58,107.93Z"/><path class="cls-1" d="M94.49,107.46a2.46,2.46,0,0,1-.66-1.36,24.7,24.7,0,0,0-2-4.73c-.32-.71-.79-1.36-1.13-2.08-.24-.51-.66-1-.38-1.77A3.58,3.58,0,0,1,92,99a19.07,19.07,0,0,1,3,7.62C95,107,95,107.31,94.49,107.46Z"/><path class="cls-1" d="M96.63,98.25c.32-.09.57-.25.72-.19a3.74,3.74,0,0,1,2.15,1.85c.12.25.21.52.35.75a6.84,6.84,0,0,1,.89,5,1.48,1.48,0,0,1-.19.35,1.67,1.67,0,0,1-.29,0s-.08,0-.1,0c-.42-1.34-.82-2.67-1.26-4S97.39,99.67,96.63,98.25Z"/><path class="cls-1" d="M98.1,107.26a2.32,2.32,0,0,1-1-1.07c-.41-.78-.8-1.57-1.23-2.34a14.61,14.61,0,0,0-.81-1.29A9.18,9.18,0,0,1,94,100.65c.77-.39,1-.4,1.4,0a10.94,10.94,0,0,1,1.18,1.37,9.93,9.93,0,0,1,1.84,4.14A1,1,0,0,1,98.1,107.26Z"/><path class="cls-1" d="M75.24,97.07c-.35-.21-.72-.41-1-.65a3,3,0,0,1-.43-.45.6.6,0,0,1,.71-.6,2.91,2.91,0,0,1,.8.23,11.16,11.16,0,0,1,4.8,3.93,2.2,2.2,0,0,1,.39,1.39c-.38.14-.49-.08-.64-.25a19.22,19.22,0,0,0-3.92-3.33,3.39,3.39,0,0,0-.65-.26Z"/><path class="cls-1" d="M84.32,96.63c.27-.55.62-.48.87-.26a8.22,8.22,0,0,1,1.45,1.5,29.22,29.22,0,0,1,2.1,3.63A9.39,9.39,0,0,1,90,105a1.53,1.53,0,0,1-.08.37c-.4,0-.51-.25-.62-.51-.37-.8-.76-1.6-1.11-2.42A18.87,18.87,0,0,0,84.32,96.63Z"/><path class="cls-1" d="M66.79,103.52a6.35,6.35,0,0,1-1.93,1.21,21,21,0,0,0-3.61,2.32,2.34,2.34,0,0,1-.47.3.8.8,0,0,1-.41.05,1.31,1.31,0,0,1-.35-.12.73.73,0,0,1,.1-1,4.49,4.49,0,0,1,.77-.59,15.53,15.53,0,0,1,4.81-2.41C66.06,103.17,66.42,103,66.79,103.52Z"/><path class="cls-1" d="M85.72,110.27c-.92-.85-.88-2-1.43-2.94s-.94-1.91-1.43-2.93l.57-.45a3.87,3.87,0,0,1,.65.6,12.41,12.41,0,0,1,2,4.29A1.42,1.42,0,0,1,85.72,110.27Z"/><path class="cls-1" d="M87.71,109.14c-.18,0-.23,0-.26,0s-.2-.06-.24-.13a13.5,13.5,0,0,1-.75-1.34c-.65-1.48-1.83-2.67-2.49-4.36a2.49,2.49,0,0,1,.63.14,3.8,3.8,0,0,1,1.2,1.16c.38.64.82,1.25,1.22,1.88a2.13,2.13,0,0,1,.27.64C87.44,107.79,87.56,108.43,87.71,109.14Z"/><path class="cls-1" d="M77.63,79.71a2,2,0,0,1-1.59.53,9.32,9.32,0,0,0-2.79,0,1,1,0,0,1-.42,0,39,39,0,0,1-4.78-1,6.5,6.5,0,0,1-1.43-.85.81.81,0,0,1-.17-.63.59.59,0,0,1,.61-.47,1,1,0,0,1,.42,0,26.14,26.14,0,0,0,5.62,1c1.16.11,2.31.36,3.45.58A1.42,1.42,0,0,1,77.63,79.71Z"/><path class="cls-1" d="M74.7,87.22a1,1,0,0,1,1.08-.63c1.26.13,2.51.23,3.76.42a16.39,16.39,0,0,1,2.58.61A2.09,2.09,0,0,0,84,87.5a2.35,2.35,0,0,1,1.19-.31c1.11,0,2.23,0,3.34.08.19,0,.38.22.54.31a.49.49,0,0,1-.42.55,10.34,10.34,0,0,1-3.17.45c-1.82,0-3.63,0-5.45-.07-1.25-.06-2.5-.23-3.75-.39A2.4,2.4,0,0,1,74.7,87.22Z"/><path class="cls-1" d="M78.25,82.89c-.27-.72-.94-.87-1.61-1.07,0-.34-.07-.67,0-.83a1.51,1.51,0,0,1,1.58-.53c-.07.31-.14.59-.22.91a7.85,7.85,0,0,0,2.46.45c.78.07,1.55.21,2.32.34a15.43,15.43,0,0,1,2.51.35,2.09,2.09,0,0,1-1.93.84c-1.35-.09-2.69-.25-4-.37Z"/><path class="cls-1" d="M77.14,72.57c-.29.16-.48.34-.66.34-.84,0-1.67,0-2.51-.12a7.51,7.51,0,0,0-2.22-.05,14.77,14.77,0,0,1-3.38-.66,4.63,4.63,0,0,1-.55-.52c.07-.49.35-.65.7-.62,1,.11,2.11.24,3.16.37a12.82,12.82,0,0,0,1.51.24,19,19,0,0,1,3.43.63C76.77,72.2,76.89,72.38,77.14,72.57Z"/><path class="cls-1" d="M78.75,77.15c-.18.15-.31.31-.46.35a14.81,14.81,0,0,1-5.93.18,1.63,1.63,0,0,1-.52-.19.62.62,0,0,1-.09-1A1.69,1.69,0,0,1,73,76.08c1.57.11,3.14.23,4.71.38A1.19,1.19,0,0,1,78.75,77.15Z"/><path class="cls-1" d="M87.28,78.93c-.17.18-.24.34-.34.36a2.91,2.91,0,0,1-.83.06c-2-.15-4.09-.32-6.14-.49a2.8,2.8,0,0,1-.81-.18.53.53,0,0,1-.33-.69,1.17,1.17,0,0,1,.44-.47.62.62,0,0,1,.41-.07,25.45,25.45,0,0,1,7.14,1.16A2.6,2.6,0,0,1,87.28,78.93Z"/><path class="cls-1" d="M89,84.54l.88.41a2,2,0,0,1,.26.26,2.13,2.13,0,0,1-.56.38,13.51,13.51,0,0,1-4.15.47,4,4,0,0,1-.69-.1.76.76,0,0,1-.61-.82.73.73,0,0,1,.68-.76c.42,0,.84,0,1.26,0Z"/><path class="cls-1" d="M67.86,67.14c.85.3,1.46.52,2.07.72s1.23.41,1.85.59a14.22,14.22,0,0,1,1.73.47c.57.25,1.31,0,1.76.61a1.13,1.13,0,0,1-1,.42,13.56,13.56,0,0,1-5.64-1.32,1.77,1.77,0,0,1-.7-.63C67.8,67.85,67.87,67.59,67.86,67.14Z"/><path class="cls-1" d="M93.41,75c-2,1.2-4.14.6-6.32.52l-.73-.78c.18-.26.23-.41.34-.46a1,1,0,0,1,.52-.15,11.46,11.46,0,0,1,2.5.23,20.14,20.14,0,0,0,3.16.49A3.51,3.51,0,0,1,93.41,75Z"/><path class="cls-1" d="M91.54,87.51a10.66,10.66,0,0,1,.54-1.43.76.76,0,0,1,1.36,0,11.09,11.09,0,0,1,.74,1.65c.23.64-.07,1.17-.8,1.59a1.08,1.08,0,0,1-1.47-.36A1.52,1.52,0,0,1,91.54,87.51Z"/><path class="cls-1" d="M85.39,71.29c-.27.15-.42.31-.56.3-1.72-.12-3.43-.23-5.13-.4a1.24,1.24,0,0,1-1.07-.78.58.58,0,0,1,.66-.58,9.85,9.85,0,0,1,1.8.13c1.17.24,2.33.55,3.49.86A3.81,3.81,0,0,1,85.39,71.29Z"/><path class="cls-1" d="M86.53,72.39c.08-.29.13-.5.17-.65s.26-.15.34-.14c1.71.11,3.43.23,5.14.38.22,0,.43.24.75.43a3.27,3.27,0,0,1-2.08.53,16.93,16.93,0,0,0-2.36.09A2.83,2.83,0,0,1,86.53,72.39Z"/><path class="cls-1" d="M102,75.07a.82.82,0,0,1-1.27.2,2.9,2.9,0,0,1-.76-1,6.53,6.53,0,0,1-.39-1.18c-.17-.6,0-1.05.31-1.24a1.33,1.33,0,0,1,1.42.24,1.89,1.89,0,0,1,.57,1.24c0,.31-.06.64,0,1A4.25,4.25,0,0,0,102,75.07Z"/><path class="cls-1" d="M93.58,71.11A.76.76,0,0,1,93.32,70a2.87,2.87,0,0,1,2.19-.59c.7.08,1.39.12,2.09.19a.8.8,0,0,1,.78.49c0,.43-.38.5-.68.54-.51.08-1,.07-1.53.13C95.3,70.85,94.43,71,93.58,71.11Z"/><path class="cls-1" d="M85.52,80.39c.2-.2.29-.37.39-.38.78-.06,1.56-.09,2.55-.14.93-.45.93-.45,3.05-.51l.15.33c-.08.1-.12.2-.2.23-.89.39-1.8.75-2.7,1.13a.85.85,0,0,1-1-.16l-1.34.36C86.1,81,85.84,80.71,85.52,80.39Z"/><path class="cls-1" d="M64.09,81.58a1.9,1.9,0,0,1,2-.71c.77.14,1.54.31,2.31.47a1.07,1.07,0,0,1,.92,1,5.6,5.6,0,0,1-.82.12,10.88,10.88,0,0,0-2.21,0A2.34,2.34,0,0,1,64.09,81.58Z"/><path class="cls-1" d="M93.76,83.34a1.65,1.65,0,0,1-1.34,1c-.38-.45-.75-.86-1.09-1.3a1,1,0,0,1,.1-1.39,1,1,0,0,1,1.5,0A2.64,2.64,0,0,1,93.76,83.34Z"/><path class="cls-1" d="M78.45,75c1.29-.21,2.45-.85,3.82-.3-.09.2-.12.41-.24.48a5.71,5.71,0,0,1-2.79.77.86.86,0,0,1-.61-.27C78.51,75.53,78.52,75.27,78.45,75Z"/><path class="cls-1" d="M71.79,84.84a3.54,3.54,0,0,1-2.14-.15c-.75-.31-1.73,0-2.24-.87,0-.41.19-.58.5-.53a10.64,10.64,0,0,1,1.48.36c.83.28,1.65.59,2.47.89C71.83,84.64,71.81,84.74,71.79,84.84Z"/><path class="cls-1" d="M96.29,75.19c.75-.16,1.15.17,1.32,1a6.45,6.45,0,0,0-.62.65,4.38,4.38,0,0,0-.38.75,2.13,2.13,0,0,1-.7-.07c-.43-.19-.55-.59-.62-1.1Z"/><path class="cls-1" d="M98.27,73.35c-.31.75-1,.83-1.5,1.21l-.7-.72a1.18,1.18,0,0,1,1-1.12C97.6,72.61,97.93,72.9,98.27,73.35Z"/><path class="cls-1" d="M85.55,80.49l-.83.65-1.14.14-.41-.38a1.17,1.17,0,0,1,1.13-1.08A1.06,1.06,0,0,1,85.55,80.49Z"/><path class="cls-1" d="M64.47,83.49c-.49.71-1.12.62-1.69.75a2.55,2.55,0,0,1-.41-.38,4.88,4.88,0,0,1-.27-.71,1.85,1.85,0,0,1,2.37.34Z"/><path class="cls-1" d="M94.19,83.77c.57.13.57.13.79.71-.14.08-.29.22-.42.21a.59.59,0,0,1-.4-.3A1.9,1.9,0,0,1,94.19,83.77Z"/><path class="cls-1" d="M63.2,207.81c-.7.73-1.62,0-2.3.47l0,.42a7.78,7.78,0,0,0,2.33.38c.73.15,1.44.35,2.24.54a2.25,2.25,0,0,0,1.16,1c1,.35,1.89.79,2.85,1.14a2,2,0,0,1,1.09.81,7.58,7.58,0,0,1-5.74-2.12c-.78.06-1.62.16-2.45.16a8.08,8.08,0,0,1-2.08-.21,1.24,1.24,0,0,1-.58-2.08L60,208c-.45-.16-.85-.29-1.23-.45a2.74,2.74,0,0,1-.59-.36.79.79,0,0,1-.23-.89.67.67,0,0,1,.68-.4,10.6,10.6,0,0,1,4.21,1.33C63,207.36,63.06,207.61,63.2,207.81Z"/><path class="cls-1" d="M69,201.1c-.59.51-1.22.38-1.83.5.52.79,1.66.28,2.06,1.23a3,3,0,0,1-1.84.39c-1.57,0-3.15.05-4.68.08L61,202.8a1.27,1.27,0,0,1,.19-.46A5.26,5.26,0,0,1,65,200.81,27.67,27.67,0,0,1,69,201.1Zm-3.09.61a3,3,0,0,0,.37.35s.13-.05.19-.09a.17.17,0,0,0,0-.11Zm-1,0,0,.1.11,0Z"/><path class="cls-1" d="M70.46,214.19a1.58,1.58,0,0,1,1.53-.74,10.59,10.59,0,0,0,3.46-.4,2.9,2.9,0,0,1,2,.12l-.24.8.78.46a2.87,2.87,0,0,1-1.57.93,10.71,10.71,0,0,1-4,0A2.79,2.79,0,0,1,70.46,214.19Z"/><path class="cls-1" d="M75.88,208.07a1.62,1.62,0,0,1-1.19.47c-1.19.13-2.39.22-3.59.34a5.93,5.93,0,0,0-.81.19l-1.38.38c-.67-.21-1.15-.48-1.08-1.19A1.62,1.62,0,0,1,69.19,207a22.42,22.42,0,0,1,4.56.05,4.13,4.13,0,0,1,1.85.57C75.73,207.74,75.79,207.93,75.88,208.07Z"/><path class="cls-1" d="M88.11,210.79a3.21,3.21,0,0,1-.38.46,16.86,16.86,0,0,1-4.7,2.36,2.27,2.27,0,0,1-1.75-.14,1.18,1.18,0,0,1-.13-1.43,3,3,0,0,1,1.78-.77c1.39-.38,2.8-.68,4.21-1C87.55,210.15,87.87,210.24,88.11,210.79Z"/><path class="cls-1" d="M84.53,210.14a1.22,1.22,0,0,1-.24-1.15,1.45,1.45,0,0,1,.84-.89,25.18,25.18,0,0,1,2.78-.93,1.65,1.65,0,0,1,1.77.56,1.15,1.15,0,0,1-.77,1.07c-1.25.47-2.52.93-3.79,1.38A1.79,1.79,0,0,1,84.53,210.14Z"/><path class="cls-1" d="M81.94,205a3.75,3.75,0,0,1-.88.43c-1.38.19-2.76.34-4.14.49-.48.05-.72-.08-1.61-.67.26-.87.39-1,1-1,1.67.1,3.33.26,5,.41C81.46,204.65,81.57,204.76,81.94,205Z"/><path class="cls-1" d="M88.05,206.1c-.17.48-.62.51-1,.6a4.15,4.15,0,0,1-2.94-.12c.1-.15.16-.4.27-.42,1-.19,1.92-.37,2.88-.5A.68.68,0,0,1,88.05,206.1Z"/><path class="cls-1" d="M80,210.38c-.68.38-1.27,0-1.87-.18a1,1,0,0,1-.69-.79.57.57,0,0,1,.69-.52,2.72,2.72,0,0,1,1.85,1.1C80,210.08,80,210.25,80,210.38Z"/><path class="cls-1" d="M64.76,205a5.91,5.91,0,0,1,.58.21.54.54,0,0,1,.3.68.62.62,0,0,1-.76.4.64.64,0,0,1-.47-.72.6.6,0,0,1,.1-.25C64.58,205.24,64.68,205.14,64.76,205Z"/><path class="cls-1" d="M90.67,51.07a5.34,5.34,0,0,1-.61.48,34.37,34.37,0,0,0-3,2.07c-1,.66-1.73,1.68-2.8,2.27a2.62,2.62,0,0,0-.8.94,15.62,15.62,0,0,1-3.81,4.25,4.34,4.34,0,0,1-.45.2l-.5-.47a25.31,25.31,0,0,1,4.48-4.42,3.81,3.81,0,0,1,1-2.26,10.32,10.32,0,0,1,1.65-1.29c.9-.57,1.87-1,2.79-1.59A2.28,2.28,0,0,1,90.67,51.07Z"/><path class="cls-1" d="M72.72,46a1.81,1.81,0,0,1-.14.46c-2,2.7-3.56,5.66-5.37,8.4-.45,0-.62-.26-.61-.55a3.24,3.24,0,0,1,.21-1.08,18.43,18.43,0,0,1,4.55-6.8,3,3,0,0,1,.82-.5C72.31,45.9,72.51,46,72.72,46Z"/><path class="cls-1" d="M84.09,59.71l-.35-.38a2.58,2.58,0,0,1,1.1-2A6.22,6.22,0,0,1,87,56a2.91,2.91,0,0,0,.73-.4,8.5,8.5,0,0,1,3.57-1.09c-.13.28-.15.48-.26.57a17.68,17.68,0,0,1-1.54,1.2,44.39,44.39,0,0,0-4.88,3.24A2.07,2.07,0,0,1,84.09,59.71Z"/><path class="cls-1" d="M74.83,50.17c-.47-.07-.59-.41-.53-.81a2.23,2.23,0,0,1,.31-.77A12.88,12.88,0,0,1,79,44.42a1,1,0,0,1,1.35.12,2.44,2.44,0,0,1-.28.69,5,5,0,0,1-.74.63c-1.52,1.3-2.85,2.79-4.27,4.19A.79.79,0,0,1,74.83,50.17Z"/><path class="cls-1" d="M73.47,49.34a1.74,1.74,0,0,1-.26-2.08,8.24,8.24,0,0,1,1.63-2.08A20.41,20.41,0,0,1,77,43.36a3.47,3.47,0,0,1,.76-.32c.12.14.28.23.29.33a1,1,0,0,1-.12.65c-.88.83-1.56,1.84-2.35,2.75a13.15,13.15,0,0,0-1.49,2A3.35,3.35,0,0,1,73.47,49.34Z"/><path class="cls-1" d="M81.26,54.31c-.37-.18-.78-.37-1.19-.58a.67.67,0,0,1-.37-.82.69.69,0,0,1,.78-.45,9.6,9.6,0,0,1,1.11.45c.38-.32.8-.68,1.23-1A7.47,7.47,0,0,1,86,50.41a.9.9,0,0,1,.38.1s0,.07.11.18a2.21,2.21,0,0,1-1,1C84.05,52.6,82.66,53.44,81.26,54.31Z"/><path class="cls-1" d="M80.27,48.66a.63.63,0,0,1-.41-.94,2.93,2.93,0,0,1,2.28-1.62c.54-.13,1.09-.2,1.76-.32.41.34,1.28,0,1.73.78-.82.72-1.88.63-2.77.94A17.33,17.33,0,0,1,80.27,48.66Z"/><path class="cls-1" d="M95,44.91a1.91,1.91,0,0,1-1.27.42c-1.5,0-2.92.48-4.39.65a3,3,0,0,1-.57,0,1,1,0,0,1,.6-1.26,5.71,5.71,0,0,1,2.82-.62c.73.1,1.48.12,2.22.21C94.75,44.31,95.07,44.45,95,44.91Z"/><path class="cls-1" d="M69.41,56.1c-.15-.36-.39-.65-.33-.83a8.37,8.37,0,0,1,3.21-4.59.73.73,0,0,1,.26-.09.32.32,0,0,1,.13,0c.06.06.15.11.19.18a.37.37,0,0,1,0,.27,30,30,0,0,1-2.83,4.63A3.09,3.09,0,0,1,69.41,56.1Z"/><path class="cls-1" d="M88.92,50.56c-.38-.36-.31-.62-.12-.85a4.8,4.8,0,0,1,1.92-1.36,17.93,17.93,0,0,1,2.4-.72,3.14,3.14,0,0,1,1.1,0c.15,0,.26.21.47.39-.86.84-2,.83-2.93,1.3S89.89,50.15,88.92,50.56Z"/><path class="cls-1" d="M75.54,58.3a4.49,4.49,0,0,1-.22-.67,1.46,1.46,0,0,1,.41-1.15,17.15,17.15,0,0,1,3-2.88c.06,0,.17,0,.27,0a.39.39,0,0,1,.09.6c-.43.71-1,1.37-1.33,2.12a4.74,4.74,0,0,1-1.48,1.63A4.24,4.24,0,0,1,75.54,58.3Z"/><path class="cls-1" d="M87.79,48.27a2.53,2.53,0,0,1-1.3.87c-1,.35-1.93.64-2.91.91a2.79,2.79,0,0,1-.87-.12,3.57,3.57,0,0,1,.28-.84,2.14,2.14,0,0,1,.63-.52,7.42,7.42,0,0,1,3.9-.58C87.59,48,87.64,48.11,87.79,48.27Z"/><path class="cls-1" d="M71.87,58.62A33.28,33.28,0,0,1,74,55c.45-.06.59.22.53.5a8.3,8.3,0,0,1-1.49,3.57C72.7,59.56,72.25,59.4,71.87,58.62Z"/><path class="cls-1" d="M72.41,54.25c0,.07.14.16.13.22a24.07,24.07,0,0,1-1.76,4.09c-.36.12-.52-.07-.6-.38a2.84,2.84,0,0,1,.35-2,4.57,4.57,0,0,1,1.62-1.9C72.21,54.21,72.32,54.25,72.41,54.25Z"/><path class="cls-1" d="M74.55,60.9l.84-.54a2.48,2.48,0,0,1,1.39.5.58.58,0,0,1,0,.76,6,6,0,0,1-1.17,1,.81.81,0,0,1-1.21-.69,1.48,1.48,0,0,1,0-.42A5.48,5.48,0,0,1,74.55,60.9Z"/><path class="cls-1" d="M78.47,49.62A8.46,8.46,0,0,1,76.24,52c-.39-.07-.48-.28-.41-.52a2.11,2.11,0,0,1,.4-.87,11.15,11.15,0,0,1,1.46-1.28C77.92,49.11,78.22,49.12,78.47,49.62Z"/><path class="cls-1" d="M87.2,58.68c.12-.18.18-.4.32-.47.65-.3,1.2-.86,2-.75.28,0,.6-.22.92-.25s.52.14.5.58a13.69,13.69,0,0,1-3.37,1.09C87.51,58.9,87.38,58.77,87.2,58.68Z"/><path class="cls-1" d="M81.85,61l1.2-.52.89,1.07a2,2,0,0,1-1.08,1.11A1.34,1.34,0,0,1,81.85,61Z"/><path class="cls-1" d="M87.71,60.11l.29.32c-.39,1-1.27,1-1.78,1.46-.57-.26-.53-.56-.3-.85C86.32,60.53,86.65,60.37,87.71,60.11Z"/><path class="cls-1" d="M80.51,51.3c-.69.23-.69.23-1.43-.85a1.32,1.32,0,0,1,.12-.35c0-.06.15-.09.23-.14s.2,0,.25,0C80,50.4,80.64,50.61,80.51,51.3Z"/><path class="cls-1" d="M93.79,51l-.27.35a.93.93,0,0,1-.91-.83c0-.19,0-.27.48-.61A2.15,2.15,0,0,1,93.79,51Z"/><path class="cls-1" d="M62.59,135.79a1.85,1.85,0,0,0-.06-.42,7.31,7.31,0,0,1-.41-4.26,7.73,7.73,0,0,1,.26-1.08c.18-.58.37-1.15.56-1.73a4.94,4.94,0,0,1,.94-1.71,8.36,8.36,0,0,0,1.7-2.86,1.9,1.9,0,0,1,2.6-1.15,8.44,8.44,0,0,0,1,.41,4.51,4.51,0,0,0,1,0,2.91,2.91,0,0,1,1.52,1.39c.43.75,1.14,1.4,1,2.38-.16.2-.33.11-.49,0a5.65,5.65,0,0,1-1.8-1.93,3.67,3.67,0,0,0-.38-.51l-2.66.12a2.1,2.1,0,0,0-.88,1.88c1.19-.57,1.19-.57,1.83-.15l-.23.46a4.07,4.07,0,0,0-.43.86,15.58,15.58,0,0,0-.42,6.37c.13.77.18,1.54.31,2.4a1.38,1.38,0,0,1-1.22-.91c-.13-.3-.17-.64-.31-.93a3.83,3.83,0,0,0-.54-.66l-2.13.87,0,1-.78.15Zm2.55-8.4c-1,1.08-1.19,2.45-1.59,3.7,0,.19-.13.46.18.6.57-.35,1.15-.71,1.76-1.07C65.56,129.55,66,128.45,65.14,127.39Zm.18,4.23a3.25,3.25,0,0,0-.45.29c-.12.13-.29.26-.06.5l.73-.21Z"/><path class="cls-1" d="M80.54,134.52c0-.41,0-.78,0-1.14,0-1-.08-2-.13-3.07a13.14,13.14,0,0,0-.13-1.54,22.43,22.43,0,0,0-1.85-5.69,8.08,8.08,0,0,0-.66-.91c-.2-.3-.19-.33,0-1.09a1.16,1.16,0,0,1,1.37.31,4.05,4.05,0,0,1,.58.78c.42.78.82,1.57,1.22,2.36a.75.75,0,0,1,.06.13c.34,2,1.17,4,.9,6.06a11.91,11.91,0,0,1-.58,3.3A.64.64,0,0,1,80.54,134.52Z"/><path class="cls-1" d="M90.58,126.84a1.51,1.51,0,0,1,.49,1.55L91,129.91l.89,1a6.09,6.09,0,0,1-1.27,5.93,3.09,3.09,0,0,1-.48-.13,2.08,2.08,0,0,1-.36-.29,5.67,5.67,0,0,1,.66-3.69l-.56-.36a5.35,5.35,0,0,1-.46-2.7,3.92,3.92,0,0,1,.77-2.48A1.64,1.64,0,0,1,90.58,126.84Z"/><path class="cls-1" d="M60.3,131.73a.62.62,0,0,1-.4-.85,14.43,14.43,0,0,1,.66-2.42,24.2,24.2,0,0,1,3.28-5.68,9,9,0,0,1,1.51-1.44,1.74,1.74,0,0,1,1.84-.31c.14.06.22.24.39.43a3.83,3.83,0,0,1-.57.29,2.08,2.08,0,0,0-1.17.74,26.11,26.11,0,0,0-3.14,4.09,28.56,28.56,0,0,0-2,4.32A8.06,8.06,0,0,1,60.3,131.73Z"/><path class="cls-1" d="M77.28,136.69a5.83,5.83,0,0,0-1,.12,5.19,5.19,0,0,0-.82.37.47.47,0,0,1-.16-.76c.41-.61.87-1.2,1.33-1.78a5.48,5.48,0,0,1,.6-.58,6.3,6.3,0,0,0,.28-2.35c0-.93-.13-1.85-.2-2.78a5.84,5.84,0,0,1,.21-2.43c.34-.1.53,0,.59.28a11.65,11.65,0,0,1,.34,1.64,9.75,9.75,0,0,1,0,4,1.65,1.65,0,0,0,0,.82,3,3,0,0,1-.4,2.28C77.78,135.92,77.51,136.3,77.28,136.69Z"/><path class="cls-1" d="M70.21,132.85c0-.56,0-1-.06-1.46a2.51,2.51,0,0,1,1.2-1.33l.59-1.25,1.24-.34c.52.26,1.17.4,1.09,1.12s-.72.66-1.17.85a3.11,3.11,0,0,1-.81.21,1.41,1.41,0,0,0-1,.78c.26.64.5,1.35.82,2s.73,1.29,1.09,1.93c0,.31-.26.35-.51.35a1.25,1.25,0,0,1-1.14-.68C71.09,134.34,70.67,133.62,70.21,132.85Z"/><path class="cls-1" d="M90.89,125.89a2.73,2.73,0,0,1-.73-.25,1.75,1.75,0,0,1-.37-.58,10.87,10.87,0,0,0-1.63-2.28,9.15,9.15,0,0,1-.8-1c-.36-.53-.27-.84.36-1.42a1.6,1.6,0,0,1,1.39.8,15.87,15.87,0,0,1,1.83,4.07A3,3,0,0,1,90.89,125.89Z"/><path class="cls-1" d="M80.38,121.63l.53-.39a5.34,5.34,0,0,1,2.1,3.12c.33,1.14.83,2.28.4,3.53-.49-.07-.53-.46-.58-.75a10.64,10.64,0,0,0-1-2.74C81.39,123.52,80.92,122.67,80.38,121.63Z"/><path class="cls-1" d="M85.87,136.45c-.24-1.23,0-2.43.89-4.33A1.9,1.9,0,0,1,87.91,131a3.17,3.17,0,0,1,0,1.68c-.23,1-.54,2-.85,2.93a1.51,1.51,0,0,1-.45.68C86.4,136.39,86.11,136.38,85.87,136.45Z"/><path class="cls-1" d="M72.46,121.92a1.3,1.3,0,0,1,1.62.07c1,.91,2,1.83,1.76,3.45a1.33,1.33,0,0,1-1-.58,14.92,14.92,0,0,0-2.17-2.32C72.51,122.43,72.52,122.14,72.46,121.92Z"/><path class="cls-1" d="M83.42,130.52h.77a4,4,0,0,1,.27,2.19C83.31,132.49,83.11,132.1,83.42,130.52Z"/><path class="cls-1" d="M73.86,134.14c-.62-1.31-.61-1.37.18-2.07.51.47.3,1.11.49,1.72Z"/><path class="cls-1" d="M85.42,126.82c-.33.62-.33.62-.84.18C84.79,126.6,85.06,126.56,85.42,126.82Z"/><path class="cls-1" d="M81.56,166.31l.3-.26c.58,0,.9-.43,1.32-.72a7,7,0,0,1,3.26-1.41c.67.56.72,1,.13,1.29a60.76,60.76,0,0,0-6.07,4c-.7.46-1.42.89-2.14,1.32a2.06,2.06,0,0,1-.46.15.54.54,0,0,1,.1-.81c.59-.58,1-1.35,1.77-1.77.14-.07.19-.3.28-.46l.3-.26.31-.26.3-.25A.57.57,0,0,0,81.56,166.31Z"/><path class="cls-1" d="M86.14,171.31a1.09,1.09,0,0,1-1.25.41c0-.32.06-.66.08-1C85.84,170.61,85.84,170.61,86.14,171.31Z"/><path class="cls-1" d="M86,178.5c.22.41.45.81.65,1.23a19.68,19.68,0,0,1,.91,2.05,2.8,2.8,0,0,1,.07,1.65,6.78,6.78,0,0,0-.1,1.19l1.51-.16c.07.12.15.26.27.49-.87.31-1.62.67-2.41.18-.35-1.12-.76-2.17-1-3.25A22.53,22.53,0,0,0,84.58,179c.31-.65.86-.47,1.36-.47Z"/><path class="cls-1" d="M78.53,192.37a.55.55,0,0,1-.77-.33,2.44,2.44,0,0,1-.09-1.51c.14-.77.34-1.53.54-2.29a1.79,1.79,0,0,1,.34-.6,1.44,1.44,0,0,1,.38-.27c.11.17.28.31.28.46A12.1,12.1,0,0,1,78.53,192.37Z"/><path class="cls-1" d="M75.2,179.55l.59-.32c1.19.31,1.4,1.38,1.85,2.21a1.78,1.78,0,0,1,.11,1.94c-.2-.12-.45-.18-.56-.34-.67-1-1.32-2-2-3C75.18,179.92,75.21,179.81,75.2,179.55Z"/><path class="cls-1" d="M73.84,186.05a4.51,4.51,0,0,1-1.1-1.73c-.31-.87-.55-1.77-.77-2.66-.12-.45,0-.56.48-1,.4.07.48.42.56.71.37,1.34.7,2.68,1,4C74.07,185.52,74,185.69,73.84,186.05Z"/><path class="cls-1" d="M81.52,180.68a4.5,4.5,0,0,1,.91,4.14c-.61-.07-.84-.61-1-1a5.68,5.68,0,0,1-.3-2.59C81.15,181.06,81.34,180.92,81.52,180.68Z"/><path class="cls-1" d="M84.37,185.09a3.35,3.35,0,0,1-.67-.26,2,2,0,0,1-.59-1.38c-.13-.6-.06-.69.62-1.09C84.14,183.2,84.84,183.94,84.37,185.09Z"/><path class="cls-1" d="M79.72,184.68a2.41,2.41,0,0,1,.68-.06.61.61,0,0,1,.45.63c0,.59,0,1.19,0,1.77-.22.25-.43.14-.63,0a.9.9,0,0,1-.5-.78C79.71,185.77,79.72,185.26,79.72,184.68Z"/><path class="cls-1" d="M86.4,156.4c-.33.65-1,.49-1.62.74a6.12,6.12,0,0,1,.84.73.72.72,0,0,1,.12.63.7.7,0,0,1-.49.41,1.84,1.84,0,0,1-1-.09,11.16,11.16,0,0,1-1.6-.85c-.43-.27-.81-.61-1.26-1l-1.92-.16a5.36,5.36,0,0,1-.7-.09.76.76,0,0,1-.61-.82.78.78,0,0,1,.8-.79c.24,0,.47,0,.7,0l2,0a1.22,1.22,0,0,1,.27,0l3,.41C85.68,155.7,85.68,155.7,86.4,156.4Z"/><path class="cls-1" d="M75.48,149.15s.07-.08.11-.08c1.25,0,2.5,0,3.75-.07a19.58,19.58,0,0,1,3.58.53,9.85,9.85,0,0,1,1.73.53c.14.05.22.26.37.46a16,16,0,0,1-1.87.64,5.27,5.27,0,0,1-1.25,0,23.89,23.89,0,0,1-4.7-.68,9.63,9.63,0,0,1-1.46-.49C75.47,149.86,75.44,149.73,75.48,149.15Z"/><path class="cls-1" d="M87.33,145.44a1.65,1.65,0,0,1-.37.14c-.43.06-1-.17-1.23.39a4.53,4.53,0,0,1-2.34.14c-.63-.17-1.28-.24-1.92-.36l-3.57-.68-.87-.16c-.07-.53.27-.64.56-.79,1-.09,1.91.36,2.89.17a.63.63,0,0,1,.4.09c1.17.68,2.55.56,3.77,1a1.57,1.57,0,0,0,.51,0c0-.14.09-.3.13-.46s.07-.35.1-.49a1.24,1.24,0,0,1,1.49-.13C87.21,144.52,87.3,144.76,87.33,145.44Z"/><path class="cls-1" d="M76.82,154.18l-.12-.56a1.68,1.68,0,0,1,1.22-.7,18.65,18.65,0,0,1,2.36-.22c.79,0,1.58,0,2.48,0l.32.4c-.1.15-.14.27-.2.29a10,10,0,0,1-1.75.46A21.43,21.43,0,0,1,76.82,154.18Z"/><path class="cls-1" d="M91,150.45c-.09.21-.15.43-.25.63a1.55,1.55,0,0,1-1.42.95,6.55,6.55,0,0,0-.79.1,1.72,1.72,0,0,1-.86-1c.07-.43.36-.53.71-.55l2.61-.1Z"/><path class="cls-1" d="M88.05,155.51c-.46-.07-.78,0-1-.16a20.29,20.29,0,0,1-1.52-1.41c-.2-.21-.1-.44.33-.78C86.53,153.9,87.64,154.17,88.05,155.51Z"/><path class="cls-1" d="M74.82,147.92l-.18-.42a4,4,0,0,1,2.7-1.17C77.05,147.34,76.26,147.82,74.82,147.92Z"/><path class="cls-1" d="M58.89,180.77c-.16.08-.31.11-.37.2a15.29,15.29,0,0,0-2,3.71,8.71,8.71,0,0,0-.24,1.37,7.53,7.53,0,0,1-.21,1.6c-.38.17-.48-.06-.56-.27a5.67,5.67,0,0,1,.26-3.95,10.29,10.29,0,0,1,2-3.19,1.73,1.73,0,0,1,1.57-.59l.78.73a11,11,0,0,0-.27,5.27c.16,1.06.29,2.11.42,3.13-.29.27-.54.17-.61-.06-.35-1.2-.72-2.4-1-3.63a8.67,8.67,0,0,1-.12-2.22A18.82,18.82,0,0,1,58.89,180.77Z"/><path class="cls-1" d="M64.51,181.38l.41.2c0,.15.11.24.09.32a7.11,7.11,0,0,0,.37,3.3c.22,1,.55,1.89.82,2.83.08.26.16.54-.14.74,0,0-.12,0-.13,0a14.11,14.11,0,0,0-1.85-2.08,15.88,15.88,0,0,1-2.09-3,7,7,0,0,1-.92-3.24c.42-.4.85-.69,1.45-.18.13.58-.26,1.15,0,1.77a12.41,12.41,0,0,0,1.15,1.82C63.67,182.18,63.67,182.18,64.51,181.38Z"/><path class="cls-1" d="M64,191.68c-.39-.12-.6-.13-.72-.24a6.74,6.74,0,0,1-2.18-3.8,2.82,2.82,0,0,1,0-1c0-.15.21-.27.31-.4a1.56,1.56,0,0,1,.89.93c.52,1.23,1,2.48,1.53,3.72A3.82,3.82,0,0,1,64,191.68Z"/><path class="cls-1" d="M68.62,190.91c-.22-.65-.42-1.31-.67-2a2.54,2.54,0,0,1-.1-1.76c0-.11.16-.2.31-.39a3.77,3.77,0,0,1,.49.67,36.74,36.74,0,0,1,1.51,4.1c-.26.27-.48.13-.66,0s-.59-.44-.88-.67Z"/><path class="cls-1" d="M53.56,225c.41.75-.49,1-.62,1.42a3.57,3.57,0,0,0,.1,2.28,1.14,1.14,0,0,1-1.21-.67,2.19,2.19,0,0,1,1.4-3.09A1,1,0,0,1,53.56,225Z"/><path class="cls-1" d="M81.09,231c.11.31.19.57.27.8a1.41,1.41,0,0,1-.15.28A9.24,9.24,0,0,1,79,233.7a3,3,0,0,1-2.15.4,1.24,1.24,0,0,1-1-.89l.27-.48a3.2,3.2,0,0,0,2.88-.2l-.85-.57c.14-.33.29-.65.49-1.11,0-.18,0-.5,0-.81.08-.13.15-.26.23-.37a21,21,0,0,1,2.71-2.62,6.78,6.78,0,0,1,2.48-1.26,1.63,1.63,0,0,1,1.53.21c-.53,1.05-1.61,1.55-2.27,2.42S81.78,230.14,81.09,231Z"/></g></g></svg>