<svg xmlns="http://www.w3.org/2000/svg" viewBox="0 0 147.51 266.12"><defs><style>.cls-1{fill:#d1b788;}</style></defs><g id="Layer_2" data-name="Layer 2"><g id="OBJECTS"><path class="cls-1" d="M124.39,230.89c-.15,1-.12,2-1.13,2.54a4.08,4.08,0,0,1-.89,2.17,5.14,5.14,0,0,0-1,3.79,3.61,3.61,0,0,1-.51,2.56,5,5,0,0,0-.74,1.93,6.87,6.87,0,0,1-1.26,3,1.09,1.09,0,0,0-.22.39c-.27,1.4-1.21,2.49-1.74,3.78a23.84,23.84,0,0,1-1.55,2.53,6.93,6.93,0,0,1-1.85,2.11,2.85,2.85,0,0,0-.6.65,11.54,11.54,0,0,1-3,2.88c-.83.62-1.69,1.21-2.53,1.82a16.37,16.37,0,0,1-5.22,2.47c-.43.12-.83.31-1.25.46a1.69,1.69,0,0,1-.56.19,17.45,17.45,0,0,0-2.3.52c-1.76.25-3.47.77-5.24.94-1,.11-2,.29-3.08.44a14.78,14.78,0,0,1-3.7,0,8.58,8.58,0,0,0-2.37-.15,2.68,2.68,0,0,1-.89-.07,7.69,7.69,0,0,0-2.79-.19,4.61,4.61,0,0,1-1.47-.13c-2-.4-3.89-.83-5.84-1.22a7.08,7.08,0,0,0-1.17-.07L69,263.51a8.14,8.14,0,0,1-2.74-1.14,8.63,8.63,0,0,0-1.28-.76A8.52,8.52,0,0,1,62.69,260a1.62,1.62,0,0,1-.17-.54,2.07,2.07,0,0,0-1.39-2.07,2.84,2.84,0,0,1-1.31-1.59,6.2,6.2,0,0,0-1.54-2.34c-.37-1-1.22-1.65-1.66-2.61A12.44,12.44,0,0,0,55,248.54,3.53,3.53,0,0,1,54,247c-.05-.26-.32-.49-.51-.72a3.7,3.7,0,0,1-.79-1.41,2.87,2.87,0,0,0-.69-1.12,7.78,7.78,0,0,1-1.29-2,8.44,8.44,0,0,0-.69-1.14,54.69,54.69,0,0,1-3.52-5.71,20.61,20.61,0,0,0-2.1-3.58,19.71,19.71,0,0,1-2-3.78,1.93,1.93,0,0,0-.26-.54c-1.15-1.39-1.72-3.12-2.65-4.64a7.57,7.57,0,0,1-.49-1.08,6,6,0,0,0-1-1.68,3.9,3.9,0,0,1-.95-2A6.81,6.81,0,0,0,36,215.39c-.11-.22-.33-.42-.35-.64a13.25,13.25,0,0,0-1.65-4c-1.36-2.87-2.88-5.66-4.33-8.5a7.93,7.93,0,0,1-.37-1c-.17-.46-.34-.93-.52-1.39a3.76,3.76,0,0,1-.25-.54A15.11,15.11,0,0,0,26.65,195c-.8-1.43-1.34-3-2.11-4.42-.56-1.05-1-2.17-1.49-3.25a1.77,1.77,0,0,1-.15-.42,10.94,10.94,0,0,0-1.69-4.1,2.86,2.86,0,0,1-.27-.52c-.28-.85-.58-1.7-.8-2.56A7.3,7.3,0,0,0,19,176.87a.59.59,0,0,1-.14-.27,16.22,16.22,0,0,0-1.12-3.67,36.08,36.08,0,0,0-1.27-4.43,2.77,2.77,0,0,1-.2-.87,16.51,16.51,0,0,0-1.59-5.08,4.67,4.67,0,0,1-.43-1.42c-.17-1.33-.8-2.55-.85-3.9-.8-1.41-.52-3.15-1.4-4.54a2.85,2.85,0,0,1-.2-.86,3.4,3.4,0,0,0-.23-.86,13,13,0,0,1-1.23-4,26.85,26.85,0,0,0-.7-2.74A9.58,9.58,0,0,1,9,140.79a2.43,2.43,0,0,0-.17-1,3.13,3.13,0,0,1-.28-1.88.66.66,0,0,0-.05-.44,5.43,5.43,0,0,1-.42-2.32,7.33,7.33,0,0,0-.48-2.48,6.21,6.21,0,0,1-.21-1.17c-.11-.53-.24-1.06-.36-1.59a3.45,3.45,0,0,1-.14-.42c-.15-1.23-.29-2.45-.45-3.67a5.64,5.64,0,0,0-.27-1.31,3.9,3.9,0,0,1-.4-1.87,1.23,1.23,0,0,0-.26-.83,1.63,1.63,0,0,1-.34-1.26,12.8,12.8,0,0,0-.8-4.07,6,6,0,0,1-.25-1,45.53,45.53,0,0,0-.9-4.51c-.27-1.67-1.12-3.2-1.08-4.92-.74-2.09-.67-4.32-1-6.47-.1-.64-.23-1.27-.33-1.91a6,6,0,0,1-.06-.73,3.29,3.29,0,0,0,0-.89C.18,94.45.59,92.77.08,91.2a4.56,4.56,0,0,1,0-1.33c0-.89,0-1.78,0-2.67,0-1.39,0-2.79-.07-4.17a10.27,10.27,0,0,1,0-1.47c.07-1.14.13-2.27.18-3.41,0-.84.07-1.69.06-2.53,0-1.29-.07-2.57-.11-3.86,0-.2,0-.39,0-.59A16.89,16.89,0,0,0,.31,67a11.29,11.29,0,0,0,.35-3c0-.54,0-1.09.06-1.63a4.1,4.1,0,0,1,.34-1.29,6.2,6.2,0,0,0,.39-2c.08-.78.05-1.58.1-2.37A3.52,3.52,0,0,1,1.73,56,4.38,4.38,0,0,0,2,54.75c-.08-1.19.5-2.34.15-3.53a3.38,3.38,0,0,1,.4-2.58,29.53,29.53,0,0,0,2-4.48A16.85,16.85,0,0,0,5.26,42,8,8,0,0,1,7.13,38a3.58,3.58,0,0,0-1.29-1.41,23,23,0,0,1-2.32-1.62,3.82,3.82,0,0,1-.62-.83,3.14,3.14,0,0,1,.32-.71c1-1.24,2-2.44,3.12-3.61a1.78,1.78,0,0,1,1.76-.56,7.59,7.59,0,0,1,2.24.75,13.41,13.41,0,0,0,2.88,1.3c1.27-.61,2.13-1.75,3.36-2.57-.62-.92-1.07-1.89-1.62-2.82S13.54,24,12.85,23a2.44,2.44,0,0,0-.64-.6,3.38,3.38,0,0,1-1.33-3.92q1.3-4.12,2.67-8.22a3,3,0,0,1,.6-1A1.35,1.35,0,0,1,15.79,9,8.33,8.33,0,0,1,17,9.64a46.15,46.15,0,0,1,4.35,3.14c.15.13.36.24.44.4.51,1.05,1.54,1.66,2.11,2.66a2.24,2.24,0,0,0,.43.61c1.48,1.23,2.36,2.93,3.47,4.44.2.28.44.52.68.81a5.33,5.33,0,0,0,1-.39A27.72,27.72,0,0,1,34,19.37a8.18,8.18,0,0,0,1-.39A6.6,6.6,0,0,1,38,18a1.34,1.34,0,0,0,.57-.17,16.19,16.19,0,0,1,5.22-1.67A1.5,1.5,0,0,0,45.2,15a4.74,4.74,0,0,1,1.29-2,3.81,3.81,0,0,1,3.63-1.27,4.66,4.66,0,0,1,3.05,1.51,2.74,2.74,0,0,0,.78-.43,4.6,4.6,0,0,1,2.73-1.4l1.18-.31c.11,0,.26,0,.41.08a12.6,12.6,0,0,0,2.3.61,10.5,10.5,0,0,0,2.24-.32c-.43-.52-.77-1-1.18-1.43a2.7,2.7,0,0,1-.73-2.71c1.34-1.1,2.73-2.3,4.19-3.4a7.75,7.75,0,0,1,1.69-.77,5,5,0,0,1,2.47,1.15,12.35,12.35,0,0,0,1.52.93c.73.42,1.5.79,2.19,1.27A22.16,22.16,0,0,0,75.41,8.2a4.56,4.56,0,0,1,.77.7l1,1a9.13,9.13,0,0,0,3.33-.27,12.74,12.74,0,0,1,3.84-.2,9.63,9.63,0,0,0,2.21-.08,11,11,0,0,1,2.08-.09c1.38,0,2.77,0,4.16,0,.79,0,1.58-.11,2.51-.17.73-1.08,1.57-2.25,2.31-3.48a12.56,12.56,0,0,1,2.42-3,9.77,9.77,0,0,0,1.13-1.19A3.16,3.16,0,0,1,103,0c1.12.13,2.35.3,3.59.42a11.94,11.94,0,0,0,2.81.14,6.52,6.52,0,0,1,2.07.35l.52.92c-.08.39-.15.77-.24,1.15a1.87,1.87,0,0,1-.23.69c-1.44,1.75-2.21,3.87-3.34,5.84a2.34,2.34,0,0,0,1.74.78c1,.16,2,.29,3.08.43a2.29,2.29,0,0,1,.28.09L117,12.13a1.08,1.08,0,0,0,1-.7,20.17,20.17,0,0,1,1.87-3A23.86,23.86,0,0,1,121.61,6a2.83,2.83,0,0,1,2.73-1.14A32.23,32.23,0,0,1,131,6.37a2.58,2.58,0,0,1,1.53,1.14A1.73,1.73,0,0,1,132,9c-.45.46-1,.87-1.38,1.35a21.89,21.89,0,0,0-3.46,5.16c-.23.49-.41,1-.63,1.53a3,3,0,0,0,.5.61,24.91,24.91,0,0,1,4.55,3.83,7.2,7.2,0,0,1,1.05,1.61,26.76,26.76,0,0,1,2,4.61c.66,2.08,1.37,4.15,2.05,6.22a3.93,3.93,0,0,0,.23.71,14.07,14.07,0,0,1,1.19,3.81c.39,1.69.89,3.35,1.3,5,.3,1.25.64,2.49.9,3.76a23.68,23.68,0,0,0,1.08,4.47A7.48,7.48,0,0,1,142,54a8.67,8.67,0,0,0,.58,2.61,16.48,16.48,0,0,1,.67,3.34,10.81,10.81,0,0,0,.58,2.92.58.58,0,0,1,.06.29c-.14,1.31.39,2.53.46,3.82s.27,2.48.4,3.72.29,2.57.43,3.86c.32,2.82.64,5.64.93,8.46.08.74.07,1.48.11,2.48a9.8,9.8,0,0,1,.49,4.43,17.67,17.67,0,0,0,.08,1.78,14.58,14.58,0,0,1,.17,4,.38.38,0,0,0,0,.15c.14,2.23.26,4.46.42,6.69a6,6,0,0,1-.07,2.07,1.66,1.66,0,0,0,.06,1.31,1.28,1.28,0,0,1,.08.59,43.42,43.42,0,0,0,0,5.35c.08,1.28-.06,2.57-.09,3.86a4.59,4.59,0,0,0,0,.74,12.47,12.47,0,0,1-.07,3.71,23.62,23.62,0,0,0-.23,4.6,3.78,3.78,0,0,1-.05.75,14.14,14.14,0,0,0-.07,3.56,3.64,3.64,0,0,1-.05,1c-.15,1.23-.32,2.46-.49,3.69a1.08,1.08,0,0,0,0,.3c.33,1.45-.34,2.83-.34,4.25,0,2.59-.64,5.12-.7,7.71,0,.39,0,.79,0,1.19a6.4,6.4,0,0,1-.51,3.34,2.84,2.84,0,0,0-.2,1c-.18,2.22-.35,4.45-.54,6.67a1.13,1.13,0,0,1-.13.43,6.18,6.18,0,0,0-.4,2.33c0,.44-.1.88-.17,1.32,0,.19-.12.38-.15.57a27.51,27.51,0,0,1-.59,3.8,15.23,15.23,0,0,0-.61,3.67c-.13,2.41-1,4.67-1.27,7a20.66,20.66,0,0,1-.57,2.15c-.42,1.73-.81,3.46-1.22,5.18s-.84,3.48-1.27,5.22a6.72,6.72,0,0,1-.35,1c-.07.19-.22.36-.23.55-.08,1.55-.87,2.94-.93,4.5a2.77,2.77,0,0,1-.52,1.54,2.42,2.42,0,0,0-.36,1c-.45,2.35-1.27,4.59-1.84,6.91a13.4,13.4,0,0,1-1.09,3.55c-.13,1.6-1,3-1.21,4.58a4.91,4.91,0,0,1-.44,1.27,7,7,0,0,0-.91,2.81.48.48,0,0,1-.1.28c-.84,1.25-1,2.81-1.79,4.08a2,2,0,0,0-.31.67c-.31,2-1.43,3.8-2.07,5.73a3.61,3.61,0,0,0-.28.68A3.22,3.22,0,0,1,124.39,230.89ZM81.61,71.21l.33.26c.09.18.07.49.53.32L82,71.46l-.33-.26-.32-.27L81,70.67l-.33-.26a.62.62,0,0,0-.66-.53c-.26-.47-.5-.95-.77-1.42l-1.36-2.27-1.71.75c-.21.09-.48.15-.46.59.69.34,1.44.69,2.16,1.08s1.43.85,2.13,1.27l.66.53.33.27.33.27ZM80,248.8l0,.1,0-.09,0-.1ZM21.39,37.89l.09,0-.09,0a1.58,1.58,0,0,0-.79-1.35l-.4.45A3.27,3.27,0,0,0,21.39,37.89ZM88.77,255l.07.09,0,0a.35.35,0,0,0-.16,0c-.36-.34-.75-.72-1.15-1.07s-.75-.82-1.37-.67c-.38.47-.12.8.22,1A3.61,3.61,0,0,0,88.77,255ZM91.65,36.39l-.08,0c.05.19.11.38.17.57l.17-.07a1,1,0,0,0-.38-.47,4.11,4.11,0,0,0-.18-3,1.25,1.25,0,0,1-.13-.57c0-1-.15-2.07-.23-3.1-.13-1.61,0-3.25,0-4.88,0-.44.13-.89.1-1.33a4.1,4.1,0,0,1,.24-1.9.5.5,0,0,0-.19-.7l-.68.48c-.7.52-.56,1.47-1,2a2,2,0,0,1-1.47.4.78.78,0,0,0-.9.79c.49,1.17,1,2.36,1.51,3.52a4.72,4.72,0,0,1,.5,1.54,2.94,2.94,0,0,0,.19.72c.39,1.07.78,2.14,1.18,3.2A20.81,20.81,0,0,0,91.65,36.39Zm-19.2-1.76.33.27a9.71,9.71,0,0,1,1.56,3.67,9.41,9.41,0,0,1,.25,2.8,12.41,12.41,0,0,1-1.24,4.7,4.42,4.42,0,0,0-.27.53,3.76,3.76,0,0,0,0,.67l2.52.66a4.28,4.28,0,0,1,1.92-2.46c.82-.54,1.73-.94,2.48-1.35.64,0,1.13,0,1.63.08a3.69,3.69,0,0,0,1.5.1c-.23-1-.38-1.9-.68-2.77a23,23,0,0,0-1.8-4.39c-.3-.51-.59-1-.86-1.56-.47-.92-.87-1.88-1.4-2.76A14.57,14.57,0,0,1,77,30.2a2.34,2.34,0,0,0-1.07-1.35,6.19,6.19,0,0,0-5,4.7Zm40.63-2.4a4.16,4.16,0,0,0-1.61,0,12.35,12.35,0,0,1-2,.39,14,14,0,0,0-5.26,2.28,20,20,0,0,0-2.1,1.9,9.2,9.2,0,0,0-2,3.88,1.46,1.46,0,0,0,.09.38,7.16,7.16,0,0,0,1.45.56A5.18,5.18,0,0,1,104,43c.31.25.64.47.93.75A15.2,15.2,0,0,1,107.11,46,15.06,15.06,0,0,1,109,50c.07.24.1.49.45.54.44-.36.89-.74,1.36-1.1a6.26,6.26,0,0,0,1.08-.79,24.7,24.7,0,0,1,2.66-2.35,7.74,7.74,0,0,0,2.32-2.69,2.74,2.74,0,0,1,.81-1.06,19.58,19.58,0,0,0,2-2.22c.09-.09.08-.27.14-.49-.85-.25-1.79-.37-2.12-1.46a4.05,4.05,0,0,1,.42-.7,1.1,1.1,0,0,1,.5-.3.73.73,0,0,1,.44,0,3.39,3.39,0,0,1,.66.33c.25.15.48.33.7.47a2.91,2.91,0,0,0,1.64-2,8.87,8.87,0,0,1-1.17-1.23A7.2,7.2,0,0,0,116,32.05a3.58,3.58,0,0,0-2,.2c.86.34,1.5.57,2.12.86a3.65,3.65,0,0,1,.7.62c-.33.23-.58.54-.79.52a31.93,31.93,0,0,1-3.24-.44c-.21,0-.37-.38-.58-.61l.82-1Zm2.3,213.25a5.24,5.24,0,0,0-.51.3c-1.06.79-2.08,1.67-3.21,2.36a8.17,8.17,0,0,0-2,1.47c-.2.06-.34.12-.48.15A3.11,3.11,0,0,0,107.1,251a2,2,0,0,1-1,.59,15.19,15.19,0,0,0-2.9,1.66c-.22,1.8-.22,1.8-1.42,2.62-.4,0-.8,0-1.19-.06a3.42,3.42,0,0,1-1-.19,5.29,5.29,0,0,1-.92-.65c-.33.18-.64.51-.92.48a3.13,3.13,0,0,0-1.9.74,6.82,6.82,0,0,1-1.34.63c-.85.26-1.75.37-2.58.69a8.53,8.53,0,0,1-4.7,0,2,2,0,0,1-.67-.31c-.66-.43-1.31-.88-2-1.38a5.67,5.67,0,0,1-4.63-1.53,10.94,10.94,0,0,1-.55,1.13,2.26,2.26,0,0,1-2.71,1,5.67,5.67,0,0,1-2.93-2.42c-.09-.15-.22-.28-.29-.38l-3.07,1.71a2.14,2.14,0,0,0-.5.32,3.92,3.92,0,0,1-1.85.9c-.52.15-1,.37-1.54.56a3.4,3.4,0,0,0-1.42.68,5,5,0,0,0,1.72.95c1.18.35,2.33.82,3.51,1.22a2.77,2.77,0,0,0,1.15.22,7.26,7.26,0,0,1,2.32.47,22.79,22.79,0,0,0,2.35.2.92.92,0,0,1,.28.09,7.77,7.77,0,0,0,3.51.48,3.1,3.1,0,0,1,1,.13,30.52,30.52,0,0,0,3.53.48c1.1,0,2.18.18,3.27.17a17.79,17.79,0,0,0,3.24-.38,7.71,7.71,0,0,1,1.59-.22,6.66,6.66,0,0,0,2.33-.28c1.58-.6,3.36-.49,4.83-1.41a.49.49,0,0,1,.29-.05c.93.09,1.7-.45,2.58-.59a4.26,4.26,0,0,0,1.33-.63c.63-.38,1.22-.85,1.86-1.22a17.57,17.57,0,0,0,2.67-2.11c.74-.66,1.39-1.42,2.16-2,1.88-1.5,2.93-3.59,4.06-5.62a12.46,12.46,0,0,0,.76-2.23l0-.1ZM53,126.66A6,6,0,0,1,52.9,128c-.33,1-.69,2-1.11,2.92a10.41,10.41,0,0,0-.8,2.71,1.86,1.86,0,0,1-.14.73,6.44,6.44,0,0,0-.67,2.42,10.27,10.27,0,0,1-.92,3.44.19.19,0,0,0,0,.14c.14.92-.38,1.76-.4,2.62,0,1.8-.78,3.5-.66,5.3-.39.8-.1,1.68-.3,2.5a23.18,23.18,0,0,0-.37,2.48,21.23,21.23,0,0,0-.27,4.71,3.66,3.66,0,0,1-.14.72,11.79,11.79,0,0,0-.12,1.18c0,.4,0,.79,0,1.19a26.5,26.5,0,0,0-.12,2.67c.1,2-.2,3.95,0,5.95.12,1.56-.06,3.15.1,4.72a12.48,12.48,0,0,1,.13,1.61,5.88,5.88,0,0,0,.34,3,1.15,1.15,0,0,1,.1.58c-.15,1.66.59,3.22.48,4.87a2.13,2.13,0,0,0,.14.58c.14.68.31,1.35.41,2a9.91,9.91,0,0,0,.51,2.33,8,8,0,0,1,.54,1.85,17.12,17.12,0,0,0,1,3.84,7.74,7.74,0,0,1,.65,2.74,4.92,4.92,0,0,0,.71,2.26c.27.53.58,1,.82,1.59a34.22,34.22,0,0,1,1.39,3.46c.38,1.23,1,2.35,1.4,3.58.68,2.17,1.85,4.15,2.68,6.28.38,1,.81,1.92,1.23,2.87a3.59,3.59,0,0,0,.54,1,17.23,17.23,0,0,1,2.2,3.69c.56,1,1,2,1.67,3,.8,1.2,1.7,2.33,2.57,3.48a19.08,19.08,0,0,0,1.57,2,48.39,48.39,0,0,1,3.2,4.09A23.06,23.06,0,0,0,73,237.55a10.36,10.36,0,0,1,1.83,2.13,4.71,4.71,0,0,0,.83.84c.21.21.43.41.62.63.59.67.58.68,2,1.27l-3-4c.49-1.27.63-1.35,1.72-1.07a4.38,4.38,0,0,0,1.48,2.19c.21.2.41.42.62.64a34.18,34.18,0,0,1,2.76,3.12c.72.94,1.51,1.83,2.24,2.71a1,1,0,0,0,.37,1.5,13.8,13.8,0,0,1,1.34.92c1.32,1.21,2.6,2.45,3.89,3.69a1.51,1.51,0,0,0,1.28.48l1.06-.56,1.85.12a1.42,1.42,0,0,0,.58-.06,12.63,12.63,0,0,1,3.43-.82,4,4,0,0,0,1.42-.38c1.81-1,3.68-2,5.41-3.14a12.87,12.87,0,0,1,2.75-1.44,6.81,6.81,0,0,0,2-1.08c1.64-1.34,3.43-2.51,5-4a22.94,22.94,0,0,1,2.92-2.74,1.14,1.14,0,0,0,.32-.42,12.87,12.87,0,0,1,.84-2.9,28.92,28.92,0,0,0,2.1-4.77c.32-.87.81-1.68,1.2-2.54a6.55,6.55,0,0,1,.6-1.48,7.8,7.8,0,0,0,1.06-2.29,16.25,16.25,0,0,1,.71-1.79,11,11,0,0,0,1-3c.25-1,1-1.82,1.16-2.89a5.8,5.8,0,0,1,.23-1c.09-.33.23-.65.35-1s.37-.91.52-1.38c.63-2,1.23-4.09,1.85-6.13a.59.59,0,0,1,.06-.14,12.68,12.68,0,0,0,1.22-4.87,1.93,1.93,0,0,1,.2-.71,15.94,15.94,0,0,0,1.62-5.22,21.78,21.78,0,0,1,.79-3.47A30.4,30.4,0,0,0,134.7,186a1,1,0,0,1,.07-.29c.38-1.23.81-2.45,1.15-3.69s.55-2.82,1.06-4.18a1.48,1.48,0,0,0,0-.3c.28-1.61.54-3.22.83-4.83.09-.54.24-1.06.33-1.6.33-1.81.52-3.65,1-5.41.54-1.93.61-3.92,1-5.87.27-1.35.27-2.76.43-4.14.19-1.68.36-3.36.64-5a20.13,20.13,0,0,0,.41-4.58,16.05,16.05,0,0,1,.37-4.59,23.61,23.61,0,0,0,.48-3.82,8.94,8.94,0,0,0,.07-1.93,7.52,7.52,0,0,1,.23-3,8.82,8.82,0,0,0,.23-4,4.52,4.52,0,0,1,.14-2.06,7.62,7.62,0,0,0,.22-2.2,14.91,14.91,0,0,1,.08-3.53c.21-1.06-.05-2.18.3-3.25a.57.57,0,0,0,0-.29,10.3,10.3,0,0,1,0-2.66,2.67,2.67,0,0,0-.1-1,2.76,2.76,0,0,1-.15-1.45,9.62,9.62,0,0,0,0-4.27,2.38,2.38,0,0,1,.06-1.18c.37-1.53-.13-3.08.13-4.6a.61.61,0,0,0-.05-.3,2.62,2.62,0,0,1-.14-2.3.61.61,0,0,0,0-.3c-.13-1-.24-2.06-.42-3.08a3.31,3.31,0,0,1,.06-1.47,2.25,2.25,0,0,0,.13-1.16,7.29,7.29,0,0,1-.13-1.61c-.13-1.83-.44-3.64-.51-5.48,0-1.19-.31-2.36-.45-3.55a8.9,8.9,0,0,1-.2-2.5c.25-1.38-.44-2.64-.25-4a4.59,4.59,0,0,1-.31-2.76,3.8,3.8,0,0,0-.06-.75c-.07-.92-.6-1.79-.35-2.77a.71.71,0,0,0-.13-.42,2.31,2.31,0,0,1-.17-1.3,6.51,6.51,0,0,0-.08-1.32c-.08-.89-.36-1.73-.39-2.64a13.59,13.59,0,0,1-.14-2.64,2.16,2.16,0,0,0-.17-.71,6.3,6.3,0,0,1-.27-1c-.17-1.48-.8-2.88-.82-4.38-.67-2.19-.7-4.52-1.59-6.65a4.24,4.24,0,0,1-.12-.74c-.26-1.26-.44-2.55-.81-3.77-.52-1.73-.53-3.52-1-5.37l-.67-.62c-.24-.84-.48-1.54-.66-2.26a26,26,0,0,0-1.62-4.64,22.12,22.12,0,0,1-1.1-3.08,15.66,15.66,0,0,0-3.14-5.88c-.87-1-2.06-1.64-3.08-2.71-.19.5-.3.86-.46,1.21s-.37.68-.57,1.05a8.4,8.4,0,0,1,2.1,2.57c.3.51.71.95,1.05,1.43a5.13,5.13,0,0,1,.36.65c.67,1.23.39,2.63.7,3.93a1.54,1.54,0,0,1-.1.58c-.25,1.07-.48,2.14-.76,3.19a7.93,7.93,0,0,1-.61,1.67c-.35.65-.83,1.23-1.22,1.86-.57.93-1.07,1.9-1.62,2.84a16.74,16.74,0,0,1-3.47,4.6l-.09.11-1.7,2.26a1.89,1.89,0,0,1-.5.55A7.48,7.48,0,0,0,115.6,51a2.44,2.44,0,0,1-.58.47c-1.87,1.22-3.46,2.84-5.39,4a4.13,4.13,0,0,0-.65.61,9.1,9.1,0,0,1-3,2.16,3.15,3.15,0,0,0-.92.73,27.75,27.75,0,0,1-2.25,1.92,14.3,14.3,0,0,1-2.87,1.81c-.22.09-.37.33-.56.48a22.17,22.17,0,0,1-2.1,1.66,43.49,43.49,0,0,0-3.71,2.76,11.07,11.07,0,0,1-1.71,1.18,4.44,4.44,0,0,0-1.29,1,14.59,14.59,0,0,1-3.24,2.83,5.81,5.81,0,0,0-1,1.06A9.88,9.88,0,0,1,85.08,75a5.43,5.43,0,0,0-1.66,1.68,1.35,1.35,0,0,1-.64.59,4.72,4.72,0,0,0-1.41,1.09c-.58.54-1.16,1.09-1.77,1.59a7.37,7.37,0,0,0-1.31,1.42A6.46,6.46,0,0,1,77,82.74a9.15,9.15,0,0,0-1.89,1.89,8,8,0,0,1-1.69,1.85,3.25,3.25,0,0,0-.79,1.08A8.5,8.5,0,0,1,71,89.69a4.41,4.41,0,0,0-.68,1,27.93,27.93,0,0,1-1.76,2.75c-.59.73-1.18,1.46-1.75,2.2a17.45,17.45,0,0,0-2.12,3.76,6.14,6.14,0,0,1-.81,1.4,8.06,8.06,0,0,0-1.11,1.93,44,44,0,0,0-2.08,4.78,1.47,1.47,0,0,1-.19.4,12.88,12.88,0,0,0-1.45,3.26,22.75,22.75,0,0,1-1.4,3.6,24.9,24.9,0,0,0-1.49,3.39c-.66,1.92-1.53,3.77-2.3,5.66a2.37,2.37,0,0,0-.24,1A2.77,2.77,0,0,1,53,126.66Zm-.15-12.16A3.05,3.05,0,0,0,54,112.16a1.81,1.81,0,0,1,.57-1.18,2.81,2.81,0,0,0,.74-1.44,3.35,3.35,0,0,1,.81-1.89,1,1,0,0,0,.28-.52c.34-1.79,1.56-3.19,2.14-4.89.39-1.15,1.14-2.18,1.54-3.36a4,4,0,0,1,.46-.77,14.07,14.07,0,0,0,2.13-3.53,1.38,1.38,0,0,1,.24-.37c.66-.87,1.34-1.72,2-2.59a4.76,4.76,0,0,0,.77-1.1c.56-1.39,2-2.24,2.36-3.73,0-.08.14-.13.2-.21.32-.38.61-.79,1-1.13.73-.71,1-1.81,2.1-2.25.34-.14.54-.68.76-1.07a6.69,6.69,0,0,0,.42-.95c.83-.55,1.78-.94,2.21-2a9.1,9.1,0,0,1-1-.91A3.35,3.35,0,0,0,72,77.05a3.31,3.31,0,0,1-.52-.28,26.55,26.55,0,0,0-4.76-2.09,19.6,19.6,0,0,0-5.85-1.06,35.19,35.19,0,0,1-4.59-.49c-.87-.13-1.77-.17-2.59-.25a4.49,4.49,0,0,0-.69.48c-.63.63-1.22,1.31-1.87,1.92-.94.89-1.92,1.73-2.87,2.6-.59.54-1.4.44-2.08.8l-.78-.74c.13-.33.21-.62.34-.88a1.23,1.23,0,0,1,.29-.31A2.7,2.7,0,0,0,48,76.08c1.12-.83,2.2-1.71,3.29-2.58a4.11,4.11,0,0,0,.44-.57,4.26,4.26,0,0,0-.82-.1,12.82,12.82,0,0,1-3,.06,5.83,5.83,0,0,0-1.51.17c-.83,1.16-1.59,2.32-2.45,3.41a23.66,23.66,0,0,1-2.72,3.25.64.64,0,0,1-.44-.89,5,5,0,0,1,1.08-2.11,21.62,21.62,0,0,0,2.5-3.64,2.84,2.84,0,0,0-1.72-.18,3.65,3.65,0,0,0-.81.7c-1.73,2.52-3.72,4.88-4.85,7.75-.46,0-.61-.29-.55-.59a7.77,7.77,0,0,1,.59-2,26.69,26.69,0,0,1,3.17-5,8.48,8.48,0,0,0,.51-.81,2,2,0,0,0-1.51-.32,36.69,36.69,0,0,0-4.32.15,3.12,3.12,0,0,1-1.32-.16A3.83,3.83,0,0,0,32,72.46a12.73,12.73,0,0,1-2.37-.21c-.88-.11-1.76-.24-2.64-.42a27.58,27.58,0,0,1-3.78-.7,33.33,33.33,0,0,0-4.6-1.27A11,11,0,0,1,15.77,69a23,23,0,0,1-2.9-1.81,16.2,16.2,0,0,1-3.79-4,40.62,40.62,0,0,1-2.49-4.76A4.88,4.88,0,0,1,6,55.84a1.69,1.69,0,0,1,.2-.49,1.43,1.43,0,0,1,.72,1,21.46,21.46,0,0,0,4.35,7.4A17.57,17.57,0,0,0,15.33,67a11.46,11.46,0,0,0,3.85,1.53c1,.19,1.93.48,2.89.74a17.12,17.12,0,0,0,2.14.6c2.42.27,4.78.93,7.22,1.08a36,36,0,0,0,4,.26,64.66,64.66,0,0,1,6.53.06,3,3,0,0,0,1.16-.15,1.93,1.93,0,0,1,1.72,0,1.32,1.32,0,0,0,1.53-.21c.23-.18.42-.43.65-.61a7.79,7.79,0,0,1,1.11-.72c.18-.09.45,0,.62,0,.25.57-.51.81-.22,1.36a2.5,2.5,0,0,0,.82.17c1.14-.12,2.28,0,3.42-.06a22.45,22.45,0,0,1,3.84.17,26.51,26.51,0,0,0,6.66.26,2.32,2.32,0,0,1,.87.11c1.1.33,2.17.74,3.28,1A15.5,15.5,0,0,1,72,74.48,29.9,29.9,0,0,1,75.47,77l.76.64a18.23,18.23,0,0,0,3.35-3.25c-.52-.46-1-.91-1.56-1.35a4.89,4.89,0,0,0-.84-.59,13.46,13.46,0,0,1-3.2-2,3,3,0,0,1-1.08-.21,13.83,13.83,0,0,0-3.12-1.33,19.61,19.61,0,0,0-2.38-.81c-.64-.14-1.28-.16-1.91-.29-1.41-.28-2.82-.58-4.2-1a8.88,8.88,0,0,0-1.88-.35q-3.19-.26-6.36-.75c-.63-.1-1.29-.07-1.93-.11a2.25,2.25,0,0,1-.74-.06,5.1,5.1,0,0,0-2.79-.14,6.08,6.08,0,0,1-2.36-.11,5.09,5.09,0,0,0-2.06,0,4.64,4.64,0,0,1-1.62,0,7.73,7.73,0,0,0-1.17-.2,29.64,29.64,0,0,1-4.59-.55,2.93,2.93,0,0,0-.89-.05,28.26,28.26,0,0,1-4.6-.11c-.44,0-.88-.14-1.32-.21a5.16,5.16,0,0,0-1-.12,9.86,9.86,0,0,1-2.65-.43c-.62-.14-1.22-.33-1.84-.5s-1-.46-1.47-.66c-1.65-.66-3.41-1.06-4.77-2.31a12.74,12.74,0,0,1-2.66-1.63,24.35,24.35,0,0,1-3-2.61,2.51,2.51,0,0,1-.36-.48c-.39-.57-.79-1.14-1-1.5L9.2,51.35c-.06-1.09-.09-1.93-.17-2.77a3.2,3.2,0,0,1,.34-2.17c.91-1.28,1.05-2.89,1.94-4.09A6.12,6.12,0,0,0,9,39.5c-.07.07-.18.13-.2.21-.45,1.42-.88,2.84-1.31,4.26,0,.09,0,.2-.06.29-.13.63-.26,1.27-.38,1.9s-.08,1.37-.6,1.92c-.11.12-.05.39-.11.58-.33,1.08-.25,2.29-1,3.19-.07,1.43-.19,2.81-.2,4.2a41.61,41.61,0,0,1-.46,4.73,22.06,22.06,0,0,0-.36,4.29,8.94,8.94,0,0,1-.11,2.07,20,20,0,0,0-.26,2.67c0,1.28.11,2.58.05,3.86a27.37,27.37,0,0,0,0,5.2,6.61,6.61,0,0,1,0,.89c0,.5,0,1,0,1.49A6,6,0,0,1,4,82.44a8.18,8.18,0,0,0,0,2.37,7.38,7.38,0,0,1,0,1,22.45,22.45,0,0,0,0,5c0,.34,0,.69,0,1a6.4,6.4,0,0,0,.08.87c.08.54.21,1.07.28,1.61.2,1.57.23,3.16.51,4.72.24,1.37.32,2.77.48,4.16a20.77,20.77,0,0,0,.32,2.37A45.55,45.55,0,0,1,7,110.76a1.28,1.28,0,0,0,.13.42,11,11,0,0,1,1,4.29.59.59,0,0,0,.07.29,7.4,7.4,0,0,1,.49,2.32A11.93,11.93,0,0,0,9.12,120a10.08,10.08,0,0,1,.63,2.75c.14,2.19,1,4.27,1,6.47a4,4,0,0,0,.15.57c.13.53.28,1.06.36,1.6a11.84,11.84,0,0,0,.59,3.06,3.88,3.88,0,0,1,.13,1,18.83,18.83,0,0,0,.46,2.93A17.16,17.16,0,0,1,13,141a23.59,23.59,0,0,0,.62,3.52,10.63,10.63,0,0,0,1,3.1.57.57,0,0,1,.07.29,9.6,9.6,0,0,0,.94,3.27c.26.64.37,1.34.58,2a28.82,28.82,0,0,1,1.19,4.76,10.32,10.32,0,0,0,.58,1.84,8,8,0,0,0,.68,1.95c.41.62.13,1.27.37,1.86,0,.1.09.18.11.28.21.66.43,1.32.61,2s.18,1.08.35,1.59c.41,1.28.89,2.53,1.29,3.81s.68,2.81,1.23,4.13,1,2.68,1.42,4.05a3.72,3.72,0,0,0,.22.38c.52,1.18,1.11,2.34,1.54,3.55A37.61,37.61,0,0,0,27.59,188c.85,1.68,1.5,3.46,2.3,5.35a3.8,3.8,0,0,1,1.2,2A12.06,12.06,0,0,1,32,198a1.1,1.1,0,0,0,.18.4c.51.91,1,1.81,1.52,2.73a24.62,24.62,0,0,0,1.32,3,5.11,5.11,0,0,0,.9,2.18,22.49,22.49,0,0,1,1.21,2.21c.43,1.16,1,2.25,1.52,3.39a13,13,0,0,0,1.26,2.53.84.84,0,0,1,.17.4,3.36,3.36,0,0,0,.91,2,1,1,0,0,1,.26.53,3.8,3.8,0,0,0,1.06,1.93,4.45,4.45,0,0,1,.56.87c.37.8.76,1.62,1,2.44a17.68,17.68,0,0,0,1.73,3.28c.53.9,1.07,1.79,1.55,2.71s1,1.82,1.48,2.77a3,3,0,0,1,1.77,1.24c1.24,1.44,1.86,3.29,3.33,4.58-.14.47-.26.89-.39,1.35a10,10,0,0,0,.45,1.22,4.57,4.57,0,0,0,.58.67,6.65,6.65,0,0,1,.39.63l2,3.14c.16.24.31.49.46.75a8.68,8.68,0,0,0,2.12,3,3.63,3.63,0,0,1,.75,1.1,22.91,22.91,0,0,0,1.54,2.52,6.36,6.36,0,0,1,1,1.78,2.89,2.89,0,0,0,.73,1.37,1.2,1.2,0,0,0,.37,0c1.77-1,3.37-2.27,5.35-2.86a2.42,2.42,0,0,0,.64-.37,37.26,37.26,0,0,0,3.63-3.25,2.39,2.39,0,0,0,.28-.35c.4-.57.8-1.14,1.18-1.72.16-.23.29-.49.42-.72A3.52,3.52,0,0,0,75,245c-1.16-1.15-2.38-2.24-3.47-3.44-.6-.65-1.44-1.1-1.76-2-.08-.21-.35-.35-.51-.53-.5-.56-1-1.09-1.48-1.68-.61-.78-1.15-1.62-1.75-2.41a18,18,0,0,0-1.51-1.84,4.31,4.31,0,0,1-1-1.28,2.29,2.29,0,0,0-.62-.82,5.68,5.68,0,0,1-1-1.48,16.23,16.23,0,0,0-1.17-1.32.55.55,0,0,1-.14-.26c-.12-.8-.82-1.22-1.2-1.84a17.66,17.66,0,0,1-.88-2,2.12,2.12,0,0,0-.24-.37,13.62,13.62,0,0,1-1.72-2.95A27.14,27.14,0,0,1,55,217.36a6.17,6.17,0,0,0-1-2.12,4.3,4.3,0,0,1-.89-2.33,2.39,2.39,0,0,0-.32-1.13,13.78,13.78,0,0,1-1.08-2.09c-.32-.73-.55-1.49-.87-2.21-.43-.95-.87-1.89-1.29-2.85a21.07,21.07,0,0,1-1-2.48,10.1,10.1,0,0,1-.86-2.8,3.78,3.78,0,0,0-.31-1c-.22-.77-.41-1.54-.65-2.29a35.27,35.27,0,0,1-1.2-4.76c-.25-1.35-.88-2.62-.78-4a1.36,1.36,0,0,0-.06-.29c-.19-1.18-.37-2.36-.55-3.54a4.29,4.29,0,0,0-.2-1,7.43,7.43,0,0,1-.45-2.18,9.12,9.12,0,0,0-.57-2.92,1.28,1.28,0,0,1-.11-.58,29.68,29.68,0,0,1,0-3.4,12.53,12.53,0,0,0-.21-3.41,2.31,2.31,0,0,1-.08-.73,34.48,34.48,0,0,0,.23-4.31,5.94,5.94,0,0,0,.1-1.18,13.31,13.31,0,0,1,.15-4c.25-2,0-4.08.48-6.08a.48.48,0,0,0,0-.29,3.33,3.33,0,0,1,.08-1.9c.21-1.07.37-2.15.51-3.24a11.79,11.79,0,0,0,.19-2.37,6.71,6.71,0,0,1,.59-2.87,5.5,5.5,0,0,0,.38-1.43,16.24,16.24,0,0,1,.76-4.08,4.3,4.3,0,0,0,.21-1,16.34,16.34,0,0,1,.71-3.17c.19-.67.4-1.33.61-2s.47-1.51.76-2.46a3.83,3.83,0,0,1,.46-2.24,15.62,15.62,0,0,0,1-2.64c.37-1.23,1.12-2.34,1.13-3.68A.56.56,0,0,1,51,120a2.57,2.57,0,0,0,.55-1.79c0-.22.25-.52.44-.74a3.66,3.66,0,0,0,.85-2.18C52.83,115,52.83,114.78,52.84,114.5ZM83.36,70.62a8.71,8.71,0,0,0,1-.52c.64-.45,1.27-.94,1.89-1.43.24-.18.54-.34.66-.59a4.56,4.56,0,0,1,1.73-1.59c.44-.31.83-.7,1.24-1,.61-.52,1.2-1,1.82-1.53.23-.18.57-.24.77-.44,1.34-1.35,3.09-2.12,4.55-3.31.49-.4,1.19-.52,1.7-.91s1-1,1.46-1.47c1-.89,2.25-1.43,3-2.55a.52.52,0,0,1,.11-.1c.81-.49,1.61-1,2.41-1.47a8.32,8.32,0,0,0,.79-.62c0-.26,0-.45,0-.65a8.58,8.58,0,0,0-1.34-4.34,5.65,5.65,0,0,0-.9-1.51,12,12,0,0,0-5.53-3.35,11.58,11.58,0,0,0-5.58.11c-1.06.28-2,.78-3.09,1a9,9,0,0,0-3.6,2c-1.42,1.21-3,2.32-3.87,4.07a.87.87,0,0,1-.19.23,4.57,4.57,0,0,0-1.18,1.7,37.16,37.16,0,0,0-1.63,4,13.74,13.74,0,0,0-.52,6.75A10.91,10.91,0,0,0,83.36,70.62ZM64.47,29.67a7.08,7.08,0,0,0-2.7,2.21,5.19,5.19,0,0,1-1.07,1,1.57,1.57,0,0,1-2.45-.37c-.11-.16-.13-.37-.24-.54a14.33,14.33,0,0,0-1.46-2,2.17,2.17,0,0,0-3-.48A6.85,6.85,0,0,0,52,30.73a6,6,0,0,1-1.13,1.1c-.45.81-.81,1.46-1.16,2.11s-.42,1.44-.92,2a1.53,1.53,0,0,1-1.85-.21,4.74,4.74,0,0,0-.71-.54,1.77,1.77,0,0,0-1.73-.31c-.2.47-.42,1-.66,1.54.14,1.32.29,2.71.45,4.09a1.56,1.56,0,0,0,.22.71,17.46,17.46,0,0,1,1.39,3.27,6.73,6.73,0,0,0,3,3.41c1.49-.38,3-.76,4.47-1.11a3.36,3.36,0,0,1,1.17-.14c1.18.14,2.35.35,3.52.55a2.92,2.92,0,0,1,.54.25c1.26.58,2.6.94,3.88,1.49a7.59,7.59,0,0,1,2.07,1.14l1.88,1.63a3.24,3.24,0,0,0,.4-.29,27.61,27.61,0,0,0,2.87-4.15.79.79,0,0,0,.1-.27A18.44,18.44,0,0,1,71,44.11c.7-1.72,1.3-3.44.56-5.32a3.83,3.83,0,0,1-.12-1l-.64-.64s-.09,0-.14,0c-1.92.94-2.55.78-3.23-.61,0-1.07-.14-1.91-.13-2.75a4.71,4.71,0,0,0-1.41-3.47A1.68,1.68,0,0,0,64.47,29.67ZM13.61,19.91c.84,1,1.64,1.8,2.31,2.72.89,1.24,1.71,2.56,2.5,3.87a6.19,6.19,0,0,0,.57.84,3.68,3.68,0,0,1,.82,1.58,4,4,0,0,0,.39,1,18.11,18.11,0,0,0,1.71,2.95,8.56,8.56,0,0,1,.92,1.87c.38.86.66,1.77,1.08,2.61,1.39,2.75,2.91,5.43,4.22,8.22.51,1.09.91,2.21,1.32,3.32.64,1.71,1.06,3.51,1.6,5.26a20.38,20.38,0,0,1,.75,2.11A24.15,24.15,0,0,1,32.58,60a2.9,2.9,0,0,0,.24.77,36.17,36.17,0,0,0,6.11.43,7.68,7.68,0,0,0-.11-.93c-.29-1.2-.6-2.4-.9-3.6a1.32,1.32,0,0,1-.05-.44,7.18,7.18,0,0,0-.53-3c-.06-.24-.14-.48-.2-.72-.24-1.11-.43-2.24-.71-3.34-.33-1.25-.7-2.48-1.13-3.7-.24-.69-.68-1.32-.94-2-.6-1.57-1.19-3.15-1.71-4.76A41.32,41.32,0,0,1,31,34.35a24.56,24.56,0,0,0-1.44-3.58,11.86,11.86,0,0,1-.92-2.83,3,3,0,0,0-.36-1c-.32-.61-.66-1.23-1-1.81s-.64-.88-1-1.32a2.79,2.79,0,0,1-.47-.57,16.27,16.27,0,0,0-2.3-3.4c-1.14-1.38-2.23-2.8-3.31-4.22a11.86,11.86,0,0,0-3.52-2.94,5.22,5.22,0,0,0-1.1-.33C14.94,14.91,14,17.27,13.61,19.91Zm51.25-5.72c-.86.54-.86.54-1.34,1.79-1.32.79-2.09.68-2.94-.43a5.6,5.6,0,0,0-.78-.9,2.92,2.92,0,0,0-3.94-.33,4.77,4.77,0,0,0-2.15,2.2c-.05.11-.23.17-.35.26-.85-.31-1.27-1.12-2-1.57l-2-1.31c-1.94.37-3,1.43-2.87,3.16.07,1.52.06,3.09,1,4.45a6.6,6.6,0,0,1,.76,1.61c.58,1.72,1.89,2.87,3,4.07a2.17,2.17,0,0,0,1.55-.2,5.13,5.13,0,0,1,5.7,1.32c.4.43.82.83,1.27,1.3.39-.39.69-.72,1-1,1.65-1.5,3.48-2.23,5.7-1.3A3.11,3.11,0,0,1,68,28.45c.29.46.67.86,1,1.31s.57.88.91,1.42a5.25,5.25,0,0,1,2.22-2.46A4.9,4.9,0,0,1,74.82,27a5.41,5.41,0,0,0-1-1.87,27.08,27.08,0,0,1-3-4.07,18.14,18.14,0,0,0-2.32-2.89,10.37,10.37,0,0,1-2-2.4A4.37,4.37,0,0,0,64.86,14.19Zm7.52,5a18.56,18.56,0,0,0,2,2.48c1.47,1.33,2.27,3.12,3.41,4.67.84,1.15,1.36,2.54,2.11,3.76.93,1.52,1.39,3.31,2.63,4.66a.4.4,0,0,1,.07.13c.61,1.46,1.25,2.92,1.81,4.41s1,3,1.54,4.57c.85-.56,1.56-1.09,2.34-1.52s1.82-.48,2.54-1.22a5.27,5.27,0,0,0,0-.89,5,5,0,0,0-.28-1c-.43-1.06-.9-2.1-1.32-3.17-1.29-3.23-2.54-6.48-4.06-9.61a18.25,18.25,0,0,0-1.55-3.21A10,10,0,0,0,82,19.89c-.91-1.49-1.82-3-2.8-4.4a25.62,25.62,0,0,0-3.71-4.27,6.24,6.24,0,0,0-2.34-1.57,1.15,1.15,0,0,1-.52-.28c-.63-.72-1.71-.81-2.25-1.66-.07-.1-.26-.13-.39-.2L67.34,6.07c-.16-.09-.31-.27-.58,0,.21.19.43.37.63.58.65.67,1.34,1.32,1.94,2,.77.92,1.47,1.88,2.19,2.83s1.43,1.79,2.06,2.75a122.79,122.79,0,0,1,8.2,13.86,2.14,2.14,0,0,0,.23.38,8.62,8.62,0,0,1,1,2.14c.07.17.15.38-.19.48a6.1,6.1,0,0,1-1.16-1.67c-1.37-2.48-2.85-4.89-4.41-7.26C75,18.78,72.94,15.27,70.44,12A65,65,0,0,0,66.3,7a3.92,3.92,0,0,0-.58-.39L63.66,8.32c1,1.28,2,2.46,3,3.66A59.84,59.84,0,0,0,71.26,17,3.16,3.16,0,0,1,72.38,19.14Zm-6.12,45.3a8.15,8.15,0,0,0,.68-4.54c-.07-.44-.2-.87-.25-1.31a7.59,7.59,0,0,0-1.07-3.21,9.44,9.44,0,0,0-3.35-3.71c-.93-.48-1.88-.9-2.84-1.3a13.44,13.44,0,0,0-2.1-.74c-.92-.21-1.87-.3-2.8-.43a7.64,7.64,0,0,0-5.41,1.17,13,13,0,0,0-3.25,2.34,1.45,1.45,0,0,1-.38.24,10.61,10.61,0,0,0-4.13,5.49,3.81,3.81,0,0,0,.39,3.18c.77,0,1.51.09,2.25.1,1.18,0,2.37,0,3.56,0a5.9,5.9,0,0,1,1.19,0c1.75.34,3.57.09,5.29.63a7.66,7.66,0,0,1,2.78.22c.2,0,.4.06.59.08a34,34,0,0,1,5,.75A19.09,19.09,0,0,1,66.26,64.44Zm32-23.9c.16-.49.31-1,.49-1.52s.42-1,.57-1.53a1.84,1.84,0,0,0,0-1,10.08,10.08,0,0,1-.06-3.83,35.43,35.43,0,0,1,.53-3.82,21.19,21.19,0,0,1,.81-3.63c.7-2,1.25-4,1.78-6a20.76,20.76,0,0,1,1.49-4.49,16.17,16.17,0,0,0,1.61-4.16,4,4,0,0,1,.64-1.32A4,4,0,0,0,107,6.94a3.07,3.07,0,0,1,.49-1.38,14,14,0,0,0,1.08-2,.84.84,0,0,0-.94-.48,3.64,3.64,0,0,1-1.47,0,6.71,6.71,0,0,0-2.82-.27c-.81.85-1.64,1.7-2.42,2.58A6.22,6.22,0,0,0,99.81,7a8.78,8.78,0,0,1-2,2.59,4.36,4.36,0,0,0-.73,1.11c-.35.71-.67,1.45-1,2.19a10.18,10.18,0,0,0-.62,2,9.12,9.12,0,0,1-.68,2.11,17.55,17.55,0,0,0-.77,2.25c-.2.76-.26,1.54-.45,2.31A23.67,23.67,0,0,0,93.27,27c0,1.43.14,2.87.11,4.31a66.57,66.57,0,0,0,.71,8.46,2.6,2.6,0,0,0,.29.75ZM45.8,28.35,45,27.14c-.44-.66-.84-1.35-1.32-2A2.15,2.15,0,0,0,40.21,25a3.68,3.68,0,0,0-.77,1.43,16.68,16.68,0,0,1-.61,1.67,2.6,2.6,0,0,0-.17,1.15,2,2,0,0,1-1.27,2.13,6.86,6.86,0,0,0-1.52.94,3.37,3.37,0,0,0-1.47,3.12,7.18,7.18,0,0,1,4.23-3.85,4.22,4.22,0,0,0,.83-.49c.22-2.59,1-4,2.8-4.85.35.07.74.14,1.12.24a.47.47,0,0,1,.36.61c-.13.08-.29.19-.46.28a2.82,2.82,0,0,0-1.58,2,13.12,13.12,0,0,1-.53,1.61c.09.5.59,1.11-.25,1.59a3.51,3.51,0,0,0-1.94.25c-1.49.66-2.87,1.39-3.4,3.11-.08.28-.43.48-.69.74a19.46,19.46,0,0,0,.69,1.94c.79,1.71,1.29,3.54,2,5.27.3.72.46,1.5.84,2.21a3.06,3.06,0,0,1,.19.87c.24,1.21.41,2.44.72,3.63a17.66,17.66,0,0,1,.66,3.2,2.18,2.18,0,0,0,.18.72c.1.2.17.49.55.42a13.06,13.06,0,0,1,4.65-4.66,3.87,3.87,0,0,0,1.22-1.14L45,47.13a4.94,4.94,0,0,1-.6-.84c-1.23-2.71-2.47-5.42-2.57-8.49a9.89,9.89,0,0,1,.49-3.5,2.33,2.33,0,0,1,1.9-1.65,3.68,3.68,0,0,1,2.75.5,7.71,7.71,0,0,0,1.15-2c.33-.66,1-1.1,1.2-2-.18-.29-.38-.62-.61-.93-.08-.1-.26-.12-.42-.19l-1.17.58ZM72.49,49.22a4.52,4.52,0,0,0-1,.7,12.24,12.24,0,0,0-1.32,1.8,6,6,0,0,1-1.42,1.71c-.23.17-.44.37-.65.56a5.73,5.73,0,0,0,.39,1.19,9,9,0,0,1,.92,3,10.68,10.68,0,0,1,.15,3.38c-.12,1.13-.16,2.26-.24,3.43,1.22.75,2.77.49,3.77,1.35a4.46,4.46,0,0,0,2.29-.4c.71-.18,1.5,0,2.2-.53,0-.34,0-.68-.12-1-.12-.53-.32-1-.41-1.58a16.84,16.84,0,0,1,.84-8.64,15.55,15.55,0,0,1,1.79-3.75,10.32,10.32,0,0,1,1.81-2.34,1.65,1.65,0,0,0,.61-1.37l-1.58-.29a4.85,4.85,0,0,0-3.11,3.23,1.9,1.9,0,0,1-.15.42,1,1,0,0,1-1,.62,5.54,5.54,0,0,1-.78-.52A3.32,3.32,0,0,0,72.49,49.22ZM24.86,46.13c-.86-1.21-1.61-2.26-2.37-3.3a4.08,4.08,0,0,0-.4-.44l-2.34-2.48a1,1,0,0,1-.23-.37,4.86,4.86,0,0,0-1.82-2.3C16.26,36.1,14.82,35,13.28,34a5.41,5.41,0,0,0-2.36-1.17,3.92,3.92,0,0,1-1-.36c-.74-.3-1.46-.61-2.2-.9-.09,0-.24.07-.35.11s0,.17,0,.19a31.82,31.82,0,0,1,7.92,7.78c.68,1,1.48,1.86,2.22,2.78a5.22,5.22,0,0,1,1,1.93c-.46.11-.59-.31-.79-.53-1.58-1.72-3.12-3.47-4.7-5.18-1.32-1.42-2.66-2.81-4-4.16a17.54,17.54,0,0,0-2-1.52,1.37,1.37,0,0,0-.51-.13,1,1,0,0,0-.73,1.14l1.46,1.15.81.64A17.59,17.59,0,0,1,10.24,38c1.57,1.79,3.22,3.5,4.72,5.36a20.57,20.57,0,0,1,2.79,4.38,2.91,2.91,0,0,0,.86,1.42A15.92,15.92,0,0,1,24.86,46.13ZM16.8,55.86a2.33,2.33,0,0,0,.52.52c1,.57,2.09,1.12,3.16,1.65.61.31,1.27.55,1.89.83a4,4,0,0,0,.79.41c1,.17,1.8.89,2.84.75a26,26,0,0,0,4.37.8c.2,0,.43-.1.71-.17-1.1-4.27-3-8.17-4.24-12.3a2.25,2.25,0,0,0-.76-.12,20,20,0,0,0-3.85,1.06,13.61,13.61,0,0,0-2.14,1.58,10.57,10.57,0,0,0-2.51,2.91A3.46,3.46,0,0,0,16.8,55.86ZM118.6,29.73a2.53,2.53,0,0,0,.25-.52,27.7,27.7,0,0,1,1.28-4.09,2.27,2.27,0,0,1,.37-.64,13.1,13.1,0,0,0,1.63-3.34c.52-1.39.93-2.82,1.44-4.22.22-.6.59-1.15.82-1.74a27.92,27.92,0,0,1,1.74-3.12c.39-.69.86-1.33,1.3-2a4.85,4.85,0,0,0,.94-1.45,1.93,1.93,0,0,0-.38-.19c-1-.22-2-.48-3.07-.63a2.1,2.1,0,0,0-2.62,1.43,16.26,16.26,0,0,1-2.11,3.4,22.93,22.93,0,0,0-3,6.12c-.49,1.4-.63,2.92-1.51,4.18-.13.19-.12.48-.22.71-.45,1.06-.33,2.24-.76,3.31a10.41,10.41,0,0,0-.41,2.13,1.09,1.09,0,0,0,1.54.3c.48-.77.27-1.55.45-2.27a41.69,41.69,0,0,1,2-6.69c1-2.28,1.68-4.68,2.86-6.88.56-1,1.13-2.1,1.73-3.12.15-.27.33-.65.89-.47a3.34,3.34,0,0,1-.13.83c-.61,1.46-1.24,2.92-1.87,4.37-.33.77-.68,1.54-1,2.31a13.19,13.19,0,0,0-.7,1.47c-.4,1.38-1,2.68-1.49,4.05-.64,2-1.18,4-1.76,6a2.07,2.07,0,0,0,.06.54Zm-6.29-.15c.08-.5.15-.83.19-1.17.06-.54.06-1.09.15-1.62.27-1.66.57-3.32.87-5,0-.3.12-.59-.27-.82a4.55,4.55,0,0,0-.51.12c-.28.08-.56.19-.87.29-.54,1.05-1.53,1.79-1.92,3a1,1,0,0,1-1.29.74c-1.38-1-1.61-1.05-3.11-.45a2.27,2.27,0,0,0-1.08,1c-.22.33-.38.7-.6,1a9.18,9.18,0,0,0-2,5.48,3.82,3.82,0,0,1-.2.86c0,.23-.06.47-.1.8.27,0,.49.08.62,0a7.24,7.24,0,0,0,.94-.71,15.86,15.86,0,0,1,6-2.81C110.15,30,111.18,29.83,112.31,29.58ZM30.87,26a17.31,17.31,0,0,0,2.58-1,9.35,9.35,0,0,1,3.44-1.3.68.68,0,0,0,.27-.1,8.61,8.61,0,0,1,3.49-1.14,24.22,24.22,0,0,0,3-.71A2.15,2.15,0,0,0,45.05,21a10.43,10.43,0,0,0-.17-1.37,3.62,3.62,0,0,0-.43-.78c-.82.28-1.56.55-2.32.76-1.43.41-2.87.77-4.29,1.18a8.8,8.8,0,0,0-1.68.59,28,28,0,0,1-3.38,1.45,10.48,10.48,0,0,0-2.9,1.44A1.8,1.8,0,0,0,30.87,26ZM93.52,12.59a18.22,18.22,0,0,0-4.47-.21c-1.32,0-2.64.23-4,.14a32.91,32.91,0,0,0-4,.12,5.13,5.13,0,0,0-1,.25A2.39,2.39,0,0,0,81.74,15c1.73-.1,3.6-.19,5.47-.31s3.73-.28,5.66-.43A1.55,1.55,0,0,0,93.52,12.59ZM12.37,48.11a7.9,7.9,0,0,0,1.1,4.56.83.83,0,0,1,.07.13,2.58,2.58,0,0,0,1.75,1.72,24.34,24.34,0,0,1,2-3.94c-2.07-4-2.32-4.42-3.43-5.22C13.37,46.27,12.87,47.18,12.37,48.11Zm79.71-31c-.23-.1-.36-.21-.48-.2-1.13.13-2.25-.13-3.4.1-1.35.26-2.76.26-4.14.4-.22,0-.52,0-.57.25.27.46.54.87.76,1.3.61,1.14,1.19,2.28,1.79,3.42.06.11.22.17.33.26l1.2-.77c.43-2.08,1.86-3.15,3.93-3.59Zm17.3,3.4a5.5,5.5,0,0,0,.89-.59,2.37,2.37,0,0,0,.36-.71,4.34,4.34,0,0,0-2.54-.69c-.84-.5-1.72-1.08-2.82-.63-.1.15-.24.26-.27.39a39.35,39.35,0,0,1-1.46,5.12c0,.07,0,.17.07.35l2.55-1.35,2.25-.25Zm6.47-5.12a1.66,1.66,0,0,0-.28-.25,30.82,30.82,0,0,0-5.79-1.72,4.7,4.7,0,0,0-3.09.12l-.46,1.24a28.61,28.61,0,0,1,4,.91c.87.34,1.76.62,2.65.9.74.22,1.49.38,2.33.59ZM32,29.13c.42,1.05.8,2,1.2,2.95.07.16.25.26.43.44a9.22,9.22,0,0,1,3-2.58c.1-.47.21-.94.29-1.42s.13-1,.2-1.57A14.71,14.71,0,0,0,32,29.13Zm91.66,3.64c.64-.27.42-.84.64-1.19a2.94,2.94,0,0,0,.09-2.57c-.17-.57-.34-1.13-.52-1.76a4.47,4.47,0,0,0-.49-.47c-.22-.16-.3-.56-.79-.41-.27,1.53-.89,3-.81,4.67C122.3,31.7,122.71,32.46,123.61,32.77ZM74.93,252.35c1,.49,1.3,1.52,2.36,1.78l.86-1.32-.92-2.89C76.17,250.45,75.71,251.41,74.93,252.35ZM17.79,31c-.6.08-.83.5-1.16.79s-.7.49-1.12.78c.89.55,1.25,1.57,2.29,1.76A2.4,2.4,0,0,0,19,33.28C18.85,32.36,18,31.88,17.79,31Zm66.4,220.66a10.25,10.25,0,0,0-2.45-2c-.13-.08-.36,0-.57,0a6.1,6.1,0,0,0-.2.61c0,.24,0,.48-.08.74.76.72,1.31,1.64,2.36,1.9C83.91,252.47,83.91,252.47,84.19,251.67ZM47.65,26.14c-.64-1.78-.7-1.85-1.42-1.9C46.67,25.63,46.85,25.88,47.65,26.14ZM92.5,40.54c0-1,0-1-.42-1.31Z"/><path class="cls-1" d="M57,123.24a1.71,1.71,0,0,1,.09-1.57c.68-1.66,1.31-3.34,2.07-5,1-2.07,2-4.11,3-6.14.82-1.59,1.71-3.14,2.61-4.68s1.82-3,2.75-4.43c.72-1.13,1.46-2.24,2.19-3.36.11-.17.23-.33.35-.49.86-1.15,1.7-2.32,2.61-3.44,1.09-1.34,2.09-2.76,3.31-4a2.35,2.35,0,0,0,.46-.59,8.76,8.76,0,0,1,1.91-2.45c1.34-1.46,2.65-3,4-4.38.75-.78,1.61-1.46,2.41-2.2s1.35-1.32,2.05-2c1.2-1.11,2.39-2.24,3.65-3.28,1.1-.92,2.28-1.73,3.42-2.6.36-.27.71-.55,1-.85a33.74,33.74,0,0,1,4.4-3.31,3.07,3.07,0,0,0,.36-.27A52.58,52.58,0,0,1,105,63.9a34.71,34.71,0,0,0,3.4-2.88c2-2,4.16-3.67,6.18-5.57,1-1,2.1-2,3.09-3,1.17-1.22,2.55-2.2,3.63-3.52,1.22-1.5,2.57-2.89,3.81-4.38a23,23,0,0,0,1.7-2.43,7.67,7.67,0,0,0,.93-2,13.27,13.27,0,0,1,1.07-2.3c.13-.26.25-.28.88-.36.25.38.06.77,0,1.13a28,28,0,0,1-1.08,3.24c-.37.86-1,1.61-1.41,2.44a35.44,35.44,0,0,1-2.7,3.53c-.83,1.16-1.83,2.21-2.76,3.3s-2,2.43-3.1,3.61c-.45.51-1,.93-1.49,1.42s-.85,1-1.32,1.41-1.06.9-1.57,1.36-1.08,1-1.63,1.53c-.32.3-.67.58-1,.86-.11.09-.26.15-.37.25-.83.78-1.63,1.58-2.48,2.34-.63.55-1.29,1.06-2,1.56-1.74,1.31-3.51,2.57-5.24,3.89-1.18.9-2.3,1.89-3.48,2.81-.82.64-1.68,1.23-2.51,1.86a12,12,0,0,0-1,.83,8.53,8.53,0,0,1-2.39,1.74,2.79,2.79,0,0,0-.79.67,21.93,21.93,0,0,1-2.42,2.2c-1.1.86-2.12,1.81-3.15,2.74S83.9,83.9,83,84.77c-.46.45-.89.93-1.33,1.4l-3,3.15c-.3.32-.61.64-.89,1-1.16,1.43-2.31,2.86-3.45,4.31-.33.43-.61.9-.92,1.35a7.13,7.13,0,0,1-.79,1.08,14.88,14.88,0,0,0-2.44,3.36,6.35,6.35,0,0,1-.63.84,15.2,15.2,0,0,0-2.41,3.58,5.89,5.89,0,0,1-.59.85l-1.13,1.75c-.38.59-.77,1.16-1.13,1.75A24.75,24.75,0,0,0,62,113.29a10,10,0,0,1-.74,1.46,45.05,45.05,0,0,0-3.06,6.43A5.94,5.94,0,0,1,57,123.26Z"/><path class="cls-1" d="M85.39,243.77a3.64,3.64,0,0,1-.38.82,5.78,5.78,0,0,1-2.67-1.7,3.27,3.27,0,0,0-.5-.55,18.78,18.78,0,0,1-4.19-5,2.61,2.61,0,0,1-.49-.91,4.82,4.82,0,0,0-.83-2c0-.05,0-.18.09-.36.83.53,1.85.75,2.24,1.82.06.17.25.3.4.43,1.19,1.05,2.42,2.06,3.57,3.16s2.4,2.07,3.54,3.16a60.76,60.76,0,0,0,5.65,4.61A3.37,3.37,0,0,1,93,248.47c-.24,0-.45.09-.58,0-.57-.3-1.12-.64-1.68-1A45.85,45.85,0,0,1,85.93,244a.91.91,0,0,0-.54-.21s0-.06.06-.11c-.16-.23-.3-.48-.48-.7a1.28,1.28,0,0,0-.37-.16c0,.13,0,.25,0,.29A3,3,0,0,0,85.39,243.77Zm-1.66-1.7.06.09,0,0-.09-.05a1,1,0,0,0-.69-.83l-.1,0,.09.05A1,1,0,0,0,83.73,242.07Z"/><path class="cls-1" d="M64.73,161.28a4,4,0,0,1,.17,1,26.28,26.28,0,0,0,.93,8.23c.54,2.22,1.1,4.43,1.7,6.63.48,1.72,1,3.42,1.56,5.13.12.4.24.76-.24,1.12a13.7,13.7,0,0,1-.77-1.26c-.68-1.43-1.35-2.87-2-4.33a13.66,13.66,0,0,1-.38-1.43c-.4-1.28-.83-2.55-1.23-3.82a30.4,30.4,0,0,1-1.3-7.32,7.3,7.3,0,0,1,.64-3.47C64,161.41,64.22,161.3,64.73,161.28Z"/><path class="cls-1" d="M61.52,176.12a2.67,2.67,0,0,1-1.47-1.5,16.93,16.93,0,0,1-1.52-5.11c0-.55-.09-1.09-.18-1.63a13,13,0,0,1,.56-5.87,4,4,0,0,1,1.47-2.35c.5.23.48.65.42,1-.14.93-.34,1.86-.52,2.78a3.43,3.43,0,0,0-.17.87c.17,1.68-.11,3.38.23,5a6.47,6.47,0,0,0,.25,1.16,5.18,5.18,0,0,1,.2,1.3,10,10,0,0,0,.9,3.42A.59.59,0,0,1,61.52,176.12Z"/><path class="cls-1" d="M58.14,173a.71.71,0,0,1-1,.24A2.93,2.93,0,0,1,55.91,172c-.26-.54-.54-1.08-.74-1.63a14.93,14.93,0,0,1-1-5.55A14.66,14.66,0,0,1,55,161,4.51,4.51,0,0,1,56,159.6a.6.6,0,0,1,.41-.1c.08,0,.17.08.33.17a4,4,0,0,1-.06.67,14.22,14.22,0,0,0-.4,5.47c.09.69.12,1.39.24,2.08.23,1.21.45,2.44.77,3.63A7,7,0,0,0,58.14,173Z"/><path class="cls-1" d="M86.77,204.18,88.06,206c0,1.05-.72,1.7-1,2.51a8.4,8.4,0,0,1-1.49,2.22,6.72,6.72,0,0,1-1.49,1l-1.13-.57c-.38-.63-.59-1.2.82-2.54a11.72,11.72,0,0,1,.06-1.44,1.84,1.84,0,0,1,.43-.91c.67-.66,1.4-1.26,2.11-1.87C86.39,204.26,86.51,204.26,86.77,204.18Z"/><path class="cls-1" d="M136.89,152.78a6.91,6.91,0,0,1,.19,1.2c0,1.13-.08,2.27-.21,3.4a10.58,10.58,0,0,1-.47,2.76,6.32,6.32,0,0,0-.14,1.76,6,6,0,0,1-.08.74,1.4,1.4,0,0,1-.86,1.13,1.11,1.11,0,0,1-1.21-.26,1.49,1.49,0,0,1-.18-1.16c.32-2,.55-4,1-6a23.86,23.86,0,0,1,1-3A.85.85,0,0,1,136.89,152.78Z"/><path class="cls-1" d="M132.78,152l.44.24a42.48,42.48,0,0,1-1,7.78,8.85,8.85,0,0,0-.12.88,9.06,9.06,0,0,1-1.2,3.34,2.63,2.63,0,0,1-.45.59.7.7,0,0,1-1.16-.39,1.9,1.9,0,0,1,.11-1,19.09,19.09,0,0,0,1.09-4c.55-2.06,1-4.14,1.52-6.2A1.91,1.91,0,0,1,132.78,152Z"/><path class="cls-1" d="M136.22,62.12a3.79,3.79,0,0,1-.75-1.51c-.32-1.29-.75-2.57-1-3.88a41.45,41.45,0,0,0-1.25-4.11c-.35-1.24-.78-2.46-1.21-3.67-.32-.89-.71-1.74-1-2.62a2.32,2.32,0,0,1-.14-.86c0-.16.17-.32.31-.54.22.15.44.22.51.37a43,43,0,0,1,2.69,6.25,16,16,0,0,1,1.09,4.15,3.06,3.06,0,0,0,.25,1,18.84,18.84,0,0,1,.74,4.83C136.45,61.66,136.34,61.8,136.22,62.12Z"/><path class="cls-1" d="M130.5,96.74l.82.19a2.36,2.36,0,0,1,1.8,1.76,3.94,3.94,0,0,1,.13,3.35,1.7,1.7,0,0,1-2.26.22c-.38-.23-.81-.38-1.16-.63a3.1,3.1,0,0,1-.29-4C129.81,97.31,130.13,97.07,130.5,96.74Z"/><path class="cls-1" d="M51.66,175.49l-.72,1.44a19,19,0,0,0,.94,2.65,8.22,8.22,0,0,1,.75,1.93,2.39,2.39,0,0,0,1.37,1.9c0,.77,0,.77-.7,1.19a3.58,3.58,0,0,1-2-1.53,13.74,13.74,0,0,1-1.66-3.29,8.75,8.75,0,0,1-.35-2.77,1.39,1.39,0,0,1,.57-1.17A1.82,1.82,0,0,1,51.66,175.49Z"/><path class="cls-1" d="M79.5,231.86c.63-.28,1,.13,1.27.51.54.65,1.08,1.3,1.56,2,1.34,1.92,3,3.59,4.43,5.4a4.47,4.47,0,0,1,1,1.63,2.23,2.23,0,0,1-1.6-.55c-1.5-1.37-3-2.77-4.33-4.28a24.87,24.87,0,0,1-2.15-3A1.66,1.66,0,0,1,79.5,231.86Z"/><path class="cls-1" d="M69.32,221.09c-1.85-1-1.93-2.61-1.86-4.22a1.53,1.53,0,0,1,1.13-.67l.47.72a.92.92,0,0,0,.28.05,8.52,8.52,0,0,1,.88-.16,1.28,1.28,0,0,1,1.51,1.26,12.72,12.72,0,0,1-.09,1.63c0,.25,0,.5,0,.66C71,221.46,70.06,220.92,69.32,221.09Z"/><path class="cls-1" d="M88.32,240c.14-.76.11-1.52,1-1.7.71.06.5.65.68,1.11a22.36,22.36,0,0,0,4.49,2.74,6.09,6.09,0,0,0,1.41.29c.12.64.06.88-.29,1a3.54,3.54,0,0,1-2.06.15A8.57,8.57,0,0,1,88.32,240Z"/><path class="cls-1" d="M52.45,171.25a4.83,4.83,0,0,1-.82-.81,7.23,7.23,0,0,1-1.13-2.87c-.12-1.19-.25-2.37-.4-3.55a5,5,0,0,1,.31-2.33,2.37,2.37,0,0,1,.56-.86.73.73,0,0,1,1.11,0,2.38,2.38,0,0,1,0,.53,18,18,0,0,0,.37,8.22A2.48,2.48,0,0,1,52.45,171.25Z"/><path class="cls-1" d="M54.67,175.26c.06.59.14,1.17.19,1.76a7.67,7.67,0,0,0,1.23,3.62,13.33,13.33,0,0,1,.74,1.46,2.05,2.05,0,0,1,.07.53c-.25,0-.54.17-.68.08a4.22,4.22,0,0,1-1.28-1,23.08,23.08,0,0,1-1.84-3.05,3.74,3.74,0,0,1,.24-3.16C53.53,175,54,174.91,54.67,175.26Z"/><path class="cls-1" d="M138.33,90.07a3.37,3.37,0,0,1-.36,1c-.94,1.18-2,.92-2.89,0a3,3,0,0,1,.26-3.9,1.12,1.12,0,0,1,1.36-.09Z"/><path class="cls-1" d="M62,197a4.5,4.5,0,0,1,.38,2.63c-.1.83-.24,1.66-.34,2.5-.22,1.92-.44,3.83-.63,5.75,0,.53,0,1.07,0,1.55-.37.2-.62.09-.68-.16a8.86,8.86,0,0,1-.25-1.44c0-.24.12-.5.09-.74a19.81,19.81,0,0,1,.16-4.42,32.71,32.71,0,0,1,.89-5.11C61.6,197.4,61.73,197.29,62,197Z"/><path class="cls-1" d="M96.87,240.28a13.77,13.77,0,0,1-3.77-1.7,1.18,1.18,0,0,1-.32-.31.7.7,0,0,1,.37-1.08,1.6,1.6,0,0,1,.87,0c1,.37,1.92.79,2.87,1.19s2.1.88,3.14,1.34a3.46,3.46,0,0,1,.61.47,2.3,2.3,0,0,1-1.83.7c-.57-.09-.82-.49-1-1Z"/><path class="cls-1" d="M81.23,107.73a1.82,1.82,0,0,1,1.21,1.12,2.35,2.35,0,0,1-.17,1.87,2.81,2.81,0,0,1-1.65,1.44,1.5,1.5,0,0,1-1.56-1.06,1.48,1.48,0,0,1,.14-1.41A5,5,0,0,1,81.23,107.73Z"/><path class="cls-1" d="M123,203.64c-.3.39-.58.8-.91,1.16a2,2,0,0,1-.83.58,2.21,2.21,0,0,1-1,0c-.28,0-.31-.11-.84-.78.19-2.1.51-2.5,2.13-2.6l.88-1.08C122.92,201.65,122.92,201.65,123,203.64Z"/><path class="cls-1" d="M76.68,125.94l.82,1.18a2.71,2.71,0,0,1-.9,1.92,1.43,1.43,0,0,1-1.73.45,1.71,1.71,0,0,1-1-2.22c.12-.32.26-.63.4-1A5.24,5.24,0,0,1,76.68,125.94Z"/><path class="cls-1" d="M90.74,185.27c.35-.44.29-1.31,1.27-1.44l.26.85c.43.56,1.44.17,1.71,1.09a13.6,13.6,0,0,1-.55,1.63,1.64,1.64,0,0,1-1.88,1.08l-.8-.82C90.74,186.83,90.74,186.09,90.74,185.27Z"/><path class="cls-1" d="M61.57,150.46c-.7.73-1.25,1.36-1.87,1.91a7.62,7.62,0,0,0-2,2.54,3.17,3.17,0,0,1-.63.74c-.61-.38-.61-.38-1-1.26a5.44,5.44,0,0,1,.46-.95,9,9,0,0,1,3.43-3C60.58,150.19,60.58,150.18,61.57,150.46Z"/><path class="cls-1" d="M109.58,74a5.23,5.23,0,0,0-.2,3.28c.23,1.11.57,2.2.85,3.29a2,2,0,0,1,.07.73c0,.15-.19.28-.36.5a2.44,2.44,0,0,1-.41-.52c-.56-1.43-1.13-2.85-1.65-4.3a4.43,4.43,0,0,1,.14-2.62.81.81,0,0,1,.73-.66A2.41,2.41,0,0,1,109.58,74Z"/><path class="cls-1" d="M129.19,184.18a2.37,2.37,0,0,1,.12,1.8c-.12.34-.14.37-1,.87-.64.08-1.12-.34-1.7-.56l-1.7,0c0-.19,0-.33,0-.37.58-.53,1.21-1,1.76-1.58A1.66,1.66,0,0,1,129.19,184.18Z"/><path class="cls-1" d="M57.88,148.1c-1.44,1.07-2,2.33-3,4.9a.72.72,0,0,1-.91-.26,1,1,0,0,1-.34-.93c.58-1.7,1.23-3.36,3.13-4.05A.77.77,0,0,1,57.88,148.1Z"/><path class="cls-1" d="M95.5,153.77c-.24.19-.38.33-.54.43-.54.34-1.11.65-1.64,1-.95.66-1.38.62-2.11-.3a1.82,1.82,0,0,1-.2-.42,3.41,3.41,0,0,1,1.56-2.15C93.43,153,94.58,153,95.5,153.77Z"/><path class="cls-1" d="M126.6,58.45a5.73,5.73,0,0,1,.85-2.67,1.46,1.46,0,0,1,1.56-.05l.62,1.2a2.37,2.37,0,0,1-1.42,2.15A1.26,1.26,0,0,1,126.6,58.45Z"/><path class="cls-1" d="M105.54,76.86a.88.88,0,0,1,.94.61,22.82,22.82,0,0,1,1.21,3.81,4.19,4.19,0,0,1,0,.6,1.23,1.23,0,0,1-1.31-.55,8.09,8.09,0,0,1-1.4-3.09A1.12,1.12,0,0,1,105.54,76.86Z"/><path class="cls-1" d="M132.82,59.29c-.3-.68-.52-1.06-.65-1.48-.68-2.35-1.5-4.67-2-7.16l.63-.14A8.62,8.62,0,0,1,132,53.44c.41,1.37.71,2.77,1.05,4.15A2.66,2.66,0,0,1,132.82,59.29Z"/><path class="cls-1" d="M86.5,123.36l2,.11a5.51,5.51,0,0,1,.65.89,1.2,1.2,0,0,1-1,1.73,2.18,2.18,0,0,1-1.76-.6,1,1,0,0,1-.33-.94C86.18,124.17,86.34,123.82,86.5,123.36Z"/><path class="cls-1" d="M122.58,90.58a3.5,3.5,0,0,1-1.8,3.55A1.87,1.87,0,0,1,119.56,93,3.67,3.67,0,0,1,122.58,90.58Z"/><path class="cls-1" d="M116.23,219.29c.07.3.15.45.12.58-.17.76-.37,1.53-.57,2.29a1.6,1.6,0,0,1-.14.42,1,1,0,0,1-.91.63c-.36,0-.63-.31-.7-.83s-.09-1.07-.13-1.66C114.79,220.42,115.18,219.47,116.23,219.29Z"/><path class="cls-1" d="M68,120.81a1.72,1.72,0,0,1-.45,1.62,2.91,2.91,0,0,1-1,.59,1,1,0,0,1-1.06-.42c-.3-.74.15-1.24.65-1.64A1.67,1.67,0,0,1,68,120.81Z"/><path class="cls-1" d="M118.2,188.68l1.52,1.25a8.16,8.16,0,0,1-.75.78A1.15,1.15,0,0,1,117.4,189a1.27,1.27,0,0,1,.34-.27A2.5,2.5,0,0,1,118.2,188.68Z"/><path class="cls-1" d="M64.33,205.72a1.19,1.19,0,0,1-.84,1.24,1.09,1.09,0,0,1-1.14-.93A1.22,1.22,0,0,1,63.41,205,.82.82,0,0,1,64.33,205.72Z"/><path class="cls-1" d="M111.64,180.32c-.65-.15-.84-.47-.85-.9a.77.77,0,0,1,.54-.79A1.59,1.59,0,0,1,113,179C112.79,179.69,112.15,180,111.64,180.32Z"/><path class="cls-1" d="M86.91,97.91a.79.79,0,0,1-.78.73c-.66,0-1.17-.29-1.22-.79a.85.85,0,0,1,.9-.92A1.14,1.14,0,0,1,86.91,97.91Z"/><path class="cls-1" d="M129.77,69.44c-.37-1.17-.26-1.39.8-1.75a1.42,1.42,0,0,1,.26,1.54Z"/><path class="cls-1" d="M55.83,126.09a6.12,6.12,0,0,1,.44-2.24.9.9,0,0,1,.73-.61l0,0a4.42,4.42,0,0,1-1.2,2.83Z"/><path class="cls-1" d="M55.83,126.09c0,.11,0,.22,0,0-.11.2-.06.11,0,0Z"/><polygon class="cls-1" points="75.53 233.45 75.64 233.5 75.53 233.56 75.53 233.45"/><path class="cls-1" d="M40.58,127.6a7.33,7.33,0,0,1,.12,1.16c-.23,2.22-.67,4.4-1,6.6a10.4,10.4,0,0,0-.2,2.16c.94-1.62,1.16-3.58,2.42-5,.45,0,.56.28.53.54-.11.73-.23,1.46-.39,2.19-.37,1.69-.79,3.37-1.15,5.07-.19.86-.32,1.74-.46,2.54a.57.57,0,0,1-.87,0,2,2,0,0,1-.64-1.75c0-.38.06-.77.09-1.18l-1.14-.4a3.29,3.29,0,0,1-.49-3,29.49,29.49,0,0,1,1.2-5.5c.4-1,.81-1.91,1.27-2.85C40,128,40.25,127.86,40.58,127.6Z"/><path class="cls-1" d="M13.31,100a5.28,5.28,0,0,1-1.59-3.34,4,4,0,0,1,.87-3.22,2.79,2.79,0,0,1,1.08-.76,1.3,1.3,0,0,1,1.82.78A4.57,4.57,0,0,1,16,95.87c-.12.73-.14,1.48-.2,2.22-.12,1.4-.64,1.9-2.08,2A1.55,1.55,0,0,1,13.31,100Z"/><path class="cls-1" d="M43.45,122.1a9,9,0,0,1-.44-.95,2,2,0,0,1,.57-2.18c.68-.62,1.47-1.12,2.18-1.65a1.87,1.87,0,0,1,1.48,1.77,3.55,3.55,0,0,0,.08.73c.36,1.52-.83,2.4-1.84,2.84C44.75,123,44.13,122.62,43.45,122.1Z"/><path class="cls-1" d="M54.32,93.56l.75,1.16a16,16,0,0,1-.39,1.59A2.79,2.79,0,0,1,53,98.08a1.36,1.36,0,0,1-1.78-.64,4.68,4.68,0,0,1-.48-1.83l1.63-1.83Z"/><path class="cls-1" d="M51.14,229c.64-.16.91.06,1.06.4a11.16,11.16,0,0,0,1.5,2.56c.4.5.78,1,1.15,1.54s.63.9.9,1.37a1.16,1.16,0,0,1,.11.57c0,.08-.08.17-.15.32a2.42,2.42,0,0,1-1.51-.37,9.08,9.08,0,0,1-2.85-3A3.67,3.67,0,0,1,51.14,229Z"/><path class="cls-1" d="M11.28,71.49c-.38-.39-.74-.8-1.14-1.17a4.07,4.07,0,0,1-1.22-2l.36-.92c.19,0,.32-.06.37,0a2.49,2.49,0,0,1,.64.61,5.19,5.19,0,0,0,2.23,1.89c1,.54,1.94,1.18,2.9,1.79a2.47,2.47,0,0,1,.63.62.67.67,0,0,1-.15,1,4.07,4.07,0,0,1-.77-.14c-.74-.29-1.45-.63-2.19-.92a9.74,9.74,0,0,0-1-.25h0a.61.61,0,0,0-.66-.53Z"/><path class="cls-1" d="M11.94,72a4.8,4.8,0,0,0,3.51,3.5c.45.17,1,.14,1.3.69a1.87,1.87,0,0,1-1.49.85,3.14,3.14,0,0,1-2.38-.62,7.46,7.46,0,0,0-.7-.56,3.55,3.55,0,0,1-1.53-2.43,1.6,1.6,0,0,1,.63-2h0l.66.53Z"/><path class="cls-1" d="M32.11,167.71a15.39,15.39,0,0,1-.21,1.57,2.54,2.54,0,0,1-.94,1.48,1.64,1.64,0,0,1-1.31.22,3.52,3.52,0,0,1-1.27-2.25,1.92,1.92,0,0,1,.91-2,2.23,2.23,0,0,1,2.36.34A3.76,3.76,0,0,1,32.11,167.71Z"/><path class="cls-1" d="M57.88,87.77c-.29-.38-.62-.8-.91-1.16s-1.07-.17-1.3-.88c.13-.16.26-.45.48-.58.55-.32,1.14-.56,1.74-.85a26,26,0,0,1,2.72,1.18,9,9,0,0,1-1.09,2.14A1.9,1.9,0,0,1,57.88,87.77Z"/><path class="cls-1" d="M21.37,107.73H22.5a2.27,2.27,0,0,1,1.12,2.17c-.07,1-.07,2.12-1.19,2.7a1,1,0,0,1-1.17-.72,8,8,0,0,1-.28-3.23A4.34,4.34,0,0,1,21.37,107.73Z"/><path class="cls-1" d="M25.37,97.91c.44-1,.58-2.36,2.13-2.61a1.58,1.58,0,0,1,1,1.58,2.35,2.35,0,0,1-.89,2,1.27,1.27,0,0,1-1.94-.26,1,1,0,0,1-.15-.26A3.62,3.62,0,0,1,25.37,97.91Z"/><path class="cls-1" d="M18.22,86.93a1.25,1.25,0,0,1-1.35-.8A1.21,1.21,0,0,1,17.1,85c.23-.37.41-.78.61-1.18a1.31,1.31,0,0,1,1-.74l.83.65c-.08.66-.15,1.24-.23,1.87Z"/><path class="cls-1" d="M67.3,243.05l.42.25c.16,1.19-.6,2-1.23,2.78a4.43,4.43,0,0,1-2.79,1.7l-.42-.57A24.4,24.4,0,0,0,67.3,243.05Z"/><path class="cls-1" d="M46.09,115.35a4.07,4.07,0,0,1-.86-.4.93.93,0,0,1-.06-1.33,2.51,2.51,0,0,1,1.61-.67,1.88,1.88,0,0,1,1.83.46c-.1.15-.16.36-.29.46C47.59,114.38,46.84,114.86,46.09,115.35Z"/><path class="cls-1" d="M38.64,158.42a1.24,1.24,0,0,1-1.06,1.25.94.94,0,0,1-1.26-.85,11.57,11.57,0,0,1-.06-1.24,3,3,0,0,1,.86-.15A2,2,0,0,1,38.64,158.42Z"/><path class="cls-1" d="M51.12,85.22c-.22,1-1.13.9-1.75,1.19A1,1,0,0,1,48.14,86,1,1,0,0,1,49,84.81C49.72,84.6,50.53,84.38,51.12,85.22Z"/><path class="cls-1" d="M30.25,122.52a4.2,4.2,0,0,1,.31-.52,2.31,2.31,0,0,1,.39-.3,3.2,3.2,0,0,1,1.87.87,2.84,2.84,0,0,1-.36.45c-.34.31-.75.14-1.13.11S30.52,123.12,30.25,122.52Z"/><path class="cls-1" d="M27.16,153.05c-.56.68-1.06,1.19-1.92,1-.45-.8-.31-1.27.44-1.41C26.19,152.52,26.75,152.35,27.16,153.05Z"/><path class="cls-1" d="M39.58,117.27c-.1.94-1,.81-1.5,1.25C38.09,117.51,38.9,117.48,39.58,117.27Z"/><path class="cls-1" d="M82.94,67.1c-1.08-.48-1.21-1.36-1.31-2.32a2.74,2.74,0,0,0-.53-.14,1.85,1.85,0,0,1-1.53-1.45A3.57,3.57,0,0,1,79.43,62c0-1.19.55-1.55,1.88-1.39.71.63.33,1.6.7,2.4.48.1.57-.48,1-.58l.4.13c0,.11.09.16.09.2-.07,1.33.25,2.67-.21,4C83.28,66.86,83.12,66.94,82.94,67.1Z"/><path class="cls-1" d="M82.53,56.7c.43-.39.71-1,1.41-1a.74.74,0,0,1,.52.81A9,9,0,0,1,84.27,58a16.48,16.48,0,0,1-.48,1.7c0,.13-.19.22-.28.33-.87,0-1-.67-1.28-1.22-1.15,1-1.44,1-2.26-.41a6.81,6.81,0,0,1,.32-1.21,1.65,1.65,0,0,1,1-1C81.85,56.09,82.18,56.41,82.53,56.7Z"/><path class="cls-1" d="M88.89,61.54c-.09,0-.22,0-.27-.11A6.24,6.24,0,0,1,87.38,58c0-.1,0-.2,0-.3a.73.73,0,0,1,.54-.64.67.67,0,0,1,.77.32,2.64,2.64,0,0,1,.47.91c.14.83.21,1.68.28,2.52A.62.62,0,0,1,88.89,61.54Z"/><path class="cls-1" d="M85.5,50,85,49.33c.14-.4.24-.78.39-1.14a2.39,2.39,0,0,1,2-1.34c.4-.09.6.14.87.9C87.38,48.42,86.92,49.64,85.5,50Z"/><path class="cls-1" d="M83.15,54.84l-.92-.68a3.52,3.52,0,0,1,1.31-2.93,1.82,1.82,0,0,1,1.22.37,1.9,1.9,0,0,1,0,.41,1.73,1.73,0,0,1-.2.55C84.16,53.27,83.71,54,83.15,54.84Z"/><path class="cls-1" d="M84.34,63l.49-.68a1.46,1.46,0,0,1,.38,0,1.28,1.28,0,0,1,.94.67,7.24,7.24,0,0,1,1,2.62,1,1,0,0,1-1.39-.17A6,6,0,0,1,84.34,63Z"/><path class="cls-1" d="M86.41,54.7c-.87,0-1-.57-1-1.13a1.73,1.73,0,0,1,1.19-1.83c.73.16.92.71,1.12,1.29A3.61,3.61,0,0,1,86.41,54.7Z"/><path class="cls-1" d="M86.36,61.25c-1,.08-1,.08-1.69-1.22.08-.49.17-1,.79-1.23a1.08,1.08,0,0,1,1.23.44A4.61,4.61,0,0,1,86.36,61.25Z"/><path class="cls-1" d="M88.23,49.91c.41-.19.81-.39,1.21-.55s.37,0,.84.47c-.23.86-1,1.12-1.68,1.5C88,51,88,50.59,88.23,49.91Z"/><path class="cls-1" d="M93.19,53.29a5.21,5.21,0,0,1-.37.69,8.2,8.2,0,0,1-.57.59c-.5,0-.76-.2-.75-.59,0-.67.57-.85,1.22-1.11Z"/><path class="cls-1" d="M53.73,32.85a3.78,3.78,0,0,0-2.24,2.48c-.43,1.22-.74,2.48-1.11,3.72-.06.19-.14.37-.2.52-.57.34-1,0-1.41-.22-.64-.38-1.27-.79-1.92-1.16a5.45,5.45,0,0,0-.91-.29c-.24.46-.45.87-.74,1.41a2.59,2.59,0,0,1-.3-1.7,1.77,1.77,0,0,1,1.34-.94l3,1.27c.12-.3.23-.56.33-.82.32-.94.59-1.91,1-2.82a5.86,5.86,0,0,1,2.62-2.77,1.49,1.49,0,0,1,1.3-.12l1.87.7,2.29,3.28a2.21,2.21,0,0,0,.53-.29,9.07,9.07,0,0,1,2.57-1.5,1.86,1.86,0,0,1,2,.13,3.7,3.7,0,0,1,1.76,2.65c.12.84.19,1.68.28,2.42.43.37.75.07,1.08.06s.8-.1,1.19-.08a2.51,2.51,0,0,1,2.28,2c.07.34.11.68.17,1-.19.49-.36,1-.57,1.51s-.4.89-.61,1.32L68,45c-.13-.18-.33-.34-.32-.49a5.82,5.82,0,0,1,.24-1c.15-.63.33-1.25.45-1.89a.85.85,0,0,0-.38-1,16.06,16.06,0,0,0-3.1,1.14c-.25-.17-.63-.29-.79-.55a1.89,1.89,0,0,1-.27-1.11A21.63,21.63,0,0,0,64,37.45a3.6,3.6,0,0,0-.7-2.28,1.71,1.71,0,0,0-2.26.3c-.72.68-1.47,1.34-2.21,2L57.37,37a4.47,4.47,0,0,1-.93-1.49A4.32,4.32,0,0,0,54,32.87Z"/><path class="cls-1" d="M16.47,18.83c-.91.51-.93.51-1.29-.23a2.89,2.89,0,0,1,1.51-.88c.11,0,.29,0,.39.13a14.5,14.5,0,0,1,2.42,2.59c.95,1.51,2,3,2.9,4.51,1,1.69,2,3.41,3,5.14a20.61,20.61,0,0,1,.88,2c-.17.37-.43.33-.58.1-.55-.82-1.07-1.67-1.6-2.51-.23-.38-.43-.79-.67-1.16-.8-1.26-1.58-2.52-2.42-3.75q-1.7-2.44-3.47-4.84A10,10,0,0,0,16.47,18.83Z"/><path class="cls-1" d="M31,46.59a36.25,36.25,0,0,1-1.88-4.82,7,7,0,0,0-.21-.69,63,63,0,0,1-2.73-6.59.77.77,0,0,1,0-.25l.53-.47a2.34,2.34,0,0,1,1.1,1.29,25,25,0,0,1,1.07,2.76A27.94,27.94,0,0,0,30,40.89a31,31,0,0,1,1.16,3.53c.15.47.27.95.41,1.43C31.6,46.07,31.53,46.18,31,46.59Z"/><path class="cls-1" d="M53.78,21.29c-.77-.07-.89-.45-.94-.85a4.49,4.49,0,0,0-1.23-2.5,4.06,4.06,0,0,0-2.89-1.34,4,4,0,0,0-1.35.43c-.24-.14-.19-.34-.06-.5a2.13,2.13,0,0,1,2.51-.79,5.28,5.28,0,0,1,2.24,1.42l1.28,1.36c.52.07.66-.3.89-.54A6.47,6.47,0,0,1,57,16.07a3.74,3.74,0,0,1,4,1,19.54,19.54,0,0,1,1.23,1.74c.27-.23.5-.47.77-.67a3.3,3.3,0,0,1,4.24.06.74.74,0,0,1,.09,1.14c-.57,0-1.2,0-1.84,0-.14,0-.29-.06-.44-.07a1.76,1.76,0,0,0-2.08,1,.92.92,0,0,1-1.29.57,9,9,0,0,1-.62-1.24,4.54,4.54,0,0,0-2.43-2.48c-.26-.14-.53-.26-.81-.39-.87.63-1.74,1.19-2.53,1.86A6.76,6.76,0,0,0,53.78,21.29Z"/><path class="cls-1" d="M45.3,56.67l.71.43c0,.18,0,.36,0,.46a6.52,6.52,0,0,1-2.18,1.82c-.16-.19-.51-.47-.47-.6.37-1.07.08-2.27.71-3.27,1.4-.86,1.4-.86,2.28-.38Z"/><path class="cls-1" d="M57.6,51.65c1.12.44,1.12.44,1.07,1.5l-1.17.13a6.59,6.59,0,0,1-.78.58,3.54,3.54,0,0,1-1,.34.82.82,0,0,1-.91-.36.88.88,0,0,1,.27-1.06,1,1,0,0,1,.5-.29A4.15,4.15,0,0,0,57.6,51.65Z"/><path class="cls-1" d="M60.51,55a.73.73,0,0,1,1,.15,1.19,1.19,0,0,1,.29,1.24c-.19.45-.45.86-.66,1.26-1,0-1,0-1.56-.8.17-.3.36-.63.54-1S60.39,55.29,60.51,55Z"/><path class="cls-1" d="M56.62,57.12c1.72.22,1.85.35,1.83,1.65-1.19.6-1.45.55-2.56-.62Z"/><path class="cls-1" d="M48.52,54.47,48,53.78c1-1.56,1.7-1.89,2.86-1.27C50.43,53.52,49.54,53.92,48.52,54.47Z"/><path class="cls-1" d="M51,51.84a1.81,1.81,0,0,1,1.53-1.67c.59.11,1.34.08,1.41,1.13A12.68,12.68,0,0,1,51,51.84Z"/><path class="cls-1" d="M54.8,56.31A2.37,2.37,0,0,1,53,56.16a.66.66,0,0,1-.15-1.11A1.37,1.37,0,0,1,54.36,55,1,1,0,0,1,54.8,56.31Z"/><path class="cls-1" d="M49.42,56.3c.16.64-.22,1.06-.37,1.46a.87.87,0,0,1-1.07.11.64.64,0,0,1-.22-.91A1.47,1.47,0,0,1,49.42,56.3Z"/><path class="cls-1" d="M96.09,35.17A7.93,7.93,0,0,1,96,31.29c.25-2,.62-3.92,1-5.88.21-1.23.43-2.45.69-3.66a57.71,57.71,0,0,1,2.17-7.6c.61-1.68,1.43-3.27,2-5a4.54,4.54,0,0,1,1.44-1.87s.17,0,.27,0c.22.23.08.47,0,.68a82.05,82.05,0,0,0-4.3,12.69c-.44,1.57-.84,3.16-1.21,4.76-.23,1-.37,2-.53,2.93-.36,2.05-.7,4.11-1.05,6.16A3.88,3.88,0,0,1,96.09,35.17Z"/><path class="cls-1" d="M109.24,38c-.08-.29-.14-.52-.2-.75a1.26,1.26,0,0,1,1.36-.37,1.69,1.69,0,0,1,1.3.82c-.46.42-.46.42-1.58.46.39.55,1.4.64,1.23,1.65a3,3,0,0,1-2,.28,3,3,0,0,1-1.18-.58.7.7,0,0,1,.14-1.21A7.5,7.5,0,0,1,109.24,38Z"/><path class="cls-1" d="M104.3,38.26a2.48,2.48,0,0,1-.4-.39,1.47,1.47,0,0,1-.1-.4,2.47,2.47,0,0,1,.93-1.15,1.68,1.68,0,0,1,1.06-.43,3.79,3.79,0,0,0,1.42-.24,1.27,1.27,0,0,1,.72,0,.65.65,0,0,1,.21,1.08c-.31.22-.71.54-1,.5-.78-.09-1.3.37-1.92.64C104.92,38,104.65,38.12,104.3,38.26Z"/><path class="cls-1" d="M116.47,37.42a2.91,2.91,0,0,1-2.77-.31.91.91,0,0,1-.41-1,.84.84,0,0,1,.9-.62,2.92,2.92,0,0,1,2.34,1.6C116.57,37.13,116.5,37.25,116.47,37.42Z"/><path class="cls-1" d="M119.44,36c-.23.59-.57.75-1,.55a8.51,8.51,0,0,1-1.39-.83.77.77,0,0,1-.17-1.11,1.48,1.48,0,0,1,1.48,0A2.77,2.77,0,0,1,119.44,36Z"/><path class="cls-1" d="M115.17,40.4c-.23-.64-.33-1.25.32-1.71a1.76,1.76,0,0,1,1.46.62.83.83,0,0,1,.18,1,.74.74,0,0,1-.72.42h-.89v0l-.3-.24Z"/><path class="cls-1" d="M112.15,34.39c-.91,1-1.45,1-3,.33l.35-.86c.65,0,1.19.34,1.78.13C111.48,33.93,111.78,34.2,112.15,34.39Z"/><path class="cls-1" d="M115.52,40.69c0,.23,0,.47,0,.69-1.16.4-1.16.4-2-.54.2-.28.42-.57.66-.89l1,.45,0,0,.3.24Z"/><path class="cls-1" d="M72.78,34.9l-.33-.27a6.2,6.2,0,0,1-.08-.74,2.65,2.65,0,0,1,1.34-2.48,3.87,3.87,0,0,1,2.21-.75,2,2,0,0,1,.46.15c-.12.48-.59.51-.87.73s-.67.44-1,.7-.56.57-.88.9C73.37,33.67,73.45,34.48,72.78,34.9Z"/><path class="cls-1" d="M19.76,54.31c-.57-.27-.82-.6-.79-1a2.06,2.06,0,0,1,.37-1.08,2.09,2.09,0,0,1,1-.61,1,1,0,0,1,1.09.45C21.66,53.37,20.5,53.67,19.76,54.31Z"/><path class="cls-1" d="M25.09,50.13a3.12,3.12,0,0,1-2.18,1.68.69.69,0,0,1-.77-.31.71.71,0,0,1,0-.83,2.19,2.19,0,0,1,1.29-.94A1.59,1.59,0,0,1,25.09,50.13Z"/><path class="cls-1" d="M25.66,52.94l-.4.76a2.69,2.69,0,0,1-.78-.33.67.67,0,0,1,0-.93C25,52.4,25,52.4,25.66,52.94Z"/><path class="cls-1" d="M24.69,55.66a.57.57,0,0,1-.9,0,.57.57,0,0,1,.29-.82C24.55,54.84,24.65,55,24.69,55.66Z"/></g></g></svg>