<svg height="512" viewBox="0 0 512 512" width="512" xmlns="http://www.w3.org/2000/svg"><path d="M512 256c0-3.11-.056-6.208-.165-9.29C506.945 109.627 394.275 0 256 0S5.056 109.628.166 246.71C.056 249.79 0 252.89 0 256c0 141.385 131.502 246.71 256 246.71 126.754 0 256-105.325 256-246.71z" fill="#ff5876"/><path d="M256 493.42C117.727 493.42 5.078 383.787.186 246.71.076 249.794 0 252.887 0 256c0 141.385 114.615 256 256 256s256-114.615 256-256c0-3.112-.075-6.205-.185-9.29C506.922 383.79 394.273 493.42 256 493.42z" fill="#e6485d"/><path d="M469.42 246.71C464.554 133.04 370.864 42.38 256 42.38S47.445 133.042 42.58 246.71c-.13 3.08 0 209.32 213.42 209.32s213.55-206.24 213.42-209.32z" fill="#e4eef9"/><path d="M256 451.037c-114.864 0-208.54-90.662-213.405-204.328-.132 3.08-.213 6.172-.213 9.29 0 117.974 95.64 213.614 213.618 213.614S469.618 373.974 469.618 256c0-3.114-.082-6.21-.213-9.29C464.54 360.376 370.865 451.037 256 451.037z" fill="#d5e0f2"/><path d="M333.595 181.05c-6.09-6.005-15.893-5.938-21.897.15l-36.334 36.837 3.65 17.537 16.973 5.654 37.76-38.28c6.003-6.09 5.936-15.893-.152-21.898zm-99.513 38.397l-82.402-73.432c-6.385-5.69-16.172-5.126-21.86 1.26-5.69 6.383-5.127 16.17 1.258 21.86l84.025 74.878 17.51-5.84z" fill="#405b6c"/><path d="M365.636 355.837c-1.758 0-3.524-.595-4.976-1.814l-98.073-82.378c-3.273-2.75-3.7-7.634-.95-10.907 2.75-3.275 7.634-3.7 10.91-.95l98.072 82.38c3.27 2.75 3.695 7.634.945 10.907-1.53 1.823-3.724 2.762-5.932 2.762z" fill="#86dcff"/><path d="M215.103 244.013l14.46 12.886 18.57-6.31-1.007-19.52-13.043-11.626c-9.075 5.453-15.944 14.19-18.98 24.566zm60.26-25.975l-12.294 12.464v24.466h19.362l13.552-13.74c-3.724-10.075-11.15-18.348-20.624-23.19z" fill="#2d4456"/><path d="M280.783 246.708c-3.762-10.03-13.44-17.17-24.783-17.17s-21.02 7.14-24.783 17.17c-1.084 2.89-.072 26.462 24.783 26.462s25.867-23.57 24.783-26.462z" fill="#ff5876"/><path d="M256 263.88c-11.344 0-21.017-7.14-24.78-17.17-1.084 2.89-1.68 6.02-1.68 9.29 0 14.614 11.846 26.46 26.46 26.46 14.613 0 26.46-11.847 26.46-26.46 0-3.27-.598-6.4-1.682-9.29-3.76 10.03-13.434 17.17-24.778 17.17z" fill="#e6485d"/><path d="M263.757 93.573V69.546c0-4.284-3.473-7.757-7.757-7.757s-7.757 3.47-7.757 7.753V93.57c0 4.285 3.472 7.758 7.757 7.758s7.757-3.474 7.757-7.758zm-15.514 324.854v24.027c0 4.284 3.472 7.757 7.757 7.757s7.757-3.47 7.757-7.753V418.43c0-4.285-3.473-7.758-7.757-7.758s-7.757 3.474-7.757 7.758zm194.21-154.67c4.286 0 7.758-3.473 7.758-7.757s-3.47-7.757-7.753-7.757H418.43c-4.285 0-7.758 3.473-7.758 7.757s3.474 7.757 7.758 7.757zM69.547 248.243c-4.285 0-7.757 3.473-7.757 7.757s3.47 7.757 7.755 7.757h24.027c4.285 0 7.757-3.473 7.757-7.757s-3.476-7.757-7.76-7.757z" fill="#405b6c"/></svg>