<svg id="Layer_1" xmlns="http://www.w3.org/2000/svg" viewBox="0 0 512 512"><style>.st0{fill:#FFAFC3;} .st1{fill:#FFA5B9;} .st2{fill:#FF9BAF;} .st3{fill:#FF91A5;} .st4{fill:#FF879B;} .st5{fill:#FF7D91;} .st6{fill:#FF7387;} .st7{fill:#FF6478;} .st8{fill:#FF5064;} .st9{fill:#D24150;}</style><path class="st0" d="M454.2 247.5l-47.5 134.7c-1.4 3.9.2 8.2 3.7 10.3 4.1 2.5 8.7 4.5 11.8 4.5 14.8 0 29.2-17 43.2-33.5 10.4-12.2 22.1-26.1 31.6-29.9 2.6-1 7-3.9 7.8-11.8 1.5-14.7-16.5-56.3-39.4-77.4-3.6-3.2-9.6-1.5-11.2 3.1z"/><path class="st1" d="M115.6 328.3l-7.9-13.1c-15.4-25.7-44.6-39.6-74.3-35.4l-8.2 1.2c-2.7.4-5.1 2-6.5 4.5-11 19.9-6.1 37.3-1.8 52.7 3.3 11.6 6.1 21.7 2.2 31.9-1 2.6-.7 5.5.8 7.8 3 4.8 42.3 33 83.5 36.9h.8c2.8 0 5.4-1.3 7.1-3.5 18.3-24.3 20-56.9 4.3-83zm95.5-299.4c-26.6-21.6-72.7-19-78.2-17.1-2.9 1-5.1 3.4-5.8 6.4-2 8.3-8.1 17.7-14.1 26.8-10.1 15.4-20.5 31.4-16.6 48.7.9 4 4.5 6.9 8.6 6.9h.4l22-1c38-1.7 71.7-25.2 86.4-60.3 1.5-3.8.4-8-2.7-10.4zm285.6 165.9c-14.1-57.8-79-81.1-81.8-82-4.6-1.6-9.6.8-11.2 5.4-.7 2-17 49.4-7.8 95.4 9.1 45.5 41.2 89.8 42.5 91.7 1.7 2.3 4.4 3.6 7.1 3.6.6 0 1.2-.1 1.8-.2 3.4-.7 6.1-3.3 6.8-6.7 2.3-10.1 16.8-42.7 27.4-66.5 16.2-36.4 16.2-36.7 15.2-40.7z"/><path class="st2" d="M139.7 82.7c-1.6-2.1-4-3.4-6.6-3.6C95.3 77 29 139.3 21.6 146.4c-1 1-1.8 2.2-2.2 3.5-1.1 3.3-27.1 80.6.4 132.6 10.9 20.7 28.6 34.5 52.6 41.1.8.2 1.6.3 2.3.3 1.5 0 3.1-.4 4.4-1.2 2.1-1.2 3.5-3.2 4.1-5.5l58-227.2c.6-2.5.1-5.2-1.5-7.3zm233.7-18.1c-40.2-23.2-55.7-57.8-55.9-58.2-1.2-2.7-3.7-4.7-6.6-5.2-.9-.2-89-14.2-118.5 54.4-1.7 4-.3 8.7 3.5 11L406.7 197c1.4.9 3 1.3 4.6 1.3.9 0 1.8-.1 2.7-.4 2.5-.8 4.5-2.6 5.5-5 13.3-31.6 12.5-94.4-46.1-128.3zm26.3 332.6c-.3-4.5-3.8-8-8.3-8.3L113.6 372c-3.6-.2-7 1.8-8.5 5.1-4.9 10.4-7.5 27.8-.2 45.6 9.3 22.7 31.8 40.8 67 53.7 17.9 6.6 30.5 12.9 41.7 18.4 13.9 6.9 25.8 12.8 41.5 15.9 4.4.9 8.9 1.3 13.4 1.3 21.4 0 44-9.4 64.9-27.3 4.1-3.5 10.1-7 16.4-10.7 22.2-13 52.6-30.7 49.9-76.8z"/><path class="st3" d="M442.7 268c-4.6-14-9.4-28.4-11.2-42.7-3.2-24.9-13-43.6-29.1-55.5-24.5-18.1-54.5-13.1-55.8-12.9-2.9.5-5.3 2.4-6.5 5.1L222.6 424.8c-1.5 3.4-.7 7.5 2 10.1 14.9 14 35.8 23.9 57.4 23.9 15.7 0 31.7-5.2 46.2-17.9 17.5-15.4 34.6-23.4 51.1-31.2 27.6-13 53.7-25.3 70.7-68 9.3-23.4 1.2-47.9-7.3-73.7z"/><path class="st4" d="M351.5 123.5c-8.8-17.7-17.7-26.5-50.6-37-19-6.1-41.5-9.5-64.4-23-43.4-25.5-77.9-8.1-94.7 4.6-28.5 21.5-46.1 60.1-39.3 86 1 3.8 4.4 6.5 8.3 6.6l228.7 7h.3c1.6 0 3.2-.4 4.6-1.3 8.6-5.2 17.1-22.8 7.1-42.9z"/><path class="st5" d="M259.2 400.5l-94.6-256.3c-.6-1.7-1.7-3.1-3.2-4.2-13.2-9.3-32.5-7.6-52.8 4.7C72 166.9 35.1 210 42.5 264.8c3.4 25.3 14.8 38.5 25.9 51.2 7.3 8.4 18.7 25.1 24.7 38.2 22.1 48.1 59 80.8 96.1 85.3 3 .4 5.9.5 8.9.5 22.7 0 43.6-10.8 59.7-31 1.9-2.4 2.4-5.6 1.4-8.5z"/><path class="st6" d="M347.7 157.3c-18.9-17.9-39.4-24-57.6-17.2-1.2.4-2.2 1.1-3.1 2l-144.9 144c-.7.7-1.2 1.4-1.6 2.2-7.4 14.5-5.8 39.2 3.9 61.7 7.2 16.7 25.4 46.6 65.7 58.3 9.6 2.8 19.6 4.1 29.7 4.1 60.4 0 125.8-47 145.7-110.3 17.1-54.6-6.7-115.3-37.8-144.8z"/><path class="st7" d="M256.1 121.9c-35.9-13.7-77.3-6.3-105.6 18.7-19.6 17.4-48.6 57.4-47.8 96.6.4 19.5 8.5 36.3 23.5 48.5 18.7 15.3 37.5 20.2 53.9 20.2 21.9 0 39.5-8.7 47.2-13.2.9-.4 1.8-1 2.5-1.8l82.6-84.4c1.9-1.9 2.8-4.6 2.5-7.2-4.4-36.6-25.8-64.8-58.8-77.4z"/><path class="st8" d="M313 194.9c-16.4-20.9-40.8-34.2-66.8-36.5-21-1.9-40.9 4-54.4 16.1-24.5 21.9-33.5 48.8-24.6 73.8 4.5 12.8 13.6 23.8 24.4 30.7-14.6 2-22.9 17.9-16 30.9 9.8 18.4 25.9 34.7 46.4 38.5 5.1 1 10.1 1.4 15.2 1.4 26.5 0 59.4-8 79-32.1 23-28.2 36.7-72.1-3.2-122.8z"/><path class="st9" d="M267.6 261.8c-5.2-.4-18 11.5-32.7-4-7.6-8-9-20.6-4.1-30.5 1.2-2.4 2.6-4.5 4.2-6.3 3.2-3.5.6-9-4.1-8.5-12.5 1.4-24.3 8.4-31.2 20.9-8 14.2-6.5 32.5 3.8 45.1 17 21 47.7 20.2 63.8.4 1.7-2.1 3.1-4.2 4.2-6.5 2-4 2.4-10.1-3.9-10.6z"/></svg>