<svg height="512" viewBox="0 0 512 512" width="512" xmlns="http://www.w3.org/2000/svg"><path d="M272.5 268.5l-54.958 84.957L165.1 375.9c-30.9-35.4-63.9-77.4-79.5-130.5L117 187l50.5-23.5c-.9 5.4-1.5 10.8-1.5 16.5 0 49.5 40.5 90 90 90 5.7 0 11.1-.6 16.5-1.5z" fill="#ffda2d"/><path d="M344.51 196.41c.9-5.37 1.49-10.74 1.49-16.41 0-49.46-40.44-89.94-89.89-90H256c-5.7 0-11.1.6-16.5 1.5l79.8-79.8c48.3 18 87 56.7 105 105l-79.8 79.8c0-.03.01-.06.01-.09z" fill="#80aef8"/><path d="M424.3 116.7L397 170l-52.5 26.5c0-.03.01-.06.01-.09.9-5.37 1.49-10.74 1.49-16.41 0-49.46-40.44-89.94-89.89-90h-.08V74.97L274 35l45.3-23.3c48.3 18 87 56.7 105 105z" fill="#4086f4"/><path d="M424.3 116.7l-79.8 79.8c-6.9 36.3-35.7 65.1-72 72h-.002l-86.872 86.87-20.528 20.528c5.1 5.7 9.6 10.802 14.4 16.2C212.5 429.6 241 464 241 497c0 8.4 6.6 15 15 15s15-6.6 15-15c0-33 28.5-67.4 61.5-104.9C378.7 340.2 436 275.4 436 180c0-22.2-3.9-43.5-11.7-63.3z" fill="#59c36a"/><path d="M424.3 116.7l-79.8 79.798c-6.9 36.302-35.7 65.1-72 72.002h-.002l-16.467 16.466v227.028c8.39-.018 14.97-6.606 14.97-14.994 0-33 28.5-67.4 61.5-104.9C378.7 340.2 436 275.4 436 180c0-22.2-3.9-43.5-11.7-63.3z" fill="#00a66c"/><path d="M256.03 284.97l16.47-16.47c-5.39.897-10.78 1.492-16.47 1.496z" fill="#fdbf00"/><path d="M319.3 11.7l-79.8 79.8c-18.3 3.6-34.5 12.3-47.1 24.9L146 97l-17.2-44.2C161.2 20.1 206.2 0 256 0c22.2 0 43.5 3.9 63.3 11.7z" fill="#4086f4"/><path d="M256.03 74.97L319.3 11.7C299.51 3.903 278.22.007 256.032.003V74.97z" fill="#4175df"/><path d="M192.4 116.4c-12.6 12.6-21.3 28.8-24.9 47.1l-81.9 81.9c-6-20.1-9.6-41.7-9.6-65.4 0-49.8 20.1-94.8 52.8-127.2z" fill="#f03800"/></svg>