<svg height="512pt" viewBox="0 0 512 512" width="512pt" xmlns="http://www.w3.org/2000/svg"><path d="M305 256c0 27.063-21.938 49-49 49s-49-21.938-49-49 21.938-49 49-49 49 21.938 49 49zm0 0"/><path d="M370.594 169.305c-2.356-6.383-6.114-12.16-10.996-16.903-4.743-4.882-10.516-8.64-16.903-10.996-5.18-2.01-12.96-4.406-27.293-5.058-15.504-.707-20.152-.86-59.402-.86-39.254 0-43.902.15-59.402.856-14.332.656-22.118 3.05-27.293 5.062-6.387 2.356-12.164 6.114-16.903 10.996-4.882 4.743-8.64 10.516-11 16.903-2.01 5.18-4.406 12.965-5.058 27.297-.707 15.5-.86 20.148-.86 59.402 0 39.25.153 43.898.86 59.402.652 14.332 3.047 22.114 5.058 27.293 2.36 6.38 6.114 12.16 10.996 16.9 4.743 4.88 10.516 8.64 16.903 10.99 5.18 2.014 12.97 4.41 27.3 5.06 15.5.707 20.15.856 59.4.856 39.26 0 43.91-.15 59.4-.856 14.33-.652 22.12-3.047 27.3-5.062 12.82-4.946 22.956-15.078 27.9-27.9 2.01-5.178 4.408-12.96 5.06-27.29.71-15.505.86-20.15.86-59.4 0-39.257-.15-43.905-.856-59.405-.652-14.33-3.047-22.117-5.062-27.296zM256 331.485c-41.69 0-75.488-33.794-75.488-75.485S214.31 180.516 256 180.516c41.688 0 75.484 33.793 75.484 75.484S297.688 331.484 256 331.484zm78.47-136.313c-9.743 0-17.642-7.9-17.642-17.64s7.9-17.64 17.64-17.64 17.64 7.897 17.64 17.64c-.003 9.74-7.897 17.64-17.64 17.64zm0 0"/><path d="M256 0C114.637 0 0 114.637 0 256s114.637 256 256 256 256-114.637 256-256S397.363 0 256 0zm146.113 316.605c-.71 15.65-3.2 26.333-6.832 35.684-7.63 19.74-23.24 35.35-42.99 42.99-9.35 3.63-20.03 6.11-35.68 6.83-15.67.71-20.68.88-60.6.88-39.923 0-44.93-.172-60.61-.887-15.64-.716-26.33-3.2-35.68-6.833-9.81-3.69-18.69-9.474-26.04-16.955-7.473-7.34-13.26-16.226-16.95-26.035-3.632-9.35-6.12-20.036-6.83-35.68-.723-15.68-.89-20.69-.89-60.61s.167-44.93.886-60.605c.71-15.65 3.196-26.33 6.83-35.684 3.69-9.805 9.48-18.69 16.96-26.03 7.34-7.48 16.226-13.268 26.035-16.96 9.353-3.635 20.036-6.12 35.685-6.834 15.67-.713 20.68-.885 60.6-.885s44.93.174 60.606.89c15.65.714 26.33 3.198 35.684 6.827 9.806 3.69 18.692 9.48 26.036 16.96 7.474 7.347 13.263 16.23 16.95 26.038 3.636 9.354 6.12 20.037 6.835 35.686.715 15.676.883 20.684.883 60.606s-.17 44.93-.89 60.604zm0 0"/></svg>