<svg xmlns="http://www.w3.org/2000/svg" viewBox="0 0 511.999 511.999"><path d="M511.88 475.685l-40.225-221.61c-.4-2.213-1.773-4.13-3.74-5.222l-101.24-56.31c-1.315-.732-2.788-1.023-4.235-.91l18.42 237.607-.618.276 121.164 54.357c.986.44 2.034.66 3.077.66 1.65 0 3.287-.544 4.632-1.597 2.198-1.716 3.26-4.508 2.764-7.25zM256 246.375l-103.545-53.93c-1.24-.648-2.617-.912-3.972-.82.36-.023.72-.02 1.078.007L131.15 429.24l121.78 54.634c.984.44 2.033.66 3.078.66v-238.16z" fill="#44C868"/><path d="M149.56 191.633c-1.447-.112-2.92.18-4.234.91l-101.243 56.31c-1.966 1.093-3.338 3.008-3.74 5.22L.123 475.686c-.498 2.742.566 5.534 2.763 7.252 1.347 1.053 2.982 1.596 4.632 1.596 1.043 0 2.092-.217 3.077-.66l120.504-54.06 18.46-238.18zm212.88-.005c-.997.077-1.982.342-2.895.818L256 246.376v238.158c1.046 0 2.096-.218 3.078-.66l121.78-54.633-18.42-237.61z" fill="#4CE166"/><path fill="#FFDB56" d="M28.154 321.233l-8.17 45.02 120.993-63.907 2.81-36.24.465-6.01"/><path d="M142.066 288.294l-1.09 14.052-120.993 63.906L.12 475.685c-.497 2.742.567 5.534 2.764 7.252 1.347 1.053 2.982 1.596 4.632 1.596 1.043 0 2.092-.217 3.077-.66l120.504-54.06 10.97-141.52z" fill="#A8EEFC"/><path d="M256.03 276.08l-111.778-15.983-3.275 42.25L256 477.024v-63.518L187.363 305.43l68.667 8.212m203.916-69.222l-48.635-27.05-46.04 10.758.58 7.436 2.278 29.334" fill="#FFBB24"/><path fill="#FFDB56" d="M372.202 317.576l-4.36-56.25-2.573-33.198-109.24 47.952v37.562l71.35-31.03"/><path d="M511.88 475.685l-10.104-55.666L368.12 264.89l4.083 52.678 137.07 165.22c2.084-1.725 3.09-4.437 2.606-7.11z" fill="#FFBB24"/><path d="M256.48 27.465c-57.962 0-105.12 47.118-105.12 105.034 0 35.82 17.01 74.29 50.557 114.32 24.64 29.4 48.943 48.31 49.966 49.1 1.354 1.044 2.976 1.57 4.6 1.57 1.62 0 3.244-.526 4.598-1.57 1.03-.79 25.33-19.7 49.97-49.108 33.55-40.03 50.56-78.495 50.56-114.32 0-57.918-47.16-105.036-105.12-105.036zm38.93 105.033c0 21.482-17.43 38.898-38.93 38.898s-38.93-17.415-38.93-38.898S234.98 93.6 256.48 93.6s38.93 17.416 38.93 38.898z" fill="#FF4A4A"/><path d="M256.48 27.465c-4.593 0-9.118.298-13.558.872 51.583 6.667 91.562 50.836 91.562 104.162 0 35.82-17.01 74.29-50.556 114.32-15.845 18.91-31.54 33.46-41.005 41.67 5.254 4.55 8.596 7.15 8.96 7.43 1.354 1.044 2.976 1.57 4.6 1.57 1.62 0 3.244-.526 4.598-1.57 1.03-.79 25.33-19.7 49.97-49.108 33.55-40.03 50.56-78.495 50.56-114.32 0-57.918-47.16-105.036-105.12-105.036z" fill="#E7343F"/><path d="M259.078 483.874l45.285-20.316L256 413.508v71.025c1.046 0 2.095-.217 3.078-.66z" fill="#FFDB56"/><path d="M471.654 254.074c-.4-2.212-1.773-4.128-3.74-5.22l-7.97-4.434-91.826 20.477 133.656 155.12-30.12-165.943zM256 484.534v-7.51l-115.023-174.68-9.837 126.897 121.78 54.64c.984.44 2.033.66 3.08.66z" fill="#1EA4E9"/></svg>