<svg xmlns="http://www.w3.org/2000/svg" viewBox="0 0 512 512"><path d="M473.655 88.276H38.345C17.167 88.276 0 105.443 0 126.62v32.277h512V126.62c0-21.177-17.167-38.344-38.345-38.344zM0 385.38c0 21.176 17.167 38.344 38.345 38.344h435.31c21.177 0 38.345-17.167 38.345-38.345V353.1H0v32.276z" fill="#FF4B55"/><path fill="#F5F5F5" d="M0 158.9h512v194.21H0z"/><path d="M274.862 315.38l81.58-16.318c5.89-1.177 8.517-8.107 4.89-12.894-1.272-1.68-3.148-2.802-5.232-3.126l-86.91-13.55c-2.403-.376-4.105-2.632-3.7-5.127.39-2.414 2.837-3.95 5.26-3.633l60.26 7.93c4.897.643 7.902-5.208 4.523-8.813l-4.838-5.16c-1.81-1.94-4.185-3.25-6.785-3.75l-50.338-9.75 42.92 3.09c3.29.235 5.197-3.65 2.994-6.11l-2.2-2.453c-1.332-1.48-3.1-2.5-5.05-2.91l-42.612-8.904 30.284-.876c2.678-.075 4.04-3.25 2.25-5.244l-1.358-1.515c-1.064-1.183-2.44-2.045-3.97-2.484l-27.01-7.756h21.226c2.1 0 3.512-2.15 2.677-4.08l-.715-1.65c-.858-1.98-2.515-3.51-4.56-4.204l-19.628-6.677 9.654-.03c2.87-.01 4.793-2.955 3.652-5.587-.92-2.123-2.54-3.86-4.593-4.926L256 167.724l-21.534 11.164c-2.052 1.06-3.674 2.8-4.593 4.92-1.14 2.633.783 5.574 3.652 5.582l9.654.032-19.63 6.678c-2.05.695-3.7 2.222-4.56 4.205l-.72 1.65c-.838 1.927.574 4.08 2.674 4.08h21.226l-27.01 7.753c-1.53.44-2.904 1.3-3.97 2.487l-1.356 1.512c-1.79 1.992-.427 5.17 2.25 5.244l30.284.88-42.613 8.904c-1.95.408-3.717 1.428-5.047 2.91l-2.2 2.453c-2.203 2.455-.3 6.345 2.994 6.108l42.92-3.09-50.337 9.75c-2.6.5-4.977 1.812-6.788 3.744l-4.84 5.16c-3.38 3.604-.374 9.457 4.523 8.812l60.258-7.93c2.426-.316 4.874 1.22 5.264 3.636.404 2.495-1.298 4.75-3.7 5.126l-86.91 13.55c-2.084.326-3.96 1.447-5.234 3.128-3.625 4.785-.997 11.714 4.89 12.893l81.58 16.318v10.183c0 5.556-2.206 10.89-6.136 14.82L218.27 353.1h75.45L281 340.38c-3.93-3.93-6.137-9.26-6.137-14.82v-10.18z" fill="#73AF00"/></svg>