<svg height="512" viewBox="0 0 300 300" width="512" xmlns="http://www.w3.org/2000/svg"><circle cx="150" cy="130" fill="#edebdc" r="90"/><path d="M132 72h64v200h-64z" fill="#ffec95"/><path d="M196 276h-64c-2.21 0-4-1.79-4-4V72c0-2.21 1.79-4 4-4h64c2.21 0 4 1.79 4 4v200c0 2.21-1.79 4-4 4zm-60-8h56V76h-56z" fill="#4c241d"/><path d="M211.855 238.597L228 250.783V272h-16.145z" fill="#ffec95"/><path d="M228 276h-16.145c-2.21 0-4-1.79-4-4v-33.402c0-1.518.86-2.904 2.215-3.58 1.36-.678 2.984-.527 4.195.387l16.145 12.186c1 .76 1.59 1.94 1.59 3.197V272c0 2.21-1.79 4-4 4zm-12.145-8H224v-15.225l-8.145-6.146z" fill="#4c241d"/><path d="M116 238.597l-16.145 12.186V272H116z" fill="#ffec95"/><path d="M116 276H99.855c-2.21 0-4-1.79-4-4v-21.217c0-1.254.59-2.438 1.59-3.193l16.145-12.186c1.21-.914 2.832-1.064 4.195-.387 1.355.676 2.215 2.062 2.215 3.58V272c0 2.21-1.79 4-4 4zm-12.145-8H112v-21.37l-8.145 6.145zM148 248c-2.21 0-4-1.79-4-4V124c0-2.21 1.79-4 4-4s4 1.79 4 4v120c0 2.21-1.79 4-4 4zm16 0c-2.21 0-4-1.79-4-4V124c0-2.21 1.79-4 4-4s4 1.79 4 4v120c0 2.21-1.79 4-4 4zm16 0c-2.21 0-4-1.79-4-4V124c0-2.21 1.79-4 4-4s4 1.79 4 4v120c0 2.21-1.79 4-4 4zm16 12h-64c-2.21 0-4-1.79-4-4s1.79-4 4-4h64c2.21 0 4 1.79 4 4s-1.79 4-4 4zm0-144h-64c-2.21 0-4-1.79-4-4s1.79-4 4-4h64c2.21 0 4 1.79 4 4s-1.79 4-4 4z" fill="#4c241d"/><path d="M128 40h72v32h-72z" fill="#ffce56"/><g fill="#4c241d"><path d="M200 76h-72c-2.21 0-4-1.79-4-4V40c0-2.21 1.79-4 4-4h72c2.21 0 4 1.79 4 4v32c0 2.21-1.79 4-4 4zm-68-8h64V44h-64z"/><path d="M200 56h-68c-2.21 0-4-1.79-4-4s1.79-4 4-4h68c2.21 0 4 1.79 4 4s-1.79 4-4 4z"/><path d="M148 76c-2.21 0-4-1.79-4-4V52c0-2.21 1.79-4 4-4s4 1.79 4 4v20c0 2.21-1.79 4-4 4zm16 0c-2.21 0-4-1.79-4-4V52c0-2.21 1.79-4 4-4s4 1.79 4 4v20c0 2.21-1.79 4-4 4zm16 0c-2.21 0-4-1.79-4-4V56c0-2.21 1.79-4 4-4s4 1.79 4 4v16c0 2.21-1.79 4-4 4zm20-28c-2.21 0-4-1.79-4-4V28c0-2.21 1.79-4 4-4s4 1.79 4 4v16c0 2.21-1.79 4-4 4zm-72-5.855c-2.21 0-4-1.79-4-4V28c0-2.21 1.79-4 4-4s4 1.79 4 4v10.145c0 2.21-1.79 4-4 4z"/></g><path d="M212 272h-16V72c0-4.418 3.582-8 8-8s8 3.582 8 8z" fill="#ffce56"/><path d="M212 276h-16c-2.21 0-4-1.79-4-4V72c0-6.617 5.383-12 12-12s12 5.383 12 12v200c0 2.21-1.79 4-4 4zm-12-8h8V72c0-2.205-1.793-4-4-4s-4 1.795-4 4z" fill="#4c241d"/><path d="M132 272h-16V72c0-4.418 3.582-8 8-8s8 3.582 8 8z" fill="#ffce56"/><path d="M132 276h-16c-2.21 0-4-1.79-4-4V72c0-6.617 5.383-12 12-12s12 5.383 12 12v200c0 2.21-1.79 4-4 4zm-12-8h8V72c0-2.205-1.793-4-4-4s-4 1.795-4 4z" fill="#4c241d"/><circle cx="164" cy="92" fill="#e7d1c4" r="8.905"/><path d="M164 104.904c-7.117 0-12.906-5.79-12.906-12.904s5.79-12.904 12.906-12.904 12.906 5.79 12.906 12.904-5.79 12.904-12.906 12.904zm0-17.808c-2.707 0-4.906 2.2-4.906 4.904s2.2 4.904 4.906 4.904 4.906-2.2 4.906-4.904-2.2-4.904-4.906-4.904zM212 236h-16c-2.21 0-4-1.79-4-4s1.79-4 4-4h16c2.21 0 4 1.79 4 4s-1.79 4-4 4zm0 16h-16c-2.21 0-4-1.79-4-4s1.79-4 4-4h16c2.21 0 4 1.79 4 4s-1.79 4-4 4zm-80-16h-16c-2.21 0-4-1.79-4-4s1.79-4 4-4h16c2.21 0 4 1.79 4 4s-1.79 4-4 4zm0 16h-16c-2.21 0-4-1.79-4-4s1.79-4 4-4h16c2.21 0 4 1.79 4 4s-1.79 4-4 4z" fill="#4c241d"/></svg>