<svg xmlns="http://www.w3.org/2000/svg" width="21.188" height="21.188" viewBox="0 0 21.188 21.188"><path d="M17.354.622c-.34-.512-1.024-.79-1.396-.51-.946.725-1.965.38-2.952.485-.398.043-.962-.17-.938.564.03.987-.75 1.28-1.405 1.684-1.21.75-2.135 1.884-2.392 3.176-.34 1.712-.93 3.25-1.744 4.765C5.6 12.5 5.22 14.485 4.1 16.107c-1.034 1.495-1.166 3.318-2.178 4.885 1.078.062 1.914.067 2.74.166 1.13.137 1.91-.14 2.1-1.405.057-.368.158-.88.594-.94 1.652-.237 2.737-1.448 3.73-2.51.534-.575 2.828-1.163.92-2.797-.294-.25-.022-.757.227-1.06.572-.696 1.193-1.29 2.217-1.22.746.056 1.5.014 2.355.014-1.23-1.333-1.154-1.837.496-2.7 1.14-.597 2.14-1.57 1.94-2.657-.27-1.45-.453-3.372-2.944-3.55.365-.4.543-.558.678-.748.2-.29.71-.474.382-.963z"/></svg>