<svg xmlns="http://www.w3.org/2000/svg" viewBox="0 0 355.55 355.55"><path d="M280.493 146.007c4.164-11.676 6.27-23.9 6.27-36.47 0-72.068-101.48-107.014-105.8-108.466L177.773 0l-3.186 1.07c-4.32 1.453-105.8 36.398-105.8 108.466 0 12.57 2.104 24.796 6.268 36.47-15.404 8.054-24.018 23.855-24.018 44.835v164.71H304.51V190.84c0-20.98-8.613-36.78-24.017-44.833zm.833 28.206l-1.982 1.982h-14.068v-11.27l2.635-2.633c6.26 2.27 10.71 6.22 13.42 11.92zm-16.05-77.264c.913 3.86 1.427 7.85 1.472 11.99l-1.473-1.48V96.95zm1.262 18.85c-.192 2.78-.507 5.54-.956 8.27-.91 2.47-1.436 5.06-1.617 7.66l-.055.2-.203-.21-.93.93-10.315-10.313 10.31-10.31 3.766 3.763zm-20.33 145.39l-9.95-9.95 12.67-12.67 11.348 11.35v11.265h-14.07zm14.067 5v11.263l-11.35 11.35-12.668-12.67 9.95-9.947h14.068zm-26.005-42.27l11.12 11.12-12.67 12.67-9.947-9.947V223.74c3.848.075 7.678.134 11.494.183zm-11.497-5.18v-14.11l9.95-9.95 12.666 12.663-11.57 11.57c-3.67-.05-7.35-.107-11.05-.177zm15.838 2.45l10.32-10.314 10.316 10.316-10.313 10.314-10.314-10.313zm10.32-17.385l-12.67-12.666 9.947-9.948h14.068v11.266l-11.347 11.35zm-2.72-27.615l-9.945-9.946 12.666-12.67 4.4 4.4-.17.353.7.18 6.417 6.415v11.265H246.21zm12.104-28.8l-2.72 5.78-3.13-3.128 8.245-8.245c-.736 1.887-1.53 3.75-2.398 5.597zm-9.383-.883L238.61 136.2l10.315-10.313 10.313 10.314-10.313 10.32zm-12.67-40.363l9.95-9.948h14.067v11.265l-11.35 11.35-12.666-12.67zm9.134 16.204L234.27 133.47c-3.83.05-7.66.11-11.494.184V119.63l9.947-9.948 12.67 12.668zm-11.57 16.13l11.57 11.57-12.666 12.665-9.95-9.948V138.65c3.684-.07 7.366-.13 11.05-.175zm7.815 40.22l-21.36 21.36-21.363-21.36 21.36-21.36 21.363 21.36zm-80.43 82.5l-9.948-9.95 12.67-12.67 11.35 11.35v11.27h-14.07zm14.07 5v11.264l-11.35 11.35-12.67-12.67 9.95-9.947h14.07zm-7.816-58.85l10.31-10.31 10.313 10.312-10.313 10.315-10.31-10.315zm6.78 13.85l-10.316 10.312-10.316-10.31 10.316-10.313L174.24 221.2zm-6.78-71.15l10.31-10.317 10.313 10.314-10.314 10.314-10.31-10.31zm24.16 60.836l10.313 10.312-10.312 10.31-10.31-10.314 10.314-10.312zm-11.347-18.418V181.2h14.068l9.95 9.948-12.667 12.67-11.347-11.348zm0-16.27v-11.27l11.348-11.35 12.67 12.67-9.95 9.944H180.28zm14.882-26.154l11.347-11.348h11.27v14.07l-9.947 9.947-12.67-12.67zm-3.536-3.535l-10.31-10.315 10.312-10.312 10.313 10.31-10.314 10.314zm-13.846-13.85l-10.313-10.31 10.318-10.314 10.314 10.313-10.313 10.31zm-3.535 3.536l-10.316 10.314-10.314-10.31 10.315-10.314L174.24 136.2zm1.032 28.734v11.267h-14.068l-9.947-9.947 12.664-12.67 11.348 11.35zm0 16.268v11.265l-11.35 11.35-12.667-12.667 9.948-9.948h14.07zm-14.884 26.15L149.04 218.7h-11.268v-14.07l9.948-9.948 12.67 12.668zM149.04 223.7l11.35 11.35-12.67 12.666-9.947-9.946v-14.073h11.267zm18.42 11.35l10.312-10.316 10.313 10.313-10.314 10.314-10.31-10.31zm12.813 31.15h14.068l9.95 9.946-12.67 12.67-11.35-11.347V266.2zm0-5v-11.27l11.348-11.35 12.67 12.67-9.95 9.945h-14.064zm14.883-26.154L206.5 223.7h11.27v14.07l-9.946 9.943-12.673-12.67zM206.5 218.7l-11.346-11.35 12.67-12.67 9.947 9.95v14.066H206.5zm11.27-85H206.5l-11.346-11.35 12.67-12.67 9.947 9.944v14.07zm-26.15-14.884l-11.35-11.347V96.2h14.07l9.95 9.946-12.67 12.67zm-11.35-27.618v-11.27l11.35-11.347 12.67 12.67-9.95 9.95h-14.07zm14.885-26.152L206.5 53.7h11.27v14.07l-9.945 9.946-12.672-12.67zm-3.536-3.535L181.31 51.2l10.31-10.312L201.932 51.2 191.62 61.51zm-3.54 3.537l-10.31 10.31-10.31-10.31 10.312-10.314 10.312 10.313zm-24.16-3.533l-10.31-10.316 10.314-10.313 10.313 10.313-10.314 10.313zm11.35 18.42V91.2H161.2l-9.948-9.947 12.666-12.67 11.35 11.35zm0 16.266v11.266l-11.35 11.35-12.668-12.668 9.95-9.948h14.068zm-14.88 26.15l-11.347 11.35h-11.268v-14.07l9.947-9.947 12.67 12.67zm-11.347 16.35l11.35 11.35-12.668 12.668-9.95-9.948V138.7h11.268zm7.594 40l-21.36 21.36-21.363-21.36 21.362-21.36 21.36 21.36zm-61.36 82.5v-11.27l11.346-11.346 12.67 12.67-9.95 9.95H95.276zm24.015 14.948l-12.67 12.67-11.346-11.347V266.2h14.067l9.95 9.946zM102.226 157.98l4.532-4.534c4.34 4.146 8.642 8.385 12.616 12.722l-10.03 10.03h-14.07v-11.27l6.41-6.41.708-.18-.168-.36zm8.068-8.07l11.432-11.433c3.703.047 7.385.108 11.05.178v14.112l-9.86 9.86c-4.005-4.356-8.3-8.587-12.622-12.718zm-.95 31.29l9.948 9.946-12.67 12.67-11.346-11.348v-11.27h14.068zm7.59 40l-10.312 10.31L96.31 221.2l10.312-10.314 10.313 10.312zm-6.775 13.846l11.12-11.123c3.84-.047 7.68-.106 11.49-.18v14.028l-9.95 9.95-12.67-12.67zm11.56-16.13l-11.56-11.566 12.67-12.67 9.942 9.948v14.113c-3.67.07-7.355.13-11.053.18zm11.05-85.262c-3.814-.072-7.645-.134-11.497-.182L110.2 122.39c4.24-4.17 8.506-8.415 12.654-12.687l9.925 9.923v14.03zm-15.84 2.543l-10.31 10.313-10.31-10.312 10.31-10.312 10.31 10.31zm-13.85 13.848l-3.125 3.126-2.72-5.77c-.868-1.843-1.66-3.71-2.398-5.592l8.242 8.244zm0 57.306l-10.31 10.31-10.315-10.31 10.312-10.31 10.31 10.317zm0 27.7l-10.31 10.315-10.314-10.314 10.312-10.313 10.31 10.313zm0 57.308l-10.313 10.31-10.314-10.31L92.77 282.04l10.313 10.312zm3.537 3.535l10.312 10.31-10.314 10.314L96.31 306.2l10.313-10.314zm3.535-3.535l12.67-12.67 9.947 9.944v14.026c-3.816-.07-7.65-.13-11.496-.178l-11.12-11.122zm3.756-28.656l21.36-21.357L156.63 263.7l-21.36 21.36-21.362-21.36zm23.86 25.93l9.95-9.946 12.67 12.668-11.35 11.35h-11.27v-14.07zm26.15 6.257l10.315 10.315-10.314 10.315-10.31-10.318 10.31-10.315zm3.536-3.534l10.312-10.31 10.313 10.313-10.314 10.31-10.315-10.315zm24.162 3.538l10.31 10.31-10.312 10.315-10.31-10.31 10.31-10.314zm3.534-3.534l12.67-12.67 9.947 9.944v14.07H206.5l-11.346-11.348zm3.756-28.656l21.36-21.36L241.63 263.7l-21.36 21.358-21.36-21.358zm23.86 25.93l9.95-9.95 12.67 12.67-11.12 11.12c-3.818.05-7.648.11-11.496.18V289.63zm26.155 6.255l10.32 10.31-10.316 10.314-10.314-10.316 10.314-10.313zm3.536-3.535l10.312-10.31 10.315 10.31-10.31 10.31-10.316-10.31zm.002-57.3l10.314-10.316 10.31 10.31-10.313 10.314-10.31-10.31zm0-27.7l10.31-10.314 10.316 10.314-10.31 10.31-10.315-10.31zm2.497-132.735c1.98 2.84 3.77 5.787 5.312 8.836V91.2h-14.06l-9.965-9.962c4.175-4.263 8.476-8.47 12.745-12.59l5.97 5.97zm-32.187-30.18c1.737 1.175 3.47 2.392 5.188 3.65-1.77.102-3.5.224-5.186.37v-4.02zm0 9.037c3.297-.29 6.75-.5 10.416-.624l12.26 12.26c-4.26 4.114-8.558 8.32-12.744 12.593l-9.93-9.93v-14.3zM241.63 93.7l-21.36 21.358L198.91 93.7l21.36-21.356L241.63 93.7zm-23.86-52.524v7.53H206.5l-11.34-11.36 5.766-5.766c5.31 2.73 11.05 5.93 16.852 9.59zm-37.5-18.996c3.865 1.538 9.444 3.897 15.935 7.053l-4.587 4.585L180.27 22.47v-.293zm7.812 15.176L177.77 47.66l-10.316-10.31 10.31-10.312L188.08 37.35zm-12.812-15.18v.29l-11.35 11.35-4.586-4.585c6.49-3.155 12.07-5.515 15.934-7.052zm-37.5 19c5.803-3.663 11.54-6.86 16.85-9.59l5.767 5.766-11.35 11.35H137.77v-7.53zm0 12.525h11.268l11.35 11.35-12.67 12.67-9.945-9.946V53.7zm18.86 40l-21.36 21.36-21.36-21.36 21.36-21.355 21.36 21.353zm-23.86-49.26v4.303c-2.078.03-4.135.04-6.134.042 2.03-1.507 4.08-2.957 6.134-4.347zm-11.33 9.32c1.625.014 3.31.023 5.04.023 2.05 0 4.16-.02 6.294-.048V67.77l-9.923 9.92c-4.014-4.12-8.115-8.23-12.633-12.706L121.44 53.76zM95.278 83.45c1.552-3.055 3.34-6.007 5.326-8.852l6.08-6.08c4.52 4.48 8.622 8.59 12.634 12.706l-9.974 9.97h-14.07V83.45zm0 12.745h14.066l9.973 9.97c-4.14 4.265-8.408 8.513-12.654 12.688l-11.38-11.386V96.195zm7.81 26.154l-10.31 10.31-1.287-1.29c-1.29-5.09-2.115-10.296-2.48-15.58l3.76-3.76 10.314 10.31zm-12.81-25.4v10.51l-1.474 1.47c.045-4.13.56-8.13 1.473-11.99zm-2.638 65.34l2.634 2.63v11.265h-14.07l-1.98-1.98c2.705-5.7 7.157-9.65 13.412-11.92zm-16.6 28.55c0-1.64.08-3.19.21-4.69l4.96-4.96h14.064v11.264l-11.35 11.35-7.887-7.887v-5.084zm0 12.15l4.35 4.35-4.35 4.352v-8.705zm0 15.772l7.885-7.888L89.24 221.19l-10.32 10.315-7.887-7.89v-4.85zm0 11.922l4.35 4.35-4.35 4.353v-8.704zm0 15.774l7.885-7.887 11.35 11.35v11.268h-14.07l-5.167-5.165v-9.562zm0 16.63l.6.6-.6.595v-1.19zm0 8.265l5.17-5.168h14.064v11.266l-11.35 11.35-7.887-7.887v-9.563zm0 16.632l4.35 4.35-4.35 4.353v-8.703zm0 15.773l7.885-7.886L89.24 306.19l-10.317 10.313-7.888-7.89v-4.85zm0 11.92l4.35 4.356-4.352 4.354v-8.706zm19.234 19.86H71.04v-4.08l7.887-7.89 11.35 11.35v.62zm-7.815-15.5l10.31-10.31 10.31 10.314-10.31 10.318-10.31-10.313zm12.812 15.507v-.625l11.347-11.344 11.97 11.97H95.276zm14.88-15.508l11.567-11.568c3.7.046 7.384.104 11.053.173v14.116l-9.95 9.947-12.67-12.67zm16.905 15.505l8.214-8.215 8.216 8.215h-16.43zm10.714-12.786v-14.07h11.27l11.35 11.35-12.67 12.663-9.95-9.95zm37.5 12.78h-23.316l11.97-11.97 11.348 11.35v.62zm-7.813-15.506l10.32-10.313 10.31 10.31-10.313 10.317-10.31-10.31zm12.82 15.505v-.625l11.35-11.348 11.97 11.97h-23.32zm14.88-15.508l11.35-11.348h11.27v14.07l-9.947 9.947-12.67-12.67zm16.905 15.507l8.216-8.215 8.215 8.213h-16.43zm10.716-12.786V308.65c3.697-.07 7.38-.127 11.047-.174l11.57 11.57-12.668 12.668-9.95-9.95zm37.5 12.785h-23.32l11.97-11.97 11.35 11.35v.62zm-7.813-15.506l10.313-10.314 10.31 10.318-10.314 10.315-10.31-10.31zm32.05 15.505H265.28v-.626l11.347-11.348 7.89 7.89v4.082zm0-11.156l-4.355-4.353 4.356-4.353v8.705zm0-15.777l-7.89 7.886-10.312-10.312 10.313-10.312 7.89 7.89v4.85zm0-11.92l-4.355-4.353 4.356-4.355v8.71zm0-15.777l-7.89 7.89-11.348-11.347v-11.27h14.066l5.168 5.166v9.56zm0-16.632l-.6-.6.6-.6v1.196zm0-8.27l-5.17 5.17H265.28V249.9l11.347-11.348 7.89 7.89v9.56zm0-16.63l-4.355-4.352 4.356-4.353v8.705zm0-15.775l-7.89 7.887-10.312-10.31 10.313-10.31 7.89 7.886v4.846zm0-11.92l-4.355-4.353 4.356-4.354v8.71zm0-15.776l-7.89 7.89-11.348-11.35v-11.27h14.066l4.96 4.96c.126 1.5.208 3.05.208 4.685v5.083z"/></svg>