<svg height="512" viewBox="0 0 512 512" width="512" xmlns="http://www.w3.org/2000/svg"><path d="M106.49 75.675c-4.267 0-7.726-3.46-7.726-7.726V42.21c0-4.267 3.46-7.726 7.726-7.726s7.726 3.46 7.726 7.726v25.735c0 4.267-3.46 7.727-7.726 7.727zm237.867 176.24c-2.67 0-5.267-1.387-6.698-3.866-2.14-3.7-.87-8.43 2.82-10.56l40.664-23.48c3.695-2.136 8.42-.87 10.554 2.83 2.134 3.693.87 8.42-2.828 10.55l-40.667 23.478c-1.217.703-2.546 1.037-3.856 1.037zM147.782 379.082c-27.03 0-49.022-21.99-49.022-49.022V229.59c0-4.267 3.46-7.726 7.726-7.726s7.726 3.46 7.726 7.726v100.47c0 18.51 15.06 33.57 33.57 33.57s33.568-15.06 33.568-33.57v-76.225c0-22.525 18.325-40.85 40.85-40.85h12.68c7.927 0 15.746 2.094 22.612 6.057l31.968 18.452c3.696 2.133 4.963 6.858 2.83 10.554-2.135 3.697-6.86 4.96-10.555 2.83l-31.968-18.453c-4.52-2.61-9.67-3.988-14.89-3.988H222.2c-14.005 0-25.398 11.394-25.398 25.398v76.226c.002 27.04-21.99 49.03-49.02 49.03z" fill="#655e67"/><path d="M349.383 240.872c0-8.71-3.24-16.66-8.578-22.72-3.98-4.516-5.995-10.433-5.995-16.452v-30.584h-39.67v30.59c0 6.153-2.24 12.08-6.254 16.743-5.43 6.3-8.612 14.6-8.298 23.64.38 10.98 6.06 20.78 14.552 26.83v30.64h39.67v-30.58c8.814-6.23 14.573-16.498 14.573-28.11z" fill="#717ed4"/><path d="M295.14 171.117h39.67v25.16h-39.67z" fill="#5766cc"/><path d="M344.653 357.813v-27.11h-59.357v27.11c0 15.718-10.637 29.433-25.862 33.34-22.877 5.87-53.58 15.82-59.876 28.115-6.27 12.245 4.526 42.003 14.532 64.532 7.62 17.158 24.64 28.2 43.414 28.2h114.94c18.773 0 35.792-11.042 43.413-28.2 10.007-22.53 20.802-52.287 14.532-64.532-6.3-12.294-37-22.245-59.88-28.115-15.23-3.907-25.86-17.622-25.86-33.34z" fill="#f0c99d"/><path d="M430.39 419.267c-6.294-12.294-36.997-22.244-59.875-28.115-15.225-3.907-25.862-17.622-25.862-33.34v-27.11h-31.97v35.35c0 15.72 10.16 29.434 24.706 33.34 21.85 5.87 51.18 15.82 57.2 28.116 5.99 12.245-4.33 33.76-13.89 56.29-7.28 17.16-23.54 28.202-41.476 28.202h33.21c18.775 0 35.794-11.043 43.415-28.2 10.007-22.53 20.803-52.288 14.533-64.533z" fill="#e9a761"/><path d="M314.975 424.202c-4.267 0-7.726-3.46-7.726-7.726v-85.772c0-4.267 3.45-7.726 7.72-7.726s7.722 3.46 7.722 7.726v85.772c0 4.266-3.46 7.726-7.726 7.726z" fill="#f0e9e6"/><path d="M199.56 419.267c-6.27 12.245 4.525 42.003 14.53 64.532 7.622 17.15 24.64 28.2 43.415 28.2h114.94c18.773 0 35.792-11.05 43.413-28.2 10.007-22.53 20.802-52.29 14.532-64.54-2.43-4.75-8.51-9.146-16.365-13.095h-198.1c-7.855 3.95-13.935 8.345-16.366 13.093z" fill="#717ed4"/><path d="M432.175 431.28c.633-11.006-1.877-16.925-18.15-25.106h-54.52c16.03 5.654 30.985 12.948 35.088 21.335 5.99 12.24-4.324 33.76-13.884 56.29-7.29 17.15-23.54 28.2-41.48 28.2h33.21c2.93 0 5.82-.27 8.64-.79 10.31-1.91 20.12-7.28 27.41-15.77 10.23-11.92 22.734-48.97 23.66-63.95l.015-.21z" fill="#5766cc"/><path d="M87.464 78.346v140.84c0 5.74 4.655 10.397 10.398 10.397h17.256c5.742 0 10.398-4.655 10.398-10.398V78.345c0-5.74-4.655-10.397-10.398-10.397H97.862c-5.743 0-10.398 4.655-10.398 10.398z" fill="#77d1b3"/><path d="M295.14 80.71h39.67v45.792h-39.67z" fill="#655e67"/><path d="M295.14 80.71h39.67v20.42h-39.67z" fill="#544f56"/><path d="M263.73 307.134v23.73c0 4.177 3.388 7.565 7.567 7.565h87.357c4.178 0 7.566-3.39 7.566-7.57v-23.73c0-4.18-3.387-7.57-7.566-7.57h-87.357c-4.18 0-7.566 3.39-7.566 7.565z" fill="#655e67"/><path d="M240.087 134.712c0-4.534 3.675-8.21 8.21-8.21h133.357c4.534 0 8.21 3.676 8.21 8.21 0 20.106-16.3 36.405-36.406 36.405h-76.966c-20.106 0-36.405-16.3-36.405-36.405z" fill="#77d1b3"/><path d="M381.654 126.502h-25.18c4.534 0 8.21 3.675 8.21 8.21 0 20.105-16.3 36.404-36.406 36.404h25.18c20.106 0 36.405-16.3 36.405-36.405 0-4.53-3.675-8.2-8.21-8.2z" fill="#67b59f"/><path d="M362.566 0h-95.182c-2.1 0-3.8 1.776-3.643 3.87 1.18 15.77 9.48 29.545 21.69 38.147v35.05c0 2.012 1.63 3.643 3.647 3.643h51.814c2.01 0 3.643-1.63 3.643-3.643v-35.05c12.208-8.602 20.508-22.38 21.684-38.146C366.37 1.78 364.67 0 362.57 0z" fill="#717ed4"/><path d="M362.566 0H333.19c2.1 0 3.8 1.776 3.643 3.87-1.176 15.77-9.476 29.545-21.684 38.147v35.05c0 2.012-1.64 3.643-3.65 3.643h29.373c2.012 0 3.643-1.63 3.643-3.643v-35.05c12.21-8.602 20.51-22.38 21.684-38.146.16-2.09-1.54-3.87-3.64-3.87z" fill="#5766cc"/><path d="M125.516 200.885H87.464c-4.267 0-7.726-3.46-7.726-7.726s3.46-7.73 7.726-7.73h38.05c4.268 0 7.727 3.46 7.727 7.72s-3.45 7.725-7.72 7.725zm0-38.115H87.464c-4.267 0-7.726-3.46-7.726-7.727s3.46-7.726 7.726-7.726h38.05c4.268 0 7.727 3.46 7.727 7.726s-3.45 7.726-7.72 7.726z" fill="#67b59f"/></svg>