<svg id="Layer_1" xmlns="http://www.w3.org/2000/svg" viewBox="0 0 512 512"><style>.st0{fill:#CAEDFF;} .st1{opacity:0.61;fill:#FFA5B9;enable-background:new ;} .st2{fill:#76C2E0;} .st3{fill:#FF7387;} .st4{fill:#FF5064;} .st5{fill:#FFAFC3;} .st6{fill:#FFA5B9;} .st7{fill:#FF9BAF;} .st8{fill:#FF91A5;} .st9{fill:#FF879B;} .st10{fill:#FF7D91;} .st11{fill:#FF6478;} .st12{fill:#D24150;} .st13{opacity:0.48;fill:#D24150;enable-background:new ;}</style><g id="XMLID_2145_"><g id="XMLID_1811_"><g id="XMLID_1276_"><g id="XMLID_924_"><path id="XMLID_1780_" class="st0" d="M431.2-14.1c4.8 0 8.6 4.1 8.2 8.9L435 51.9l-13.7 174.9-20.6 263.5c-.3 4.3-3.9 7.6-8.2 7.6H130.1c-4.3 0-7.9-3.3-8.2-7.6L90.3 85.4 83.2-5.3c-.4-4.8 3.4-8.9 8.2-8.9l339.8.1z"/><path id="XMLID_1_" class="st1" d="M431.6-14.1c4.8 0 8.6 4.1 8.2 8.9l-4.5 57.1-13.7 174.9L401 490.3c-.3 4.3-3.9 7.6-8.2 7.6H130.5c-4.3 0-7.9-3.3-8.2-7.6L90.7 85.5 83.6-5.2c-.4-4.8 3.4-8.9 8.2-8.9h339.8z"/><path id="XMLID_1827_" class="st2" d="M431.2-14.1c4.8 0 8.6 4.1 8.2 8.9L435 51.9l-13.7 174.9-20.6 263.5c-.3 4.3-3.9 7.6-8.2 7.6h-11.4l21.2-271.1L416 51.9l5.2-66h10z"/><path id="XMLID_1783_" class="st3" d="M389.6 90.3c5.4-1.3 10.6 3 10.2 8.6l-5.7 76.7-6.7 89.8-14.1 188.7c-.3 4.3-3.9 7.6-8.2 7.6h-207c-4.3 0-7.9-3.3-8.2-7.6l-24.8-331.6c-.3-3.8 2.1-7.4 5.8-8.5 27.4-8.3 69.5-15.6 108.3.3 49 20 90.6-7.5 141.8-21.8 2.8-.7 5.7-1.5 8.6-2.2z"/><path id="XMLID_1226_" class="st4" d="M389.6 90.3c5.5-1.3 10.6 3 10.2 8.6l-5.7 76.7-6.7 89.8-14.1 188.7c-.3 4.3-3.9 7.6-8.2 7.6h-9.9l14.7-196.3 6.7-89.8 6.2-83.5c2.2-.6 4.5-1.2 6.8-1.8z"/></g><path id="XMLID_1087_" class="st0" d="M353.2 161.2c-4.3 0-7.7-3.5-7.7-7.7v-1.8c0-4.3 3.5-7.7 7.7-7.7s7.7 3.5 7.7 7.7v1.8c.1 4.2-3.4 7.7-7.7 7.7z"/><path id="XMLID_1089_" class="st0" d="M317.5 194.8c-4.3 0-7.7-3.5-7.7-7.7v-1.8c0-4.3 3.5-7.7 7.7-7.7s7.7 3.5 7.7 7.7v1.8c0 4.3-3.5 7.7-7.7 7.7z"/><path id="XMLID_1092_" class="st0" d="M353.2 277.7c-4.3 0-7.7-3.5-7.7-7.7v-1.8c0-4.3 3.5-7.7 7.7-7.7s7.7 3.5 7.7 7.7v1.8c.1 4.2-3.4 7.7-7.7 7.7z"/><path id="XMLID_1093_" class="st0" d="M221.5 248.2c-4.3 0-7.7-3.5-7.7-7.7v-1.8c0-4.3 3.5-7.7 7.7-7.7s7.7 3.5 7.7 7.7v1.8c.1 4.3-3.4 7.7-7.7 7.7z"/><path id="XMLID_1088_" class="st0" d="M175.7 181.4c-4.3 0-7.7-3.5-7.7-7.7v-1.8c0-4.3 3.5-7.7 7.7-7.7s7.7 3.5 7.7 7.7v1.8c.1 4.2-3.4 7.7-7.7 7.7z"/><path id="XMLID_1235_" class="st0" d="M235.1 160.3c-4.3 0-7.7-3.5-7.7-7.7v-1.8c0-4.3 3.5-7.7 7.7-7.7s7.7 3.5 7.7 7.7v1.8c0 4.2-3.5 7.7-7.7 7.7z"/></g></g><g id="XMLID_1970_"><path id="XMLID_1967_" class="st0" d="M285.8 456.1h-48.5c-4.6 0-8.2-3.7-8.2-8.2v-48.5c0-4.6 3.7-8.2 8.2-8.2h48.5c4.6 0 8.2 3.7 8.2 8.2v48.5c0 4.5-3.7 8.2-8.2 8.2z"/></g><g id="XMLID_1976_"><path id="XMLID_1993_" class="st0" d="M319.8 372.8L274 357c-4.3-1.5-6.6-6.2-5.1-10.5l15.8-45.8c1.5-4.3 6.2-6.6 10.5-5.1l45.8 15.8c4.3 1.5 6.6 6.2 5.1 10.5l-15.8 45.8c-1.5 4.3-6.2 6.6-10.5 5.1z"/></g></g><path class="st5" d="M158 467.3l-11.9 33.6c-.3 1 0 2 .9 2.6 1 .6 2.2 1.1 2.9 1.1 3.7 0 7.3-4.2 10.8-8.3 2.6-3.1 5.5-6.5 7.9-7.5.6-.3 1.8-1 2-2.9.4-3.7-4.1-14-9.8-19.3-1-.9-2.4-.5-2.8.7z"/><path class="st6" d="M73.5 487.4l-2-3.3c-3.9-6.4-11.1-9.9-18.5-8.8l-2 .3c-.7.1-1.3.5-1.6 1.1-2.7 5-1.5 9.3-.5 13.1.8 2.9 1.5 5.4.6 8-.2.6-.2 1.4.2 2 .7 1.2 10.6 8.2 20.8 9.2h.2c.7 0 1.3-.3 1.8-.9 4.5-6 4.9-14.2 1-20.7zm23.8-74.7c-6.6-5.4-18.1-4.7-19.5-4.3-.7.2-1.3.9-1.5 1.6-.5 2.1-2 4.4-3.5 6.7-2.5 3.8-5.1 7.8-4.1 12.1.2 1 1.1 1.7 2.1 1.7h.1l5.5-.2c9.5-.4 17.9-6.3 21.5-15 .5-.9.2-2-.6-2.6zm71.3 41.4c-3.5-14.4-19.7-20.2-20.4-20.5-1.1-.4-2.4.2-2.8 1.4-.2.5-4.2 12.3-1.9 23.8 2.3 11.4 10.3 22.4 10.6 22.9.4.6 1.1.9 1.8.9h.4c.8-.2 1.5-.8 1.7-1.7.6-2.5 4.2-10.6 6.8-16.6 4-9.1 4-9.2 3.8-10.2z"/><path class="st7" d="M79.5 426.2c-.4-.5-1-.9-1.7-.9-9.4-.5-26 15-27.8 16.8-.3.2-.4.5-.6.9-.3.8-6.8 20.1.1 33.1 2.7 5.2 7.1 8.6 13.1 10.3.2.1.4.1.6.1.4 0 .8-.1 1.1-.3.5-.3.9-.8 1-1.4l14.5-56.7c.2-.7.1-1.4-.3-1.9zm58.3-4.5c-10-5.8-13.9-14.4-13.9-14.5-.3-.7-.9-1.2-1.7-1.3-.2 0-22.2-3.5-29.6 13.6-.4 1-.1 2.2.9 2.7l52.6 32.5c.4.2.8.3 1.2.3.2 0 .5 0 .7-.1.6-.2 1.1-.7 1.4-1.2 3.2-7.9 3-23.6-11.6-32zm6.6 82.9c-.1-1.1-1-2-2.1-2.1L73 498.3c-.9 0-1.7.4-2.1 1.3-1.2 2.6-1.9 6.9-.1 11.4 2.3 5.7 7.9 10.2 16.7 13.4 4.5 1.6 7.6 3.2 10.4 4.6 3.5 1.7 6.4 3.2 10.4 4 1.1.2 2.2.3 3.3.3 5.3 0 11-2.3 16.2-6.8 1-.9 2.5-1.7 4.1-2.7 5.5-3.3 13.1-7.7 12.5-19.2z"/><path class="st8" d="M155.1 472.4c-1.1-3.5-2.3-7.1-2.8-10.7-.8-6.2-3.2-10.9-7.3-13.8-6.1-4.5-13.6-3.3-13.9-3.2-.7.1-1.3.6-1.6 1.3l-29.3 65.5c-.4.9-.2 1.9.5 2.5 3.7 3.5 8.9 6 14.3 6 3.9 0 7.9-1.3 11.5-4.5 4.4-3.8 8.6-5.8 12.7-7.8 6.9-3.2 13.4-6.3 17.6-17 2.4-5.8.4-11.9-1.7-18.3z"/><path class="st9" d="M132.3 436.3c-2.2-4.4-4.4-6.6-12.6-9.2-4.7-1.5-10.3-2.4-16.1-5.7-10.8-6.4-19.4-2-23.6 1.1-7.1 5.4-11.5 15-9.8 21.5.2.9 1.1 1.6 2.1 1.6l57 1.7h.1c.4 0 .8-.1 1.1-.3 2.2-1.3 4.3-5.7 1.8-10.7z"/><path class="st10" d="M109.3 505.4l-23.6-63.9c-.2-.4-.4-.8-.8-1-3.3-2.3-8.1-1.9-13.2 1.2-9.1 5.5-18.3 16.3-16.5 29.9.9 6.3 3.7 9.6 6.4 12.8 1.8 2.1 4.7 6.3 6.2 9.5 5.5 12 14.7 20.1 24 21.3.7.1 1.5.1 2.2.1 5.7 0 10.9-2.7 14.9-7.7.5-.7.7-1.5.4-2.2z"/><path class="st3" d="M131.4 444.8c-4.7-4.5-9.8-6-14.4-4.3-.3.1-.6.3-.8.5l-36.1 35.9c-.2.2-.3.4-.4.6-1.8 3.6-1.5 9.8 1 15.4 1.8 4.2 6.3 11.6 16.4 14.5 2.4.7 4.9 1 7.4 1 15.1 0 31.4-11.7 36.3-27.5 4.3-13.6-1.6-28.8-9.4-36.1z"/><path class="st11" d="M108.5 435.9c-8.9-3.4-19.3-1.6-26.3 4.7-4.9 4.3-12.1 14.3-11.9 24.1.1 4.9 2.1 9.1 5.9 12.1 4.7 3.8 9.4 5 13.4 5 5.5 0 9.9-2.2 11.8-3.3.2-.1.4-.3.6-.5l20.6-21c.5-.5.7-1.1.6-1.8-1.1-9.1-6.4-16.1-14.7-19.3z"/><path class="st4" d="M122.7 454.1c-4.1-5.2-10.2-8.5-16.7-9.1-5.2-.5-10.2 1-13.6 4-6.1 5.5-8.3 12.2-6.1 18.4 1.1 3.2 3.4 5.9 6.1 7.7-3.6.5-5.7 4.5-4 7.7 2.4 4.6 6.5 8.6 11.6 9.6 1.3.2 2.5.4 3.8.4 6.6 0 14.8-2 19.7-8 5.8-7.1 9.2-18-.8-30.7z"/><path class="st12" d="M111.4 470.8c-1.3-.1-4.5 2.9-8.2-1-1.9-2-2.2-5.1-1-7.6.3-.6.6-1.1 1.1-1.6.8-.9.2-2.2-1-2.1-3.1.3-6.1 2.1-7.8 5.2-2 3.5-1.6 8.1.9 11.3 4.2 5.2 11.9 5 15.9.1.4-.5.8-1.1 1.1-1.6.5-1 .6-2.6-1-2.7z"/><path id="XMLID_2_" class="st13" d="M431.6-16.3c4.8 0 8.6 4.1 8.2 8.9l-4.5 57.1-13.7 174.9L401 488.1c-.3 4.3-3.9 7.6-8.2 7.6h-11.4l21.2-271.1 13.7-174.9 5.2-66h10.1z"/></svg>