<svg xmlns="http://www.w3.org/2000/svg" viewBox="0 0 512 512"><path d="M465.19 285.054c0 61.607-40.062 146.747-88.5 193.258C355.206 498.967 332.07 512 310.04 512c-13.922 0-27.808-2.236-39.754-5.843-16.368-4.954-33.775-4.954-50.143 0-11.945 3.607-25.83 5.843-39.753 5.843-23.076 0-47.388-14.318-69.736-36.715-47.042-47.104-85.412-129.947-85.412-190.232 0-88.945 53.207-142.683 103.238-155.654 23.966-6.22 51.774-2.22 74.232 3.63 23.225 6.05 47.363 7.06 70.884 3.04 4.744-.82 9.45-1.83 14.12-3.04 22.46-5.85 50.254-9.85 74.232-3.63 50.034 12.97 103.24 66.71 103.24 155.65z" fill="#F94848"/><path d="M376.687 478.307c-59.444 10.504-105.23 7.594-139.73-.76-56.334-13.64-98.242-61.156-105.226-118.696-17.49-144.11 76.67-186.06 76.67-186.06 27.6 12.54 58.63 5.848 58.63 5.848-19.8-19.79 6.58-42.56 6.58-42.56-23.52 4.03-47.66 3.016-70.885-3.04-22.46-5.84-50.266-9.843-74.232-3.63-50.032 12.97-103.24 66.71-103.24 155.656 0 88.93 83.497 226.944 155.147 226.944 13.92 0 27.807-2.236 39.753-5.843 16.37-4.953 33.775-4.953 50.144 0 11.946 3.608 25.83 5.844 39.754 5.844 22.028 0 45.166-13.034 66.65-33.69l-.003-.005z" fill="#E23D3D"/><path d="M486.756 5.506s-12.354 86.116-77.42 111.182c-62.2 23.966-117.642-40.828-140.384-35.726-1.025.21-1.977.58-2.866 1.112-.037.012-.05.025-.05.025l.013-.05c.76-2.33 25.7-76.62 89.76-81.49 65.06-4.94 100.47 24.71 130.94 4.94z" fill="#C7F492"/><path d="M486.756 5.506s-39.53 48.18-95.122 48.18c-48.883 0-108.91 21.964-122.683 27.276-1.65.63-2.63 1.025-2.86 1.112-.033.012-.05.025-.05.025l.017-.05c.766-2.33 25.708-76.62 89.76-81.49C420.877-4.38 456.28 25.27 486.76 5.5z" fill="#A3E261"/><ellipse transform="rotate(-95.676 393.877 247.458)" cx="393.878" cy="247.459" rx="44.464" ry="28.771" fill="#FC8181"/><path d="M291.29 166.437c0 10.118-15.888 18.543-36.975 20.457-2.94.272-5.98.408-9.092.408-3.25 0-6.41-.148-9.463-.432-20.89-1.99-36.59-10.377-36.59-20.433h92.12z" fill="#E23D3D"/><path d="M280.368 81.012l-33.787 51.316c2.54 10.402 4.72 21.866 6.14 34.108.78 6.61 1.34 13.44 1.6 20.457-2.94.272-5.98.408-9.09.408-3.25 0-6.41-.14-9.46-.43-.27-7.01-.877-13.83-1.705-20.43-6.053-47.97-24.56-83.3-24.78-83.69-2.4-4.52-.68-10.13 3.84-12.525 4.52-2.41 10.13-.692 12.527 3.83.544 1.038 7.35 14.046 14.22 34.8L264.9 70.82c2.804-4.273 8.56-5.447 12.823-2.63 4.274 2.804 5.46 8.548 2.643 12.822z" fill="#B25719"/></svg>