<svg height="512" viewBox="0 0 346.634 346.634" width="512" xmlns="http://www.w3.org/2000/svg"><path d="M288.31 92.72v47.245s-2.254.996-6.304 2.71c-10.45 4.427-32.873 13.62-59.574 22.896-44.272 15.36-100.335 30.92-133.176 25.17-23.99-4.19-42.247-17.06-55.54-31.06-13.686-14.35-22.11-29.88-26.113-38.38-.277-.6-.506-1.22-.67-1.84-.914-3.397-.18-7.07 2.06-9.88l5.813-7.3 1.682-2.107c2.988-3.772 7.986-5.16 12.41-3.625.54.18 1.063.394 1.585.67 20.054 10.568 74.892 36.01 136.687 35.21 25.64-.326 85.638-24.593 110.28-35.012 6.76-2.873 10.86-4.685 10.86-4.685z" fill="#f7be56"/><path d="M288.31 92.72c-14.224 26.473-34.572 37.757-40.124 39.782-10.697 3.887-21.017 7.137-30.963 9.782-109.61 29.215-172.81-13.048-195.706-33.51-2.858-2.58-5.095-4.8-6.712-6.5l1.682-2.107c2.988-3.772 7.986-5.16 12.41-3.625.54.18 1.063.392 1.585.67 20.054 10.566 74.892 36.01 136.687 35.21 25.63-.328 85.63-24.595 110.28-35.014 6.76-2.875 10.86-4.687 10.86-4.687z" fill="#fcd462"/><path d="M274.15 244.79s-30.978 1.29-70.71 1.716h-.016c-64.702.686-152.626-.898-167.78-13.946-5.618-4.85-10.6-10.91-14.926-17.392-1.24-1.83-2.417-3.69-3.544-5.585-1.24-2.09-2.433-4.197-3.56-6.304C7.44 191.7 3.21 180.4.94 173.65c-.195-.555-.358-1.078-.522-1.568-.947-2.907-.26-6.09 1.813-8.345l5.82-6.353 1.65-1.797c2.48-2.693 6.42-3.493 9.75-1.974.39.18.8.36 1.19.54 4.44 2.008 8.8 3.837 13.08 5.52 86.426 34.032 145.1 7.348 183.51-17.393 15.205-9.782 27.224-19.27 36.55-24.56 10.076-5.733 17.77-12.935 23.647-20.3l.017-.016h.016c14.35-17.962 17.763-36.774 17.763-36.774l7.316 5.6 4.23 3.234s1.925 59.443 3.9 69.846v.016c.06.327.11.588.18.817 2.04 7.48-36.7 104.646-36.7 104.646z" fill="#f7be56"/><path d="M342.788 194.82c-8.835 48.566-69.993 100.252-146.11 120.65-76.1 20.38-163.076-31.274-171.24-41.464-5.554-6.94-15.825-21.442-21.82-30-1.044-1.485-1.78-3.15-2.187-4.865-.73-3.03-.45-6.28.89-9.22l5.73-12.54c1.8-3.935 5.21-6.694 9.13-7.79 1.39-.39 2.84-.57 4.31-.52 1.19.033 2.4.23 3.58.572 108.174 31.78 124.374 13.113 171.62 4.57 38.996-7.02 68.946-44.304 85.325-71.53 2.4-3.97 4.508-7.74 6.305-11.152 1.34-2.548 2.514-4.9 3.51-7.006 9.8-20.772 9.815-45.97 9.586-53.09v-.02c-.033-1.255-.082-1.94-.082-1.94h23.108s-11.545 29.9 0 55.05c11.563 25.132 27.19 21.735 18.356 70.302z" fill="#f7be56"/><path d="M310.666 139.312v.016c-8.46 38.605-32.155 78.877-89.295 100.907-6.09 2.352-12.06 4.426-17.93 6.27h-.01c-97.834 30.62-164.76-6.94-187.15-22.747-5.42-3.838-8.23-6.385-8.23-6.385 1.8-3.936 5.21-6.695 9.13-7.79 1.39-.392 2.84-.572 4.31-.522 1.195.04 2.4.23 3.58.58 108.174 31.78 124.374 13.115 171.62 4.57 38.996-7.02 68.946-44.302 85.325-71.53 2.4-3.97 4.507-7.74 6.304-11.15 1.34-2.55 2.514-4.9 3.51-7.006 9.8-20.773 9.815-45.97 9.586-53.09v-.02c-.033-1.254-.082-1.94-.082-1.94h11.3c2.533 18.436 3.758 43.765-1.96 69.845z" fill="#fcd462"/><path d="M302.534 66.233c-.196 1.045-.408 2.123-.653 3.233-.14.637-.29 1.29-.47 1.96-2.23 9.096-6.42 19.99-13.09 31.518-12.263 21.18-33.003 44.468-65.877 62.627h-.016c-16.95 9.36-37.12 17.35-61.027 22.98-84.4 19.88-131.303-11.28-147.16-25.1-4.163-3.62-6.19-6.06-6.19-6.06l1.65-1.79c2.483-2.694 6.42-3.494 9.75-1.975.39.18.8.36 1.19.54 4.444 2.008 8.804 3.837 13.083 5.52 86.42 34.03 145.095 7.348 183.505-17.393 15.204-9.78 27.223-19.27 36.548-24.56 10.076-5.73 17.784-12.95 23.663-20.314h.01c14.357-17.964 17.77-36.776 17.77-36.776z" fill="#fcd462"/><path d="M291.965 44.164l5.84-8.57c2.747-4.032 6.064-8.43 10.9-9.07 4.433-.584 8.576 2.26 11.77 5.39 2.625 2.57 19.38 1.972 21.373 5.06 3.18 4.922 5.526 10.778 4.568 16.56-.364 2.196-1.22 4.34-2.673 6.025-1.496 1.73-3.533 2.89-5.527 4.01l-7.137 4.03c-4.48 2.525-9.02 5.08-13.99 6.39-5.448 1.44-11.56 1.233-16.33-1.76-4.485-2.81-8.12-9.11-5.65-14.246 2.902-6.054-6.927-8.29-3.15-13.83zM28.9 96.542c.228 4.67-3.887 8.95-7.382 12.232-.425.392-.817.767-1.208 1.127-3.446 3.21-8.296 5.31-11.53 8.55-.603.36-1.224.7-1.844 1.01-.915-3.395-.18-7.07 2.058-9.88l5.814-7.3 1.682-2.105c2.986-3.772 7.983-5.16 12.41-3.625zm-8.264 57.614c-.784 3.48-3.674 6.68-6.402 9.292-.686.67-1.355 1.274-1.976 1.862-3.38 3.135-8.084 5.21-11.317 8.345-.19-.555-.35-1.078-.52-1.568-.94-2.907-.26-6.09 1.82-8.345l5.815-6.353 1.65-1.8c2.48-2.7 6.417-3.5 9.748-1.98.393.18.8.36 1.194.54zm.08 61.01c-.995 2.793-2.612 5.537-3.95 7.79-.164.278-.328.54-.49.8-2.418 3.724-6.076 6.925-8.1 10.697-1.47 1.568-3.055 3.087-4.98 4.034-.557.277-1.16.506-1.766.653-.735-3.037-.457-6.287.882-9.227l5.732-12.542c1.797-3.93 5.21-6.69 9.13-7.79 1.387-.39 2.84-.57 4.31-.52.344 1.96-.048 4.05-.767 6.11z" fill="#4d5c7d"/></svg>