<?xml version="1.0" encoding="UTF-8"?>
<svg id="Layer_2" data-name="Layer 2" xmlns="http://www.w3.org/2000/svg" viewBox="0 0 155.92 28.36">
  <defs>
    <style>
      .cls-1 {
        fill: #ec1c24;
      }

      .cls-2 {
        fill: none;
        stroke: #3b2314;
        stroke-miterlimit: 10;
        stroke-width: 1px;
      }
    </style>
  </defs>
  <g id="Layer_1-2" data-name="Layer 1">
    <g>
      <path class="cls-1" d="M140.92,.74v7.91s7.02-.88,7.02,2.17c0,2.14,1.15,3.06,3.07,3.36-1.91,.3-3.07,1.22-3.07,3.36,0,3.05-7.02,2.17-7.02,2.17v7.9H15v-7.9s-7.02,.88-7.02-2.17c0-2.14-1.15-3.06-3.07-3.36,1.91-.3,3.07-1.22,3.07-3.36,0-3.05,7.02-2.17,7.02-2.17V.74h125.92Z"/>
      <path class="cls-2" d="M140.92,.74v7.91s7.02-.88,7.02,2.17c0,2.14,1.15,3.06,3.07,3.36-1.91,.3-3.07,1.22-3.07,3.36,0,3.05-7.02,2.17-7.02,2.17v7.9H15v-7.9s-7.02,.88-7.02-2.17c0-2.14-1.15-3.06-3.07-3.36,1.91-.3,3.07-1.22,3.07-3.36,0-3.05,7.02-2.17,7.02-2.17V.74h125.92Z"/>
      <path class="cls-1" d="M141.44,27.86H14.48v-7.85c-1.14,.09-3.55,.18-5.24-.44-1.18-.43-1.78-1.12-1.78-2.03,0-2.43-1.55-2.95-2.71-3.13l-1.5-.23,1.5-.23c1.16-.18,2.71-.7,2.71-3.13,0-.92,.6-1.6,1.78-2.03,1.69-.62,4.1-.53,5.24-.44V.5h126.96v7.85c1.14-.09,3.54-.18,5.24,.44,1.18,.43,1.78,1.12,1.78,2.03,0,2.43,1.55,2.95,2.71,3.13l1.5,.23-1.5,.23c-1.16,.18-2.71,.7-2.71,3.13,0,.92-.6,1.6-1.78,2.03-1.69,.62-4.09,.53-5.24,.44v7.85Zm-125.92-.49h124.89v-7.98l.65,.08s3.16,.38,5-.29c.91-.33,1.38-.89,1.38-1.64,0-1.76,.77-2.84,2.4-3.36-1.63-.52-2.4-1.6-2.4-3.36,0-.76-.46-1.31-1.38-1.65-1.85-.67-4.96-.3-4.99-.29l-.65,.08V.99H15.51v7.98l-.65-.08s-3.16-.38-5,.29c-.91,.33-1.38,.89-1.38,1.64,0,1.76-.77,2.84-2.4,3.36,1.63,.52,2.4,1.6,2.4,3.36,0,.76,.46,1.31,1.38,1.65,1.85,.67,4.96,.29,4.99,.29l.65-.08v7.98Z"/>
      <path class="cls-2" d="M141.44,27.86H14.48v-7.85c-1.14,.09-3.55,.18-5.24-.44-1.18-.43-1.78-1.12-1.78-2.03,0-2.43-1.55-2.95-2.71-3.13l-1.5-.23,1.5-.23c1.16-.18,2.71-.7,2.71-3.13,0-.92,.6-1.6,1.78-2.03,1.69-.62,4.1-.53,5.24-.44V.5h126.96v7.85c1.14-.09,3.54-.18,5.24,.44,1.18,.43,1.78,1.12,1.78,2.03,0,2.43,1.55,2.95,2.71,3.13l1.5,.23-1.5,.23c-1.16,.18-2.71,.7-2.71,3.13,0,.92-.6,1.6-1.78,2.03-1.69,.62-4.09,.53-5.24,.44v7.85Zm-125.92-.49h124.89v-7.98l.65,.08s3.16,.38,5-.29c.91-.33,1.38-.89,1.38-1.64,0-1.76,.77-2.84,2.4-3.36-1.63-.52-2.4-1.6-2.4-3.36,0-.76-.46-1.31-1.38-1.65-1.85-.67-4.96-.3-4.99-.29l-.65,.08V.99H15.51v7.98l-.65-.08s-3.16-.38-5,.29c-.91,.33-1.38,.89-1.38,1.64,0,1.76-.77,2.84-2.4,3.36,1.63,.52,2.4,1.6,2.4,3.36,0,.76,.46,1.31,1.38,1.65,1.85,.67,4.96,.29,4.99,.29l.65-.08v7.98Z"/>
      <path class="cls-1" d="M17.5,26.44v-8.26l-3.14,.39s-.67,.08-1.49,.08c-.77,0-1.39-.07-1.76-.19-.42-.15-.64-.45-.64-.91,0-.65,0-2.22-1.64-3.36,1.64-1.14,1.64-2.71,1.64-3.36,0-.73,.37-1.11,2.39-1.11,.82,0,1.5,.08,1.5,.08l3.11,.37v-1.52s.01-6.72,.01-6.72h120.93V10.19l3.14-.39s.67-.08,1.49-.08c2.02,0,2.4,.37,2.4,1.11,0,.65,0,2.22,1.64,3.36-1.64,1.14-1.64,2.71-1.64,3.36,0,.73-.37,1.11-2.4,1.11-.82,0-1.49-.08-1.5-.08l-3.11-.37-.02,1.52v6.72H17.5Z"/>
      <path class="cls-2" d="M17.5,26.44v-8.26l-3.14,.39s-.67,.08-1.49,.08c-.77,0-1.39-.07-1.76-.19-.42-.15-.64-.45-.64-.91,0-.65,0-2.22-1.64-3.36,1.64-1.14,1.64-2.71,1.64-3.36,0-.73,.37-1.11,2.39-1.11,.82,0,1.5,.08,1.5,.08l3.11,.37v-1.52s.01-6.72,.01-6.72h120.93V10.19l3.14-.39s.67-.08,1.49-.08c2.02,0,2.4,.37,2.4,1.11,0,.65,0,2.22,1.64,3.36-1.64,1.14-1.64,2.71-1.64,3.36,0,.73-.37,1.11-2.4,1.11-.82,0-1.49-.08-1.5-.08l-3.11-.37-.02,1.52v6.72H17.5Z"/>
      <path class="cls-1" d="M138.65,26.54H17.27v-8.23l-2.86,.36c-.13,.01-.77,.08-1.54,.08s-1.49-.08-1.89-.22c-.48-.17-.73-.5-.73-1,0-.65,0-2.19-1.6-3.3l-.09-.06,.09-.06c1.6-1.11,1.6-2.65,1.6-3.3,0-.77,.43-1.21,2.62-1.21,.86,0,1.55,.08,1.56,.08l2.83,.34v-1.38s.01-6.83,.01-6.83h121.37V10.05l2.86-.36c.08,0,.74-.08,1.55-.08,2.19,0,2.62,.45,2.62,1.21,0,.65,0,2.19,1.6,3.3l.09,.06-.09,.06c-1.6,1.11-1.6,2.65-1.6,3.3,0,.77-.43,1.21-2.62,1.21-.85,0-1.53-.08-1.56-.08l-2.83-.34v1.38s-.01,6.83-.01,6.83Zm-120.93-.21h120.48l.02-8.27,3.38,.4s.66,.08,1.45,.08c1.86,0,2.17-.31,2.17-1s0-2.2,1.59-3.36c-1.59-1.16-1.59-2.7-1.59-3.36s-.31-1-2.17-1c-.75,0-1.37,.07-1.44,.08l-3.41,.43V2.03H17.72l-.02,8.27-3.39-.4s-.65-.08-1.45-.08c-1.86,0-2.17,.31-2.17,1s0,2.2-1.59,3.36c1.59,1.16,1.59,2.7,1.59,3.36,0,.42,.19,.7,.55,.83,.32,.11,.92,.17,1.63,.17s1.37-.07,1.43-.07l3.41-.43v8.29Z"/>
      <path class="cls-2" d="M138.65,26.54H17.27v-8.23l-2.86,.36c-.13,.01-.77,.08-1.54,.08s-1.49-.08-1.89-.22c-.48-.17-.73-.5-.73-1,0-.65,0-2.19-1.6-3.3l-.09-.06,.09-.06c1.6-1.11,1.6-2.65,1.6-3.3,0-.77,.43-1.21,2.62-1.21,.86,0,1.55,.08,1.56,.08l2.83,.34v-1.38s.01-6.83,.01-6.83h121.37V10.05l2.86-.36c.08,0,.74-.08,1.55-.08,2.19,0,2.62,.45,2.62,1.21,0,.65,0,2.19,1.6,3.3l.09,.06-.09,.06c-1.6,1.11-1.6,2.65-1.6,3.3,0,.77-.43,1.21-2.62,1.21-.85,0-1.53-.08-1.56-.08l-2.83-.34v1.38s-.01,6.83-.01,6.83Zm-120.93-.21h120.48l.02-8.27,3.38,.4s.66,.08,1.45,.08c1.86,0,2.17-.31,2.17-1s0-2.2,1.59-3.36c-1.59-1.16-1.59-2.7-1.59-3.36s-.31-1-2.17-1c-.75,0-1.37,.07-1.44,.08l-3.41,.43V2.03H17.72l-.02,8.27-3.39-.4s-.65-.08-1.45-.08c-1.86,0-2.17,.31-2.17,1s0,2.2-1.59,3.36c1.59,1.16,1.59,2.7,1.59,3.36,0,.42,.19,.7,.55,.83,.32,.11,.92,.17,1.63,.17s1.37-.07,1.43-.07l3.41-.43v8.29Z"/>
    </g>
  </g>
</svg>