<svg height="512" viewBox="0 0 512 512" width="512" xmlns="http://www.w3.org/2000/svg" data-name="Layer 1"><path d="M494.718 207.58c9.14 61.5-31.58 118.51-90.97 127.34a107.5 107.5 0 0 1-11.08 1.06l-2.1.08c-1.6-58.47-51.04-105.44-111.91-105.74v-.06c-3.97-57.84 35.59-109.66 91.97-118.04 59.39-8.83 114.94 33.86 124.09 95.36z" fill="#6c69b7"/><path d="M370.628 112.22c-56.38 8.38-95.94 60.2-91.97 118.04v.06L324 237.733v-.06c-3.97-57.84 35.59-109.66 91.97-118.04 3.176-.472 6.34-.788 9.487-.97a105.344 105.344 0 0 0-54.83-6.443z" fill="#53508c"/><path d="M229.688 239.57l.47 1.04c-38.23 17.37-64.69 54.91-64.69 98.4a105.4 105.4 0 0 0 5.96 35.01h-.01a106.26 106.26 0 0 1-79.3 6.99c-57.41-17.57-89.19-80.01-70.99-139.46s79.49-93.4 136.9-75.82c35.88 10.98 61.75 39.49 71.66 73.84z" fill="#6c63b5"/><path d="M66.473 248.963c14.3-46.71 55.2-77.672 99.92-80.272-2.725-1.09-5.51-2.084-8.364-2.96-57.414-17.58-118.7 16.37-136.9 75.82s13.58 121.89 70.99 139.46a105.153 105.153 0 0 0 36.96 4.457c-52.068-20.83-79.9-80.013-62.61-136.502z" fill="#53508c"/><path d="M131.058 259.59l-5.57 4.16a23.457 23.457 0 0 0-8.11 26.5l2.28 6.56-6.38-2.74a23.467 23.467 0 0 0-27.01 6.22l-4.54 5.26-.82-6.9a23.452 23.452 0 0 0-18.89-20.27l-6.82-1.31 5.56-4.16a23.457 23.457 0 0 0 8.11-26.5l-2.28-6.56 6.39 2.74a23.436 23.436 0 0 0 27-6.22l4.54-5.26.82 6.9a23.474 23.474 0 0 0 18.9 20.28zm318.46-35.87l4.88 4.95-6.94.27a23.46 23.46 0 0 0-21.7 17.24l-1.84 6.7-3.7-5.88a23.476 23.476 0 0 0-25.78-10.18l-6.72 1.76 3.23-6.15a23.468 23.468 0 0 0-4.07-27.41l-4.89-4.94 6.94-.27a23.474 23.474 0 0 0 21.71-17.24l1.83-6.7 3.71 5.88a23.47 23.47 0 0 0 25.78 10.17l6.72-1.76-3.24 6.15a23.453 23.453 0 0 0 4.08 27.41z" fill="#303051"/><path d="M333.792 64.29l8.073 15.672a71.777 71.777 0 0 1-30.934 96.68l-15.67 8.073-8.072-15.67a71.777 71.777 0 0 1 30.935-96.68l15.672-8.074z" fill="#67a829"/><path d="M341.86 79.95l-6.728-13.056 1.68 10.172a71.763 71.763 0 0 1-54.027 81.463 72.113 72.113 0 0 0 4.394 10.5l8.07 15.67 15.67-8.075a71.776 71.776 0 0 0 30.94-96.676z" fill="#8dd641"/><path d="M391.9 336.025c.04.992.05 1.983.05 2.985 0 60.75-50.995 109.993-113.9 109.993-50.084 0-92.61-31.2-107.878-74.57a106.632 106.632 0 0 1-6.03-35.423c0-44 26.772-81.987 65.453-99.562a116.76 116.76 0 0 1 48.455-10.42c.2 0 .415 0 .618.01 61.586.302 111.61 47.827 113.232 106.987z" fill="#6c63b5"/><path d="M216.05 381.933a106.654 106.654 0 0 1-6.03-35.423c0-44 26.772-81.986 65.453-99.56a116.527 116.527 0 0 1 44.212-10.34 117.1 117.1 0 0 0-41.02-7.573c-.2-.01-.414-.01-.617-.01a116.76 116.76 0 0 0-48.455 10.42c-38.68 17.576-65.454 55.56-65.454 99.563a106.658 106.658 0 0 0 6.03 35.423C185.436 417.8 227.962 449 278.046 449c1.434 0 2.86-.034 4.28-.085-31.07-11.773-55.487-36.33-66.278-66.982z" fill="#56568c"/><path d="M322.02 371.408l-6.434 2.843a23.73 23.73 0 0 0-14.023 24.286l.76 6.982-5.667-4.15a23.747 23.747 0 0 0-28.048 0l-5.666 4.15.76-6.982a23.73 23.73 0 0 0-14.025-24.283l-6.425-2.842 6.425-2.832a23.73 23.73 0 0 0 14.023-24.283l-.76-6.992 5.667 4.16a23.747 23.747 0 0 0 28.048 0l5.666-4.16-.756 6.992a23.73 23.73 0 0 0 14.023 24.283z" fill="#303051"/><path d="M155.916 105.12h53.354a71.774 71.774 0 0 1 71.774 71.773v53.354H227.69a71.774 71.774 0 0 1-71.774-71.774V105.12z" fill="#67a829"/><path d="M242.368 195.454a71.774 71.774 0 0 1-71.774-71.774v-18.56h-14.678v53.353a71.774 71.774 0 0 0 71.775 71.774h53.357v-34.793z" fill="#8dd641"/></svg>