<?xml version="1.0" encoding="UTF-8"?>
<svg id="Layer_2" data-name="Layer 2" xmlns="http://www.w3.org/2000/svg" viewBox="0 0 155.93 28.37">
  <defs>
    <style>
      .cls-1 {
        fill: #ec1c24;
      }

      .cls-2 {
        fill: #fff;
      }

      .cls-3 {
        stroke: #fff;
        stroke-width: .25px;
      }

      .cls-3, .cls-4 {
        fill: none;
        stroke-miterlimit: 10;
      }

      .cls-4 {
        stroke: #3b2314;
        stroke-width: 1px;
      }
    </style>
  </defs>
  <g id="Layer_1-2" data-name="Layer 1">
    <g>
      <path class="cls-1" d="M140.92,.74v7.91s7.02-.88,7.02,2.17c0,2.14,1.15,3.06,3.07,3.36-1.91,.3-3.07,1.22-3.07,3.36,0,3.05-7.02,2.17-7.02,2.17v7.9H15v-7.9s-7.02,.88-7.02-2.17c0-2.14-1.15-3.06-3.07-3.36,1.91-.3,3.07-1.22,3.07-3.36,0-3.05,7.02-2.17,7.02-2.17V.74h125.92Z"/>
      <path class="cls-4" d="M140.92,.74v7.91s7.02-.88,7.02,2.17c0,2.14,1.15,3.06,3.07,3.36-1.91,.3-3.07,1.22-3.07,3.36,0,3.05-7.02,2.17-7.02,2.17v7.9H15v-7.9s-7.02,.88-7.02-2.17c0-2.14-1.15-3.06-3.07-3.36,1.91-.3,3.07-1.22,3.07-3.36,0-3.05,7.02-2.17,7.02-2.17V.74h125.92Z"/>
      <path class="cls-1" d="M141.44,27.87H14.49v-7.85c-1.14,.09-3.55,.18-5.24-.44-1.18-.43-1.78-1.12-1.78-2.03,0-2.43-1.55-2.95-2.71-3.13l-1.5-.23,1.5-.23c1.16-.18,2.71-.7,2.71-3.13,0-.92,.6-1.6,1.78-2.03,1.69-.62,4.09-.53,5.24-.44V.5h126.96v7.85c1.14-.09,3.54-.18,5.24,.44,1.18,.43,1.78,1.12,1.78,2.03,0,2.42,1.55,2.95,2.71,3.13l1.5,.23-1.5,.23c-1.16,.18-2.71,.7-2.71,3.13,0,.92-.6,1.6-1.78,2.03-1.69,.62-4.09,.53-5.24,.44v7.85Zm-125.92-.49h124.89v-7.98l.65,.08s3.16,.38,5-.29c.91-.33,1.38-.89,1.38-1.65,0-1.76,.77-2.84,2.4-3.36-1.63-.52-2.4-1.6-2.4-3.36,0-.76-.46-1.31-1.38-1.65-1.85-.67-4.96-.3-4.99-.29l-.65,.08V.99H15.52v7.98l-.65-.08s-3.16-.38-5,.29c-.91,.33-1.38,.89-1.38,1.65,0,1.76-.77,2.84-2.4,3.36,1.63,.52,2.4,1.6,2.4,3.36,0,.76,.47,1.31,1.38,1.65,1.85,.67,4.96,.29,4.99,.29l.65-.08v7.98Z"/>
      <path class="cls-4" d="M141.44,27.87H14.49v-7.85c-1.14,.09-3.55,.18-5.24-.44-1.18-.43-1.78-1.12-1.78-2.03,0-2.43-1.55-2.95-2.71-3.13l-1.5-.23,1.5-.23c1.16-.18,2.71-.7,2.71-3.13,0-.92,.6-1.6,1.78-2.03,1.69-.62,4.09-.53,5.24-.44V.5h126.96v7.85c1.14-.09,3.54-.18,5.24,.44,1.18,.43,1.78,1.12,1.78,2.03,0,2.42,1.55,2.95,2.71,3.13l1.5,.23-1.5,.23c-1.16,.18-2.71,.7-2.71,3.13,0,.92-.6,1.6-1.78,2.03-1.69,.62-4.09,.53-5.24,.44v7.85Zm-125.92-.49h124.89v-7.98l.65,.08s3.16,.38,5-.29c.91-.33,1.38-.89,1.38-1.65,0-1.76,.77-2.84,2.4-3.36-1.63-.52-2.4-1.6-2.4-3.36,0-.76-.46-1.31-1.38-1.65-1.85-.67-4.96-.3-4.99-.29l-.65,.08V.99H15.52v7.98l-.65-.08s-3.16-.38-5,.29c-.91,.33-1.38,.89-1.38,1.65,0,1.76-.77,2.84-2.4,3.36,1.63,.52,2.4,1.6,2.4,3.36,0,.76,.47,1.31,1.38,1.65,1.85,.67,4.96,.29,4.99,.29l.65-.08v7.98Z"/>
      <path class="cls-1" d="M17.5,26.44v-8.26l-3.14,.39s-.67,.08-1.49,.08c-.77,0-1.39-.07-1.76-.19-.42-.15-.64-.45-.64-.91,0-.65,0-2.22-1.64-3.36,1.64-1.14,1.64-2.71,1.64-3.36,0-.73,.37-1.11,2.39-1.11,.82,0,1.5,.08,1.5,.08l3.11,.37,.02-1.52V1.93h120.93V10.19l3.14-.39s.67-.08,1.49-.08c2.03,0,2.4,.37,2.4,1.11,0,.65,0,2.22,1.64,3.36-1.64,1.14-1.64,2.71-1.64,3.36,0,.73-.37,1.11-2.4,1.11-.82,0-1.49-.08-1.5-.08l-3.11-.37-.02,1.52v6.72H17.5Z"/>
      <path class="cls-4" d="M17.5,26.44v-8.26l-3.14,.39s-.67,.08-1.49,.08c-.77,0-1.39-.07-1.76-.19-.42-.15-.64-.45-.64-.91,0-.65,0-2.22-1.64-3.36,1.64-1.14,1.64-2.71,1.64-3.36,0-.73,.37-1.11,2.39-1.11,.82,0,1.5,.08,1.5,.08l3.11,.37,.02-1.52V1.93h120.93V10.19l3.14-.39s.67-.08,1.49-.08c2.03,0,2.4,.37,2.4,1.11,0,.65,0,2.22,1.64,3.36-1.64,1.14-1.64,2.71-1.64,3.36,0,.73-.37,1.11-2.4,1.11-.82,0-1.49-.08-1.5-.08l-3.11-.37-.02,1.52v6.72H17.5Z"/>
      <path class="cls-1" d="M138.65,26.54H17.28v-8.23l-2.86,.36c-.13,.01-.77,.08-1.54,.08s-1.49-.08-1.89-.21c-.48-.17-.73-.5-.73-1,0-.65,0-2.19-1.6-3.3l-.09-.06,.09-.06c1.6-1.11,1.6-2.65,1.6-3.3,0-.77,.43-1.21,2.62-1.21,.86,0,1.55,.08,1.56,.08l2.83,.34v-1.38s.01-6.83,.01-6.83h121.37V10.05l2.86-.36c.08,0,.74-.08,1.55-.08,2.19,0,2.62,.45,2.62,1.21,0,.65,0,2.19,1.6,3.3l.09,.06-.09,.06c-1.6,1.11-1.6,2.65-1.6,3.3,0,.77-.43,1.21-2.62,1.21-.85,0-1.53-.08-1.56-.08l-2.83-.34v1.38s-.01,6.83-.01,6.83Zm-120.93-.21h120.48l.02-8.27,3.38,.4s.66,.08,1.45,.08c1.86,0,2.17-.31,2.17-1s0-2.2,1.59-3.36c-1.59-1.16-1.59-2.7-1.59-3.36s-.31-1-2.17-1c-.75,0-1.37,.07-1.44,.08l-3.41,.43V2.03H17.72l-.02,8.27-3.39-.4s-.65-.08-1.45-.08c-1.86,0-2.17,.31-2.17,1s0,2.2-1.59,3.36c1.59,1.16,1.59,2.7,1.59,3.36,0,.42,.19,.71,.54,.83,.33,.11,.92,.17,1.63,.17,.74,0,1.37-.07,1.43-.07l3.41-.43v8.29Z"/>
      <path class="cls-4" d="M138.65,26.54H17.28v-8.23l-2.86,.36c-.13,.01-.77,.08-1.54,.08s-1.49-.08-1.89-.21c-.48-.17-.73-.5-.73-1,0-.65,0-2.19-1.6-3.3l-.09-.06,.09-.06c1.6-1.11,1.6-2.65,1.6-3.3,0-.77,.43-1.21,2.62-1.21,.86,0,1.55,.08,1.56,.08l2.83,.34v-1.38s.01-6.83,.01-6.83h121.37V10.05l2.86-.36c.08,0,.74-.08,1.55-.08,2.19,0,2.62,.45,2.62,1.21,0,.65,0,2.19,1.6,3.3l.09,.06-.09,.06c-1.6,1.11-1.6,2.65-1.6,3.3,0,.77-.43,1.21-2.62,1.21-.85,0-1.53-.08-1.56-.08l-2.83-.34v1.38s-.01,6.83-.01,6.83Zm-120.93-.21h120.48l.02-8.27,3.38,.4s.66,.08,1.45,.08c1.86,0,2.17-.31,2.17-1s0-2.2,1.59-3.36c-1.59-1.16-1.59-2.7-1.59-3.36s-.31-1-2.17-1c-.75,0-1.37,.07-1.44,.08l-3.41,.43V2.03H17.72l-.02,8.27-3.39-.4s-.65-.08-1.45-.08c-1.86,0-2.17,.31-2.17,1s0,2.2-1.59,3.36c1.59,1.16,1.59,2.7,1.59,3.36,0,.42,.19,.71,.54,.83,.33,.11,.92,.17,1.63,.17,.74,0,1.37-.07,1.43-.07l3.41-.43v8.29Z"/>
      <path class="cls-2" d="M133.03,12.38c0-.25-.06-.38-.17-.38-.07,0-.18,.05-.31,.16-.64,.51-1.2,1.42-1.68,2.7,.13,.02,.36,.04,.68,.06,.53,.02,.92-.1,1.18-.36,.19-.2,.3-.52,.32-.97-.01,.33-.02-.07-.02-1.21m1.14,4.32c-1.59,2.03-2.7,3.04-3.35,3.04-.31,0-.69-.21-1.16-.64-.49-.23-.73-.54-.73-.92,0-.07,0-.15,.02-.23,.12-.89,.36-1.88,.72-2.97-.24-.12-.36-.24-.36-.35,0-.09,.07-.14,.2-.14,.11,0,.21,.03,.32,.09,.58-1.3,1.1-2.22,1.56-2.77,.3-.36,.57-.54,.81-.54,.11,0,.38,.09,.82,.28-.03-.2,.02-.31,.17-.34h.46c.28,0,.42,.05,.42,.15,0,.02,0,.07-.03,.17-.02,.09-.03,.18-.03,.25,0,.23,0,.52,.01,.87,0,.34,.01,.58,.01,.69,0,.81-.22,1.37-.66,1.69-.4,.29-.86,.44-1.37,.44-.27,0-.71-.07-1.33-.22-.11,.2-.23,.59-.37,1.18-.18,.74-.27,1.4-.25,1.97,0,.34,.11,.51,.32,.51,.08,0,.18-.02,.3-.06,.75-.26,1.81-1.08,3.15-2.43,.09-.08,.17-.13,.25-.13,.12,0,.19,.06,.19,.18,0,.07-.03,.15-.1,.22Zm-4.25-9.69c.18,.1,.27,.21,.27,.33,0,.08-.06,.13-.19,.13-.02,0-.07,0-.12,0-.06,0-.1-.01-.12-.01-.25,0-.54,.27-.9,.81-.31,.48-.74,1.53-1.3,3.14-.05,.14-.07,.23-.06,.26,.02,.04,.1,.07,.25,.08,.38,.03,.89,.02,1.54-.04,.22-.02,.33,.08,.33,.29,0,.14-.08,.23-.25,.27-.14,.02-.85,.08-2.15,.18-.78,2.29-1.25,4.22-1.42,5.8,0,.08,0,.16,0,.22,0,.22,.06,.33,.17,.33,.17,0,.7-.43,1.59-1.28,.1-.1,.2-.16,.3-.16,.08,0,.13,.04,.15,.11,.02,.08,0,.17-.09,.27-.53,.7-1.04,1.29-1.55,1.78-.21,.2-.39,.3-.54,.3s-.36-.11-.66-.34c-.37-.1-.56-.29-.56-.59,0-.05,0-.1,.02-.16,.24-1.68,.71-3.74,1.41-6.2-.34-.05-.65-.09-.93-.14-.12-.02-.18-.1-.18-.24,0-.15,.06-.24,.19-.28,.13-.03,.37-.1,.72-.22,.21-.07,.42-.17,.62-.29,.69-2.16,1.24-3.55,1.64-4.19,.23-.36,.47-.55,.73-.55s.61,.13,1.08,.39Zm-6.51,9c-.39,.59-.9,1.45-1.52,2.58-.12,.29-.23,.58-.34,.88-.09,.2-.21,.3-.36,.3-.12,0-.29-.05-.52-.15-.25-.1-.38-.21-.38-.31,0-.04,.04-.14,.13-.3,.42-.86,.8-1.93,1.14-3.21,.36-1.34,.51-2.37,.46-3.08-.01-.29-.08-.43-.2-.43-.08,0-.21,.08-.38,.24-1.64,1.6-3.06,3.74-4.26,6.42-.15,.33-.33,.5-.53,.5-.14,0-.38-.08-.71-.24-.13-.06-.2-.11-.21-.17,0-.03,.04-.12,.11-.27,.38-.82,.75-1.87,1.12-3.14,.4-1.37,.62-2.44,.67-3.21,.01-.23,0-.35-.02-.35,0,0-.1,.09-.27,.26-.18,.17-.42,.4-.73,.67-.06,.06-.12,.09-.2,.09-.09,0-.14-.04-.14-.11,0-.05,.03-.11,.1-.18,.28-.36,.65-.8,1.1-1.33,.1-.11,.2-.17,.3-.17,.16,0,.29,.11,.41,.34,.53,.16,.77,.4,.74,.72-.07,.72-.44,2.01-1.1,3.87,.44-.84,1.07-1.78,1.9-2.82,.83-1.04,1.45-1.65,1.85-1.84,.2-.09,.35-.14,.43-.14s.22,.07,.41,.22c.54,.19,.81,.5,.81,.94s-.11,1.19-.33,2.2c-.18,.83-.34,1.48-.49,1.94,.19-.24,.43-.55,.72-.94,.05-.06,.1-.1,.15-.1,.1,0,.15,.06,.15,.19,0,.04,0,.08-.02,.12Zm-9.32-3.62c0-.25-.06-.38-.17-.38-.07,0-.18,.05-.31,.16-.64,.51-1.2,1.42-1.68,2.7,.13,.02,.36,.04,.68,.06,.53,.02,.92-.1,1.18-.36,.19-.2,.3-.52,.32-.97-.01,.33-.02-.07-.02-1.21Zm1.14,4.32c-1.59,2.03-2.7,3.04-3.35,3.04-.31,0-.69-.21-1.16-.64-.49-.23-.73-.54-.73-.92,0-.07,0-.15,.02-.23,.12-.89,.36-1.88,.72-2.97-.24-.12-.36-.24-.36-.35,0-.09,.07-.14,.2-.14,.11,0,.21,.03,.32,.09,.58-1.3,1.1-2.22,1.56-2.77,.3-.36,.57-.54,.81-.54,.11,0,.38,.09,.82,.28-.03-.2,.02-.31,.17-.34h.46c.28,0,.42,.05,.42,.15,0,.02,0,.07-.03,.17-.02,.09-.03,.18-.03,.25,0,.23,0,.52,.01,.87,0,.34,0,.58,0,.69,0,.81-.22,1.37-.66,1.69-.4,.29-.86,.44-1.37,.44-.27,0-.71-.07-1.33-.22-.11,.2-.23,.59-.37,1.18-.18,.74-.27,1.4-.25,1.97,0,.34,.11,.51,.32,.51,.08,0,.18-.02,.3-.06,.75-.26,1.81-1.08,3.15-2.43,.09-.08,.17-.13,.25-.13,.12,0,.19,.06,.19,.18,0,.07-.03,.15-.1,.22Zm-6.16-3.87c-.15,.88-.56,2.34-1.22,4.39,.19-.17,.45-.48,.78-.93,.05-.06,.09-.09,.14-.09,.1,0,.12,.09,.04,.28-.03,.07-.31,.52-.82,1.34-.39,.63-.68,1.18-.86,1.66-.06,.15-.16,.22-.32,.22s-.37-.07-.63-.22c-.17-.09-.25-.16-.25-.21,0-.04,.04-.12,.11-.25,.35-.62,.73-1.65,1.16-3.1,.4-1.41,.63-2.45,.68-3.13,.02-.29,0-.44-.09-.44-.06,0-.16,.07-.31,.21l-.6,.56c-.21,.19-.32,.2-.32,.03,0-.05,.03-.12,.09-.19,.31-.43,.63-.83,.97-1.22,.1-.11,.21-.17,.3-.17,.1,0,.26,.07,.46,.21,.3,.08,.46,.13,.5,.15,.15,.09,.22,.26,.22,.51,0,.12-.01,.25-.04,.4Zm1.38-4.27c.1,.08,.16,.16,.16,.26,0,.19-.28,.48-.84,.88-.37,.25-.73,.34-1.07,.27-.2-.04-.37-.11-.51-.21-.05-.04-.08-.08-.1-.12-.02-.04-.03-.08-.01-.1,.02-.03,.06-.03,.12-.02,.6-.52,.99-.89,1.18-1.12,.15-.17,.26-.25,.32-.25,.12,0,.37,.14,.76,.42Zm-.11-4.23c.08,.07,.13,.13,.13,.2,0,.12-.07,.19-.22,.19-.07,0-.13-.02-.21-.06-.3-.15-.52-.22-.67-.22-.41,0-.86,.4-1.35,1.19-1.77,2.88-3.03,6.61-3.78,11.17-.02,.13-.05,.29-.1,.5,.15-.16,.37-.41,.66-.76,.17-.2,.29-.3,.37-.3,.17,0,.18,.1,.04,.3-.62,.89-1.04,1.82-1.24,2.8-.07,.24-.16,.36-.27,.36-.05,0-.12-.03-.21-.09-.33-.22-.52-.35-.57-.39-.13-.13-.2-.3-.2-.51,0-.1,.02-.23,.05-.38,.75-4.14,1.73-7.67,2.92-10.59,.9-2.2,1.7-3.62,2.41-4.27,.2-.18,.39-.27,.59-.26,.18,0,.41,.12,.69,.33,.32,.26,.64,.52,.96,.79Zm-8.78,8.65c-.6,1.66-1.01,3.05-1.23,4.18,.1-.09,.23-.23,.39-.42,.16-.19,.26-.3,.3-.33,.09-.12,.19-.17,.29-.17,.1,0,.15,.05,.15,.15,0,.06-.03,.13-.08,.2-.61,.9-1.02,1.82-1.22,2.74-.06,.26-.15,.39-.26,.39-.11,0-.31-.1-.61-.31-.17-.12-.28-.21-.3-.29-.03-.07-.03-.21,0-.43,.27-1.65,.61-3.03,1.02-4.12-.57,.92-1.34,1.93-2.32,3.04-.85,.97-1.47,1.59-1.85,1.85-.28,.19-.48,.28-.63,.28-.12,0-.3-.09-.54-.28-.35-.21-.52-.49-.52-.86,0-.07,0-.15,.02-.25,.12-.96,.54-2.08,1.27-3.36,.73-1.28,1.56-2.36,2.51-3.23,.31-.29,.58-.43,.82-.42,.23,.01,.68,.32,1.34,.93,.06,.05,.09,.11,.09,.17,0,.1-.07,.16-.21,.16-.05,0-.1,0-.15-.03-.46-.19-.83-.19-1.11,.02-.61,.45-1.29,1.24-2.03,2.37-.86,1.3-1.38,2.47-1.55,3.52,0,.04-.01,.09-.01,.13,0,.16,.07,.24,.2,.24,.22,0,.48-.15,.79-.46,.73-.71,1.51-1.6,2.35-2.67,.85-1.11,1.4-1.95,1.64-2.52,.17-.42,.29-.71,.34-.88,.09-.29,.18-.44,.27-.44s.33,.13,.69,.4c.15,.11,.23,.21,.24,.3,.01,.08-.02,.22-.09,.41Zm-7-4.77c-.31,1.27-.67,2.25-1.08,2.94-.19,.33-.37,.49-.55,.49-.07,0-.16-.02-.26-.05-.49-.15-.74-.33-.74-.54,0-.1,.07-.17,.21-.2,.57-.86,.91-1.89,1.01-3.09-.36-.32-.7-.48-1.02-.48-.68,0-1.48,.6-2.41,1.8-.86,1.12-1.6,2.45-2.23,3.98-.65,1.6-.97,2.93-.94,4,0,.62,.19,1.08,.56,1.38,.27,.22,.57,.33,.91,.33,.2,0,.42-.04,.68-.12,.63-.2,1.35-.58,2.17-1.14,.78-.54,1.43-1.08,1.96-1.64,.16-.18,.26-.4,.29-.67,.02-.14,.08-.22,.2-.22,.09,0,.16,.06,.2,.18,.24,.59,.35,1,.35,1.22s-.09,.42-.26,.61c-.12,.12-.39,.34-.83,.68-1.38,1.04-2.57,1.68-3.56,1.94-.3,.08-.58,.12-.84,.12-.53,0-.94-.18-1.22-.54-1.27-.48-1.91-1.2-1.91-2.18,0-1.58,.41-3.27,1.24-5.08,.71-1.57,1.59-2.95,2.63-4.14,1-1.14,1.82-1.73,2.44-1.78,.23-.02,.49,.07,.79,.28,.04,.03,.34,.27,.91,.73,.03-.27,.12-.4,.26-.4,.15,0,.42,.14,.79,.43,.23,.18,.35,.36,.35,.53,0,.11-.04,.32-.11,.62Zm-15.32,9.06c.01,.78-.42,1.32-1.31,1.6-.11,.27-.21,.46-.31,.57-.15,.16-.37,.25-.66,.27-.19,.01-.39,0-.6-.03-.38-.06-.86-.13-1.41-.21-.16-.03-.25-.12-.28-.28,.03-.18,.21-.28,.55-.31,.46-.03,1.14-.11,2.05-.24,.34-.08,.58-.27,.72-.58,.08-.16,.13-.35,.13-.58,0-.41-.2-1.13-.61-2.17-.4-1.01-.59-1.69-.57-2.02,.05-.82,.8-1.38,2.25-1.7,.14-.03,.21,.02,.21,.16,0,.08-.05,.14-.15,.18-.7,.31-1.05,.69-1.05,1.13,0,.18,.03,.4,.1,.66,.07,.26,.26,.9,.59,1.9,.24,.72,.37,1.27,.37,1.65Zm1.54-5.62c0,.29-.08,.76-.23,1.41-.06,.22-.13,.36-.2,.43-.03,.03-.14,.08-.33,.15-.24,.09-.39,.14-.45,.14-.1,0-.15-.07-.15-.2,0-.07,.01-.16,.04-.28,.16-.64,.22-1.09,.18-1.34-.04-.25,.03-.41,.22-.47,.32-.16,.53-.24,.62-.24,.2,0,.3,.14,.3,.42Zm-6.52,.72c0-.25-.06-.38-.17-.38-.07,0-.18,.05-.31,.16-.64,.51-1.2,1.42-1.68,2.7,.13,.02,.36,.04,.68,.06,.53,.02,.92-.1,1.18-.36,.19-.2,.3-.52,.32-.97-.01,.33-.02-.07-.02-1.21Zm1.14,4.32c-1.59,2.03-2.7,3.04-3.35,3.04-.31,0-.69-.21-1.16-.64-.49-.23-.73-.54-.73-.92,0-.07,0-.15,.02-.23,.12-.89,.36-1.88,.72-2.97-.24-.12-.36-.24-.36-.35,0-.09,.07-.14,.2-.14,.11,0,.21,.03,.32,.09,.58-1.3,1.1-2.22,1.56-2.77,.3-.36,.57-.54,.81-.54,.11,0,.38,.09,.82,.28-.03-.2,.02-.31,.17-.34h.46c.28,0,.42,.05,.42,.15,0,.02,0,.07-.03,.17-.02,.09-.03,.18-.03,.25,0,.23,0,.52,.01,.87,0,.34,.01,.58,.01,.69,0,.81-.22,1.37-.66,1.69-.4,.29-.86,.44-1.37,.44-.27,0-.71-.07-1.33-.22-.11,.2-.23,.59-.37,1.18-.18,.74-.27,1.4-.25,1.97,0,.34,.11,.51,.32,.51,.08,0,.18-.02,.3-.06,.75-.26,1.81-1.08,3.15-2.43,.09-.08,.17-.13,.25-.13,.12,0,.19,.06,.19,.18,0,.07-.03,.15-.1,.22Zm-6.11-.33c-.43,.63-1.06,1.74-1.9,3.34-.08,.14-.13,.22-.15,.22-.06,.03-.2,.02-.41-.05-.45-.14-.68-.27-.68-.39,0-.07,.03-.18,.09-.31,.49-1.14,.91-2.35,1.26-3.65,.35-1.29,.52-2.28,.51-2.97,0-.23-.08-.34-.24-.34-.11,0-.24,.06-.39,.19-.55,.45-1.27,1.32-2.15,2.62-1.06,1.56-1.8,3.02-2.24,4.38-.05,.16-.09,.24-.12,.26-.04,.02-.13,0-.28-.05-.22-.08-.43-.19-.63-.33-.1-.07-.15-.15-.15-.22,0-.01,.05-.14,.15-.38,.85-2.13,1.27-4.2,1.27-6.2,0-.2-.06-.3-.17-.3-.09,0-.19,.06-.32,.17-.69,.59-1.47,1.59-2.32,3.03-.82,1.37-1.43,2.65-1.83,3.85-.1,.31-.21,.46-.32,.46-.13,0-.4-.15-.8-.44-.1-.06-.16-.12-.16-.19,0-.07,.07-.18,.22-.33,.27-.57,.57-1.54,.91-2.93,.38-1.58,.55-2.73,.5-3.45-.1,.1-.26,.26-.5,.48-.23,.22-.41,.39-.53,.51-.09,.08-.16,.13-.23,.13-.1,0-.15-.07-.15-.2,0-.1,.04-.19,.11-.27,.37-.38,.73-.82,1.09-1.34,.13-.18,.25-.27,.34-.27,.07,0,.21,.1,.42,.31,.16,.06,.33,.12,.49,.18,.14,.06,.21,.19,.21,.36,0,.05-.02,.11-.03,.17-.16,1.26-.41,2.43-.75,3.52,1.15-2.07,2.22-3.54,3.21-4.41,.14-.12,.27-.19,.4-.19,.14,0,.35,.09,.63,.26,.27,.12,.44,.22,.53,.31,.1,.12,.14,.3,.14,.55,0,1.33-.15,2.51-.46,3.55,1.27-2.01,2.43-3.5,3.47-4.48,.14-.13,.28-.19,.43-.19,.19,0,.44,.13,.72,.39,.51,.08,.75,.39,.72,.93-.08,1.57-.42,3.08-1.01,4.54,.32-.38,.58-.72,.76-1,.08-.14,.18-.2,.29-.2,.1,0,.15,.05,.15,.16,0,.06-.03,.14-.09,.23Zm-13.75-3.99c0-.25-.06-.38-.17-.38-.07,0-.18,.05-.31,.16-.64,.51-1.2,1.42-1.68,2.7,.13,.02,.36,.04,.68,.06,.53,.02,.92-.1,1.18-.36,.19-.2,.3-.52,.32-.97-.01,.33-.02-.07-.02-1.21Zm1.14,4.32c-1.59,2.03-2.7,3.04-3.35,3.04-.31,0-.69-.21-1.16-.64-.49-.23-.73-.54-.73-.92,0-.07,0-.15,.02-.23,.12-.89,.36-1.88,.72-2.97-.24-.12-.36-.24-.36-.35,0-.09,.07-.14,.2-.14,.11,0,.21,.03,.32,.09,.58-1.3,1.1-2.22,1.56-2.77,.3-.36,.57-.54,.81-.54,.11,0,.38,.09,.82,.28-.03-.2,.02-.31,.17-.34h.46c.28,0,.42,.05,.42,.15,0,.02,0,.07-.03,.17-.02,.09-.03,.18-.03,.25,0,.23,0,.52,.01,.87,0,.34,.01,.58,.01,.69,0,.81-.22,1.37-.66,1.69-.4,.29-.86,.44-1.37,.44-.27,0-.71-.07-1.33-.22-.11,.2-.23,.59-.37,1.18-.18,.74-.27,1.4-.25,1.97,0,.34,.11,.51,.32,.51,.08,0,.18-.02,.3-.06,.75-.26,1.81-1.08,3.15-2.43,.09-.08,.17-.13,.25-.13,.12,0,.19,.06,.19,.18,0,.07-.03,.15-.1,.22Zm-5.18-4.57c0,.85-.11,1.66-.34,2.44-.07,.23-.17,.35-.29,.35-.09,0-.29-.13-.61-.39-.16-.13-.2-.32-.12-.56,.19-.59,.28-1.07,.28-1.43,0-.12-.03-.19-.08-.19-.08,0-.2,.12-.38,.35-1.36,1.76-2.37,3.75-3.05,5.94-.21,.7-.4,1.05-.55,1.05-.06,0-.32-.11-.77-.34-.22-.11-.3-.33-.23-.65,.51-2.26,1.06-4.16,1.65-5.71-.48,.51-.79,.86-.92,1.05-.05,.08-.12,.12-.21,.12-.11,0-.17-.05-.17-.15,0-.06,.03-.12,.08-.19,.32-.38,.75-.97,1.28-1.75,.16-.28,.33-.43,.49-.43,.12,0,.35,.09,.71,.27,.2,.1,.24,.24,.1,.42-.14,.19-.41,.86-.81,2-.38,1.11-.64,1.98-.78,2.62,.89-1.97,1.9-3.71,3.03-5.22,.22-.29,.39-.43,.52-.43,.12,0,.28,.08,.48,.24,.28,.03,.45,.07,.52,.13,.11,.08,.17,.23,.17,.47Zm-5.35-5.13c.18,.1,.27,.21,.27,.33,0,.08-.06,.13-.19,.13-.02,0-.07,0-.12,0-.06,0-.1-.01-.12-.01-.25,0-.54,.27-.9,.81-.31,.48-.74,1.53-1.3,3.14-.05,.14-.07,.23-.06,.26,.02,.04,.1,.07,.25,.08,.38,.03,.89,.02,1.54-.04,.22-.02,.33,.08,.33,.29,0,.14-.08,.23-.25,.27-.14,.02-.85,.08-2.15,.18-.78,2.29-1.25,4.22-1.42,5.8,0,.08,0,.16,0,.22,0,.22,.06,.33,.17,.33,.17,0,.7-.43,1.59-1.28,.1-.1,.2-.16,.3-.16,.08,0,.13,.04,.15,.11,.02,.08-.01,.17-.09,.27-.53,.7-1.04,1.29-1.55,1.78-.21,.2-.39,.3-.54,.3s-.36-.11-.66-.34c-.37-.1-.56-.29-.56-.59,0-.05,0-.1,.02-.16,.24-1.68,.71-3.74,1.41-6.2-.34-.05-.65-.09-.93-.14-.12-.02-.18-.1-.18-.24,0-.15,.06-.24,.19-.28,.13-.03,.37-.1,.72-.22,.21-.07,.42-.17,.62-.29,.69-2.16,1.24-3.55,1.64-4.19,.23-.36,.47-.55,.73-.55,.25,0,.61,.13,1.08,.39Zm-6.51,9c-.39,.59-.9,1.45-1.52,2.58-.12,.29-.23,.58-.34,.88-.09,.2-.21,.3-.36,.3-.12,0-.29-.05-.52-.15-.25-.1-.38-.21-.38-.31,0-.04,.04-.14,.13-.3,.42-.86,.8-1.93,1.14-3.21,.36-1.34,.51-2.37,.46-3.08-.01-.29-.08-.43-.2-.43-.08,0-.21,.08-.38,.24-1.64,1.6-3.06,3.74-4.26,6.42-.15,.33-.33,.5-.53,.5-.14,0-.38-.08-.71-.24-.13-.06-.2-.11-.21-.17,0-.03,.04-.12,.11-.27,.38-.82,.75-1.87,1.12-3.14,.4-1.37,.62-2.44,.67-3.21,.01-.23,0-.35-.02-.35,0,0-.1,.09-.27,.26-.18,.17-.42,.4-.73,.67-.06,.06-.12,.09-.2,.09-.09,0-.14-.04-.14-.11,0-.05,.03-.11,.1-.18,.28-.36,.65-.8,1.1-1.33,.1-.11,.2-.17,.3-.17,.16,0,.29,.11,.41,.34,.53,.16,.77,.4,.74,.72-.07,.72-.44,2.01-1.1,3.87,.44-.84,1.07-1.78,1.9-2.82,.83-1.04,1.45-1.65,1.85-1.84,.2-.09,.35-.14,.43-.14s.22,.07,.41,.22c.54,.19,.81,.5,.81,.94s-.11,1.19-.33,2.2c-.18,.83-.34,1.48-.49,1.94,.19-.24,.43-.55,.72-.94,.05-.06,.1-.1,.15-.1,.1,0,.15,.06,.15,.19,0,.04,0,.08-.02,.12Zm-6.96-8.59c.05,.28,.08,.48,.08,.61,0,.15-.04,.27-.12,.35-.01,.01-.14,.11-.38,.29-.2,.15-.48,.17-.86,.08-1.2-.31-2.58-.59-4.12-.84-.44,1.8-.77,3.16-.98,4.07,.72-.06,1.95-.13,3.68-.22,.37,0,.61,.11,.73,.36,.02,.04,.08,.26,.17,.66,0,.05,.01,.1,.01,.14,0,.22-.26,.37-.77,.46-.55,.1-.86,.07-.94-.08-.09-.19-.27-.29-.53-.29-1.44,0-2.33,.03-2.65,.08l-.78,2.43c-.23,.66-.43,1.12-.6,1.38-.17,.26-.45,.52-.84,.79,.23-.01,.48-.02,.74-.02,1.07,0,2.85,.11,5.33,.33,.2,.02,.32-.08,.37-.3,.04-.22,.11-.33,.2-.34,.17-.01,.29,.06,.33,.21,.07,.28,.15,.66,.26,1.13,.03,.13-.02,.27-.17,.4-.14,.11-.28,.22-.41,.33-.13,.11-.25,.16-.35,.16-.03,0-.22-.05-.57-.15-1.4-.38-2.97-.56-4.71-.56-.71,0-1.47,.03-2.29,.09-.55,.48-.89,.71-1.03,.71-.11,0-.18-.08-.21-.25-.12-.62-.19-.96-.19-1.03,0-.25,.14-.42,.42-.5,.26-.08,.82-.14,1.7-.18,.69-1.26,1.22-2.5,1.59-3.73-.04-.12-.14-.35-.3-.71-.1-.23-.15-.4-.15-.51,0-.25,.25-.43,.75-.56,.1-.02,.2-.05,.32-.08,.3-1.15,.66-2.62,1.1-4.4-.93-.16-1.61-.24-2.06-.24-.3,0-.6,.02-.9,.06-.71,.1-1.07,.58-1.07,1.43,0,.38,.07,.86,.22,1.43,.07,.25,.01,.38-.17,.38-.13,0-.21-.08-.26-.23-.28-.9-.42-1.65-.42-2.27,0-.44,.07-.86,.2-1.26,.19-.6,.75-.9,1.68-.9,.69,0,1.72,.13,3.1,.4,.34-.25,.57-.37,.7-.37,.09,0,.14,.06,.14,.17,0,.09-.03,.2-.08,.35,.26,.08,1.55,.38,3.86,.9,.3,.07,.53-.04,.7-.33,.07-.1,.15-.16,.24-.16,.13,0,.22,.11,.26,.31Z"/>
      <path class="cls-3" d="M32.43,7.11c-.09,0-.17,.05-.24,.16-.17,.29-.4,.4-.7,.33-2.31-.52-3.6-.82-3.86-.9,.05-.15,.08-.27,.08-.35,0-.12-.05-.18-.14-.18-.13,0-.36,.12-.7,.37-1.38-.27-2.42-.4-3.11-.4-.94,0-1.5,.3-1.69,.9-.13,.4-.2,.82-.2,1.26,0,.61,.14,1.37,.41,2.27,.05,.16,.13,.23,.25,.23,.18,0,.23-.13,.17-.38-.14-.57-.21-1.04-.21-1.43,0-.85,.36-1.33,1.07-1.44,.31-.04,.61-.06,.91-.06,.45,0,1.14,.08,2.07,.24-.44,1.78-.81,3.25-1.11,4.39-.12,.03-.22,.05-.32,.08-.5,.12-.75,.31-.75,.56,0,.1,.05,.27,.15,.51,.16,.35,.26,.59,.3,.7-.37,1.23-.9,2.48-1.58,3.74-.88,.04-1.45,.1-1.7,.18-.28,.08-.42,.25-.42,.5,0,.07,.06,.41,.19,1.03,.03,.17,.1,.25,.21,.25,.14,0,.48-.24,1.03-.71,.81-.06,1.57-.09,2.29-.09,1.74,0,3.31,.19,4.71,.57,.35,.09,.54,.14,.57,.15,.1,0,.22-.05,.35-.16,.13-.11,.27-.22,.41-.33,.15-.14,.21-.27,.18-.4-.11-.47-.2-.84-.26-1.12-.05-.16-.16-.23-.33-.21-.09,0-.16,.12-.2,.34-.04,.22-.16,.32-.37,.3-2.48-.22-4.26-.33-5.33-.33-.27,0-.51,0-.74,.02,.39-.27,.66-.53,.84-.79,.17-.26,.37-.72,.6-1.38l.78-2.43c.33-.06,1.21-.09,2.66-.09,.26,0,.44,.1,.53,.29,.08,.16,.39,.18,.94,.09,.51-.09,.77-.24,.77-.46,0-.04,0-.08-.01-.14-.09-.4-.15-.63-.17-.66-.12-.25-.37-.37-.73-.36-1.74,.09-2.97,.17-3.68,.23,.21-.91,.53-2.27,.98-4.06,1.54,.25,2.92,.53,4.12,.84,.38,.1,.66,.07,.86-.08,.24-.18,.37-.28,.38-.29,.08-.08,.12-.2,.12-.35,0-.13-.03-.34-.08-.62-.04-.21-.12-.31-.25-.31Z"/>
      <path class="cls-3" d="M39.67,15.88c0-.12-.05-.19-.15-.19-.05,0-.1,.03-.16,.1-.29,.38-.53,.7-.72,.94,.15-.46,.31-1.11,.49-1.94,.22-1.01,.33-1.74,.33-2.2,0-.44-.26-.75-.8-.94-.19-.14-.33-.21-.41-.21s-.23,.04-.43,.14c-.4,.19-1.02,.8-1.86,1.84-.83,1.04-1.47,1.98-1.9,2.82,.66-1.87,1.03-3.16,1.1-3.88,.03-.33-.22-.57-.74-.72-.12-.23-.25-.34-.41-.34-.1,0-.2,.05-.3,.17-.46,.53-.82,.98-1.1,1.34-.06,.06-.1,.12-.1,.18,0,.07,.04,.11,.14,.11,.07,0,.14-.03,.2-.09,.31-.28,.56-.51,.73-.68,.18-.18,.27-.26,.27-.26,.03,0,.03,.12,.02,.35-.05,.77-.28,1.84-.67,3.21-.37,1.27-.75,2.32-1.12,3.14-.07,.16-.11,.25-.11,.27,0,.05,.08,.11,.21,.17,.33,.16,.57,.24,.71,.24,.2,0,.38-.17,.53-.5,1.2-2.68,2.62-4.83,4.26-6.43,.17-.16,.3-.24,.38-.24,.12,0,.18,.14,.2,.43,.05,.71-.1,1.74-.46,3.09-.33,1.28-.71,2.35-1.13,3.21-.08,.16-.13,.26-.13,.3,0,.1,.13,.21,.38,.31,.23,.1,.4,.15,.52,.15,.15,0,.27-.1,.36-.3,.11-.29,.23-.59,.34-.88,.62-1.13,1.13-1.99,1.52-2.58,.01-.04,.02-.08,.02-.12Z"/>
      <path class="cls-3" d="M45.08,6.63c-.26,0-.5,.18-.73,.55-.4,.64-.94,2.03-1.64,4.19-.2,.12-.41,.22-.62,.29-.35,.11-.59,.18-.72,.22-.13,.03-.2,.12-.2,.27,0,.14,.06,.21,.19,.23,.28,.05,.59,.09,.94,.14-.7,2.45-1.18,4.52-1.42,6.2-.01,.06-.02,.11-.02,.16,0,.29,.19,.49,.56,.59,.3,.23,.52,.34,.66,.34s.32-.1,.54-.3c.51-.49,1.03-1.08,1.55-1.78,.08-.1,.11-.2,.09-.27-.02-.07-.07-.11-.16-.11-.1,0-.2,.05-.3,.16-.89,.85-1.42,1.28-1.59,1.28-.11,0-.17-.11-.17-.33,0-.06,0-.14,0-.22,.17-1.58,.64-3.52,1.43-5.8,1.3-.1,2.02-.16,2.16-.18,.17-.03,.25-.12,.25-.26,0-.21-.11-.3-.33-.28-.64,.06-1.16,.07-1.54,.04-.15,0-.23-.03-.25-.08-.01-.03,0-.11,.06-.25,.55-1.61,.99-2.66,1.3-3.14,.35-.54,.65-.81,.9-.81,.03,0,.07,0,.12,.02,.05,0,.1,.01,.12,.01,.12,0,.18-.04,.18-.13,0-.12-.09-.24-.27-.33-.48-.26-.84-.39-1.08-.39Z"/>
      <path class="cls-3" d="M51.32,11.67c-.07-.05-.24-.09-.52-.13-.2-.16-.36-.23-.48-.23-.13,0-.3,.14-.52,.43-1.13,1.51-2.13,3.25-3.02,5.23,.14-.63,.4-1.5,.78-2.62,.4-1.15,.67-1.81,.81-2,.14-.18,.1-.32-.1-.42-.36-.18-.6-.27-.71-.27-.16,0-.33,.14-.49,.43-.53,.79-.96,1.37-1.28,1.76-.05,.07-.08,.14-.08,.2,0,.1,.05,.15,.17,.15,.09,0,.16-.04,.22-.12,.13-.19,.44-.54,.92-1.04-.59,1.55-1.15,3.45-1.66,5.7-.07,.32,0,.53,.23,.64,.45,.23,.71,.34,.77,.34,.15,0,.33-.35,.55-1.04,.67-2.19,1.68-4.17,3.04-5.94,.18-.24,.3-.35,.38-.35,.05,0,.08,.06,.08,.19,0,.36-.09,.83-.27,1.42-.08,.24-.04,.43,.12,.56,.31,.26,.51,.39,.6,.39,.12,0,.22-.12,.29-.35,.23-.78,.34-1.59,.34-2.44,0-.23-.05-.39-.17-.47Z"/>
      <path class="cls-3" d="M55.57,13.59c-.02,.45-.13,.77-.32,.97-.26,.26-.66,.38-1.18,.36-.33-.02-.55-.04-.68-.06,.48-1.29,1.04-2.19,1.68-2.71,.14-.1,.24-.16,.31-.16,.11,0,.17,.13,.17,.38,0,1.14,0,1.54,.03,1.21Zm1.21,2.88c0-.12-.06-.18-.19-.18-.08,0-.17,.04-.25,.13-1.35,1.36-2.4,2.17-3.16,2.44-.12,.04-.22,.06-.3,.06-.21,0-.32-.17-.32-.51-.01-.57,.07-1.23,.25-1.97,.14-.59,.26-.98,.37-1.18,.62,.14,1.06,.22,1.33,.22,.51,0,.96-.15,1.37-.44,.44-.32,.66-.88,.66-1.69,0-.12,0-.35-.01-.69,0-.35,0-.64,0-.87,0-.08,0-.16,.03-.25,.02-.09,.03-.15,.03-.17,0-.1-.14-.15-.42-.15h-.46c-.14,.03-.2,.15-.17,.34-.44-.19-.71-.28-.82-.28-.24,0-.51,.18-.81,.55-.46,.55-.98,1.47-1.56,2.77-.11-.06-.22-.09-.32-.09-.14,0-.2,.05-.2,.14,0,.11,.12,.23,.36,.35-.36,1.08-.59,2.07-.71,2.96-.01,.08-.02,.15-.02,.22,0,.38,.24,.69,.73,.92,.47,.42,.86,.64,1.16,.64,.64,0,1.76-1.01,3.34-3.04,.07-.08,.1-.15,.1-.22Z"/>
      <path class="cls-3" d="M69.39,16.13c0-.1-.05-.16-.15-.16-.11,0-.21,.07-.29,.21-.18,.28-.44,.61-.76,1,.6-1.47,.94-2.98,1.02-4.55,.03-.54-.21-.85-.72-.93-.29-.26-.53-.39-.72-.39-.15,0-.29,.06-.43,.19-1.04,.98-2.2,2.47-3.47,4.48,.31-1.04,.46-2.22,.46-3.54,0-.25-.05-.43-.15-.55-.08-.09-.26-.2-.53-.31-.28-.18-.49-.26-.63-.26s-.26,.06-.4,.18c-.99,.87-2.06,2.34-3.21,4.41,.34-1.09,.59-2.26,.75-3.52,.01-.06,.02-.11,.02-.17,0-.18-.07-.3-.2-.36-.16-.06-.33-.12-.49-.18-.21-.21-.35-.31-.42-.31-.1,0-.21,.09-.34,.27-.36,.52-.72,.96-1.08,1.34-.07,.08-.11,.17-.11,.27,0,.13,.05,.2,.15,.2,.07,0,.14-.04,.22-.13,.12-.12,.29-.29,.53-.51,.23-.22,.4-.39,.5-.48,.05,.72-.11,1.86-.5,3.45-.34,1.39-.64,2.36-.91,2.93-.14,.15-.21,.26-.21,.33,0,.06,.05,.13,.16,.18,.4,.29,.67,.44,.8,.44,.11,0,.22-.15,.32-.46,.4-1.2,1.02-2.48,1.84-3.85,.85-1.43,1.63-2.44,2.32-3.03,.13-.11,.24-.17,.32-.17,.12,0,.17,.1,.17,.3,0,2-.43,4.07-1.28,6.2-.1,.24-.15,.37-.15,.38,0,.08,.05,.15,.15,.22,.2,.14,.41,.25,.64,.33,.15,.05,.24,.07,.28,.05,.03-.02,.07-.11,.12-.26,.44-1.36,1.18-2.82,2.24-4.38,.88-1.3,1.6-2.17,2.15-2.62,.15-.12,.28-.19,.39-.19,.16,0,.24,.11,.24,.34,.01,.69-.16,1.68-.5,2.97-.35,1.29-.77,2.51-1.25,3.65-.06,.14-.09,.24-.09,.31,0,.12,.23,.25,.67,.39,.22,.06,.35,.08,.41,.05,.02,0,.07-.08,.15-.23,.84-1.6,1.47-2.71,1.89-3.34,.06-.09,.09-.17,.09-.23Z"/>
      <path class="cls-3" d="M74.29,13.59c-.02,.45-.13,.77-.32,.97-.26,.26-.66,.38-1.18,.36-.33-.02-.55-.04-.68-.06,.48-1.29,1.04-2.19,1.68-2.71,.14-.1,.24-.16,.31-.16,.11,0,.17,.13,.17,.38,0,1.14,0,1.54,.03,1.21Zm1.21,2.88c0-.12-.06-.18-.19-.18-.08,0-.17,.04-.25,.13-1.35,1.36-2.4,2.17-3.15,2.44-.12,.04-.22,.06-.3,.06-.21,0-.32-.17-.32-.51-.01-.57,.07-1.23,.25-1.97,.14-.59,.26-.98,.37-1.18,.62,.14,1.06,.22,1.33,.22,.51,0,.96-.15,1.37-.44,.44-.32,.66-.88,.66-1.69,0-.12,0-.35,0-.69,0-.35-.01-.64-.01-.87,0-.08,.01-.16,.03-.25,.02-.09,.03-.15,.03-.17,0-.1-.14-.15-.42-.15h-.46c-.14,.03-.2,.15-.17,.34-.44-.19-.71-.28-.82-.28-.24,0-.51,.18-.81,.55-.46,.55-.98,1.47-1.56,2.77-.11-.06-.22-.09-.32-.09-.14,0-.21,.05-.21,.14,0,.11,.12,.23,.36,.35-.36,1.08-.59,2.07-.71,2.96-.01,.08-.02,.15-.02,.22,0,.38,.24,.69,.73,.92,.47,.42,.86,.64,1.16,.64,.65,0,1.76-1.01,3.34-3.04,.07-.08,.1-.15,.1-.22Z"/>
      <path class="cls-3" d="M78.87,15.61c-.33-1-.52-1.64-.59-1.9-.06-.26-.1-.48-.1-.66,0-.45,.35-.83,1.05-1.13,.1-.05,.16-.11,.16-.19,0-.14-.07-.19-.21-.16-1.45,.32-2.2,.88-2.26,1.7-.03,.34,.16,1.01,.57,2.02,.41,1.04,.62,1.76,.62,2.17,0,.23-.04,.42-.13,.58-.14,.31-.38,.5-.72,.58-.9,.13-1.59,.21-2.05,.24-.34,.03-.52,.14-.55,.31,.03,.16,.13,.26,.28,.28,.56,.08,1.03,.16,1.42,.22,.21,.03,.42,.04,.61,.03,.29-.03,.51-.12,.66-.27,.1-.1,.2-.29,.31-.57,.89-.29,1.32-.82,1.3-1.6,0-.38-.13-.93-.37-1.65Zm1.63-4.38c-.09,0-.3,.08-.61,.24-.18,.07-.26,.22-.22,.47,.04,.25-.02,.7-.18,1.34-.03,.12-.04,.21-.04,.28,0,.13,.05,.2,.15,.2,.06,0,.21-.05,.45-.14,.19-.06,.3-.11,.33-.15,.07-.06,.14-.21,.2-.43,.16-.64,.23-1.11,.23-1.41s-.1-.42-.3-.42Z"/>
      <path class="cls-3" d="M94.66,7.6c0-.17-.12-.34-.35-.53-.37-.29-.63-.43-.79-.43-.14,0-.23,.13-.26,.39-.57-.46-.87-.71-.91-.73-.3-.21-.56-.3-.79-.28-.62,.05-1.44,.64-2.44,1.78-1.04,1.19-1.92,2.57-2.63,4.14-.83,1.81-1.24,3.5-1.24,5.08,0,.98,.64,1.7,1.9,2.18,.28,.36,.69,.54,1.22,.54,.25,0,.53-.04,.84-.12,.99-.25,2.17-.9,3.55-1.93,.44-.33,.71-.56,.83-.67,.17-.19,.26-.39,.26-.6,0-.23-.12-.63-.35-1.22-.05-.12-.11-.18-.21-.18-.11,0-.18,.07-.2,.22-.03,.27-.13,.5-.29,.67-.52,.55-1.17,1.1-1.95,1.63-.82,.56-1.54,.94-2.17,1.13-.25,.08-.48,.12-.67,.12-.34,0-.64-.11-.91-.33-.37-.31-.55-.77-.56-1.39-.03-1.07,.29-2.4,.94-4,.62-1.54,1.36-2.86,2.22-3.98,.92-1.2,1.73-1.79,2.4-1.79,.32,0,.66,.16,1.02,.48-.1,1.2-.44,2.24-1.02,3.1-.14,.03-.21,.1-.21,.21,0,.21,.25,.39,.74,.54,.1,.03,.19,.05,.26,.05,.18,0,.37-.16,.56-.49,.41-.69,.77-1.67,1.08-2.94,.07-.3,.11-.5,.11-.61Z"/>
      <path class="cls-3" d="M101.65,12.56c-.01-.09-.09-.19-.24-.3-.36-.27-.59-.4-.68-.4s-.19,.15-.27,.44c-.05,.17-.17,.46-.34,.88-.24,.57-.79,1.41-1.64,2.52-.83,1.07-1.61,1.97-2.34,2.68-.31,.31-.57,.46-.79,.46-.13,0-.2-.08-.2-.24,0-.04,0-.08,0-.13,.18-1.04,.69-2.21,1.55-3.52,.74-1.13,1.42-1.92,2.03-2.37,.28-.21,.65-.21,1.11-.02,.05,.02,.1,.03,.15,.03,.14,0,.21-.05,.21-.16,0-.06-.03-.11-.09-.17-.66-.6-1.1-.91-1.34-.93-.24,0-.51,.13-.82,.42-.94,.88-1.78,1.96-2.51,3.24-.73,1.28-1.15,2.4-1.27,3.36-.01,.09-.02,.17-.02,.24,0,.37,.17,.65,.52,.86,.24,.19,.42,.28,.54,.28,.14,0,.35-.1,.62-.28,.38-.27,.99-.89,1.85-1.86,.98-1.11,1.75-2.13,2.32-3.05-.41,1.09-.75,2.47-1.03,4.12-.03,.22-.03,.36,0,.43,.03,.08,.13,.18,.3,.29,.3,.21,.51,.31,.62,.31,.12,0,.21-.13,.26-.39,.2-.92,.61-1.84,1.22-2.74,.05-.08,.08-.15,.08-.21,0-.1-.05-.15-.15-.15-.1,0-.2,.06-.29,.18-.04,.03-.14,.14-.3,.33-.16,.19-.29,.33-.39,.42,.23-1.13,.64-2.52,1.24-4.18,.07-.2,.1-.33,.09-.41Z"/>
      <path class="cls-3" d="M109.38,3.53c-.28-.21-.51-.33-.68-.33-.2,0-.39,.08-.59,.26-.71,.65-1.51,2.08-2.41,4.28-1.19,2.92-2.16,6.45-2.92,10.6-.03,.15-.05,.28-.05,.38,0,.21,.06,.38,.2,.51,.05,.04,.23,.17,.57,.39,.08,.06,.15,.09,.2,.09,.11,0,.2-.12,.27-.36,.2-.98,.62-1.91,1.24-2.8,.14-.2,.13-.3-.04-.3-.08,0-.2,.1-.37,.3-.29,.35-.51,.61-.66,.76,.05-.21,.08-.38,.1-.5,.75-4.57,2.01-8.3,3.78-11.18,.49-.79,.94-1.19,1.35-1.19,.15,0,.38,.08,.67,.23,.07,.04,.14,.06,.21,.06,.15,0,.23-.06,.23-.19,0-.07-.04-.14-.13-.2-.32-.27-.64-.53-.96-.79Z"/>
      <path class="cls-3" d="M109.13,12.44c0-.25-.07-.42-.22-.51-.03-.02-.2-.07-.5-.15-.2-.14-.36-.21-.46-.21-.1,0-.2,.06-.3,.17-.34,.38-.67,.79-.98,1.22-.06,.08-.09,.14-.09,.2,0,.18,.11,.17,.32-.03l.61-.57c.15-.14,.25-.21,.31-.21,.08,0,.11,.15,.09,.44-.05,.68-.28,1.73-.69,3.13-.43,1.45-.82,2.49-1.17,3.11-.07,.13-.11,.22-.11,.25,0,.04,.08,.11,.25,.21,.27,.15,.48,.22,.64,.22s.26-.07,.32-.22c.18-.48,.47-1.04,.86-1.66,.51-.82,.79-1.27,.82-1.34,.08-.18,.07-.27-.04-.27-.05,0-.09,.03-.14,.09-.33,.45-.59,.76-.78,.93,.66-2.04,1.07-3.51,1.22-4.38,.03-.15,.04-.28,.04-.4Zm.58-4.3c-.06,0-.17,.08-.32,.25-.19,.23-.58,.6-1.18,1.12-.06-.01-.1,0-.12,.02-.01,.03,0,.06,.01,.1,.02,.04,.06,.08,.1,.12,.14,.1,.31,.18,.51,.22,.34,.07,.7-.02,1.07-.27,.56-.4,.84-.69,.84-.88,0-.1-.05-.19-.16-.26-.39-.28-.65-.42-.76-.42Z"/>
      <path class="cls-3" d="M114.11,13.59c-.02,.45-.13,.77-.32,.97-.26,.26-.65,.38-1.18,.36-.33-.02-.55-.04-.68-.06,.48-1.29,1.04-2.19,1.68-2.71,.14-.1,.24-.16,.31-.16,.11,0,.17,.13,.17,.38,0,1.14,0,1.54,.03,1.21Zm1.21,2.88c0-.12-.06-.18-.19-.18-.08,0-.17,.04-.25,.13-1.35,1.36-2.4,2.17-3.16,2.44-.12,.04-.22,.06-.3,.06-.21,0-.32-.17-.32-.51-.01-.57,.07-1.23,.25-1.97,.14-.59,.26-.98,.37-1.18,.62,.14,1.06,.22,1.33,.22,.51,0,.96-.15,1.37-.44,.44-.32,.66-.88,.66-1.69,0-.12,0-.35,0-.69,0-.35-.01-.64-.01-.87,0-.08,.01-.16,.03-.25,.02-.09,.03-.15,.03-.17,0-.1-.14-.15-.42-.15h-.46c-.14,.03-.2,.15-.17,.34-.44-.19-.71-.28-.82-.28-.24,0-.51,.18-.81,.55-.46,.55-.98,1.47-1.56,2.77-.11-.06-.22-.09-.32-.09-.14,0-.2,.05-.2,.14,0,.11,.12,.23,.36,.35-.36,1.08-.59,2.07-.71,2.96-.01,.08-.02,.15-.02,.22,0,.38,.24,.69,.73,.92,.47,.42,.86,.64,1.16,.64,.64,0,1.76-1.01,3.34-3.04,.06-.08,.1-.15,.1-.22Z"/>
      <path class="cls-3" d="M123.43,15.88c0-.12-.05-.19-.15-.19-.05,0-.1,.03-.16,.1-.29,.38-.53,.7-.72,.94,.15-.46,.31-1.11,.49-1.94,.22-1.01,.33-1.74,.33-2.2,0-.44-.26-.75-.8-.94-.19-.14-.33-.21-.41-.21s-.23,.04-.43,.14c-.4,.19-1.02,.8-1.85,1.84-.83,1.04-1.47,1.98-1.9,2.82,.66-1.87,1.03-3.16,1.1-3.88,.03-.33-.22-.57-.74-.72-.12-.23-.25-.34-.41-.34-.1,0-.2,.05-.3,.17-.46,.53-.82,.98-1.1,1.34-.06,.06-.1,.12-.1,.18,0,.07,.05,.11,.14,.11,.07,0,.14-.03,.2-.09,.31-.28,.56-.51,.73-.68,.18-.18,.27-.26,.27-.26,.03,0,.03,.12,.02,.35-.05,.77-.28,1.84-.67,3.21-.37,1.27-.75,2.32-1.12,3.14-.07,.16-.11,.25-.11,.27,0,.05,.08,.11,.21,.17,.33,.16,.57,.24,.71,.24,.2,0,.38-.17,.53-.5,1.2-2.68,2.62-4.83,4.26-6.43,.17-.16,.3-.24,.38-.24,.12,0,.18,.14,.2,.43,.05,.71-.1,1.74-.46,3.09-.33,1.28-.71,2.35-1.13,3.21-.08,.16-.13,.26-.13,.3,0,.1,.13,.21,.38,.31,.23,.1,.4,.15,.52,.15,.15,0,.27-.1,.36-.3,.11-.29,.23-.59,.34-.88,.62-1.13,1.13-1.99,1.52-2.58,.01-.04,.02-.08,.02-.12Z"/>
      <path class="cls-3" d="M128.84,6.63c-.26,0-.5,.18-.73,.55-.4,.64-.94,2.03-1.64,4.19-.2,.12-.41,.22-.63,.29-.35,.11-.59,.18-.72,.22-.13,.03-.2,.12-.2,.27,0,.14,.06,.21,.19,.23,.28,.05,.59,.09,.94,.14-.7,2.45-1.17,4.52-1.42,6.2-.01,.06-.02,.11-.02,.16,0,.29,.19,.49,.56,.59,.3,.23,.52,.34,.66,.34s.32-.1,.54-.3c.51-.49,1.03-1.08,1.55-1.78,.08-.1,.11-.2,.09-.27-.02-.07-.07-.11-.16-.11-.1,0-.2,.05-.3,.16-.88,.85-1.42,1.28-1.59,1.28-.11,0-.17-.11-.17-.33,0-.06,0-.14,.01-.22,.17-1.58,.64-3.52,1.43-5.8,1.3-.1,2.02-.16,2.16-.18,.17-.03,.25-.12,.25-.26,0-.21-.11-.3-.33-.28-.64,.06-1.16,.07-1.54,.04-.15,0-.24-.03-.25-.08-.01-.03,0-.11,.06-.25,.55-1.61,.99-2.66,1.3-3.14,.35-.54,.65-.81,.9-.81,.03,0,.07,0,.12,.02,.05,0,.1,.01,.12,.01,.12,0,.19-.04,.19-.13,0-.12-.09-.24-.27-.33-.48-.26-.84-.39-1.08-.39Z"/>
      <path class="cls-3" d="M133.05,13.59c-.02,.45-.13,.77-.32,.97-.26,.26-.66,.38-1.18,.36-.33-.02-.55-.04-.68-.06,.48-1.29,1.04-2.19,1.68-2.71,.14-.1,.24-.16,.31-.16,.11,0,.17,.13,.17,.38,0,1.14,0,1.54,.03,1.21Zm1.21,2.88c0-.12-.06-.18-.19-.18-.08,0-.17,.04-.25,.13-1.35,1.36-2.4,2.17-3.15,2.44-.12,.04-.22,.06-.3,.06-.21,0-.32-.17-.32-.51-.01-.57,.07-1.23,.25-1.97,.14-.59,.26-.98,.37-1.18,.62,.14,1.06,.22,1.33,.22,.51,0,.96-.15,1.37-.44,.44-.32,.66-.88,.66-1.69,0-.12,0-.35-.01-.69,0-.35,0-.64,0-.87,0-.08,0-.16,.03-.25,.02-.09,.03-.15,.03-.17,0-.1-.14-.15-.42-.15h-.46c-.14,.03-.2,.15-.17,.34-.44-.19-.71-.28-.82-.28-.24,0-.51,.18-.81,.55-.46,.55-.98,1.47-1.56,2.77-.11-.06-.22-.09-.32-.09-.14,0-.2,.05-.2,.14,0,.11,.12,.23,.36,.35-.36,1.08-.6,2.07-.71,2.96-.01,.08-.02,.15-.02,.22,0,.38,.24,.69,.73,.92,.47,.42,.86,.64,1.16,.64,.64,0,1.76-1.01,3.34-3.04,.07-.08,.1-.15,.1-.22Z"/>
    </g>
  </g>
</svg>