<svg xmlns="http://www.w3.org/2000/svg" viewBox="0 0 57.614 57.614"><path d="M2.807 37.614c0-7.738 5.367-14 12-14h2c6.633 0 12 6.262 12 14 0 7.18-5.82 13-13 13s-13-5.82-13-13z" fill="#D13834"/><path d="M13.764 47.386c-.072 0-.146-.008-.22-.024-3.555-.796-6.447-3.395-7.547-6.784-.17-.525.117-1.09.643-1.26.527-.17 1.09.117 1.26.643.87 2.68 3.257 4.82 6.082 5.45.54.12.878.66.758 1.2-.106.468-.518.78-.976.78zm-7.03-11.174c-.064 0-.13-.006-.2-.02-.54-.11-.89-.637-.78-1.178.272-1.354.77-2.627 1.475-3.785.28-.48.9-.62 1.37-.34.47.29.62.9.33 1.372-.586.96-.998 2.014-1.22 3.14-.1.473-.517.8-.98.8zm22.073 8.402c0-7.738 5.367-14 12-14h2c6.633 0 12 6.262 12 14 0 7.18-5.82 13-13 13s-13-5.82-13-13zm-5-11c-3.31 0-6-2.69-6-6 0-.552.448-1 1-1s1 .448 1 1c0 2.206 1.794 4 4 4 .552 0 1 .448 1 1s-.448 1-1 1z" fill="#ED3F32"/><path d="M47.807 40.614c-3.31 0-6-2.69-6-6 0-.552.448-1 1-1s1 .448 1 1c0 2.206 1.794 4 4 4 .552 0 1 .448 1 1s-.448 1-1 1z" fill="#ED7161"/><path d="M45.806 36.614c-.164 0-.33-.04-.485-.126-.48-.268-.65-.877-.38-1.36 4.23-7.61 3.54-14.017-2.96-24.46C40.4 21.68 30.56 30.586 22.388 30.586c-.552 0-1-.448-1-1s.448-1 1-1c7.853 0 17.816-9.875 17.816-20.972 0-.44.29-.83.71-.957.42-.128.876.036 1.12.402 7.18 10.77 10.246 18.97 4.655 29.04-.18.32-.522.51-.873.51z" fill="#4C312C"/><path d="M40.807 7.092c4.012 2.94 10.148 1.38 13.09-2.632-4.013-2.942-10.15-1.38-13.09 2.632z" fill="#88C057"/><path d="M29.807.11c.757 4.917 6.2 8.15 11.117 7.394-.758-4.917-6.2-8.15-11.117-7.394z" fill="#659C35"/><path d="M39.623 54.73c-.072 0-.146-.007-.22-.023-3.555-.796-6.447-3.396-7.547-6.785-.17-.525.117-1.09.643-1.26.52-.17 1.09.117 1.26.643.86 2.678 3.25 4.817 6.08 5.45.54.12.88.656.76 1.194-.11.46-.52.78-.98.78z" fill="#ED7161"/></svg>