<svg height="512" viewBox="0 0 512 512" width="512" xmlns="http://www.w3.org/2000/svg"><path d="M159.6 158.537h-16.067C64.39 158.537 0 94.147 0 15.004c0-8.284 6.716-15 15-15h16.067c79.145 0 143.533 64.39 143.533 143.533 0 8.284-6.716 15-15 15z" fill="#32b464"/><path d="M174.6 143.537C174.6 64.392 110.21.004 31.067.004H15c-3.87 0-7.387 1.48-10.048 3.885L159.6 158.534c8.284 0 15-6.716 15-15z" fill="#28825a"/><path d="M497 238.87h-16.066c-96.863 0-175.667-78.796-175.667-175.65 0-8.284 6.716-15.016 15-15.016h16.066C433.196 48.204 512 127.007 512 223.87c0 8.284-6.716 15-15 15z" fill="#32b464"/><path d="M336.333 48.204h-16.066l186.78 186.78c3.035-2.744 4.953-6.7 4.953-11.114 0-96.863-78.804-175.666-175.667-175.666z" fill="#28825a"/><path d="M256 158.537c-8.284 0-15-6.716-15-15v-48.2c0-8.284 6.716-15 15-15s15 6.716 15 15v48.2c0 8.284-6.716 15-15 15z" fill="#1e000a"/><path d="M81.917 182.378c-3.705-7.41-.7-16.42 6.708-20.125L409.96 1.587c7.41-3.705 16.42-.702 20.123 6.708 3.705 7.41.702 16.42-6.708 20.125L102.042 189.087c-7.385 3.693-16.408.725-20.125-6.71zm253.445 19.344l-68.76-68.8c-2.93-2.925-6.766-4.388-10.603-4.388s-7.676 1.463-10.605 4.388l-68.76 68.8c-31.694 31.632-49.15 73.732-49.15 118.545s17.456 86.913 49.15 118.545l68.76 68.8c2.93 2.925 6.766 4.388 10.603 4.388s7.672-1.463 10.6-4.388l68.76-68.8c31.695-31.632 49.15-73.732 49.15-118.545s-17.455-86.913-49.15-118.545z" fill="#823200"/><path d="M335.362 201.722l-68.76-68.8c-2.93-2.925-6.766-4.388-10.603-4.388V512c3.834 0 7.67-1.463 10.6-4.388l68.76-68.8c31.693-31.632 49.15-73.732 49.15-118.545s-17.456-86.913-49.15-118.545z" fill="#4b1e0a"/><path d="M269.14 136.288c-2.556-4.625-7.482-7.755-13.14-7.755s-10.584 3.13-13.14 7.755c-66.933 113.562-66.906 254.52.067 368.066C245.5 508.914 250.39 512 256 512s10.5-3.085 13.073-7.646c66.973-113.545 67-254.504.066-368.066z" fill="#af6432"/><path d="M256 512V128.533c5.658 0 10.584 3.13 13.14 7.755 66.933 113.562 66.906 254.52-.067 368.066C266.5 508.914 261.61 512 256 512z" fill="#823200"/><path d="M409.96 1.587L256 78.567v33.54L423.375 28.42c7.41-3.705 10.413-12.715 6.708-20.125C426.38.885 417.37-2.118 409.96 1.587z" fill="#4b1e0a"/></svg>