<svg height="511pt" viewBox="0 -23 511.99987 511" width="511pt" xmlns="http://www.w3.org/2000/svg"><path d="m435.980469 13.535156c43.839843 37.160156 14.296875 139.519532-63.445313 229.902344-31.515625 36.640625-66.453125 65.511719-99.78125 84.425781 9.578125 23.53125 15.875 46.503907 14.113282 64.355469 63.980468 2.402344 128.40625-23.214844 173.207031-75.300781 77.742187-90.378907 66.957031-226.210938-24.09375-303.382813zm0 0" fill="#9e6b57"/><path d="m314.242188 344.222656c-3.023438-11.457031-7.234376-23.226562-12.5-35.089844-9.714844 7.019532-19.417969 13.296876-28.988282 18.730469 9.578125 23.53125 15.875 46.503907 14.113282 64.355469 10.945312.410156 21.90625-.019531 32.777343-1.238281.816407-14.210938-.953125-29.910157-5.402343-46.757813zm0 0" fill="#875848"/><path d="m435.980469 13.535156c-43.839844-37.15625-142.402344 8.046875-220.144531 98.429688-22.941407 26.671875-36.675782 57.710937-50.324219 84.609375 21.445312 14.175781 38.457031 28.082031 58.492187 51.375 22.925782 26.65625 40.164063 54.78125 50.8125 80.945312 33.324219-18.914062 68.261719-47.789062 99.78125-84.425781 77.738282-90.382812 105.222656-193.773438 61.382813-230.933594zm0 0" fill="#875848"/><path d="m302.582031 311.039062c-12.183593-28.03125-30.347656-56.675781-52.960937-83.160156-21.109375-24.71875-44.683594-45.902344-68.695313-61.976562-5.441406 10.5-10.4375 20.859375-15.414062 30.671875 21.445312 14.175781 38.457031 28.082031 58.492187 51.375 22.925782 26.65625 40.164063 54.78125 50.8125 80.941406 9.167969-5.199219 18.460938-11.183594 27.765625-17.851563zm0 0" fill="#7a4c40"/><path d="m413.207031 23.503906c-39.304687-33.3125-127.671875 5.367188-197.371093 86.402344-23.203126 26.972656-41.40625 55.238281-53.925782 82.175781 21.050782 14.097657 42.4375 33.019531 62.089844 55.867188 16.980469 19.738281 30.835938 40.285156 41.210938 60.242187 30.925781-16.890625 63.597656-43.507812 92.960937-77.644531 69.703125-81.03125 94.34375-173.726563 55.035156-207.042969zm0 0" fill="#e4eaf8"/><path d="m292.804688 290.8125c-11.378907-21.414062-25.992188-42.796875-43.183594-62.933594-22.21875-26.019531-47.167969-48.121094-72.484375-64.46875-5.746094 9.644532-10.839844 19.242188-15.226563 28.671875 21.050782 14.097657 42.4375 33.019531 62.089844 55.867188 16.980469 19.738281 30.835938 40.285156 41.210938 60.238281 9.089843-4.960938 18.332031-10.789062 27.59375-17.375zm0 0" fill="#d8dce5"/><path d="m376.5 50.402344c-25.132812-21.304688-89.089844 12.097656-142.851562 74.597656-23.816407 27.691406-41.632813 56.441406-51.910157 81.734375 14.457031 11.695313 28.769531 25.527344 42.265625 41.214844 6.535156 7.597656 12.609375 15.316406 18.199219 23.074219 25.921875-13.472657 55.472656-37.507813 82.457031-68.878907 53.761719-62.503906 76.972656-130.441406 51.839844-151.742187zm0 0" fill="#d8dce5"/><path d="m269.757812 253.667969c-6.234374-8.753907-12.957031-17.378907-20.136718-25.789063-16.542969-19.375-34.605469-36.574218-53.203125-50.851562-5.902344 10.230468-10.820313 20.214844-14.679688 29.707031 14.457031 11.695313 28.769531 25.527344 42.261719 41.214844 6.535156 7.597656 12.609375 15.316406 18.199219 23.074219 8.847656-4.597657 18.117187-10.425782 27.558593-17.355469zm0 0" fill="#c3c8d1"/><path d="m58.039062 173.832031c-33.472656 28.578125-9.398437 105.007813 49.957032 174.523438 59.355468 69.515625 131.515625 105.789062 164.988281 77.210937-69.515625 59.355469-173.984375 51.121094-233.339844-18.394531s-51.121093-173.984375 18.394531-233.339844zm0 0" fill="#9e6b57"/><path d="m69.695312 407.171875c-43.007812-50.367187-50.519531-119.085937-24.957031-175.695313-4.703125-24.996093-.828125-45.582031 13.300781-57.644531-69.515624 59.355469-77.75 163.824219-18.394531 233.339844 36.253907 42.457031 89.339844 62.050781 141.007813 57.351563-41.550782-3.757813-81.726563-23.117188-110.957032-57.351563zm0 0" fill="#875848"/><path d="m226.101562 247.964844c-59.351562-69.515625-134.597656-102.699219-168.070312-74.125-33.46875 28.578125-12.492188 108.097656 46.859375 177.613281s134.597656 102.703125 168.070313 74.125c33.472656-28.578125 12.492187-108.097656-46.859376-177.613281zm0 0" fill="#e4eaf8"/><path d="m135.8125 351.445312c-59.355469-69.511718-80.335938-149.035156-46.867188-177.613281 4.746094-4.054687 10.335938-6.859375 16.597657-8.503906-19.257813-3.886719-35.894531-1.410156-47.503907 8.503906-33.472656 28.578125-12.488281 108.101563 46.867188 177.613281 50.9375 59.660157 113.582031 92.554688 151.480469 82.621094-36.261719-7.320312-81.804688-37.214844-120.574219-82.621094zm0 0" fill="#d8dce5"/><path d="m212.503906 259.578125c-43.460937-50.90625-95.164062-78.109375-115.480468-60.761719-20.320313 17.347656-1.558594 72.675782 41.902343 123.578125 43.460938 50.90625 95.164063 78.109375 115.480469 60.761719s1.558594-72.675781-41.902344-123.578125zm0 0" fill="#d8dce5"/><path d="m169.847656 322.386719c-43.464844-50.902344-62.226562-106.230469-41.910156-123.578125.851562-.730469 1.765625-1.375 2.726562-1.945313-14.1875-4.792969-26.082031-4.503906-33.632812 1.945313-20.320312 17.347656-1.554688 72.675781 41.910156 123.578125 41.636719 48.765625 90.832032 75.769531 112.757813 62.699219-23.988281-8.097657-54.546875-30.71875-81.851563-62.699219zm0 0" fill="#c3c8d1"/></svg>