<svg height="511pt" viewBox="0 -23 511.99987 511" width="511pt" xmlns="http://www.w3.org/2000/svg"><path d="M435.98 13.535c43.84 37.16 14.297 139.52-63.445 229.903-31.515 36.64-66.453 65.51-99.78 84.425 9.577 23.532 15.874 46.504 14.112 64.356 63.98 2.4 128.406-23.22 173.207-75.31C537.816 226.53 527.03 90.7 435.98 13.53zm0 0" fill="#9e6b57"/><path d="M314.242 344.223c-3.023-11.457-7.234-23.227-12.5-35.09-9.715 7.02-19.418 13.297-28.988 18.73 9.578 23.532 15.875 46.504 14.113 64.356 10.945.41 21.906-.02 32.778-1.24.816-14.21-.954-29.91-5.403-46.76zm0 0" fill="#875848"/><path d="M435.98 13.535c-43.84-37.156-142.402 8.047-220.144 98.43-22.94 26.672-36.676 57.71-50.324 84.61 21.445 14.175 38.457 28.08 58.492 51.374 22.926 26.65 40.164 54.78 50.812 80.94 33.325-18.92 68.262-47.79 99.782-84.43C452.336 154.082 479.82 50.69 435.98 13.53zm0 0" fill="#875848"/><path d="M302.582 311.04c-12.184-28.032-30.348-56.677-52.96-83.16-21.11-24.72-44.685-45.903-68.696-61.978-5.442 10.5-10.438 20.86-15.414 30.672 21.445 14.176 38.457 28.082 58.492 51.375 22.926 26.65 40.164 54.78 50.812 80.94 9.168-5.2 18.46-11.19 27.766-17.85zm0 0" fill="#7a4c40"/><path d="M413.207 23.504c-39.305-33.313-127.672 5.367-197.37 86.402-23.204 26.973-41.407 55.24-53.927 82.176 21.05 14.098 42.438 33.02 62.09 55.867 16.98 19.73 30.836 40.28 41.21 60.24 30.927-16.89 63.6-43.51 92.962-77.65 69.703-81.03 94.344-173.73 55.035-207.045zm0 0" fill="#e4eaf8"/><path d="M292.805 290.813c-11.38-21.415-25.993-42.797-43.184-62.934-22.21-26.02-47.16-48.13-72.48-64.47-5.74 9.64-10.84 19.24-15.22 28.67 21.05 14.1 42.44 33.02 62.09 55.86 16.98 19.74 30.836 40.284 41.21 60.24 9.09-4.96 18.333-10.79 27.595-17.376zm0 0" fill="#d8dce5"/><path d="M376.5 50.402C351.367 29.098 287.41 62.5 233.648 125c-23.816 27.69-41.632 56.44-51.91 81.734 14.457 11.696 28.77 25.528 42.266 41.215 6.535 7.59 12.61 15.31 18.2 23.07 25.92-13.47 55.472-37.51 82.456-68.88 53.762-62.5 76.973-130.44 51.84-151.74zm0 0" fill="#d8dce5"/><path d="M269.758 253.668c-6.235-8.754-12.957-17.38-20.137-25.79-16.54-19.374-34.6-36.573-53.2-50.85-5.9 10.23-10.82 20.214-14.68 29.706 14.46 11.696 28.77 25.528 42.26 41.216 6.54 7.594 12.61 15.313 18.2 23.07 8.85-4.597 18.12-10.425 27.56-17.355zm0 0" fill="#c3c8d1"/><path d="M58.04 173.832c-33.474 28.578-9.4 105.008 49.956 174.523 59.356 69.516 131.516 105.79 164.988 77.21C203.47 484.923 99 476.688 39.644 407.173s-51.12-173.985 18.395-233.34zm0 0" fill="#9e6b57"/><path d="M69.695 407.172c-43.007-50.367-50.52-119.086-24.957-175.695-4.703-24.997-.828-45.582 13.3-57.645-69.515 59.356-77.75 163.824-18.393 233.34 36.253 42.457 89.34 62.05 141.007 57.35-41.55-3.756-81.726-23.116-110.957-57.35zm0 0" fill="#875848"/><path d="M226.102 247.965c-59.352-69.516-134.598-102.7-168.07-74.125-33.47 28.578-12.493 108.097 46.86 177.613s134.596 102.703 168.07 74.125C306.432 397 285.45 317.48 226.1 247.965zm0 0" fill="#e4eaf8"/><path d="M135.813 351.445c-59.356-69.51-80.336-149.035-46.868-177.613 4.746-4.055 10.336-6.86 16.598-8.504-19.258-3.887-35.895-1.41-47.504 8.504-33.48 28.578-12.49 108.102 46.86 177.613 50.934 59.66 113.58 92.555 151.48 82.62-36.26-7.32-81.808-37.213-120.578-82.62zm0 0" fill="#d8dce5"/><path d="M212.504 259.578c-43.46-50.906-95.164-78.11-115.48-60.762-20.32 17.348-1.56 72.676 41.902 123.58 43.46 50.905 95.164 78.108 115.48 60.76s1.56-72.676-41.902-123.578zm0 0" fill="#d8dce5"/><path d="M169.848 322.387c-43.465-50.903-62.227-106.23-41.91-123.578.85-.74 1.765-1.38 2.726-1.95-14.187-4.8-26.082-4.51-33.633 1.94-20.32 17.346-1.55 72.674 41.91 123.577 41.64 48.765 90.84 75.77 112.76 62.7-23.99-8.1-54.54-30.72-81.85-62.7zm0 0" fill="#c3c8d1"/></svg>