<svg height="512" viewBox="0 0 512 512" width="512" xmlns="http://www.w3.org/2000/svg"><path d="M170.903 471.914h170.19V512h-170.19z" fill="#e19974"/><path d="M320.86 471.914h20.233V512H320.86z" fill="#dc8758"/><path d="M337.7 340.412c-1.902-12.654-5.624-23.865-9.548-36.026-10.16-31.482-18.972-56.884-15.928-90.28.38-4.176-.525-9.738 0-13.89.517-4.09 5.916-6.847 6.545-10.92 3.08-19.957 7.33-39.725 11.08-59.565.45-2.37-1.376-4.57-3.79-4.57H185.93c-2.416 0-4.24 2.2-3.79 4.57 3.753 19.85 8.005 39.61 11.087 59.57.263 1.71 2.975 4.98 3.22 6.688.936 6.51 2.432 12.367 3.03 18.933 3.044 33.398-7.512 58.89-17.67 90.37-3.924 12.16-7.437 19.406-9.34 32.06-1.187 7.893-3.78 20.46-3.553 28.258 0 0-1.732 3.335-1.603 5.11 2.27 31.168 16.4 59.787 44.41 76.128h82.72c28.018-16.34 36.85-32.864 39.11-64.03.23-3.147 6.34-17.938 6.33-21.125-.022-6.445-1.193-14.774-2.17-21.267z" fill="#dff6fd"/><path d="M294.435 446.834h-14.998c36.56-21.325 49.47-63.56 43.227-105.078-1.902-12.656-5.847-24.886-9.762-37.046-10.167-31.482-21.113-57.278-18.068-90.683 2.6-28.447 8.882-56.297 14.183-84.3.445-2.376-1.376-4.572-3.794-4.572h20.84c2.418 0 4.24 2.195 3.794 4.573-3.756 19.843-8.005 39.61-11.088 59.566-.17 1.09-3.38 2.96-3.54 4.052-1.05 7.122-.94 13.495-1.59 20.68-3.05 33.405 6.01 58.933 16.17 90.415 3.92 12.16 9.5 23.67 11.4 36.33 1.2 8.01 1.84 17.82 1.59 25.72-.057 1.68-4.83 9.98-4.95 11.64-2.27 31.17-15.41 52.37-43.42 68.71z" fill="#c8effe"/><path d="M370.196 479.686H141.8c-11.12 0-20.132-9.013-20.132-20.132v-6c0-3.71 3.007-6.717 6.717-6.717h255.227c3.71 0 6.717 3.007 6.717 6.717v6c-.01 11.118-9.02 20.132-20.14 20.132z" fill="#e19974"/><path d="M390.332 453.552v6c0 11.117-9.014 20.13-20.13 20.13h-20.234c11.118 0 20.13-9.014 20.13-20.13v-6c0-3.703-3.014-6.717-6.716-6.717h20.233c3.703 0 6.717 3.014 6.717 6.717z" fill="#dc8758"/><path d="M297.795 446.834h-83.05c-23.86-16.034-41.19-39.962-44.966-68.34-.32-2.345-2.3-5.408-2.47-7.785-.69-9.51-.28-19.25 1.18-28.96 1.9-12.657 5.84-24.886 9.76-37.05 10.162-31.485 21.1-57.285 18.06-90.677-.755-8.284-1.826-16.53-3.09-24.736h125.55c-1.268 8.206-2.34 16.452-3.09 24.736-3.046 33.395 7.894 59.195 18.06 90.677 3.92 12.167 7.862 24.395 9.764 37.05 1.46 9.705 1.872 19.447 1.18 28.953-.128 1.77-2.865 4.65-3.07 6.405-3.417 29.09-17.398 54.31-43.82 69.72z" fill="#e19974"/><path d="M296.533 446.834h-17.096c36.56-21.325 49.47-63.56 43.227-105.078-1.902-12.656-5.847-24.886-9.762-37.046-10.167-31.482-21.113-57.278-18.068-90.683.76-8.285 1.83-16.53 3.095-24.734h20.84c-1.27 8.204-2.34 16.45-3.09 24.734-3.05 33.394 7.89 59.2 18.06 90.683 3.91 12.16 7.86 24.39 9.76 37.046 1.46 9.703 1.87 19.446 1.18 28.952-.07.994-1.73 4.283-1.828 5.272-2.927 30.008-22.616 51.8-46.328 70.854z" fill="#dc8758"/><path d="M344.686 370.708c-2.267 31.165-16.39 59.79-44.41 76.126H211.72c-28.02-16.335-42.143-44.96-44.41-76.126l34.456 37.4c4.13 4.48 9.946 7.033 16.048 7.033h76.366c6.103 0 11.918-2.55 16.048-7.03z" fill="#dff6fd"/><path d="M344.687 370.71c-2.266 31.167-16.388 59.786-44.41 76.124h-20.84c18.948-11.057 31.543-27.72 38.412-46.99z" fill="#c8effe"/><path d="M256.862 104.575c-6.554 0-12.942-2.467-18.032-7.068-6.77-6.117-10.417-15.1-9.757-24.033.69-9.336 4.864-17.775 9.103-25.888 2.2-4.212 4.28-8.192 5.71-12.286 2.866-8.195 3.16-17.312.826-25.673-1.125-4.037 1.234-8.22 5.27-9.348 4.038-1.13 8.22 1.23 9.348 5.27 3.157 11.32 2.76 23.66-1.118 34.75-1.795 5.134-4.23 9.795-6.586 14.305-3.265 6.247-6.888 12.8-7.42 19.98-.312 4.233 1.526 8.7 4.798 11.656 1.63 1.47 5.075 3.815 9.786 2.98 4.485-.79 8.41-4.78 9.13-9.276.66-4.136 4.548-6.957 8.69-6.29 4.138.662 6.956 4.553 6.293 8.69-2.032 12.684-13.57 22.23-26.04 22.224z" fill="#fed2a4"/></svg>