<svg id="Capa_1" enable-background="new 0 0 512 512" height="512" viewBox="0 0 512 512" width="512" xmlns="http://www.w3.org/2000/svg"><g><path d="m170.903 471.914h170.19v40.086h-170.19z" fill="#e19974"/><path d="m320.86 471.914h20.233v40.086h-20.233z" fill="#dc8758"/><path d="m337.701 340.412c-1.903-12.654-5.625-23.865-9.549-36.026-10.159-31.482-18.972-56.884-15.928-90.281.381-4.175-.525-9.737 0-13.889.517-4.091 5.916-6.847 6.545-10.92 3.082-19.957 7.334-39.725 11.088-59.565.449-2.374-1.374-4.572-3.791-4.572-13.701 0-126.435 0-140.136 0-2.416 0-4.24 2.198-3.791 4.572 3.754 19.841 8.006 39.609 11.088 59.565.263 1.706 2.975 4.974 3.221 6.683.935 6.512 2.431 12.367 3.029 18.933 3.044 33.398-7.512 58.889-17.67 90.371-3.924 12.161-7.437 19.405-9.34 32.059-1.187 7.893-3.781 20.462-3.553 28.258 0 0-1.732 3.334-1.603 5.109 2.264 31.168 16.392 59.787 44.406 76.128h82.718c28.014-16.341 36.846-32.865 39.111-64.032.229-3.146 6.337-17.937 6.326-21.124-.023-6.447-1.194-14.776-2.171-21.269z" fill="#dff6fd"/><path d="m294.435 446.834h-14.998c36.56-21.325 49.469-63.561 43.227-105.078-1.902-12.656-5.847-24.886-9.762-37.046-10.167-31.482-21.113-57.278-18.068-90.683 2.6-28.447 8.882-56.297 14.183-84.299.445-2.377-1.376-4.573-3.794-4.573h20.84c2.418 0 4.239 2.195 3.794 4.573-3.756 19.843-8.005 39.61-11.088 59.566-.169 1.091-3.377 2.96-3.538 4.052-1.052 7.122-.934 13.495-1.591 20.681-3.045 33.404 6.017 58.932 16.174 90.414 3.925 12.16 9.499 23.669 11.401 36.325 1.204 8.007 1.844 17.814 1.591 25.719-.054 1.675-4.83 9.978-4.951 11.64-2.265 31.167-15.405 52.368-43.42 68.709z" fill="#c8effe"/><path d="m370.196 479.686h-228.396c-11.119 0-20.132-9.013-20.132-20.132v-6c0-3.71 3.007-6.717 6.717-6.717h255.227c3.71 0 6.717 3.007 6.717 6.717v6c-.001 11.118-9.014 20.132-20.133 20.132z" fill="#e19974"/><path d="m390.332 453.552v5.999c0 11.118-9.014 20.131-20.131 20.131h-20.233c11.118 0 20.131-9.014 20.131-20.131v-5.999c0-3.703-3.015-6.717-6.717-6.717h20.233c3.703-.001 6.717 3.014 6.717 6.717z" fill="#dc8758"/><path d="m297.795 446.834h-83.05c-23.86-16.034-41.191-39.962-44.966-68.341-.312-2.344-2.296-5.407-2.468-7.784-.691-9.506-.279-19.248 1.18-28.952 1.902-12.655 5.846-24.884 9.767-37.05 10.163-31.483 21.102-57.283 18.059-90.675-.753-8.284-1.824-16.53-3.09-24.736h125.543c-1.266 8.206-2.337 16.452-3.09 24.736-3.044 33.393 7.896 59.193 18.059 90.675 3.921 12.166 7.865 24.394 9.767 37.05 1.459 9.704 1.872 19.446 1.181 28.952-.129 1.773-2.866 4.653-3.072 6.408-3.416 29.091-17.397 54.309-43.82 69.717z" fill="#e19974"/><path d="m296.533 446.834h-17.096c36.56-21.325 49.469-63.561 43.227-105.078-1.902-12.656-5.847-24.886-9.762-37.046-10.167-31.482-21.113-57.278-18.068-90.683.759-8.285 1.831-16.53 3.095-24.734h20.84c-1.265 8.204-2.337 16.449-3.086 24.734-3.045 33.394 7.891 59.201 18.058 90.683 3.915 12.16 7.86 24.39 9.762 37.046 1.459 9.703 1.871 19.446 1.181 28.952-.072.994-1.727 4.283-1.824 5.272-2.926 30.008-22.615 51.799-46.327 70.854z" fill="#dc8758"/><path d="m344.686 370.708c-2.267 31.165-16.39 59.79-44.41 76.126h-88.556c-28.02-16.335-42.143-44.961-44.41-76.126l34.456 37.399c4.13 4.48 9.946 7.034 16.048 7.034h76.366c6.103 0 11.918-2.554 16.048-7.034z" fill="#dff6fd"/><path d="m344.687 370.709c-2.266 31.168-16.388 59.787-44.41 76.125h-20.84c18.948-11.057 31.543-27.719 38.412-46.99z" fill="#c8effe"/><g><path d="m256.862 104.575c-6.554 0-12.942-2.467-18.032-7.068-6.769-6.117-10.417-15.101-9.757-24.033.689-9.336 4.864-17.775 9.103-25.888 2.2-4.212 4.28-8.192 5.71-12.286 2.866-8.195 3.159-17.312.826-25.673-1.125-4.037 1.234-8.221 5.27-9.348 4.038-1.122 8.22 1.234 9.348 5.27 3.157 11.321 2.76 23.665-1.118 34.759-1.795 5.135-4.23 9.796-6.586 14.306-3.265 6.247-6.888 12.8-7.419 19.978-.313 4.234 1.525 8.701 4.797 11.657 1.629 1.472 5.075 3.815 9.786 2.982 4.485-.792 8.41-4.782 9.13-9.278.661-4.137 4.548-6.958 8.691-6.292 4.137.662 6.955 4.553 6.292 8.691-2.032 12.683-13.569 22.23-26.041 22.223z" fill="#fed2a4"/></g></g></svg>