<svg xmlns="http://www.w3.org/2000/svg" viewBox="0 0 511.925 511.925"><path d="M469.333 127.962c-23.564 0-42.667 19.103-42.667 42.667.01 4.47.73 8.913 2.133 13.16l-34.606 21.995c-22.783 14.516-52.82 9.705-69.93-11.2l-33.92-41.493c5.397-7.267 8.315-16.078 8.32-25.13 0-23.565-19.104-42.668-42.668-42.668s-42.666 19.106-42.666 42.67c.005 9.052 2.923 17.863 8.32 25.13l-33.92 41.493c-17.106 20.893-47.13 25.703-69.908 11.2L83.2 183.792c1.405-4.247 2.125-8.69 2.133-13.163.004-23.567-19.095-42.67-42.66-42.677C19.11 127.95.003 147.05 0 170.613c-.004 22.12 16.898 40.577 38.933 42.51L64.15 364.38c.854 5.143 5.302 8.915 10.516 8.917h362.667c5.214-.002 9.662-3.774 10.517-8.917l25.216-151.253c23.47-2.105 40.79-22.838 38.685-46.308-1.97-21.97-20.36-38.815-42.415-38.856z" fill="#FFC107"/><ellipse cx="256" cy="362.629" rx="181.333" ry="53.333" fill="#FFA000"/><path d="M256 426.63c-95.424 0-192-21.974-192-64s96.576-64 192-64 192 21.972 192 64-96.576 64-192 64zm0-106.668c-112.043 0-170.667 27.733-170.667 42.667S143.957 405.293 256 405.293s170.667-27.733 170.667-42.667S368.043 319.96 256 319.96z" fill="#FFD54F"/></svg>