<svg id="Capa_1" enable-background="new 0 0 512 512" height="512" viewBox="0 0 512 512" width="512" xmlns="http://www.w3.org/2000/svg"><g><g><path d="m383.551 74.976c1.018-8.758-1.767-18.379-.594-27.092.475-3.524 1.328-6.783 2.349-9.869 4.674-14.138-2.972-27.162-13.818-33.757-11.083-6.188-26.184-6.423-36.183 4.611-2.182 2.408-4.597 4.757-7.43 6.907-7.003 5.314-16.747 7.632-23.866 12.834-9.371 6.847-16.15 18.419-17.498 30.02-1.018 8.758 1.767 18.379.594 27.092-.475 3.524-1.328 6.783-2.349 9.869-4.75 14.37 2.668 27.264 13.816 33.762 11.147 6.498 26.023 6.599 36.186-4.616 2.182-2.408 4.597-4.757 7.43-6.907 7.003-5.314 16.747-7.632 23.866-12.834 9.428-6.891 16.157-18.492 17.497-30.02z" fill="#e19974"/><path d="m382.952 47.885c-1.173 8.717 1.619 18.337.602 27.095-1.339 11.529-8.073 23.12-17.506 30.011-7.119 5.209-16.863 7.523-23.857 12.837-2.833 2.148-5.251 4.504-7.43 6.911-5.749 6.33-12.992 9.059-20.225 9.059-5.562 0-11.114-1.619-15.96-4.441-3.248-1.889-6.174-4.327-8.582-7.181 1.961.405 3.964.612 5.967.612 7.233 0 14.476-2.729 20.215-9.059 2.19-2.407 4.607-4.763 7.43-6.911 7.005-5.313 16.749-7.627 23.868-12.837 9.433-6.89 16.157-18.492 17.506-30.021 1.017-8.748-1.774-18.378-.602-27.084.477-3.528 1.328-6.787 2.356-9.869 3.3-9.993.446-19.437-5.344-26.431 3.549.685 6.984 1.951 10.097 3.684 10.844 6.59 18.492 19.613 13.822 33.757-1.029 3.082-1.88 6.34-2.357 9.868z" fill="#dc8758"/><path d="m264.551 222.266c.359-8.81-3.139-18.195-2.622-26.971.209-3.55.816-6.864 1.602-10.017 3.601-14.449-4.999-26.863-16.309-32.626-11.516-5.34-26.592-4.443-35.736 7.309-1.996 2.565-4.228 5.088-6.892 7.444-6.585 5.824-16.128 8.866-22.837 14.586-8.832 7.53-14.725 19.577-15.2 31.246-.359 8.81 3.139 18.195 2.622 26.971-.209 3.55-.816 6.864-1.602 10.017-3.66 14.686 4.704 26.987 16.307 32.631 11.603 5.644 26.444 4.63 35.738-7.315 1.996-2.565 4.228-5.088 6.892-7.444 6.585-5.824 16.128-8.866 22.837-14.586 8.887-7.575 14.727-19.648 15.2-31.245z" fill="#e19974"/><path d="m264.548 222.264c-.467 11.602-6.309 23.67-15.192 31.246-6.714 5.728-16.261 8.769-22.84 14.59-2.667 2.356-4.898 4.877-6.89 7.441-5.78 7.43-13.708 10.637-21.668 10.637-4.836 0-9.682-1.183-14.071-3.321-2.823-1.37-5.458-3.144-7.773-5.24 7.835-.093 15.628-3.3 21.325-10.626 1.992-2.574 4.224-5.095 6.89-7.451 6.59-5.821 16.126-8.862 22.84-14.58 8.883-7.586 14.725-19.654 15.192-31.246.363-8.81-3.134-18.202-2.615-26.981.208-3.549.809-6.859 1.598-10.014 2.708-10.875-1.494-20.599-8.561-27.188 4.971-.083 9.973 1.048 14.435 3.123 11.311 5.759 19.914 18.181 16.313 32.626-.789 3.155-1.391 6.465-1.598 10.014-.519 8.778 2.978 18.159 2.615 26.97z" fill="#dc8758"/><g><g><path d="m207.95 208.138c-2.575 0-5.095-1.277-6.577-3.611-2.304-3.628-1.231-8.438 2.397-10.743 4.274-2.714 7.841-6.484 10.316-10.901 2.1-3.75 6.842-5.087 10.594-2.985 3.75 2.101 5.087 6.844 2.985 10.594-3.73 6.658-9.107 12.34-15.55 16.432-1.294.822-2.738 1.214-4.165 1.214z" fill="#d77f4a"/></g></g><path d="m154.628 182.473c-7.172-5.129-16.938-7.348-23.995-12.591-2.854-2.121-5.293-4.445-7.5-6.831-10.111-10.932-25.208-10.543-36.228-4.243-10.779 6.705-18.292 19.806-13.474 33.895 1.051 3.075 1.938 6.325 2.449 9.845 1.262 8.701-1.425 18.349-.318 27.096 1.457 11.514 8.303 23.046 17.803 29.84 7.172 5.129 16.938 7.348 23.996 12.591 2.854 2.121 5.293 4.445 7.5 6.831 10.277 11.111 25.15 10.858 36.231 4.248 11.08-6.611 18.368-19.58 13.471-33.9-1.051-3.075-1.938-6.325-2.449-9.845-1.262-8.701 1.425-18.349.318-27.096-1.468-11.586-8.364-23.088-17.804-29.84z" fill="#fdd79b"/><path d="m176.114 258.345c0 10.564-6.351 19.634-15.026 24.812-2.937 1.754-6.143 3.061-9.454 3.819 3.549-4.68 5.728-10.356 5.728-16.541 0-2.926-.488-5.977-1.557-9.09-1.048-3.082-1.93-6.33-2.449-9.848-1.256-8.696 1.432-18.347.322-27.095-1.463-11.591-8.364-23.089-17.807-29.845-7.171-5.126-16.936-7.347-23.992-12.588-2.854-2.117-5.292-4.441-7.503-6.828-7.399-8.001-17.465-9.941-26.649-7.928 2.501-3.352 5.666-6.226 9.173-8.405 11.021-6.299 26.119-6.683 36.227 4.244 2.21 2.387 4.649 4.711 7.503 6.828 7.056 5.251 16.821 7.461 23.992 12.598 9.443 6.745 16.344 18.253 17.807 29.834 1.11 8.748-1.577 18.399-.322 27.095.519 3.518 1.401 6.776 2.449 9.848 1.07 3.113 1.558 6.164 1.558 9.09z" fill="#fccd7f"/><g><g><path d="m328.75 56.668c-2.78 0-5.469-1.493-6.871-4.116-2.026-3.791-.595-8.506 3.196-10.533 4.466-2.387 8.305-5.878 11.103-10.096 2.376-3.582 7.205-4.561 10.788-2.184 3.582 2.376 4.56 7.206 2.184 10.788-4.218 6.36-10.006 11.623-16.738 15.221-1.168.624-2.424.92-3.662.92z" fill="#d77f4a"/></g><g><path d="m330.91 107.218c-2.034 0-4.065-.792-5.592-2.369-2.99-3.087-2.911-8.015.177-11.005 4.373-4.235 7.576-9.564 9.263-15.412 1.191-4.13 5.503-6.512 9.636-5.32 4.13 1.192 6.512 5.506 5.32 9.636-2.439 8.453-7.07 16.157-13.391 22.278-1.511 1.464-3.463 2.192-5.413 2.192z" fill="#d77f4a"/></g></g><g><g><path d="m105.274 225.592c-.037 0-.076 0-.114-.001-4.298-.061-7.732-3.596-7.67-7.893.072-5.062-1.125-10.112-3.463-14.603-1.985-3.812-.503-8.513 3.31-10.497 3.812-1.984 8.513-.502 10.497 3.31 3.524 6.77 5.329 14.382 5.22 22.013-.061 4.259-3.534 7.671-7.78 7.671z" fill="#fbc56d"/></g></g><path d="m338.155 266.197c4.35-7.669 5.535-17.614 10.01-25.181 1.81-3.061 3.867-5.729 6.009-8.174 9.814-11.199 7.848-26.173.428-36.473-7.796-10.018-21.611-16.119-35.119-9.853-2.948 1.368-6.088 2.59-9.534 3.466-8.521 2.165-18.397.503-26.981 2.519-11.299 2.654-22.051 10.669-27.813 20.828-4.35 7.669-5.535 17.614-10.01 25.181-1.81 3.061-3.867 5.729-6.009 8.174-9.975 11.383-8.167 26.149-.433 36.476 7.734 10.328 21.394 16.218 35.124 9.85 2.948-1.368 6.088-2.59 9.534-3.466 8.521-2.165 18.397-.503 26.981-2.519 11.369-2.671 22.087-10.733 27.813-20.828z" fill="#fdd79b"/><g><g><path d="m297.839 228.594c-3.981 0-7.375-3.038-7.742-7.08-.389-4.281 2.766-8.066 7.047-8.455 5.043-.458 9.939-2.177 14.16-4.972 3.585-2.373 8.413-1.391 10.786 2.192 2.373 3.584 1.391 8.413-2.192 10.786-6.363 4.213-13.745 6.805-21.346 7.495-.239.023-.477.034-.713.034z" fill="#fbc56d"/></g></g><path d="m418.566 192.261c-7.172-5.129-16.938-7.348-23.996-12.591-2.854-2.121-5.293-4.445-7.5-6.831-10.111-10.932-25.208-10.543-36.228-4.243-10.779 6.705-18.292 19.806-13.474 33.895 1.052 3.075 1.938 6.325 2.449 9.845 1.262 8.701-1.425 18.349-.318 27.096 1.457 11.514 8.303 23.046 17.803 29.84 7.172 5.129 16.938 7.348 23.996 12.591 2.854 2.121 5.293 4.445 7.5 6.831 10.277 11.111 25.15 10.858 36.231 4.248 11.081-6.611 18.368-19.58 13.471-33.9-1.051-3.075-1.938-6.325-2.449-9.845-1.262-8.701 1.425-18.349.318-27.096-1.466-11.587-8.362-23.089-17.803-29.84z" fill="#e19974"/><path d="m440.058 268.131c0 10.564-6.351 19.634-15.026 24.812-2.926 1.743-6.122 3.051-9.422 3.808 3.528-4.67 5.697-10.336 5.697-16.5 0-2.937-.498-5.977-1.557-9.09-1.048-3.072-1.941-6.32-2.449-9.848-1.266-8.696 1.422-18.347.311-27.095-1.463-11.581-8.354-23.089-17.797-29.834-7.171-5.126-16.936-7.347-23.992-12.598-2.854-2.117-5.292-4.441-7.503-6.828-7.399-8.001-17.486-9.941-26.68-7.928 2.501-3.373 5.676-6.247 9.205-8.437 11.021-6.299 26.119-6.683 36.227 4.244 2.21 2.387 4.649 4.711 7.503 6.828 7.056 5.251 16.821 7.461 23.992 12.598 9.443 6.745 16.334 18.253 17.807 29.834 1.1 8.748-1.588 18.399-.322 27.095.509 3.528 1.401 6.776 2.449 9.848 1.069 3.114 1.557 6.165 1.557 9.091z" fill="#dc8758"/><g><g><path d="m369.213 235.379c-.037 0-.075-.001-.113-.001-4.298-.061-7.732-3.595-7.671-7.893.072-5.063-1.125-10.113-3.463-14.604-1.985-3.812-.503-8.513 3.31-10.497 3.813-1.983 8.513-.502 10.497 3.31 3.524 6.768 5.328 14.381 5.22 22.013-.061 4.26-3.534 7.672-7.78 7.672z" fill="#d77f4a"/></g></g></g><path d="m467.114 264.388c.273-6.192-4.657-11.362-10.854-11.362h-200.26-200.259c-6.198 0-11.127 5.17-10.854 11.362.403 9.15 1.65 23.202 5.231 39.827 1.434 6.659 10.447 14.518 12.726 21.852 2.279 7.335-2.175 14.146 1.141 21.857 15.544 36.154 43.532 74.805 93.839 100.54 6.641 3.398 13.427 6.405 20.313 9.069-3.939 3.545-18.412 17.715-23.673 38.872-1.975 7.939 4.156 15.595 12.336 15.595h178.4c8.18 0 14.311-7.656 12.337-15.594-5.262-21.157-19.734-35.327-23.673-38.872 6.886-2.664 13.672-5.672 20.313-9.069 50.307-25.735 78.295-64.386 93.839-100.54 2.792-6.494-2.179-15.613-.133-21.857 2.814-8.584 12.339-14.143 13.999-21.852 3.582-16.626 4.828-30.678 5.232-39.828z" fill="#8ac9fe"/><path d="m354.179 448.466c-6.641 3.393-13.428 6.403-20.319 9.07 3.943 3.539 18.42 17.714 23.681 38.873 1.972 7.939-4.161 15.587-12.338 15.587h-21.823c8.177 0 14.31-7.648 12.339-15.587-2.563-10.309-10.534-19.695-18.491-27.019-7.914-7.285-6.094-20.21 3.482-25.107.067-.034.132-.072.2-.102 102.904-46.385 122.897-146.132 124.381-179.795.28-6.185-4.649-11.363-10.855-11.363h21.823c6.195 0 11.124 5.178 10.855 11.363-.403 9.151-1.65 23.204-5.232 39.829-1.691 7.852-11.108 13.098-13.998 21.853-2.012 6.094 2.853 15.527.131 21.857-15.545 36.152-43.533 74.804-93.836 100.541z" fill="#60b7ff"/><path d="m461.873 304.212c-2.864 13.314-7.223 28.288-13.864 43.709h-384.018c-6.641-15.421-11-30.395-13.864-43.709z" fill="#fef1da"/><path d="m461.873 304.212c-2.864 13.314-7.223 28.288-13.864 43.709h-26.068c7.773-15.338 13.117-30.333 16.707-43.709z" fill="#fae2c0"/></g></svg>