<svg height="512" viewBox="0 0 512 512" width="512" xmlns="http://www.w3.org/2000/svg"><path d="M383.55 74.976c1.02-8.758-1.766-18.38-.593-27.092.475-3.524 1.328-6.783 2.35-9.87 4.673-14.137-2.973-27.16-13.82-33.756-11.082-6.188-26.183-6.423-36.182 4.61-2.182 2.41-4.597 4.758-7.43 6.908-7.003 5.314-16.747 7.632-23.866 12.834-9.38 6.847-16.15 18.42-17.5 30.02-1.02 8.758 1.76 18.38.59 27.092-.48 3.524-1.33 6.783-2.35 9.87-4.75 14.37 2.67 27.263 13.813 33.76 11.147 6.5 26.023 6.6 36.186-4.615 2.182-2.408 4.597-4.757 7.43-6.907 7.003-5.314 16.747-7.632 23.866-12.834 9.427-6.89 16.156-18.492 17.496-30.02z" fill="#e19974"/><path d="M382.952 47.885c-1.173 8.717 1.62 18.337.602 27.095-1.34 11.53-8.073 23.12-17.506 30.01-7.12 5.21-16.863 7.524-23.857 12.838-2.83 2.148-5.25 4.504-7.43 6.91-5.74 6.33-12.99 9.06-20.22 9.06-5.56 0-11.11-1.62-15.96-4.44-3.25-1.89-6.17-4.328-8.58-7.182 1.96.405 3.967.612 5.97.612 7.234 0 14.477-2.73 20.216-9.06 2.19-2.406 4.607-4.762 7.43-6.91 7.005-5.313 16.75-7.627 23.868-12.837 9.434-6.89 16.158-18.49 17.507-30.02 1.017-8.74-1.774-18.37-.602-27.08.48-3.53 1.33-6.782 2.358-9.87 3.3-9.99.446-19.43-5.344-26.43 3.55.69 6.985 1.95 10.098 3.69 10.844 6.59 18.49 19.613 13.82 33.757-1.03 3.083-1.88 6.34-2.356 9.87z" fill="#dc8758"/><path d="M264.55 222.266c.36-8.81-3.138-18.195-2.62-26.97.208-3.55.815-6.865 1.6-10.018 3.602-14.45-4.998-26.863-16.308-32.626-11.516-5.34-26.592-4.443-35.736 7.31-1.996 2.564-4.228 5.087-6.892 7.443-6.585 5.824-16.128 8.866-22.837 14.586-8.832 7.53-14.725 19.58-15.2 31.25-.36 8.81 3.14 18.2 2.622 26.97-.21 3.55-.82 6.87-1.61 10.02-3.66 14.69 4.702 26.99 16.305 32.63 11.603 5.65 26.444 4.63 35.74-7.31 1.995-2.564 4.23-5.087 6.89-7.443 6.586-5.824 16.13-8.866 22.838-14.586 8.886-7.574 14.726-19.647 15.2-31.244z" fill="#e19974"/><path d="M264.548 222.264c-.467 11.602-6.31 23.67-15.192 31.246-6.714 5.728-16.26 8.77-22.84 14.59-2.667 2.356-4.898 4.877-6.89 7.44-5.78 7.43-13.708 10.638-21.668 10.638-4.836 0-9.682-1.183-14.07-3.32-2.824-1.37-5.46-3.145-7.774-5.24 7.835-.094 15.628-3.3 21.325-10.627 1.99-2.57 4.22-5.09 6.89-7.45 6.59-5.82 16.12-8.86 22.84-14.58 8.88-7.58 14.72-19.65 15.19-31.24.36-8.81-3.14-18.2-2.62-26.98.21-3.55.81-6.86 1.6-10.012 2.71-10.875-1.498-20.6-8.56-27.19 4.97-.08 9.97 1.05 14.43 3.125 11.31 5.76 19.914 18.18 16.313 32.626-.79 3.155-1.39 6.465-1.598 10.014-.52 8.778 2.977 18.16 2.614 26.97z" fill="#dc8758"/><path d="M207.95 208.138c-2.575 0-5.095-1.277-6.577-3.61-2.304-3.63-1.23-8.44 2.397-10.744 4.274-2.714 7.84-6.484 10.316-10.9 2.1-3.75 6.842-5.088 10.594-2.986 3.75 2.1 5.087 6.844 2.985 10.594-3.73 6.658-9.107 12.34-15.55 16.432-1.294.822-2.738 1.214-4.165 1.214z" fill="#d77f4a"/><path d="M154.628 182.473c-7.172-5.13-16.938-7.348-23.995-12.59-2.854-2.122-5.293-4.446-7.5-6.832-10.11-10.93-25.208-10.54-36.228-4.24-10.78 6.71-18.292 19.81-13.474 33.9 1.06 3.077 1.94 6.327 2.45 9.847 1.27 8.7-1.42 18.35-.31 27.096 1.458 11.514 8.304 23.046 17.804 29.84 7.17 5.13 16.938 7.348 23.996 12.59 2.854 2.12 5.293 4.446 7.5 6.83 10.277 11.11 25.15 10.86 36.23 4.25 11.08-6.61 18.37-19.58 13.47-33.9-1.05-3.075-1.936-6.325-2.447-9.845-1.264-8.7 1.423-18.35.316-27.096-1.47-11.586-8.366-23.09-17.806-29.84z" fill="#fdd79b"/><path d="M176.114 258.345c0 10.564-6.35 19.634-15.026 24.812-2.937 1.754-6.143 3.06-9.454 3.82 3.55-4.68 5.728-10.357 5.728-16.542 0-2.926-.488-5.977-1.557-9.09-1.048-3.082-1.93-6.33-2.45-9.848-1.255-8.696 1.433-18.347.323-27.095-1.463-11.59-8.364-23.09-17.807-29.845-7.17-5.126-16.93-7.347-23.99-12.588-2.85-2.12-5.29-4.45-7.5-6.83-7.4-8-17.46-9.94-26.65-7.93 2.5-3.35 5.67-6.23 9.18-8.41 11.02-6.3 26.12-6.684 36.227 4.243 2.21 2.387 4.65 4.71 7.504 6.83 7.057 5.25 16.82 7.46 23.993 12.596 9.443 6.745 16.344 18.253 17.807 29.834 1.11 8.75-1.58 18.4-.325 27.097.52 3.52 1.4 6.777 2.45 9.85 1.07 3.113 1.558 6.164 1.558 9.09z" fill="#fccd7f"/><path d="M328.75 56.668c-2.78 0-5.47-1.493-6.87-4.116-2.027-3.79-.596-8.506 3.195-10.533 4.466-2.39 8.305-5.88 11.103-10.1 2.376-3.58 7.205-4.56 10.788-2.19 3.582 2.375 4.56 7.205 2.184 10.787-4.218 6.36-10.006 11.623-16.738 15.22-1.168.625-2.424.92-3.662.92zm2.16 50.55c-2.034 0-4.065-.792-5.592-2.37-2.99-3.086-2.91-8.014.177-11.004 4.373-4.235 7.576-9.564 9.263-15.412 1.19-4.13 5.503-6.512 9.636-5.32 4.13 1.192 6.512 5.506 5.32 9.636-2.44 8.453-7.07 16.157-13.39 22.278-1.512 1.464-3.464 2.192-5.414 2.192z" fill="#d77f4a"/><path d="M105.274 225.592h-.114c-4.298-.062-7.732-3.597-7.67-7.894.072-5.062-1.125-10.112-3.463-14.603-1.985-3.812-.503-8.513 3.31-10.497 3.812-1.984 8.513-.502 10.497 3.31 3.524 6.77 5.33 14.382 5.22 22.013-.06 4.26-3.534 7.68-7.78 7.68z" fill="#fbc56d"/><path d="M338.155 266.197c4.35-7.67 5.535-17.614 10.01-25.18 1.81-3.062 3.867-5.73 6.01-8.175 9.813-11.2 7.847-26.173.427-36.473-7.796-10.02-21.61-16.12-35.12-9.86-2.947 1.37-6.087 2.59-9.533 3.463-8.53 2.165-18.4.503-26.99 2.52-11.3 2.653-22.05 10.67-27.814 20.827-4.35 7.67-5.535 17.614-10.01 25.18-1.81 3.06-3.867 5.73-6.01 8.175-9.974 11.383-8.166 26.15-.43 36.476 7.733 10.33 21.393 16.22 35.123 9.85 2.95-1.366 6.09-2.59 9.534-3.464 8.52-2.164 18.396-.502 26.98-2.52 11.37-2.67 22.087-10.73 27.813-20.826z" fill="#fdd79b"/><path d="M297.84 228.594c-3.982 0-7.376-3.038-7.743-7.08-.39-4.28 2.766-8.066 7.047-8.455 5.043-.46 9.94-2.18 14.16-4.98 3.585-2.375 8.413-1.39 10.786 2.19 2.373 3.583 1.39 8.412-2.192 10.785-6.363 4.213-13.745 6.805-21.346 7.495-.24.024-.477.035-.713.035z" fill="#fbc56d"/><path d="M418.566 192.26c-7.172-5.128-16.938-7.347-23.996-12.59-2.854-2.12-5.293-4.445-7.5-6.83-10.11-10.933-25.208-10.544-36.228-4.244-10.78 6.705-18.292 19.806-13.474 33.895 1.052 3.08 1.938 6.33 2.45 9.85 1.26 8.7-1.426 18.35-.32 27.1 1.458 11.515 8.304 23.047 17.804 29.84 7.172 5.13 16.938 7.35 23.996 12.59 2.854 2.12 5.293 4.447 7.5 6.83 10.277 11.11 25.15 10.86 36.23 4.25 11.082-6.61 18.37-19.58 13.472-33.9-1.05-3.075-1.938-6.325-2.45-9.845-1.26-8.7 1.426-18.35.32-27.096-1.467-11.587-8.363-23.09-17.804-29.84z" fill="#e19974"/><path d="M440.058 268.13c0 10.565-6.35 19.635-15.026 24.813-2.926 1.743-6.122 3.05-9.422 3.808 3.528-4.67 5.697-10.33 5.697-16.5 0-2.93-.498-5.97-1.557-9.09-1.048-3.07-1.94-6.32-2.45-9.84-1.265-8.694 1.423-18.345.312-27.093-1.463-11.58-8.354-23.09-17.797-29.834-7.17-5.126-16.936-7.347-23.992-12.6-2.854-2.115-5.292-4.44-7.503-6.826-7.4-8-17.486-9.94-26.68-7.93 2.5-3.373 5.676-6.247 9.205-8.437 11.02-6.3 26.12-6.684 36.227 4.243 2.21 2.387 4.65 4.71 7.503 6.828 7.056 5.25 16.82 7.46 23.992 12.6 9.443 6.745 16.334 18.253 17.807 29.834 1.1 8.745-1.588 18.4-.322 27.092.51 3.528 1.4 6.776 2.45 9.848 1.068 3.116 1.556 6.167 1.556 9.09z" fill="#dc8758"/><path d="M369.213 235.38l-.113-.002c-4.298-.06-7.732-3.595-7.67-7.893.07-5.063-1.126-10.113-3.464-14.604-1.985-3.81-.503-8.51 3.31-10.49 3.813-1.98 8.513-.5 10.497 3.31 3.524 6.77 5.328 14.38 5.22 22.016-.06 4.26-3.534 7.67-7.78 7.67z" fill="#d77f4a"/><path d="M467.114 264.388c.273-6.192-4.657-11.362-10.854-11.362H55.74c-6.197 0-11.126 5.17-10.853 11.362.403 9.15 1.65 23.202 5.23 39.827 1.435 6.66 10.448 14.518 12.727 21.852 2.28 7.335-2.175 14.146 1.14 21.857 15.545 36.154 43.533 74.805 93.84 100.54 6.64 3.398 13.427 6.405 20.313 9.07-3.94 3.544-18.412 17.714-23.673 38.87C152.49 504.344 158.62 512 166.8 512h178.4c8.18 0 14.31-7.656 12.337-15.594-5.262-21.157-19.734-35.327-23.673-38.872 6.886-2.664 13.672-5.672 20.313-9.07 50.307-25.734 78.295-64.385 93.84-100.54 2.79-6.493-2.18-15.612-.134-21.856 2.814-8.584 12.34-14.143 14-21.852 3.58-16.626 4.827-30.678 5.23-39.828z" fill="#8ac9fe"/><path d="M354.18 448.466c-6.642 3.393-13.43 6.403-20.32 9.07 3.943 3.54 18.42 17.714 23.68 38.873 1.973 7.93-4.16 15.58-12.337 15.58H323.38c8.177 0 14.31-7.65 12.34-15.59-2.564-10.31-10.535-19.696-18.492-27.02-7.914-7.285-6.094-20.21 3.482-25.107.067-.034.132-.07.2-.1 102.904-46.386 122.897-146.13 124.38-179.796.28-6.185-4.648-11.363-10.854-11.363h21.823c6.19 0 11.12 5.18 10.85 11.363-.408 9.15-1.65 23.206-5.23 39.83-1.69 7.85-11.11 13.1-14 21.854-2.01 6.095 2.85 15.528.13 21.858-15.548 36.153-43.53 74.805-93.84 100.54z" fill="#60b7ff"/><path d="M461.873 304.212c-2.864 13.314-7.223 28.288-13.864 43.71H63.99c-6.64-15.422-11-30.396-13.863-43.71z" fill="#fef1da"/><path d="M461.873 304.212c-2.864 13.314-7.223 28.288-13.864 43.71h-26.07c7.77-15.34 13.11-30.334 16.7-43.71z" fill="#fae2c0"/></svg>