<?xml version="1.0" encoding="utf-8"?>
<!-- Generator: Adobe Illustrator 21.0.0, SVG Export Plug-In . SVG Version: 6.00 Build 0)  -->
<svg version="1.1" id="图层_1" xmlns="http://www.w3.org/2000/svg" xmlns:xlink="http://www.w3.org/1999/xlink" x="0px" y="0px"
	 viewBox="0 0 460.2 85.1" style="enable-background:new 0 0 460.2 85.1;" xml:space="preserve">
<style type="text/css">
	.st0{fill:#FFFFFF;}
	.st1{fill:#FF7D41;}
</style>
<g>
	<g>
		<g>
			<rect x="267.8" y="31.4" class="st0" width="7.8" height="40.8"/>
			<path class="st0" d="M209.9,72.2v-58h19.9c18.1,0,27.8,12.8,27.8,29c0,16.5-10.1,29-27.9,29H209.9z M228.3,65.3
				c14,0,21.5-7.3,21.5-22.1c0-15.1-8-22.1-21.2-22.1h-10.9v44.2H228.3z"/>
			<path class="st0" d="M266.7,17.8c0-2.8,2.2-5,5-5s5,2.2,5,5s-2.2,5-5,5C268.9,22.8,266.7,20.5,266.7,17.8z"/>
			<rect x="188.6" y="31.4" class="st0" width="7.8" height="40.8"/>
			<path class="st0" d="M130.4,72.2v-58h19.9c18.1,0,27.8,12.8,27.8,29c0,16.5-10.1,29-27.9,29H130.4z M148.8,65.3
				c14,0,21.5-7.3,21.5-22.1c0-15.1-8-22.1-21.2-22.1h-10.9v44.2H148.8z"/>
			<path class="st0" d="M187.5,17.8c0-2.8,2.2-5,5-5s5,2.2,5,5s-2.2,5-5,5C189.8,22.8,187.5,20.5,187.5,17.8z"/>
		</g>
		<g>
			<path class="st0" d="M352.5,30.2c-13.1,0-20.3,7.5-20.3,21c0,13.6,7.2,21,20.3,21s20.3-7.5,20.3-21
				C372.7,37.6,365.5,30.2,352.5,30.2z M352.5,67.4c-10.4,0-15.5-5.3-15.5-16.3s5.1-16.3,15.5-16.3S368,40.1,368,51.1
				S362.9,67.4,352.5,67.4z"/>
			<path class="st0" d="M397.1,30.2c-13.1,0-20.3,7.5-20.3,21c0,13.6,7.2,21,20.3,21s20.3-7.5,20.3-21
				C417.3,37.6,410.1,30.2,397.1,30.2z M397.1,67.4c-10.4,0-15.5-5.3-15.5-16.3s5.1-16.3,15.5-16.3s15.5,5.3,15.5,16.3
				S407.5,67.4,397.1,67.4z"/>
			<polygon class="st0" points="302.8,17.5 333.2,17.5 333.2,13 297.9,13 297.9,72.2 302.8,72.2 302.8,45.9 328,45.9 328,41.3 
				302.8,41.3 			"/>
			<path class="st0" d="M455.6,13.8v22.3c-3.3-3.9-8.3-6-14.9-6c-12.5,0-19.4,7.5-19.4,21.1s6.9,21.1,19.4,21.1
				c6.5,0,11.5-2.1,14.8-5.9l0.4,5.2h4.3V12.8L455.6,13.8z M440.8,67.4c-9.8,0-14.6-5.3-14.6-16.3s4.8-16.3,14.6-16.3
				s14.6,5.3,14.6,16.3S450.6,67.4,440.8,67.4z"/>
		</g>
	</g>
	<path class="st1" d="M52.8,66.3C70.7,65.7,85,51.5,85.2,33.7V18.5h19.7v16.9c-0.4,27.4-24.2,49.1-52.1,49.7l0,0
		C24.4,84.9,0.4,63.1,0,35.4V5.1C0,2,2,0,5,0h80.1v18.5H22.3c-1.6,0-2.6,1-2.6,2.6v12.3C19.9,51.4,34.4,66.1,52.8,66.3L52.8,66.3z"
		/>
</g>
</svg>
