<svg id="图层_1" xmlns="http://www.w3.org/2000/svg" viewBox="0 0 460.2 85.1"><style>.st0{fill:#FFFFFF;} .st1{fill:#FF7D41;}</style><path class="st0" d="M267.8 31.4h7.8v40.8h-7.8zm-57.9 40.8v-58h19.9c18.1 0 27.8 12.8 27.8 29 0 16.5-10.1 29-27.9 29h-19.8zm18.4-6.9c14 0 21.5-7.3 21.5-22.1 0-15.1-8-22.1-21.2-22.1h-10.9v44.2h10.6zm38.4-47.5c0-2.8 2.2-5 5-5s5 2.2 5 5-2.2 5-5 5-5-2.3-5-5zm-78.1 13.6h7.8v40.8h-7.8zm-58.2 40.8v-58h19.9c18.1 0 27.8 12.8 27.8 29 0 16.5-10.1 29-27.9 29h-19.8zm18.4-6.9c14 0 21.5-7.3 21.5-22.1 0-15.1-8-22.1-21.2-22.1h-10.9v44.2h10.6zm38.7-47.5c0-2.8 2.2-5 5-5s5 2.2 5 5-2.2 5-5 5c-2.7 0-5-2.3-5-5zm165 12.4c-13.1 0-20.3 7.5-20.3 21 0 13.6 7.2 21 20.3 21s20.3-7.5 20.3-21c-.1-13.6-7.3-21-20.3-21zm0 37.2c-10.4 0-15.5-5.3-15.5-16.3s5.1-16.3 15.5-16.3S368 40.1 368 51.1s-5.1 16.3-15.5 16.3zm44.6-37.2c-13.1 0-20.3 7.5-20.3 21 0 13.6 7.2 21 20.3 21s20.3-7.5 20.3-21c-.1-13.6-7.3-21-20.3-21zm0 37.2c-10.4 0-15.5-5.3-15.5-16.3s5.1-16.3 15.5-16.3 15.5 5.3 15.5 16.3-5.1 16.3-15.5 16.3zm-94.3-49.9h30.4V13h-35.3v59.2h4.9V45.9H328v-4.6h-25.2zm152.8-3.7v22.3c-3.3-3.9-8.3-6-14.9-6-12.5 0-19.4 7.5-19.4 21.1s6.9 21.1 19.4 21.1c6.5 0 11.5-2.1 14.8-5.9l.4 5.2h4.3V12.8l-4.6 1zm-14.8 53.6c-9.8 0-14.6-5.3-14.6-16.3s4.8-16.3 14.6-16.3 14.6 5.3 14.6 16.3-4.8 16.3-14.6 16.3z"/><path class="st1" d="M52.8 66.3c17.9-.6 32.2-14.8 32.4-32.6V18.5h19.7v16.9c-.4 27.4-24.2 49.1-52.1 49.7C24.4 84.9.4 63.1 0 35.4V5.1C0 2 2 0 5 0h80.1v18.5H22.3c-1.6 0-2.6 1-2.6 2.6v12.3c.2 18 14.7 32.7 33.1 32.9z"/></svg>