<?xml version="1.0" encoding="UTF-8"?>
<svg id="Layer_2" data-name="Layer 2" xmlns="http://www.w3.org/2000/svg" viewBox="0 0 154 28.01">
  <defs>
    <style>
      .cls-1 {
        fill: #ec1c24;
      }

      .cls-2 {
        fill: #fff;
      }

      .cls-3 {
        stroke: #fff;
        stroke-width: .25px;
      }

      .cls-3, .cls-4 {
        fill: none;
        stroke-miterlimit: 10;
      }

      .cls-4 {
        stroke: #3b2314;
        stroke-width: 1px;
      }
    </style>
  </defs>
  <g id="Layer_1-2" data-name="Layer 1">
    <g>
      <path class="cls-1" d="M139.15,.74v7.8s6.93-.87,6.93,2.14c0,2.11,1.14,3.02,3.03,3.32-1.89,.29-3.03,1.2-3.03,3.32,0,3.01-6.93,2.15-6.93,2.15v7.8H14.85v-7.8s-6.93,.87-6.93-2.15c0-2.11-1.14-3.02-3.03-3.32,1.89-.29,3.03-1.2,3.03-3.32,0-3.01,6.93-2.14,6.93-2.14V.74h124.3Z"/>
      <path class="cls-4" d="M139.15,.74v7.8s6.93-.87,6.93,2.14c0,2.11,1.14,3.02,3.03,3.32-1.89,.29-3.03,1.2-3.03,3.32,0,3.01-6.93,2.15-6.93,2.15v7.8H14.85v-7.8s-6.93,.87-6.93-2.15c0-2.11-1.14-3.02-3.03-3.32,1.89-.29,3.03-1.2,3.03-3.32,0-3.01,6.93-2.14,6.93-2.14V.74h124.3Z"/>
      <path class="cls-1" d="M139.66,27.51H14.34v-7.75c-1.13,.09-3.5,.18-5.17-.43-1.17-.43-1.76-1.1-1.76-2.01,0-2.39-1.53-2.91-2.68-3.09l-1.48-.23,1.48-.23c1.15-.18,2.68-.69,2.68-3.09,0-.91,.59-1.58,1.76-2.01,1.67-.61,4.04-.52,5.17-.43V.5h125.32v7.75c1.13-.09,3.5-.18,5.17,.43,1.17,.43,1.76,1.1,1.76,2.01,0,2.39,1.53,2.91,2.68,3.09l1.48,.23-1.48,.23c-1.15,.18-2.68,.69-2.68,3.09,0,.91-.59,1.58-1.76,2.01-1.67,.61-4.04,.52-5.17,.43v7.75Zm-124.3-.48h123.28v-7.87l.64,.08s3.11,.38,4.93-.29c.9-.33,1.36-.88,1.36-1.62,0-1.73,.76-2.81,2.37-3.32-1.61-.51-2.37-1.58-2.37-3.32,0-.75-.46-1.3-1.36-1.63-1.82-.67-4.9-.29-4.93-.29l-.64,.08V.98H15.36v7.87l-.64-.08s-3.12-.38-4.93,.29c-.9,.33-1.36,.88-1.36,1.62,0,1.73-.76,2.81-2.37,3.32,1.61,.51,2.37,1.58,2.37,3.32,0,.75,.46,1.29,1.36,1.63,1.82,.66,4.9,.29,4.93,.29l.64-.08v7.88Z"/>
      <path class="cls-4" d="M139.66,27.51H14.34v-7.75c-1.13,.09-3.5,.18-5.17-.43-1.17-.43-1.76-1.1-1.76-2.01,0-2.39-1.53-2.91-2.68-3.09l-1.48-.23,1.48-.23c1.15-.18,2.68-.69,2.68-3.09,0-.91,.59-1.58,1.76-2.01,1.67-.61,4.04-.52,5.17-.43V.5h125.32v7.75c1.13-.09,3.5-.18,5.17,.43,1.17,.43,1.76,1.1,1.76,2.01,0,2.39,1.53,2.91,2.68,3.09l1.48,.23-1.48,.23c-1.15,.18-2.68,.69-2.68,3.09,0,.91-.59,1.58-1.76,2.01-1.67,.61-4.04,.52-5.17,.43v7.75Zm-124.3-.48h123.28v-7.87l.64,.08s3.11,.38,4.93-.29c.9-.33,1.36-.88,1.36-1.62,0-1.73,.76-2.81,2.37-3.32-1.61-.51-2.37-1.58-2.37-3.32,0-.75-.46-1.3-1.36-1.63-1.82-.67-4.9-.29-4.93-.29l-.64,.08V.98H15.36v7.87l-.64-.08s-3.12-.38-4.93,.29c-.9,.33-1.36,.88-1.36,1.62,0,1.73-.76,2.81-2.37,3.32,1.61,.51,2.37,1.58,2.37,3.32,0,.75,.46,1.29,1.36,1.63,1.82,.66,4.9,.29,4.93,.29l.64-.08v7.88Z"/>
      <path class="cls-1" d="M17.32,26.1v-8.15l-3.1,.39s-.66,.08-1.47,.08c-.76,0-1.37-.07-1.74-.19-.42-.14-.63-.45-.63-.9,0-.64,0-2.19-1.62-3.32,1.62-1.13,1.62-2.68,1.62-3.32,0-.72,.37-1.09,2.37-1.09,.81,0,1.47,.08,1.48,.08l3.07,.37,.02-1.5V1.91h119.36V10.06l3.1-.39s.66-.08,1.47-.08c2,0,2.36,.37,2.36,1.09,0,.64,0,2.19,1.62,3.32-1.62,1.13-1.62,2.68-1.62,3.32,0,.73-.37,1.09-2.36,1.09-.81,0-1.48-.08-1.48-.08l-3.07-.37v1.5s-.01,6.63-.01,6.63H17.32Z"/>
      <path class="cls-4" d="M17.32,26.1v-8.15l-3.1,.39s-.66,.08-1.47,.08c-.76,0-1.37-.07-1.74-.19-.42-.14-.63-.45-.63-.9,0-.64,0-2.19-1.62-3.32,1.62-1.13,1.62-2.68,1.62-3.32,0-.72,.37-1.09,2.37-1.09,.81,0,1.47,.08,1.48,.08l3.07,.37,.02-1.5V1.91h119.36V10.06l3.1-.39s.66-.08,1.47-.08c2,0,2.36,.37,2.36,1.09,0,.64,0,2.19,1.62,3.32-1.62,1.13-1.62,2.68-1.62,3.32,0,.73-.37,1.09-2.36,1.09-.81,0-1.48-.08-1.48-.08l-3.07-.37v1.5s-.01,6.63-.01,6.63H17.32Z"/>
      <path class="cls-1" d="M136.9,26.21H17.1v-8.12l-2.82,.35c-.13,.01-.76,.08-1.53,.08s-1.46-.08-1.86-.21c-.48-.16-.72-.5-.72-.98,0-.65,0-2.16-1.58-3.26l-.08-.06,.08-.06c1.58-1.1,1.58-2.61,1.58-3.26,0-.76,.42-1.2,2.58-1.2,.85,0,1.53,.08,1.54,.08l2.79,.33v-1.36s.01-6.74,.01-6.74h119.8V9.93l2.82-.35c.08,0,.73-.08,1.52-.08,2.16,0,2.58,.44,2.58,1.2,0,.65,0,2.16,1.58,3.26l.09,.06-.09,.06c-1.58,1.1-1.58,2.61-1.58,3.26,0,.76-.42,1.2-2.58,1.2-.84,0-1.51-.08-1.54-.08l-2.79-.33-.02,1.36v6.74Zm-119.36-.21h118.92l.02-8.16,3.34,.4s.65,.08,1.43,.08c1.83,0,2.15-.3,2.15-.99s0-2.17,1.57-3.32c-1.57-1.15-1.57-2.66-1.57-3.32s-.31-.99-2.15-.99c-.74,0-1.35,.07-1.42,.07l-3.37,.42V2.01H17.54l-.02,8.16-3.34-.4s-.65-.08-1.43-.08c-1.83,0-2.14,.3-2.14,.99s0,2.17-1.57,3.32c1.57,1.15,1.57,2.66,1.57,3.32,0,.41,.19,.7,.54,.82,.32,.11,.91,.17,1.61,.17s1.35-.07,1.42-.07l3.37-.42v8.18Z"/>
      <path class="cls-4" d="M136.9,26.21H17.1v-8.12l-2.82,.35c-.13,.01-.76,.08-1.53,.08s-1.46-.08-1.86-.21c-.48-.16-.72-.5-.72-.98,0-.65,0-2.16-1.58-3.26l-.08-.06,.08-.06c1.58-1.1,1.58-2.61,1.58-3.26,0-.76,.42-1.2,2.58-1.2,.85,0,1.53,.08,1.54,.08l2.79,.33v-1.36s.01-6.74,.01-6.74h119.8V9.93l2.82-.35c.08,0,.73-.08,1.52-.08,2.16,0,2.58,.44,2.58,1.2,0,.65,0,2.16,1.58,3.26l.09,.06-.09,.06c-1.58,1.1-1.58,2.61-1.58,3.26,0,.76-.42,1.2-2.58,1.2-.84,0-1.51-.08-1.54-.08l-2.79-.33-.02,1.36v6.74Zm-119.36-.21h118.92l.02-8.16,3.34,.4s.65,.08,1.43,.08c1.83,0,2.15-.3,2.15-.99s0-2.17,1.57-3.32c-1.57-1.15-1.57-2.66-1.57-3.32s-.31-.99-2.15-.99c-.74,0-1.35,.07-1.42,.07l-3.37,.42V2.01H17.54l-.02,8.16-3.34-.4s-.65-.08-1.43-.08c-1.83,0-2.14,.3-2.14,.99s0,2.17-1.57,3.32c1.57,1.15,1.57,2.66,1.57,3.32,0,.41,.19,.7,.54,.82,.32,.11,.91,.17,1.61,.17s1.35-.07,1.42-.07l3.37-.42v8.18Z"/>
      <path class="cls-2" d="M112.6,12.23c0-.25-.06-.38-.16-.38-.07,0-.17,.05-.31,.15-.63,.51-1.18,1.4-1.66,2.67,.13,.02,.35,.04,.67,.06,.52,.02,.91-.1,1.16-.36,.19-.19,.3-.51,.32-.95-.01,.33-.02-.07-.02-1.2m1.13,4.26c-1.57,2-2.66,3-3.3,3-.3,0-.68-.21-1.15-.63-.48-.23-.72-.53-.72-.91,0-.07,0-.14,.02-.22,.12-.88,.35-1.86,.71-2.93-.24-.12-.36-.24-.36-.35,0-.09,.07-.13,.2-.13,.11,0,.21,.03,.32,.09,.57-1.28,1.08-2.19,1.54-2.73,.3-.36,.56-.54,.8-.54,.11,0,.38,.09,.81,.28-.03-.19,.02-.31,.16-.34h.45c.28,0,.42,.05,.42,.14,0,.02,0,.07-.03,.16-.02,.09-.03,.17-.03,.25,0,.23,0,.52,.01,.86,0,.34,0,.57,0,.68,0,.8-.22,1.35-.65,1.67-.4,.29-.85,.43-1.35,.43-.26,0-.7-.07-1.31-.21-.11,.2-.23,.59-.37,1.16-.18,.73-.26,1.38-.25,1.94,0,.33,.11,.5,.32,.5,.08,0,.17-.02,.3-.06,.74-.26,1.78-1.06,3.11-2.4,.09-.08,.17-.12,.25-.12,.12,0,.18,.06,.18,.17,0,.07-.03,.14-.1,.22Zm-4.2-9.57c.18,.1,.27,.2,.27,.32,0,.08-.06,.13-.18,.13-.02,0-.07,0-.12,0-.06,0-.1-.01-.12-.01-.24,0-.54,.27-.88,.8-.31,.48-.73,1.51-1.28,3.1-.05,.14-.07,.23-.06,.25,.02,.04,.1,.07,.25,.08,.38,.03,.88,.02,1.52-.04,.22-.02,.33,.08,.33,.28,0,.14-.08,.23-.25,.26-.13,.02-.84,.08-2.13,.17-.77,2.26-1.24,4.17-1.4,5.73,0,.08-.01,.16-.01,.22,0,.22,.06,.33,.16,.33,.17,0,.69-.42,1.57-1.27,.1-.1,.2-.15,.3-.15,.08,0,.13,.04,.15,.11,.02,.08,0,.17-.09,.27-.52,.69-1.03,1.27-1.53,1.75-.21,.2-.39,.3-.53,.3s-.36-.11-.65-.34c-.37-.1-.55-.29-.55-.58,0-.05,0-.1,.02-.15,.24-1.66,.7-3.69,1.4-6.12-.34-.05-.64-.09-.92-.14-.12-.02-.18-.1-.18-.23,0-.15,.06-.24,.19-.27,.13-.03,.37-.1,.71-.21,.21-.07,.41-.17,.62-.29,.68-2.13,1.22-3.51,1.62-4.14,.22-.36,.46-.54,.72-.54,.24,0,.6,.13,1.07,.38Zm-5.53,5.06c0,.84-.11,1.64-.34,2.41-.07,.23-.17,.35-.29,.35-.09,0-.29-.13-.6-.39-.15-.13-.19-.31-.12-.55,.18-.59,.28-1.06,.28-1.41,0-.12-.03-.18-.08-.18-.08,0-.2,.11-.38,.35-1.34,1.74-2.34,3.7-3.01,5.86-.21,.69-.39,1.03-.54,1.03-.06,0-.31-.11-.76-.34-.22-.11-.29-.32-.22-.64,.51-2.23,1.05-4.11,1.63-5.64-.48,.5-.78,.85-.91,1.03-.05,.08-.12,.12-.21,.12-.11,0-.16-.05-.16-.14,0-.06,.03-.12,.08-.19,.32-.38,.74-.95,1.26-1.73,.16-.28,.32-.42,.48-.42,.12,0,.35,.09,.7,.27,.2,.1,.23,.24,.1,.41-.14,.19-.41,.85-.8,1.98-.38,1.1-.63,1.96-.77,2.58,.88-1.95,1.88-3.67,2.99-5.16,.21-.28,.38-.42,.51-.42,.12,0,.27,.08,.47,.24,.27,.03,.44,.07,.51,.12,.11,.08,.16,.23,.16,.46Zm-8,.24c0-.25-.06-.38-.16-.38-.07,0-.17,.05-.31,.15-.63,.51-1.18,1.4-1.66,2.67,.13,.02,.35,.04,.67,.06,.52,.02,.91-.1,1.16-.36,.19-.19,.3-.51,.32-.95-.01,.33-.02-.07-.02-1.2Zm1.13,4.26c-1.57,2-2.66,3-3.3,3-.3,0-.68-.21-1.15-.63-.48-.23-.72-.53-.72-.91,0-.07,0-.14,.02-.22,.12-.88,.35-1.86,.71-2.93-.24-.12-.36-.24-.36-.35,0-.09,.07-.13,.2-.13,.11,0,.21,.03,.32,.09,.57-1.28,1.08-2.19,1.54-2.73,.3-.36,.56-.54,.8-.54,.11,0,.38,.09,.81,.28-.03-.19,.02-.31,.16-.34h.45c.28,0,.42,.05,.42,.14,0,.02-.01,.07-.03,.16-.02,.09-.03,.17-.03,.25,0,.23,0,.52,0,.86,0,.34,0,.57,0,.68,0,.8-.22,1.35-.65,1.67-.4,.29-.85,.43-1.35,.43-.26,0-.7-.07-1.31-.21-.11,.2-.23,.59-.37,1.16-.18,.73-.26,1.38-.25,1.94,0,.33,.11,.5,.32,.5,.08,0,.17-.02,.3-.06,.74-.26,1.78-1.06,3.11-2.4,.09-.08,.17-.12,.25-.12,.12,0,.18,.06,.18,.17,0,.07-.03,.14-.1,.22Zm-5.52-4.25c-.85,1.59-1.49,3.45-1.91,5.59,.18-.32,.4-.72,.65-1.21,.03-.09,.09-.13,.15-.13,.1,0,.14,.06,.14,.18,0,.04,0,.08-.03,.12-.41,.94-.68,1.66-.81,2.17-.08,.32-.18,.48-.31,.48s-.38-.12-.75-.38c-.2-.14-.27-.39-.2-.75,.27-1.4,.59-2.62,.97-3.66-1.24,2.02-2.28,3.51-3.13,4.47-.18,.21-.39,.32-.61,.32-.18,0-.39-.07-.64-.22-.44-.08-.66-.31-.66-.69,0-.07,0-.15,.02-.23,.16-1.84,.5-3.37,1.01-4.59-.11,.1-.28,.25-.5,.45-.09,.07-.15,.09-.19,.06-.05-.04-.04-.11,.03-.22,.35-.51,.55-.84,.62-1,.2-.5,.41-.89,.62-1.16,.12-.14,.24-.21,.37-.21,.17,0,.43,.1,.76,.3,.09,.06,.13,.12,.13,.17,0,0-.07,.11-.21,.32-.32,.49-.65,1.35-1.01,2.59-.39,1.34-.59,2.43-.59,3.27,0,.28,.06,.41,.17,.41,.1,0,.27-.12,.5-.36,.49-.53,1.21-1.53,2.15-2.99,.83-1.29,1.33-2.14,1.5-2.53,.29-.65,.52-1.04,.7-1.16,.12-.08,.22-.11,.31-.11s.26,.07,.52,.2c.26,.13,.39,.23,.39,.3,0,.02-.02,.05-.07,.08-.05,.03-.08,.07-.1,.11Zm-5.92-5.3c.01,.06,.02,.11,.02,.15,0,.19-.11,.31-.34,.38-.01,0-.24,.04-.68,.11-.99,.14-2.21,.27-3.66,.39-.38,.81-.92,2.47-1.64,4.97,1.21-.11,2.43-.17,3.68-.19,.37,0,.62,.11,.74,.36,.03,.05,.08,.27,.14,.64,.01,.05,.02,.1,.02,.13,0,.22-.25,.37-.75,.45-.36,.06-.57,.09-.64,.09-.12,0-.21-.07-.28-.18-.09-.17-.26-.26-.51-.26-1.4,0-2.32,.03-2.75,.08-.23,.59-.64,2.19-1.22,4.78-.11,.48-.27,.72-.47,.72-.14,0-.41-.07-.83-.21-.25-.09-.34-.37-.28-.85,.09-.62,.22-1.21,.38-1.79,.08-.27,.34-.36,.79-.28,.15-.33,.33-.87,.53-1.6-.28-.7-.41-1.06-.41-1.08,0-.04,0-.08,0-.12,.04-.21,.37-.38,.98-.52,.03-.11,.56-1.79,1.59-5.03-1.02,.08-2.01,.23-2.99,.46-1.1,.26-1.83,.54-2.18,.86-.37,.34-.56,.67-.56,1.02,0,.37,.21,.95,.64,1.74,.05,.08,.07,.15,.07,.23,0,.16-.08,.24-.22,.24-.1,0-.2-.06-.28-.18-.51-.73-.84-1.29-1-1.7-.11-.28-.19-.69-.23-1.22-.07-.79,.57-1.37,1.91-1.74,1.76-.48,3.55-.8,5.37-.96,.2-.41,.36-.62,.46-.62,.15,0,.4,.16,.76,.48,.17,0,.69-.07,1.56-.2,.15-.03,.3-.14,.46-.34,.14-.18,.48-.29,1.01-.32,.3-.01,.5,.1,.61,.33,.01,.03,.08,.29,.2,.78Zm-18.63,6.48c.04-.43,.07-.7,.07-.82,0-.27-.08-.4-.25-.4-.06,0-.15,.01-.25,.04l-1.49,.61c-.17,.07-.27,.11-.3,.11-.05,0-.1-.06-.15-.18-.37,.46-.72,1.12-1.04,1.98-.25,.67-.42,1.28-.52,1.81-.07,.36-.11,.69-.11,.98,0,.99,.31,1.47,.91,1.45,.24,0,.51-.1,.79-.29,.54-.37,1.04-1.1,1.51-2.2,.45-1.04,.72-2.06,.83-3.08Zm1.11-.29c-.01,.57-.15,1.33-.41,2.28-.42,1.49-1.01,2.65-1.77,3.47-.41,.44-.86,.65-1.35,.65-.19,0-.44-.04-.74-.12-.6-.04-1.1-.23-1.47-.57-.41-.37-.61-.85-.58-1.43,.03-.68,.26-1.63,.7-2.85,.49-1.33,1-2.29,1.52-2.87,.25-.28,.46-.42,.62-.42,.22,0,.57,.22,1.06,.66,.13-.07,.41-.18,.83-.36,.21-.07,.38-.11,.48-.11,.25,0,.53,.23,.84,.7,.2,.29,.29,.61,.28,.96Zm-5.36-6.2c.18,.1,.27,.2,.27,.32,0,.08-.06,.13-.18,.13-.02,0-.07,0-.12,0-.06,0-.1-.01-.12-.01-.24,0-.54,.27-.89,.8-.31,.48-.73,1.51-1.28,3.1-.05,.14-.07,.23-.06,.25,.02,.04,.1,.07,.25,.08,.38,.03,.88,.02,1.52-.04,.22-.02,.33,.08,.33,.28,0,.14-.08,.23-.25,.26-.13,.02-.84,.08-2.13,.17-.77,2.26-1.24,4.17-1.4,5.73,0,.08-.01,.16-.01,.22,0,.22,.06,.33,.16,.33,.17,0,.69-.42,1.57-1.27,.1-.1,.2-.15,.3-.15,.08,0,.13,.04,.15,.11,.02,.08,0,.17-.09,.27-.52,.69-1.03,1.27-1.53,1.75-.21,.2-.39,.3-.53,.3s-.36-.11-.65-.34c-.37-.1-.55-.29-.55-.58,0-.05,0-.1,.02-.15,.24-1.66,.7-3.69,1.39-6.12-.34-.05-.64-.09-.92-.14-.12-.02-.18-.1-.18-.23,0-.15,.06-.24,.19-.27,.13-.03,.37-.1,.71-.21,.21-.07,.41-.17,.62-.29,.68-2.13,1.22-3.51,1.62-4.14,.22-.36,.46-.54,.72-.54,.24,0,.6,.13,1.07,.38Zm-6.41,5.9c-.59,1.64-.99,3.01-1.22,4.13,.1-.09,.22-.23,.38-.41,.15-.18,.25-.29,.29-.33,.09-.12,.18-.17,.29-.17,.1,0,.14,.05,.14,.14,0,.06-.03,.12-.08,.2-.6,.89-1,1.79-1.2,2.7-.06,.26-.14,.39-.26,.39-.11,0-.31-.1-.61-.31-.17-.12-.27-.21-.3-.29-.03-.07-.03-.21,0-.42,.27-1.63,.6-2.99,1.01-4.07-.56,.9-1.32,1.91-2.29,3-.84,.96-1.45,1.57-1.82,1.83-.27,.19-.48,.28-.62,.28-.12,0-.29-.09-.53-.28-.34-.2-.51-.49-.51-.85,0-.07,0-.15,.02-.24,.12-.95,.53-2.06,1.25-3.32,.72-1.26,1.54-2.33,2.47-3.19,.3-.28,.57-.42,.81-.41,.23,.01,.67,.32,1.32,.91,.06,.05,.09,.11,.09,.16,0,.1-.07,.15-.2,.15-.05,0-.1,0-.14-.03-.46-.19-.82-.19-1.1,.02-.6,.44-1.27,1.22-2,2.34-.85,1.29-1.36,2.44-1.53,3.47,0,.04-.01,.09-.01,.12,0,.16,.07,.24,.19,.24,.22,0,.48-.15,.78-.45,.72-.7,1.49-1.58,2.32-2.64,.84-1.1,1.38-1.93,1.62-2.49,.17-.41,.29-.7,.34-.87,.09-.29,.17-.43,.27-.43s.32,.13,.68,.4c.15,.11,.23,.21,.24,.3,.01,.08-.02,.21-.09,.4Zm-2.76-8.54c.08,.07,.12,.13,.12,.2,0,.12-.07,.18-.22,.18-.07,0-.13-.02-.2-.06-.3-.15-.52-.22-.66-.22-.4,0-.85,.39-1.33,1.17-1.75,2.85-2.99,6.52-3.73,11.03-.02,.13-.05,.29-.1,.49,.15-.15,.37-.4,.65-.75,.17-.2,.29-.3,.37-.3,.17,0,.18,.1,.04,.3-.62,.88-1.03,1.8-1.22,2.76-.07,.24-.16,.36-.27,.36-.05,0-.12-.03-.2-.09-.33-.22-.52-.35-.56-.38-.13-.13-.19-.3-.19-.5,0-.1,.02-.23,.05-.38,.74-4.09,1.71-7.57,2.88-10.45,.89-2.17,1.68-3.58,2.38-4.22,.19-.18,.39-.27,.58-.26,.17,0,.4,.12,.68,.33,.31,.26,.63,.52,.94,.78Zm-6.99,5.08c-.17,.69-.61,1.58-1.31,2.65-.71,1.07-1.32,1.8-1.84,2.17-.37,.26-.73,.39-1.08,.39-.21,0-.7-.16-1.49-.47-.15-.06-.23-.14-.23-.22,0-.13,.18-.19,.53-.19,.59,0,1.03-.12,1.34-.36,.62-.47,1.2-1.11,1.76-1.93,.71-1.03,1.13-2.05,1.27-3.04,.08-.55-.11-.87-.56-.98-.2-.05-.41-.05-.62,0-.99,.05-1.95,.27-2.88,.65-1.07,3.88-2.06,6.98-2.95,9.3,.05-.02,.24-.13,.57-.33,.19-.11,.34-.16,.44-.14,.18,.03,.37,.22,.55,.56,.15,.28,.22,.48,.22,.62,0,.17-.11,.25-.34,.23-.16-.02-.42,.07-.8,.27-.4,.21-.75,.46-1.04,.75-.14,.14-.29,.21-.44,.21-.21,0-.47-.14-.78-.42-.19-.19-.28-.35-.25-.48,.02-.11,.12-.18,.31-.23,1.57-3.61,2.73-6.92,3.49-9.91-2.41,1.09-3.62,2.1-3.62,3.04,0,.14,.02,.27,.07,.4,.01,.05,.08,.21,.19,.49,.03,.07,.04,.12,.04,.18,0,.18-.07,.27-.21,.27-.2,0-.59-.56-1.16-1.68-.09-.15-.13-.31-.13-.46,0-.38,.24-.79,.71-1.24,.33-.3,.94-.71,1.85-1.24,.98-.55,1.85-.97,2.61-1.25,.08-.32,.12-.57,.12-.77,0-.26,.07-.39,.19-.39,.17,0,.48,.24,.92,.71,1.06-.3,1.78-.45,2.15-.45,.71,.01,1.22,.39,1.53,1.13,.39,.28,.64,.5,.77,.66,.16,.2,.24,.44,.24,.71,0,.2-.04,.47-.12,.81Z"/>
      <path class="cls-3" d="M46.77,8.55c0-.28-.08-.51-.24-.71-.13-.16-.39-.38-.77-.66-.3-.74-.81-1.12-1.52-1.13-.37,0-1.09,.14-2.15,.45-.44-.47-.74-.7-.92-.7-.13,0-.19,.13-.19,.39,0,.2-.04,.46-.11,.77-.77,.28-1.64,.7-2.61,1.25-.91,.52-1.52,.93-1.85,1.23-.48,.44-.71,.86-.71,1.23,0,.15,.04,.31,.13,.46,.56,1.12,.95,1.68,1.15,1.68,.14,0,.21-.09,.21-.27,0-.06-.01-.12-.04-.18-.11-.28-.17-.44-.18-.49-.04-.13-.07-.26-.07-.39,0-.94,1.21-1.95,3.62-3.04-.77,2.99-1.93,6.3-3.5,9.91-.19,.05-.29,.12-.31,.23-.03,.14,.06,.3,.25,.48,.31,.28,.57,.42,.78,.42,.15,0,.3-.07,.44-.21,.29-.29,.64-.54,1.04-.75,.37-.2,.64-.29,.8-.27,.23,.02,.34-.06,.34-.23,0-.14-.07-.34-.22-.62-.18-.34-.36-.53-.55-.56-.11-.01-.26,.04-.44,.15-.33,.2-.52,.31-.57,.33,.9-2.32,1.89-5.42,2.96-9.29,.93-.39,1.89-.6,2.88-.66,.21-.04,.42-.03,.63,0,.45,.11,.64,.44,.56,.98-.13,1-.55,2.01-1.26,3.05-.55,.82-1.14,1.46-1.75,1.93-.31,.24-.75,.36-1.34,.36-.35,0-.53,.06-.53,.19,0,.08,.08,.16,.23,.22,.78,.31,1.28,.47,1.48,.47,.35,0,.71-.13,1.08-.4,.52-.37,1.13-1.09,1.84-2.17,.7-1.07,1.14-1.96,1.31-2.65,.08-.34,.13-.61,.13-.81Z"/>
      <path class="cls-3" d="M52.69,3.49c-.28-.21-.5-.32-.68-.33-.19,0-.39,.08-.58,.26-.7,.64-1.49,2.05-2.38,4.22-1.18,2.88-2.14,6.36-2.88,10.46-.03,.15-.05,.27-.05,.38,0,.21,.06,.37,.19,.5,.04,.04,.23,.17,.56,.38,.08,.06,.15,.09,.2,.09,.11,0,.2-.12,.27-.36,.2-.96,.61-1.89,1.22-2.77,.14-.2,.13-.3-.04-.3-.08,0-.2,.1-.37,.3-.29,.35-.51,.6-.66,.75,.05-.21,.08-.37,.1-.49,.74-4.51,1.98-8.19,3.73-11.04,.48-.78,.93-1.18,1.33-1.18,.15,0,.37,.07,.67,.22,.07,.04,.14,.06,.2,.06,.15,0,.22-.06,.22-.18,0-.07-.04-.14-.13-.2-.31-.26-.63-.52-.94-.78Z"/>
      <path class="cls-3" d="M56.49,12.41c-.01-.09-.09-.19-.24-.3-.35-.26-.58-.39-.67-.39s-.19,.15-.27,.43c-.05,.17-.16,.46-.34,.87-.24,.56-.78,1.39-1.62,2.49-.82,1.06-1.59,1.94-2.31,2.64-.3,.3-.56,.45-.78,.45-.13,0-.19-.08-.19-.24,0-.04,0-.08,0-.13,.17-1.03,.68-2.18,1.53-3.47,.73-1.12,1.4-1.9,2-2.34,.28-.21,.64-.21,1.1-.02,.05,.02,.09,.03,.14,.03,.13,0,.2-.05,.2-.15,0-.06-.03-.11-.09-.16-.65-.6-1.09-.9-1.32-.91-.24,0-.51,.13-.81,.41-.93,.87-1.76,1.93-2.48,3.2-.72,1.26-1.14,2.37-1.25,3.32-.01,.09-.02,.17-.02,.24,0,.36,.17,.64,.51,.85,.24,.19,.41,.28,.53,.28,.14,0,.35-.09,.62-.28,.37-.26,.98-.87,1.82-1.83,.96-1.1,1.73-2.1,2.28-3.01-.4,1.08-.74,2.44-1.01,4.07-.03,.21-.03,.35,0,.42,.03,.08,.12,.17,.3,.29,.29,.2,.5,.31,.61,.31s.2-.13,.26-.39c.2-.91,.6-1.82,1.21-2.71,.05-.08,.08-.14,.08-.2,0-.1-.05-.14-.14-.14-.1,0-.2,.06-.29,.17-.04,.03-.14,.14-.29,.33-.16,.19-.28,.32-.38,.41,.23-1.11,.63-2.49,1.22-4.13,.07-.19,.1-.33,.09-.41Z"/>
      <path class="cls-3" d="M61.76,6.55c-.26,0-.5,.18-.72,.54-.39,.63-.93,2.01-1.62,4.14-.2,.12-.4,.22-.62,.29-.35,.11-.58,.18-.71,.21-.13,.03-.19,.12-.19,.27,0,.14,.06,.21,.18,.23,.28,.04,.59,.09,.93,.13-.69,2.42-1.16,4.46-1.4,6.12-.01,.06-.02,.11-.02,.15,0,.29,.18,.48,.55,.58,.3,.22,.52,.34,.66,.34s.32-.1,.53-.3c.5-.48,1.01-1.07,1.53-1.75,.08-.1,.1-.19,.09-.27-.02-.07-.07-.11-.15-.11-.1,0-.2,.05-.3,.15-.87,.84-1.4,1.26-1.57,1.26-.11,0-.16-.11-.16-.33,0-.06,0-.14,0-.22,.17-1.56,.64-3.47,1.41-5.73,1.29-.1,1.99-.15,2.13-.17,.17-.03,.25-.12,.25-.26,0-.21-.11-.3-.33-.28-.64,.06-1.15,.07-1.52,.04-.15,0-.23-.03-.25-.08-.01-.02,0-.11,.06-.25,.55-1.59,.97-2.63,1.28-3.1,.35-.53,.64-.8,.89-.8,.03,0,.07,0,.12,.01,.05,0,.09,.02,.12,.02,.12,0,.18-.04,.18-.13,0-.12-.09-.23-.27-.33-.47-.26-.82-.39-1.07-.39Z"/>
      <path class="cls-3" d="M66.24,16.49c-.47,1.1-.97,1.83-1.51,2.2-.28,.19-.55,.28-.79,.29-.61,.03-.91-.46-.91-1.45,0-.29,.04-.62,.11-.98,.1-.53,.27-1.14,.52-1.81,.32-.86,.67-1.52,1.04-1.98,.05,.12,.1,.18,.15,.18,.03,0,.13-.04,.3-.11l1.49-.61c.1-.03,.19-.04,.25-.04,.17,0,.25,.14,.25,.41,0,.12-.02,.39-.07,.82-.1,1.02-.38,2.04-.83,3.08Zm1.66-4.32c-.31-.47-.59-.7-.84-.7-.11,0-.27,.04-.48,.11-.42,.17-.7,.29-.83,.36-.49-.45-.84-.68-1.06-.68-.16,0-.37,.14-.62,.42-.53,.59-1.03,1.54-1.52,2.87-.44,1.22-.68,2.17-.7,2.85-.03,.59,.17,1.06,.58,1.44,.38,.34,.87,.53,1.47,.57,.3,.08,.55,.12,.74,.12,.49,0,.94-.22,1.35-.65,.76-.82,1.35-1.98,1.77-3.47,.26-.95,.4-1.7,.41-2.27,.01-.35-.08-.68-.28-.96Z"/>
      <path class="cls-3" d="M85.49,6.15c-.11-.23-.31-.34-.61-.33-.53,.03-.87,.13-1.01,.32-.16,.2-.32,.31-.46,.34-.87,.13-1.39,.19-1.56,.19-.36-.32-.61-.48-.76-.48-.1,0-.26,.21-.46,.63-1.82,.16-3.61,.48-5.37,.96-1.34,.37-1.98,.94-1.92,1.73,.05,.53,.12,.94,.23,1.22,.15,.41,.49,.97,.99,1.7,.08,.12,.18,.18,.28,.18,.15,0,.22-.08,.22-.24,0-.08-.02-.15-.07-.23-.42-.79-.64-1.37-.64-1.73,0-.34,.19-.68,.56-1.01,.35-.32,1.08-.6,2.18-.86,.97-.23,1.96-.39,2.98-.46-1.02,3.25-1.55,4.92-1.58,5.03-.6,.13-.92,.3-.95,.51,0,.04,0,.08,0,.12,0,.02,.13,.38,.41,1.07-.21,.73-.38,1.27-.53,1.6-.45-.08-.71,0-.79,.28-.16,.58-.29,1.18-.38,1.79-.06,.48,.03,.76,.28,.85,.42,.14,.69,.21,.83,.21,.21,0,.36-.24,.47-.72,.58-2.6,.99-4.19,1.22-4.78,.43-.05,1.34-.08,2.75-.08,.25,0,.42,.09,.51,.26,.06,.12,.16,.18,.28,.18,.07,0,.29-.02,.65-.09,.5-.08,.75-.24,.75-.45,0-.04,0-.08-.02-.13-.07-.37-.12-.58-.15-.64-.12-.24-.37-.36-.74-.36-1.25,.03-2.48,.09-3.69,.2,.71-2.51,1.26-4.16,1.64-4.97,1.45-.12,2.68-.25,3.67-.39,.44-.06,.67-.1,.69-.11,.22-.06,.34-.19,.34-.38,0-.04,0-.1-.02-.15-.12-.49-.19-.75-.2-.78Z"/>
      <path class="cls-3" d="M91.72,12.14s.07-.06,.07-.08c0-.06-.13-.16-.38-.3-.26-.13-.43-.2-.52-.2s-.19,.04-.31,.12c-.18,.11-.41,.5-.71,1.16-.17,.39-.67,1.23-1.5,2.53-.94,1.46-1.66,2.46-2.15,2.99-.23,.24-.4,.36-.5,.36-.12,0-.17-.14-.17-.41,0-.84,.21-1.93,.6-3.27,.36-1.23,.7-2.09,1.02-2.58l.21-.32c0-.06-.05-.12-.13-.17-.33-.21-.59-.31-.76-.31-.13,0-.25,.07-.37,.21-.22,.28-.43,.67-.63,1.17-.07,.16-.27,.5-.62,1-.07,.11-.08,.18-.03,.22,.04,.03,.11,.01,.19-.06,.22-.2,.38-.35,.49-.45-.51,1.21-.84,2.74-1,4.58-.01,.08-.02,.16-.02,.23,0,.38,.22,.62,.67,.69,.24,.15,.46,.22,.64,.22,.22,0,.42-.11,.61-.32,.84-.96,1.88-2.45,3.12-4.46-.38,1.04-.71,2.25-.97,3.65-.07,.36,0,.61,.2,.75,.37,.25,.62,.38,.75,.38s.23-.16,.31-.48c.13-.51,.4-1.23,.81-2.17,.02-.05,.03-.09,.03-.12,0-.12-.05-.18-.14-.18-.07,0-.12,.05-.15,.13-.26,.49-.48,.89-.66,1.21,.42-2.14,1.06-4,1.92-5.59,.02-.04,.05-.07,.1-.11Z"/>
      <path class="cls-3" d="M96.02,13.42c-.02,.44-.12,.76-.32,.95-.26,.26-.64,.38-1.17,.36-.32-.02-.55-.04-.67-.06,.48-1.27,1.03-2.16,1.66-2.67,.13-.1,.24-.15,.31-.15,.11,0,.16,.12,.16,.38,0,1.12,.01,1.52,.03,1.2Zm1.2,2.84c0-.12-.06-.17-.18-.17-.08,0-.17,.04-.25,.13-1.33,1.34-2.37,2.15-3.11,2.41-.12,.04-.22,.06-.3,.06-.21,0-.31-.17-.32-.5-.01-.57,.07-1.21,.25-1.95,.14-.58,.26-.97,.37-1.17,.61,.14,1.05,.21,1.31,.21,.5,0,.95-.14,1.35-.43,.44-.31,.66-.87,.66-1.67,0-.12,0-.34,0-.68,0-.34,0-.63,0-.86,0-.08,0-.16,.03-.25,.02-.09,.03-.14,.03-.16,0-.1-.14-.14-.41-.14h-.45c-.14,.03-.2,.14-.16,.34-.43-.19-.7-.28-.81-.28-.24,0-.5,.18-.8,.54-.46,.54-.97,1.45-1.54,2.74-.11-.06-.22-.09-.32-.09-.14,0-.2,.04-.2,.13,0,.11,.12,.22,.36,.35-.35,1.07-.59,2.04-.7,2.92-.01,.08-.02,.15-.02,.22,0,.38,.24,.68,.72,.91,.46,.42,.84,.63,1.15,.63,.64,0,1.74-1,3.3-3,.06-.08,.1-.15,.1-.22Z"/>
      <path class="cls-3" d="M103.81,11.52c-.07-.05-.24-.09-.51-.12-.2-.15-.36-.23-.47-.23-.13,0-.3,.14-.51,.42-1.11,1.49-2.1,3.21-2.98,5.16,.14-.62,.4-1.48,.77-2.58,.39-1.13,.66-1.79,.8-1.98,.13-.17,.1-.31-.1-.41-.35-.18-.59-.27-.7-.27-.16,0-.32,.14-.48,.43-.53,.78-.95,1.36-1.26,1.73-.05,.07-.08,.14-.08,.19,0,.1,.05,.14,.16,.14,.09,0,.16-.04,.21-.12,.13-.19,.43-.53,.91-1.03-.59,1.53-1.13,3.41-1.64,5.63-.07,.31,0,.53,.22,.64,.45,.23,.7,.34,.76,.34,.15,0,.33-.34,.54-1.03,.66-2.17,1.66-4.12,3-5.86,.17-.23,.3-.35,.38-.35,.05,0,.08,.06,.08,.18,0,.35-.09,.82-.27,1.41-.08,.24-.04,.42,.12,.55,.31,.26,.51,.39,.6,.39,.12,0,.22-.12,.29-.35,.23-.77,.34-1.57,.34-2.41,0-.23-.05-.39-.16-.46Z"/>
      <path class="cls-3" d="M108.47,6.55c-.26,0-.5,.18-.72,.54-.39,.63-.93,2.01-1.62,4.14-.2,.12-.4,.22-.62,.29-.35,.11-.58,.18-.71,.21-.13,.03-.19,.12-.19,.27,0,.14,.06,.21,.18,.23,.28,.04,.58,.09,.93,.13-.69,2.42-1.16,4.46-1.4,6.12-.01,.06-.02,.11-.02,.15,0,.29,.18,.48,.55,.58,.3,.22,.51,.34,.66,.34s.32-.1,.53-.3c.5-.48,1.01-1.07,1.53-1.75,.08-.1,.11-.19,.09-.27-.02-.07-.07-.11-.16-.11-.1,0-.2,.05-.3,.15-.87,.84-1.4,1.26-1.57,1.26-.11,0-.16-.11-.16-.33,0-.06,0-.14,0-.22,.17-1.56,.64-3.47,1.41-5.73,1.28-.1,1.99-.15,2.13-.17,.17-.03,.25-.12,.25-.26,0-.21-.11-.3-.33-.28-.64,.06-1.15,.07-1.52,.04-.15,0-.23-.03-.25-.08-.01-.02,0-.11,.06-.25,.55-1.59,.97-2.63,1.28-3.1,.35-.53,.64-.8,.89-.8,.03,0,.07,0,.12,.01s.09,.02,.12,.02c.12,0,.18-.04,.18-.13,0-.12-.09-.23-.27-.33-.47-.26-.83-.39-1.07-.39Z"/>
      <path class="cls-3" d="M112.62,13.42c-.02,.44-.12,.76-.32,.95-.26,.26-.65,.38-1.17,.36-.32-.02-.55-.04-.67-.06,.48-1.27,1.03-2.16,1.66-2.67,.13-.1,.24-.15,.31-.15,.11,0,.16,.12,.16,.38,0,1.12,0,1.52,.03,1.2Zm1.2,2.84c0-.12-.06-.17-.18-.17-.08,0-.17,.04-.25,.13-1.33,1.34-2.37,2.15-3.11,2.41-.12,.04-.22,.06-.3,.06-.21,0-.31-.17-.32-.5-.01-.57,.07-1.21,.25-1.95,.14-.58,.26-.97,.37-1.17,.61,.14,1.05,.21,1.31,.21,.5,0,.95-.14,1.35-.43,.44-.31,.66-.87,.66-1.67,0-.12,0-.34-.01-.68,0-.34,0-.63,0-.86,0-.08,0-.16,.03-.25,.02-.09,.03-.14,.03-.16,0-.1-.14-.14-.41-.14h-.45c-.14,.03-.2,.14-.16,.34-.43-.19-.7-.28-.81-.28-.24,0-.5,.18-.8,.54-.46,.54-.97,1.45-1.54,2.74-.11-.06-.22-.09-.32-.09-.14,0-.2,.04-.2,.13,0,.11,.12,.22,.36,.35-.35,1.07-.59,2.04-.7,2.92-.01,.08-.02,.15-.02,.22,0,.38,.24,.68,.72,.91,.46,.42,.85,.63,1.15,.63,.64,0,1.74-1,3.3-3,.07-.08,.1-.15,.1-.22Z"/>
    </g>
  </g>
</svg>