<svg height="511pt" viewBox="0 0 511 511.99999" width="511pt" xmlns="http://www.w3.org/2000/svg"><path d="M174.238 132.5c-4.832 0-8.75-3.914-8.75-8.75 0-40.227-22.55-68.434-22.773-68.715-3.047-3.738-2.492-9.25 1.25-12.305 3.734-3.042 9.23-2.503 12.285 1.22 1.094 1.327 26.738 33.097 26.738 79.8 0 4.836-3.914 8.75-8.75 8.75zm0 0" fill="#96cd82"/><path d="M217.277 14.688C191.3 29.273 173.473 52.03 165.987 76.37c24.68 6.29 53.392 2.915 79.372-11.667C267.45 52.297 283.65 33.98 292.6 13.8c2.512-5.65-1.136-12.147-7.27-12.947-21.886-2.864-45.96 1.43-68.058 13.836zm0 0" fill="#afdc82"/><path d="M285.34.852c-21.89-2.864-45.965 1.43-68.06 13.835-25.98 14.586-43.807 37.344-51.288 61.684l126.23-70.84c-1.363-2.44-3.808-4.27-6.882-4.67zm0 0" fill="#96cd82"/><path d="M156.25 43.95c-3.055-3.723-8.55-4.263-12.285-1.22-3.738 3.055-4.297 8.567-1.25 12.305.144.18 9.55 12.008 16.22 31.16 1.452 4.172 5.815 6.614 10.13 5.676 5.17-1.12 8.197-6.57 6.455-11.56-7.66-21.99-18.563-35.5-19.27-36.36zm0 0" fill="#7dbe81"/><path d="M173.75 116.574c107.645 0 173.25 76.36 173.25 148.5 0 72.145-65.605 148.5-173.25 148.5S.5 337.22.5 265.074c0-72.14 65.605-148.5 173.25-148.5zm0 0" fill="#ffaa5f"/><path d="M206.75 363.5C99.105 363.5 33.5 287.14 33.5 215c0-15.844 3.28-32.04 9.363-47.434C15.535 195.156.5 230.646.5 265.074c0 72.145 65.605 148.5 173.25 148.5 84.004 0 142.227-46.54 163.828-101.25-29.93 30.223-74.562 51.176-130.828 51.176zm0 0" fill="#ff8c5a"/><path d="M347 512c-102.52 0-165-70.18-165-156.75S244.48 198.5 347 198.5s165 70.18 165 156.75S449.52 512 347 512zm0 0" fill="#ffc369"/><path d="M347 215c-87.434 0-148.5 57.672-148.5 140.25S259.566 495.5 347 495.5s148.5-57.672 148.5-140.25S434.434 215 347 215zm0 0" fill="#fff6d8"/><path d="M467.03 323.813c-2.815-10.735.255-23.93-5.3-33.223-5.59-9.352-18.64-12.844-26.808-20.274-7.895-7.175-12.492-19.902-22.613-24.863-9.42-4.613-22.34-.676-33.54-3.023-10.18-2.137-20.24-11.18-31.78-11.18s-21.594 9.043-31.77 11.18c-11.2 2.347-24.12-1.59-33.54 3.023-10.12 4.96-14.717 17.688-22.612 24.863-8.168 7.43-21.22 10.922-26.808 20.274-5.556 9.293-2.486 22.488-5.298 33.222-2.704 10.325-11.97 20.193-11.97 31.438 0 11.242 9.266 21.11 11.97 31.43 2.815 10.734-.26 23.925 5.296 33.218 5.59 9.352 18.64 12.848 26.81 20.282 7.896 7.175 12.493 19.902 22.618 24.867 9.42 4.613 22.346.676 33.545 3.023 10.177 2.137 20.236 11.18 31.77 11.18 11.53 0 21.59-9.043 31.767-11.18 11.2-2.347 24.123 1.59 33.54-3.023 10.127-4.965 14.724-17.692 22.62-24.867 8.17-7.434 21.22-10.93 26.81-20.282 5.55-9.29 2.48-22.484 5.292-33.218 2.71-10.32 11.974-20.188 11.974-31.43-.005-11.246-9.27-21.113-11.974-31.438zm0 0" fill="#ff8087"/><g fill="#e6646e"><path d="M374.766 355.25c0 4.598-5.938 7.645-8.086 11.36-2.215 3.83-1.96 10.476-5.793 12.69-3.71 2.15-9.29-1.33-13.887-1.33s-10.176 3.48-13.887 1.33c-3.832-2.214-3.578-8.86-5.793-12.69-2.148-3.712-8.086-6.758-8.086-11.36 0-4.598 5.938-7.645 8.086-11.36 2.22-3.827 1.96-10.472 5.793-12.69 3.715-2.145 9.29 1.33 13.887 1.33 4.602 0 10.176-3.475 13.89-1.33 3.83 2.218 3.575 8.86 5.79 12.69 2.148 3.715 8.086 6.762 8.086 11.36zm0 0"/><path d="M467.03 323.813c-2.815-10.735.255-23.93-5.3-33.223-5.59-9.352-18.64-12.844-26.808-20.274-7.895-7.175-12.492-19.902-22.613-24.863-9.42-4.613-22.34-.676-33.54-3.023-10.18-2.137-20.24-11.18-31.78-11.18s-21.594 9.043-31.77 11.18c-11.2 2.347-24.12-1.59-33.54 3.023-10.12 4.96-14.717 17.688-22.612 24.863-8.168 7.43-21.22 10.922-26.808 20.274-5.556 9.293-2.486 22.488-5.298 33.222-2.704 10.325-11.97 20.193-11.97 31.438 0 11.242 9.266 21.11 11.97 31.43 2.815 10.734-.26 23.925 5.296 33.218 5.59 9.352 18.64 12.848 26.81 20.282 7.896 7.175 12.493 19.902 22.618 24.867 9.42 4.613 22.346.676 33.545 3.023 10.177 2.137 20.236 11.18 31.77 11.18 11.53 0 21.59-9.043 31.767-11.18 11.2-2.347 24.123 1.59 33.54-3.023 10.127-4.965 14.724-17.692 22.62-24.867 8.17-7.434 21.22-10.93 26.81-20.282 5.55-9.29 2.48-22.484 5.292-33.218 2.71-10.32 11.974-20.188 11.974-31.43-.005-11.246-9.27-21.113-11.974-31.438zM347 446c-59.352 0-95.527-40.63-95.527-90.75S287.648 264.5 347 264.5s95.527 40.63 95.527 90.75S406.352 446 347 446zm0 0"/></g></svg>