<svg xmlns="http://www.w3.org/2000/svg" viewBox="0 0 511.99 511.99"><circle cx="451.47" cy="411.426" r="60.52" fill="#744EAA"/><path d="M458.328 470.367c-32.552-7.577-52.798-40.11-45.22-72.66 5.68-24.396 25.372-41.878 48.586-45.92-31.354-5.402-61.858 14.533-69.164 45.92-7.577 32.55 12.668 65.082 45.22 72.66 8.157 1.9 16.312 2.05 24.074.698-1.164-.2-2.33-.426-3.496-.698z" fill="#67449E"/><path d="M172.053 169.022c1.505.35 2.98.765 4.43 1.22.592-2.532 1.354-4.98 2.24-7.354C117.938 93.788 42.34 68.364 14.9 61.718 9.09 60.31 3.48 64.38 3.003 70.314l-2.977 37.1c-.407 5.075 3.96 9.33 9.007 8.746 62.963-7.294 121.33 24.773 158.144 51.953 1.624.24 3.25.53 4.876.91z" fill="#93603E"/><path d="M148.75 133.05C112.324 109.657 62.327 87.63 9.033 93.805c-3.133.363-6-1.14-7.63-3.545L.025 107.416c-.407 5.074 3.96 9.33 9.007 8.745 62.963-7.29 121.33 24.78 158.144 51.96 1.623.24 3.25.53 4.875.91 1.51.35 2.98.766 4.43 1.22.6-2.532 1.36-4.98 2.24-7.354-9.69-11.025-19.77-20.934-29.97-29.837z" fill="#7F573C"/><path d="M83.067 284.142c7.706-9.393 18.096-16.257 29.723-19.645 1.882 2.214-20.48-19.894-12.856-52.653 5.358-23.018 23.29-39.825 44.84-44.875-28.385-9.38-68.966-11.87-111.453 13.86-3.68 2.23-4.44 7.27-1.52 10.44 5.96 6.452 16.78 16.834 31.35 25.34 3.82 2.23 4.34 7.472 1.04 10.414-12.043 10.736-23.21 24.926-32.264 43.656-1.876 3.88.238 8.528 4.415 9.59 9.275 2.363 27.99 5.49 46.735 3.863z" fill="#3BBC56"/><path d="M58.17 280.28c-4.178-1.063-6.292-5.71-4.416-9.592 9.053-18.73 20.22-32.922 32.267-43.655 3.31-2.942 2.79-8.186-1.03-10.415-14.57-8.505-25.39-18.887-31.35-25.34-2.92-3.168-2.162-8.21 1.52-10.445 20.78-12.583 41.09-18.404 59.75-19.984-24.06-2.06-52.37 2.29-81.59 19.98-3.68 2.23-4.44 7.27-1.52 10.44 5.96 6.452 16.78 16.834 31.35 25.34 3.82 2.23 4.34 7.472 1.04 10.414-12.045 10.734-23.213 24.926-32.266 43.655-1.876 3.88.238 8.53 4.415 9.592 9.253 2.356 27.904 5.47 46.61 3.87-10.29-.78-19.226-2.458-24.774-3.87z" fill="#30AA44"/><path d="M248.58 125.44c3.42.795 6.7 1.88 9.828 3.203 7.702-11.945 19.4-20.697 32.79-24.842 3.425-23.89-3.963-47.93-7.507-59.05-1.31-4.1-6.07-5.94-9.83-3.83-18.16 10.15-31.66 22.14-41.66 34.8-2.74 3.47-8.004 3.267-10.456-.413-9.356-14.044-20.36-24.226-27.156-29.79-3.337-2.73-8.325-1.675-10.336 2.14-23.514 44.604-17.2 85.46-5.807 113.334 11.013-26.72 41.08-42.31 70.145-35.544z" fill="#3BBC56"/><path d="M202.547 52.58c-2.977-2.847-5.71-5.22-7.97-7.07-3.336-2.73-8.325-1.676-10.336 2.138-23.51 44.604-17.2 85.46-5.8 113.335 3.248-7.878 8.16-14.778 14.208-20.433-5.857-24.582-5.9-55.154 9.908-87.97z" fill="#30AA44"/><circle cx="307.53" cy="160.006" r="60.52" fill="#744EAA"/><path d="M314.387 218.95c-32.552-7.578-52.798-40.11-45.22-72.662 5.68-24.395 25.372-41.877 48.586-45.918-31.354-5.403-61.858 14.532-69.164 45.918-7.58 32.552 12.66 65.083 45.22 72.66 8.15 1.9 16.31 2.05 24.07.7-1.17-.202-2.33-.428-3.5-.7z" fill="#67449E"/><circle cx="241.01" cy="356.526" r="60.52" fill="#744EAA"/><path d="M247.873 415.467c-32.552-7.577-52.798-40.11-45.22-72.66 5.68-24.395 25.372-41.877 48.586-45.918-31.36-5.41-61.86 14.53-69.17 45.91-7.58 32.55 12.67 65.08 45.22 72.66 8.153 1.9 16.31 2.05 24.07.7-1.165-.2-2.33-.43-3.497-.7z" fill="#67449E"/><circle cx="127.34" cy="321.726" r="60.52" fill="#744EAA"/><path d="M134.202 380.664c-32.552-7.577-52.798-40.11-45.22-72.66 5.68-24.396 25.372-41.878 48.586-45.92-31.354-5.402-61.858 14.533-69.164 45.92-7.577 32.55 12.668 65.082 45.22 72.66 8.157 1.9 16.312 2.05 24.074.698-1.165-.2-2.33-.427-3.496-.698z" fill="#67449E"/><circle cx="233.25" cy="181.426" r="60.52" fill="#553788"/><path d="M240.132 240.368c-32.552-7.577-52.798-40.11-45.22-72.66 5.678-24.392 25.366-41.872 48.574-45.917-31.36-5.41-61.872 14.53-69.18 45.92-7.576 32.55 12.67 65.09 45.22 72.66 8.162 1.9 16.322 2.05 24.087.7-1.16-.2-2.32-.423-3.48-.693z" fill="#462E7A"/><circle cx="319.48" cy="240.436" r="60.06" fill="#9266CC"/><path d="M326.466 298.93c-32.31-7.52-52.403-39.808-44.883-72.117 5.63-24.185 25.14-41.523 48.145-45.56-31.155-5.424-61.49 14.374-68.75 45.56-7.52 32.31 12.574 64.597 44.883 72.118 8.13 1.9 16.25 2.04 23.98.68-1.12-.19-2.24-.41-3.37-.67z" fill="#7B54BA"/><circle cx="412.2" cy="324.056" r="60.06" fill="#9266CC"/><path d="M419.185 382.553c-32.31-7.52-52.403-39.81-44.883-72.118 5.63-24.185 25.14-41.523 48.145-45.56-31.155-5.424-61.49 14.374-68.75 45.56-7.52 32.31 12.574 64.597 44.883 72.118 8.124 1.89 16.246 2.033 23.974.677-1.123-.195-2.245-.415-3.37-.677z" fill="#7B54BA"/><circle cx="354" cy="403.526" r="60.06" fill="#9266CC"/><path d="M360.988 462.024c-32.31-7.52-52.403-39.81-44.883-72.118 5.63-24.185 25.14-41.523 48.145-45.56-31.155-5.424-61.49 14.374-68.75 45.56-7.52 32.31 12.574 64.597 44.883 72.118 8.124 1.89 16.246 2.033 23.974.677-1.123-.19-2.246-.41-3.37-.67z" fill="#7B54BA"/><circle cx="156.37" cy="225.466" r="60.06" fill="#9266CC"/><path d="M163.354 283.96c-32.31-7.52-52.403-39.808-44.883-72.117 5.63-24.185 25.14-41.523 48.15-45.56-31.15-5.424-61.49 14.374-68.75 45.56-7.52 32.31 12.58 64.597 44.888 72.118 8.124 1.9 16.246 2.04 23.974.68-1.123-.19-2.246-.41-3.37-.67z" fill="#7B54BA"/><circle cx="228.98" cy="284.596" r="60.06" fill="#AA8DD8"/><path d="M235.714 343.092c-32.31-7.52-52.404-39.81-44.883-72.118 5.63-24.185 25.14-41.523 48.15-45.56-31.15-5.424-61.49 14.374-68.75 45.56-7.52 32.31 12.58 64.597 44.888 72.118 8.124 1.89 16.245 2.033 23.973.677-1.122-.2-2.245-.42-3.37-.68z" fill="#987FC9"/><circle cx="322.73" cy="324.056" r="60.06" fill="#AA8DD8"/><path d="M329.456 382.553c-32.31-7.52-52.404-39.81-44.883-72.118 5.63-24.185 25.138-41.523 48.144-45.56-31.155-5.424-61.49 14.374-68.75 45.56-7.52 32.31 12.575 64.597 44.884 72.118 8.13 1.89 16.25 2.033 23.98.677-1.12-.195-2.24-.415-3.37-.677z" fill="#987FC9"/></svg>