<svg xmlns="http://www.w3.org/2000/svg" viewBox="0 0 55.108 55.108"><path d="M23.554 29.603c0-1.915.3-3.584.817-5.043-.49-1.28-.81-2.18-.81-2.442 0-9.858-7.93-13.27-12.622-14.425-.194-.048-.375.104-.375.304V35.65c3.706 1.14 7.525 1.78 11.358 1.923.995-2.028 1.643-4.615 1.643-7.97z" fill="#FBD490"/><path d="M28.486 18.818c-.2-1.172-.907-2.17-1.888-2.758.588-.696.956-1.584.956-2.566 0-.51-.104-.99-.277-1.438.47.05.925-.215 1.02-.7.063-.313.158-.614.256-.877.257-.69 1.178-.78 1.596-.18l.04.07c.12.18.3.28.49.34-.02-.6.1-1.12.27-1.51.273-.64 1.13-.74 1.57-.2.07.09.14.18.205.27.465.66 1.395.66 1.89.022.252-.323.53-.556.76-.69C33.332 4.68 28.795 2.6 23.552 2.6c-1.302 0-2.558-.046-3.744-.078.046.166.09.337.12.514.1.572.7.88 1.25.694.44-.148.92-.178 1.34.094.083.052.13.15.122.248-.025.268-.186.7-.504 1.13-.48.65-.23 1.543.53 1.815.107.04.213.08.315.125.64.28.778 1.132.23 1.57-.49.394-1.78 2.578-3.213 3.884 2.065 2.19 3.554 5.246 3.554 9.514 0 .263.327 1.164.82 2.442.887-2.508 2.42-4.38 4.175-5.787l-.06.044z" fill="#F4C076"/><path d="M36.554 35.648v-20.56c-4.632 1.065-13 4.39-13 14.515 0 3.357-.65 5.943-1.645 7.97 4.92.183 9.88-.46 14.64-1.925z" fill="#EEAF4B"/><path d="M10.93 7.692c2.662.656 6.362 2.04 9.07 4.91 1.433-1.306 2.723-3.49 3.215-3.885.545-.437.41-1.288-.23-1.57-.1-.044-.207-.085-.314-.124-.75-.272-1.01-1.167-.53-1.814.32-.43.48-.87.51-1.14.01-.1-.04-.197-.12-.25-.42-.27-.9-.24-1.34-.094-.55.185-1.15-.123-1.25-.696-.054-.313-.142-.617-.234-.882-.24-.69-1.16-.807-1.59-.218-.02.022-.034.044-.05.068-.127.18-.307.277-.5.33.037-.6-.073-1.114-.233-1.513C17.067.17 16.213.05 15.76.58c-.075.085-.145.174-.21.265-.484.648-1.41.628-1.89-.02-.32-.43-.69-.71-.938-.81-.093-.038-.2-.02-.275.043-.382.325-.494.79-.48 1.258.017.58-.452 1.065-1.03.993-.315-.04-.632-.048-.912-.03-.73.03-1.11.87-.672 1.46l.05.06c.362.46.193 1.116-.32 1.402-.206.113-.36.25-.458.353-.085.09-.096.232-.02.33.448.567 1.23 1.313 1.977 1.98.056-.134.196-.22.348-.18z" fill="#659C35"/><path d="M23.554 9.495c-.388 0-.76.066-1.113.17-.63.858-1.5 2.082-2.44 2.937-.06-.06-.12-.112-.18-.172 1.22 1.24 2.23 2.776 2.9 4.656-.11-.316-.22-.634-.353-.93.63-.417 1.384-.662 2.196-.662.748 0 1.44.218 2.037.575.592-.7.963-1.59.963-2.58 0-2.21-1.79-4-4-4z" fill="#A46F3E"/><path d="M23.947 23.434c.2.03.4.06.607.06.094 0 .18-.02.274-.027.898-1.94 2.194-3.462 3.658-4.65-.323-1.884-1.954-3.323-3.932-3.323-.812 0-1.565.245-2.196.66.74 1.668 1.196 3.63 1.196 5.963 0 .177.15.645.393 1.317z" fill="#6A3311"/><path d="M39.54 14.153c-.097-.106-.247-.246-.45-.366-.505-.298-.658-.957-.286-1.41l.053-.066c.45-.57.093-1.42-.636-1.47-.28-.02-.59-.02-.91.01-.58.06-1.03-.44-1-1.02.027-.46-.073-.93-.45-1.26-.07-.065-.18-.085-.27-.05-.25.096-.624.366-.954.79-.496.634-1.425.63-1.89-.027-.066-.093-.134-.183-.205-.27-.44-.54-1.296-.443-1.572.2-.17.394-.29.906-.27 1.507-.19-.058-.367-.158-.49-.34-.016-.025-.03-.05-.047-.07-.42-.6-1.34-.506-1.596.18-.1.26-.196.56-.257.873-.097.486-.552.75-1.022.7.175.45.28.93.28 1.44 0 .98-.37 1.87-.958 2.565.98.587 1.688 1.585 1.89 2.757 2.64-2.14 5.8-3.21 8.07-3.73v1.29c.21-.05.426-.11.63-.15.15-.034.29.055.34.19.763-.647 1.563-1.374 2.024-1.93.08-.095.07-.24-.01-.33z" fill="#A4E869"/><path d="M26.554 7.495c-1.654 0-3-1.346-3-3 0-.553.447-1 1-1s1 .447 1 1c0 .552.448 1 1 1 .553 0 1 .447 1 1s-.447 1-1 1zm1 2c-.553 0-1-.447-1-1s.447-1 1-1c.552 0 1-.448 1-1 0-.553.447-1 1-1s1 .447 1 1c0 1.654-1.346 3-3 3z" fill="#FFF"/><path d="M37.554 48.784c0 3.478-2.846 6.325-6.324 6.325H15.88c-3.48 0-6.325-2.85-6.325-6.33V35.93c0-.39.37-.666.745-.56 8.116 2.313 18.394 2.313 26.51 0 .376-.106.745.17.745.56v12.85z" fill="#E6E6E6"/><path d="M37.554 49.22l8.982-3.526c.023-.017.023-.042 0-.06l-8.982-3.526v7.113z" fill="#D2D5D7"/><path d="M15.554 51.108c-.553 0-1-.447-1-1s.447-1 1-1c9.757 0 18-4.12 18-9 0-.553.447-1 1-1s1 .447 1 1c0 6.168-8.785 11-20 11z" fill="#FFF"/><path d="M43.536 39.108c.023-.017.023-.042 0-.06l-5.982-.94v4l2.2.864 3.782-3.864z" fill="#A5A5A5"/><circle cx="18.585" cy="27.969" r="2.031" fill="#E0BB80"/><circle cx="14.585" cy="14.969" r="2.031" fill="#E0BB80"/><circle cx="32.523" cy="32.969" r="2.031" fill="#DC9628"/><circle cx="28.554" cy="24" r="2.031" fill="#DC9628"/><circle cx="22.867" cy="24.438" r=".813" fill="#FBD490"/><circle cx="26.742" cy="31.188" r=".813" fill="#DC9628"/><circle cx="33.742" cy="26.813" r=".813" fill="#DC9628"/><circle cx="33.742" cy="18.813" r=".813" fill="#DC9628"/><circle cx="27.367" cy="35.188" r=".813" fill="#DC9628"/><circle cx="15.742" cy="33.188" r=".813" fill="#C6A473"/><circle cx="20.367" cy="34.188" r=".813" fill="#C6A473"/><circle cx="13.742" cy="22.813" r=".813" fill="#C6A473"/><circle cx="18.367" cy="19.813" r=".813" fill="#FBD490"/></svg>