<?xml version="1.0" encoding="iso-8859-1"?>
<!-- Generator: Adobe Illustrator 19.0.0, SVG Export Plug-In . SVG Version: 6.00 Build 0)  -->
<svg version="1.1" id="Layer_1" xmlns="http://www.w3.org/2000/svg" xmlns:xlink="http://www.w3.org/1999/xlink" x="0px" y="0px"
	 viewBox="0 0 512 512" style="enable-background:new 0 0 512 512;" xml:space="preserve">
<path style="fill:#B25719;" d="M512,289.706c0,75.57-45.548,140.502-110.696,168.832c-22.451,9.763-47.241,15.169-73.291,15.169
	c-16.617,0-32.717-2.208-48.029-6.322L251.77,373.65l-69.362-230.366c33.648-69.018,86.351-127.628,145.606-127.628
	C429.634,15.656,512,188.086,512,289.706z"/>
<g>
	<path style="fill:#994811;" d="M401.304,458.538c-22.451,9.763-47.241,15.169-73.291,15.169c-16.617,0-32.717-2.208-48.029-6.322
		L251.77,373.65c15.9-36.402,29.993-50.453,37.333-14.208C298.567,406.151,346.939,437.621,401.304,458.538z"/>
	<path style="fill:#994811;" d="M262.056,304.432C237.99,239.006,278.874,55.832,363.526,22.636
		c-11.49-4.512-23.364-6.98-35.513-6.98c-101.62,0-183.985,172.43-183.985,274.05s82.366,184,183.985,184
		c12.141,0,24.002-1.19,35.486-3.431C278.861,453.74,292.946,388.414,262.056,304.432z"/>
</g>
<path style="fill:#B25719;" d="M349.247,419.585c-64.76,64.76-189.935,99.57-271.541,60.043
	c-13.219-6.394-25.276-14.739-35.77-25.219c-75.241-75.239-40.402-232.057,34.839-307.311l46.466,46.466L349.247,419.585z"/>
<path style="fill:#994811;" d="M78.494,265.133c0,0-57.534,112.831-0.788,214.495c-13.219-6.394-25.276-14.739-35.77-25.219
	c-75.241-75.239-40.402-232.057,34.839-307.311l46.466,46.466L78.494,265.133z"/>
<ellipse transform="matrix(-0.7071 -0.7071 0.7071 -0.7071 163.2589 634.3202)" style="fill:#A3E261;" cx="213.001" cy="283.348" rx="192.666" ry="99.289"/>
<path style="fill:#FFFFFF;" d="M289.103,359.434c-20.001-5.109-55.101-21.223-93.032-59.152
	c-37.93-37.93-54.044-73.032-59.153-93.032c20,5.11,55.101,21.224,93.032,59.154S283.993,339.435,289.103,359.434z"/>
<g>
	<path style="fill:#4D4D4D;" d="M289.104,368.868c-8.35,0-12.515-10.53-6.497-16.261c3.03-2.886,7.754-3.411,11.341-1.256
		c3.37,2.024,5.172,6.064,4.396,9.925C297.472,365.616,293.549,368.868,289.104,368.868z"/>
	<path style="fill:#4D4D4D;" d="M258.983,358.057L258.983,358.057c-6.967-3.417-6.951-13.719,0.121-17.024
		c6.856-3.204,14.725,2.939,13.246,10.375c-0.867,4.364-4.81,7.593-9.258,7.593C261.672,358.992,260.263,358.678,258.983,358.057z
		 M233.765,343.562c-6.244-4.113-5.213-13.899,1.749-16.633c6.902-2.709,14.279,3.603,12.654,10.84
		c-0.955,4.258-4.853,7.364-9.212,7.364C237.118,345.133,235.295,344.586,233.765,343.562z M210.621,326.327
		c-5.628-4.675-3.813-14.025,3.168-16.243c6.912-2.196,13.774,4.273,11.998,11.3c-1.043,4.13-4.884,7.118-9.144,7.118
		C214.454,328.501,212.306,327.723,210.621,326.327z M189.413,306.967L189.413,306.967c-5.074-5.12-2.607-14.13,4.445-15.835
		c6.958-1.682,13.319,5.036,11.255,11.892c-1.183,3.931-4.92,6.695-9.024,6.695C193.597,309.709,191.184,308.725,189.413,306.967z
		 M170.054,285.759L170.054,285.759c-4.457-5.413-1.493-13.919,5.432-15.277c6.84-1.34,12.83,5.271,10.853,11.947
		c-1.169,3.947-4.912,6.736-9.031,6.736C174.518,289.152,171.835,287.914,170.054,285.759z M152.806,262.615
		c-3.902-5.539-0.127-13.537,6.455-14.526c6.713-1.009,12.363,5.494,10.447,12.001c-1.167,3.964-4.893,6.751-9.033,6.751
		C157.534,266.839,154.544,265.23,152.806,262.615z M138.324,237.41L138.324,237.41c-2.894-6.03,1.398-13.319,8.137-13.553
		c6.571-0.228,11.44,6.483,9.19,12.659c-1.339,3.675-4.936,6.199-8.854,6.199C143.223,242.715,139.879,240.629,138.324,237.41z"/>
	<path style="fill:#4D4D4D;" d="M136.916,216.68c-4.03,0-7.676-2.659-8.939-6.472c-1.292-3.895,0.16-8.307,3.519-10.665
		c6.993-4.909,16.638,1.686,14.561,10.002C145.023,213.684,141.182,216.68,136.916,216.68z"/>
	<path style="fill:#4D4D4D;" d="M270.75,337.528c-2.234-4.628-0.288-10.355,4.35-12.609c4.628-2.249,10.355-0.256,12.609,4.362
		c0,0,0,0-0.013,0c3.001,6.132-1.607,13.552-8.461,13.552C275.659,342.833,272.316,340.745,270.75,337.528z M257.487,314.484
		c-3.775-5.704-0.173-13.663,6.62-14.561c6.721-0.889,12.276,5.706,10.239,12.178c-1.218,3.874-4.922,6.595-8.99,6.595
		C262.219,318.696,259.23,317.092,257.487,314.484z M241.459,292.975c-3.274-3.955-2.725-10.006,1.232-13.288
		c3.952-3.277,10.002-2.71,13.275,1.245c5.291,5.856,0.378,15.45-7.254,15.45C245.925,296.368,243.244,295.122,241.459,292.975z
		 M223.268,273.062c-3.634-3.634-3.634-9.704,0-13.338c3.634-3.634,9.704-3.634,13.338,0l0,0c5.818,5.817,1.574,16.091-6.675,16.091
		C227.444,275.802,225.034,274.817,223.268,273.062z M203.355,254.871c-5.627-4.675-3.814-14.025,3.168-16.243
		c6.912-2.196,13.774,4.273,11.998,11.3c-1.043,4.131-4.884,7.118-9.144,7.118C207.188,257.046,205.04,256.267,203.355,254.871z
		 M181.846,238.843c-6.223-4.131-5.222-13.894,1.75-16.634c6.904-2.714,14.286,3.589,12.657,10.836
		c-0.959,4.262-4.848,7.369-9.214,7.369C185.198,240.414,183.378,239.857,181.846,238.843z M158.802,225.593
		c-6.965-3.417-6.954-13.722,0.122-17.022c6.934-3.233,14.83,3.056,13.21,10.536c-0.928,4.284-4.837,7.44-9.221,7.44
		C161.49,226.54,160.082,226.214,158.802,225.593z"/>
</g>
<g>
</g>
<g>
</g>
<g>
</g>
<g>
</g>
<g>
</g>
<g>
</g>
<g>
</g>
<g>
</g>
<g>
</g>
<g>
</g>
<g>
</g>
<g>
</g>
<g>
</g>
<g>
</g>
<g>
</g>
</svg>
