<svg xmlns="http://www.w3.org/2000/svg" viewBox="0 0 512 512"><path d="M512 289.706c0 75.57-45.548 140.502-110.696 168.832-22.45 9.763-47.24 15.17-73.29 15.17-16.618 0-32.718-2.21-48.03-6.323L251.77 373.65l-69.362-230.366c33.648-69.018 86.35-127.628 145.606-127.628 101.62 0 183.986 172.43 183.986 274.05z" fill="#B25719"/><g fill="#994811"><path d="M401.304 458.538c-22.45 9.763-47.24 15.17-73.29 15.17-16.618 0-32.718-2.21-48.03-6.323L251.77 373.65c15.9-36.402 29.993-50.453 37.333-14.208 9.464 46.71 57.836 78.18 112.2 99.096z"/><path d="M262.056 304.432c-24.066-65.426 16.818-248.6 101.47-281.796-11.49-4.512-23.364-6.98-35.513-6.98-101.62 0-183.985 172.43-183.985 274.05s82.366 184 183.985 184c12.14 0 24.002-1.19 35.486-3.43-84.64-16.536-70.56-81.862-101.45-165.844z"/></g><path d="M349.247 419.585c-64.76 64.76-189.935 99.57-271.54 60.043-13.22-6.394-25.277-14.74-35.77-25.22C-33.306 379.17 1.533 222.353 76.774 147.1l46.466 46.466 226.007 226.02z" fill="#B25719"/><path d="M78.494 265.133s-57.534 112.83-.788 214.495c-13.22-6.394-25.276-14.74-35.77-25.22-75.24-75.238-40.402-232.056 34.84-307.31l46.465 46.466-44.74 71.57z" fill="#994811"/><ellipse transform="rotate(-135 213.002 283.35)" cx="213.001" cy="283.348" rx="192.666" ry="99.289" fill="#A3E261"/><path d="M289.103 359.434c-20-5.11-55.1-21.223-93.032-59.152-37.93-37.93-54.04-73.032-59.15-93.032 20 5.11 55.1 21.224 93.03 59.154s54.05 73.03 59.16 93.03z" fill="#FFF"/><path d="M289.104 368.868c-8.35 0-12.515-10.53-6.497-16.26 3.03-2.887 7.754-3.412 11.34-1.257 3.37 2.03 5.173 6.07 4.397 9.93-.872 4.34-4.795 7.59-9.24 7.59zm-30.12-10.81c-6.968-3.418-6.95-13.72.12-17.025 6.856-3.204 14.725 2.94 13.246 10.375-.867 4.364-4.81 7.593-9.258 7.593-1.42 0-2.83-.32-4.11-.94zm-25.22-14.496c-6.243-4.113-5.212-13.9 1.75-16.633 6.9-2.71 14.28 3.6 12.654 10.84-.955 4.25-4.853 7.36-9.212 7.36-1.838 0-3.66-.55-5.19-1.57zm-23.143-17.235c-5.62-4.675-3.81-14.025 3.17-16.243 6.91-2.196 13.78 4.273 12 11.3-1.04 4.13-4.88 7.118-9.14 7.118-2.19 0-4.335-.78-6.02-2.175zm-21.2-19.36c-5.072-5.12-2.605-14.13 4.447-15.835 6.958-1.682 13.32 5.036 11.255 11.892-1.183 3.93-4.92 6.695-9.024 6.695-2.492-.01-4.905-1-6.676-2.76zm-19.36-21.208c-4.454-5.42-1.49-13.92 5.435-15.28 6.84-1.34 12.83 5.27 10.853 11.94-1.17 3.946-4.912 6.735-9.03 6.735-2.79-.013-5.474-1.25-7.255-3.406zm-17.245-23.15c-3.902-5.54-.127-13.54 6.455-14.53 6.713-1.01 12.363 5.492 10.447 12-1.166 3.963-4.892 6.75-9.032 6.75-3.14 0-6.13-1.61-7.87-4.226zM138.33 237.4c-2.893-6.03 1.4-13.32 8.138-13.554 6.572-.228 11.44 6.483 9.19 12.66-1.338 3.674-4.935 6.2-8.853 6.2-3.573 0-6.92-2.087-8.472-5.306zm-1.41-20.73c-4.03 0-7.674-2.66-8.94-6.472-1.29-3.894.16-8.306 3.52-10.664 6.995-4.91 16.64 1.687 14.56 10.003-1.03 4.14-4.872 7.134-9.14 7.134zm133.835 120.85c-2.232-4.628-.286-10.355 4.35-12.61 4.63-2.248 10.357-.255 12.61 4.363h-.012c3 6.135-1.607 13.555-8.46 13.555-3.577 0-6.92-2.087-8.486-5.304zm-13.26-23.044c-3.776-5.704-.174-13.663 6.62-14.56 6.72-.89 12.275 5.705 10.24 12.177-1.22 3.877-4.924 6.598-8.99 6.598-3.14 0-6.128-1.602-7.87-4.21zm-16.03-21.51c-3.276-3.954-2.727-10.005 1.23-13.287 3.95-3.278 10-2.71 13.275 1.244 5.29 5.855.377 15.45-7.255 15.45-2.785-.015-5.466-1.26-7.25-3.408zm-18.193-19.91c-3.634-3.635-3.634-9.705 0-13.34 3.634-3.633 9.704-3.633 13.338 0 5.818 5.818 1.574 16.09-6.675 16.09-2.488-.01-4.898-.996-6.664-2.75zm-19.913-18.19c-5.63-4.677-3.817-14.027 3.165-16.245 6.914-2.194 13.776 4.275 12 11.3-1.042 4.13-4.883 7.12-9.143 7.12-2.19 0-4.337-.78-6.022-2.174zm-21.51-16.03c-6.225-4.13-5.22-13.894 1.75-16.634 6.902-2.717 14.284 3.586 12.655 10.833-.96 4.262-4.846 7.37-9.212 7.37-1.842 0-3.662-.558-5.194-1.57zM158.8 225.59c-6.964-3.415-6.953-13.72.123-17.02 6.934-3.233 14.83 3.056 13.21 10.536-.928 4.284-4.837 7.44-9.22 7.44-1.424-.007-2.832-.333-4.112-.954z" fill="#4D4D4D"/></svg>