<svg height="512" viewBox="0 0 512 512" width="512" xmlns="http://www.w3.org/2000/svg"><path d="M182.48 18.973c-4.69 2.456-6.744 8.097-4.73 12.995 8.372 20.343 35.546 72.026 102.683 96.46 84.654 30.813 148.48-12.402 148.48-12.402S407.8 41.894 323.143 11.082c-67.135-24.436-121.172-2.312-140.66 7.89z" fill="#95d6a4"/><path d="M388.874 52.675c-.073-.018-.153-.042-.246-.087-29.826-14.18-62.64-21.37-97.53-21.37-34.877 0-69.933 7.388-103.068 21.21 14.363 24.244 42.217 57.734 92.404 76 84.654 30.813 148.48-12.402 148.48-12.402s-9.254-32.46-40.04-63.35z" fill="#78c2a4"/><path d="M405 432.056c78.4-78.402 100.176-189.162 60.712-271.963-3.007-6.308-3.153-13.596-.266-19.96 10.16-22.39 8.708-46.186-5.874-60.768-14.594-14.594-38.418-16.036-60.824-5.85-6.358 2.892-13.643 2.75-19.95-.25C296.014 33.91 185.35 55.708 107 134.057 28.6 212.46 6.825 323.22 46.288 406.02c3.007 6.308 3.153 13.596.266 19.96-10.16 22.39-8.708 46.186 5.874 60.768 14.594 14.594 38.418 16.036 60.824 5.85 6.36-2.892 13.644-2.75 19.952.25 82.78 39.356 193.446 17.558 271.796-60.792z" fill="#ffe07d"/><path d="M229.177 427.908c-82.03 0-155.03-38.622-201.834-98.667 1.346 26.95 7.618 53.02 18.944 76.78 3.007 6.31 3.153 13.6.266 19.96-10.16 22.39-8.708 46.19 5.874 60.77 14.594 14.6 38.418 16.04 60.824 5.85 6.36-2.89 13.65-2.75 19.96.25 82.78 39.36 193.447 17.56 271.797-60.79 63.004-63.002 89.43-146.9 76.903-220.394-19 122.49-124.91 216.248-252.726 216.248z" fill="#ffd064"/><path d="M139.13 188.928c-1.442 4.983 1.042 10.25 5.803 12.31 21.387 9.247 83.544 29.845 155.267-3.974 71.75-33.833 95.394-94.93 101.855-117.29 1.435-4.968-1.04-10.218-5.786-12.27-21.37-9.243-83.55-29.872-155.3 3.96-71.725 33.82-95.378 94.88-101.85 117.264z" fill="#b3e59f"/><path d="M330.955 53.146c1.96 3.065 3.674 6.3 5.1 9.713 19.642 47.02-21.092 108.81-90.983 138.01-16.838 7.03-33.83 11.52-50.203 13.64 28.59 3.522 65.48 1.54 105.33-17.25 71.74-33.83 95.38-94.918 101.85-117.28 1.43-4.97-1.03-10.22-5.77-12.28-11.53-4.984-34.94-13.29-65.33-14.563z" fill="#95d6a4"/><path d="M400.497 219.386c-4.267 0-7.726-3.46-7.726-7.726s3.46-7.726 7.73-7.726c4.92 0 8.93-4.003 8.93-8.924 0-4.268 3.46-7.726 7.727-7.726s7.726 3.46 7.726 7.726c0 13.44-10.935 24.376-24.376 24.376zm-30.487 60.99c-4.266 0-7.725-3.46-7.725-7.725s3.46-7.72 7.726-7.72c4.93 0 8.93-4 8.93-8.92 0-4.268 3.46-7.726 7.73-7.726s7.727 3.46 7.727 7.726c0 13.442-10.935 24.377-24.376 24.377zm47.137 14.687c-4.267 0-7.726-3.46-7.726-7.726 0-4.268 3.46-7.726 7.73-7.726 4.92 0 8.93-4 8.93-8.92 0-4.27 3.46-7.72 7.727-7.72s7.726 3.46 7.726 7.727c0 13.44-10.934 24.376-24.376 24.376zM374.14 340.38c-4.266 0-7.725-3.458-7.725-7.725s3.46-7.726 7.726-7.726c4.93 0 8.93-4.01 8.93-8.93 0-4.27 3.46-7.73 7.73-7.73s7.727 3.46 7.727 7.725c0 13.44-10.935 24.376-24.376 24.376zm-65.668-36.99c-4.267 0-7.726-3.46-7.726-7.727 0-4.268 3.46-7.726 7.726-7.726 4.92 0 8.924-4.004 8.924-8.925 0-4.268 3.46-7.726 7.726-7.726s7.726 3.46 7.726 7.726c0 13.442-10.935 24.377-24.376 24.377z" fill="#ffd064"/><path d="M396.285 67.71c-1.097-.475-2.3-.98-3.61-1.505-31.81 6.75-101.882 25.33-159.992 66.873-3.513 2.51-4.484 7.61-1.896 11.067 1.512 2.02 3.834 3.094 6.19 3.094 1.556 0 3.13-.47 4.49-1.45 59.278-42.46 133.883-60.35 160.543-65.68.016-.056.03-.11.047-.165 1.43-4.95-1.043-10.198-5.772-12.244z" fill="#78c2a4"/></svg>