<?xml version="1.0" encoding="utf-8"?>
<!-- Generator: Adobe Illustrator 25.3.1, SVG Export Plug-In . SVG Version: 6.00 Build 0)  -->
<svg version="1.1" id="Layer_1" xmlns="http://www.w3.org/2000/svg" xmlns:xlink="http://www.w3.org/1999/xlink" x="0px" y="0px"
	 viewBox="0 0 716.2 268.5" style="enable-background:new 0 0 716.2 268.5;" xml:space="preserve">
<style type="text/css">
	.st0{fill:#FFFFFF;stroke:url(#SVGID_1_);stroke-width:2;stroke-miterlimit:10;}
	.st1{fill:#FFFFFF;stroke:#FFFFFF;stroke-width:3;stroke-miterlimit:10;}
	.st2{fill:#FFFFFF;stroke:url(#SVGID_2_);stroke-width:2;stroke-miterlimit:10;}
	.st3{fill:url(#SVGID_3_);}
	.st4{fill:url(#SVGID_4_);}
	.st5{fill:url(#SVGID_5_);}
	.st6{fill:url(#SVGID_6_);}
	.st7{fill:url(#SVGID_7_);}
	.st8{fill:url(#SVGID_8_);}
	.st9{fill:#FFFFFF;stroke:#000000;stroke-width:0.5;stroke-miterlimit:10;}
	.st10{fill:#FFFFFF;}
</style>
<g>
	<g id="Layer_2_1_">
		<g id="_ÎÓÈ_1">
			
				<linearGradient id="SVGID_1_" gradientUnits="userSpaceOnUse" x1="115.42" y1="204.5082" x2="134.0138" y2="204.5082" gradientTransform="matrix(1 0 0 -1 0 270)">
				<stop  offset="0" style="stop-color:#BC945C"/>
				<stop  offset="0.28" style="stop-color:#966F40"/>
				<stop  offset="0.42" style="stop-color:#C79B61"/>
				<stop  offset="0.56" style="stop-color:#EEBD7B"/>
				<stop  offset="0.63" style="stop-color:#FDCA85"/>
				<stop  offset="0.71" style="stop-color:#ECBB79"/>
				<stop  offset="0.87" style="stop-color:#BE935B"/>
				<stop  offset="1" style="stop-color:#966F40"/>
			</linearGradient>
			<path class="st0" d="M122.6,55L122.6,55c2.8-0.2,6.1,1.8,7.9,3.8c1.8,1.9,2.7,4.4,2.4,7c-0.3,2.5-1.2,4.8-2.4,7
				c-0.7,1.4-1.7,3-3.4,3.2c-2.4,0.3-5.3-2.2-6.8-3.8c-2.2-2.1-3.6-5-3.9-8.1c-0.1-3,1.1-5.9,3.4-7.8
				C120.6,55.6,121.6,55.1,122.6,55z"/>
			
				<image style="overflow:visible;opacity:0.75;enable-background:new    ;" width="458" height="133" xlink:href="663E02FED120AFBA.png"  transform="matrix(1 0 0 1 132.32 58.22)">
			</image>
			<path class="st1" d="M177.1,170.5c32.2-9.7,48.2-18.7,48.2-27c0-3.5-2.1-7-6.4-10.7c-5.2-4.2-9.1-7.4-11.8-9.5
				c-4.2-3.6-6.4-6.8-6.4-9.7c0-2.3,2.6-5.7,7.9-10.3c5.3-4.5,7.9-8,7.9-10.5c0-2.5-1.3-4.8-3.9-6.8c-7.1-5.5-16.1-9.9-26.9-13.3
				c-6.4-2-16.2-4.2-29.3-6.7c1.2,6.8,3.1,11.7,5.9,14.4c1.3,1.3,3.9,2.6,7.6,3.8c4.8,1.4,7.8,2.5,9,3.2c2.6,1.2,4.3,3.9,4.2,6.8
				c0,2.1-1.6,6-4.9,11.7c-4,7-6.3,11.2-6.8,12.6c-1.7,4.3-3.1,8.8-4.2,13.3c-0.2,1-0.9,5.8-2,14.4c-0.9,6.7-2,11.3-3.5,13.6
				l-0.3-0.9l-0.3,0.9c-0.6-1.8-1-3.7-1.1-5.6c-0.1-1.9-0.4-3.7-1.1-5.4c0-1.5-0.1-3.8-0.2-6.8s-0.2-5.2-0.2-6.8
				c0-4.5,1-11.2,3-19.9s3-15.3,3-19.9c0-2.2-0.2-4.3-0.6-6.5c-0.5-3.4-1-5.3-1.6-5.8c-4.1-3.1-7.2-5.4-9.2-6.9
				c-4-3.2-6.1-6.1-6.1-8.8c0-3.6,3.6-5.3,10.8-5.3c17.9,0,33.5,1.4,46.8,4.2c22,4.6,32.9,12.5,32.9,23.5c0,3.6-1.4,7-3.9,9.5
				c-2.3,2.2-4.7,4.3-7.2,6.2c-2.6,2.1-3.9,3.9-3.9,5.3c0,1.9,2.5,4.1,7.5,6.5c7.1,3.4,11.8,6,14,7.8c5,4.1,7.5,9.2,7.5,15.3
				c0,11.8-6.2,20.5-18.5,26.3c-7.9,3.8-19.2,6.5-34.1,8.1c-5.7,0.7-11.3,1.4-17,2.2c-5.6,0.7-11.3,1.1-17,1.1
				c-6.4,0-9.7-1.1-9.7-3.2l0.1-0.9C165.9,173,173,171.8,177.1,170.5z"/>
			<path class="st1" d="M306.1,153.4c5-1.8,8.9-2.7,11.6-2.7c0.7,0,1.4,0.1,2,0.4l0.3,0.9c0,1-0.8,2.4-2.3,4.5
				c-3.5,4.5-8.5,8.2-15.2,11.1c-5.8,2.6-12.1,4-18.5,4.1c-7.5,0-13.3-2.1-17.5-6.2s-6.2-10-6.2-17.5c0-13.4,4.5-24.6,13.4-33.8
				s20.1-13.7,33.5-13.7c4.3-0.1,8.5,0.9,12.3,3c4.1,2.4,6.4,5.7,6.8,10c0.4,3.6-0.7,7.3-3.2,11.3c-2.9,4.5-7.2,8-12.3,9.8
				c-6.1,2.3-10.9,3.5-14.1,3.5c-4.8,0-7.2-1.5-7.2-4.5c0-1.3,2-2.8,5.9-4.3c3.8-1.4,7.4-3,11-4.9c4-2.4,6.1-5.5,6.4-9.2
				c0.1-1.4-0.5-2.7-1.5-3.6c-1-1-2.4-1.6-3.8-1.6c-8.7,0-15.9,2.9-21.7,8.7c-5.8,5.8-8.7,13-8.7,21.7c-0.2,4.4,1.7,8.7,5,11.6
				c3.4,3,7.8,4.5,12.3,4.4C297.2,156.2,301,155.3,306.1,153.4z"/>
			<path class="st1" d="M359.9,93.2c0.6,0.2,0.9,0.9,0.9,2c0,2-0.9,5.5-2.7,10.4c-2.4,6.5-3.7,10.2-3.9,10.8
				c-2.2,8.1-3.5,16.4-3.6,24.8c0,1.7,0.1,3.5,0.4,5.2c0.9,4.4,2.4,8.6,4.6,12.4c3,5.4,6.3,8.4,9.8,9c-2.6,4-7.1,6.4-11.8,6.4
				c-13.6,0-20.4-9.4-20.4-28.2c0-6.8,0.9-13.6,2.7-20.1C340.6,109.5,348.6,98.6,359.9,93.2z M347,83.7c-0.6,1.6-1.1,3.2-1.2,4.9
				l0.1,0.3L346,89c1.1,0,2.9-0.9,5.5-2.6c1.9-1.1,3.6-2.5,5-4.2c2.6-3.3,4-7.4,4-11.6c0-6-2.8-9-8.5-9c-1.8,0.1-3.7,0.3-5.5,0.7
				c-2.9,0.6-4.4,1.1-4.6,1.6c1.7,2,3.3,4.2,4.6,6.5c1.1,2.4,1.7,5.1,1.6,7.8C348,80.1,347.7,81.9,347,83.7z"/>
			<path class="st1" d="M397.9,100c3.6-2.9,8.1-4.3,13.6-4.3c4.6,0,10.4,2.9,17.3,8.7c6.9,5.8,10.4,10.9,10.4,15.4
				c0,1.1-0.3,2.1-1,2.9c-1.1,0.4-2.2,0.6-3.3,0.6c-3.3-0.1-6.6-0.6-9.9-1.4c-3.2-0.8-6.6-1.2-9.9-1.4c-5,0-8,0-9,0.1
				c-5.9,0.6-10.6,5.2-14.1,13.9c-1.3,3.2-3.2,10.1-5.6,20.8c-0.3,1.8-0.5,3.5-0.4,5.3c0.1,1.8,0.1,3.7-0.1,5.5
				c-0.5,3.6-2.2,5.3-5,5.3c-1.9,0-3.3-4.2-4-12.6c-1-11.7-0.6-23.5,1.3-35.1c0.2-1.3,0.6-5.5,1.2-12.4c0.5-5.5,1.2-9.5,2.2-12
				c0.1-0.4,0.3-0.6,0.6-0.6c0.5,1.9,1.1,3.8,1.9,5.7c1.3,3.8,2.9,5.7,4.6,5.7c1-0.1,1.9-0.4,2.8-1c0.7-1.8,1.7-3.4,3-4.8
				C396.3,101.9,397.6,100.4,397.9,100z"/>
			<path class="st1" d="M508.3,95.7c2.9,0,4.3,4.2,4.3,12.6c0,11.3-0.4,23-1.3,35.1c-0.5,6.3-0.8,10.4-1,12.4
				c-0.6,5.5-1.3,9.5-2.3,12c-0.2,0.4-0.3,0.6-0.4,0.6s-0.9-1.9-2-5.8s-2.6-5.8-4.3-5.8c-0.9,0.1-1.9,0.4-2.6,1
				c-4.5,6.1-7.3,9.5-8.2,10.3c-2.8,2.3-7,3.5-12.6,3.5c-1.8-0.1-3.5-0.6-5.2-1.3c-1.7-0.6-3.4-1.4-4.9-2.4
				c-1.4-1.2-3.1-2.6-5.1-4.3c-1.7-1.5-3.1-3.2-4.3-5.1c-2.8-4.8-5.2-9.4-7.2-13.9c-1.4-3.3-2.9-9.2-4.3-17.9
				c-1.1-6.1-1.7-12.2-1.9-18.3v-6.9c0.4-3.5,1.4-5.2,3-5.2c1.4,0,2.3,1,2.9,3c2.5,13.6,5.9,24.3,10.3,32.1
				c5.6,10.2,12.9,15.3,22.1,15.3c1.7-0.2,3.3-0.8,4.8-1.7c1.7-0.8,3.2-1.8,4.6-3c3.3-3.2,6-7.9,8.1-14.2c0.7-2,2-7.3,4-16l1.1-9
				C506.5,98,507.4,95.7,508.3,95.7z"/>
			<path class="st1" d="M576.1,95.9c2.6,0,5.1,0.2,7.7,0.7c3.7,0.8,5.5,1.9,5.5,3.3c0,2.3-3.2,4.7-9.5,7.1
				c-0.5,0.2-4.8,1.7-12.8,4.6c-3.1,1.3-6.1,2.8-9,4.5c-3.2,13.5-4.9,27.4-5,41.3c0,8.3,2.1,12.9,6.2,14c-2,4.8-4.4,7.2-7.2,7.2
				c-8.8-0.1-13.1-5.8-13.1-17.2c0-0.9,0-2.2,0.1-4s0.1-3.2,0.1-4.1c0-5,1-13,2.9-24c0.1-0.6,0.7-2.9,1.7-6.9c0.6-2.2,1-4.5,1.2-6.8
				c0.1,0,0,0-0.1,0.1s-0.2,0-0.2-0.1c-0.7-0.9-1.4-1.7-2.2-2.6c-1.1-0.9-3.3-1.2-6.8-1c-1.2,0.1-3,0.4-5.4,0.8
				c-1.9,0.4-3.8,0.6-5.7,0.7h-1.2c0.1-1.6,3.9-4.1,11.3-7.5c4.7-2.3,9.5-4.2,14.4-5.8c4.1-13,7.1-20.5,9-22.4
				c0.2-0.1,0.5-0.1,0.7-0.1c2.2,0,3.3,3.4,3.3,10.1c-0.1,3.2-0.4,6.4-1,9.5C565.9,96.4,571,95.9,576.1,95.9z"/>
			
				<linearGradient id="SVGID_2_" gradientUnits="userSpaceOnUse" x1="123.72" y1="172.9369" x2="142.0914" y2="172.9369" gradientTransform="matrix(1 0 0 -1 0 270)">
				<stop  offset="0" style="stop-color:#BC945C"/>
				<stop  offset="0.28" style="stop-color:#966F40"/>
				<stop  offset="0.42" style="stop-color:#C79B61"/>
				<stop  offset="0.56" style="stop-color:#EEBD7B"/>
				<stop  offset="0.63" style="stop-color:#FDCA85"/>
				<stop  offset="0.71" style="stop-color:#ECBB79"/>
				<stop  offset="0.87" style="stop-color:#BE935B"/>
				<stop  offset="1" style="stop-color:#966F40"/>
			</linearGradient>
			<path class="st2" d="M130.6,86.9c2.2-0.4,4.5,0.2,6.4,1.4c2.3,1.8,3.8,4.4,4,7.3c0.3,3.3-0.6,7.7-2.8,10.2s-5.1,1.5-7.3-0.2
				c-3-2.1-5.1-5.2-6-8.8c-0.6-3,0.3-6.7,2.8-8.7C128.5,87.5,129.5,87,130.6,86.9z"/>
			
				<linearGradient id="SVGID_3_" gradientUnits="userSpaceOnUse" x1="872.6938" y1="-760.5299" x2="874.8011" y2="-760.5299" gradientTransform="matrix(6.123234e-17 1 1 -6.123234e-17 1127.3999 -628.12)">
				<stop  offset="0.11" style="stop-color:#E5B553"/>
				<stop  offset="0.48" style="stop-color:#DAAB47"/>
				<stop  offset="1" style="stop-color:#B57D30"/>
			</linearGradient>
			<path class="st3" d="M269.2,245.6c32.5-0.9,65.1-0.7,97.6-1.1c32.5,0.4,65.1,0.1,97.6,1.1c-32.5,0.9-65.1,0.7-97.6,1.1
				C334.3,246.3,301.8,246.5,269.2,245.6z"/>
			
				<linearGradient id="SVGID_4_" gradientUnits="userSpaceOnUse" x1="865.8138" y1="-760.5576" x2="881.6019" y2="-760.5576" gradientTransform="matrix(0 1 1 0 1127.3134 -628.3227)">
				<stop  offset="0.11" style="stop-color:#E5B553"/>
				<stop  offset="0.48" style="stop-color:#DAAB47"/>
				<stop  offset="1" style="stop-color:#B57D30"/>
			</linearGradient>
			<polygon class="st4" points="358.9,245.6 366.8,237.7 374.6,245.6 366.8,253.5 			"/>
			
				<linearGradient id="SVGID_5_" gradientUnits="userSpaceOnUse" x1="871.2963" y1="-779.304" x2="876.1739" y2="-779.304" gradientTransform="matrix(8.429370e-08 1 1 -8.429370e-08 1127.3777 -628.1882)">
				<stop  offset="0.11" style="stop-color:#E5B553"/>
				<stop  offset="0.48" style="stop-color:#DAAB47"/>
				<stop  offset="1" style="stop-color:#B57D30"/>
			</linearGradient>
			<polygon class="st5" points="345.6,245.6 348.1,243.2 350.5,245.6 348.1,248.1 			"/>
			
				<linearGradient id="SVGID_6_" gradientUnits="userSpaceOnUse" x1="870.3282" y1="-772.7602" x2="877.176" y2="-772.7602" gradientTransform="matrix(8.429370e-08 1 1 -8.429370e-08 1127.4089 -628.1086)">
				<stop  offset="0.11" style="stop-color:#E5B553"/>
				<stop  offset="0.48" style="stop-color:#DAAB47"/>
				<stop  offset="1" style="stop-color:#B57D30"/>
			</linearGradient>
			<polygon class="st6" points="351.2,245.6 354.6,242.2 358.1,245.6 354.6,249.1 			"/>
			
				<linearGradient id="SVGID_7_" gradientUnits="userSpaceOnUse" x1="871.274" y1="-741.6653" x2="876.1516" y2="-741.6653" gradientTransform="matrix(-8.429370e-08 1 1 8.429370e-08 1127.3127 -628.3088)">
				<stop  offset="0.11" style="stop-color:#E5B553"/>
				<stop  offset="0.48" style="stop-color:#DAAB47"/>
				<stop  offset="1" style="stop-color:#B57D30"/>
			</linearGradient>
			<polygon class="st7" points="383.2,245.6 385.6,243.2 388.1,245.6 385.6,248 			"/>
			
				<linearGradient id="SVGID_8_" gradientUnits="userSpaceOnUse" x1="870.3263" y1="-748.3159" x2="877.174" y2="-748.3159" gradientTransform="matrix(8.429370e-08 1 1 -8.429370e-08 1127.4106 -628.1193)">
				<stop  offset="0.11" style="stop-color:#E5B553"/>
				<stop  offset="0.48" style="stop-color:#DAAB47"/>
				<stop  offset="1" style="stop-color:#B57D30"/>
			</linearGradient>
			<polygon class="st8" points="375.7,245.6 379.1,242.2 382.5,245.6 379.1,249 			"/>
			<path class="st9" d="M187.3,212.5c0-0.3-0.1-0.6-0.1-1c-0.1-0.3-0.1-0.5-0.2-0.7l0.1-0.1h2.8v5.7l-0.2,0.2h-2.7v-0.2
				c-0.1-0.7-0.5-1.3-1.1-1.6c-0.6-0.5-1.4-0.7-2.2-0.7c-1.2-0.1-2.4,0.4-3.2,1.4c-0.7,1-1.1,2.3-1.1,3.5c0,1.3,0.3,2.5,1,3.5
				c0.7,1,1.8,1.5,3.1,1.5c0.9,0.1,1.7-0.3,2.4-0.9c0.6-0.8,1-1.7,1.1-2.6l3.1,0.4c0,1.4-0.3,2.7-0.9,3.9c-0.6,1-1.4,1.8-2.4,2.3
				c-1,0.5-2.2,0.7-3.4,0.7c-2.8,0.1-5.5-1.5-6.5-4.2c-1.2-3-1.1-6.4,0.2-9.4c0.6-1.2,1.5-2.3,2.7-3c1.1-0.6,2.3-1,3.5-1
				c0.8,0,1.7,0.2,2.4,0.6c0.7,0.3,1.2,0.9,1.4,1.6L187.3,212.5z"/>
			<path class="st9" d="M194.9,226.8c-1.2-0.7-2.1-1.8-2.6-3c-0.6-1.5-0.9-3.1-0.9-4.7c0-1.6,0.3-3.3,1-4.8c0.6-1.3,1.6-2.3,2.8-3.1
				c1.3-0.7,2.8-1.1,4.3-1.1c1.4,0,2.8,0.3,4,1c1.2,0.7,2.1,1.7,2.6,3c0.6,1.5,0.9,3.1,0.9,4.7c0,1.6-0.3,3.3-1,4.8
				c-0.6,1.3-1.6,2.3-2.8,3.1c-1.3,0.7-2.8,1.1-4.3,1C197.5,227.9,196.2,227.5,194.9,226.8z M202.3,222.9c0.8-1,1.2-2.3,1.1-3.6
				c0.1-1.4-0.3-2.7-1.1-3.8c-0.9-0.9-2.1-1.4-3.3-1.3c-1.1,0-2.1,0.4-2.9,1.2c-0.8,1-1.2,2.2-1.1,3.5c-0.1,1.4,0.3,2.8,1.2,3.8
				c0.9,0.9,2.1,1.4,3.3,1.3C200.5,224.1,201.6,223.7,202.3,222.9L202.3,222.9z"/>
			<path class="st9" d="M208.3,227.4v-3.1c0.4,0,0.9,0,1.3-0.2c0.3-0.2,0.5-0.5,0.5-0.9c0.1-0.8,0.2-1.5,0.2-2.3l0.3-4.7
				c0-0.6,0-1,0-1.1c0-0.3,0-0.6-0.2-0.8c-0.1-0.2-0.4-0.3-0.6-0.3c-0.5,0-1,0-1.5,0v-3.2h6.8l4.1,9.7l4.1-9.7h7v3.2
				c-0.5,0-1,0-1.5,0.1c-0.2,0-0.4,0.1-0.6,0.3c-0.1,0.3-0.2,0.6-0.1,0.9c0,0.4,0,0.7,0,1l0.2,4.7c0,0.8,0.1,1.5,0.2,2.3
				c0,0.4,0.2,0.7,0.5,0.9c0.4,0.2,0.9,0.3,1.3,0.2v3.1h-7.9v-3.1c0.6,0,1.1,0,1.7-0.1c0.3,0,0.5-0.1,0.6-0.4c0.1-0.3,0.2-0.6,0.2-1
				v-0.8l-0.2-7l0,0l-4.3,9.5h-2.5l-4.2-9.5l0,0l-0.2,6.9v0.8c0,0.3,0,0.7,0.2,1c0.1,0.2,0.4,0.4,0.6,0.4c0.6,0.1,1.1,0.1,1.7,0.1
				v3.1h-7.9L208.3,227.4z"/>
			<path class="st9" d="M232,227.4v-3.1c0.5,0,1.1,0,1.6-0.1c0.3-0.1,0.5-0.3,0.5-0.5c0.1-0.5,0.1-1,0.1-1.6V216
				c0-0.5,0-1.1-0.1-1.6c-0.1-0.3-0.3-0.5-0.5-0.5c-0.5-0.1-1.1-0.1-1.6-0.1v-3h8v3.1c-0.5,0-1.1,0-1.6,0.1
				c-0.3,0.1-0.5,0.3-0.5,0.5c-0.1,0.5-0.1,1-0.1,1.6v6.2c0,0.5,0,1.1,0.1,1.6c0.1,0.3,0.3,0.5,0.5,0.5c0.5,0.1,1.1,0.1,1.6,0.1v3.1
				L232,227.4L232,227.4z"/>
			<path class="st9" d="M241.4,227.4v-3.1c0.5,0,1.1,0,1.6-0.1c0.3-0.1,0.5-0.3,0.5-0.5c0.1-0.5,0.1-1,0.1-1.6V216
				c0-0.5,0-1.1-0.1-1.6c-0.1-0.3-0.3-0.5-0.5-0.5c-0.5-0.1-1.1-0.1-1.6-0.1v-3h7.2c2.3-0.1,4.6,0.5,6.5,1.9
				c1.7,1.6,2.5,3.8,2.3,6.1c0.2,2.4-0.7,4.8-2.4,6.5c-1.9,1.5-4.2,2.3-6.6,2.2L241.4,227.4L241.4,227.4z M252.7,222.7
				c0.9-1,1.3-2.4,1.2-3.7c0.1-1.2-0.3-2.4-1.2-3.4c-0.9-0.9-2.2-1.3-3.4-1.2h-2.1v9.5h2.3C250.6,223.9,251.8,223.5,252.7,222.7z"/>
			<path class="st9" d="M272.6,223.8c0.1,0.2,0.3,0.4,0.6,0.4c0.4,0.1,0.7,0.2,1.1,0.1v3.1h-7.7v-3.1c0.5,0,1.1,0,1.6-0.2
				c0.3-0.1,0.4-0.4,0.4-0.7c0-0.4-0.1-0.9-0.3-1.3H263c-0.2,0.4-0.3,0.9-0.3,1.3c0,0.3,0.1,0.6,0.4,0.7c0.5,0.1,1.1,0.2,1.6,0.2
				v3.1h-6.9v-3.1c0.4,0,0.8,0,1.1-0.2c0.2-0.1,0.4-0.2,0.6-0.4c0.2-0.3,0.3-0.6,0.4-0.9l2.9-7.9c0.1-0.2,0.1-0.4,0.2-0.6
				c0-0.4-0.3-0.7-0.9-0.7h-1.3v-3h7.2l4.3,12.1C272.4,223.1,272.5,223.5,272.6,223.8z M265.6,215.1c-0.1,0.1-0.1,0.2-0.1,0.3
				l-1.6,4.4h3.7l-1.5-4.4c0-0.1-0.1-0.3-0.1-0.4c0-0.1-0.1-0.1-0.2-0.1C265.7,215,265.7,215,265.6,215.1z"/>
			<path class="st9" d="M288.2,227.4H284v-3.1c0.5,0,1.1,0,1.6-0.1c0.3-0.1,0.5-0.3,0.5-0.5c0.1-0.5,0.1-1,0.1-1.6V216
				c0-0.5,0-1.1-0.1-1.6c-0.1-0.3-0.3-0.5-0.5-0.5c-0.5-0.1-1.1-0.1-1.6-0.1v-3h8.1v3c-0.5,0-1.1,0-1.6,0.1
				c-0.3,0.1-0.5,0.3-0.5,0.5c-0.1,0.5-0.1,1-0.1,1.6v7.9h3.4c0.1,0,0.3,0,0.4-0.2c0.1-0.2,0.2-0.4,0.3-0.6c0.1-0.5,0.2-1,0.2-1.6
				h2.8l-0.2,6L288.2,227.4z"/>
			<path class="st9" d="M298.1,227.4v-3.1c0.5,0,1.1,0,1.6-0.1c0.3-0.1,0.5-0.3,0.5-0.5c0.1-0.5,0.1-1,0.1-1.6V216
				c0-0.5,0-1.1-0.1-1.6c-0.1-0.3-0.3-0.5-0.5-0.5c-0.5-0.1-1.1-0.1-1.6-0.1v-3h8v3.1c-0.5,0-1.1,0-1.6,0.1
				c-0.3,0.1-0.5,0.3-0.5,0.5c-0.1,0.5-0.1,1-0.1,1.6v6.2c0,0.5,0,1.1,0.1,1.6c0.1,0.3,0.3,0.5,0.5,0.5c0.5,0.1,1.1,0.1,1.6,0.1v3.1
				L298.1,227.4L298.1,227.4z"/>
			<path class="st9" d="M320.4,220c0.9,0.7,1.5,1.9,1.4,3.1c0.1,1.3-0.5,2.5-1.5,3.3c-1.2,0.8-2.6,1.2-4,1.1h-8.7v-3.1
				c0.5,0,1.1,0,1.6-0.1c0.3-0.1,0.5-0.3,0.5-0.5c0.1-0.5,0.1-1,0.1-1.6V216c0-0.5,0-1.1-0.1-1.6c-0.1-0.3-0.3-0.5-0.5-0.5
				c-0.5-0.1-1.1-0.1-1.6-0.1v-3h8.3c1.3,0,2.6,0.3,3.7,0.9c1,0.7,1.6,1.8,1.5,3.1c0,1-0.4,2-1.1,2.7c-1,0.9-2.3,1.4-3.6,1.4l0,0
				C317.8,218.9,319.2,219.2,320.4,220z M313.3,214.1v3.5h1.8c0.7,0,1.3-0.2,1.8-0.5c0.5-0.4,0.7-1,0.7-1.6c0-0.4-0.2-0.8-0.6-1.1
				c-0.5-0.3-1.1-0.4-1.7-0.4H313.3z M318.3,222.2c0.1-0.6-0.2-1.2-0.7-1.5c-0.6-0.3-1.3-0.4-2-0.4h-2.3v3.7h2.5
				C317.5,224,318.3,223.4,318.3,222.2z"/>
			<path class="st9" d="M337.6,223.8c0.2,0.2,0.4,0.3,0.6,0.4c0.4,0.1,0.7,0.2,1.1,0.1v3.1h-7.7v-3.1c0.5,0,1.1,0,1.6-0.2
				c0.3-0.1,0.5-0.4,0.4-0.7c0-0.4-0.1-0.9-0.3-1.3h-5.4c-0.2,0.4-0.3,0.9-0.3,1.3c0,0.3,0.1,0.6,0.4,0.7c0.5,0.1,1,0.2,1.6,0.2v3.1
				h-6.9v-3.1c0.4,0,0.8,0,1.1-0.2c0.2-0.1,0.4-0.2,0.6-0.4c0.2-0.3,0.3-0.6,0.4-0.9l2.9-7.9c0.1-0.2,0.1-0.4,0.2-0.6
				c0-0.4-0.3-0.7-0.9-0.7h-1.3v-3h7.2l4.3,12.1C337.3,223.1,337.5,223.5,337.6,223.8z M330.6,215.1c-0.1,0.1-0.1,0.2-0.1,0.3
				l-1.6,4.4h3.7l-1.4-4.3c0-0.1-0.1-0.3-0.1-0.4c0-0.1-0.1-0.1-0.2-0.1C330.7,215,330.6,215.1,330.6,215.1z"/>
			<path class="st9" d="M345.8,223.7c0.1,0.3,0.3,0.5,0.5,0.5c0.5,0.1,1.1,0.1,1.6,0.1v3.1h-7.3v-3.1c0.5,0,1.1,0,1.6-0.1
				c0.3,0,0.5-0.3,0.5-0.5c0.1-0.5,0.1-1,0.1-1.6v-5.9c0-0.5,0-1.1-0.1-1.6c-0.1-0.3-0.3-0.5-0.6-0.5c-0.6-0.1-1.1-0.2-1.7-0.1v-3.2
				h6l7.5,11.3V216c0-0.5,0-1.1-0.1-1.6c-0.1-0.3-0.3-0.5-0.5-0.5c-0.5-0.1-1.1-0.1-1.6-0.1v-3h7.3v3.1c-0.5,0-1.1,0-1.6,0.1
				c-0.3,0.1-0.5,0.3-0.5,0.5c-0.1,0.5-0.1,1-0.1,1.6v11.4h-3.4l-7.6-11.5v6.2C345.6,222.7,345.7,223.2,345.8,223.7z"/>
			<path class="st9" d="M364.6,227.4h-4.2v-3.1c0.5,0,1.1,0,1.6-0.1c0.3-0.1,0.5-0.3,0.5-0.5c0.1-0.5,0.1-1,0.1-1.6V216
				c0-0.5,0-1.1-0.1-1.6c-0.1-0.3-0.3-0.5-0.5-0.5c-0.5-0.1-1.1-0.1-1.6-0.1v-3h12.2l0.2,5.6H370c-0.1-0.4-0.1-0.9-0.3-1.3
				c-0.1-0.2-0.2-0.4-0.3-0.6c-0.1-0.1-0.3-0.1-0.5-0.1h-2.8v3.4l4.5-0.2v2.8l-4.5-0.2v3.8h3.2c0.2,0,0.5-0.1,0.5-0.4
				c0.2-0.5,0.3-1.1,0.3-1.6h2.8l-0.2,5.6L364.6,227.4z"/>
			<path class="st9" d="M379.1,227.2c-0.6-0.4-1.1-0.9-1.3-1.6h-0.2c0,0.6,0.1,1.1,0.3,1.6l-0.1,0.1h-2.8v-5.5l0.2-0.2h2.6
				c0,0.7,0.3,1.3,0.9,1.8c0.7,0.5,1.5,0.8,2.4,0.7c0.6,0,1.2-0.1,1.6-0.5c0.5-0.3,0.7-0.8,0.7-1.3c0-0.4-0.2-0.8-0.5-1.1
				c-0.4-0.3-0.9-0.6-1.4-0.7l-2.3-0.6c-1.2-0.3-2.2-0.8-3.1-1.6c-0.9-0.8-1.4-1.9-1.3-3.1c0-0.9,0.3-1.8,0.8-2.6
				c0.5-0.7,1.2-1.3,2-1.7c0.7-0.4,1.6-0.6,2.4-0.6c0.8,0,1.7,0.2,2.4,0.6c0.6,0.4,1,0.9,1.3,1.5h0.2c0-0.3,0-0.5-0.1-0.8
				c-0.1-0.3-0.1-0.6-0.2-0.9l0.1-0.1h2.9v5.5l-0.2,0.2h-2.8c0-0.7-0.3-1.3-0.9-1.6c-0.7-0.4-1.4-0.6-2.2-0.6c-0.5,0-1,0.1-1.5,0.4
				c-0.4,0.2-0.6,0.6-0.6,1.1c0,0.5,0.1,0.9,0.5,1.2c0.5,0.3,1,0.5,1.6,0.6l1.7,0.4c1.3,0.2,2.5,0.8,3.5,1.7c0.8,0.8,1.2,2,1.2,3.1
				c0,1-0.2,1.9-0.7,2.7c-0.5,0.8-1.2,1.4-2,1.8c-0.8,0.4-1.7,0.6-2.6,0.6C380.7,227.8,379.9,227.6,379.1,227.2z"/>
			<path class="st9" d="M403.1,223.8c0.2,0.2,0.4,0.3,0.6,0.4c0.4,0.1,0.7,0.2,1.1,0.1v3.1h-7.7v-3.1c0.5,0,1.1,0,1.6-0.2
				c0.3-0.1,0.5-0.4,0.4-0.7c0-0.4-0.1-0.9-0.3-1.3h-5.4c-0.2,0.4-0.3,0.9-0.3,1.3c0,0.3,0.1,0.6,0.4,0.7c0.5,0.1,1,0.2,1.6,0.2v3.1
				h-6.9v-3.1c0.4,0,0.8,0,1.1-0.2c0.2-0.1,0.4-0.2,0.6-0.4c0.2-0.3,0.3-0.6,0.4-0.9l2.9-7.9c0.1-0.2,0.1-0.4,0.1-0.6
				c0-0.4-0.3-0.7-0.9-0.7h-1.3v-3h7.2l4.3,12.1C402.8,223.1,402.9,223.5,403.1,223.8z M396.1,215.1c-0.1,0.1-0.1,0.2-0.1,0.3
				l-1.6,4.4h3.7l-1.5-4.3c0-0.1-0.1-0.3-0.1-0.4c0-0.1-0.1-0.1-0.2-0.1C396.2,215,396.1,215.1,396.1,215.1z"/>
			<path class="st10" d="M426.5,227.4l-1.6-1.7c-1.4,1.3-3.2,2-5.1,2c-2.7,0.2-5.1-1.8-5.3-4.5c0-0.1,0-0.3,0-0.4
				c0.1-2.2,1.4-4.2,3.4-5.1v-0.1c-0.9-1-1.4-2.3-1.5-3.6c0-2.3,1.8-4.2,4.2-4.3c0.1,0,0.2,0,0.3,0c2-0.1,3.7,1.4,3.8,3.4
				c0,0.1,0,0.2,0,0.3c0,1.8-1.1,3.3-3.8,4.6v0.1c1.5,1.7,3.1,3.6,4.2,4.8c0.9-1.6,1.5-3.3,1.7-5.1h2.1c-0.3,2.3-1.1,4.5-2.5,6.4
				c0.9,1,1.8,2,2.9,3.1L426.5,227.4z M423.8,224.4c-1-1.1-3-3.2-4.9-5.5c-1.3,0.7-2.2,2-2.2,3.5c0,1.9,1.4,3.5,3.3,3.5
				c0.1,0,0.2,0,0.2,0C421.6,226,422.9,225.4,423.8,224.4L423.8,224.4z M418.6,213.8c0.1,1.2,0.5,2.3,1.3,3.1c1.8-1,2.9-1.9,2.9-3.4
				c0.1-1.1-0.7-2.1-1.8-2.2c-0.1,0-0.1,0-0.2,0c-1.2,0-2.3,1-2.3,2.2C418.5,213.6,418.5,213.7,418.6,213.8L418.6,213.8z"/>
			<path class="st9" d="M442.8,227.4h-4.2v-3.1c0.5,0,1.1,0,1.6-0.1c0.3-0.1,0.5-0.3,0.5-0.5c0.1-0.5,0.1-1,0.1-1.6V216
				c0-0.5,0-1.1-0.1-1.6c-0.1-0.3-0.3-0.5-0.5-0.5c-0.5-0.1-1.1-0.1-1.6-0.1v-3h8.1v3.1c-0.5,0-1.1,0-1.6,0.1
				c-0.3,0.1-0.5,0.3-0.5,0.5c-0.1,0.5-0.1,1-0.1,1.6v7.9h3.4c0.2,0,0.3,0,0.4-0.2c0.1-0.2,0.2-0.4,0.2-0.6c0.1-0.5,0.2-1,0.2-1.6
				h2.8l-0.2,6L442.8,227.4z"/>
			<path class="st9" d="M456,226.8c-1.2-0.7-2.1-1.8-2.6-3c-0.6-1.5-0.9-3.1-0.9-4.7c0-1.6,0.3-3.3,1-4.8c0.6-1.3,1.6-2.3,2.8-3.1
				c1.3-0.7,2.8-1.1,4.3-1.1c1.4,0,2.8,0.3,4,1c1.2,0.7,2.1,1.7,2.6,3c0.6,1.5,0.9,3.1,0.9,4.7c0,1.6-0.3,3.3-1,4.8
				c-0.6,1.3-1.5,2.4-2.8,3.1c-1.3,0.7-2.8,1.1-4.3,1C458.6,227.9,457.2,227.5,456,226.8z M463.4,222.9c0.8-1,1.2-2.3,1.1-3.6
				c0.1-1.4-0.3-2.7-1.1-3.8c-0.9-0.9-2.1-1.4-3.3-1.3c-1.1,0-2.1,0.4-2.9,1.2c-0.8,1-1.2,2.2-1.1,3.5c-0.1,1.4,0.3,2.7,1.2,3.8
				c0.9,0.9,2.1,1.4,3.3,1.3C461.6,224.1,462.6,223.7,463.4,222.9L463.4,222.9z"/>
			<path class="st9" d="M472.7,226c-1.2-1.4-1.8-3.2-1.7-5.1V216c0-0.5,0-1.1-0.1-1.6c0-0.2-0.2-0.4-0.4-0.5
				c-0.4-0.1-0.9-0.1-1.3-0.1v-3h7.7v3.1c-0.6,0-1.2,0-1.8,0.1c-0.3,0.1-0.5,0.3-0.6,0.5c-0.1,0.5-0.2,1-0.1,1.6v4.6
				c-0.1,1,0.3,2,0.9,2.8c0.7,0.7,1.7,1,2.7,1c0.9,0.1,1.9-0.3,2.5-1c0.6-0.8,1-1.8,0.9-2.9V216c0-0.5,0-1.1-0.1-1.6
				c-0.1-0.3-0.3-0.5-0.6-0.5c-0.6-0.1-1.2-0.1-1.8-0.1v-3h7.3v3c-0.4,0-0.9,0-1.3,0.1c-0.2,0.1-0.4,0.3-0.4,0.5
				c-0.1,0.5-0.1,1-0.1,1.6v5.2c0,1.2-0.3,2.4-0.9,3.5c-0.6,1-1.4,1.8-2.4,2.3c-1.1,0.6-2.3,0.9-3.6,0.8
				C475.7,228,473.9,227.3,472.7,226z"/>
			<path class="st9" d="M492.8,223.7c0.1,0.3,0.3,0.5,0.5,0.5c0.5,0.1,1.1,0.1,1.6,0.1v3.1h-7.3v-3.1c0.5,0,1.1,0,1.6-0.1
				c0.3-0.1,0.5-0.3,0.5-0.5c0.1-0.5,0.1-1,0.1-1.6v-5.9c0-0.5,0-1.1-0.1-1.6c-0.1-0.3-0.3-0.5-0.6-0.5c-0.6-0.1-1.1-0.2-1.7-0.1
				v-3.2h6L501,222V216c0-0.5,0-1.1-0.1-1.6c-0.1-0.3-0.3-0.5-0.5-0.5c-0.5-0.1-1.1-0.1-1.6-0.1v-3h7.2v3.1c-0.5,0-1.1,0-1.6,0.1
				c-0.3,0.1-0.5,0.3-0.5,0.5c-0.1,0.5-0.1,1-0.1,1.6v11.4h-3.4l-7.6-11.5v6.2C492.7,222.7,492.7,223.2,492.8,223.7z"/>
			<path class="st9" d="M519.2,227.4l-0.6-1.3c-0.5,0.5-1.1,1-1.8,1.3c-0.7,0.3-1.4,0.5-2.2,0.5c-1.4,0-2.8-0.4-3.9-1.1
				c-1.1-0.8-2-1.8-2.6-3.1c-0.6-1.4-0.9-2.9-0.9-4.4c0-1.7,0.3-3.4,1-4.9c0.6-1.2,1.5-2.3,2.6-3.1c1.1-0.7,2.3-1,3.6-1
				c0.8,0,1.7,0.2,2.4,0.6c0.6,0.4,1.2,0.9,1.5,1.6h0.1c0-0.3-0.1-0.9-0.3-1.6l0.1-0.1h2.8v5.6l-0.1,0.2h-2.7
				c-0.1-0.7-0.5-1.3-1.1-1.7c-0.7-0.5-1.5-0.7-2.3-0.6c-1.2-0.1-2.3,0.4-3.1,1.3c-0.7,1-1,2.2-1,3.4c0,1.3,0.3,2.6,0.9,3.7
				c0.7,1.1,1.9,1.7,3.2,1.6c0.8,0,1.5-0.2,2.2-0.7c0.6-0.4,1-1,1.1-1.6V221l-3.2,0.2v-3.1h6.4v5.8l0.6,3.5L519.2,227.4z"/>
			<path class="st9" d="M527.7,227.4h-4.2v-3.1c0.5,0,1.1,0,1.6-0.1c0.3-0.1,0.5-0.3,0.5-0.5c0.1-0.5,0.1-1,0.1-1.6V216
				c0-0.5,0-1.1-0.1-1.6c-0.1-0.3-0.3-0.5-0.5-0.5c-0.5-0.1-1.1-0.1-1.6-0.1v-3h12.2l0.2,5.6h-2.8c-0.1-0.4-0.1-0.9-0.3-1.3
				c0-0.2-0.2-0.4-0.3-0.6c-0.1-0.1-0.3-0.1-0.5-0.1h-2.8v3.4l4.5-0.2v2.8l-4.5-0.2v3.8h3.2c0.2,0,0.4-0.1,0.5-0.4
				c0.2-0.5,0.3-1.1,0.4-1.6h2.8l-0.2,5.6L527.7,227.4z"/>
		</g>
	</g>
</g>
</svg>
