<?xml version="1.0" encoding="utf-8"?>
<!-- Generator: Adobe Illustrator 25.3.1, SVG Export Plug-In . SVG Version: 6.00 Build 0)  -->
<svg version="1.1" id="Layer_1" xmlns="http://www.w3.org/2000/svg" xmlns:xlink="http://www.w3.org/1999/xlink" x="0px" y="0px"
	 viewBox="0 0 475.3 199.5" style="enable-background:new 0 0 475.3 199.5;" xml:space="preserve">
<style type="text/css">
	.st0{fill:#FFFFFF;stroke:url(#SVGID_1_);stroke-width:2;stroke-miterlimit:10;}
	.st1{fill:#FFFFFF;stroke:#FFFFFF;stroke-width:3;stroke-miterlimit:10;}
	.st2{fill:#FFFFFF;stroke:url(#SVGID_2_);stroke-width:2;stroke-miterlimit:10;}
	.st3{fill:url(#SVGID_3_);}
	.st4{fill:url(#SVGID_4_);}
	.st5{fill:url(#SVGID_5_);}
	.st6{fill:url(#SVGID_6_);}
	.st7{fill:url(#SVGID_7_);}
	.st8{fill:url(#SVGID_8_);}
	.st9{fill:#FFFFFF;stroke:#000000;stroke-width:0.5;stroke-miterlimit:10;}
	.st10{fill:#FFFFFF;}
</style>
<g id="Layer_2-2">
	<g id="_ÎÓÈ_1">
		
			<linearGradient id="SVGID_1_" gradientUnits="userSpaceOnUse" x1="4.2787" y1="-745.6865" x2="19.0393" y2="-745.6865" gradientTransform="matrix(1 0 0 -1 0 -715.97)">
			<stop  offset="0" style="stop-color:#BC945C"/>
			<stop  offset="0.28" style="stop-color:#966F40"/>
			<stop  offset="0.42" style="stop-color:#C79B61"/>
			<stop  offset="0.56" style="stop-color:#EEBD7B"/>
			<stop  offset="0.63" style="stop-color:#FDCA85"/>
			<stop  offset="0.71" style="stop-color:#ECBB79"/>
			<stop  offset="0.87" style="stop-color:#BE935B"/>
			<stop  offset="1" style="stop-color:#966F40"/>
		</linearGradient>
		<path class="st0" d="M10,21.6L10,21.6c2.2-0.2,4.7,1.4,6.1,2.9c1.4,1.5,2.1,3.4,1.8,5.4c-0.3,1.9-0.9,3.7-1.8,5.4
			c-0.5,1.1-1.3,2.3-2.6,2.5c-1.8,0.2-4.1-1.7-5.2-2.9c-1.7-1.6-2.8-3.8-3-6.2c-0.1-2.3,0.8-4.5,2.6-6C8.5,22,9.3,21.7,10,21.6z"/>
		
			<image style="overflow:visible;opacity:0.75;enable-background:new    ;" width="457" height="133" xlink:href="B8F988648D63DCA8.png"  transform="matrix(0.9919 0 0 0.9754 12.1032 25.8709)">
		</image>
		<path class="st1" d="M56.4,135.3c31.8-9.5,47.7-18.2,47.7-26.3c0-3.3-2.1-6.8-6.3-10.4c-5.2-4.1-9.1-7.2-11.7-9.3
			c-4.2-3.4-6.3-6.7-6.3-9.4c0-2.2,2.6-5.6,7.9-10c5.3-4.4,7.9-7.8,7.9-10.3s-1.3-4.6-3.9-6.7c-7.1-5.4-15.9-9.7-26.6-12.9
			c-6.4-2-16-4.1-29-6.5c1.1,6.7,3.1,11.3,5.9,14.1c1.3,1.3,3.9,2.5,7.6,3.6c3.1,0.8,6.1,1.9,9,3.1c2.6,1.2,4.3,3.8,4.2,6.6
			c0,2.1-1.7,5.9-5,11.4c-4,6.8-6.2,10.9-6.7,12.2c-1.7,4.2-3.1,8.5-4.2,12.9c-0.2,1-0.9,5.6-2,14.1c-0.9,6.6-2,11-3.4,13.2
			l-0.3-0.9l-0.3,0.9c-0.6-1.8-1-3.5-1-5.4c-0.1-1.8-0.4-3.6-1.1-5.3c0-1.5-0.1-3.7-0.2-6.7c-0.1-2.9-0.2-5.1-0.2-6.6
			c0-4.4,1-10.9,3-19.4s3-15,3-19.4c0-2.2-0.2-4.2-0.6-6.4c-0.5-3.2-1-5.2-1.6-5.6c-4.2-3-7.2-5.3-9.3-6.7c-4-3.1-6-6-6-8.6
			c0-3.4,3.6-5.2,10.6-5.2c17.7,0,33.1,1.4,46.4,4.1c21.8,4.5,32.6,12.1,32.6,22.9c0,3.4-1.4,6.7-3.9,9.3c-2.3,2.2-4.7,4.2-7.2,6.1
			c-2.6,2.1-3.9,3.8-3.9,5.2c0,1.9,2.5,4,7.5,6.4c7.1,3.3,11.6,5.9,13.8,7.6c5,4,7.5,9,7.5,14.9c0,11.4-6.1,20-18.3,25.6
			c-7.8,3.6-19.1,6.3-33.7,7.9c-5.7,0.7-11.2,1.4-16.8,2.2c-5.6,0.7-11.2,1.1-16.8,1.1c-6.4,0-9.5-1.1-9.5-3.1l0.1-0.9
			C45.3,137.7,52.4,136.5,56.4,135.3z"/>
		<path class="st1" d="M184.1,118.7c5-1.8,8.9-2.6,11.5-2.6c0.7,0,1.4,0.1,2,0.4l0.3,0.9c0,1-0.8,2.3-2.3,4.3
			c-3.4,4.4-8.5,8-15,10.9c-5.8,2.5-12,3.8-18.3,3.9c-7.5,0-13.2-2.1-17.3-6.1c-4.1-4-6.2-9.7-6.2-17c0-13,4.5-24,13.3-32.9
			S172,67,185.3,67c4.3-0.1,8.5,0.9,12.1,2.9c4.1,2.3,6.4,5.6,6.8,9.8c0.4,3.4-0.7,7.1-3.2,11c-2.9,4.4-7.2,7.8-12.1,9.6
			c-6.1,2.2-10.7,3.4-14,3.4c-4.8,0-7.2-1.5-7.2-4.4c0-1.3,2-2.7,5.9-4.2c3.8-1.4,7.4-2.9,10.8-4.8c3.9-2.3,6-5.4,6.3-9
			c0.1-1.4-0.5-2.6-1.5-3.5c-1-1-2.4-1.6-3.8-1.6c-8.6,0-15.7,2.8-21.5,8.4c-5.7,5.6-8.6,12.6-8.6,21.1c-0.2,4.3,1.7,8.5,5,11.3
			c3.4,2.9,7.8,4.4,12.2,4.3C175.3,121.3,179.1,120.4,184.1,118.7z"/>
		<path class="st1" d="M237.3,60.1c0.6,0.2,0.9,0.9,0.9,2c0,2-0.9,5.3-2.7,10.1c-2.4,6.4-3.7,9.9-3.9,10.6c-2.2,7.9-3.4,16-3.6,24.2
			c0,1.7,0.1,3.4,0.4,5.1c0.8,4.2,2.4,8.3,4.6,12.1c3,5.3,6.2,8.2,9.7,8.8c-2.6,3.9-7,6.3-11.7,6.2c-13.4,0-20.2-9.1-20.2-27.4
			c0-6.7,0.9-13.2,2.7-19.6C218.3,75.9,226.2,65.3,237.3,60.1z M224.5,50.8c-0.6,1.6-1.1,3.1-1.2,4.8l0.1,0.3l0.1,0.1
			c1.1,0,2.9-0.9,5.5-2.5c1.9-1.1,3.5-2.4,5-4.1c2.6-3.2,4-7.1,4-11.2c0-5.9-2.8-8.8-8.5-8.8c-1.8,0.1-3.7,0.3-5.5,0.7
			c-2.9,0.6-4.4,1.1-4.6,1.6c1.7,2,3.3,4.1,4.6,6.4c1.1,2.3,1.7,5,1.6,7.6C225.5,47.3,225.2,49.1,224.5,50.8z"/>
		<path class="st1" d="M274.9,66.6c3.5-2.8,8-4.2,13.4-4.2c4.6,0,10.2,2.8,17.1,8.4s10.2,10.7,10.2,15.1c0,1.1-0.3,2.1-1,2.8
			c-1,0.4-2.2,0.6-3.3,0.6c-3.3-0.1-6.6-0.6-9.7-1.4c-3.2-0.8-6.5-1.2-9.7-1.4c-5,0-8,0-9,0.1c-5.8,0.6-10.4,5.1-14,13.5
			c-1.3,3.1-3.2,9.9-5.6,20.2c-0.3,1.8-0.5,3.4-0.4,5.2c0.1,1.8,0.1,3.6-0.1,5.4c-0.5,3.4-2.1,5.2-5,5.2c-1.9,0-3.3-4.1-4-12.2
			c-1-11.3-0.6-22.9,1.3-34.1c0.2-1.3,0.6-5.3,1.2-12.1c0.5-5.4,1.2-9.2,2.2-11.6c0.1-0.4,0.3-0.6,0.6-0.6c0.5,1.9,1.1,3.7,1.9,5.6
			c1.3,3.7,2.9,5.6,4.6,5.6c1-0.1,1.9-0.4,2.7-1c0.7-1.8,1.7-3.3,3-4.6C273.4,68.5,274.7,67,274.9,66.6z"/>
		<path class="st1" d="M384.3,62.4c2.9,0,4.3,4.1,4.3,12.2c0,11.1-0.4,22.4-1.3,34.1c-0.5,6.1-0.8,10.1-1,12.1
			c-0.6,5.4-1.3,9.3-2.3,11.6c-0.2,0.4-0.3,0.6-0.4,0.6c-0.8-1.9-1.5-3.7-2-5.7c-1.1-3.7-2.6-5.7-4.3-5.7c-0.9,0.1-1.8,0.4-2.6,1
			c-4.5,5.9-7.2,9.2-8.2,10c-2.8,2.2-6.9,3.4-12.4,3.3c-1.8-0.1-3.5-0.6-5.2-1.3c-1.7-0.6-3.4-1.4-4.9-2.3c-1.4-1.2-3.1-2.5-5-4.2
			c-1.7-1.5-3.1-3-4.3-4.9c-2.8-4.7-5.2-9.2-7.2-13.5c-1.4-3.2-2.9-9-4.3-17.4c-1.1-5.9-1.7-11.8-1.9-17.9v-6.7
			c0.4-3.3,1.4-5.1,3-5.1c1.3,0,2.3,1,2.9,2.9c2.5,13.2,5.9,23.6,10.1,31.2c5.5,10,12.7,14.9,21.9,14.9c1.7-0.2,3.3-0.8,4.7-1.7
			c1.6-0.8,3.2-1.8,4.6-2.9c3.3-3.1,5.9-7.7,8.1-13.8c0.7-2,2-7.1,4-15.6l1.1-8.8C382.5,64.7,383.3,62.4,384.3,62.4z"/>
		<path class="st1" d="M451.3,62.7c2.6,0,5.1,0.2,7.6,0.7c3.6,0.8,5.5,1.9,5.5,3.2c0,2.2-3.2,4.6-9.4,6.8c-0.5,0.2-4.7,1.7-12.7,4.5
			c-3.1,1.3-6.1,2.7-9,4.3c-3.2,13.2-4.9,26.7-5,40.2c0,8,2.1,12.6,6.2,13.6c-2,4.7-4.4,7-7.2,7c-8.7-0.1-13-5.7-13-16.7
			c0-0.9,0-2.2,0.1-3.9c0.1-1.8,0.1-3.1,0.1-3.9c0-4.9,1-12.6,2.9-23.4c0.1-0.6,0.7-2.8,1.7-6.7c0.6-2.2,1-4.4,1.1-6.7
			c0.1,0,0,0-0.1,0.1c-0.1,0.1-0.2,0-0.1-0.1c-0.7-0.9-1.4-1.7-2.1-2.5c-1.1-0.9-3.3-1.2-6.8-1c-1.2,0.1-3,0.4-5.4,0.8
			c-1.9,0.4-3.8,0.6-5.7,0.6h-1c0.1-1.6,3.8-4,11.1-7.3c4.6-2.2,9.4-4.1,14.3-5.6c4.1-12.6,7.1-20,9-21.8c0.2-0.1,0.5-0.1,0.7-0.1
			c2.2,0,3.3,3.3,3.3,9.9c-0.1,3.1-0.4,6.3-1,9.3C441.3,63.3,446.3,62.7,451.3,62.7z"/>
		
			<linearGradient id="SVGID_2_" gradientUnits="userSpaceOnUse" x1="10.6483" y1="-769.8413" x2="25.2287" y2="-769.8413" gradientTransform="matrix(1 0 0 -1 0 -715.97)">
			<stop  offset="0" style="stop-color:#BC945C"/>
			<stop  offset="0.28" style="stop-color:#966F40"/>
			<stop  offset="0.42" style="stop-color:#C79B61"/>
			<stop  offset="0.56" style="stop-color:#EEBD7B"/>
			<stop  offset="0.63" style="stop-color:#FDCA85"/>
			<stop  offset="0.71" style="stop-color:#ECBB79"/>
			<stop  offset="0.87" style="stop-color:#BE935B"/>
			<stop  offset="1" style="stop-color:#966F40"/>
		</linearGradient>
		<path class="st2" d="M16.2,46.1c1.7-0.3,3.5,0.2,4.9,1.1c1.8,1.4,2.9,3.4,3.1,5.6c0.2,2.5-0.5,5.9-2.2,7.8
			c-1.7,1.9-3.9,1.2-5.6-0.2c-2.3-1.6-3.9-4-4.6-6.8c-0.5-2.3,0.2-5.1,2.2-6.7C14.6,46.5,15.3,46.2,16.2,46.1z"/>
		
			<linearGradient id="SVGID_3_" gradientUnits="userSpaceOnUse" x1="188.26" y1="626.45" x2="190.36" y2="626.45" gradientTransform="matrix(0 1 1 0 -376.05 -2.67)">
			<stop  offset="0.11" style="stop-color:#E5B553"/>
			<stop  offset="0.48" style="stop-color:#DAAB47"/>
			<stop  offset="1" style="stop-color:#B57D30"/>
		</linearGradient>
		<path class="st3" d="M152.8,186.6c32.5-0.9,65.1-0.7,97.6-1c32.5,0.4,65.1,0.1,97.6,1c-32.5,0.9-65.1,0.7-97.6,1.1
			C217.9,187.3,185.3,187.5,152.8,186.6z"/>
		
			<linearGradient id="SVGID_4_" gradientUnits="userSpaceOnUse" x1="177.819" y1="623.8883" x2="193.5988" y2="623.8883" gradientTransform="matrix(0 1.0041 1.0041 0 -376.1462 3.0338)">
			<stop  offset="0.11" style="stop-color:#E5B553"/>
			<stop  offset="0.48" style="stop-color:#DAAB47"/>
			<stop  offset="1" style="stop-color:#B57D30"/>
		</linearGradient>
		<polygon class="st4" points="242.4,186.6 250.3,178.7 258.2,186.6 250.3,194.5 		"/>
		
			<linearGradient id="SVGID_5_" gradientUnits="userSpaceOnUse" x1="183.5494" y1="604.9592" x2="188.4294" y2="604.9592" gradientTransform="matrix(1.752019e-04 1.0041 1.0041 -1.752019e-04 -375.8216 3.1735)">
			<stop  offset="0.11" style="stop-color:#E5B553"/>
			<stop  offset="0.48" style="stop-color:#DAAB47"/>
			<stop  offset="1" style="stop-color:#B57D30"/>
		</linearGradient>
		<polygon class="st5" points="229.2,186.6 231.6,184.2 234.1,186.6 231.6,189.1 		"/>
		
			<linearGradient id="SVGID_6_" gradientUnits="userSpaceOnUse" x1="182.5794" y1="611.4614" x2="189.4293" y2="611.4614" gradientTransform="matrix(1.752019e-04 1.0041 1.0041 -1.752019e-04 -375.8004 3.2488)">
			<stop  offset="0.11" style="stop-color:#E5B553"/>
			<stop  offset="0.48" style="stop-color:#DAAB47"/>
			<stop  offset="1" style="stop-color:#B57D30"/>
		</linearGradient>
		<polygon class="st6" points="234.8,186.6 238.2,183.2 241.6,186.6 238.2,190.1 		"/>
		
			<linearGradient id="SVGID_7_" gradientUnits="userSpaceOnUse" x1="183.0286" y1="643.0392" x2="187.8986" y2="643.0392" gradientTransform="matrix(-1.752019e-04 1.0041 1.0041 1.752019e-04 -376.3936 3.048)">
			<stop  offset="0.11" style="stop-color:#E5B553"/>
			<stop  offset="0.48" style="stop-color:#DAAB47"/>
			<stop  offset="1" style="stop-color:#B57D30"/>
		</linearGradient>
		<polygon class="st7" points="266.8,186.6 269.2,184.2 271.7,186.6 269.2,189 		"/>
		
			<linearGradient id="SVGID_8_" gradientUnits="userSpaceOnUse" x1="182.5794" y1="635.8046" x2="189.4293" y2="635.8046" gradientTransform="matrix(1.752019e-04 1.0041 1.0041 -1.752019e-04 -375.7934 3.2442)">
			<stop  offset="0.11" style="stop-color:#E5B553"/>
			<stop  offset="0.48" style="stop-color:#DAAB47"/>
			<stop  offset="1" style="stop-color:#B57D30"/>
		</linearGradient>
		<polygon class="st8" points="259.2,186.6 262.7,183.2 266.1,186.6 262.7,190.1 		"/>
		<path class="st9" d="M88.1,159.3c0-0.3-0.1-0.6-0.1-0.9c-0.1-0.3-0.1-0.4-0.2-0.6l0.1-0.1h2.5v5l-0.2,0.2h-2.4v-0.2
			c-0.1-0.6-0.5-1.1-1-1.4c-0.5-0.4-1.3-0.6-2-0.6c-1.1-0.1-2.2,0.3-2.9,1.2c-0.6,0.9-1,2-1,3c0,1.1,0.3,2.2,0.9,3.1
			c0.6,0.9,1.6,1.3,2.7,1.3c0.8,0.1,1.5-0.3,2.2-0.8c0.5-0.7,0.9-1.5,1-2.3l2.8,0.3c0,1.2-0.3,2.4-0.8,3.4c-0.5,0.9-1.3,1.6-2.2,2
			c-0.9,0.4-2,0.6-3,0.6c-2.5,0.1-5-1.3-5.9-3.7c-1.1-2.6-1-5.6,0.2-8.2c0.5-1,1.4-2,2.4-2.6c1-0.5,2.1-0.9,3.2-0.9
			c0.7,0,1.5,0.2,2.2,0.5c0.6,0.3,1.1,0.8,1.3,1.4H88.1z"/>
		<path class="st9" d="M95,171.8c-1.1-0.6-1.9-1.6-2.4-2.6c-0.5-1.3-0.8-2.7-0.8-4.1s0.3-2.9,0.9-4.2c0.5-1.1,1.4-2,2.5-2.7
			c1.2-0.6,2.5-1,3.9-1c1.3,0,2.5,0.3,3.6,0.9c1.1,0.6,1.9,1.6,2.4,2.6c0.5,1.3,0.8,2.7,0.8,4.1c0,1.4-0.3,2.9-0.9,4.2
			c-0.5,1.1-1.4,2-2.5,2.7c-1.2,0.6-2.5,1-3.9,1C97.3,172.8,96.1,172.4,95,171.8z M101.7,168.4c0.7-0.9,1.1-2,1-3.1
			c0.1-1.2-0.3-2.4-1-3.3c-0.8-0.8-1.9-1.2-3-1.1c-1,0-1.9,0.3-2.6,1c-0.7,0.9-1.1,1.9-1,3c-0.1,1.2,0.3,2.4,1.1,3.4
			c0.8,0.8,1.9,1.2,3,1.1C100,169.4,100.9,169.1,101.7,168.4L101.7,168.4z"/>
		<path class="st9" d="M107,172.3v-2.6c0.4,0,0.8,0,1.2-0.2c0.3-0.2,0.5-0.4,0.5-0.8c0.1-0.7,0.2-1.3,0.2-2l0.3-4.1v-1
			c0-0.3,0-0.5-0.2-0.7c-0.1-0.2-0.4-0.3-0.5-0.3c-0.5,0-0.9,0-1.3,0v-2.8h6.1l3.7,8.4l3.8-8.4h6.3v2.8c-0.5,0-0.9,0-1.3,0.1
			c-0.2,0-0.5,0.1-0.5,0.3c-0.1,0.3-0.2,0.5-0.2,0.8v0.9l0.2,4.1c0,0.7,0.1,1.3,0.2,2c0,0.3,0.2,0.6,0.5,0.8
			c0.4,0.2,0.8,0.3,1.2,0.2v2.7h-7.1v-2.7c0.5,0,1,0,1.5-0.1c0.3,0,0.5-0.1,0.5-0.3c0.1-0.3,0.2-0.6,0.2-0.9v-0.7l-0.2-6.1l0,0
			l-3.9,8.3h-2.3l-3.8-8.3l0,0l-0.2,6v0.7c0,0.3,0,0.6,0.2,0.9c0.1,0.2,0.4,0.3,0.5,0.3c0.5,0.1,1,0.1,1.5,0.1v2.7h-7L107,172.3z"/>
		<path class="st9" d="M128.4,172.3v-2.6c0.5,0,1,0,1.4-0.1c0.3-0.1,0.5-0.3,0.5-0.4c0.1-0.4,0.1-0.9,0.1-1.4v-5.4
			c0-0.4,0-1-0.1-1.4c-0.1-0.3-0.3-0.4-0.5-0.4c-0.5-0.1-1-0.1-1.4-0.1v-2.6h7.2v2.7c-0.5,0-1,0-1.4,0.1c-0.3,0.1-0.5,0.3-0.5,0.4
			c-0.1,0.4-0.1,0.9-0.1,1.4v5.4c0,0.4,0,1,0.1,1.4c0.1,0.3,0.3,0.4,0.5,0.4c0.5,0.1,1,0.1,1.4,0.1v2.6L128.4,172.3L128.4,172.3z"/>
		<path class="st9" d="M137,172.3v-2.6c0.5,0,1,0,1.4-0.1c0.3-0.1,0.5-0.3,0.5-0.4c0.1-0.4,0.1-0.9,0.1-1.4v-5.4c0-0.4,0-1-0.1-1.4
			c-0.1-0.3-0.3-0.4-0.5-0.4c-0.5-0.1-1-0.1-1.4-0.1v-2.6h6.5c2.1-0.1,4.2,0.4,5.9,1.7c1.5,1.4,2.3,3.3,2.1,5.3
			c0.2,2.1-0.6,4.2-2.2,5.7c-1.7,1.3-3.8,2-6,1.9L137,172.3L137,172.3z M147.2,168.2c0.8-0.9,1.2-2.1,1.1-3.2c0.1-1-0.3-2.1-1-3
			c-0.8-0.8-2-1.1-3.1-1h-1.9v8.3h2C145.3,169.3,146.4,168.9,147.2,168.2L147.2,168.2z"/>
		<path class="st9" d="M165.2,169.2c0.1,0.2,0.3,0.3,0.5,0.3c0.4,0.1,0.6,0.2,1,0.1v2.6h-7v-2.6c0.5,0,1,0,1.4-0.2
			c0.3-0.1,0.4-0.3,0.4-0.6c0-0.3-0.1-0.8-0.3-1.1h-4.8c-0.2,0.3-0.3,0.8-0.3,1.1c0,0.3,0.2,0.5,0.4,0.6c0.5,0.1,0.9,0.2,1.4,0.2
			v2.7h-6.2v-2.7c0.4,0,0.7,0,1-0.2c0.2-0.1,0.4-0.2,0.5-0.3c0.2-0.3,0.3-0.5,0.4-0.8l2.6-6.9c0.1-0.2,0.1-0.3,0.2-0.5
			c0-0.3-0.3-0.6-0.8-0.6h-1.2v-2.6h6.5l3.9,10.5C164.9,168.7,165,168.9,165.2,169.2z M158.9,161.6c-0.1,0.1-0.1,0.2-0.1,0.3
			l-1.4,3.8h3.3l-1.4-3.8c0-0.1-0.1-0.3-0.1-0.3s-0.1-0.1-0.2-0.1C159,161.5,158.9,161.6,158.9,161.6L158.9,161.6z"/>
		<path class="st9" d="M179.2,172.3h-3.8v-2.6c0.5,0,1,0,1.4-0.1c0.3-0.1,0.5-0.3,0.5-0.4c0.1-0.4,0.1-0.9,0.1-1.4v-5.4
			c0-0.4,0-1-0.1-1.4c-0.1-0.3-0.3-0.4-0.5-0.4c-0.5-0.1-1-0.1-1.4-0.1v-2.6h7.2v2.6c-0.5,0-1,0-1.4,0.1c-0.3,0.1-0.5,0.3-0.5,0.4
			c-0.1,0.4-0.1,0.9-0.1,1.4v6.9h3.1c0.1,0,0.3,0,0.4-0.1c0.1-0.2,0.2-0.3,0.3-0.5c0.1-0.4,0.2-0.9,0.2-1.4h2.5l-0.2,5.2
			L179.2,172.3z"/>
		<path class="st9" d="M188.3,172.3v-2.6c0.5,0,1,0,1.4-0.1c0.3-0.1,0.5-0.3,0.5-0.4c0.1-0.4,0.1-0.9,0.1-1.4v-5.4
			c0-0.4,0-1-0.1-1.4c-0.1-0.3-0.3-0.4-0.5-0.4c-0.5-0.1-1-0.1-1.4-0.1v-2.6h7.2v2.7c-0.5,0-1,0-1.4,0.1c-0.3,0.1-0.5,0.3-0.5,0.4
			c-0.1,0.4-0.1,0.9-0.1,1.4v5.4c0,0.4,0,1,0.1,1.4c0.1,0.3,0.3,0.4,0.5,0.4c0.5,0.1,1,0.1,1.4,0.1v2.6L188.3,172.3L188.3,172.3z"/>
		<path class="st9" d="M208.3,165.9c0.8,0.6,1.4,1.7,1.3,2.7c0.1,1.1-0.5,2.2-1.4,2.9c-1.1,0.7-2.4,1-3.6,1h-7.9v-2.6
			c0.5,0,1,0,1.4-0.1c0.3-0.1,0.5-0.3,0.5-0.4c0.1-0.4,0.1-0.9,0.1-1.4v-5.5c0-0.4,0-1-0.1-1.4c-0.1-0.3-0.3-0.4-0.5-0.4
			c-0.5-0.1-1-0.1-1.4-0.1v-2.6h7.5c1.2-0.1,2.4,0.3,3.3,0.8c0.9,0.6,1.4,1.6,1.4,2.7c0,0.9-0.4,1.7-1,2.4c-0.9,0.8-2.1,1.2-3.3,1.2
			l0,0C206.1,164.9,207.3,165.3,208.3,165.9z M202,160.7v3h1.6c0.6,0,1.2-0.2,1.6-0.4c0.4-0.3,0.6-0.9,0.5-1.4c0-0.3-0.2-0.7-0.5-1
			c-0.5-0.3-1-0.3-1.5-0.3L202,160.7L202,160.7z M206.5,167.8c0.1-0.5-0.2-1-0.6-1.3c-0.5-0.3-1.2-0.3-1.8-0.3H202v3.2h2.3
			C205.8,169.4,206.5,168.8,206.5,167.8L206.5,167.8z"/>
		<path class="st9" d="M224,169.2c0.2,0.2,0.4,0.3,0.5,0.3c0.4,0.1,0.6,0.2,1,0.1v2.6h-7v-2.6c0.5,0,0.9,0,1.4-0.2
			c0.3-0.1,0.5-0.3,0.4-0.6c0-0.3-0.1-0.8-0.3-1.1h-4.9c-0.2,0.3-0.3,0.8-0.3,1.1c0,0.3,0.1,0.5,0.4,0.6c0.5,0.1,0.9,0.2,1.4,0.2
			v2.7h-6.2v-2.7c0.4,0,0.7,0,1-0.2c0.2-0.1,0.4-0.2,0.5-0.3c0.2-0.3,0.3-0.5,0.4-0.8l2.6-6.9c0.1-0.2,0.1-0.3,0.1-0.5
			c0-0.3-0.3-0.6-0.8-0.6h-1.2v-2.6h6.5l3.9,10.5C223.7,168.7,223.8,168.9,224,169.2z M217.6,161.6c-0.1,0.1-0.1,0.2-0.1,0.3
			l-1.4,3.8h3.3l-1.3-3.7c0-0.1-0.1-0.3-0.1-0.3c0-0.1-0.1-0.1-0.2-0.1S217.6,161.6,217.6,161.6z"/>
		<path class="st9" d="M231.3,169.1c0.1,0.3,0.3,0.4,0.5,0.4c0.5,0.1,1,0.1,1.4,0.1v2.6h-6.6v-2.6c0.5,0,1,0,1.4-0.1
			c0.3,0,0.5-0.3,0.5-0.4c0.1-0.4,0.1-0.9,0.1-1.4v-5.1c0-0.4,0-1-0.1-1.4c-0.1-0.3-0.3-0.4-0.5-0.5c-0.5-0.1-1-0.2-1.5-0.1v-2.8
			h5.4l6.8,9.8v-5.2c0-0.4,0-1-0.1-1.4c-0.1-0.3-0.3-0.4-0.5-0.4c-0.5-0.1-1-0.1-1.4-0.1v-2.6h6.6v2.7c-0.5,0-1,0-1.4,0.1
			c-0.3,0.1-0.5,0.3-0.5,0.4c-0.1,0.4-0.1,0.9-0.1,1.4v9.9h-3.1l-6.9-10v5.4C231.2,168.2,231.2,168.7,231.3,169.1z"/>
		<path class="st9" d="M248.3,172.3h-3.8v-2.6c0.5,0,1,0,1.4-0.1c0.3-0.1,0.5-0.3,0.5-0.4c0.1-0.4,0.1-0.9,0.1-1.4v-5.4
			c0-0.4,0-1-0.1-1.4c-0.1-0.3-0.3-0.4-0.5-0.4c-0.5-0.1-1-0.1-1.4-0.1v-2.6h11l0.2,4.9h-2.5c-0.1-0.3-0.1-0.8-0.3-1.1
			c0-0.2-0.2-0.3-0.3-0.5c-0.1-0.1-0.3-0.1-0.5-0.1h-2.5v3l4.1-0.2v2.4l-4.1-0.2v3.3h2.9c0.2,0,0.5-0.1,0.5-0.3
			c0.2-0.4,0.3-1,0.3-1.4h2.5l-0.2,4.9L248.3,172.3z"/>
		<path class="st9" d="M261.5,172.1c-0.5-0.3-1-0.8-1.2-1.4h-0.2c0,0.5,0.1,1,0.3,1.4l-0.1,0.1h-2.5v-4.8l0.2-0.2h2.4
			c0,0.6,0.3,1.1,0.8,1.6c0.6,0.4,1.4,0.7,2.2,0.6c0.5,0,1.1-0.2,1.4-0.4c0.4-0.3,0.6-0.7,0.6-1.1c0-0.3-0.2-0.7-0.5-1
			c-0.4-0.3-0.8-0.5-1.3-0.6l-2.1-0.5c-1.1-0.3-2-0.7-2.8-1.4c-0.8-0.7-1.3-1.7-1.2-2.7c0-0.8,0.3-1.6,0.7-2.3
			c0.5-0.6,1.1-1.1,1.8-1.5c0.6-0.3,1.4-0.5,2.2-0.5c0.7,0,1.5,0.2,2.2,0.5c0.5,0.3,0.9,0.8,1.2,1.3h0.2c0-0.3-0.1-0.4-0.1-0.7
			c-0.1-0.3-0.1-0.5-0.2-0.8l0.1-0.1h2.6v4.8l-0.2,0.2h-2.5c0-0.6-0.3-1.1-0.8-1.4c-0.6-0.3-1.3-0.5-2-0.5c-0.5,0-0.9,0.1-1.4,0.3
			c-0.4,0.2-0.5,0.5-0.5,1s0.2,0.8,0.5,1c0.5,0.3,0.9,0.4,1.4,0.5l1.5,0.3c1.2,0.2,2.3,0.7,3.2,1.6c0.7,0.7,1.1,1.7,1.1,2.7
			c0,0.9-0.2,1.7-0.6,2.4c-0.5,0.7-1.1,1.2-1.8,1.6c-0.7,0.3-1.5,0.5-2.4,0.5C262.9,172.7,262.1,172.5,261.5,172.1z"/>
		<path class="st9" d="M283.1,169.2c0.1,0.2,0.4,0.3,0.5,0.3c0.4,0.1,0.6,0.2,1,0.1v2.6h-7v-2.6c0.5,0,1,0,1.4-0.2
			c0.3-0.1,0.5-0.3,0.4-0.6c0-0.3-0.1-0.8-0.3-1.1h-4.8c-0.2,0.3-0.3,0.8-0.3,1.1c0,0.3,0.2,0.5,0.4,0.6c0.5,0.1,0.9,0.2,1.4,0.2
			v2.7h-6.2v-2.7c0.4,0,0.7,0,1-0.2c0.2-0.1,0.4-0.2,0.5-0.3c0.2-0.3,0.3-0.5,0.4-0.8l2.6-6.9c0.1-0.2,0.1-0.3,0.1-0.5
			c0-0.3-0.3-0.6-0.8-0.6h-1.2v-2.6h6.5l3.9,10.5C282.9,168.7,283,168.9,283.1,169.2z M276.8,161.6c-0.1,0.1-0.1,0.2-0.1,0.3
			l-1.4,3.8h3.4l-1.4-3.7c0-0.1-0.1-0.3-0.1-0.3c0-0.1-0.1-0.1-0.2-0.1C276.9,161.5,276.9,161.6,276.8,161.6L276.8,161.6z"/>
		<path class="st10" d="M311.1,173.4l-1.6-1.7c-1.4,1.3-3.2,2-5.1,2c-2.7,0.2-5.1-1.8-5.3-4.5c0-0.1,0-0.2,0-0.4
			c0.1-2.2,1.4-4.2,3.4-5.1v-0.1c-0.9-1-1.4-2.3-1.5-3.7c0-2.3,1.8-4.2,4.1-4.3l0,0h0.2c2-0.1,3.7,1.4,3.8,3.4l0,0
			c0,0.1,0,0.2,0,0.3c0,1.8-1.1,3.3-3.8,4.6v0.1c1.5,1.7,3.1,3.6,4.2,4.8c0.9-1.6,1.5-3.3,1.7-5.1h2.1c-0.3,2.3-1.1,4.5-2.5,6.4
			c0.9,1,1.8,2,2.9,3.1L311.1,173.4z M308.4,170.4c-1-1.1-3-3.2-4.9-5.5c-1.3,0.7-2.2,2-2.2,3.5c-0.1,1.9,1.4,3.4,3.3,3.5l0,0h0.2
			C306.2,172,307.4,171.4,308.4,170.4L308.4,170.4z M303.1,159.8c0,1.2,0.5,2.3,1.3,3.1c1.8-1,2.9-1.9,2.9-3.4
			c0.1-1.1-0.7-2.1-1.8-2.2h-0.1h-0.2c-1.2,0-2.2,1-2.2,2.2C303.1,159.6,303.1,159.7,303.1,159.8L303.1,159.8z"/>
		<path class="st9" d="M319,172.3h-3.8v-2.6c0.5,0,1,0,1.4-0.1c0.3-0.1,0.5-0.3,0.5-0.4c0.1-0.4,0.1-0.9,0.1-1.4v-5.4
			c0-0.4,0-1-0.1-1.4c-0.1-0.3-0.3-0.4-0.5-0.4c-0.5-0.1-1-0.1-1.4-0.1v-2.6h7.2v2.7c-0.5,0-1,0-1.4,0.1c-0.3,0.1-0.5,0.3-0.5,0.4
			c-0.1,0.4-0.1,0.9-0.1,1.4v6.9h3.1c0.2,0,0.3,0,0.4-0.1c0.1-0.2,0.2-0.3,0.2-0.5c0.1-0.4,0.2-0.9,0.2-1.4h2.6l-0.2,5.2L319,172.3z
			"/>
		<path class="st9" d="M331,171.8c-1.1-0.6-1.9-1.6-2.4-2.6c-0.5-1.3-0.8-2.7-0.8-4.1s0.3-2.9,0.9-4.2c0.5-1.1,1.4-2,2.5-2.7
			c1.2-0.6,2.5-1,3.9-1c1.3,0,2.5,0.3,3.6,0.9c1.1,0.6,1.9,1.6,2.4,2.6c1.1,2.6,1.1,5.6,0,8.2c-0.5,1.1-1.4,2-2.5,2.7
			c-1.2,0.6-2.5,1-3.9,1C333.4,172.8,332.1,172.4,331,171.8z M337.6,168.4c0.7-0.9,1.1-2,1-3.1c0.1-1.2-0.3-2.4-1-3.3
			c-0.8-0.8-1.9-1.2-3-1.1c-1,0-1.9,0.3-2.6,1c-0.7,0.9-1.1,1.9-1,3c-0.1,1.2,0.3,2.4,1.1,3.4c0.8,0.8,1.9,1.2,3,1.1
			C336.1,169.4,337,169.1,337.6,168.4L337.6,168.4z"/>
		<path class="st9" d="M346,171.1c-1.1-1.2-1.6-2.8-1.5-4.4v-4.3c0-0.4,0-1-0.1-1.4c0-0.2-0.2-0.3-0.4-0.4c-0.4-0.1-0.8-0.1-1.2-0.1
			v-2.6h7v2.7c-0.5,0-1.1,0-1.6,0.1c-0.3,0.1-0.5,0.3-0.5,0.4c-0.1,0.4-0.2,0.9-0.1,1.4v4c-0.1,0.9,0.3,1.7,0.9,2.4
			c0.6,0.6,1.5,1,2.4,0.9c0.8,0.1,1.7-0.3,2.3-0.9c0.5-0.7,0.9-1.6,0.8-2.5v-3.9c0-0.4,0-1-0.1-1.4c-0.1-0.3-0.3-0.4-0.5-0.4
			c-0.5-0.1-1.1-0.1-1.6-0.1v-2.6h6.6v2.6c-0.4,0-0.8,0-1.2,0.1c-0.2,0.1-0.4,0.3-0.4,0.4c-0.1,0.4-0.1,0.9-0.1,1.4v4.5
			c0,1-0.3,2.1-0.8,3c-0.5,0.9-1.3,1.6-2.2,2c-1,0.5-2.1,0.8-3.3,0.7C348.8,172.9,347.2,172.3,346,171.1z"/>
		<path class="st9" d="M364.3,169.1c0.1,0.3,0.3,0.4,0.5,0.4c0.5,0.1,1,0.1,1.4,0.1v2.6h-6.6v-2.6c0.5,0,1,0,1.4-0.1
			c0.3-0.1,0.5-0.3,0.5-0.4c0.1-0.4,0.1-0.9,0.1-1.4v-5.1c0-0.4,0-1-0.1-1.4c-0.1-0.3-0.3-0.4-0.5-0.5c-0.5-0.1-1-0.2-1.5-0.1v-2.8
			h5.4l6.8,9.8v-5.2c0-0.4,0-1-0.1-1.4c-0.1-0.3-0.3-0.4-0.5-0.4c-0.5-0.1-1-0.1-1.4-0.1v-2.6h6.5v2.7c-0.5,0-1,0-1.4,0.1
			c-0.3,0.1-0.5,0.3-0.5,0.4c-0.1,0.4-0.1,0.9-0.1,1.4v9.9H371l-6.9-10v5.4C364.2,168.2,364.2,168.7,364.3,169.1z"/>
		<path class="st9" d="M388.1,172.3l-0.5-1.1c-0.5,0.4-1,0.9-1.6,1.1c-0.6,0.3-1.3,0.4-2,0.4c-1.3,0-2.5-0.3-3.5-1
			c-1-0.7-1.9-1.6-2.4-2.7c-0.5-1.2-0.8-2.5-0.8-3.8c-0.1-1.5,0.3-3,0.9-4.3c0.5-1,1.4-2,2.4-2.6c1-0.6,2.1-0.9,3.3-0.9
			c0.7,0,1.5,0.2,2.2,0.5c0.5,0.3,1,0.8,1.4,1.4h0.2c-0.1-0.5-0.2-1-0.3-1.4l0.1-0.1h2.5v4.9l-0.1,0.2h-2.4c-0.1-0.6-0.5-1.1-1-1.5
			c-0.6-0.4-1.4-0.6-2.1-0.5c-1.1-0.1-2.1,0.3-2.8,1.1c-0.6,0.9-0.9,1.9-0.9,3c0,1.1,0.3,2.3,0.8,3.2c0.6,1,1.7,1.5,2.9,1.4
			c0.7,0,1.4-0.2,2-0.6c0.5-0.3,0.9-0.9,1-1.4v-1l-2.8,0.2v-2.7h5.8v5.1l0.5,3H388.1z"/>
		<path class="st9" d="M395.8,172.3H392v-2.6c0.5,0,1,0,1.4-0.1c0.3-0.1,0.5-0.3,0.5-0.4c0.1-0.4,0.1-0.9,0.1-1.4v-5.4
			c0-0.4,0-1-0.1-1.4c-0.1-0.3-0.3-0.4-0.5-0.4c-0.5-0.1-1-0.1-1.4-0.1v-2.6h11l0.2,4.9h-2.5c-0.1-0.3-0.1-0.8-0.3-1.1
			c0-0.2-0.2-0.3-0.3-0.5c-0.1-0.1-0.3-0.1-0.5-0.1h-2.6v3l4.1-0.2v2.4l-4.1-0.2v3.3h2.9c0.2,0,0.4-0.2,0.5-0.3
			c0.2-0.4,0.3-1,0.4-1.4h2.5l-0.2,4.9L395.8,172.3z"/>
	</g>
</g>
</svg>
