<svg height="512" viewBox="0 0 512 512" width="512" xmlns="http://www.w3.org/2000/svg"><path d="M135.34 204.606c.75-.748 1.744-1.16 2.803-1.16 1.105 0 2.128.443 2.88 1.247 4.774 5.11 9.234 10.61 13.256 16.353 1.12 1.605 2.96 2.564 4.91 2.564 1.58 0 3.06-.617 4.18-1.738l9.844-9.845c.75-.75 1.744-1.16 2.804-1.16 1.104 0 2.124.44 2.873 1.244 8.448 9.06 15.71 19.17 21.586 30.05 1.03 1.92 3.03 3.1 5.215 3.1 1.587 0 3.08-.62 4.205-1.74l4.65-4.65c.75-.75 1.746-1.16 2.807-1.16 1.105 0 2.12.44 2.867 1.247 18.21 19.63 30.236 44.584 34.785 72.167h1.972c4.55-27.583 16.577-52.54 34.784-72.167.745-.805 1.763-1.248 2.866-1.248 1.06 0 2.058.412 2.808 1.16l4.65 4.65c1.123 1.125 2.616 1.746 4.203 1.746 2.186 0 4.185-1.187 5.218-3.1 5.877-10.884 13.14-20.994 21.587-30.048.75-.802 1.77-1.244 2.875-1.244 1.06 0 2.056.413 2.804 1.16l9.845 9.847c1.12 1.12 2.606 1.74 4.186 1.74 1.95 0 3.79-.96 4.914-2.565 4.02-5.74 8.48-11.243 13.254-16.352.75-.804 1.772-1.247 2.88-1.247 1.06 0 2.052.413 2.8 1.16l.544.545c2.79-10.03 4.453-20.44 4.855-31.125.105-2.794-2.157-5.108-4.95-5.108h-6.578c-3.3 0-5.69-3.174-4.746-6.336 3.51-11.75 5.583-24.06 6.023-36.76.097-2.79-2.16-5.11-4.954-5.11h-13.92c-3.093 0-5.4-2.797-4.864-5.84 1.21-6.87 1.96-13.905 2.203-21.08.095-2.79-2.158-5.11-4.955-5.11h-16.99c-2.45 0-4.515-1.795-4.886-4.22-5.9-38.535-31.697-69.97-65.818-81.98-1.046-.37-2.194-.37-3.24 0-34.118 12.01-59.914 43.444-65.814 81.98-.37 2.427-2.44 4.22-4.89 4.22h-16.99c-2.8 0-5.05 2.32-4.96 5.117.244 7.175.996 14.21 2.205 21.077.535 3.047-1.77 5.845-4.865 5.845h-13.92c-2.796 0-5.05 2.315-4.955 5.11.44 12.7 2.514 25.012 6.024 36.76.94 3.164-1.45 6.337-4.75 6.337h-6.58c-2.794 0-5.056 2.316-4.95 5.108.402 10.685 2.065 21.094 4.856 31.126z" fill="#02905d"/><path d="M135.34 204.606c.75-.748 1.744-1.16 2.803-1.16 1.105 0 2.128.443 2.88 1.247 4.774 5.11 9.234 10.61 13.256 16.353 1.12 1.605 2.96 2.564 4.91 2.564 1.58 0 3.06-.617 4.18-1.738l9.844-9.845c.75-.75 1.744-1.16 2.804-1.16 1.104 0 2.124.44 2.873 1.244.507.55.995 1.11 1.493 1.66-4.43-12.64-7.045-25.96-7.563-39.74-.104-2.79 2.158-5.105 4.953-5.105h6.578c3.3 0 5.69-3.173 4.744-6.335-3.51-11.75-5.582-24.06-6.022-36.76-.098-2.795 2.16-5.11 4.953-5.11h13.923c3.095 0 5.4-2.8 4.866-5.845-1.21-6.866-1.96-13.902-2.203-21.076-.094-2.797 2.16-5.115 4.956-5.115h16.99c2.45 0 4.517-1.797 4.89-4.22 4.69-30.64 21.963-56.774 45.99-72.243-6.193-3.987-12.83-7.277-19.823-9.74-1.047-.367-2.195-.367-3.24 0-34.12 12.014-59.918 43.447-65.817 81.984-.37 2.42-2.435 4.22-4.886 4.22h-16.99c-2.796 0-5.05 2.314-4.954 5.11.243 7.173.995 14.21 2.204 21.075.536 3.046-1.77 5.845-4.864 5.845h-13.923c-2.795 0-5.05 2.314-4.954 5.11.44 12.7 2.51 25.01 6.02 36.76.945 3.162-1.445 6.335-4.745 6.335h-6.576c-2.797 0-5.06 2.314-4.95 5.107.4 10.685 2.06 21.094 4.852 31.126z" fill="#017b4e"/><path d="M248.5 218.956v66.892c2.89 8.104 5.077 16.554 6.514 25.267h1.973c1.437-8.714 3.625-17.163 6.514-25.267v-115.32c23.58-3.62 41.69-24.042 41.69-48.614 0-4.142-3.35-7.5-7.5-7.5s-7.5 3.358-7.5 7.5c0 16.273-11.43 29.918-26.68 33.347V63.78c0-4.142-3.356-7.5-7.5-7.5s-7.5 3.358-7.5 7.5v48.513c-11.77-3.286-20.436-14.1-20.436-26.905 0-4.142-3.357-7.5-7.5-7.5s-7.5 3.358-7.5 7.5c0 21.116 15.327 38.707 35.437 42.267v76.21c-24.38-3.32-43.14-22.565-43.14-45.74 0-4.143-3.357-7.5-7.5-7.5s-7.5 3.357-7.5 7.5c0 31.404 25.466 57.353 58.14 60.84z" fill="#026841"/><path d="M256.53 314.395c-4.017-28.34-15.79-54.804-35.568-76.127-1.9-2.05-5.137-2.086-7.113-.11l-4.65 4.65c-2.34 2.334-6.27 1.78-7.84-1.124-5.83-10.79-13.07-20.963-21.74-30.254-1.908-2.044-5.14-2.086-7.116-.11l-9.845 9.847c-2.188 2.187-5.8 1.84-7.573-.694-4-5.71-8.444-11.217-13.345-16.462-1.91-2.04-5.144-2.08-7.12-.11l-12.017 12.02c-1.733 1.737-4.465 1.927-6.44.47-31.42-23.08-71.89-27.06-104.51-11.43-1 .48-1.813 1.29-2.29 2.29-15.63 32.62-11.647 73.09 11.43 104.51 1.452 1.98 1.26 4.71-.47 6.44L8.32 330.218c-1.978 1.977-1.933 5.21.11 7.12 5.246 4.9 10.753 9.344 16.463 13.343 2.536 1.773 2.88 5.384.697 7.57l-9.846 9.844c-1.975 1.976-1.933 5.21.11 7.115 9.29 8.665 19.464 15.905 30.254 21.73 2.904 1.57 3.458 5.5 1.124 7.838l-4.65 4.65c-1.976 1.973-1.94 5.21.11 7.11C91.7 462 167.862 465.19 231.58 429.04c.784-.442 1.438-1.095 1.88-1.88 12.21-21.52 19.924-44.457 23.045-67.29-2.107-15.423-2.092-30.734.024-45.476z" fill="#09a76d"/><path d="M219.598 425.784c-52.173 14.188-106.47 4.37-144.458-30.865-2.05-1.91-2.086-5.14-.11-7.12l4.65-4.65c2.334-2.337 1.78-6.27-1.124-7.838-10.79-5.825-20.963-13.065-30.254-21.735-2.043-1.907-2.086-5.14-.11-7.115l9.847-9.844c2.18-2.187 1.83-5.797-.7-7.57-5.71-4-11.22-8.444-16.46-13.345-2.048-1.91-2.09-5.143-.11-7.12l1.36-1.36c-.28-.265-.56-.522-.84-.794-2.93-2.93-2.93-7.678 0-10.606 2.93-2.93 7.68-2.93 10.608 0 .272.272.553.532.833.794l.05-.046c1.733-1.733 1.923-4.465.472-6.44-20.482-27.886-25.91-62.896-15.947-93.226-8.863 1.462-17.498 4.142-25.644 8.046-1 .48-1.81 1.29-2.29 2.29-15.632 32.623-11.647 73.09 11.43 104.512 1.453 1.974 1.26 4.706-.47 6.44L8.317 330.21c-1.976 1.978-1.93 5.21.11 7.12 5.248 4.9 10.755 9.345 16.465 13.344 2.54 1.774 2.88 5.385.7 7.572l-9.843 9.846c-1.975 1.976-1.933 5.21.11 7.115 9.29 8.666 19.464 15.906 30.254 21.732 2.904 1.56 3.458 5.5 1.124 7.83l-4.65 4.65c-1.975 1.973-1.94 5.21.11 7.11 47.574 44.124 120.725 48.42 183.25 15.58zm91.037-184.1c5.825-10.79 13.065-20.963 21.735-30.254 1.907-2.044 5.14-2.086 7.115-.11l9.846 9.847c2.19 2.187 5.8 1.84 7.58-.694 4-5.71 8.445-11.217 13.346-16.462 1.91-2.04 5.14-2.08 7.12-.11l12.015 12.02c1.733 1.737 4.465 1.927 6.44.47 31.42-23.08 71.89-27.06 104.51-11.43 1 .48 1.81 1.29 2.29 2.29 15.634 32.62 11.65 73.09-11.43 104.51-1.45 1.98-1.26 4.71.47 6.44l12.017 12.02c1.978 1.978 1.933 5.21-.11 7.12-5.246 4.9-10.753 9.345-16.463 13.344-2.535 1.774-2.88 5.385-.696 7.57l9.846 9.847c1.976 1.976 1.934 5.21-.11 7.115-9.29 8.67-19.463 15.91-30.253 21.736-2.905 1.57-3.46 5.5-1.125 7.836l4.65 4.65c1.977 1.973 1.94 5.21-.11 7.11-49.01 45.46-125.174 48.647-188.893 12.5-.782-.443-1.434-1.096-1.88-1.88-36.145-63.72-32.96-139.88 12.5-188.894 1.9-2.05 5.14-2.085 7.115-.11l4.65 4.65c2.334 2.335 6.268 1.78 7.835-1.123z" fill="#02905d"/><path d="M301.855 280.516c1.9-2.05 5.136-2.086 7.113-.11l4.65 4.65c2.334 2.334 6.267 1.78 7.835-1.124 5.825-10.79 13.065-20.963 21.735-30.254 1.907-2.044 5.14-2.086 7.115-.11l9.846 9.847c2.18 2.187 5.79 1.84 7.57-.694 4-5.71 8.44-11.21 13.34-16.46 1.91-2.04 5.14-2.09 7.12-.11l12.01 12.02c1.733 1.735 4.465 1.925 6.44.47 31.42-23.08 71.89-27.06 104.51-11.43.296.14.57.32.827.518-.197-14.013-3.295-27.832-9.353-40.472-.48-1-1.29-1.81-2.29-2.29-32.62-15.632-73.09-11.647-104.51 11.43-1.976 1.453-4.708 1.263-6.44-.47l-12.015-12.02c-1.978-1.976-5.21-1.93-7.12.113-4.9 5.244-9.345 10.75-13.344 16.46-1.775 2.533-5.386 2.88-7.573.694l-9.843-9.845c-1.976-1.977-5.21-1.935-7.114.11-8.668 9.29-15.908 19.462-21.734 30.252-1.57 2.906-5.504 3.46-7.837 1.126l-4.65-4.65c-1.975-1.98-5.21-1.94-7.11.11-39.38 42.454-47.03 105.283-24.88 162.75-5.787-44.403 5.834-88.31 35.695-120.505z" fill="#017b4e"/><path d="M470.702 295.83c-2.928-2.93-7.677-2.93-10.606 0-6.463 6.462-15.048 10.022-24.173 10.022-6.573 0-12.86-1.856-18.283-5.306l34.447-34.447c2.93-2.93 2.93-7.68 0-10.61-2.93-2.93-7.678-2.93-10.607 0l-64.698 64.7c-3.45-5.42-5.306-11.71-5.306-18.29 0-9.125 3.56-17.71 10.023-24.173 2.92-2.93 2.92-7.677 0-10.606s-7.68-2.93-10.61 0c-9.3 9.295-14.42 21.647-14.42 34.778 0 10.6 3.34 20.69 9.51 29.074l-49.21 49.21c-18.294-23.047-18.285-55.135 1.11-74.53 2.93-2.93 2.93-7.68 0-10.608-2.93-2.93-7.677-2.93-10.606 0-25.218 25.22-25.24 66.806-1.177 95.81L256 440.974l-50.107-50.108c24.062-29.005 24.04-70.593-1.177-95.812-2.93-2.93-7.677-2.93-10.607 0-2.93 2.93-2.93 7.678 0 10.606 19.39 19.392 19.4 51.48 1.11 74.53l-49.21-49.21c6.17-8.39 9.51-18.478 9.51-29.077 0-13.13-5.12-25.483-14.42-34.78-2.93-2.928-7.68-2.928-10.608 0s-2.93 7.68 0 10.607c6.464 6.464 10.023 15.05 10.023 24.174 0 6.573-1.856 12.862-5.306 18.283l-64.69-64.695c-2.93-2.93-7.68-2.93-10.608 0s-2.93 7.678 0 10.606l34.447 34.445c-5.423 3.45-11.71 5.306-18.284 5.306-9.125 0-17.71-3.56-24.173-10.03-2.93-2.93-7.678-2.93-10.606 0-2.93 2.93-2.93 7.676 0 10.605 9.295 9.296 21.647 14.417 34.78 14.417 10.597 0 20.687-3.34 29.073-9.516l53.82 53.817c-19.58 14.89-46.46 14.55-62.85-1.84-2.93-2.93-7.68-2.93-10.6 0s-2.93 7.68 0 10.605c11.4 11.4 26.526 17.04 42.012 17.04 14.68 0 29.68-5.083 42.125-15.128l78.854 78.853v47.62c0 4.14 3.36 7.5 7.5 7.5s7.5-3.36 7.5-7.5V454.68l78.855-78.852c12.446 10.05 27.443 15.13 42.126 15.13 15.48 0 30.61-5.64 42.01-17.04 2.93-2.93 2.93-7.68 0-10.604-2.93-2.93-7.677-2.93-10.606 0-16.388 16.388-43.264 16.73-62.85 1.84l28.46-28.46.006-.006.005-.008 25.345-25.342c8.388 6.175 18.477 9.515 29.076 9.515 13.13 0 25.483-5.12 34.78-14.417 2.926-2.93 2.926-7.677-.004-10.606z" fill="#017b4e"/></svg>