<svg xmlns="http://www.w3.org/2000/svg" viewBox="0 0 51.529 51.529"><path d="M36.486 12.9l-5.09-.42 1.885-4.746c.31-.775.7-1.5 1.14-2.177-2.95-1.3-6.22-2.027-9.65-2.027-13.253 0-24 10.745-24 24s10.747 24 24 24 24-10.745 24-24c0-6.06-2.25-11.59-5.952-15.813-1.92.926-4.09 1.366-6.324 1.182z" fill="#ED8F20"/><circle cx="38.537" cy="18.496" r="2" fill="#EF771D"/><circle cx="43.857" cy="29.651" r="2" fill="#EF771D"/><circle cx="43.537" cy="23.496" r="2" fill="#EF771D"/><circle cx="37.493" cy="27.529" r="2" fill="#EF771D"/><circle cx="38.537" cy="34.496" r="2" fill="#EF771D"/><circle cx="20.537" cy="10.496" r="2" fill="#EF771D"/><circle cx="13.537" cy="13.496" r="2" fill="#EF771D"/><path d="M27.765 11.53s4.25.7 5.4 3.6" fill="#ED8F20"/><path d="M33.165 16.13c-.397 0-.773-.24-.93-.632-.925-2.33-4.6-2.976-4.635-2.982-.544-.092-.912-.606-.82-1.15.09-.544.602-.913 1.146-.823.197.032 4.824.83 6.168 4.218.203.52-.048 1.1-.56 1.3-.12.05-.246.07-.37.07z" fill="#9B6026"/><path d="M28.365 14.53c1.037-1.14 2.345-2.026 3.787-2.568" fill="#ED8F20"/><path d="M28.364 15.53c-.24 0-.48-.087-.673-.26-.4-.373-.43-1.005-.06-1.414 1.14-1.255 2.587-2.233 4.178-2.83.518-.193 1.094.066 1.29.583.192.51-.07 1.09-.586 1.28-1.295.486-2.47 1.283-3.4 2.304-.2.22-.47.33-.74.33z" fill="#9B6026"/><path d="M50.765.46l-5.09-.42C40.302-.4 35.27 2.723 33.282 7.735L31.4 12.48l5.09.42c5.372.44 10.404-2.68 12.393-7.693L50.766.46z" fill="#659C35"/><path d="M31.958 11.068l-.56 1.413.717.06c6.258-6.11 13.06-8.11 13.803-8.16l.035-.56.413.417.158-.592-.444-.424c-.598-.132-7.583 1.797-14.122 7.856z" fill="#88C057"/></svg>