<svg height="508pt" viewBox="0 0 508 508.03382" width="508pt" xmlns="http://www.w3.org/2000/svg"><path d="m187.785156 369.394531c3.128906 13.917969 8.160156 19.351563 14.640625 31.910157l-18.410156-1.277344s-184 .007812-184-167.992188c0-140.160156 128.503906-164.816406 181.3125-150.945312zm0 0" fill="#f06347"/><path d="m182.847656 86.441406c-.367187 2.167969-2.4375 4.242188-4.605468 4.59375l-8.25 1.359375c-2.167969.351563-3.65625-1.136719-3.296876-3.304687l8.691407-53.105469c.359375-2.167969 2.445312-3.949219 4.644531-3.949219h8c2.203125 0 3.707031 1.773438 3.335938 3.941406zm0 0" fill="#965353"/><path d="m221.375 4.035156c16.890625-6.402344 75.53125-5.441406 79.441406 4.71875 3.839844 10.238282-39.359375 49.917969-56.230468 56.320313-16.800782 6.398437-35.671876-2-42.082032-18.878907-6.40625-16.882812 2-35.671874 18.871094-42.160156zm0 0" fill="#a0d468"/><path d="m301.066406 151.3125 11.40625 24.28125-14.128906-2.199219c-100.96875-11.199219-114.328125 84.71875-114.328125 162.640625 0 11.277344 1.28125 22.488282 3.769531 33.359375l14.640625 31.910157c-74.234375-12.488282-154.433593-49.269532-154.433593-169.269532 0-83.921875 79.550781-152 148.023437-152 44.25 0 83.128906 28.488282 105.050781 71.277344zm0 0" fill="#f96e52"/><path d="m219.144531 43.875c-1.054687 0-2.105469-.417969-2.886719-1.234375-1.519531-1.597656-1.472656-4.125.128907-5.65625 14.148437-13.566406 44.503906-17.488281 45.789062-17.648437 2.136719-.269532 4.183594 1.28125 4.464844 3.472656s-1.28125 4.191406-3.472656 4.464844c-.285157.03125-29.015625 3.753906-41.246094 15.480468-.785156.75-1.785156 1.121094-2.777344 1.121094zm0 0" fill="#8cc152"/><path d="m352.015625 185.035156c0 2.199219-1.796875 4-4 4h-8c-2.199219 0-4-1.800781-4-4v-21c0-2.203125 1.800781-4 4-4h8c2.203125 0 4 1.796875 4 4zm0 0" fill="#965353"/><path d="m344.015625 240.035156c18.328125 0 64 39.359375 64 88 0 48.558594-45.671875 88-64 88-18.3125 0-64-39.441406-64-88 0-48.640625 45.6875-88 64-88zm0 0" fill="#965353"/><path d="m344.015625 184.035156c142.800781-48 160 63.589844 160 152 0 88.390625-88 168-160 168-69.75 0-139.511719-60.488281-156.230469-134.640625-2.488281-10.871093-3.769531-22.082031-3.769531-33.359375 0-77.921875 13.359375-173.839844 114.328125-162.640625 13.59375 1.511719 28.722656 4.960938 45.671875 10.640625zm64 144c0-48.640625-45.671875-88-64-88-18.3125 0-64 39.359375-64 88 0 48.558594 45.6875 88 64 88 18.328125 0 64-39.441406 64-88zm0 0" fill="#ffce54"/><path d="m344.015625 508.035156c-71.167969 0-143.007813-61.800781-160.132813-137.761718-2.570312-11.214844-3.867187-22.742188-3.867187-34.238282 0-71.921875 10.648437-167.539062 102.730469-167.539062 5.136718 0 10.527344.3125 16.039062.921875 13.769532 1.535156 28.976563 5.03125 45.230469 10.398437 73.714844-24.40625 123.175781-9.007812 146.847656 45.203125 11.699219 26.796875 17.152344 62.070313 17.152344 111.015625 0 91.015625-91.710937 172-164 172zm-61.269531-331.539062c-84.90625 0-94.730469 91.058594-94.730469 159.539062 0 10.894532 1.234375 21.824219 3.664063 32.46875 16.351562 72.53125 84.6875 131.53125 152.335937 131.53125 68.769531 0 156-77.21875 156-164 0-68.496094-9.824219-159.546875-94.710937-159.546875-17.449219 0-37.632813 3.816407-60.015626 11.34375l-1.273437.425781-1.269531-.425781c-16.203125-5.4375-31.289063-8.949219-44.839844-10.460937-5.226562-.585938-10.328125-.875-15.160156-.875zm0 0" fill="#ff7c62"/><g fill="#844747"><path d="m296.257812 356.035156c-2.207031 0-4.039062-1.792968-4.039062-4 0-2.210937 1.75-4 3.949219-4h.089843c2.199219 0 4 1.789063 4 4 0 2.207032-1.792968 4-4 4zm0 0"/><path d="m320.257812 380.035156c-2.207031 0-4.039062-1.792968-4.039062-4 0-2.210937 1.75-4 3.949219-4h.089843c2.199219 0 4 1.789063 4 4 0 2.207032-1.792968 4-4 4zm0 0"/><path d="m344.257812 404.035156c-2.207031 0-4.039062-1.792968-4.039062-4 0-2.210937 1.75-4 3.949219-4h.089843c2.199219 0 4 1.789063 4 4 0 2.207032-1.792968 4-4 4zm0 0"/><path d="m296.257812 308.035156c-2.207031 0-4.039062-1.792968-4.039062-4 0-2.210937 1.75-4 3.949219-4h.089843c2.199219 0 4 1.789063 4 4 0 2.207032-1.792968 4-4 4zm0 0"/><path d="m320.257812 332.035156c-2.207031 0-4.039062-1.792968-4.039062-4 0-2.210937 1.75-4 3.949219-4h.089843c2.199219 0 4 1.789063 4 4 0 2.207032-1.792968 4-4 4zm0 0"/><path d="m344.257812 356.035156c-2.207031 0-4.039062-1.792968-4.039062-4 0-2.210937 1.75-4 3.949219-4h.089843c2.199219 0 4 1.789063 4 4 0 2.207032-1.792968 4-4 4zm0 0"/><path d="m368.257812 380.035156c-2.207031 0-4.039062-1.792968-4.039062-4 0-2.210937 1.75-4 3.949219-4h.089843c2.199219 0 4 1.789063 4 4 0 2.207032-1.792968 4-4 4zm0 0"/><path d="m320.257812 284.035156c-2.207031 0-4.039062-1.792968-4.039062-4 0-2.210937 1.75-4 3.949219-4h.089843c2.199219 0 4 1.789063 4 4 0 2.207032-1.792968 4-4 4zm0 0"/><path d="m344.257812 308.035156c-2.207031 0-4.039062-1.792968-4.039062-4 0-2.210937 1.75-4 3.949219-4h.089843c2.199219 0 4 1.789063 4 4 0 2.207032-1.792968 4-4 4zm0 0"/><path d="m368.257812 332.035156c-2.207031 0-4.039062-1.792968-4.039062-4 0-2.210937 1.75-4 3.949219-4h.089843c2.199219 0 4 1.789063 4 4 0 2.207032-1.792968 4-4 4zm0 0"/><path d="m392.257812 356.035156c-2.207031 0-4.039062-1.792968-4.039062-4 0-2.210937 1.75-4 3.949219-4h.089843c2.199219 0 4 1.789063 4 4 0 2.207032-1.792968 4-4 4zm0 0"/><path d="m344.257812 260.035156c-2.207031 0-4.039062-1.785156-4.039062-4 0-2.203125 1.75-4 3.949219-4h.089843c2.199219 0 4 1.796875 4 4 0 2.214844-1.792968 4-4 4zm0 0"/><path d="m368.257812 284.035156c-2.207031 0-4.039062-1.792968-4.039062-4 0-2.210937 1.75-4 3.949219-4h.089843c2.199219 0 4 1.789063 4 4 0 2.207032-1.792968 4-4 4zm0 0"/><path d="m392.257812 308.035156c-2.207031 0-4.039062-1.792968-4.039062-4 0-2.210937 1.75-4 3.949219-4h.089843c2.199219 0 4 1.789063 4 4 0 2.207032-1.792968 4-4 4zm0 0"/></g></svg>