<svg height="508pt" viewBox="0 0 508 508.03382" width="508pt" xmlns="http://www.w3.org/2000/svg"><path d="M187.785 369.395c3.13 13.917 8.16 19.35 14.64 31.91l-18.41-1.278s-184 .008-184-167.992C.015 91.875 128.52 67.22 181.33 81.09zm0 0" fill="#f06347"/><path d="M182.848 86.44c-.368 2.17-2.438 4.244-4.606 4.595l-8.25 1.36c-2.168.35-3.656-1.137-3.297-3.305l8.692-53.106c.36-2.168 2.445-3.95 4.644-3.95h8c2.208 0 3.71 1.775 3.34 3.943zm0 0" fill="#965353"/><path d="M221.375 4.035c16.89-6.402 75.53-5.44 79.44 4.72 3.84 10.237-39.358 49.917-56.23 56.32-16.8 6.398-35.67-2-42.08-18.88-6.407-16.883 2-35.672 18.87-42.16zm0 0" fill="#a0d468"/><path d="M301.066 151.313l11.407 24.28-14.13-2.198c-100.968-11.2-114.327 84.718-114.327 162.64 0 11.278 1.28 22.488 3.77 33.36l14.64 31.91c-74.235-12.49-154.434-49.27-154.434-169.27 0-83.922 79.55-152 148.024-152 44.25 0 83.13 28.488 105.05 71.278zm0 0" fill="#f96e52"/><path d="M219.145 43.875c-1.055 0-2.106-.418-2.887-1.234-1.52-1.593-1.473-4.12.13-5.652C230.535 23.42 260.89 19.5 262.176 19.34c2.137-.27 4.183 1.28 4.465 3.472s-1.28 4.19-3.47 4.464c-.283.032-29.014 3.754-41.244 15.48-.785.75-1.785 1.122-2.777 1.122zm0 0" fill="#8cc152"/><path d="M352.016 185.035c0 2.2-1.797 4-4 4h-8c-2.2 0-4-1.8-4-4v-21c0-2.203 1.8-4 4-4h8c2.203 0 4 1.797 4 4zm-8 55c18.328 0 64 39.36 64 88 0 48.56-45.672 88-64 88-18.313 0-64-39.44-64-88 0-48.64 45.687-88 64-88zm0 0" fill="#965353"/><path d="M344.016 184.035c142.8-48 160 63.59 160 152 0 88.39-88 168-160 168-69.75 0-139.512-60.488-156.23-134.64-2.49-10.872-3.77-22.082-3.77-33.36 0-77.922 13.36-173.84 114.328-162.64 13.594 1.51 28.722 4.96 45.672 10.64zm64 144c0-48.64-45.672-88-64-88-18.313 0-64 39.36-64 88 0 48.56 45.687 88 64 88 18.328 0 64-39.44 64-88zm0 0" fill="#ffce54"/><path d="M344.016 508.035c-71.168 0-143.008-61.8-160.133-137.762-2.57-11.214-3.867-22.742-3.867-34.238 0-71.922 10.648-167.54 102.73-167.54 5.137 0 10.527.314 16.04.923 13.77 1.535 28.976 5.03 45.23 10.398 73.714-24.406 123.175-9.007 146.847 45.204 11.7 26.796 17.153 62.07 17.153 111.015 0 91.016-91.71 172-164 172zm-61.27-331.54c-84.906 0-94.73 91.06-94.73 159.54 0 10.895 1.234 21.824 3.664 32.47 16.35 72.53 84.687 131.53 152.336 131.53 68.77 0 156-77.22 156-164 0-68.496-9.825-159.547-94.71-159.547-17.45 0-37.634 3.817-60.017 11.344l-1.278.426-1.27-.426c-16.203-5.437-31.29-8.95-44.84-10.46-5.226-.587-10.328-.876-15.16-.876zm0 0" fill="#ff7c62"/><path d="M296.258 356.035c-2.207 0-4.04-1.793-4.04-4 0-2.21 1.75-4 3.95-4h.09c2.2 0 4 1.79 4 4 0 2.207-1.793 4-4 4zm24 24c-2.207 0-4.04-1.793-4.04-4 0-2.21 1.75-4 3.95-4h.09c2.2 0 4 1.79 4 4 0 2.207-1.793 4-4 4zm24 24c-2.207 0-4.04-1.793-4.04-4 0-2.21 1.75-4 3.95-4h.09c2.2 0 4 1.79 4 4 0 2.207-1.793 4-4 4zm-48-96c-2.207 0-4.04-1.793-4.04-4 0-2.21 1.75-4 3.95-4h.09c2.2 0 4 1.79 4 4 0 2.207-1.793 4-4 4zm24 24c-2.207 0-4.04-1.793-4.04-4 0-2.21 1.75-4 3.95-4h.09c2.2 0 4 1.79 4 4 0 2.207-1.793 4-4 4zm24 24c-2.207 0-4.04-1.793-4.04-4 0-2.21 1.75-4 3.95-4h.09c2.2 0 4 1.79 4 4 0 2.207-1.793 4-4 4zm24 24c-2.207 0-4.04-1.793-4.04-4 0-2.21 1.75-4 3.95-4h.09c2.2 0 4 1.79 4 4 0 2.207-1.793 4-4 4zm-48-96c-2.207 0-4.04-1.793-4.04-4 0-2.21 1.75-4 3.95-4h.09c2.2 0 4 1.79 4 4 0 2.207-1.793 4-4 4zm24 24c-2.207 0-4.04-1.793-4.04-4 0-2.21 1.75-4 3.95-4h.09c2.2 0 4 1.79 4 4 0 2.207-1.793 4-4 4zm24 24c-2.207 0-4.04-1.793-4.04-4 0-2.21 1.75-4 3.95-4h.09c2.2 0 4 1.79 4 4 0 2.207-1.793 4-4 4zm24 24c-2.207 0-4.04-1.793-4.04-4 0-2.21 1.75-4 3.95-4h.09c2.2 0 4 1.79 4 4 0 2.207-1.793 4-4 4zm-48-96c-2.207 0-4.04-1.785-4.04-4 0-2.203 1.75-4 3.95-4h.09c2.2 0 4 1.797 4 4 0 2.215-1.793 4-4 4zm24 24c-2.207 0-4.04-1.793-4.04-4 0-2.21 1.75-4 3.95-4h.09c2.2 0 4 1.79 4 4 0 2.207-1.793 4-4 4zm24 24c-2.207 0-4.04-1.793-4.04-4 0-2.21 1.75-4 3.95-4h.09c2.2 0 4 1.79 4 4 0 2.207-1.793 4-4 4zm0 0" fill="#844747"/></svg>