<svg height="512" viewBox="0 0 510 510" width="512" xmlns="http://www.w3.org/2000/svg" xmlns:xlink="http://www.w3.org/1999/xlink"><linearGradient id="d" gradientTransform="rotate(45 255.066 255.972)" gradientUnits="userSpaceOnUse" x1="235.531" x2="280.433" y1="61.692" y2="143.899"><stop offset="0" stop-color="#6b0"/><stop offset="1" stop-color="#0b799d"/></linearGradient><linearGradient id="a"><stop offset="0" stop-color="#b9dd39"/><stop offset="1" stop-color="#90cc1c"/></linearGradient><linearGradient id="e" gradientTransform="rotate(45 255.066 255.972)" gradientUnits="userSpaceOnUse" x1="212.174" x2="194.675" xlink:href="#a" y1="73.455" y2="113.354"/><linearGradient id="b"><stop offset="0" stop-color="#6b0" stop-opacity="0"/><stop offset="1" stop-color="#6b0"/></linearGradient><linearGradient id="f" gradientTransform="rotate(50.06 253.826 241.78)" gradientUnits="userSpaceOnUse" x1="143.304" x2="245.854" xlink:href="#b" y1="148.845" y2="200.591"/><linearGradient id="g" gradientTransform="rotate(-135 302.313 -24.348)" gradientUnits="userSpaceOnUse" x1="96.045" x2="78.545" xlink:href="#a" y1="73.455" y2="113.354"/><linearGradient id="h" gradientTransform="rotate(-140.07 295.47 -21.572)" gradientUnits="userSpaceOnUse" x1="27.631" x2="130.182" xlink:href="#b" y1="159.132" y2="210.878"/><linearGradient id="i" gradientTransform="rotate(45 255.066 255.972)" gradientUnits="userSpaceOnUse" x1="314.251" x2="355.199" xlink:href="#a" y1="117.474" y2="227.195"/><linearGradient id="j" gradientTransform="rotate(-135 288.736 -29.97)" gradientUnits="userSpaceOnUse" x1="-23.115" x2="91.331" xlink:href="#b" y1="206.155" y2="263.903"/><linearGradient id="k" gradientTransform="rotate(45 255.066 255.972)" gradientUnits="userSpaceOnUse" x1="174.233" x2="174.233" xlink:href="#a" y1="173.495" y2="388.658"/><linearGradient id="l" gradientTransform="rotate(45 255.066 255.972)" gradientUnits="userSpaceOnUse" x1="120.163" x2="234.609" xlink:href="#b" y1="206.155" y2="263.903"/><linearGradient id="m" gradientTransform="rotate(45 255.066 255.972)" gradientUnits="userSpaceOnUse" x1="254.293" x2="254.293" y1="117.741" y2="286.786"><stop offset="0" stop-color="#07485e" stop-opacity="0"/><stop offset=".388" stop-color="#05394a" stop-opacity=".388"/><stop offset="1" stop-color="#03232e"/></linearGradient><linearGradient id="n" gradientTransform="rotate(45 255.066 255.972)" gradientUnits="userSpaceOnUse" x1="164.788" x2="357.069" y1="260.96" y2="463.052"><stop offset="0" stop-color="#ffda2d"/><stop offset="1" stop-color="#fdbf00"/></linearGradient><linearGradient id="c"><stop offset="0" stop-color="#ff9100" stop-opacity="0"/><stop offset="1" stop-color="#ff9100"/></linearGradient><linearGradient id="o" gradientTransform="rotate(45 255.066 255.972)" gradientUnits="userSpaceOnUse" x1="254.612" x2="256.574" xlink:href="#c" y1="309.78" y2="31.823"/><linearGradient id="p" gradientTransform="rotate(45 255.066 255.972)" gradientUnits="userSpaceOnUse" x1="255.727" x2="266.192" xlink:href="#c" y1="402.282" y2="115.169"/><linearGradient id="q" gradientTransform="rotate(45 255.066 255.972)" gradientUnits="userSpaceOnUse" x1="271.599" x2="302.338" xlink:href="#c" y1="478.038" y2="152.337"/><linearGradient id="r" gradientTransform="rotate(45 255.066 255.972)" gradientUnits="userSpaceOnUse" x1="305.263" x2="301.992" xlink:href="#c" y1="536.394" y2="322.53"/><linearGradient id="s" gradientTransform="rotate(-135 361.093 0)" gradientUnits="userSpaceOnUse" x1="256.027" x2="257.989" xlink:href="#c" y1="309.78" y2="31.823"/><linearGradient id="t" gradientTransform="rotate(-135 361.093 0)" gradientUnits="userSpaceOnUse" x1="257.142" x2="267.606" xlink:href="#c" y1="402.282" y2="115.169"/><linearGradient id="u" gradientTransform="rotate(-135 361.093 0)" gradientUnits="userSpaceOnUse" x1="273.013" x2="303.752" xlink:href="#c" y1="478.038" y2="152.337"/><linearGradient id="v" gradientTransform="rotate(-135 361.093 0)" gradientUnits="userSpaceOnUse" x1="306.677" x2="303.407" xlink:href="#c" y1="536.394" y2="322.53"/><linearGradient id="w" gradientTransform="rotate(45 255.066 255.972)" gradientUnits="userSpaceOnUse" x1="254.293" x2="254.293" xlink:href="#c" y1="462.618" y2="559.845"/><path d="M394.252 169.037c-30.616 30.616-67.364 43.506-82.08 28.79s-1.825-51.463 28.79-82.08 67.365-43.505 82.08-28.79c14.716 14.716 1.826 51.464-28.79 82.08z" fill="url(#d)"/><path d="M345.536 29.606C335.912 17.796 324.67 8.11 312.4.586c-3.206-1.966-6.995 1.372-5.456 4.805 28.123 62.74 13.616 137.94-40.352 183.09-27 22.59-59.658 34.12-92.667 35.168 46.234 29.07 107.544 27.043 152.172-8.924 56.436-45.483 65.23-128.926 19.44-185.11z" fill="url(#e)"/><path d="M299.533 195.263c55.593-46.513 62.954-129.286 16.442-184.88-2.677-3.2-5.48-6.23-8.387-9.108-.94 1.032-1.34 2.56-.643 4.115 28.123 62.74 13.616 137.932-40.352 183.084-23.493 19.656-51.27 30.935-79.834 34.22 38.42 8.542 80.24-.22 112.77-27.43z" fill="url(#f)"/><path d="M480.394 164.464c11.81 9.624 21.497 20.865 29.02 33.135 1.966 3.2-1.372 6.99-4.805 5.45-62.74-28.126-137.94-13.62-183.09 40.35-22.59 27-34.12 59.66-35.168 92.666-29.07-46.234-27.043-107.544 8.924-152.17 45.483-56.436 128.926-65.23 185.11-19.44z" fill="url(#g)"/><path d="M314.737 210.467c46.513-55.593 129.286-62.954 184.88-16.442 3.2 2.677 6.23 5.48 9.108 8.386-1.032.94-2.56 1.34-4.115.65-62.74-28.12-137.932-13.613-183.084 40.35-19.656 23.497-30.935 51.27-34.22 79.838-8.542-38.423.22-80.247 27.43-112.772z" fill="url(#h)"/><path d="M468.87 220.162c12.175 11.866 21.834 25.32 28.984 39.702 1.87 3.76-2.217 7.64-5.88 5.59-66.962-37.463-151.98-28.77-207.51 26.757-27.78 27.78-43.826 62.95-48.248 99.54-27.744-54.27-19.43-122.22 24.964-168.27 56.137-58.236 149.763-59.764 207.69-3.308z" fill="url(#i)"/><path d="M280.176 254.924c57.2-57.2 149.94-57.2 207.14 0 3.29 3.292 6.382 6.71 9.295 10.223-1.24.942-2.98 1.236-4.63.308-66.96-37.464-151.98-28.77-207.51 26.756-24.17 24.18-39.453 53.94-45.93 85.37-5.694-43.56 8.18-89.183 41.644-122.65z" fill="url(#j)"/><path d="M289.838 41.13c-11.866-12.175-25.32-21.834-39.702-28.984-3.76-1.87-7.64 2.217-5.59 5.88 37.463 66.962 28.77 151.98-26.757 207.51-27.78 27.78-62.95 43.826-99.54 48.248 54.27 27.744 122.22 19.43 168.27-24.964 58.236-56.137 59.764-149.763 3.308-207.69z" fill="url(#k)"/><path d="M255.076 229.824c57.2-57.2 57.2-149.94 0-207.14-3.292-3.29-6.71-6.382-10.223-9.295-.942 1.24-1.236 2.98-.308 4.63C282.01 84.98 273.315 170 217.79 225.53c-24.18 24.172-53.94 39.456-85.37 45.933 43.56 5.694 89.186-8.18 122.65-41.644z" fill="url(#l)"/><path d="M457.964 250.815l-198.78-198.78c16.82 53.79 7.52 113.393-28.193 158.643-18.16 8.062-37.55 12.345-57.06 12.96 9.58 6.02 19.8 10.684 30.38 14.012-25.27 20.377-55.15 32.4-86.05 36.134 33.52 17.136 72.26 20.51 107.83 10.13-10.38 35.574-7 74.312 10.13 107.83 3.74-30.896 15.76-60.776 36.14-86.052 3.327 10.584 7.992 20.81 14.01 30.382.617-19.51 4.9-38.896 12.962-57.064 45.25-35.713 104.85-45.014 158.64-28.195z" fill="url(#m)"/><path d="M47.123 462.877c-62.83-62.83-62.83-164.7 0-227.53l47.17-47.17c62.832-62.832 164.7-62.832 227.53 0 62.832 62.83 62.832 164.698 0 227.53l-47.17 47.17c-62.83 62.83-164.7 62.83-227.53 0z" fill="url(#n)"/><path d="M321.824 415.706l-47.17 47.17c-10.732 10.732-22.608 19.64-35.233 26.7-61.26 34.297-140.2 25.39-192.29-26.7-13.51-13.512-24.124-28.843-31.82-45.193C3.75 393.153-1.26 366.308.28 339.768c1.657-28.684 10.952-57 27.892-81.654 5.51-8.02 11.83-15.643 18.956-22.767l47.17-47.17c5.94-5.94 12.23-11.315 18.793-16.13 22.95.168 46.66 2.595 70.66 7.493 79.06 16.128 144.74 55.67 184.26 104.97.62 5.79.938 11.618.938 17.43 0 26.875-6.694 53.755-20.075 77.916-7.117 12.86-16.13 24.938-27.04 35.85z" fill="url(#o)"/><path d="M348.864 379.856c-7.117 12.86-16.128 24.938-27.04 35.85l-47.17 47.17c-10.732 10.732-22.608 19.64-35.233 26.7-61.26 34.297-140.2 25.39-192.29-26.7-13.51-13.512-24.124-28.843-31.82-45.193C3.75 393.153-1.26 366.308.28 339.768c1.657-28.684 10.952-57 27.892-81.654 39.19-6.375 82.33-5.716 126.44 3.28 86.15 17.572 156.41 62.953 194.257 118.462z" fill="url(#p)"/><path d="M.278 339.768c38.86-6.16 81.55-5.425 125.197 3.482 73.08 14.907 134.728 49.82 174.85 93.953l-25.672 25.673c-10.73 10.73-22.607 19.638-35.232 26.7-61.26 34.296-140.2 25.39-192.29-26.7-13.51-13.513-24.124-28.844-31.82-45.194C3.75 393.154-1.26 366.308.28 339.768z" fill="url(#q)"/><path d="M47.123 462.877c-13.513-13.513-24.126-28.844-31.82-45.194 26.145-.576 53.4 1.79 81.037 7.422 55.884 11.39 105.08 34.49 143.08 64.47-61.266 34.298-140.208 25.39-192.297-26.698z" fill="url(#r)"/><path d="M94.294 188.176l-47.17 47.17c-10.732 10.732-19.64 22.608-26.7 35.234-34.297 61.267-25.39 140.208 26.7 192.298 13.512 13.513 28.843 24.126 45.193 31.82 24.53 11.557 51.375 16.565 77.915 15.025 28.684-1.658 57-10.953 81.654-27.893 8.02-5.508 15.643-11.827 22.767-18.952l47.17-47.17c5.94-5.94 11.315-12.23 16.13-18.793-.168-22.947-2.595-46.658-7.493-70.66C314.332 247.195 274.79 181.52 225.49 142c-5.79-.617-11.618-.937-17.43-.936-26.875 0-53.755 6.694-77.916 20.075-12.86 7.11-24.938 16.12-35.85 27.04z" fill="url(#s)"/><path d="M130.144 161.136c-12.86 7.117-24.938 16.128-35.85 27.04l-47.17 47.17c-10.732 10.732-19.64 22.608-26.7 35.234-34.297 61.267-25.39 140.208 26.7 192.298 13.512 13.513 28.843 24.126 45.193 31.82 24.53 11.557 51.375 16.565 77.915 15.025 28.684-1.658 57-10.953 81.654-27.893 6.375-39.187 5.716-82.327-3.28-126.44-17.572-86.15-62.953-156.406-118.462-194.254z" fill="url(#t)"/><path d="M170.232 509.722c6.16-38.86 5.425-81.55-3.482-125.197-14.907-73.08-49.82-134.728-93.953-174.85l-25.673 25.672c-10.73 10.73-19.638 22.607-26.7 35.233-34.296 61.267-25.39 140.208 26.7 192.298 13.513 13.513 28.844 24.126 45.194 31.82 24.528 11.555 51.374 16.564 77.914 15.024z" fill="url(#u)"/><path d="M47.123 462.877c13.513 13.513 28.844 24.126 45.194 31.82.576-26.145-1.79-53.4-7.422-81.037-11.39-55.884-34.49-105.08-64.47-143.08-34.298 61.266-25.39 140.208 26.698 192.297z" fill="url(#v)"/><path d="M26.91 259.992c-41.672 62.504-34.94 147.733 20.213 202.885 55.152 55.152 140.38 61.886 202.885 20.213z" fill="url(#w)"/></svg>