<?xml version="1.0" encoding="UTF-8"?>
<svg id="Layer_2" data-name="Layer 2" xmlns="http://www.w3.org/2000/svg" viewBox="0 0 212.77 28.01">
  <defs>
    <style>
      .cls-1 {
        fill: #ec1c24;
      }

      .cls-2 {
        fill: #fff;
      }

      .cls-3 {
        stroke: #fff;
        stroke-width: .25px;
      }

      .cls-3, .cls-4 {
        fill: none;
        stroke-miterlimit: 10;
      }

      .cls-4 {
        stroke: #3b2314;
        stroke-width: 1px;
      }
    </style>
  </defs>
  <g id="Layer_1-2" data-name="Layer 1">
    <g>
      <path class="cls-1" d="M192.27,.74v7.8s9.58-.87,9.58,2.15c0,2.11,1.57,3.02,4.18,3.32-2.61,.29-4.18,1.2-4.18,3.32,0,3.01-9.58,2.15-9.58,2.15v7.8H20.5v-7.8s-9.58,.87-9.58-2.15c0-2.11-1.57-3.02-4.18-3.32,2.61-.29,4.18-1.2,4.18-3.32,0-3.01,9.58-2.15,9.58-2.15V.74H192.27Z"/>
      <path class="cls-4" d="M192.27,.74v7.8s9.58-.87,9.58,2.15c0,2.11,1.57,3.02,4.18,3.32-2.61,.29-4.18,1.2-4.18,3.32,0,3.01-9.58,2.15-9.58,2.15v7.8H20.5v-7.8s-9.58,.87-9.58-2.15c0-2.11-1.57-3.02-4.18-3.32,2.61-.29,4.18-1.2,4.18-3.32,0-3.01,9.58-2.15,9.58-2.15V.74H192.27Z"/>
      <path class="cls-1" d="M192.97,27.51H19.79v-7.75c-1.56,.09-4.84,.18-7.15-.43-1.61-.43-2.43-1.1-2.43-2.01,0-2.4-2.11-2.91-3.7-3.09l-2.04-.23,2.04-.23c1.59-.18,3.7-.69,3.7-3.09,0-.91,.82-1.58,2.43-2.01,2.31-.61,5.59-.52,7.15-.43V.5H192.97v7.75c1.56-.09,4.83-.18,7.15,.43,1.61,.43,2.43,1.1,2.43,2.01,0,2.39,2.11,2.91,3.7,3.09l2.04,.23-2.04,.23c-1.59,.18-3.7,.69-3.7,3.09,0,.9-.82,1.58-2.43,2.01-2.31,.61-5.58,.52-7.15,.43v7.75Zm-171.77-.48H191.56v-7.87l.88,.08s4.3,.38,6.81-.29c1.25-.33,1.88-.88,1.88-1.62,0-1.73,1.05-2.81,3.28-3.32-2.23-.51-3.28-1.58-3.28-3.32,0-.75-.63-1.3-1.88-1.62-2.52-.67-6.77-.29-6.81-.29l-.89,.08V.98H21.2v7.87l-.88-.08s-4.31-.38-6.82,.29c-1.25,.33-1.88,.88-1.88,1.62,0,1.73-1.05,2.81-3.28,3.32,2.23,.51,3.28,1.58,3.28,3.32,0,.75,.63,1.29,1.88,1.62,2.52,.67,6.77,.29,6.81,.29l.88-.08v7.87Z"/>
      <path class="cls-4" d="M192.97,27.51H19.79v-7.75c-1.56,.09-4.84,.18-7.15-.43-1.61-.43-2.43-1.1-2.43-2.01,0-2.4-2.11-2.91-3.7-3.09l-2.04-.23,2.04-.23c1.59-.18,3.7-.69,3.7-3.09,0-.91,.82-1.58,2.43-2.01,2.31-.61,5.59-.52,7.15-.43V.5H192.97v7.75c1.56-.09,4.83-.18,7.15,.43,1.61,.43,2.43,1.1,2.43,2.01,0,2.39,2.11,2.91,3.7,3.09l2.04,.23-2.04,.23c-1.59,.18-3.7,.69-3.7,3.09,0,.9-.82,1.58-2.43,2.01-2.31,.61-5.58,.52-7.15,.43v7.75Zm-171.77-.48H191.56v-7.87l.88,.08s4.3,.38,6.81-.29c1.25-.33,1.88-.88,1.88-1.62,0-1.73,1.05-2.81,3.28-3.32-2.23-.51-3.28-1.58-3.28-3.32,0-.75-.63-1.3-1.88-1.62-2.52-.67-6.77-.29-6.81-.29l-.89,.08V.98H21.2v7.87l-.88-.08s-4.31-.38-6.82,.29c-1.25,.33-1.88,.88-1.88,1.62,0,1.73-1.05,2.81-3.28,3.32,2.23,.51,3.28,1.58,3.28,3.32,0,.75,.63,1.29,1.88,1.62,2.52,.67,6.77,.29,6.81,.29l.88-.08v7.87Z"/>
      <path class="cls-1" d="M23.9,26.1v-8.15l-4.28,.39s-.91,.08-2.03,.08c-1.05,0-1.9-.07-2.4-.19-.58-.14-.87-.45-.87-.9,0-.64,0-2.19-2.23-3.32,2.23-1.13,2.23-2.68,2.23-3.32,0-.73,.5-1.09,3.27-1.09,1.12,0,2.04,.08,2.05,.08l4.24,.36,.02-1.5V1.91H188.86V10.06l4.28-.39s.91-.08,2.03-.08c2.76,0,3.27,.37,3.27,1.09,0,.64,0,2.19,2.23,3.32-2.23,1.13-2.23,2.68-2.23,3.32,0,.72-.51,1.09-3.27,1.09-1.12,0-2.04-.08-2.05-.08l-4.24-.36-.02,1.5v6.63H23.9Z"/>
      <path class="cls-4" d="M23.9,26.1v-8.15l-4.28,.39s-.91,.08-2.03,.08c-1.05,0-1.9-.07-2.4-.19-.58-.14-.87-.45-.87-.9,0-.64,0-2.19-2.23-3.32,2.23-1.13,2.23-2.68,2.23-3.32,0-.73,.5-1.09,3.27-1.09,1.12,0,2.04,.08,2.05,.08l4.24,.36,.02-1.5V1.91H188.86V10.06l4.28-.39s.91-.08,2.03-.08c2.76,0,3.27,.37,3.27,1.09,0,.64,0,2.19,2.23,3.32-2.23,1.13-2.23,2.68-2.23,3.32,0,.72-.51,1.09-3.27,1.09-1.12,0-2.04-.08-2.05-.08l-4.24-.36-.02,1.5v6.63H23.9Z"/>
      <path class="cls-1" d="M189.16,26.21H23.6v-8.12l-3.9,.35c-.17,.01-1.05,.08-2.11,.08s-2.02-.08-2.58-.21c-.66-.17-1-.5-1-.99,0-.64,0-2.16-2.18-3.26l-.12-.06,.12-.06c2.18-1.1,2.18-2.61,2.18-3.26,0-.76,.58-1.2,3.57-1.2,1.18,0,2.12,.08,2.13,.08l3.86,.33,.02-1.36V1.81H189.16V9.93l3.9-.35c.11,0,1.01-.08,2.11-.08,2.99,0,3.57,.44,3.57,1.2,0,.65,0,2.16,2.18,3.26l.12,.06-.12,.06c-2.18,1.1-2.18,2.61-2.18,3.26,0,.76-.58,1.2-3.57,1.2-1.16,0-2.08-.08-2.12-.08l-3.86-.33-.02,1.36v6.74Zm-164.95-.21H188.55l.02-8.16,4.62,.4s.9,.08,1.97,.08c2.54,0,2.96-.3,2.96-.99s0-2.17,2.17-3.32c-2.17-1.15-2.17-2.66-2.17-3.32s-.43-.99-2.96-.99c-1.03,0-1.87,.07-1.96,.07l-4.66,.42V2.01H24.21l-.02,8.16-4.62-.4s-.89-.08-1.97-.08c-2.54,0-2.96,.31-2.96,.99s0,2.17-2.17,3.32c2.17,1.15,2.17,2.66,2.17,3.32,0,.41,.26,.7,.74,.82,.44,.11,1.25,.17,2.22,.17s1.86-.07,1.96-.07l4.66-.42v8.18Z"/>
      <path class="cls-4" d="M189.16,26.21H23.6v-8.12l-3.9,.35c-.17,.01-1.05,.08-2.11,.08s-2.02-.08-2.58-.21c-.66-.17-1-.5-1-.99,0-.64,0-2.16-2.18-3.26l-.12-.06,.12-.06c2.18-1.1,2.18-2.61,2.18-3.26,0-.76,.58-1.2,3.57-1.2,1.18,0,2.12,.08,2.13,.08l3.86,.33,.02-1.36V1.81H189.16V9.93l3.9-.35c.11,0,1.01-.08,2.11-.08,2.99,0,3.57,.44,3.57,1.2,0,.65,0,2.16,2.18,3.26l.12,.06-.12,.06c-2.18,1.1-2.18,2.61-2.18,3.26,0,.76-.58,1.2-3.57,1.2-1.16,0-2.08-.08-2.12-.08l-3.86-.33-.02,1.36v6.74Zm-164.95-.21H188.55l.02-8.16,4.62,.4s.9,.08,1.97,.08c2.54,0,2.96-.3,2.96-.99s0-2.17,2.17-3.32c-2.17-1.15-2.17-2.66-2.17-3.32s-.43-.99-2.96-.99c-1.03,0-1.87,.07-1.96,.07l-4.66,.42V2.01H24.21l-.02,8.16-4.62-.4s-.89-.08-1.97-.08c-2.54,0-2.96,.31-2.96,.99s0,2.17-2.17,3.32c2.17,1.15,2.17,2.66,2.17,3.32,0,.41,.26,.7,.74,.82,.44,.11,1.25,.17,2.22,.17s1.86-.07,1.96-.07l4.66-.42v8.18Z"/>
      <path class="cls-2" d="M136.46,14.06c.02,.77-.58,1.3-1.78,1.58-.15,.27-.29,.46-.42,.56-.2,.15-.5,.24-.9,.27-.25,.01-.53,0-.82-.03-.52-.06-1.17-.13-1.93-.21-.21-.03-.34-.12-.39-.28,.04-.17,.28-.28,.75-.31,.63-.03,1.56-.11,2.79-.24,.46-.08,.79-.27,.98-.57,.11-.15,.17-.35,.17-.57,0-.4-.28-1.12-.84-2.14-.55-1-.81-1.66-.77-2,.07-.81,1.09-1.37,3.07-1.68,.2-.03,.29,.02,.29,.15,0,.08-.07,.14-.21,.18-.95,.3-1.43,.68-1.43,1.12,0,.17,.05,.39,.13,.65,.09,.26,.36,.89,.81,1.88,.33,.71,.5,1.26,.51,1.63m2.1-5.54c0,.29-.1,.75-.32,1.39-.08,.22-.17,.36-.27,.42-.05,.03-.2,.08-.45,.14-.33,.09-.53,.13-.61,.13-.13,0-.2-.07-.2-.19,0-.07,.02-.16,.05-.28,.22-.63,.3-1.08,.25-1.33-.05-.25,.05-.4,.3-.47,.44-.16,.72-.24,.85-.24,.28,0,.41,.14,.41,.41Zm-8.89,.71c0-.25-.08-.38-.23-.38-.1,0-.24,.05-.43,.15-.87,.51-1.64,1.4-2.3,2.67,.18,.02,.49,.04,.93,.06,.72,.02,1.25-.1,1.61-.36,.26-.19,.41-.51,.44-.95-.02,.33-.03-.07-.03-1.2Zm1.56,4.26c-2.16,2-3.68,3-4.56,3-.42,0-.95-.21-1.59-.63-.67-.23-1-.53-1-.91,0-.07,0-.14,.03-.22,.16-.88,.49-1.86,.98-2.93-.33-.12-.49-.24-.49-.35,0-.09,.09-.13,.28-.13,.15,0,.29,.03,.44,.09,.79-1.28,1.5-2.19,2.12-2.73,.41-.36,.77-.54,1.1-.54,.15,0,.52,.09,1.12,.28-.05-.19,.03-.31,.23-.34h.63c.39,0,.58,.05,.58,.14,0,.02-.01,.07-.04,.16-.03,.09-.04,.17-.04,.25,0,.23,0,.52,.01,.86,0,.34,.01,.57,.01,.68,0,.8-.3,1.35-.9,1.67-.55,.29-1.17,.43-1.86,.43-.36,0-.96-.07-1.81-.21-.15,.2-.32,.59-.5,1.16-.25,.73-.36,1.38-.35,1.94,0,.33,.15,.5,.44,.5,.1,0,.24-.02,.41-.06,1.03-.26,2.46-1.06,4.3-2.4,.12-.08,.23-.12,.35-.12,.17,0,.26,.06,.26,.17,0,.07-.05,.14-.13,.22Zm-7.07-4.51c0,.84-.15,1.64-.47,2.41-.1,.23-.23,.35-.4,.35-.13,0-.4-.13-.83-.38-.21-.13-.27-.31-.16-.55,.25-.59,.38-1.06,.38-1.41,0-.12-.04-.18-.11-.18-.1,0-.28,.12-.52,.35-1.85,1.74-3.24,3.7-4.16,5.86-.29,.69-.54,1.03-.75,1.03-.08,0-.43-.11-1.05-.34-.3-.11-.4-.32-.31-.64,.7-2.23,1.45-4.11,2.26-5.64-.66,.5-1.08,.85-1.25,1.03-.07,.08-.17,.12-.29,.12-.15,0-.23-.05-.23-.14,0-.06,.04-.12,.1-.19,.44-.38,1.02-.95,1.75-1.73,.22-.28,.45-.42,.67-.42,.16,0,.48,.09,.97,.27,.28,.1,.32,.24,.14,.41-.2,.19-.56,.85-1.11,1.98-.52,1.1-.87,1.96-1.07,2.58,1.21-1.95,2.59-3.67,4.13-5.16,.3-.28,.53-.42,.71-.42,.16,0,.38,.08,.65,.24,.38,.03,.61,.07,.71,.12,.15,.08,.23,.23,.23,.46Zm-7.3-5.06c.25,.1,.37,.2,.37,.32,0,.08-.09,.13-.25,.13-.03,0-.09,0-.16,0-.08,0-.13,0-.17,0-.34,0-.74,.27-1.22,.8-.42,.48-1.01,1.51-1.77,3.1-.07,.14-.1,.23-.08,.25,.03,.04,.14,.07,.35,.08,.52,.03,1.22,.02,2.1-.04,.3-.02,.45,.08,.45,.28,0,.14-.11,.23-.35,.26-.19,.02-1.16,.08-2.94,.17-1.06,2.26-1.71,4.17-1.94,5.73,0,.08-.01,.16-.01,.22,0,.22,.08,.33,.23,.33,.24,0,.96-.42,2.16-1.27,.14-.1,.28-.15,.41-.15,.11,0,.18,.04,.21,.11,.03,.08-.01,.17-.12,.27-.72,.69-1.42,1.27-2.11,1.75-.29,.2-.54,.3-.73,.3s-.5-.11-.9-.34c-.5-.1-.76-.29-.76-.58,0-.05,0-.1,.03-.15,.33-1.66,.97-3.69,1.93-6.12-.46-.05-.89-.09-1.27-.13-.17-.02-.25-.1-.25-.23,0-.15,.09-.24,.26-.27,.18-.03,.51-.1,.99-.21,.29-.07,.57-.17,.85-.29,.95-2.13,1.69-3.51,2.23-4.14,.31-.36,.64-.54,1-.54,.34,0,.83,.13,1.47,.38Zm-10,10.14c.02,.77-.58,1.3-1.78,1.58-.15,.27-.29,.46-.42,.56-.2,.15-.5,.24-.9,.27-.25,.01-.53,0-.82-.03-.52-.06-1.17-.13-1.93-.21-.21-.03-.34-.12-.39-.28,.04-.17,.28-.28,.75-.31,.63-.03,1.56-.11,2.79-.24,.46-.08,.79-.27,.98-.57,.11-.15,.17-.35,.17-.57,0-.4-.28-1.12-.84-2.14-.55-1-.81-1.66-.77-2,.07-.81,1.09-1.37,3.07-1.68,.2-.03,.29,.02,.29,.15,0,.08-.07,.14-.21,.18-.95,.3-1.43,.68-1.43,1.12,0,.17,.05,.39,.13,.65,.09,.26,.36,.89,.81,1.88,.33,.71,.5,1.26,.51,1.63Zm2.1-5.54c0,.29-.1,.75-.32,1.39-.08,.22-.17,.36-.27,.42-.05,.03-.2,.08-.45,.14-.33,.09-.53,.13-.61,.13-.13,0-.2-.07-.2-.19,0-.07,.02-.16,.05-.28,.22-.63,.3-1.08,.25-1.33-.05-.25,.05-.4,.3-.47,.44-.16,.72-.24,.85-.24,.28,0,.41,.14,.41,.41Zm-8.77,1.9c.06-.43,.09-.7,.09-.82,0-.27-.11-.4-.35-.4-.09,0-.2,.01-.35,.04l-2.06,.61c-.24,.07-.38,.11-.41,.11-.07,0-.14-.06-.21-.18-.51,.46-1,1.12-1.44,1.98-.35,.67-.59,1.28-.72,1.81-.09,.36-.15,.69-.15,.98,0,.99,.42,1.47,1.26,1.45,.34,0,.7-.1,1.09-.29,.75-.37,1.44-1.1,2.09-2.2,.62-1.04,1-2.06,1.15-3.08Zm1.54-.29c-.02,.57-.21,1.33-.57,2.28-.58,1.49-1.4,2.65-2.45,3.47-.56,.44-1.18,.65-1.87,.65-.27,0-.61-.04-1.03-.12-.83-.04-1.51-.23-2.04-.57-.57-.37-.84-.85-.8-1.43,.04-.68,.36-1.63,.97-2.85,.67-1.33,1.38-2.29,2.11-2.87,.35-.28,.63-.42,.86-.42,.3,0,.79,.22,1.46,.66,.19-.07,.57-.18,1.15-.36,.3-.07,.52-.11,.67-.11,.35,0,.73,.23,1.16,.7,.28,.29,.4,.61,.39,.96Zm-7.57-3.76c-.23,.69-.84,1.58-1.81,2.65-.98,1.07-1.82,1.8-2.55,2.17-.51,.26-1,.39-1.5,.39-.29,0-.97-.16-2.05-.47-.21-.06-.32-.14-.32-.22,0-.13,.25-.19,.74-.19,.81,0,1.43-.12,1.85-.36,.86-.47,1.66-1.11,2.43-1.93,.98-1.03,1.56-2.05,1.75-3.04,.1-.55-.15-.87-.77-.98-.28-.05-.57-.05-.86,0-1.37,.05-2.7,.27-3.97,.65-1.48,3.88-2.84,6.98-4.08,9.3,.07-.02,.33-.13,.78-.33,.26-.11,.46-.16,.61-.14,.25,.03,.51,.22,.76,.56,.2,.28,.3,.48,.3,.62,0,.17-.15,.25-.47,.23-.22-.02-.59,.07-1.11,.27-.56,.21-1.04,.46-1.44,.75-.2,.14-.4,.21-.61,.21-.29,0-.65-.14-1.08-.42-.27-.19-.38-.35-.35-.48,.03-.11,.17-.18,.42-.23,2.16-3.61,3.77-6.92,4.82-9.91-3.33,1.09-5,2.1-5,3.04,0,.14,.03,.27,.1,.4,.02,.05,.1,.21,.26,.49,.04,.07,.05,.12,.05,.18,0,.18-.1,.27-.3,.27-.28,0-.81-.56-1.6-1.68-.12-.15-.18-.31-.18-.46,0-.38,.33-.79,.99-1.24,.45-.3,1.3-.71,2.56-1.24,1.35-.55,2.55-.97,3.61-1.25,.1-.32,.16-.57,.16-.77,0-.26,.09-.38,.27-.38,.24,0,.66,.24,1.27,.71,1.46-.3,2.46-.45,2.97-.45,.99,.01,1.69,.39,2.11,1.13,.53,.28,.89,.5,1.07,.66,.22,.2,.33,.44,.33,.71,0,.2-.06,.47-.17,.81Z"/>
      <path class="cls-3" d="M94.32,5.55c0-.28-.11-.51-.33-.71-.18-.16-.53-.38-1.07-.67-.42-.74-1.12-1.11-2.11-1.13-.52,0-1.5,.14-2.97,.45-.6-.47-1.03-.7-1.26-.7-.18,0-.27,.13-.27,.39,0,.2-.05,.46-.16,.77-1.06,.28-2.26,.7-3.61,1.25-1.25,.52-2.1,.93-2.56,1.23-.66,.44-.98,.85-.98,1.23,0,.15,.06,.31,.17,.46,.78,1.12,1.31,1.68,1.58,1.68,.2,0,.29-.09,.29-.27,0-.06-.02-.12-.05-.18-.15-.28-.24-.44-.25-.49-.06-.13-.09-.26-.09-.4,0-.94,1.67-1.95,5.01-3.04-1.06,2.99-2.67,6.3-4.83,9.91-.26,.04-.4,.12-.43,.23-.03,.13,.08,.3,.35,.48,.43,.28,.79,.42,1.08,.42,.21,0,.42-.07,.61-.21,.4-.29,.88-.54,1.44-.75,.52-.2,.88-.29,1.11-.27,.31,.02,.47-.06,.47-.23,0-.14-.1-.34-.31-.62-.25-.34-.5-.53-.76-.56-.15-.01-.35,.03-.61,.14-.45,.2-.71,.31-.79,.33,1.24-2.32,2.61-5.42,4.09-9.29,1.28-.38,2.61-.6,3.98-.66,.29-.04,.58-.04,.87,0,.62,.11,.88,.44,.77,.98-.19,1-.77,2.01-1.74,3.05-.76,.82-1.57,1.46-2.43,1.93-.43,.24-1.04,.36-1.85,.36-.49,0-.73,.06-.73,.19,0,.08,.11,.16,.32,.22,1.08,.31,1.77,.47,2.05,.47,.49,0,.99-.13,1.49-.39,.72-.37,1.56-1.1,2.54-2.17,.97-1.07,1.57-1.96,1.81-2.65,.12-.34,.17-.61,.17-.81Z"/>
      <path class="cls-3" d="M99.05,13.49c-.65,1.1-1.35,1.83-2.09,2.2-.39,.19-.75,.28-1.09,.29-.84,.03-1.26-.46-1.26-1.45,0-.3,.05-.62,.15-.98,.13-.53,.37-1.14,.72-1.81,.44-.86,.92-1.52,1.44-1.97,.07,.12,.14,.18,.21,.18,.04,0,.17-.04,.41-.11l2.06-.61c.14-.03,.26-.04,.35-.04,.23,0,.34,.13,.34,.4,0,.12-.03,.39-.09,.82-.14,1.02-.52,2.04-1.15,3.07Zm2.29-4.32c-.43-.47-.81-.7-1.16-.7-.15,0-.37,.03-.67,.11-.58,.17-.96,.29-1.15,.36-.67-.45-1.16-.67-1.47-.67-.22,0-.51,.14-.85,.42-.73,.58-1.43,1.54-2.1,2.87-.61,1.22-.94,2.17-.97,2.85-.04,.58,.23,1.06,.8,1.44,.52,.34,1.2,.53,2.04,.57,.42,.08,.76,.12,1.03,.12,.68,0,1.31-.22,1.86-.65,1.06-.82,1.87-1.98,2.45-3.47,.36-.94,.55-1.7,.57-2.27,.02-.35-.11-.67-.39-.96Z"/>
      <path class="cls-3" d="M106.35,12.42c-.44-.99-.71-1.61-.8-1.87-.09-.26-.13-.48-.13-.65,0-.44,.48-.82,1.44-1.12,.14-.05,.21-.11,.21-.18,0-.14-.1-.19-.29-.15-1.98,.31-3.01,.87-3.08,1.68-.04,.33,.22,1,.77,2,.56,1.02,.84,1.74,.84,2.14,0,.23-.06,.41-.17,.57-.19,.3-.52,.49-.98,.57-1.23,.13-2.17,.21-2.8,.24-.46,.03-.71,.13-.74,.31,.04,.16,.17,.25,.39,.28,.76,.08,1.41,.16,1.93,.21,.29,.03,.57,.04,.83,.03,.4-.03,.7-.12,.91-.27,.13-.1,.27-.29,.43-.56,1.21-.28,1.8-.81,1.77-1.58,0-.37-.18-.91-.51-1.63Zm2.22-4.32c-.12,0-.4,.08-.84,.24-.25,.06-.35,.22-.3,.47,.05,.25-.03,.69-.25,1.32-.04,.12-.05,.21-.05,.28,0,.13,.07,.19,.2,.19,.08,0,.28-.04,.61-.14,.26-.06,.41-.11,.45-.14,.1-.06,.19-.21,.27-.42,.21-.64,.32-1.1,.32-1.39s-.14-.41-.41-.41Z"/>
      <path class="cls-3" d="M115.39,3.55c-.36,0-.69,.18-1,.54-.54,.63-1.29,2.01-2.24,4.13-.28,.12-.56,.22-.85,.29-.48,.11-.81,.18-.99,.21-.18,.03-.27,.12-.27,.27,0,.13,.08,.21,.25,.23,.38,.05,.81,.09,1.28,.13-.96,2.42-1.6,4.46-1.93,6.12-.02,.06-.03,.11-.03,.15,0,.29,.25,.48,.76,.58,.41,.23,.71,.34,.91,.34s.44-.1,.73-.3c.69-.48,1.4-1.07,2.12-1.75,.11-.1,.15-.19,.12-.27-.03-.07-.1-.11-.21-.11-.13,0-.27,.05-.41,.16-1.21,.84-1.93,1.26-2.17,1.26-.15,0-.23-.11-.23-.33,0-.06,0-.14,.01-.22,.23-1.56,.88-3.47,1.95-5.73,1.78-.1,2.76-.15,2.94-.17,.23-.03,.35-.12,.35-.26,0-.2-.15-.3-.45-.28-.88,.06-1.58,.07-2.1,.04-.2,0-.32-.03-.35-.08-.02-.03,0-.11,.08-.25,.75-1.59,1.34-2.63,1.77-3.1,.48-.53,.89-.8,1.23-.8,.04,0,.09,0,.17,.01,.08,0,.13,.02,.17,.02,.17,0,.25-.04,.25-.12,0-.12-.12-.23-.37-.33-.65-.26-1.14-.39-1.48-.39Z"/>
      <path class="cls-3" d="M123.9,8.52c-.1-.05-.33-.09-.71-.12-.28-.15-.49-.23-.65-.23-.18,0-.41,.14-.71,.42-1.54,1.49-2.91,3.21-4.12,5.16,.2-.62,.55-1.49,1.07-2.58,.54-1.13,.91-1.79,1.1-1.98,.19-.17,.14-.31-.13-.41-.49-.18-.81-.27-.97-.27-.22,0-.45,.14-.67,.42-.73,.78-1.31,1.36-1.75,1.74-.07,.07-.11,.13-.11,.19,0,.1,.07,.14,.23,.14,.12,0,.22-.04,.29-.12,.18-.19,.59-.53,1.25-1.03-.81,1.53-1.56,3.4-2.26,5.63-.1,.32,0,.53,.31,.64,.62,.22,.97,.34,1.05,.34,.2,0,.45-.34,.75-1.03,.92-2.17,2.29-4.12,4.14-5.86,.24-.23,.41-.35,.52-.35,.07,0,.11,.06,.11,.18,0,.35-.12,.82-.37,1.41-.11,.24-.05,.42,.16,.55,.43,.26,.7,.39,.83,.39,.17,0,.3-.12,.4-.35,.31-.76,.47-1.57,.47-2.41,0-.23-.08-.39-.23-.46Z"/>
      <path class="cls-3" d="M129.7,10.42c-.03,.44-.17,.76-.44,.95-.36,.26-.89,.38-1.61,.36-.44-.02-.76-.04-.93-.06,.66-1.27,1.42-2.16,2.29-2.67,.19-.1,.33-.15,.43-.15,.15,0,.23,.12,.23,.38,0,1.13,.01,1.52,.04,1.19Zm1.65,2.84c0-.12-.08-.17-.25-.17-.12,0-.23,.04-.35,.12-1.84,1.34-3.27,2.15-4.3,2.41-.17,.04-.31,.06-.41,.06-.29,0-.43-.17-.44-.5-.02-.56,.1-1.22,.35-1.95,.19-.58,.35-.97,.51-1.17,.84,.14,1.45,.21,1.81,.21,.69,0,1.31-.15,1.86-.43,.61-.32,.91-.87,.91-1.67,0-.11,0-.34-.01-.68,0-.34-.01-.63-.01-.86,0-.08,.01-.16,.04-.25,.03-.09,.04-.14,.04-.16,0-.1-.19-.14-.57-.14h-.63c-.19,.03-.27,.14-.23,.34-.6-.19-.97-.28-1.12-.28-.33,0-.7,.18-1.1,.54-.63,.54-1.34,1.45-2.13,2.74-.15-.06-.3-.09-.44-.09-.19,0-.28,.04-.28,.13,0,.11,.16,.23,.49,.35-.49,1.07-.81,2.04-.97,2.92-.02,.08-.03,.15-.03,.22,0,.38,.33,.68,1,.91,.64,.42,1.17,.63,1.59,.63,.88,0,2.4-1,4.56-3,.09-.08,.13-.15,.13-.22Z"/>
      <path class="cls-3" d="M135.95,12.42c-.44-.99-.71-1.61-.8-1.87-.09-.26-.13-.48-.13-.65,0-.44,.48-.82,1.44-1.12,.14-.05,.21-.11,.21-.18,0-.14-.1-.19-.29-.15-1.98,.31-3.01,.87-3.08,1.68-.04,.33,.22,1,.77,2,.56,1.02,.84,1.74,.84,2.14,0,.23-.06,.41-.17,.57-.19,.3-.52,.49-.98,.57-1.23,.13-2.17,.21-2.8,.24-.46,.03-.71,.13-.74,.31,.04,.16,.17,.25,.39,.28,.76,.08,1.41,.16,1.93,.21,.29,.03,.57,.04,.83,.03,.4-.03,.7-.12,.91-.27,.13-.1,.28-.29,.43-.56,1.21-.28,1.8-.81,1.77-1.58,0-.37-.18-.91-.51-1.63Zm2.22-4.32c-.12,0-.4,.08-.84,.24-.25,.06-.35,.22-.3,.47,.05,.25-.03,.69-.25,1.32-.03,.12-.05,.21-.05,.28,0,.13,.07,.19,.2,.19,.08,0,.28-.04,.61-.14,.26-.06,.41-.11,.45-.14,.1-.06,.19-.21,.27-.42,.21-.64,.32-1.1,.32-1.39s-.14-.41-.41-.41Z"/>
      <path class="cls-2" d="M165.22,24.43c.25,.16,.61,.26,.99,.26,.84,0,1.32-.47,1.32-1.14,0-.57-.31-.9-.93-1.15-.46-.19-.67-.33-.67-.64,0-.28,.21-.52,.59-.52,.33,0,.58,.13,.72,.22l.16-.5c-.2-.13-.51-.24-.87-.24-.76,0-1.22,.5-1.22,1.12,0,.46,.3,.83,.93,1.08,.47,.19,.66,.37,.66,.7s-.22,.57-.69,.57c-.32,0-.66-.14-.85-.27l-.16,.53Zm-1.14-5.12c-.23,0-.4,.19-.4,.43s.16,.42,.39,.42c.26,0,.42-.19,.41-.42,0-.24-.15-.43-.39-.43Zm.32,5.3v-3.8h-.64v3.8h.64Zm-2.91-4.72v.91h-.55v.53h.55v2.08c0,.45,.07,.79,.25,.99,.15,.19,.39,.29,.69,.29,.25,0,.45-.04,.57-.09l-.03-.52c-.08,.02-.2,.05-.37,.05-.36,0-.48-.27-.48-.74v-2.05h.92v-.53h-.92v-1.09l-.63,.18Zm-1.8,3.43c0,.07-.01,.15-.04,.22-.1,.32-.39,.64-.85,.64-.33,0-.61-.21-.61-.66,0-.74,.8-.87,1.5-.86v.66Zm.68,1.28c-.04-.26-.06-.58-.06-.91v-1.42c0-.76-.26-1.56-1.34-1.56-.45,0-.87,.13-1.16,.34l.15,.46c.25-.17,.59-.28,.92-.28,.72,0,.8,.57,.8,.88v.08c-1.37,0-2.13,.5-2.13,1.41,0,.55,.37,1.09,1.08,1.09,.5,0,.88-.27,1.08-.57h.02l.05,.48h.58Zm-4.93,0h.64v-2.03c0-.12,.01-.23,.03-.32,.09-.52,.41-.89,.86-.89,.09,0,.15,0,.22,.02v-.65c-.06-.02-.11-.02-.18-.02-.43,0-.82,.32-.98,.83h-.03l-.02-.75h-.56c.02,.35,.03,.74,.03,1.19v2.62Zm-.95-2.78h-1.62v.55h1v1.58c-.15,.08-.43,.14-.85,.14-1.15,0-1.9-.79-1.9-2.14s.78-2.13,1.98-2.13c.5,0,.83,.1,1.09,.23l.15-.56c-.21-.11-.66-.24-1.23-.24-1.65,0-2.66,1.16-2.67,2.73,0,.83,.26,1.53,.69,1.97,.48,.5,1.1,.7,1.84,.7,.66,0,1.23-.18,1.51-.29v-2.55Zm-8.61,.51c.05-.48,.34-1.12,.99-1.12,.72,0,.9,.68,.89,1.12h-1.88Zm2.48,.5c0-.07,.02-.18,.02-.32,0-.7-.31-1.79-1.46-1.79-1.03,0-1.66,.9-1.66,2.05s.65,1.92,1.74,1.92c.56,0,.95-.13,1.18-.24l-.11-.49c-.24,.11-.52,.2-.98,.2-.64,0-1.2-.39-1.21-1.32h2.48Zm-6.36-.43c0-.11,.02-.2,.04-.28,.13-.53,.54-.85,.98-.85,.69,0,1.05,.65,1.05,1.41,0,.87-.4,1.46-1.07,1.46-.47,0-.84-.33-.96-.81-.01-.08-.03-.16-.03-.25v-.68Zm-.11,2.21l.03-.63h.02c.26,.5,.67,.72,1.18,.72,.79,0,1.58-.68,1.58-2.04,0-1.16-.61-1.94-1.49-1.94-.57,0-.98,.27-1.2,.7h-.01v-2.39h-.64v4.6c0,.34-.01,.72-.03,.98h.56Zm-2.18-1.28c0,.07-.01,.15-.04,.22-.1,.32-.39,.64-.85,.64-.33,0-.61-.21-.61-.66,0-.74,.8-.87,1.5-.86v.66Zm.68,1.28c-.04-.26-.06-.58-.06-.91v-1.42c0-.76-.26-1.56-1.34-1.56-.45,0-.87,.13-1.16,.34l.15,.46c.25-.17,.59-.28,.92-.28,.72,0,.8,.57,.8,.88v.08c-1.37,0-2.13,.5-2.13,1.41,0,.55,.37,1.09,1.08,1.09,.5,0,.88-.27,1.08-.57h.02l.05,.48h.58Zm-4.89,0h.64v-2.03c0-.12,.01-.23,.03-.32,.09-.52,.41-.89,.86-.89,.09,0,.15,0,.22,.02v-.65c-.06-.02-.11-.02-.18-.02-.43,0-.82,.32-.98,.83h-.03l-.02-.75h-.56c.02,.35,.03,.74,.03,1.19v2.62Zm-3.52-2.2l.48-1.53c.09-.32,.18-.64,.25-.96h.01c.07,.31,.15,.62,.26,.97l.48,1.52h-1.48Zm1.61,.53l.53,1.67h.68l-1.68-5.3h-.77l-1.67,5.3h.66l.51-1.67h1.75Zm-6.08-3.78l-.64,1.12h.46l.89-1.12h-.71Zm-1.32,3.18c.05-.48,.34-1.12,.99-1.12,.72,0,.9,.68,.89,1.12h-1.88Zm2.48,.5c0-.07,.02-.18,.02-.32,0-.7-.31-1.79-1.46-1.79-1.03,0-1.66,.9-1.66,2.05s.65,1.92,1.74,1.92c.56,0,.95-.13,1.18-.24l-.11-.49c-.24,.11-.52,.2-.98,.2-.64,0-1.2-.39-1.21-1.32h2.48Zm-4.18,1.78v-3.28h.85v-.53h-.85v-.2c0-.58,.14-1.1,.69-1.1,.18,0,.31,.04,.41,.09l.09-.53c-.12-.05-.32-.11-.55-.11-.3,0-.62,.1-.86,.35-.3,.31-.41,.79-.41,1.33v.18h-.5v.53h.5v3.28h.64Zm-2.36-1.28c0,.07-.01,.15-.04,.22-.1,.32-.39,.64-.85,.64-.33,0-.61-.21-.61-.66,0-.74,.8-.87,1.5-.86v.66Zm.68,1.28c-.04-.26-.06-.58-.06-.91v-1.42c0-.76-.26-1.56-1.34-1.56-.45,0-.87,.13-1.16,.34l.15,.46c.25-.17,.59-.28,.92-.28,.72,0,.8,.57,.8,.88v.08c-1.37,0-2.13,.5-2.13,1.41,0,.55,.37,1.09,1.08,1.09,.5,0,.88-.27,1.08-.57h.02l.05,.48h.58Zm-3.45-.72c-.26,.13-.65,.22-1.04,.22-1.2,0-1.89-.83-1.89-2.13,0-1.39,.77-2.18,1.92-2.18,.41,0,.75,.09,.99,.22l.15-.56c-.17-.09-.55-.24-1.17-.24-1.53,0-2.57,1.12-2.57,2.78s1.04,2.68,2.43,2.68c.6,0,1.07-.13,1.3-.25l-.13-.54Zm-7.43,.72h.62v-5.11h-.55l-1.04,.6,.12,.53,.83-.48h.01v4.46Zm-6.79,0h.64v-2.29c0-.12,.01-.24,.04-.32,.11-.39,.44-.71,.86-.71,.61,0,.82,.51,.82,1.12v2.19h.64v-2.27c0-1.3-.76-1.62-1.25-1.62-.58,0-.99,.35-1.17,.72h-.01l-.04-.63h-.57c.02,.31,.03,.64,.03,1.03v2.77Zm-3.29-2.27c.05-.48,.34-1.12,.99-1.12,.72,0,.9,.68,.89,1.12h-1.88Zm2.48,.5c0-.07,.02-.18,.02-.32,0-.7-.31-1.79-1.46-1.79-1.03,0-1.66,.9-1.66,2.05s.65,1.92,1.74,1.92c.56,0,.95-.13,1.18-.24l-.11-.49c-.24,.11-.52,.2-.98,.2-.64,0-1.2-.39-1.21-1.32h2.48Zm-6.67-2.03l1.31,3.51c.03,.09,.04,.14,.04,.18s-.02,.09-.05,.17c-.15,.35-.37,.62-.54,.77-.19,.17-.4,.28-.56,.34l.16,.58c.16-.03,.47-.15,.79-.45,.44-.41,.75-1.08,1.21-2.38l.96-2.71h-.68l-.7,2.23c-.09,.27-.16,.57-.23,.79h-.01c-.06-.23-.15-.53-.23-.78l-.77-2.25h-.7Zm-.6,0h-.64v2.33c0,.13-.02,.25-.06,.35-.12,.31-.42,.63-.85,.63-.58,0-.79-.49-.79-1.21v-2.11h-.64v2.22c0,1.34,.66,1.67,1.22,1.67,.63,0,1-.4,1.17-.71h.01l.04,.62h.57c-.02-.3-.03-.64-.03-1.04v-2.77Zm-4.68,3.8h.64v-5.58h-.64v5.58Zm-.86-.66c-.18,.09-.42,.19-.79,.19-.7,0-1.23-.54-1.23-1.42,0-.79,.44-1.44,1.25-1.44,.35,0,.59,.09,.74,.18l.15-.53c-.18-.09-.51-.2-.89-.2-1.15,0-1.9,.85-1.9,2.02s.69,1.94,1.76,1.94c.47,0,.85-.13,1.01-.22l-.11-.52Zm-6.46,.66h.64v-2.29c0-.12,.01-.24,.04-.32,.11-.39,.44-.71,.86-.71,.61,0,.82,.51,.82,1.12v2.19h.64v-2.27c0-1.3-.76-1.62-1.25-1.62-.58,0-.99,.35-1.17,.72h-.01l-.04-.63h-.57c.02,.31,.03,.64,.03,1.03v2.77Zm-1.8-5.3v5.3h.64v-5.3h-.64Zm-4.71,5.12c.25,.16,.61,.26,.99,.26,.84,0,1.32-.47,1.32-1.14,0-.57-.31-.9-.93-1.15-.46-.19-.67-.33-.67-.64,0-.28,.21-.52,.59-.52,.33,0,.58,.13,.72,.22l.16-.5c-.2-.13-.51-.24-.87-.24-.76,0-1.22,.5-1.22,1.12,0,.46,.3,.83,.93,1.08,.47,.19,.66,.37,.66,.7s-.22,.57-.69,.57c-.32,0-.66-.14-.85-.27l-.16,.53Zm-3.04-2.09c.05-.48,.34-1.12,.99-1.12,.72,0,.9,.68,.89,1.12h-1.88Zm2.48,.5c0-.07,.02-.18,.02-.32,0-.7-.31-1.79-1.46-1.79-1.03,0-1.66,.9-1.66,2.05s.65,1.92,1.74,1.92c.56,0,.95-.13,1.18-.24l-.11-.49c-.24,.11-.52,.2-.98,.2-.64,0-1.2-.39-1.21-1.32h2.48Zm-5.15,1.78h.64v-2.03c0-.12,.01-.23,.03-.32,.09-.52,.41-.89,.86-.89,.09,0,.15,0,.22,.02v-.65c-.06-.02-.11-.02-.18-.02-.43,0-.82,.32-.98,.83h-.03l-.02-.75h-.56c.02,.35,.03,.74,.03,1.19v2.62Zm-2.27-4.72v.91h-.55v.53h.55v2.08c0,.45,.07,.79,.25,.99,.15,.19,.39,.29,.69,.29,.25,0,.45-.04,.57-.09l-.03-.52c-.08,.02-.2,.05-.37,.05-.36,0-.48-.27-.48-.74v-2.05h.92v-.53h-.92v-1.09l-.63,.18Zm-3.29,4.53c.25,.16,.61,.26,.99,.26,.84,0,1.32-.47,1.32-1.14,0-.57-.31-.9-.93-1.15-.46-.19-.67-.33-.67-.64,0-.28,.21-.52,.59-.52,.33,0,.58,.13,.72,.22l.16-.5c-.2-.13-.51-.24-.87-.24-.76,0-1.22,.5-1.22,1.12,0,.46,.3,.83,.93,1.08,.47,.19,.66,.37,.66,.7s-.22,.57-.69,.57c-.32,0-.66-.14-.85-.27l-.16,.53Zm-2.28-3.19c.76,0,1.06,.82,1.06,1.46,0,.86-.46,1.48-1.07,1.48s-1.07-.63-1.07-1.46c0-.72,.33-1.48,1.09-1.48Zm.01-.52c-.98,0-1.75,.75-1.75,2.02,0,1.2,.74,1.96,1.69,1.96,.85,0,1.76-.61,1.76-2.02,0-1.16-.69-1.96-1.7-1.96Zm-4.54-.85c.11-.03,.32-.06,.6-.06,.7,0,1.16,.34,1.16,1.04s-.47,1.13-1.23,1.13c-.21,0-.39-.02-.53-.06v-2.06Zm-.64,4.74h.64v-2.12c.15,.04,.32,.05,.51,.05,.62,0,1.17-.2,1.5-.58,.25-.28,.38-.65,.38-1.13s-.16-.86-.43-1.11c-.29-.28-.75-.44-1.38-.44-.51,0-.91,.05-1.22,.1v5.23Zm-4.71-.18c.25,.16,.61,.26,.99,.26,.84,0,1.32-.47,1.32-1.14,0-.57-.31-.9-.93-1.15-.46-.19-.67-.33-.67-.64,0-.28,.21-.52,.59-.52,.33,0,.58,.13,.72,.22l.16-.5c-.2-.13-.51-.24-.87-.24-.76,0-1.22,.5-1.22,1.12,0,.46,.3,.83,.93,1.08,.48,.19,.66,.37,.66,.7s-.22,.57-.69,.57c-.32,0-.66-.14-.85-.27l-.16,.53Zm-2.28-3.19c.76,0,1.06,.82,1.06,1.46,0,.86-.46,1.48-1.07,1.48s-1.07-.63-1.07-1.46c0-.72,.33-1.48,1.09-1.48Zm.01-.52c-.98,0-1.75,.75-1.75,2.02,0,1.2,.74,1.96,1.69,1.96,.85,0,1.76-.61,1.76-2.02,0-1.16-.69-1.96-1.7-1.96Zm-3.22,3.89h.64v-5.58h-.64v5.58Zm-4.69-.18c.25,.16,.61,.26,.99,.26,.84,0,1.32-.47,1.32-1.14,0-.57-.31-.9-.93-1.15-.46-.19-.67-.33-.67-.64,0-.28,.21-.52,.59-.52,.33,0,.58,.13,.72,.22l.16-.5c-.2-.13-.51-.24-.87-.24-.76,0-1.22,.5-1.22,1.12,0,.46,.3,.83,.93,1.08,.47,.19,.66,.37,.66,.7s-.22,.57-.69,.57c-.32,0-.66-.14-.85-.27l-.16,.53Zm-2.28-3.19c.76,0,1.06,.82,1.06,1.46,0,.86-.46,1.48-1.07,1.48s-1.07-.63-1.07-1.46c0-.72,.33-1.48,1.09-1.48Zm.01-.52c-.98,0-1.75,.75-1.75,2.02,0,1.2,.74,1.96,1.69,1.96,.85,0,1.76-.61,1.76-2.02,0-1.16-.69-1.96-1.7-1.96Zm-3.21,2.29c0,.11,0,.2-.03,.3-.12,.52-.51,.83-.94,.83-.69,0-1.04-.64-1.04-1.41,0-.84,.39-1.47,1.06-1.47,.48,0,.83,.36,.93,.8,.02,.09,.03,.2,.03,.29v.66Zm0-3.98v2.27h-.01c-.16-.31-.53-.58-1.07-.58-.86,0-1.59,.78-1.58,2.04,0,1.16,.66,1.93,1.51,1.93,.58,0,1.01-.32,1.2-.75h.01l.03,.66h.58c-.02-.26-.03-.64-.03-.98v-4.6h-.64Zm-4.94,2.21c.76,0,1.06,.82,1.06,1.46,0,.86-.46,1.48-1.07,1.48s-1.07-.63-1.07-1.46c0-.72,.33-1.48,1.09-1.48Zm.01-.52c-.98,0-1.75,.75-1.75,2.02,0,1.2,.74,1.96,1.69,1.96,.85,0,1.76-.61,1.76-2.02,0-1.16-.69-1.96-1.7-1.96Zm-3.65,3.89h.64v-4.72h1.5v-.58h-3.64v.58h1.5v4.72Zm-3.5-1.57c.26,0,.44-.21,.44-.5,0-.29-.18-.5-.43-.5s-.44,.21-.44,.5c0,.28,.18,.5,.43,.5Z"/>
    </g>
  </g>
</svg>