<svg xmlns="http://www.w3.org/2000/svg" viewBox="0 0 512.001 512.001"><path d="M332.358 301.6c-1.672 0-3.315.12-4.93.33 1.987-4.118 3.238-8.652 3.613-13.433 2.93.727 6 1.12 9.15 1.12 20.91 0 37.86-16.952 37.86-37.862s-16.95-37.86-37.86-37.86c-19.9 0-36.2 15.356-37.73 34.863-4.96-1.23-10.1-1.456-15.24-.624 16.28-25.062-1.72-58.45-31.763-58.45-29.856 0-47.865 32.99-32.016 58.058-5.336.37-10.366 1.843-14.865 4.196.086-21.155-17.022-38.045-37.856-38.045-20.91 0-37.86 16.95-37.86 37.86s16.95 37.862 37.86 37.862c6.323 0 12.28-1.558 17.52-4.3 0 .063-.006.123-.006.185 0 6.806 1.805 13.187 4.95 18.707-4.28-1.677-8.933-2.608-13.807-2.608-20.91 0-37.86 16.95-37.86 37.86 0 20.89 16.925 37.83 37.813 37.86-20.87 26.33-2.176 65.54 31.705 65.54 1.67 0 3.312-.12 4.93-.31 4.04 18.07 20.166 31.59 39.46 31.59 19.333 0 35.49-13.57 39.486-31.7 1.89.27 3.827.42 5.79.42 22.34 0 40.448-18.11 40.448-40.45 0-9.488-3.272-18.2-8.738-25.1 20.887-.026 37.81-16.966 37.81-37.86 0-20.91-16.95-37.86-37.86-37.86z" fill="#C12121"/><circle cx="218" cy="474.14" r="37.861" fill="#EA4E4E"/><path d="M200.746 474.14c0-17.338 11.657-31.943 27.558-36.43-3.277-.926-6.73-1.432-10.302-1.432-20.91 0-37.86 16.95-37.86 37.86S197.09 512 218 512c3.573 0 7.026-.506 10.302-1.43-15.9-4.49-27.558-19.094-27.558-36.43z" fill="#DD4747"/><circle cx="180.14" cy="425.61" r="37.861" fill="#F76A66"/><path d="M162.886 425.612c0-17.337 11.657-31.942 27.558-36.43-3.277-.925-6.73-1.43-10.302-1.43-20.91 0-37.86 16.95-37.86 37.86s16.95 37.86 37.86 37.86c3.573 0 7.026-.505 10.302-1.43-15.9-4.488-27.558-19.093-27.558-36.43z" fill="#EA6060"/><circle cx="226.09" cy="285.5" r="37.861" fill="#C12121"/><path d="M172.17 143.416c-26.38-7.153-53.256-2.514-74.92 11.506-2.672 1.728-3.84 5.046-2.836 8.067 5.957 17.94 17.616 34.45 34.396 46.44 4.25-1.6 8.44-2.55 13.472-2.55 13.228 0 25.508 7.16 32.048 18.69l.27.474.548.042c1.67.127 3.346.21 4.98.246l1.045.023.007-1.047c.1-15.914 10.334-29.9 25.464-34.8l2.136-.693c-19.364-11.8-30.887-27.31-36.61-46.41z" fill="#3BBC56"/><path d="M115.08 162.99c-1.004-3.02.163-6.338 2.835-8.067 12.005-7.77 25.61-12.65 39.844-14.25-21.58-2.407-42.79 2.78-60.51 14.25-2.68 1.728-3.84 5.046-2.84 8.067 5.952 17.946 17.61 34.45 34.39 46.442 4.25-1.6 8.44-2.544 13.47-2.544 1.387 0 2.76.096 4.118.25-15.134-11.76-25.734-27.32-31.32-44.148zm136.17-13.887l.013-.21-.072-.2c-11.09-30.662-40.1-53.014-75.25-53.46-2.85-.06-5.35 1.856-6.1 4.6-9.543 34.95 4.86 71.645 36.36 90.828 3.81-1.23 7.5-1.93 11.81-1.93 10.71 0 20.32 4.235 28.55 13.546 2.727.035 4.65-.91 6.106-3.402-1.882-16.697-2.353-33.25-1.406-49.76z" fill="#30AA44"/><path d="M190.675 99.833c.292-1.07.856-2.006 1.597-2.756-5.257-1.135-10.716-1.772-16.335-1.843-2.85-.06-5.354 1.856-6.104 4.6-9.544 34.95 4.858 71.645 36.36 90.828 3.81-1.236 7.498-1.94 11.81-1.94 2.397 0 4.736.226 7.02.66-30.092-19.502-43.685-55.356-34.348-89.55z" fill="#269E35"/><path d="M414.75 154.923c-22.02-14.25-49.126-18.498-74.366-11.656l-.553.15-.16.55c-2.68 8.95-6.91 17.297-12.57 24.81-7.37 9.78-15.01 15.65-23.87 21.047l2.137.692c15.13 4.902 25.365 18.888 25.465 34.8l.007 1.046 1.046-.023c2.38-.06 4.148-.19 5.526-.29 9.17-16.16 27.84-23.38 45.79-16.62 16.745-11.97 28.425-28.46 34.395-46.44 1-3.02-.165-6.34-2.837-8.07z" fill="#30AA44"/><path d="M322.57 202.3c9.228-7.46 17.483-15.985 25.24-28 6.854-10.62 11.934-22.11 15.15-34.213-7.57.12-15.153 1.167-22.576 3.18l-.553.15-.16.548c-2.68 8.95-6.91 17.298-12.57 24.81-7.37 9.782-15.01 15.652-23.87 21.048l2.137.692c6.938 2.248 12.84 6.41 17.214 11.785z" fill="#269E35"/><path d="M342.167 99.833c-.742-2.72-3.212-4.6-6.024-4.6h-.08c-26.688.34-50.34 13.487-64.49 33.262-.93 1.297-6.538 18.302-10.34 36.6l-.02.21c-.795 2.59-4.09 22.037-4.09 33.856 1.143 1.96 5.856 3.28 8.373 3.07 9.92-11.84 25.224-16.46 40.31-11.56 8.943-5.445 16.507-12.122 22.93-20.645 15.205-20.18 20.1-45.76 13.43-70.183z" fill="#3BBC56"/><path d="M279.393 165.304l.022-.21c3.8-18.298 9.408-35.303 10.338-36.6C301.34 112.3 319.3 100.558 340.08 96.647c-1.087-.886-2.46-1.414-3.936-1.414h-.08c-26.688.34-50.34 13.487-64.49 33.262-.93 1.297-6.538 18.3-10.34 36.6l-.02.21c-.795 2.59-4.09 22.037-4.09 33.856 1.143 1.96 5.856 3.28 8.373 3.07 2.91-3.47 6.295-6.3 9.99-8.48.702-11.58 3.225-26.22 3.906-28.44zm23.667 24.574c.916.227 1.832.486 2.748.783.923-.56 1.823-1.14 2.717-1.73-1.854.18-3.678.5-5.465.957z" fill="#30AA44"/><path d="M255.863 225.552s-3.533-126.72 81.23-188.13c3.872-2.805 4.15-8.475.597-11.672L311.71 2.367c-4.157-3.74-10.665-2.953-13.78 1.692-17.508 26.11-64.98 109.83-42.067 221.49z" fill="#93603E"/><path d="M268.726 139.87c7.92-62.203 33.88-106.97 45.85-124.82 1.61-2.406 4.134-3.767 6.768-4.01l-9.635-8.672c-4.16-3.74-10.67-2.952-13.78 1.692-17.51 26.12-64.98 109.83-42.07 221.493 0 0-1.11-39.85 12.86-85.684z" fill="#7F573C"/><circle cx="370.22" cy="242.57" r="37.861" fill="#D12828"/><path d="M352.962 242.574c0-17.337 11.657-31.942 27.558-36.43-3.277-.925-6.73-1.43-10.302-1.43-20.91 0-37.86 16.95-37.86 37.86s16.95 37.86 37.86 37.86c3.573 0 7.026-.505 10.302-1.43-15.9-4.49-27.558-19.093-27.558-36.43z" fill="#C12121"/><circle cx="142.28" cy="242.57" r="37.861" fill="#D12828"/><path d="M125.025 242.574c0-17.337 11.657-31.942 27.558-36.43-3.277-.925-6.73-1.43-10.302-1.43-20.91 0-37.86 16.95-37.86 37.86s16.95 37.86 37.86 37.86c3.58 0 7.03-.505 10.31-1.43-15.9-4.49-27.56-19.093-27.56-36.43z" fill="#C12121"/><circle cx="373.56" cy="313.07" r="37.861" fill="#DD332F"/><path d="M356.3 313.07c0-17.338 11.656-31.943 27.557-36.43-3.277-.926-6.73-1.432-10.302-1.432-20.91 0-37.86 16.95-37.86 37.86s16.95 37.862 37.86 37.862c3.573 0 7.026-.506 10.302-1.43-15.9-4.49-27.558-19.094-27.558-36.43z" fill="#D12828"/><circle cx="138.17" cy="313.07" r="37.861" fill="#EA4E4E"/><path d="M120.915 313.07c0-17.338 11.657-31.943 27.558-36.43-3.277-.926-6.73-1.432-10.302-1.432-20.91 0-37.86 16.95-37.86 37.86s16.95 37.862 37.86 37.862c3.58 0 7.03-.506 10.31-1.43-15.9-4.49-27.56-19.094-27.56-36.43z" fill="#DD4747"/><circle cx="293.65" cy="474.14" r="37.861" fill="#DD332F"/><path d="M276.395 474.14c0-17.338 11.657-31.943 27.558-36.43-3.277-.926-6.73-1.432-10.302-1.432-20.91 0-37.86 16.95-37.86 37.86S272.74 512 293.65 512c3.574 0 7.027-.506 10.303-1.43-15.9-4.49-27.558-19.094-27.558-36.43z" fill="#D12828"/><circle cx="255.79" cy="407" r="37.861" fill="#EA473B"/><path d="M238.534 406.997c0-17.337 11.657-31.942 27.558-36.43-3.277-.925-6.73-1.43-10.302-1.43-20.91 0-37.86 16.95-37.86 37.86s16.95 37.86 37.86 37.86c3.573 0 7.026-.505 10.302-1.43-15.9-4.488-27.558-19.093-27.558-36.43z" fill="#DD332F"/><circle cx="332.36" cy="425.61" r="37.861" fill="#EA4E4E"/><path d="M315.102 425.612c0-17.337 11.657-31.942 27.558-36.43-3.277-.925-6.73-1.43-10.302-1.43-20.91 0-37.86 16.95-37.86 37.86s16.95 37.86 37.86 37.86c3.573 0 7.026-.505 10.302-1.43-15.9-4.488-27.558-19.093-27.558-36.43z" fill="#DD4747"/><circle cx="155.92" cy="381.61" r="37.861" fill="#DD332F"/><path d="M138.66 381.61c0-17.338 11.658-31.943 27.56-36.43-3.278-.926-6.73-1.432-10.303-1.432-20.91 0-37.86 16.95-37.86 37.86s16.95 37.862 37.86 37.862c3.573 0 7.026-.506 10.302-1.43-15.91-4.49-27.56-19.093-27.56-36.43z" fill="#D12828"/><circle cx="355.81" cy="381.61" r="37.861" fill="#EA473B"/><g fill="#DD332F"><path d="M338.553 381.61c0-17.338 11.657-31.943 27.558-36.43-3.27-.926-6.73-1.432-10.3-1.432-20.91 0-37.86 16.95-37.86 37.86s16.95 37.862 37.86 37.862c3.58 0 7.03-.506 10.31-1.43-15.9-4.49-27.557-19.093-27.557-36.43z"/><circle cx="293.65" cy="224.71" r="37.861"/></g><path d="M276.395 224.712c0-17.337 11.657-31.942 27.558-36.43-3.277-.925-6.73-1.43-10.302-1.43-20.91 0-37.86 16.95-37.86 37.86s16.95 37.86 37.86 37.86c3.58 0 7.03-.505 10.31-1.43-15.9-4.488-27.56-19.093-27.56-36.43z" fill="#D12828"/><circle cx="218" cy="224.71" r="37.861" fill="#EA473B"/><g fill="#DD332F"><path d="M200.746 224.712c0-17.337 11.657-31.942 27.558-36.43-3.277-.925-6.73-1.43-10.302-1.43-20.91 0-37.86 16.95-37.86 37.86s16.95 37.86 37.86 37.86c3.573 0 7.026-.505 10.302-1.43-15.9-4.488-27.558-19.093-27.558-36.43z"/><circle cx="192.77" cy="285.5" r="37.861"/></g><path d="M175.516 285.5c0-17.336 11.657-31.94 27.558-36.43-3.277-.924-6.73-1.43-10.302-1.43-20.91 0-37.86 16.95-37.86 37.86s16.95 37.862 37.86 37.862c3.573 0 7.026-.506 10.302-1.43-15.9-4.49-27.558-19.094-27.558-36.43z" fill="#D12828"/><circle cx="318.97" cy="285.5" r="37.861" fill="#EA4E4E"/><path d="M301.713 285.5c0-17.336 11.657-31.94 27.558-36.43-3.27-.924-6.73-1.43-10.3-1.43-20.91 0-37.86 16.95-37.86 37.86s16.95 37.862 37.86 37.862c3.58 0 7.03-.506 10.31-1.43-15.9-4.49-27.557-19.094-27.557-36.43z" fill="#DD4747"/><circle cx="218" cy="350.46" r="37.861" fill="#EA4E4E"/><path d="M200.746 350.456c0-17.337 11.657-31.942 27.558-36.43-3.277-.925-6.73-1.43-10.302-1.43-20.91 0-37.86 16.95-37.86 37.86s16.95 37.86 37.86 37.86c3.573 0 7.026-.505 10.302-1.43-15.9-4.488-27.558-19.093-27.558-36.43z" fill="#DD4747"/><circle cx="255.86" cy="285.5" r="37.861" fill="#F76A66"/><path d="M238.607 285.5c0-17.336 11.657-31.94 27.558-36.43-3.277-.924-6.73-1.43-10.302-1.43-20.91 0-37.86 16.95-37.86 37.86s16.95 37.862 37.86 37.862c3.573 0 7.026-.506 10.302-1.43-15.9-4.49-27.558-19.094-27.558-36.43z" fill="#EA6060"/><circle cx="294.5" cy="349.89" r="37.861" fill="#F76A66"/><path d="M277.24 349.89c0-17.336 11.658-31.94 27.56-36.43-3.278-.924-6.73-1.43-10.303-1.43-20.91 0-37.86 16.95-37.86 37.86s16.95 37.862 37.86 37.862c3.573 0 7.026-.506 10.302-1.43-15.91-4.49-27.56-19.094-27.56-36.43z" fill="#EA6060"/></svg>