<?xml version="1.0" encoding="UTF-8"?>
<svg id="Layer_2" data-name="Layer 2" xmlns="http://www.w3.org/2000/svg" viewBox="0 0 154 28.01">
  <defs>
    <style>
      .cls-1 {
        fill: #ec1c24;
      }

      .cls-2 {
        fill: #fff;
      }

      .cls-3 {
        stroke: #fff;
        stroke-width: .25px;
      }

      .cls-3, .cls-4 {
        fill: none;
        stroke-miterlimit: 10;
      }

      .cls-4 {
        stroke: #3b2314;
        stroke-width: 1px;
      }
    </style>
  </defs>
  <g id="Layer_1-2" data-name="Layer 1">
    <g>
      <path class="cls-1" d="M139.14,.74v7.8s6.93-.87,6.93,2.14c0,2.11,1.14,3.02,3.03,3.32-1.89,.29-3.03,1.2-3.03,3.32,0,3.01-6.93,2.15-6.93,2.15v7.8H14.85v-7.8s-6.93,.87-6.93-2.15c0-2.11-1.14-3.02-3.03-3.32,1.89-.29,3.03-1.2,3.03-3.32,0-3.01,6.93-2.14,6.93-2.14V.74h124.3Z"/>
      <path class="cls-4" d="M139.14,.74v7.8s6.93-.87,6.93,2.14c0,2.11,1.14,3.02,3.03,3.32-1.89,.29-3.03,1.2-3.03,3.32,0,3.01-6.93,2.15-6.93,2.15v7.8H14.85v-7.8s-6.93,.87-6.93-2.15c0-2.11-1.14-3.02-3.03-3.32,1.89-.29,3.03-1.2,3.03-3.32,0-3.01,6.93-2.14,6.93-2.14V.74h124.3Z"/>
      <path class="cls-1" d="M139.65,27.51H14.34v-7.75c-1.13,.09-3.5,.18-5.17-.43-1.17-.43-1.76-1.1-1.76-2.01,0-2.39-1.53-2.91-2.68-3.09l-1.48-.23,1.48-.23c1.15-.18,2.68-.69,2.68-3.09,0-.91,.59-1.58,1.76-2.01,1.67-.61,4.04-.52,5.17-.43V.5h125.31v7.75c1.13-.09,3.5-.18,5.17,.43,1.17,.43,1.76,1.1,1.76,2.01,0,2.39,1.53,2.91,2.68,3.09l1.48,.23-1.48,.23c-1.15,.18-2.68,.69-2.68,3.09,0,.91-.59,1.58-1.76,2.01-1.67,.61-4.04,.52-5.17,.43v7.75Zm-124.3-.48h123.28v-7.87l.64,.08s3.11,.38,4.93-.29c.9-.33,1.36-.88,1.36-1.62,0-1.73,.76-2.81,2.37-3.32-1.61-.51-2.37-1.58-2.37-3.32,0-.75-.46-1.3-1.36-1.63-1.82-.67-4.9-.29-4.93-.29l-.64,.08V.98H15.36v7.87l-.64-.08s-3.11-.38-4.93,.29c-.9,.33-1.36,.88-1.36,1.62,0,1.73-.76,2.81-2.37,3.32,1.61,.51,2.37,1.58,2.37,3.32,0,.75,.46,1.29,1.36,1.63,1.82,.66,4.9,.29,4.93,.29l.64-.08v7.88Z"/>
      <path class="cls-4" d="M139.65,27.51H14.34v-7.75c-1.13,.09-3.5,.18-5.17-.43-1.17-.43-1.76-1.1-1.76-2.01,0-2.39-1.53-2.91-2.68-3.09l-1.48-.23,1.48-.23c1.15-.18,2.68-.69,2.68-3.09,0-.91,.59-1.58,1.76-2.01,1.67-.61,4.04-.52,5.17-.43V.5h125.31v7.75c1.13-.09,3.5-.18,5.17,.43,1.17,.43,1.76,1.1,1.76,2.01,0,2.39,1.53,2.91,2.68,3.09l1.48,.23-1.48,.23c-1.15,.18-2.68,.69-2.68,3.09,0,.91-.59,1.58-1.76,2.01-1.67,.61-4.04,.52-5.17,.43v7.75Zm-124.3-.48h123.28v-7.87l.64,.08s3.11,.38,4.93-.29c.9-.33,1.36-.88,1.36-1.62,0-1.73,.76-2.81,2.37-3.32-1.61-.51-2.37-1.58-2.37-3.32,0-.75-.46-1.3-1.36-1.63-1.82-.67-4.9-.29-4.93-.29l-.64,.08V.98H15.36v7.87l-.64-.08s-3.11-.38-4.93,.29c-.9,.33-1.36,.88-1.36,1.62,0,1.73-.76,2.81-2.37,3.32,1.61,.51,2.37,1.58,2.37,3.32,0,.75,.46,1.29,1.36,1.63,1.82,.66,4.9,.29,4.93,.29l.64-.08v7.88Z"/>
      <path class="cls-1" d="M17.32,26.1v-8.15l-3.1,.39s-.66,.08-1.47,.08c-.76,0-1.37-.07-1.74-.19-.42-.14-.63-.45-.63-.9,0-.64,0-2.19-1.62-3.32,1.62-1.13,1.62-2.68,1.62-3.32,0-.72,.37-1.09,2.36-1.09,.81,0,1.47,.08,1.48,.08l3.07,.37v-1.5s.01-6.63,.01-6.63h119.36V10.06l3.1-.39s.66-.08,1.47-.08c2,0,2.36,.37,2.36,1.09,0,.64,0,2.19,1.62,3.32-1.62,1.13-1.62,2.68-1.62,3.32,0,.73-.37,1.09-2.36,1.09-.81,0-1.48-.08-1.48-.08l-3.07-.37-.02,1.5v6.63H17.32Z"/>
      <path class="cls-4" d="M17.32,26.1v-8.15l-3.1,.39s-.66,.08-1.47,.08c-.76,0-1.37-.07-1.74-.19-.42-.14-.63-.45-.63-.9,0-.64,0-2.19-1.62-3.32,1.62-1.13,1.62-2.68,1.62-3.32,0-.72,.37-1.09,2.36-1.09,.81,0,1.47,.08,1.48,.08l3.07,.37v-1.5s.01-6.63,.01-6.63h119.36V10.06l3.1-.39s.66-.08,1.47-.08c2,0,2.36,.37,2.36,1.09,0,.64,0,2.19,1.62,3.32-1.62,1.13-1.62,2.68-1.62,3.32,0,.73-.37,1.09-2.36,1.09-.81,0-1.48-.08-1.48-.08l-3.07-.37-.02,1.5v6.63H17.32Z"/>
      <path class="cls-1" d="M136.9,26.21H17.1v-8.12l-2.82,.35c-.13,.01-.76,.08-1.53,.08s-1.47-.08-1.86-.21c-.48-.16-.72-.5-.72-.98,0-.65,0-2.16-1.58-3.26l-.08-.06,.08-.06c1.58-1.1,1.58-2.61,1.58-3.26,0-.76,.42-1.2,2.59-1.2,.85,0,1.53,.08,1.54,.08l2.79,.33v-1.36s.01-6.74,.01-6.74h119.8V9.93l2.82-.35c.08,0,.73-.08,1.52-.08,2.16,0,2.59,.44,2.59,1.2,0,.65,0,2.16,1.58,3.26l.08,.06-.08,.06c-1.58,1.1-1.58,2.61-1.58,3.26,0,.76-.42,1.2-2.59,1.2-.84,0-1.51-.08-1.53-.08l-2.8-.33v1.36s-.01,6.74-.01,6.74Zm-119.36-.21h118.92l.02-8.16,3.34,.4s.65,.08,1.43,.08c1.83,0,2.15-.3,2.15-.99s0-2.17,1.57-3.32c-1.57-1.15-1.57-2.66-1.57-3.32s-.31-.99-2.15-.99c-.74,0-1.35,.07-1.42,.07l-3.37,.42V2.01H17.54l-.02,8.16-3.34-.4s-.65-.08-1.43-.08c-1.84,0-2.15,.3-2.15,.99s0,2.17-1.57,3.32c1.57,1.15,1.57,2.66,1.57,3.32,0,.41,.19,.7,.54,.82,.32,.11,.91,.17,1.61,.17s1.35-.07,1.42-.07l3.37-.42v8.18Z"/>
      <path class="cls-4" d="M136.9,26.21H17.1v-8.12l-2.82,.35c-.13,.01-.76,.08-1.53,.08s-1.47-.08-1.86-.21c-.48-.16-.72-.5-.72-.98,0-.65,0-2.16-1.58-3.26l-.08-.06,.08-.06c1.58-1.1,1.58-2.61,1.58-3.26,0-.76,.42-1.2,2.59-1.2,.85,0,1.53,.08,1.54,.08l2.79,.33v-1.36s.01-6.74,.01-6.74h119.8V9.93l2.82-.35c.08,0,.73-.08,1.52-.08,2.16,0,2.59,.44,2.59,1.2,0,.65,0,2.16,1.58,3.26l.08,.06-.08,.06c-1.58,1.1-1.58,2.61-1.58,3.26,0,.76-.42,1.2-2.59,1.2-.84,0-1.51-.08-1.53-.08l-2.8-.33v1.36s-.01,6.74-.01,6.74Zm-119.36-.21h118.92l.02-8.16,3.34,.4s.65,.08,1.43,.08c1.83,0,2.15-.3,2.15-.99s0-2.17,1.57-3.32c-1.57-1.15-1.57-2.66-1.57-3.32s-.31-.99-2.15-.99c-.74,0-1.35,.07-1.42,.07l-3.37,.42V2.01H17.54l-.02,8.16-3.34-.4s-.65-.08-1.43-.08c-1.84,0-2.15,.3-2.15,.99s0,2.17-1.57,3.32c1.57,1.15,1.57,2.66,1.57,3.32,0,.41,.19,.7,.54,.82,.32,.11,.91,.17,1.61,.17s1.35-.07,1.42-.07l3.37-.42v8.18Z"/>
      <path class="cls-2" d="M95.92,18.49c.01,.84-.42,1.42-1.29,1.73-.11,.29-.21,.5-.31,.61-.15,.17-.36,.27-.65,.29-.18,.01-.38,0-.59-.03-.38-.06-.84-.14-1.39-.23-.15-.03-.25-.13-.28-.31,.03-.19,.2-.3,.54-.34,.45-.04,1.13-.12,2.02-.26,.33-.09,.57-.29,.71-.62,.08-.17,.12-.38,.12-.62,0-.44-.2-1.22-.6-2.34-.4-1.09-.58-1.82-.56-2.18,.05-.88,.79-1.49,2.21-1.83,.14-.04,.21,.02,.21,.17,0,.08-.05,.15-.15,.2-.69,.33-1.03,.74-1.03,1.22,0,.19,.03,.43,.1,.71,.07,.28,.26,.97,.58,2.05,.24,.78,.36,1.37,.37,1.78m1.52-6.05c0,.32-.08,.82-.23,1.52-.06,.24-.12,.39-.19,.46-.03,.04-.14,.09-.33,.16-.24,.1-.38,.15-.44,.15-.1,0-.14-.07-.14-.21,0-.08,.01-.18,.04-.31,.16-.69,.22-1.17,.18-1.45-.04-.27,.03-.44,.21-.51,.31-.18,.52-.26,.61-.26,.2,0,.3,.15,.3,.45Zm-3.6,9.56c-.6,1.01-1.08,1.52-1.44,1.52-.45,0-1.09-.66-1.93-1.98-.84-1.32-1.56-2.8-2.15-4.44-.76,1.03-1.29,2.25-1.59,3.63-.07,.31-.15,.46-.25,.46-.04,0-.12-.02-.23-.08-.53-.25-.8-.51-.8-.77,0-.04,.04-.27,.11-.71,.74-4.46,1.7-8.26,2.89-11.42,.89-2.36,1.68-3.9,2.4-4.61,.18-.19,.36-.28,.53-.28s.41,.11,.69,.35c.32,.29,.64,.58,.96,.87,.09,.07,.13,.15,.13,.23,0,.13-.07,.19-.22,.19-.07,0-.14-.02-.21-.06-.3-.16-.52-.24-.66-.24-.4,0-.85,.43-1.33,1.28-1.73,3.08-2.97,7.09-3.72,12.04,.15-.34,.5-1,1.05-1.97-.07-.24-.11-.39-.11-.43,0-.17,.22-.3,.65-.39,.87-1.39,1.58-2.32,2.13-2.8,.2-.17,.35-.25,.46-.25s.31,.17,.6,.52c.46,.2,.69,.45,.69,.75,0,.1-.01,.23-.04,.38-.12,.58-.29,1.09-.52,1.53-.11,.23-.24,.35-.36,.35-.09,0-.23-.04-.42-.11-.36-.14-.55-.29-.55-.43,0-.09,.06-.16,.17-.21,.27-.25,.43-.75,.5-1.5,.01-.18-.03-.26-.12-.26-.06,0-.13,.04-.23,.12-.7,.56-1.3,1.38-1.81,2.45,.97,3.3,2.09,5.37,3.33,6.21,.15,.1,.31,.15,.47,.15,.23,0,.41-.08,.53-.23,.12-.15,.23-.23,.33-.23,.09,0,.13,.05,.13,.16,0,.06-.03,.14-.08,.22Zm-9.12-8.88c0,1.09-.14,1.97-.41,2.64-.12,.27-.3,.33-.54,.19-.36-.22-.54-.4-.54-.54,0-.06,.04-.13,.13-.2,.22-.68,.32-1.2,.3-1.57-.01-.32-.16-.47-.43-.47-.03,0-.08-.01-.14-.03-.06-.02-.11-.03-.15-.03-.22,0-.5,.23-.82,.69-.36,.52-.7,1.24-1.03,2.17-.27,.76-.45,1.42-.54,1.97-.07,.39-.1,.75-.1,1.07,0,1.07,.31,1.6,.93,1.58,.54-.01,1.34-.77,2.39-2.26,.1-.13,.2-.2,.28-.2s.12,.06,.12,.17c0,.06-.02,.13-.05,.21-.34,.91-.78,1.72-1.34,2.42-.13,.18-.37,.26-.71,.26-.21,0-.46-.04-.75-.13-.59-.04-1.06-.25-1.41-.62-.38-.4-.55-.92-.53-1.57,.03-.74,.26-1.77,.71-3.09,.48-1.43,.98-2.47,1.51-3.11,.24-.29,.45-.44,.61-.44s.5,.15,.98,.46c.26-.1,.52-.16,.78-.16,.51,0,.76,.2,.76,.59Zm-6.2,.74c-.59,1.79-.99,3.29-1.21,4.5,.1-.1,.22-.25,.38-.45,.15-.2,.25-.32,.29-.36,.09-.13,.18-.19,.29-.19,.1,0,.14,.05,.14,.16,0,.06-.03,.14-.08,.22-.6,.97-1,1.96-1.2,2.95-.06,.28-.14,.42-.26,.42-.11,0-.31-.11-.6-.34-.17-.13-.27-.23-.3-.32-.03-.08-.03-.23,0-.46,.27-1.78,.6-3.26,1-4.44-.56,.99-1.32,2.08-2.28,3.28-.84,1.05-1.45,1.71-1.82,2-.27,.21-.48,.31-.62,.31-.11,0-.29-.1-.53-.31-.34-.22-.51-.53-.51-.92,0-.08,0-.17,.02-.27,.11-1.03,.53-2.24,1.25-3.62,.72-1.38,1.54-2.54,2.47-3.48,.3-.31,.57-.46,.81-.45,.23,.01,.67,.35,1.32,1,.06,.06,.09,.11,.09,.18,0,.11-.07,.17-.2,.17-.05,0-.1-.01-.14-.03-.46-.21-.82-.2-1.1,.02-.6,.48-1.27,1.34-2,2.56-.85,1.4-1.36,2.67-1.53,3.79,0,.05,0,.09,0,.14,0,.18,.07,.26,.19,.26,.22,0,.48-.17,.78-.5,.72-.76,1.49-1.72,2.31-2.88,.84-1.2,1.38-2.1,1.62-2.72,.17-.45,.29-.77,.33-.95,.09-.32,.17-.47,.27-.47s.32,.14,.68,.43c.15,.12,.23,.23,.24,.32,.01,.09-.02,.23-.09,.44Zm-7.68,3.26c-.38,.64-.88,1.56-1.5,2.78-.12,.32-.23,.63-.34,.94-.09,.22-.21,.33-.35,.33-.11,0-.29-.05-.51-.16-.25-.11-.37-.22-.37-.34,0-.05,.04-.15,.12-.32,.42-.93,.79-2.08,1.12-3.46,.35-1.45,.5-2.56,.45-3.32-.01-.31-.08-.46-.19-.46-.08,0-.21,.09-.37,.26-1.62,1.72-3.02,4.03-4.2,6.92-.15,.36-.32,.54-.52,.54-.14,0-.38-.09-.7-.26-.13-.06-.2-.12-.2-.18,0-.03,.04-.13,.11-.29,.37-.89,.74-2.01,1.1-3.38,.39-1.48,.61-2.63,.66-3.46,.01-.25,0-.38-.02-.38,0,0-.1,.09-.27,.28-.17,.19-.41,.43-.72,.73-.06,.06-.12,.09-.19,.09-.09,0-.13-.04-.13-.11,0-.06,.03-.12,.09-.19,.28-.38,.64-.86,1.09-1.43,.09-.12,.19-.18,.3-.18,.15,0,.29,.12,.4,.37,.52,.17,.76,.43,.73,.78-.07,.77-.43,2.16-1.08,4.17,.43-.91,1.05-1.92,1.87-3.04,.82-1.12,1.43-1.78,1.83-1.99,.2-.1,.34-.15,.42-.15s.22,.08,.4,.24c.53,.2,.8,.54,.8,1.01s-.11,1.28-.32,2.37c-.17,.9-.34,1.59-.48,2.09,.19-.26,.42-.6,.71-1.01,.05-.07,.1-.1,.15-.1,.1,0,.14,.07,.14,.2,0,.04,0,.08-.02,.13Zm-8.92,.55c0,1.27-.59,2.29-1.77,3.06-.34,.58-.78,.87-1.32,.87-.96-.01-2.02-.48-3.19-1.4-1.01-.79-1.7-1.54-2.08-2.27-.36-.68-.55-1.11-.55-1.28,0-.22,.14-.46,.43-.74,.27-.26,.48-.39,.63-.39s.22,.1,.22,.32c0,.09-.02,.2-.05,.33,.34,1.01,1.06,1.94,2.15,2.81,1.1,.87,2.09,1.3,2.98,1.3,.79,0,1.18-.6,1.18-1.77,0-.64-.46-1.93-1.37-3.86-.91-1.93-1.37-3.31-1.37-4.15,0-.55,.14-1.03,.42-1.46,.24-.36,.65-.78,1.24-1.27,.11-.09,.22-.14,.33-.14,.17,0,.26,.08,.26,.24,0,.11-.06,.23-.17,.35-.49,.51-.74,1.14-.74,1.87,0,.82,.46,2.17,1.38,4.06,.92,1.88,1.38,3.06,1.38,3.52Zm2.89-9.65c-.25,.96-.59,1.8-1.02,2.5-.19,.32-.38,.47-.55,.47s-.46-.15-.88-.45c-.13-.09-.19-.19-.19-.28,0-.15,.11-.26,.34-.32,.17-.06,.36-.38,.58-.96,.2-.56,.3-.99,.3-1.31s-.12-.5-.36-.5c-.09,0-.19,.01-.32,.04-.25,.04-.79,.23-1.63,.57-.1,.04-.18,.05-.26,.05-.19,0-.29-.07-.29-.21s.1-.26,.3-.36c.72-.4,1.43-.73,2.13-.99,.23-.09,.39-.14,.48-.14,.15,0,.34,.22,.58,.67,.36,.12,.58,.21,.67,.27,.14,.09,.21,.23,.21,.42,0,.13-.03,.31-.09,.51Z"/>
      <path class="cls-3" d="M60.55,14.15c-.92-1.89-1.38-3.24-1.38-4.06,0-.74,.25-1.36,.74-1.87,.12-.12,.17-.24,.17-.35,0-.16-.09-.24-.26-.24-.11,0-.22,.05-.33,.14-.6,.49-1.01,.92-1.25,1.27-.28,.43-.42,.91-.42,1.46,0,.84,.46,2.22,1.38,4.15,.92,1.93,1.38,3.22,1.38,3.87,0,1.17-.39,1.76-1.18,1.77-.89,0-1.89-.42-2.98-1.29-1.1-.87-1.82-1.81-2.16-2.82,.03-.13,.05-.25,.05-.34,0-.21-.07-.32-.22-.32s-.37,.13-.63,.39c-.29,.27-.43,.52-.43,.74,0,.17,.18,.6,.55,1.28,.38,.73,1.08,1.49,2.09,2.27,1.17,.92,2.24,1.39,3.19,1.4,.54,0,.98-.28,1.32-.86,1.18-.77,1.77-1.79,1.77-3.06,0-.46-.46-1.64-1.39-3.53Zm4.35-6.65c0-.19-.07-.33-.21-.42-.08-.06-.31-.14-.66-.26-.24-.45-.43-.67-.58-.67-.1,0-.26,.05-.48,.14-.7,.27-1.41,.6-2.13,.99-.2,.11-.3,.22-.3,.36,0,.14,.1,.21,.29,.21,.08,0,.16-.02,.26-.05,.83-.33,1.37-.52,1.62-.56,.13-.03,.23-.04,.32-.04,.24,0,.36,.16,.36,.49s-.1,.75-.3,1.3c-.21,.58-.4,.9-.57,.96-.22,.06-.34,.17-.34,.32,0,.1,.06,.19,.19,.28,.42,.3,.71,.45,.88,.45s.35-.16,.55-.47c.43-.71,.77-1.54,1.02-2.5,.06-.21,.09-.38,.09-.52Z"/>
      <path class="cls-3" d="M70.86,16.99c0-.13-.05-.2-.15-.2-.05,0-.1,.04-.15,.11-.29,.41-.53,.75-.71,1.01,.15-.5,.31-1.2,.48-2.09,.22-1.09,.33-1.88,.33-2.37,0-.47-.26-.81-.79-1.01-.19-.15-.32-.23-.41-.23s-.22,.05-.42,.15c-.4,.2-1.01,.87-1.83,1.98-.82,1.12-1.45,2.13-1.87,3.04,.65-2.01,1.02-3.41,1.09-4.18,.03-.35-.21-.61-.73-.78-.11-.25-.25-.37-.4-.37-.1,0-.2,.06-.3,.18-.45,.58-.81,1.06-1.09,1.44-.07,.07-.1,.13-.1,.19,0,.08,.05,.12,.14,.12,.07,0,.14-.03,.19-.1,.31-.3,.55-.55,.72-.74,.17-.19,.26-.28,.27-.28,.03,0,.03,.13,.02,.38-.05,.83-.27,1.98-.66,3.46-.37,1.37-.73,2.5-1.11,3.39-.07,.17-.11,.27-.11,.29,0,.06,.07,.12,.2,.18,.33,.18,.56,.26,.7,.26,.2,0,.37-.18,.52-.54,1.18-2.89,2.58-5.2,4.19-6.92,.17-.18,.29-.26,.38-.26,.12,0,.18,.15,.19,.46,.05,.76-.1,1.87-.45,3.32-.33,1.38-.7,2.54-1.12,3.46-.08,.17-.12,.28-.12,.33,0,.11,.12,.22,.38,.34,.22,.11,.39,.16,.51,.16,.15,0,.27-.11,.36-.33,.11-.32,.22-.63,.34-.95,.62-1.21,1.12-2.14,1.5-2.78,.01-.04,.02-.08,.02-.13Z"/>
      <path class="cls-3" d="M78.6,13.41c-.01-.1-.09-.21-.24-.33-.35-.29-.58-.43-.67-.43s-.19,.16-.27,.47c-.05,.18-.16,.5-.34,.95-.24,.61-.78,1.52-1.62,2.72-.82,1.16-1.59,2.12-2.31,2.88-.3,.33-.56,.49-.78,.49-.13,0-.19-.09-.19-.26,0-.04,0-.09,.01-.14,.17-1.12,.68-2.39,1.53-3.79,.73-1.22,1.4-2.07,2-2.56,.28-.22,.64-.23,1.1-.02,.05,.02,.09,.03,.14,.03,.13,0,.2-.06,.2-.17,0-.06-.03-.12-.09-.18-.65-.65-1.09-.99-1.32-1-.24,0-.51,.14-.81,.45-.93,.95-1.75,2.11-2.47,3.49-.72,1.38-1.14,2.59-1.25,3.62-.01,.1-.02,.19-.02,.26,0,.39,.17,.7,.51,.93,.24,.2,.41,.3,.53,.3,.14,0,.35-.1,.62-.3,.37-.29,.98-.95,1.82-2,.96-1.2,1.72-2.29,2.28-3.28-.4,1.18-.74,2.66-1.01,4.44-.03,.23-.03,.39,0,.46,.03,.08,.12,.19,.3,.32,.3,.22,.5,.34,.61,.34s.2-.14,.26-.42c.2-1,.6-1.98,1.2-2.96,.05-.08,.08-.16,.08-.22,0-.11-.05-.16-.14-.16-.1,0-.2,.06-.29,.19-.04,.03-.14,.16-.29,.36-.16,.2-.28,.35-.38,.45,.23-1.21,.63-2.72,1.22-4.5,.07-.21,.1-.36,.09-.44Z"/>
      <path class="cls-3" d="M83.95,12.52c-.26,0-.52,.05-.78,.16-.49-.31-.81-.46-.98-.46s-.37,.15-.62,.44c-.53,.65-1.03,1.68-1.51,3.11-.45,1.32-.69,2.35-.71,3.09-.03,.65,.15,1.17,.53,1.57,.35,.37,.82,.58,1.41,.62,.3,.09,.55,.14,.75,.14,.34,0,.58-.09,.71-.26,.55-.69,1-1.5,1.34-2.41,.03-.08,.05-.15,.05-.21,0-.11-.04-.17-.12-.17s-.18,.07-.28,.2c-1.05,1.48-1.85,2.23-2.39,2.24-.62,.02-.93-.5-.93-1.58,0-.32,.03-.68,.1-1.07,.09-.55,.27-1.2,.54-1.97,.33-.93,.67-1.65,1.03-2.17,.33-.46,.6-.69,.83-.69,.04,0,.09,0,.15,.03,.06,.02,.11,.03,.14,.03,.28,0,.42,.16,.43,.47,.02,.37-.08,.89-.3,1.57-.08,.07-.12,.14-.12,.2,0,.14,.18,.32,.54,.54,.24,.15,.42,.08,.54-.19,.28-.67,.41-1.54,.41-2.63,0-.39-.25-.59-.76-.59Z"/>
      <path class="cls-3" d="M93.9,21.76c0-.11-.04-.16-.13-.16-.1,0-.21,.07-.33,.22-.12,.15-.3,.22-.53,.22-.16,0-.32-.05-.47-.15-1.24-.83-2.35-2.89-3.33-6.18,.51-1.07,1.11-1.88,1.82-2.44,.1-.08,.17-.12,.23-.12,.1,0,.14,.09,.12,.26-.06,.74-.23,1.24-.5,1.49-.11,.05-.17,.12-.17,.21,0,.15,.18,.29,.55,.43,.19,.08,.33,.11,.42,.11,.13,0,.25-.11,.37-.35,.22-.44,.4-.95,.52-1.54,.03-.15,.04-.28,.04-.38,0-.3-.23-.55-.69-.76-.29-.34-.5-.51-.6-.51s-.26,.08-.46,.25c-.56,.48-1.27,1.41-2.15,2.8-.44,.09-.65,.22-.65,.39,0,.04,.04,.19,.11,.43-.55,.97-.89,1.62-1.05,1.97,.76-4.95,2-8.97,3.72-12.05,.48-.86,.92-1.28,1.33-1.28,.15,0,.37,.08,.66,.24,.07,.04,.14,.06,.21,.06,.15,0,.22-.06,.22-.19,0-.08-.05-.16-.14-.23-.32-.29-.64-.57-.96-.86-.28-.23-.51-.35-.69-.35s-.35,.09-.53,.29c-.71,.71-1.51,2.25-2.4,4.61-1.19,3.16-2.15,6.96-2.89,11.42-.08,.44-.11,.67-.11,.7,0,.26,.27,.52,.8,.77,.12,.05,.19,.07,.23,.07,.1,0,.18-.15,.25-.46,.3-1.38,.82-2.59,1.59-3.62,.6,1.64,1.31,3.11,2.15,4.43,.84,1.32,1.48,1.97,1.93,1.97,.37,0,.85-.51,1.44-1.52,.05-.08,.08-.16,.08-.22Z"/>
      <path class="cls-3" d="M95.55,16.7c-.32-1.08-.51-1.76-.58-2.05-.06-.28-.09-.52-.09-.71,0-.48,.34-.89,1.04-1.22,.1-.05,.15-.11,.15-.2,0-.15-.07-.2-.21-.17-1.43,.34-2.17,.95-2.22,1.83-.03,.37,.16,1.09,.56,2.18,.4,1.12,.61,1.89,.61,2.34,0,.25-.04,.45-.13,.62-.14,.33-.38,.54-.71,.62-.89,.14-1.57,.23-2.02,.26-.33,.04-.51,.15-.54,.34,.03,.17,.12,.28,.28,.31,.55,.09,1.02,.17,1.4,.23,.21,.04,.41,.04,.6,.03,.29-.03,.51-.13,.65-.29,.1-.11,.2-.32,.31-.61,.87-.31,1.3-.88,1.28-1.72,0-.41-.13-1-.36-1.78Zm1.61-4.71c-.09,0-.29,.09-.61,.26-.18,.07-.25,.24-.22,.51,.04,.27-.03,.75-.18,1.45-.03,.13-.04,.23-.04,.31,0,.14,.05,.21,.14,.21,.06,0,.21-.05,.44-.15,.19-.07,.3-.12,.33-.16,.07-.07,.13-.22,.19-.46,.15-.7,.23-1.2,.23-1.52s-.1-.45-.3-.45Z"/>
    </g>
  </g>
</svg>