<svg xmlns="http://www.w3.org/2000/svg" viewBox="0 0 512 512"><path d="M279.004 146.236c-5.798 1.91-12.04 3.57-18.755 4.952 0 0-3.72-8.944-6.06-22.8-5.2-30.793-3.62-85.882 60.62-121.03 3.84-2.093 7.9-4.126 12.19-6.075 8.346-3.786 18.074 1.176 19.972 10.14.825 3.92 1.64 8.42 2.31 13.35 4.933 36.962 1.054 97.984-70.283 121.463z" fill="#368B4C"/><path d="M254.194 128.39c-5.2-30.795-3.62-85.884 60.618-121.03.155.97.3 1.96.433 2.97 4.705 35.302 1.383 92.537-61.05 118.06z" fill="#3FA45A"/><path d="M218.596 178.325c-2.41 0-4.788-1.123-6.297-3.234L137.86 71.08c-2.488-3.475-1.688-8.308 1.787-10.795 3.473-2.485 8.308-1.688 10.795 1.79l74.44 104.01c2.487 3.476 1.687 8.308-1.788 10.795-1.365.976-2.94 1.445-4.498 1.445zm-31.262 25.052c-51.9 88.39-128.84 55.718-160.263 37.004-7.87-4.69-9.422-15.49-3.15-22.17 5.27-5.61 10.543-10.56 15.794-14.9 63.466-52.572 123.826-17.342 142.055-4.25 3.61 2.6 5.57 4.323 5.57 4.323z" fill="#368B4C"/><path d="M181.763 199.056C132.1 249.554 70.78 222.886 43.577 206.68c-1.537-.918-2.837-2.063-3.87-3.373 63.467-52.574 123.828-17.344 142.056-4.25z" fill="#3FA45A"/><path d="M226.206 183.427c-84.82 57.554-140.29-4.983-160.634-35.385-5.096-7.613-1.857-18.033 6.675-21.375 6.448-2.527 12.668-4.56 18.662-6.16 70.54-18.857 109.96 22.81 126.27 47.074 6.152 9.16 9.02 15.85 9.02 15.85z" fill="#4CBA68"/><path d="M217.18 167.58c-63.518 24.162-106.67-19.755-126.272-47.072 70.543-18.858 109.96 22.81 126.27 47.073z" fill="#64C37D"/><path d="M229.403 181.607c81.623-62.005 40.07-134.538 17.754-163.525-5.588-7.26-16.496-7.517-22.387-.5-4.454 5.305-8.365 10.55-11.795 15.72-40.393 60.83-13.493 111.49 4.294 134.69 6.71 8.762 12.13 13.615 12.13 13.615z" fill="#4CBA68"/><path d="M217.27 167.993c43.175-52.48 15.335-107.394-4.295-134.69-40.394 60.828-13.493 111.487 4.294 134.69z" fill="#64C37D"/><path d="M470.144 464.585c-1.124 3.074-2.435 6.025-3.93 8.862-13.33 25.316-40.72 40.677-69.842 38.315-112.17-9.13-213.485-80.745-213.485-80.745-80.735-53.583-90.762-169.92-19.075-221.222l2.445-1.743 52.334-37.47 54.78-39.2c71.69-51.304 178.76-4.344 203.24 89.41 28.91 110.652 11.29 195.214-6.46 243.793z" fill="#C70024"/><path d="M470.144 464.585c-1.124 3.074-2.435 6.025-3.93 8.862-11.885 6.283-25.575 9.285-39.667 8.14-112.17-9.13-213.485-80.745-213.485-80.745-68.077-45.185-85.883-134.978-46.805-192.79l52.334-37.47 54.78-39.2c71.69-51.304 178.76-4.344 203.24 89.41 28.91 110.652 11.29 195.214-6.46 243.793z" fill="#FF0C38"/><ellipse transform="rotate(144.41 183.355 333.986)" cx="183.356" cy="333.987" rx="9.295" ry="16.738"/><ellipse transform="rotate(144.41 217.378 248.572)" cx="217.38" cy="248.573" rx="9.295" ry="16.738"/><ellipse transform="rotate(144.41 301 303.435)" cx="301.002" cy="303.436" rx="9.295" ry="16.738"/><ellipse transform="rotate(144.41 420.152 176.55)" cx="420.154" cy="176.55" rx="9.295" ry="16.738"/><ellipse transform="rotate(144.41 394.937 279.98)" cx="394.939" cy="279.98" rx="9.295" ry="16.738"/><ellipse transform="rotate(144.41 447.31 367.22)" cx="447.313" cy="367.22" rx="9.295" ry="16.738"/><ellipse transform="rotate(144.41 332.58 413.76)" cx="332.581" cy="413.763" rx="9.295" ry="16.738"/><ellipse transform="rotate(144.41 413.16 456.912)" cx="413.161" cy="456.914" rx="9.295" ry="16.738"/><ellipse transform="rotate(144.41 320.538 189.774)" cx="320.54" cy="189.774" rx="9.295" ry="16.738"/><ellipse transform="rotate(144.41 226.66 414.662)" cx="226.662" cy="414.664" rx="9.295" ry="16.738"/></svg>