<?xml version="1.0" encoding="UTF-8"?>
<svg id="Layer_2" data-name="Layer 2" xmlns="http://www.w3.org/2000/svg" viewBox="0 0 177.88 35.85">
  <defs>
    <style>
      .cls-1 {
        fill: #ec1c24;
      }

      .cls-2 {
        fill: #fff;
      }

      .cls-3 {
        stroke: #fff;
        stroke-width: .25px;
      }

      .cls-3, .cls-4 {
        fill: none;
        stroke-miterlimit: 10;
      }

      .cls-4 {
        stroke: #3b2314;
        stroke-width: 1px;
      }
    </style>
  </defs>
  <g id="Layer_1-2" data-name="Layer 1">
    <g>
      <path class="cls-1" d="M161.41,.81V10.88s8.08-1.12,8.08,2.77c0,2.73,1.33,3.9,3.53,4.28-2.2,.38-3.53,1.55-3.53,4.28,0,3.89-8.08,2.77-8.08,2.77v10.07H16.47v-10.07s-8.08,1.12-8.08-2.77c0-2.73-1.33-3.9-3.53-4.28,2.2-.38,3.53-1.55,3.53-4.28,0-3.89,8.08-2.77,8.08-2.77V.81H161.41Z"/>
      <path class="cls-4" d="M161.41,.81V10.88s8.08-1.12,8.08,2.77c0,2.73,1.33,3.9,3.53,4.28-2.2,.38-3.53,1.55-3.53,4.28,0,3.89-8.08,2.77-8.08,2.77v10.07H16.47v-10.07s-8.08,1.12-8.08-2.77c0-2.73-1.33-3.9-3.53-4.28,2.2-.38,3.53-1.55,3.53-4.28,0-3.89,8.08-2.77,8.08-2.77V.81H161.41Z"/>
      <path class="cls-1" d="M162.01,35.35H15.87v-10c-1.32,.11-4.08,.23-6.03-.56-1.36-.55-2.05-1.42-2.05-2.59,0-3.09-1.78-3.75-3.12-3.98l-1.72-.3,1.72-.3c1.34-.23,3.12-.89,3.12-3.98,0-1.17,.69-2.04,2.05-2.59,1.95-.79,4.71-.67,6.03-.56V.5H162.01V10.5c1.32-.12,4.08-.23,6.03,.56,1.36,.55,2.05,1.42,2.05,2.59,0,3.09,1.78,3.75,3.12,3.98l1.72,.3-1.72,.3c-1.34,.23-3.12,.89-3.12,3.98,0,1.17-.69,2.04-2.05,2.59-1.95,.79-4.71,.67-6.03,.56v10Zm-144.94-.62H160.82v-10.16l.75,.1s3.63,.48,5.75-.37c1.05-.43,1.58-1.13,1.58-2.1,0-2.24,.89-3.62,2.77-4.28-1.88-.66-2.77-2.04-2.77-4.28,0-.97-.53-1.67-1.59-2.1-2.13-.86-5.71-.38-5.75-.37l-.75,.1V1.12H17.06V11.28l-.74-.1s-3.63-.48-5.75,.37c-1.05,.43-1.58,1.13-1.58,2.1,0,2.24-.89,3.62-2.76,4.28,1.88,.66,2.76,2.04,2.76,4.28,0,.97,.53,1.67,1.59,2.1,2.13,.86,5.71,.38,5.75,.37l.75-.1v10.16Z"/>
      <path class="cls-4" d="M162.01,35.35H15.87v-10c-1.32,.11-4.08,.23-6.03-.56-1.36-.55-2.05-1.42-2.05-2.59,0-3.09-1.78-3.75-3.12-3.98l-1.72-.3,1.72-.3c1.34-.23,3.12-.89,3.12-3.98,0-1.17,.69-2.04,2.05-2.59,1.95-.79,4.71-.67,6.03-.56V.5H162.01V10.5c1.32-.12,4.08-.23,6.03,.56,1.36,.55,2.05,1.42,2.05,2.59,0,3.09,1.78,3.75,3.12,3.98l1.72,.3-1.72,.3c-1.34,.23-3.12,.89-3.12,3.98,0,1.17-.69,2.04-2.05,2.59-1.95,.79-4.71,.67-6.03,.56v10Zm-144.94-.62H160.82v-10.16l.75,.1s3.63,.48,5.75-.37c1.05-.43,1.58-1.13,1.58-2.1,0-2.24,.89-3.62,2.77-4.28-1.88-.66-2.77-2.04-2.77-4.28,0-.97-.53-1.67-1.59-2.1-2.13-.86-5.71-.38-5.75-.37l-.75,.1V1.12H17.06V11.28l-.74-.1s-3.63-.48-5.75,.37c-1.05,.43-1.58,1.13-1.58,2.1,0,2.24-.89,3.62-2.76,4.28,1.88,.66,2.76,2.04,2.76,4.28,0,.97,.53,1.67,1.59,2.1,2.13,.86,5.71,.38,5.75,.37l.75-.1v10.16Z"/>
      <path class="cls-1" d="M19.34,33.53v-10.52l-3.61,.5s-.77,.1-1.71,.1c-.88,0-1.6-.09-2.02-.25-.49-.18-.73-.57-.73-1.16,0-.82,0-2.83-1.88-4.28,1.88-1.45,1.88-3.46,1.88-4.28,0-.93,.43-1.41,2.76-1.41,.95,0,1.72,.1,1.73,.1l3.58,.47,.02-1.93V2.32H158.53V12.84l3.61-.5s.77-.1,1.71-.1c2.33,0,2.76,.48,2.76,1.41,0,.82,0,2.82,1.89,4.28-1.89,1.45-1.89,3.45-1.89,4.28,0,.94-.43,1.41-2.76,1.41-.95,0-1.72-.1-1.73-.1l-3.58-.47-.02,1.93v8.56H19.34Z"/>
      <path class="cls-4" d="M19.34,33.53v-10.52l-3.61,.5s-.77,.1-1.71,.1c-.88,0-1.6-.09-2.02-.25-.49-.18-.73-.57-.73-1.16,0-.82,0-2.83-1.88-4.28,1.88-1.45,1.88-3.46,1.88-4.28,0-.93,.43-1.41,2.76-1.41,.95,0,1.72,.1,1.73,.1l3.58,.47,.02-1.93V2.32H158.53V12.84l3.61-.5s.77-.1,1.71-.1c2.33,0,2.76,.48,2.76,1.41,0,.82,0,2.82,1.89,4.28-1.89,1.45-1.89,3.45-1.89,4.28,0,.94-.43,1.41-2.76,1.41-.95,0-1.72-.1-1.73-.1l-3.58-.47-.02,1.93v8.56H19.34Z"/>
      <path class="cls-1" d="M158.79,33.67H19.09v-10.48l-3.29,.45c-.15,.02-.88,.1-1.78,.1s-1.71-.1-2.17-.27c-.56-.21-.84-.64-.84-1.27,0-.83,0-2.79-1.84-4.2l-.1-.08,.1-.08c1.84-1.42,1.84-3.37,1.84-4.2,0-.98,.49-1.54,3.01-1.54,.99,0,1.79,.11,1.79,.11l3.26,.43v-1.76s.01-8.7,.01-8.7H158.79V12.66l3.29-.46c.09-.01,.85-.1,1.78-.1,2.52,0,3.01,.57,3.01,1.54,0,.83,0,2.78,1.84,4.2l.1,.08-.1,.08c-1.84,1.42-1.84,3.37-1.84,4.2,0,.98-.49,1.54-3.01,1.54-.98,0-1.76-.1-1.79-.11l-3.26-.43-.02,1.76v8.7Zm-139.19-.27H158.28l.02-10.53,3.9,.51s.76,.1,1.67,.1c2.14,0,2.5-.39,2.5-1.27s0-2.8,1.83-4.28c-1.83-1.48-1.83-3.43-1.83-4.28s-.36-1.27-2.5-1.27c-.87,0-1.57,.09-1.65,.1l-3.93,.54V2.45H19.6l-.02,10.53-3.9-.51s-.75-.1-1.67-.1c-2.14,0-2.5,.39-2.5,1.27s0,2.8-1.83,4.28c1.83,1.48,1.83,3.44,1.83,4.28,0,.53,.22,.9,.63,1.05,.37,.14,1.06,.22,1.87,.22,.86,0,1.57-.09,1.65-.1l3.93-.54v10.56Z"/>
      <path class="cls-4" d="M158.79,33.67H19.09v-10.48l-3.29,.45c-.15,.02-.88,.1-1.78,.1s-1.71-.1-2.17-.27c-.56-.21-.84-.64-.84-1.27,0-.83,0-2.79-1.84-4.2l-.1-.08,.1-.08c1.84-1.42,1.84-3.37,1.84-4.2,0-.98,.49-1.54,3.01-1.54,.99,0,1.79,.11,1.79,.11l3.26,.43v-1.76s.01-8.7,.01-8.7H158.79V12.66l3.29-.46c.09-.01,.85-.1,1.78-.1,2.52,0,3.01,.57,3.01,1.54,0,.83,0,2.78,1.84,4.2l.1,.08-.1,.08c-1.84,1.42-1.84,3.37-1.84,4.2,0,.98-.49,1.54-3.01,1.54-.98,0-1.76-.1-1.79-.11l-3.26-.43-.02,1.76v8.7Zm-139.19-.27H158.28l.02-10.53,3.9,.51s.76,.1,1.67,.1c2.14,0,2.5-.39,2.5-1.27s0-2.8,1.83-4.28c-1.83-1.48-1.83-3.43-1.83-4.28s-.36-1.27-2.5-1.27c-.87,0-1.57,.09-1.65,.1l-3.93,.54V2.45H19.6l-.02,10.53-3.9-.51s-.75-.1-1.67-.1c-2.14,0-2.5,.39-2.5,1.27s0,2.8-1.83,4.28c1.83,1.48,1.83,3.44,1.83,4.28,0,.53,.22,.9,.63,1.05,.37,.14,1.06,.22,1.87,.22,.86,0,1.57-.09,1.65-.1l3.93-.54v10.56Z"/>
      <path class="cls-2" d="M105.11,21.87c.02,1-.49,1.68-1.5,2.04-.13,.35-.25,.59-.36,.72-.17,.2-.43,.31-.76,.35-.22,.02-.45,0-.69-.04-.44-.07-.99-.17-1.63-.27-.18-.03-.29-.15-.33-.36,.03-.23,.24-.36,.63-.4,.53-.04,1.32-.14,2.36-.31,.39-.1,.66-.34,.83-.73,.1-.2,.15-.45,.15-.73,0-.52-.23-1.44-.71-2.76-.46-1.29-.68-2.15-.65-2.58,.06-1.04,.92-1.76,2.59-2.17,.16-.04,.25,.03,.25,.2,0,.1-.06,.18-.18,.23-.8,.39-1.2,.87-1.2,1.44,0,.22,.04,.51,.11,.84,.08,.34,.3,1.15,.68,2.42,.28,.92,.42,1.62,.43,2.1m1.77-7.15c0,.37-.09,.97-.27,1.79-.07,.28-.15,.46-.23,.55-.04,.04-.17,.1-.38,.19-.28,.11-.45,.17-.52,.17-.11,0-.17-.09-.17-.25,0-.09,.02-.21,.05-.36,.18-.82,.25-1.39,.21-1.71-.05-.32,.04-.52,.25-.6,.37-.21,.61-.31,.71-.31,.23,0,.35,.18,.35,.53Zm-7.4,2.45c.05-.56,.08-.91,.08-1.06,0-.35-.1-.52-.29-.52-.07,0-.17,.02-.29,.05l-1.74,.78c-.2,.09-.32,.14-.35,.14-.06,0-.12-.08-.18-.24-.43,.59-.84,1.44-1.21,2.56-.29,.87-.49,1.65-.61,2.34-.08,.47-.12,.89-.12,1.27,0,1.28,.36,1.9,1.07,1.87,.28,0,.59-.13,.92-.37,.63-.47,1.22-1.42,1.76-2.84,.53-1.34,.84-2.66,.97-3.97Zm1.3-.37c-.02,.74-.18,1.72-.48,2.94-.49,1.93-1.18,3.42-2.07,4.48-.48,.56-1,.85-1.58,.85-.23,0-.51-.06-.87-.16-.7-.05-1.28-.29-1.72-.73-.48-.48-.71-1.1-.68-1.85,.03-.88,.3-2.1,.82-3.68,.57-1.72,1.16-2.95,1.78-3.7,.29-.37,.53-.55,.72-.55,.25,0,.67,.28,1.24,.86,.16-.08,.48-.24,.97-.46,.25-.09,.44-.14,.56-.14,.29,0,.62,.3,.98,.91,.23,.37,.34,.79,.33,1.24Zm-7.87-1.27c0,1.29-.16,2.33-.48,3.12-.14,.32-.35,.39-.63,.22-.42-.25-.63-.47-.63-.64,0-.07,.05-.15,.15-.23,.26-.8,.38-1.42,.36-1.86-.02-.37-.18-.56-.51-.56-.04,0-.09-.01-.17-.03-.07-.02-.13-.03-.18-.03-.26,0-.58,.27-.96,.82-.42,.62-.82,1.47-1.2,2.56-.31,.9-.52,1.68-.63,2.33-.08,.46-.12,.89-.12,1.27,0,1.27,.36,1.89,1.09,1.86,.63-.02,1.57-.9,2.79-2.67,.12-.16,.23-.24,.33-.24s.15,.07,.15,.2c0,.07-.02,.15-.06,.25-.39,1.08-.92,2.03-1.56,2.86-.16,.21-.43,.31-.83,.31-.24,0-.53-.05-.88-.15-.69-.05-1.24-.29-1.65-.73-.44-.47-.65-1.09-.62-1.85,.03-.88,.31-2.1,.83-3.66,.56-1.69,1.15-2.92,1.77-3.68,.28-.35,.53-.52,.72-.52s.58,.18,1.15,.55c.31-.12,.61-.19,.91-.19,.59,0,.89,.23,.89,.7Zm-7.24,.87c-.69,2.11-1.16,3.89-1.42,5.32,.11-.11,.26-.29,.45-.53,.18-.24,.3-.38,.34-.42,.1-.15,.21-.22,.33-.22,.11,0,.17,.06,.17,.19,0,.07-.03,.16-.09,.26-.7,1.15-1.17,2.31-1.4,3.49-.07,.33-.17,.5-.3,.5-.13,0-.36-.13-.71-.4-.2-.15-.32-.27-.34-.37-.04-.09-.04-.27,0-.55,.31-2.11,.7-3.85,1.17-5.25-.66,1.17-1.54,2.46-2.67,3.87-.98,1.24-1.69,2.02-2.13,2.36-.32,.24-.56,.36-.72,.36-.13,0-.34-.12-.62-.36-.4-.26-.6-.63-.6-1.09,0-.09,0-.2,.02-.31,.13-1.22,.62-2.65,1.46-4.28,.84-1.63,1.8-3,2.89-4.12,.35-.37,.67-.54,.94-.53,.27,.02,.78,.41,1.54,1.18,.07,.07,.1,.14,.1,.21,0,.13-.08,.2-.24,.2-.06,0-.12-.01-.17-.04-.53-.25-.96-.24-1.28,.03-.7,.57-1.48,1.58-2.34,3.02-.99,1.66-1.58,3.15-1.79,4.48,0,.06-.01,.11-.01,.16,0,.21,.08,.31,.23,.31,.25,0,.56-.2,.91-.59,.84-.9,1.74-2.04,2.7-3.4,.98-1.42,1.61-2.49,1.89-3.21,.2-.53,.33-.9,.39-1.12,.1-.37,.2-.56,.31-.56s.38,.17,.79,.51c.17,.14,.26,.27,.28,.38,.02,.1-.02,.28-.1,.52Zm-5.12-7.59c.02,.07,.02,.14,.02,.2,0,.24-.13,.4-.4,.48-.02,0-.27,.06-.77,.14-1.32,.21-2.69,.38-4.08,.51-.59,1.4-1.32,3.68-2.18,6.82-.79,2.87-1.38,5.27-1.75,7.2-.13,.62-.31,.93-.56,.93-.16,0-.48-.09-.96-.28-.17-.06-.26-.17-.28-.34,.02,.17,.02-.08,.02-.76,0-1.22,.18-2.33,.53-3.34,.13-.37,.28-.56,.45-.56,.05,0,.13,.02,.26,.06,.13,.04,.24,.06,.32,.07,.2-.84,.68-2.52,1.44-5.01,.85-2.82,1.32-4.37,1.39-4.64-1.16,.1-2.31,.3-3.47,.6-1.28,.35-2.12,.72-2.52,1.1-.45,.45-.68,.89-.68,1.33,0,.47,.25,1.21,.75,2.21,.05,.11,.08,.21,.08,.3,0,.21-.09,.31-.26,.31-.12,0-.23-.08-.33-.24-.59-.93-.98-1.66-1.16-2.19-.13-.37-.22-.89-.27-1.58-.08-1.01,.67-1.76,2.26-2.24,2.07-.62,4.15-1.04,6.26-1.24,.24-.53,.41-.79,.53-.79,.17,0,.46,.2,.88,.61,.2,0,.8-.08,1.81-.25,.18-.03,.36-.18,.55-.43,.16-.24,.56-.38,1.18-.41,.34-.02,.57,.12,.7,.42,.02,.04,.1,.38,.25,1.01Z"/>
      <path class="cls-3" d="M80.3,7.79c-.13-.3-.36-.44-.7-.42-.62,.03-1.02,.17-1.18,.41-.19,.26-.37,.4-.55,.44-1.01,.17-1.61,.25-1.81,.25-.41-.41-.7-.62-.88-.62-.11,0-.29,.27-.53,.81-2.11,.21-4.19,.62-6.26,1.25-1.59,.48-2.34,1.23-2.26,2.24,.05,.69,.14,1.21,.27,1.58,.18,.52,.57,1.25,1.16,2.19,.1,.16,.2,.24,.32,.24,.17,0,.26-.1,.26-.31,0-.09-.03-.19-.08-.3-.5-1-.74-1.74-.74-2.22,0-.44,.22-.88,.67-1.33,.4-.39,1.24-.76,2.52-1.11,1.15-.3,2.31-.5,3.46-.6-.08,.27-.54,1.82-1.39,4.64-.76,2.5-1.24,4.17-1.44,5.01-.08,0-.19-.03-.32-.07-.13-.04-.22-.05-.26-.05-.17,0-.32,.19-.45,.56-.35,1-.53,2.11-.53,3.33,0,.67,0,.92-.02,.76,.02,.17,.11,.28,.28,.34,.48,.18,.8,.27,.96,.27,.25,0,.43-.31,.56-.93,.38-1.92,.96-4.32,1.75-7.19,.86-3.14,1.59-5.41,2.18-6.82,1.4-.13,2.76-.3,4.09-.51,.5-.08,.76-.13,.78-.14,.27-.08,.4-.24,.4-.48,0-.06,0-.12-.02-.2-.14-.63-.22-.97-.25-1.01Z"/>
      <path class="cls-3" d="M85.77,15.87c-.02-.12-.11-.24-.28-.38-.41-.34-.68-.51-.79-.51s-.22,.19-.31,.56c-.06,.22-.19,.59-.39,1.12-.28,.72-.91,1.79-1.89,3.21-.96,1.37-1.86,2.5-2.7,3.41-.35,.39-.66,.58-.91,.58-.15,0-.23-.1-.23-.31,0-.05,0-.1,.01-.16,.2-1.33,.8-2.82,1.79-4.48,.85-1.44,1.63-2.45,2.34-3.02,.32-.27,.75-.27,1.28-.02,.05,.02,.11,.04,.17,.04,.16,0,.24-.07,.24-.2,0-.07-.03-.14-.1-.21-.76-.77-1.27-1.17-1.54-1.18-.28,0-.59,.17-.95,.53-1.09,1.12-2.05,2.49-2.89,4.12-.84,1.63-1.33,3.06-1.46,4.29-.02,.12-.02,.22-.02,.31,0,.46,.2,.83,.6,1.1,.28,.24,.48,.36,.62,.36,.16,0,.4-.12,.72-.36,.43-.34,1.14-1.13,2.12-2.36,1.12-1.42,2.01-2.71,2.66-3.88-.47,1.39-.87,3.14-1.18,5.25-.04,.27-.04,.46,0,.55,.03,.1,.15,.22,.35,.37,.34,.27,.58,.4,.71,.4,.14,0,.24-.17,.3-.5,.23-1.18,.7-2.34,1.4-3.5,.06-.1,.09-.19,.09-.26,0-.12-.06-.19-.17-.19-.12,0-.23,.07-.34,.22-.04,.04-.16,.18-.34,.42-.18,.24-.33,.42-.44,.54,.26-1.44,.74-3.21,1.43-5.33,.08-.25,.12-.42,.1-.52Z"/>
      <path class="cls-3" d="M92.02,14.81c-.3,0-.6,.06-.91,.19-.57-.37-.95-.55-1.15-.55s-.43,.17-.72,.52c-.62,.76-1.2,1.99-1.77,3.68-.52,1.56-.8,2.78-.83,3.66-.03,.76,.18,1.38,.62,1.85,.41,.44,.96,.68,1.65,.73,.35,.11,.64,.16,.88,.16,.4,0,.67-.1,.83-.31,.65-.82,1.17-1.77,1.56-2.85,.04-.1,.06-.18,.06-.25,0-.13-.05-.2-.15-.2s-.21,.08-.33,.24c-1.23,1.75-2.16,2.63-2.8,2.65-.73,.03-1.09-.6-1.09-1.87,0-.38,.04-.81,.12-1.27,.1-.65,.31-1.42,.63-2.33,.38-1.09,.78-1.95,1.2-2.56,.38-.55,.7-.82,.97-.82,.05,0,.1,.01,.18,.03,.07,.02,.13,.03,.17,.03,.32,0,.49,.19,.51,.56,.02,.44-.09,1.06-.35,1.85-.1,.08-.15,.16-.15,.24,0,.17,.21,.38,.63,.63,.28,.17,.49,.1,.63-.22,.32-.79,.48-1.82,.48-3.11,0-.46-.3-.7-.89-.7Z"/>
      <path class="cls-3" d="M98.52,21.13c-.55,1.42-1.14,2.36-1.77,2.84-.33,.24-.64,.37-.92,.37-.71,.03-1.07-.59-1.07-1.86,0-.38,.04-.81,.12-1.27,.11-.69,.31-1.47,.61-2.34,.38-1.11,.78-1.96,1.21-2.55,.06,.16,.12,.24,.18,.24,.03,0,.15-.05,.35-.14l1.74-.78c.12-.03,.22-.05,.29-.05,.19,0,.29,.18,.29,.52,0,.15-.03,.5-.08,1.06-.12,1.31-.44,2.63-.97,3.97Zm1.93-5.57c-.36-.61-.69-.91-.98-.91-.13,0-.31,.05-.56,.14-.49,.22-.81,.38-.97,.46-.57-.58-.98-.87-1.24-.87-.19,0-.43,.18-.72,.55-.62,.76-1.21,1.99-1.78,3.71-.52,1.57-.79,2.8-.82,3.68-.03,.76,.2,1.37,.67,1.85,.44,.44,1.02,.68,1.72,.73,.35,.11,.64,.16,.87,.16,.58,0,1.1-.28,1.57-.85,.89-1.06,1.58-2.55,2.07-4.48,.31-1.22,.47-2.2,.48-2.94,.02-.46-.09-.87-.33-1.24Z"/>
      <path class="cls-3" d="M104.68,19.75c-.37-1.28-.6-2.08-.67-2.42-.07-.34-.11-.61-.11-.84,0-.57,.4-1.05,1.21-1.44,.12-.06,.18-.14,.18-.24,0-.17-.08-.24-.25-.2-1.67,.41-2.54,1.13-2.6,2.16-.03,.43,.19,1.29,.65,2.58,.47,1.32,.71,2.24,.71,2.76,0,.29-.05,.54-.15,.73-.16,.39-.44,.63-.83,.73-1.04,.17-1.83,.27-2.36,.31-.39,.04-.6,.17-.63,.4,.04,.21,.15,.33,.33,.36,.64,.11,1.19,.2,1.63,.27,.25,.04,.48,.05,.7,.04,.34-.03,.59-.15,.76-.35,.11-.13,.23-.37,.36-.72,1.02-.36,1.52-1.04,1.49-2.04,0-.48-.15-1.18-.43-2.1Zm1.88-5.57c-.1,0-.34,.1-.71,.31-.21,.08-.29,.28-.25,.6,.04,.32-.03,.89-.21,1.71-.03,.15-.05,.27-.05,.36,0,.17,.06,.25,.17,.25,.07,0,.24-.06,.52-.17,.22-.08,.34-.14,.38-.19,.08-.08,.16-.27,.22-.55,.18-.82,.27-1.42,.27-1.79s-.12-.53-.35-.53Z"/>
    </g>
  </g>
</svg>