<svg height="512" viewBox="0 0 512 512" width="512" xmlns="http://www.w3.org/2000/svg"><path d="M0 419.804l.078 7.435c118.246 114.24 306.72 113 423.44-3.73C540.24 306.79 541.48 118.32 427.24.07L419.805 0z" fill="#98db7c"/><path d="M423.52 395.446C310.26 508.704 129.456 513.21 10.795 409.008L0 419.804l.078 7.435c118.246 114.24 306.72 113 423.44-3.73 62.56-62.56 91.94-145.73 88.153-227.65-3.35 72.57-32.73 144.16-88.15 199.58z" fill="#82d361"/><path d="M31.264 388.54c0 .002.002.003.003.004 98.66 98.66 258.618 98.66 357.277 0s98.66-258.618 0-357.277l-.003-.003z" fill="#ff4755"/><path d="M388.544 360.47c-93.936 93.937-243.44 98.43-342.698 13.488L31.263 388.54c0 .002.002.003.003.004 98.66 98.66 258.618 98.66 357.277 0 52.9-52.9 77.42-123.426 73.59-192.675-3.31 59.89-27.83 118.84-73.59 164.6z" fill="#fc2b3a"/><path d="M301.174 316.025c3.967 0 7.697-1.545 10.503-4.35s4.35-6.535 4.35-10.503-1.544-7.697-4.35-10.503v-.01c-2.113-2.11-18.072-14.15-26.616-5.61-2.56 2.566-4.8 7.5-.89 16.44 1.71 3.91 4.33 8 6.5 10.174 2.81 2.806 6.54 4.35 10.51 4.35zm-77.277 5.425c-11.954 1.765-11.807 21.75-11.372 24.71 1.086 7.372 7.444 12.69 14.687 12.69 6.175 0 11.82-3.958 13.953-9.746 2.314-6.28-.4-13.067-3.54-18.562-4.842-8.47-10.137-9.614-13.728-9.09zm-92.247 22.324c-1.39 3.716-1.245 7.752.402 11.36 2.474 5.42 8.113 8.91 14.077 8.684 5.93-.225 11.27-4.1 13.35-9.656 1.07-2.884 1.75-7.688 1.69-11.955-.16-9.757-4.24-13.318-7.64-14.586-11.32-4.22-20.84 13.36-21.89 16.16zm189.803-119.878c-1.762 11.956 17.42 17.58 20.375 18.016 8.018 1.176 15.68-4.52 16.863-12.53 1.19-8.016-4.52-15.682-12.53-16.86-2.96-.432-22.94-.582-24.7 11.374zm20.755-62.73c3.952.063 8.224-.293 11.955-1.687 7.577-2.83 11.558-11.52 8.722-19.11-2.828-7.58-11.515-11.56-19.11-8.73-2.883 1.073-6.958 3.71-10.138 6.56-7.27 6.504-7.284 11.923-6.015 15.322s4.83 7.483 14.586 7.636z" fill="#5b5b5b"/></svg>